M48
; DRILL file {KiCad 7.0.8} date 2023 November 09, Thursday 16:26:40
; FORMAT={-:-/ absolute / inch / decimal}
; #@! TF.CreationDate,2023-11-09T16:26:40+02:00
; #@! TF.GenerationSoftware,Kicad,Pcbnew,7.0.8
; #@! TF.FileFunction,NonPlated,1,2,NPTH
FMAT,2
INCH
; #@! TA.AperFunction,NonPlated,NPTH,ComponentDrill
T1C0.0197
%
G90
G05
T1
X0.3145Y-0.8605
X0.3145Y-0.8605
X0.3145Y-0.9196
X0.3145Y-0.9196
X0.3441Y-0.8605
X0.3441Y-0.9196
X0.3445Y-0.8605
X0.3445Y-0.8605
X0.3445Y-0.9196
X0.3445Y-0.9196
X0.3744Y-0.8605
X0.3744Y-0.8605
X0.3744Y-0.9196
X0.3744Y-0.9196
X0.3984Y0.8443
X0.3984Y0.8443
X0.3984Y0.7853
X0.3984Y0.7853
X0.4043Y-0.8605
X0.4043Y-0.8605
X0.4043Y-0.9196
X0.4043Y-0.9196
X0.4279Y0.8443
X0.4279Y0.7853
X0.4283Y0.8443
X0.4283Y0.8443
X0.4283Y0.7853
X0.4283Y0.7853
X0.4342Y-0.8605
X0.4342Y-0.8605
X0.4342Y-0.9196
X0.4342Y-0.9196
X0.4583Y0.8443
X0.4583Y0.8443
X0.4583Y0.7853
X0.4583Y0.7853
X0.4641Y-0.8605
X0.4641Y-0.8605
X0.4641Y-0.9196
X0.4641Y-0.9196
X0.4882Y0.8443
X0.4882Y0.8443
X0.4882Y0.7853
X0.4882Y0.7853
X0.4941Y-0.8605
X0.4941Y-0.8605
X0.4941Y-0.9196
X0.4941Y-0.9196
X0.5181Y0.8443
X0.5181Y0.8443
X0.5181Y0.7853
X0.5181Y0.7853
X0.548Y0.8443
X0.548Y0.8443
X0.548Y0.7853
X0.548Y0.7853
X0.5779Y0.8443
X0.5779Y0.8443
X0.5779Y0.7853
X0.5779Y0.7853
X1.3578Y-0.8605
X1.3578Y-0.8605
X1.3578Y-0.9196
X1.3578Y-0.9196
X1.3874Y-0.8605
X1.3874Y-0.9196
X1.3878Y-0.8605
X1.3878Y-0.8605
X1.3878Y-0.9196
X1.3878Y-0.9196
X1.4177Y-0.8605
X1.4177Y-0.8605
X1.4177Y-0.9196
X1.4177Y-0.9196
X1.4417Y0.8443
X1.4417Y0.8443
X1.4417Y0.7853
X1.4417Y0.7853
X1.4476Y-0.8605
X1.4476Y-0.8605
X1.4476Y-0.9196
X1.4476Y-0.9196
X1.4713Y0.8443
X1.4713Y0.7853
X1.4716Y0.8443
X1.4716Y0.8443
X1.4716Y0.7853
X1.4716Y0.7853
X1.4775Y-0.8605
X1.4775Y-0.8605
X1.4775Y-0.9196
X1.4775Y-0.9196
X1.5016Y0.8443
X1.5016Y0.8443
X1.5016Y0.7853
X1.5016Y0.7853
X1.5075Y-0.8605
X1.5075Y-0.8605
X1.5075Y-0.9196
X1.5075Y-0.9196
X1.5315Y0.8443
X1.5315Y0.8443
X1.5315Y0.7853
X1.5315Y0.7853
X1.5374Y-0.8605
X1.5374Y-0.8605
X1.5374Y-0.9196
X1.5374Y-0.9196
X1.5614Y0.8443
X1.5614Y0.8443
X1.5614Y0.7853
X1.5614Y0.7853
X1.5913Y0.8443
X1.5913Y0.8443
X1.5913Y0.7853
X1.5913Y0.7853
X1.6213Y0.8443
X1.6213Y0.8443
X1.6213Y0.7853
X1.6213Y0.7853
X2.4012Y-0.8605
X2.4012Y-0.8605
X2.4012Y-0.9196
X2.4012Y-0.9196
X2.4307Y-0.8605
X2.4307Y-0.9196
X2.4311Y-0.8605
X2.4311Y-0.8605
X2.4311Y-0.9196
X2.4311Y-0.9196
X2.461Y-0.8605
X2.461Y-0.8605
X2.461Y-0.9196
X2.461Y-0.9196
X2.485Y0.8443
X2.485Y0.8443
X2.485Y0.7853
X2.485Y0.7853
X2.4909Y-0.8605
X2.4909Y-0.8605
X2.4909Y-0.9196
X2.4909Y-0.9196
X2.5146Y0.8443
X2.5146Y0.7853
X2.515Y0.8443
X2.515Y0.8443
X2.515Y0.7853
X2.515Y0.7853
X2.5208Y-0.8605
X2.5208Y-0.8605
X2.5208Y-0.9196
X2.5208Y-0.9196
X2.5449Y0.8443
X2.5449Y0.8443
X2.5449Y0.7853
X2.5449Y0.7853
X2.5508Y-0.8605
X2.5508Y-0.8605
X2.5508Y-0.9196
X2.5508Y-0.9196
X2.5748Y0.8443
X2.5748Y0.8443
X2.5748Y0.7853
X2.5748Y0.7853
X2.5807Y-0.8605
X2.5807Y-0.8605
X2.5807Y-0.9196
X2.5807Y-0.9196
X2.6047Y0.8443
X2.6047Y0.8443
X2.6047Y0.7853
X2.6047Y0.7853
X2.6346Y0.8443
X2.6346Y0.8443
X2.6346Y0.7853
X2.6346Y0.7853
X2.6646Y0.8443
X2.6646Y0.8443
X2.6646Y0.7853
X2.6646Y0.7853
X3.4445Y-0.8605
X3.4445Y-0.8605
X3.4445Y-0.9196
X3.4445Y-0.9196
X3.474Y-0.8605
X3.474Y-0.9196
X3.4744Y-0.8605
X3.4744Y-0.8605
X3.4744Y-0.9196
X3.4744Y-0.9196
X3.5043Y-0.8605
X3.5043Y-0.8605
X3.5043Y-0.9196
X3.5043Y-0.9196
X3.5283Y0.8443
X3.5283Y0.8443
X3.5283Y0.7853
X3.5283Y0.7853
X3.5342Y-0.8605
X3.5342Y-0.8605
X3.5342Y-0.9196
X3.5342Y-0.9196
X3.5579Y0.8443
X3.5579Y0.7853
X3.5583Y0.8443
X3.5583Y0.8443
X3.5583Y0.7853
X3.5583Y0.7853
X3.5641Y-0.8605
X3.5641Y-0.8605
X3.5641Y-0.9196
X3.5641Y-0.9196
X3.5882Y0.8443
X3.5882Y0.8443
X3.5882Y0.7853
X3.5882Y0.7853
X3.5941Y-0.8605
X3.5941Y-0.8605
X3.5941Y-0.9196
X3.5941Y-0.9196
X3.6181Y0.8443
X3.6181Y0.8443
X3.6181Y0.7853
X3.6181Y0.7853
X3.624Y-0.8605
X3.624Y-0.8605
X3.624Y-0.9196
X3.624Y-0.9196
X3.648Y0.8443
X3.648Y0.8443
X3.648Y0.7853
X3.648Y0.7853
X3.6779Y0.8443
X3.6779Y0.8443
X3.6779Y0.7853
X3.6779Y0.7853
X3.7079Y0.8443
X3.7079Y0.8443
X3.7079Y0.7853
X3.7079Y0.7853
X4.4878Y-0.8605
X4.4878Y-0.8605
X4.4878Y-0.9196
X4.4878Y-0.9196
X4.5173Y-0.8605
X4.5173Y-0.9196
X4.5177Y-0.8605
X4.5177Y-0.8605
X4.5177Y-0.9196
X4.5177Y-0.9196
X4.5476Y-0.8605
X4.5476Y-0.8605
X4.5476Y-0.9196
X4.5476Y-0.9196
X4.5716Y0.8443
X4.5716Y0.8443
X4.5716Y0.7853
X4.5716Y0.7853
X4.5775Y-0.8605
X4.5775Y-0.8605
X4.5775Y-0.9196
X4.5775Y-0.9196
X4.6012Y0.8443
X4.6012Y0.7853
X4.6016Y0.8443
X4.6016Y0.8443
X4.6016Y0.7853
X4.6016Y0.7853
X4.6075Y-0.8605
X4.6075Y-0.8605
X4.6075Y-0.9196
X4.6075Y-0.9196
X4.6315Y0.8443
X4.6315Y0.8443
X4.6315Y0.7853
X4.6315Y0.7853
X4.6374Y-0.8605
X4.6374Y-0.8605
X4.6374Y-0.9196
X4.6374Y-0.9196
X4.6614Y0.8443
X4.6614Y0.8443
X4.6614Y0.7853
X4.6614Y0.7853
X4.6673Y-0.8605
X4.6673Y-0.8605
X4.6673Y-0.9196
X4.6673Y-0.9196
X4.6913Y0.8443
X4.6913Y0.8443
X4.6913Y0.7853
X4.6913Y0.7853
X4.7213Y0.8443
X4.7213Y0.8443
X4.7213Y0.7853
X4.7213Y0.7853
X4.7512Y0.8443
X4.7512Y0.8443
X4.7512Y0.7853
X4.7512Y0.7853
T0
M30
