M48
; DRILL file {KiCad 7.0.8} date 2023 November 09, Thursday 16:26:40
; FORMAT={-:-/ absolute / inch / decimal}
; #@! TF.CreationDate,2023-11-09T16:26:40+02:00
; #@! TF.GenerationSoftware,Kicad,Pcbnew,7.0.8
; #@! TF.FileFunction,Plated,1,2,PTH
FMAT,2
INCH
; #@! TA.AperFunction,Plated,PTH,ComponentDrill
T1C0.0079
; #@! TA.AperFunction,Plated,PTH,ViaDrill
T2C0.0157
; #@! TA.AperFunction,Plated,PTH,ViaDrill
T3C0.0236
; #@! TA.AperFunction,Plated,PTH,ComponentDrill
T4C0.0295
; #@! TA.AperFunction,Plated,PTH,ComponentDrill
T5C0.0315
; #@! TA.AperFunction,Plated,PTH,ComponentDrill
T6C0.0394
; #@! TA.AperFunction,Plated,PTH,ComponentDrill
T7C0.0512
; #@! TA.AperFunction,Plated,PTH,ComponentDrill
T8C0.0689
%
G90
G05
T1
X0.4528Y-1.6089
X0.4528Y-1.6641
X0.4578Y0.0959
X0.4578Y0.0407
X0.4804Y-1.5814
X0.4804Y-1.6365
X0.4804Y-1.6916
X0.4854Y0.1234
X0.4854Y0.0683
X0.4854Y0.0132
X0.5079Y-1.6089
X0.5079Y-1.6641
X0.5129Y0.0959
X0.5129Y0.0407
X0.5355Y-1.5814
X0.5355Y-1.6365
X0.5355Y-1.6916
X0.5405Y0.1234
X0.5405Y0.0683
X0.5405Y0.0132
X0.563Y-1.6089
X0.563Y-1.6641
X0.568Y0.0959
X0.568Y0.0407
X4.7249Y3.2666
X4.7249Y3.2115
X4.7525Y3.2942
X4.7525Y3.2391
X4.7525Y3.1839
X4.7801Y3.2666
X4.7801Y3.2115
X4.8076Y3.2942
X4.8076Y3.2391
X4.8076Y3.1839
X4.8352Y3.2666
X4.8352Y3.2115
T2
X0.3603Y-1.2871
X0.3653Y0.4177
X0.4103Y-1.2875
X0.4153Y0.4173
X0.5603Y-1.8682
X0.5653Y-0.1634
X0.592Y-1.8037
X0.597Y-0.0989
X0.6708Y-1.4585
X0.6758Y0.2463
X0.7581Y-1.7624
X0.7631Y-0.0576
X0.809Y-1.2875
X0.814Y0.4173
X0.9752Y2.8568
X1.0266Y-1.5342
X1.0315Y0.1706
X1.1212Y-2.1277
X1.1262Y-0.4229
X1.2446Y2.7473
X1.4731Y-1.8927
X1.478Y-0.1879
X1.5107Y-1.6019
X1.5157Y0.1029
X1.5695Y-1.7025
X1.5744Y0.0023
X1.9353Y3.0967
X2.8743Y-2.3122
X2.8758Y-0.6071
X2.9164Y3.0967
X3.6684Y-1.1668
X3.6684Y-2.3098
X3.6699Y0.5383
X3.6699Y-0.6047
X3.8684Y-1.1668
X3.8684Y-2.3098
X3.8699Y0.5383
X3.8699Y-0.6047
X4.0684Y-1.1668
X4.0684Y-2.3098
X4.0699Y0.5383
X4.0699Y-0.6047
X4.1125Y3.627
X4.1533Y3.628
X4.1916Y3.5196
X4.2621Y3.3503
X4.2684Y-1.1668
X4.2684Y-2.3098
X4.2699Y0.5383
X4.2699Y-0.6047
X4.2913Y3.3793
X4.3252Y3.3548
X4.45Y2.9639
X4.45Y2.9197
X4.45Y2.45
X4.4684Y-1.1668
X4.4684Y-2.3098
X4.4699Y0.5383
X4.4699Y-0.6047
X4.4887Y2.8889
X4.594Y2.4402
X4.6019Y2.8887
X4.6067Y2.7814
X4.6684Y-1.1668
X4.6684Y-2.3098
X4.6699Y0.5383
X4.6699Y-0.6047
X4.6879Y2.45
X4.8259Y3.4692
X4.8684Y-1.1668
X4.8684Y-2.3098
X4.8699Y0.5383
X4.8699Y-0.6047
X5.0684Y-1.1668
X5.0684Y-2.3098
X5.0699Y0.5383
X5.0699Y-0.6047
T3
X4.6559Y3.3805
T4
X0.2441Y-1.0937
X0.2491Y0.6111
X0.2773Y-2.4417
X0.2823Y-0.7369
X0.3229Y-1.0937
X0.3279Y0.6111
X0.3561Y-2.4417
X0.361Y-0.7369
X0.4016Y-1.0937
X0.4066Y0.6111
X0.4348Y-2.4417
X0.4398Y-0.7369
X0.4803Y-1.0937
X0.4853Y0.6111
X0.5135Y-2.4417
X0.5185Y-0.7369
X0.9729Y-2.3984
X0.9779Y-0.6936
X1.0516Y-2.3984
X1.0566Y-0.6936
X1.1304Y-2.3984
X1.1354Y-0.6936
X1.2091Y-2.3984
X1.2141Y-0.6936
X1.2343Y-2.0075
X1.2393Y-0.3027
X1.313Y-2.0075
X1.318Y-0.3027
X1.3918Y-2.0075
X1.3968Y-0.3027
X1.4705Y-2.0075
X1.4755Y-0.3027
X3.6289Y3.3054
X3.7076Y3.3054
X3.7864Y3.3054
X3.8395Y3.7841
X3.8395Y3.7054
X3.8395Y3.6266
X3.8395Y3.5479
X3.8651Y3.3054
X4.5027Y1.9753
X4.5814Y1.9753
X4.6602Y1.9753
X4.7368Y2.3054
X4.7389Y1.9753
X4.8155Y2.3054
X4.8942Y2.3054
X4.973Y2.3054
T5
X2.1201Y-1.0222
X2.1251Y0.6826
X2.2201Y-1.1222
X2.2251Y0.5826
X2.3201Y-1.0222
X2.3251Y0.6826
X4.0289Y1.6554
X4.1289Y1.7554
X4.2289Y1.6554
T6
X0.4157Y2.5658
X0.8881Y2.5658
X0.9789Y1.3486
X0.9789Y1.1517
X1.0707Y2.5658
X1.4789Y1.7554
X1.4789Y1.5585
X1.5431Y2.5658
X1.7257Y2.5658
X1.7799Y-1.8526
X1.7799Y-2.0494
X1.7849Y-0.1478
X1.7849Y-0.3446
X2.1981Y2.5658
X2.2208Y-1.4105
X2.2208Y-1.6074
X2.2258Y0.2943
X2.2258Y0.0974
X2.3807Y2.5658
X2.8531Y2.5658
X3.0357Y2.5658
X3.5081Y2.5658
X3.6907Y2.5658
X4.1631Y2.5658
T7
X0.4157Y2.0855
X0.6539Y2.6426
X0.8901Y2.0835
X1.0707Y2.0855
X1.3089Y2.6426
X1.5451Y2.0835
X1.7257Y2.0855
X1.9639Y2.6426
X2.2001Y2.0835
X2.3807Y2.0855
X2.6189Y2.6426
X2.8551Y2.0835
X3.0357Y2.0855
X3.2739Y2.6426
X3.5101Y2.0835
X3.6907Y2.0855
X3.9289Y2.6426
X4.1651Y2.0835
T8
X0.4261Y1.265
X0.5789Y1.265
X2.1931Y-2.2596
X2.1931Y-2.4124
X2.198Y-0.5548
X2.198Y-0.7076
X3.0632Y1.2554
X3.216Y1.2554
X3.4414Y1.2554
X3.5942Y1.2554
X3.8197Y1.2554
X3.9724Y1.2554
X4.1979Y1.2554
X4.3506Y1.2554
X4.5761Y1.2554
X4.7289Y1.2554
X4.9543Y1.2554
X5.0061Y1.7022
X5.0061Y1.5494
X5.1071Y1.2554
T0
M30
