%TF.GenerationSoftware,KiCad,Pcbnew,7.0.8*%
%TF.CreationDate,2023-11-09T16:26:40+02:00*%
%TF.ProjectId,sprinklers,73707269-6e6b-46c6-9572-732e6b696361,1.2*%
%TF.SameCoordinates,Original*%
%TF.FileFunction,Soldermask,Bot*%
%TF.FilePolarity,Negative*%
%FSLAX46Y46*%
G04 Gerber Fmt 4.6, Leading zero omitted, Abs format (unit mm)*
G04 Created by KiCad (PCBNEW 7.0.8) date 2023-11-09 16:26:40*
%MOMM*%
%LPD*%
G01*
G04 APERTURE LIST*
G04 Aperture macros list*
%AMRoundRect*
0 Rectangle with rounded corners*
0 $1 Rounding radius*
0 $2 $3 $4 $5 $6 $7 $8 $9 X,Y pos of 4 corners*
0 Add a 4 corners polygon primitive as box body*
4,1,4,$2,$3,$4,$5,$6,$7,$8,$9,$2,$3,0*
0 Add four circle primitives for the rounded corners*
1,1,$1+$1,$2,$3*
1,1,$1+$1,$4,$5*
1,1,$1+$1,$6,$7*
1,1,$1+$1,$8,$9*
0 Add four rect primitives between the rounded corners*
20,1,$1+$1,$2,$3,$4,$5,0*
20,1,$1+$1,$4,$5,$6,$7,0*
20,1,$1+$1,$6,$7,$8,$9,0*
20,1,$1+$1,$8,$9,$2,$3,0*%
%AMFreePoly0*
4,1,41,-22.500000,1.388890,-22.492142,1.520800,-22.447241,1.727208,-22.364088,1.921388,-22.245689,2.096323,-22.096323,2.245689,-21.921388,2.364088,-21.727208,2.447241,-21.520800,2.492142,-21.388890,2.500000,21.388890,2.500000,21.520800,2.492142,21.727208,2.447241,21.921388,2.364088,22.096323,2.245689,22.245689,2.096323,22.364088,1.921388,22.447241,1.727208,22.492142,1.520800,22.500000,1.388890,
22.500000,-1.388890,22.492142,-1.520800,22.447241,-1.727208,22.364088,-1.921388,22.245689,-2.096323,22.096323,-2.245689,21.921388,-2.364088,21.727208,-2.447241,21.520800,-2.492142,21.388890,-2.500000,-21.388890,-2.500000,-21.520800,-2.492142,-21.727208,-2.447241,-21.921388,-2.364088,-22.096323,-2.245689,-22.245689,-2.096323,-22.364088,-1.921388,-22.447241,-1.727208,-22.492142,-1.520800,-22.500000,-1.388890,
-22.500000,1.388890,-22.500000,1.388890,$1*%
G04 Aperture macros list end*
%ADD10RoundRect,0.250000X0.350000X0.625000X-0.350000X0.625000X-0.350000X-0.625000X0.350000X-0.625000X0*%
%ADD11O,1.200000X1.750000*%
%ADD12C,1.440000*%
%ADD13RoundRect,0.250000X-0.350000X-0.625000X0.350000X-0.625000X0.350000X0.625000X-0.350000X0.625000X0*%
%ADD14R,2.000000X2.000000*%
%ADD15C,2.000000*%
%ADD16R,3.000000X3.000000*%
%ADD17C,3.000000*%
%ADD18FreePoly0,180.000000*%
%ADD19C,0.500000*%
%ADD20C,2.500000*%
%ADD21RoundRect,0.250000X-0.625000X0.350000X-0.625000X-0.350000X0.625000X-0.350000X0.625000X0.350000X0*%
%ADD22O,1.750000X1.200000*%
G04 APERTURE END LIST*
D10*
%TO.C,PROG1*%
X13043763Y-62018627D03*
D11*
X11043763Y-62018627D03*
X9043763Y-62018627D03*
X7043763Y-62018627D03*
%TD*%
D12*
%TO.C,RV1*%
X58929963Y-25963927D03*
X56389963Y-28503927D03*
X53849963Y-25963927D03*
%TD*%
D10*
%TO.C,EXT1*%
X12200613Y-27780453D03*
D11*
X10200613Y-27780453D03*
X8200613Y-27780453D03*
X6200613Y-27780453D03*
%TD*%
D13*
%TO.C,LED1*%
X24711263Y-60918627D03*
D11*
X26711263Y-60918627D03*
X28711263Y-60918627D03*
X30711263Y-60918627D03*
%TD*%
D14*
%TO.C,C6*%
X56409563Y-40827727D03*
D15*
X56409563Y-35827727D03*
%TD*%
D10*
%TO.C,POWER1*%
X37351163Y-50990027D03*
D11*
X35351163Y-50990027D03*
X33351163Y-50990027D03*
X31351163Y-50990027D03*
%TD*%
D16*
%TO.C,AC24-IN1*%
X55703564Y-61273845D03*
D17*
X55703564Y-57393845D03*
%TD*%
D14*
%TO.C,C5*%
X45210263Y-52055127D03*
D15*
X45210263Y-47055127D03*
%TD*%
D10*
%TO.C,PROG1*%
X13170601Y-18716700D03*
D11*
X11170601Y-18716700D03*
X9170601Y-18716700D03*
X7170601Y-18716700D03*
%TD*%
D12*
%TO.C,RV1*%
X59056801Y17338000D03*
X56516801Y14798000D03*
X53976801Y17338000D03*
%TD*%
D10*
%TO.C,EXT1*%
X12327451Y15521474D03*
D11*
X10327451Y15521474D03*
X8327451Y15521474D03*
X6327451Y15521474D03*
%TD*%
D13*
%TO.C,LED1*%
X24838101Y-17616700D03*
D11*
X26838101Y-17616700D03*
X28838101Y-17616700D03*
X30838101Y-17616700D03*
%TD*%
D14*
%TO.C,C6*%
X56536401Y2474200D03*
D15*
X56536401Y7474200D03*
%TD*%
D10*
%TO.C,POWER1*%
X37478001Y-7688100D03*
D11*
X35478001Y-7688100D03*
X33478001Y-7688100D03*
X31478001Y-7688100D03*
%TD*%
D16*
%TO.C,AC24-IN1*%
X55830402Y-17971918D03*
D17*
X55830402Y-14091918D03*
%TD*%
D14*
%TO.C,C5*%
X45337101Y-8753200D03*
D15*
X45337101Y-3753200D03*
%TD*%
D18*
%TO.C,*%
X109871027Y-29636635D03*
%TD*%
D16*
%TO.C,J2*%
X87412404Y31886166D03*
D17*
X91292404Y31886166D03*
%TD*%
D19*
%TO.C,mouse-bite-2mm-slot*%
X10119874Y21445953D03*
X10119874Y21445953D03*
X10119874Y19945953D03*
X10119874Y19945953D03*
X10869874Y21445953D03*
X10869874Y19945953D03*
X10879874Y21445953D03*
X10879874Y21445953D03*
X10879874Y19945953D03*
X10879874Y19945953D03*
X11639874Y21445953D03*
X11639874Y21445953D03*
X11639874Y19945953D03*
X11639874Y19945953D03*
X12399874Y21445953D03*
X12399874Y21445953D03*
X12399874Y19945953D03*
X12399874Y19945953D03*
X13159874Y21445953D03*
X13159874Y21445953D03*
X13159874Y19945953D03*
X13159874Y19945953D03*
X13919874Y21445953D03*
X13919874Y21445953D03*
X13919874Y19945953D03*
X13919874Y19945953D03*
X14679874Y21445953D03*
X14679874Y21445953D03*
X14679874Y19945953D03*
X14679874Y19945953D03*
%TD*%
D18*
%TO.C,*%
X110206630Y-58668534D03*
%TD*%
D19*
%TO.C,mouse-bite-2mm-slot5*%
X36619874Y21445953D03*
X36619874Y21445953D03*
X36619874Y19945953D03*
X36619874Y19945953D03*
X37369874Y21445953D03*
X37369874Y19945953D03*
X37379874Y21445953D03*
X37379874Y21445953D03*
X37379874Y19945953D03*
X37379874Y19945953D03*
X38139874Y21445953D03*
X38139874Y21445953D03*
X38139874Y19945953D03*
X38139874Y19945953D03*
X38899874Y21445953D03*
X38899874Y21445953D03*
X38899874Y19945953D03*
X38899874Y19945953D03*
X39659874Y21445953D03*
X39659874Y21445953D03*
X39659874Y19945953D03*
X39659874Y19945953D03*
X40419874Y21445953D03*
X40419874Y21445953D03*
X40419874Y19945953D03*
X40419874Y19945953D03*
X41179874Y21445953D03*
X41179874Y21445953D03*
X41179874Y19945953D03*
X41179874Y19945953D03*
%TD*%
D17*
%TO.C,K5*%
X83156404Y67122166D03*
D20*
X77106404Y65172166D03*
D17*
X77106404Y52972166D03*
X89156404Y52922166D03*
D20*
X89106404Y65172166D03*
%TD*%
D13*
%TO.C,POWER1*%
X114367833Y50173181D03*
D11*
X116367833Y50173181D03*
X118367833Y50173181D03*
X120367833Y50173181D03*
%TD*%
D19*
%TO.C,mouse-bite-2mm-slot5*%
X34489338Y-21857965D03*
X34489338Y-21857965D03*
X34489338Y-23357965D03*
X34489338Y-23357965D03*
X35239338Y-21857965D03*
X35239338Y-23357965D03*
X35249338Y-21857965D03*
X35249338Y-21857965D03*
X35249338Y-23357965D03*
X35249338Y-23357965D03*
X36009338Y-21857965D03*
X36009338Y-21857965D03*
X36009338Y-23357965D03*
X36009338Y-23357965D03*
X36769338Y-21857965D03*
X36769338Y-21857965D03*
X36769338Y-23357965D03*
X36769338Y-23357965D03*
X37529338Y-21857965D03*
X37529338Y-21857965D03*
X37529338Y-23357965D03*
X37529338Y-23357965D03*
X38289338Y-21857965D03*
X38289338Y-21857965D03*
X38289338Y-23357965D03*
X38289338Y-23357965D03*
X39049338Y-21857965D03*
X39049338Y-21857965D03*
X39049338Y-23357965D03*
X39049338Y-23357965D03*
%TD*%
D16*
%TO.C,J3*%
X97019404Y31886166D03*
D17*
X100899404Y31886166D03*
%TD*%
D19*
%TO.C,mouse-bite-2mm-slot7*%
X89619874Y21445953D03*
X89619874Y21445953D03*
X89619874Y19945953D03*
X89619874Y19945953D03*
X90369874Y21445953D03*
X90369874Y19945953D03*
X90379874Y21445953D03*
X90379874Y21445953D03*
X90379874Y19945953D03*
X90379874Y19945953D03*
X91139874Y21445953D03*
X91139874Y21445953D03*
X91139874Y19945953D03*
X91139874Y19945953D03*
X91899874Y21445953D03*
X91899874Y21445953D03*
X91899874Y19945953D03*
X91899874Y19945953D03*
X92659874Y21445953D03*
X92659874Y21445953D03*
X92659874Y19945953D03*
X92659874Y19945953D03*
X93419874Y21445953D03*
X93419874Y21445953D03*
X93419874Y19945953D03*
X93419874Y19945953D03*
X94179874Y21445953D03*
X94179874Y21445953D03*
X94179874Y19945953D03*
X94179874Y19945953D03*
%TD*%
D17*
%TO.C,K3*%
X49882404Y67122166D03*
D20*
X43832404Y65172166D03*
D17*
X43832404Y52972166D03*
X55882404Y52922166D03*
D20*
X55832404Y65172166D03*
%TD*%
D16*
%TO.C,J6*%
X125840404Y31886166D03*
D17*
X129720404Y31886166D03*
%TD*%
D19*
%TO.C,mouse-bite-2mm-slot8*%
X116119874Y21445953D03*
X116119874Y21445953D03*
X116119874Y19945953D03*
X116119874Y19945953D03*
X116869874Y21445953D03*
X116869874Y19945953D03*
X116879874Y21445953D03*
X116879874Y21445953D03*
X116879874Y19945953D03*
X116879874Y19945953D03*
X117639874Y21445953D03*
X117639874Y21445953D03*
X117639874Y19945953D03*
X117639874Y19945953D03*
X118399874Y21445953D03*
X118399874Y21445953D03*
X118399874Y19945953D03*
X118399874Y19945953D03*
X119159874Y21445953D03*
X119159874Y21445953D03*
X119159874Y19945953D03*
X119159874Y19945953D03*
X119919874Y21445953D03*
X119919874Y21445953D03*
X119919874Y19945953D03*
X119919874Y19945953D03*
X120679874Y21445953D03*
X120679874Y21445953D03*
X120679874Y19945953D03*
X120679874Y19945953D03*
%TD*%
D16*
%TO.C,J5*%
X116233404Y31886166D03*
D17*
X120113404Y31886166D03*
%TD*%
%TO.C,K1*%
X16608404Y67122166D03*
D20*
X10558404Y65172166D03*
D17*
X10558404Y52972166D03*
X22608404Y52922166D03*
D20*
X22558404Y65172166D03*
%TD*%
D17*
%TO.C,K4*%
X66519404Y67122166D03*
D20*
X60469404Y65172166D03*
D17*
X60469404Y52972166D03*
X72519404Y52922166D03*
D20*
X72469404Y65172166D03*
%TD*%
D18*
%TO.C,*%
X109909909Y13671788D03*
%TD*%
%TO.C,*%
X110245512Y-15360111D03*
%TD*%
D19*
%TO.C,mouse-bite-2mm-slot8*%
X113989338Y-21857965D03*
X113989338Y-21857965D03*
X113989338Y-23357965D03*
X113989338Y-23357965D03*
X114739338Y-21857965D03*
X114739338Y-23357965D03*
X114749338Y-21857965D03*
X114749338Y-21857965D03*
X114749338Y-23357965D03*
X114749338Y-23357965D03*
X115509338Y-21857965D03*
X115509338Y-21857965D03*
X115509338Y-23357965D03*
X115509338Y-23357965D03*
X116269338Y-21857965D03*
X116269338Y-21857965D03*
X116269338Y-23357965D03*
X116269338Y-23357965D03*
X117029338Y-21857965D03*
X117029338Y-21857965D03*
X117029338Y-23357965D03*
X117029338Y-23357965D03*
X117789338Y-21857965D03*
X117789338Y-21857965D03*
X117789338Y-23357965D03*
X117789338Y-23357965D03*
X118549338Y-21857965D03*
X118549338Y-21857965D03*
X118549338Y-23357965D03*
X118549338Y-23357965D03*
%TD*%
D17*
%TO.C,K6*%
X99793404Y67122166D03*
D20*
X93743404Y65172166D03*
D17*
X93743404Y52972166D03*
X105793404Y52922166D03*
D20*
X105743404Y65172166D03*
%TD*%
D14*
%TO.C,C6*%
X37563404Y39586166D03*
D15*
X37563404Y44586166D03*
%TD*%
D19*
%TO.C,mouse-bite-2mm-slot*%
X7989338Y-21857965D03*
X7989338Y-21857965D03*
X7989338Y-23357965D03*
X7989338Y-23357965D03*
X8739338Y-21857965D03*
X8739338Y-23357965D03*
X8749338Y-21857965D03*
X8749338Y-21857965D03*
X8749338Y-23357965D03*
X8749338Y-23357965D03*
X9509338Y-21857965D03*
X9509338Y-21857965D03*
X9509338Y-23357965D03*
X9509338Y-23357965D03*
X10269338Y-21857965D03*
X10269338Y-21857965D03*
X10269338Y-23357965D03*
X10269338Y-23357965D03*
X11029338Y-21857965D03*
X11029338Y-21857965D03*
X11029338Y-23357965D03*
X11029338Y-23357965D03*
X11789338Y-21857965D03*
X11789338Y-21857965D03*
X11789338Y-23357965D03*
X11789338Y-23357965D03*
X12549338Y-21857965D03*
X12549338Y-21857965D03*
X12549338Y-23357965D03*
X12549338Y-23357965D03*
%TD*%
D16*
%TO.C,J1*%
X77805404Y31886166D03*
D17*
X81685404Y31886166D03*
%TD*%
D12*
%TO.C,RV1*%
X102333404Y42046166D03*
X104873404Y44586166D03*
X107413404Y42046166D03*
%TD*%
D17*
%TO.C,K2*%
X33245404Y67122166D03*
D20*
X27195404Y65172166D03*
D17*
X27195404Y52972166D03*
X39245404Y52922166D03*
D20*
X39195404Y65172166D03*
%TD*%
D16*
%TO.C,SENSOR1*%
X127155204Y39355066D03*
D17*
X127155204Y43235066D03*
%TD*%
D13*
%TO.C,PROG1*%
X120313534Y58556167D03*
D11*
X122313534Y58556167D03*
X124313534Y58556167D03*
X126313534Y58556167D03*
%TD*%
D16*
%TO.C,J4*%
X106626404Y31886166D03*
D17*
X110506404Y31886166D03*
%TD*%
D21*
%TO.C,LED1*%
X97523404Y96116166D03*
D22*
X97523404Y94116166D03*
X97523404Y92116166D03*
X97523404Y90116166D03*
%TD*%
D19*
%TO.C,mouse-bite-2mm-slot6*%
X60989338Y-21857965D03*
X60989338Y-21857965D03*
X60989338Y-23357965D03*
X60989338Y-23357965D03*
X61739338Y-21857965D03*
X61739338Y-23357965D03*
X61749338Y-21857965D03*
X61749338Y-21857965D03*
X61749338Y-23357965D03*
X61749338Y-23357965D03*
X62509338Y-21857965D03*
X62509338Y-21857965D03*
X62509338Y-23357965D03*
X62509338Y-23357965D03*
X63269338Y-21857965D03*
X63269338Y-21857965D03*
X63269338Y-23357965D03*
X63269338Y-23357965D03*
X64029338Y-21857965D03*
X64029338Y-21857965D03*
X64029338Y-23357965D03*
X64029338Y-23357965D03*
X64789338Y-21857965D03*
X64789338Y-21857965D03*
X64789338Y-23357965D03*
X64789338Y-23357965D03*
X65549338Y-21857965D03*
X65549338Y-21857965D03*
X65549338Y-23357965D03*
X65549338Y-23357965D03*
%TD*%
%TO.C,mouse-bite-2mm-slot7*%
X87489338Y-21857965D03*
X87489338Y-21857965D03*
X87489338Y-23357965D03*
X87489338Y-23357965D03*
X88239338Y-21857965D03*
X88239338Y-23357965D03*
X88249338Y-21857965D03*
X88249338Y-21857965D03*
X88249338Y-23357965D03*
X88249338Y-23357965D03*
X89009338Y-21857965D03*
X89009338Y-21857965D03*
X89009338Y-23357965D03*
X89009338Y-23357965D03*
X89769338Y-21857965D03*
X89769338Y-21857965D03*
X89769338Y-23357965D03*
X89769338Y-23357965D03*
X90529338Y-21857965D03*
X90529338Y-21857965D03*
X90529338Y-23357965D03*
X90529338Y-23357965D03*
X91289338Y-21857965D03*
X91289338Y-21857965D03*
X91289338Y-23357965D03*
X91289338Y-23357965D03*
X92049338Y-21857965D03*
X92049338Y-21857965D03*
X92049338Y-23357965D03*
X92049338Y-23357965D03*
%TD*%
D16*
%TO.C,AC24-IN1*%
X10823404Y32132166D03*
D17*
X14703404Y32132166D03*
%TD*%
D13*
%TO.C,EXT1*%
X92173404Y83956166D03*
D11*
X94173404Y83956166D03*
X96173404Y83956166D03*
X98173404Y83956166D03*
%TD*%
D19*
%TO.C,mouse-bite-2mm-slot6*%
X63119874Y21445953D03*
X63119874Y21445953D03*
X63119874Y19945953D03*
X63119874Y19945953D03*
X63869874Y21445953D03*
X63869874Y19945953D03*
X63879874Y21445953D03*
X63879874Y21445953D03*
X63879874Y19945953D03*
X63879874Y19945953D03*
X64639874Y21445953D03*
X64639874Y21445953D03*
X64639874Y19945953D03*
X64639874Y19945953D03*
X65399874Y21445953D03*
X65399874Y21445953D03*
X65399874Y19945953D03*
X65399874Y19945953D03*
X66159874Y21445953D03*
X66159874Y21445953D03*
X66159874Y19945953D03*
X66159874Y19945953D03*
X66919874Y21445953D03*
X66919874Y21445953D03*
X66919874Y19945953D03*
X66919874Y19945953D03*
X67679874Y21445953D03*
X67679874Y21445953D03*
X67679874Y19945953D03*
X67679874Y19945953D03*
%TD*%
D14*
%TO.C,C5*%
X24863404Y34253866D03*
D15*
X24863404Y29253866D03*
%TD*%
M02*
