%TF.GenerationSoftware,KiCad,Pcbnew,7.0.8*%
%TF.CreationDate,2023-11-08T20:04:04+02:00*%
%TF.ProjectId,sprinklers,73707269-6e6b-46c6-9572-732e6b696361,1.2*%
%TF.SameCoordinates,Original*%
%TF.FileFunction,Copper,L2,Bot*%
%TF.FilePolarity,Positive*%
%FSLAX46Y46*%
G04 Gerber Fmt 4.6, Leading zero omitted, Abs format (unit mm)*
G04 Created by KiCad (PCBNEW 7.0.8) date 2023-11-08 20:04:04*
%MOMM*%
%LPD*%
G01*
G04 APERTURE LIST*
G04 Aperture macros list*
%AMRoundRect*
0 Rectangle with rounded corners*
0 $1 Rounding radius*
0 $2 $3 $4 $5 $6 $7 $8 $9 X,Y pos of 4 corners*
0 Add a 4 corners polygon primitive as box body*
4,1,4,$2,$3,$4,$5,$6,$7,$8,$9,$2,$3,0*
0 Add four circle primitives for the rounded corners*
1,1,$1+$1,$2,$3*
1,1,$1+$1,$4,$5*
1,1,$1+$1,$6,$7*
1,1,$1+$1,$8,$9*
0 Add four rect primitives between the rounded corners*
20,1,$1+$1,$2,$3,$4,$5,0*
20,1,$1+$1,$4,$5,$6,$7,0*
20,1,$1+$1,$6,$7,$8,$9,0*
20,1,$1+$1,$8,$9,$2,$3,0*%
%AMFreePoly0*
4,1,41,-22.500000,1.388890,-22.492142,1.520800,-22.447241,1.727208,-22.364088,1.921388,-22.245689,2.096323,-22.096323,2.245689,-21.921388,2.364088,-21.727208,2.447241,-21.520800,2.492142,-21.388890,2.500000,21.388890,2.500000,21.520800,2.492142,21.727208,2.447241,21.921388,2.364088,22.096323,2.245689,22.245689,2.096323,22.364088,1.921388,22.447241,1.727208,22.492142,1.520800,22.500000,1.388890,
22.500000,-1.388890,22.492142,-1.520800,22.447241,-1.727208,22.364088,-1.921388,22.245689,-2.096323,22.096323,-2.245689,21.921388,-2.364088,21.727208,-2.447241,21.520800,-2.492142,21.388890,-2.500000,-21.388890,-2.500000,-21.520800,-2.492142,-21.727208,-2.447241,-21.921388,-2.364088,-22.096323,-2.245689,-22.245689,-2.096323,-22.364088,-1.921388,-22.447241,-1.727208,-22.492142,-1.520800,-22.500000,-1.388890,
-22.500000,1.388890,-22.500000,1.388890,$1*%
G04 Aperture macros list end*
%TA.AperFunction,ComponentPad*%
%ADD10RoundRect,0.250000X-0.350000X-0.625000X0.350000X-0.625000X0.350000X0.625000X-0.350000X0.625000X0*%
%TD*%
%TA.AperFunction,ComponentPad*%
%ADD11O,1.200000X1.750000*%
%TD*%
%TA.AperFunction,ComponentPad*%
%ADD12C,1.440000*%
%TD*%
%TA.AperFunction,SMDPad,CuDef*%
%ADD13FreePoly0,180.000000*%
%TD*%
%TA.AperFunction,ComponentPad*%
%ADD14RoundRect,0.250000X0.350000X0.625000X-0.350000X0.625000X-0.350000X-0.625000X0.350000X-0.625000X0*%
%TD*%
%TA.AperFunction,ComponentPad*%
%ADD15R,3.000000X3.000000*%
%TD*%
%TA.AperFunction,ComponentPad*%
%ADD16C,3.000000*%
%TD*%
%TA.AperFunction,HeatsinkPad*%
%ADD17C,0.600000*%
%TD*%
%TA.AperFunction,ComponentPad*%
%ADD18R,2.000000X2.000000*%
%TD*%
%TA.AperFunction,ComponentPad*%
%ADD19C,2.000000*%
%TD*%
%TA.AperFunction,ComponentPad*%
%ADD20C,2.500000*%
%TD*%
%TA.AperFunction,ComponentPad*%
%ADD21RoundRect,0.250000X-0.625000X0.350000X-0.625000X-0.350000X0.625000X-0.350000X0.625000X0.350000X0*%
%TD*%
%TA.AperFunction,ComponentPad*%
%ADD22O,1.750000X1.200000*%
%TD*%
%TA.AperFunction,ViaPad*%
%ADD23C,0.800000*%
%TD*%
%TA.AperFunction,ViaPad*%
%ADD24C,1.000000*%
%TD*%
%TA.AperFunction,Conductor*%
%ADD25C,0.250000*%
%TD*%
%TA.AperFunction,Conductor*%
%ADD26C,1.000000*%
%TD*%
%TA.AperFunction,Conductor*%
%ADD27C,0.500000*%
%TD*%
G04 APERTURE END LIST*
D10*
%TO.P,LED1,1,Pin_1*%
%TO.N,Net-(LED1-Pin_1)*%
X25492863Y-63357874D03*
D11*
%TO.P,LED1,2,Pin_2*%
%TO.N,Net-(LED1-Pin_2)*%
X27492863Y-63357874D03*
%TO.P,LED1,3,Pin_3*%
%TO.N,Net-(LED1-Pin_3)*%
X29492863Y-63357874D03*
%TO.P,LED1,4,Pin_4*%
%TO.N,GRD*%
X31492863Y-63357874D03*
%TD*%
D12*
%TO.P,RV1,1,1*%
%TO.N,GRD*%
X59711563Y-28852374D03*
%TO.P,RV1,2,2*%
%TO.N,Net-(SENSOR1-Pin_1)*%
X57171563Y-31392374D03*
%TO.P,RV1,3,3*%
%TO.N,unconnected-(RV1-Pad3)*%
X54631563Y-28852374D03*
%TD*%
D13*
%TO.P,,1*%
%TO.N,Net-(SENSOR1-Pin_1)*%
X110532471Y-32919476D03*
%TD*%
D14*
%TO.P,EXT1,1,Pin_1*%
%TO.N,Net-(EXT1-Pin_1)*%
X13774663Y-30553774D03*
D11*
%TO.P,EXT1,2,Pin_2*%
%TO.N,Net-(EXT1-Pin_2)*%
X11774663Y-30553774D03*
%TO.P,EXT1,3,Pin_3*%
%TO.N,Net-(EXT1-Pin_3)*%
X9774663Y-30553774D03*
%TO.P,EXT1,4,Pin_4*%
%TO.N,Net-(EXT1-Pin_4)*%
X7774663Y-30553774D03*
%TD*%
D15*
%TO.P,AC24-IN1,1,Pin_1*%
%TO.N,Net-(AC24-IN1-Pin_1)*%
X56485164Y-64162292D03*
D16*
%TO.P,AC24-IN1,2,Pin_2*%
%TO.N,Net-(AC24-IN1-Pin_2)*%
X56485164Y-60282292D03*
%TD*%
D14*
%TO.P,POWER1,1,Pin_1*%
%TO.N,Net-(POWER1-Pin_1)*%
X38132763Y-53878474D03*
D11*
%TO.P,POWER1,2,Pin_2*%
%TO.N,Net-(POWER1-Pin_2)*%
X36132763Y-53878474D03*
%TO.P,POWER1,3,Pin_3*%
%TO.N,3V3*%
X34132763Y-53878474D03*
%TO.P,POWER1,4,Pin_4*%
%TO.N,GRD*%
X32132763Y-53878474D03*
%TD*%
D13*
%TO.P,,1*%
%TO.N,3V3*%
X110868074Y-61951375D03*
%TD*%
D17*
%TO.P,U2,39,GND*%
%TO.N,GRD*%
X12982863Y-45855474D03*
X14382863Y-45855474D03*
X12282863Y-45155474D03*
X13682863Y-45155474D03*
X15082863Y-45155474D03*
X12982863Y-44455474D03*
X14382863Y-44455474D03*
X12282863Y-43755474D03*
X13682863Y-43755474D03*
X15082863Y-43755474D03*
X12982863Y-43055474D03*
X14382863Y-43055474D03*
%TD*%
D18*
%TO.P,C6,1*%
%TO.N,Net-(POWER1-Pin_2)*%
X57191163Y-43716174D03*
D19*
%TO.P,C6,2*%
%TO.N,GRD*%
X57191163Y-38716174D03*
%TD*%
D14*
%TO.P,PROG1,1,Pin_1*%
%TO.N,Net-(PROG1-Pin_1)*%
X13825363Y-64907074D03*
D11*
%TO.P,PROG1,2,Pin_2*%
%TO.N,Net-(PROG1-Pin_2)*%
X11825363Y-64907074D03*
%TO.P,PROG1,3,Pin_3*%
%TO.N,Net-(PROG1-Pin_3)*%
X9825363Y-64907074D03*
%TO.P,PROG1,4,Pin_4*%
%TO.N,Net-(POWER1-Pin_1)*%
X7825363Y-64907074D03*
%TD*%
D18*
%TO.P,C5,1*%
%TO.N,Net-(D4-K)*%
X45991863Y-54943574D03*
D19*
%TO.P,C5,2*%
%TO.N,GRD*%
X45991863Y-49943574D03*
%TD*%
D10*
%TO.P,LED1,1,Pin_1*%
%TO.N,Net-(LED1-Pin_1)*%
X25487316Y-21747558D03*
D11*
%TO.P,LED1,2,Pin_2*%
%TO.N,Net-(LED1-Pin_2)*%
X27487316Y-21747558D03*
%TO.P,LED1,3,Pin_3*%
%TO.N,Net-(LED1-Pin_3)*%
X29487316Y-21747558D03*
%TO.P,LED1,4,Pin_4*%
%TO.N,GRD*%
X31487316Y-21747558D03*
%TD*%
D12*
%TO.P,RV1,1,1*%
%TO.N,GRD*%
X59706016Y12757942D03*
%TO.P,RV1,2,2*%
%TO.N,Net-(SENSOR1-Pin_1)*%
X57166016Y10217942D03*
%TO.P,RV1,3,3*%
%TO.N,unconnected-(RV1-Pad3)*%
X54626016Y12757942D03*
%TD*%
D13*
%TO.P,,1*%
%TO.N,Net-(SENSOR1-Pin_1)*%
X110526924Y8690840D03*
%TD*%
D14*
%TO.P,EXT1,1,Pin_1*%
%TO.N,Net-(EXT1-Pin_1)*%
X13769116Y11056542D03*
D11*
%TO.P,EXT1,2,Pin_2*%
%TO.N,Net-(EXT1-Pin_2)*%
X11769116Y11056542D03*
%TO.P,EXT1,3,Pin_3*%
%TO.N,Net-(EXT1-Pin_3)*%
X9769116Y11056542D03*
%TO.P,EXT1,4,Pin_4*%
%TO.N,Net-(EXT1-Pin_4)*%
X7769116Y11056542D03*
%TD*%
D15*
%TO.P,AC24-IN1,1,Pin_1*%
%TO.N,Net-(AC24-IN1-Pin_1)*%
X56479617Y-22551976D03*
D16*
%TO.P,AC24-IN1,2,Pin_2*%
%TO.N,Net-(AC24-IN1-Pin_2)*%
X56479617Y-18671976D03*
%TD*%
D14*
%TO.P,POWER1,1,Pin_1*%
%TO.N,Net-(POWER1-Pin_1)*%
X38127216Y-12268158D03*
D11*
%TO.P,POWER1,2,Pin_2*%
%TO.N,Net-(POWER1-Pin_2)*%
X36127216Y-12268158D03*
%TO.P,POWER1,3,Pin_3*%
%TO.N,3V3*%
X34127216Y-12268158D03*
%TO.P,POWER1,4,Pin_4*%
%TO.N,GRD*%
X32127216Y-12268158D03*
%TD*%
D13*
%TO.P,,1*%
%TO.N,3V3*%
X110862527Y-20341059D03*
%TD*%
D17*
%TO.P,U2,39,GND*%
%TO.N,GRD*%
X12977316Y-4245158D03*
X14377316Y-4245158D03*
X12277316Y-3545158D03*
X13677316Y-3545158D03*
X15077316Y-3545158D03*
X12977316Y-2845158D03*
X14377316Y-2845158D03*
X12277316Y-2145158D03*
X13677316Y-2145158D03*
X15077316Y-2145158D03*
X12977316Y-1445158D03*
X14377316Y-1445158D03*
%TD*%
D18*
%TO.P,C6,1*%
%TO.N,Net-(POWER1-Pin_2)*%
X57185616Y-2105858D03*
D19*
%TO.P,C6,2*%
%TO.N,GRD*%
X57185616Y2894142D03*
%TD*%
D14*
%TO.P,PROG1,1,Pin_1*%
%TO.N,Net-(PROG1-Pin_1)*%
X13819816Y-23296758D03*
D11*
%TO.P,PROG1,2,Pin_2*%
%TO.N,Net-(PROG1-Pin_2)*%
X11819816Y-23296758D03*
%TO.P,PROG1,3,Pin_3*%
%TO.N,Net-(PROG1-Pin_3)*%
X9819816Y-23296758D03*
%TO.P,PROG1,4,Pin_4*%
%TO.N,Net-(POWER1-Pin_1)*%
X7819816Y-23296758D03*
%TD*%
D18*
%TO.P,C5,1*%
%TO.N,Net-(D4-K)*%
X45986316Y-13333258D03*
D19*
%TO.P,C5,2*%
%TO.N,GRD*%
X45986316Y-8333258D03*
%TD*%
D16*
%TO.P,K4,1*%
%TO.N,Net-(AC24-IN1-Pin_1)*%
X67056000Y60636000D03*
D20*
%TO.P,K4,2*%
%TO.N,Net-(D12-A)*%
X61006000Y58686000D03*
D16*
%TO.P,K4,3*%
%TO.N,Net-(J4-Pin_1)*%
X61006000Y46486000D03*
%TO.P,K4,4*%
%TO.N,unconnected-(K4-Pad4)*%
X73056000Y46436000D03*
D20*
%TO.P,K4,5*%
%TO.N,5V*%
X73006000Y58686000D03*
%TD*%
D16*
%TO.P,K2,1*%
%TO.N,Net-(AC24-IN1-Pin_1)*%
X33782000Y60636000D03*
D20*
%TO.P,K2,2*%
%TO.N,Net-(D10-A)*%
X27732000Y58686000D03*
D16*
%TO.P,K2,3*%
%TO.N,Net-(J2-Pin_1)*%
X27732000Y46486000D03*
%TO.P,K2,4*%
%TO.N,unconnected-(K2-Pad4)*%
X39782000Y46436000D03*
D20*
%TO.P,K2,5*%
%TO.N,5V*%
X39732000Y58686000D03*
%TD*%
D15*
%TO.P,AC24-IN1,1,Pin_1*%
%TO.N,Net-(AC24-IN1-Pin_1)*%
X11360000Y25646000D03*
D16*
%TO.P,AC24-IN1,2,Pin_2*%
%TO.N,Net-(AC24-IN1-Pin_2)*%
X15240000Y25646000D03*
%TD*%
D12*
%TO.P,RV1,1,1*%
%TO.N,GRD*%
X102870000Y35560000D03*
%TO.P,RV1,2,2*%
%TO.N,Net-(SENSOR1-Pin_1)*%
X105410000Y38100000D03*
%TO.P,RV1,3,3*%
%TO.N,unconnected-(RV1-Pad3)*%
X107950000Y35560000D03*
%TD*%
D21*
%TO.P,LED1,1,Pin_1*%
%TO.N,Net-(LED1-Pin_1)*%
X98060000Y89630000D03*
D22*
%TO.P,LED1,2,Pin_2*%
%TO.N,Net-(LED1-Pin_2)*%
X98060000Y87630000D03*
%TO.P,LED1,3,Pin_3*%
%TO.N,Net-(LED1-Pin_3)*%
X98060000Y85630000D03*
%TO.P,LED1,4,Pin_4*%
%TO.N,GRD*%
X98060000Y83630000D03*
%TD*%
D15*
%TO.P,J4,1,Pin_1*%
%TO.N,Net-(J4-Pin_1)*%
X107163000Y25400000D03*
D16*
%TO.P,J4,2,Pin_2*%
%TO.N,Net-(AC24-IN1-Pin_2)*%
X111043000Y25400000D03*
%TD*%
%TO.P,K5,1*%
%TO.N,Net-(AC24-IN1-Pin_1)*%
X83693000Y60636000D03*
D20*
%TO.P,K5,2*%
%TO.N,Net-(D13-A)*%
X77643000Y58686000D03*
D16*
%TO.P,K5,3*%
%TO.N,Net-(J5-Pin_1)*%
X77643000Y46486000D03*
%TO.P,K5,4*%
%TO.N,unconnected-(K5-Pad4)*%
X89693000Y46436000D03*
D20*
%TO.P,K5,5*%
%TO.N,5V*%
X89643000Y58686000D03*
%TD*%
D18*
%TO.P,C5,1*%
%TO.N,Net-(D4-K)*%
X25400000Y27767700D03*
D19*
%TO.P,C5,2*%
%TO.N,GRD*%
X25400000Y22767700D03*
%TD*%
D18*
%TO.P,C6,1*%
%TO.N,5V*%
X38100000Y33100000D03*
D19*
%TO.P,C6,2*%
%TO.N,GRD*%
X38100000Y38100000D03*
%TD*%
D16*
%TO.P,K1,1*%
%TO.N,Net-(AC24-IN1-Pin_1)*%
X17145000Y60636000D03*
D20*
%TO.P,K1,2*%
%TO.N,Net-(D11-A)*%
X11095000Y58686000D03*
D16*
%TO.P,K1,3*%
%TO.N,Net-(J1-Pin_1)*%
X11095000Y46486000D03*
%TO.P,K1,4*%
%TO.N,unconnected-(K1-Pad4)*%
X23145000Y46436000D03*
D20*
%TO.P,K1,5*%
%TO.N,5V*%
X23095000Y58686000D03*
%TD*%
D15*
%TO.P,J5,1,Pin_1*%
%TO.N,Net-(J5-Pin_1)*%
X116770000Y25400000D03*
D16*
%TO.P,J5,2,Pin_2*%
%TO.N,Net-(AC24-IN1-Pin_2)*%
X120650000Y25400000D03*
%TD*%
D15*
%TO.P,SENSOR1,1,Pin_1*%
%TO.N,Net-(SENSOR1-Pin_1)*%
X127691800Y32868900D03*
D16*
%TO.P,SENSOR1,2,Pin_2*%
%TO.N,3V3*%
X127691800Y36748900D03*
%TD*%
D10*
%TO.P,POWER1,1,Pin_1*%
%TO.N,Net-(POWER1-Pin_1)*%
X114904429Y43687015D03*
D11*
%TO.P,POWER1,2,Pin_2*%
%TO.N,5V*%
X116904429Y43687015D03*
%TO.P,POWER1,3,Pin_3*%
%TO.N,3V3*%
X118904429Y43687015D03*
%TO.P,POWER1,4,Pin_4*%
%TO.N,GRD*%
X120904429Y43687015D03*
%TD*%
D17*
%TO.P,U2,39,GND*%
%TO.N,GRD*%
X122650000Y77186000D03*
X121250000Y77186000D03*
X123350000Y76486000D03*
X121950000Y76486000D03*
X120550000Y76486000D03*
X122650000Y75786000D03*
X121250000Y75786000D03*
X123350000Y75086000D03*
X121950000Y75086000D03*
X120550000Y75086000D03*
X122650000Y74386000D03*
X121250000Y74386000D03*
%TD*%
D15*
%TO.P,J2,1,Pin_1*%
%TO.N,Net-(J2-Pin_1)*%
X87949000Y25400000D03*
D16*
%TO.P,J2,2,Pin_2*%
%TO.N,Net-(AC24-IN1-Pin_2)*%
X91829000Y25400000D03*
%TD*%
D10*
%TO.P,EXT1,1,Pin_1*%
%TO.N,Net-(EXT1-Pin_1)*%
X92710000Y77470000D03*
D11*
%TO.P,EXT1,2,Pin_2*%
%TO.N,Net-(EXT1-Pin_2)*%
X94710000Y77470000D03*
%TO.P,EXT1,3,Pin_3*%
%TO.N,Net-(EXT1-Pin_3)*%
X96710000Y77470000D03*
%TO.P,EXT1,4,Pin_4*%
%TO.N,Net-(EXT1-Pin_4)*%
X98710000Y77470000D03*
%TD*%
D10*
%TO.P,PROG1,1,Pin_1*%
%TO.N,Net-(PROG1-Pin_1)*%
X120850130Y52070001D03*
D11*
%TO.P,PROG1,2,Pin_2*%
%TO.N,Net-(PROG1-Pin_2)*%
X122850130Y52070001D03*
%TO.P,PROG1,3,Pin_3*%
%TO.N,Net-(PROG1-Pin_3)*%
X124850130Y52070001D03*
%TO.P,PROG1,4,Pin_4*%
%TO.N,Net-(POWER1-Pin_1)*%
X126850130Y52070001D03*
%TD*%
D16*
%TO.P,K3,1*%
%TO.N,Net-(AC24-IN1-Pin_1)*%
X50419000Y60636000D03*
D20*
%TO.P,K3,2*%
%TO.N,Net-(D9-A)*%
X44369000Y58686000D03*
D16*
%TO.P,K3,3*%
%TO.N,Net-(J3-Pin_1)*%
X44369000Y46486000D03*
%TO.P,K3,4*%
%TO.N,unconnected-(K3-Pad4)*%
X56419000Y46436000D03*
D20*
%TO.P,K3,5*%
%TO.N,5V*%
X56369000Y58686000D03*
%TD*%
D15*
%TO.P,J3,1,Pin_1*%
%TO.N,Net-(J3-Pin_1)*%
X97556000Y25400000D03*
D16*
%TO.P,J3,2,Pin_2*%
%TO.N,Net-(AC24-IN1-Pin_2)*%
X101436000Y25400000D03*
%TD*%
D15*
%TO.P,J6,1,Pin_1*%
%TO.N,Net-(J6-Pin_1)*%
X126377000Y25400000D03*
D16*
%TO.P,J6,2,Pin_2*%
%TO.N,Net-(AC24-IN1-Pin_2)*%
X130257000Y25400000D03*
%TD*%
D15*
%TO.P,J1,1,Pin_1*%
%TO.N,Net-(J1-Pin_1)*%
X78342000Y25400000D03*
D16*
%TO.P,J1,2,Pin_2*%
%TO.N,Net-(AC24-IN1-Pin_2)*%
X82222000Y25400000D03*
%TD*%
%TO.P,K6,1*%
%TO.N,Net-(AC24-IN1-Pin_1)*%
X100330000Y60636000D03*
D20*
%TO.P,K6,2*%
%TO.N,Net-(D14-A)*%
X94280000Y58686000D03*
D16*
%TO.P,K6,3*%
%TO.N,Net-(J6-Pin_1)*%
X94280000Y46486000D03*
%TO.P,K6,4*%
%TO.N,unconnected-(K6-Pad4)*%
X106330000Y46436000D03*
D20*
%TO.P,K6,5*%
%TO.N,5V*%
X106280000Y58686000D03*
%TD*%
D23*
%TO.N,Net-(SENSOR1-Pin_1)*%
X124318206Y-32919476D03*
X98918206Y-32919476D03*
X20036963Y-47652674D03*
%TO.N,3V3*%
X109078206Y-61951375D03*
%TO.N,Net-(EXT1-Pin_1)*%
X15818363Y-48701474D03*
%TO.N,Net-(SENSOR1-Pin_1)*%
X114158206Y-32919476D03*
X129398206Y-32919476D03*
%TO.N,3V3*%
X124318206Y-61951375D03*
X73667963Y-62011774D03*
%TO.N,Net-(SENSOR1-Pin_1)*%
X109078206Y-32919476D03*
%TO.N,Net-(EXT1-Pin_2)*%
X15012863Y-50341974D03*
%TO.N,Net-(SENSOR1-Pin_1)*%
X93838206Y-32919476D03*
%TO.N,GRD*%
X39152467Y-43575979D03*
%TO.N,3V3*%
X38197163Y-50962774D03*
%TO.N,Net-(D4-K)*%
X26864863Y-46964274D03*
%TO.N,3V3*%
X103998206Y-61951375D03*
%TO.N,Net-(SENSOR1-Pin_1)*%
X103998206Y-32919476D03*
%TO.N,Net-(U2-IO4)*%
X29260963Y-59576774D03*
%TO.N,GRD*%
X40645722Y-46132583D03*
%TO.N,3V3*%
X93838206Y-61951375D03*
X119238206Y-61951375D03*
X114158206Y-61951375D03*
%TO.N,Net-(SENSOR1-Pin_1)*%
X119238206Y-32919476D03*
%TO.N,Net-(U2-IO4)*%
X21329763Y-35589774D03*
%TO.N,Net-(PROG1-Pin_2)*%
X11202863Y-35591874D03*
%TO.N,3V3*%
X129398206Y-61951375D03*
%TO.N,Net-(PROG1-Pin_3)*%
X9932863Y-35581674D03*
%TO.N,Net-(PROG1-Pin_1)*%
X17819363Y-39933974D03*
%TO.N,3V3*%
X98918206Y-61951375D03*
%TO.N,Net-(SENSOR1-Pin_1)*%
X124312659Y8690840D03*
X98912659Y8690840D03*
X20031416Y-6042358D03*
%TO.N,3V3*%
X109072659Y-20341059D03*
%TO.N,Net-(EXT1-Pin_1)*%
X15812816Y-7091158D03*
%TO.N,Net-(SENSOR1-Pin_1)*%
X114152659Y8690840D03*
X129392659Y8690840D03*
%TO.N,3V3*%
X124312659Y-20341059D03*
X73662416Y-20401458D03*
%TO.N,Net-(SENSOR1-Pin_1)*%
X109072659Y8690840D03*
%TO.N,Net-(EXT1-Pin_2)*%
X15007316Y-8731658D03*
%TO.N,Net-(SENSOR1-Pin_1)*%
X93832659Y8690840D03*
%TO.N,GRD*%
X39146920Y-1965663D03*
%TO.N,3V3*%
X38191616Y-9352458D03*
%TO.N,Net-(D4-K)*%
X26859316Y-5353958D03*
%TO.N,3V3*%
X103992659Y-20341059D03*
%TO.N,Net-(SENSOR1-Pin_1)*%
X103992659Y8690840D03*
%TO.N,Net-(U2-IO4)*%
X29255416Y-17966458D03*
%TO.N,GRD*%
X40640175Y-4522267D03*
%TO.N,3V3*%
X93832659Y-20341059D03*
X119232659Y-20341059D03*
X114152659Y-20341059D03*
%TO.N,Net-(SENSOR1-Pin_1)*%
X119232659Y8690840D03*
%TO.N,Net-(U2-IO4)*%
X21324216Y6020542D03*
%TO.N,Net-(PROG1-Pin_2)*%
X11197316Y6018442D03*
%TO.N,3V3*%
X129392659Y-20341059D03*
%TO.N,Net-(PROG1-Pin_3)*%
X9927316Y6028642D03*
%TO.N,Net-(PROG1-Pin_1)*%
X17813816Y1676342D03*
%TO.N,3V3*%
X98912659Y-20341059D03*
%TO.N,GRD*%
X119633441Y57035742D03*
X112931805Y59012110D03*
X117229962Y59037618D03*
X74613149Y72171135D03*
X49693745Y72171135D03*
%TO.N,Net-(D10-A)*%
X32149605Y63295616D03*
D24*
%TO.N,3V3*%
X118795500Y79377900D03*
D23*
%TO.N,Net-(Q1-G)*%
X117546300Y64161400D03*
X25306100Y66075300D03*
%TO.N,Net-(U2-IO13)*%
X107002600Y82910500D03*
X110397900Y78726000D03*
%TO.N,Net-(U2-IO5)*%
X117424300Y66888000D03*
X106029300Y85666200D03*
%TO.N,Net-(U2-IO4)*%
X114549800Y66892700D03*
X104993300Y85638600D03*
%TO.N,Net-(SENSOR1-Pin_1)*%
X123114400Y81631500D03*
%TO.N,Net-(EXT1-Pin_1)*%
X109535100Y79347900D03*
%TO.N,Net-(EXT1-Pin_2)*%
X108792900Y78612500D03*
%TO.N,Net-(EXT1-Pin_3)*%
X112962800Y67674900D03*
%TO.N,Net-(EXT1-Pin_4)*%
X113104900Y68797100D03*
%TD*%
D25*
%TO.N,Net-(D4-K)*%
X33132763Y-53232174D02*
X33132763Y-54480574D01*
X33132763Y-54480574D02*
X33765463Y-55113274D01*
X26864863Y-46964274D02*
X33132763Y-53232174D01*
D26*
%TO.N,3V3*%
X68316063Y-56659874D02*
X73667963Y-62011774D01*
D25*
X37396063Y-50962774D02*
X38197163Y-50962774D01*
X38197163Y-50962774D02*
X48396163Y-40763774D01*
X68316063Y-40763774D02*
X68316063Y-40763674D01*
D26*
X68316063Y-40763674D02*
X68316063Y-56659874D01*
D25*
X34132763Y-53878474D02*
X35059663Y-53878474D01*
%TO.N,Net-(PROG1-Pin_1)*%
X17819363Y-39933974D02*
X17819363Y-60913074D01*
%TO.N,GRD*%
X59711563Y-36195774D02*
X59711563Y-28852374D01*
X32132763Y-55080374D02*
X31492863Y-55720274D01*
X32132763Y-53878474D02*
X32132763Y-55080374D01*
X57191163Y-38716174D02*
X59711563Y-36195774D01*
%TO.N,Net-(EXT1-Pin_2)*%
X15884463Y-37241974D02*
X15884463Y-47098174D01*
%TO.N,Net-(SENSOR1-Pin_1)*%
X57171563Y-31392374D02*
X36297263Y-31392374D01*
%TO.N,Net-(D4-K)*%
X45991863Y-54943574D02*
X44664963Y-54943574D01*
%TO.N,Net-(PROG1-Pin_3)*%
X9825363Y-64907074D02*
X9825363Y-63705174D01*
%TO.N,GRD*%
X40645722Y-45069234D02*
X40645722Y-46132583D01*
%TO.N,Net-(PROG1-Pin_2)*%
X11202863Y-63082674D02*
X11202863Y-35591874D01*
%TO.N,Net-(POWER1-Pin_2)*%
X55864263Y-43716174D02*
X47574163Y-52006274D01*
%TO.N,Net-(PROG1-Pin_3)*%
X9932863Y-63597674D02*
X9932863Y-35581674D01*
%TO.N,Net-(U2-IO4)*%
X19292363Y-49608174D02*
X19292363Y-37627174D01*
%TO.N,Net-(EXT1-Pin_1)*%
X13774663Y-30553774D02*
X16407163Y-33186274D01*
%TO.N,Net-(EXT1-Pin_2)*%
X12701563Y-30553774D02*
X12701563Y-34059074D01*
%TO.N,Net-(POWER1-Pin_2)*%
X38138863Y-52006274D02*
X37059663Y-53085474D01*
X37059663Y-53085474D02*
X37059663Y-53878474D01*
%TO.N,Net-(EXT1-Pin_1)*%
X16407163Y-48112674D02*
X15818363Y-48701474D01*
%TO.N,3V3*%
X35059663Y-53878474D02*
X35059663Y-53299174D01*
%TO.N,Net-(PROG1-Pin_3)*%
X9825363Y-63705174D02*
X9932863Y-63597674D01*
%TO.N,Net-(EXT1-Pin_2)*%
X11774663Y-30553774D02*
X12701563Y-30553774D01*
X15012863Y-47969774D02*
X15012863Y-50341974D01*
X15884463Y-47098174D02*
X15012863Y-47969774D01*
%TO.N,Net-(D4-K)*%
X33765463Y-55113274D02*
X44495263Y-55113274D01*
%TO.N,Net-(EXT1-Pin_2)*%
X12701563Y-34059074D02*
X15884463Y-37241974D01*
%TO.N,3V3*%
X35059663Y-53299174D02*
X37396063Y-50962774D01*
%TO.N,Net-(POWER1-Pin_2)*%
X36132763Y-53878474D02*
X37059663Y-53878474D01*
%TO.N,Net-(U2-IO4)*%
X19292363Y-49608174D02*
X29260963Y-59576774D01*
X19292363Y-37627174D02*
X21329763Y-35589774D01*
%TO.N,Net-(PROG1-Pin_1)*%
X17819363Y-60913074D02*
X13825363Y-64907074D01*
%TO.N,Net-(SENSOR1-Pin_1)*%
X36297263Y-31392374D02*
X20036963Y-47652674D01*
%TO.N,Net-(PROG1-Pin_2)*%
X11825363Y-64907074D02*
X11825363Y-63705174D01*
%TO.N,GRD*%
X39152467Y-43575979D02*
X40645722Y-45069234D01*
%TO.N,Net-(PROG1-Pin_2)*%
X11825363Y-63705174D02*
X11202863Y-63082674D01*
%TO.N,Net-(EXT1-Pin_1)*%
X16407163Y-33186274D02*
X16407163Y-48112674D01*
%TO.N,Net-(D4-K)*%
X44495263Y-55113274D02*
X44664963Y-54943574D01*
%TO.N,GRD*%
X31492863Y-55720274D02*
X31492863Y-63357874D01*
%TO.N,Net-(POWER1-Pin_2)*%
X47574163Y-52006274D02*
X38138863Y-52006274D01*
X57191163Y-43716174D02*
X55864263Y-43716174D01*
D27*
%TO.N,3V3*%
X48396163Y-40763774D02*
X68316063Y-40763774D01*
D25*
%TO.N,Net-(D4-K)*%
X33127216Y-11621858D02*
X33127216Y-12870258D01*
X33127216Y-12870258D02*
X33759916Y-13502958D01*
X26859316Y-5353958D02*
X33127216Y-11621858D01*
D26*
%TO.N,3V3*%
X68310516Y-15049558D02*
X73662416Y-20401458D01*
D25*
X37390516Y-9352458D02*
X38191616Y-9352458D01*
X38191616Y-9352458D02*
X48390616Y846542D01*
X68310516Y846542D02*
X68310516Y846642D01*
D26*
X68310516Y846642D02*
X68310516Y-15049558D01*
D25*
X34127216Y-12268158D02*
X35054116Y-12268158D01*
%TO.N,Net-(PROG1-Pin_1)*%
X17813816Y1676342D02*
X17813816Y-19302758D01*
%TO.N,GRD*%
X59706016Y5414542D02*
X59706016Y12757942D01*
X32127216Y-13470058D02*
X31487316Y-14109958D01*
X32127216Y-12268158D02*
X32127216Y-13470058D01*
X57185616Y2894142D02*
X59706016Y5414542D01*
%TO.N,Net-(EXT1-Pin_2)*%
X15878916Y4368342D02*
X15878916Y-5487858D01*
%TO.N,Net-(SENSOR1-Pin_1)*%
X57166016Y10217942D02*
X36291716Y10217942D01*
%TO.N,Net-(D4-K)*%
X45986316Y-13333258D02*
X44659416Y-13333258D01*
%TO.N,Net-(PROG1-Pin_3)*%
X9819816Y-23296758D02*
X9819816Y-22094858D01*
%TO.N,GRD*%
X40640175Y-3458918D02*
X40640175Y-4522267D01*
%TO.N,Net-(PROG1-Pin_2)*%
X11197316Y-21472358D02*
X11197316Y6018442D01*
%TO.N,Net-(POWER1-Pin_2)*%
X55858716Y-2105858D02*
X47568616Y-10395958D01*
%TO.N,Net-(PROG1-Pin_3)*%
X9927316Y-21987358D02*
X9927316Y6028642D01*
%TO.N,Net-(U2-IO4)*%
X19286816Y-7997858D02*
X19286816Y3983142D01*
%TO.N,Net-(EXT1-Pin_1)*%
X13769116Y11056542D02*
X16401616Y8424042D01*
%TO.N,Net-(EXT1-Pin_2)*%
X12696016Y11056542D02*
X12696016Y7551242D01*
%TO.N,Net-(POWER1-Pin_2)*%
X38133316Y-10395958D02*
X37054116Y-11475158D01*
X37054116Y-11475158D02*
X37054116Y-12268158D01*
%TO.N,Net-(EXT1-Pin_1)*%
X16401616Y-6502358D02*
X15812816Y-7091158D01*
%TO.N,3V3*%
X35054116Y-12268158D02*
X35054116Y-11688858D01*
%TO.N,Net-(PROG1-Pin_3)*%
X9819816Y-22094858D02*
X9927316Y-21987358D01*
%TO.N,Net-(EXT1-Pin_2)*%
X11769116Y11056542D02*
X12696016Y11056542D01*
X15007316Y-6359458D02*
X15007316Y-8731658D01*
X15878916Y-5487858D02*
X15007316Y-6359458D01*
%TO.N,Net-(D4-K)*%
X33759916Y-13502958D02*
X44489716Y-13502958D01*
%TO.N,Net-(EXT1-Pin_2)*%
X12696016Y7551242D02*
X15878916Y4368342D01*
%TO.N,3V3*%
X35054116Y-11688858D02*
X37390516Y-9352458D01*
%TO.N,Net-(POWER1-Pin_2)*%
X36127216Y-12268158D02*
X37054116Y-12268158D01*
%TO.N,Net-(U2-IO4)*%
X19286816Y-7997858D02*
X29255416Y-17966458D01*
X19286816Y3983142D02*
X21324216Y6020542D01*
%TO.N,Net-(PROG1-Pin_1)*%
X17813816Y-19302758D02*
X13819816Y-23296758D01*
%TO.N,Net-(SENSOR1-Pin_1)*%
X36291716Y10217942D02*
X20031416Y-6042358D01*
%TO.N,Net-(PROG1-Pin_2)*%
X11819816Y-23296758D02*
X11819816Y-22094858D01*
%TO.N,GRD*%
X39146920Y-1965663D02*
X40640175Y-3458918D01*
%TO.N,Net-(PROG1-Pin_2)*%
X11819816Y-22094858D02*
X11197316Y-21472358D01*
%TO.N,Net-(EXT1-Pin_1)*%
X16401616Y8424042D02*
X16401616Y-6502358D01*
%TO.N,Net-(D4-K)*%
X44489716Y-13502958D02*
X44659416Y-13333258D01*
%TO.N,GRD*%
X31487316Y-14109958D02*
X31487316Y-21747558D01*
%TO.N,Net-(POWER1-Pin_2)*%
X47568616Y-10395958D02*
X38133316Y-10395958D01*
X57185616Y-2105858D02*
X55858716Y-2105858D01*
D27*
%TO.N,3V3*%
X48390616Y846542D02*
X68310516Y846542D01*
%TO.N,GRD*%
X121090000Y77186000D02*
X121090000Y78973000D01*
X25400000Y22767700D02*
X31738937Y29106637D01*
X74613149Y72171135D02*
X49693745Y72171135D01*
X119608900Y72904900D02*
X119608900Y57060283D01*
X119633441Y57035742D02*
X119608900Y57011201D01*
X121090000Y78973000D02*
X113388000Y86675000D01*
D25*
X112931805Y59012110D02*
X112957313Y59037618D01*
D27*
X101105000Y86675000D02*
X98060000Y83630000D01*
X121090000Y74386000D02*
X119608900Y72904900D01*
X113388000Y86675000D02*
X101105000Y86675000D01*
X119608900Y45039400D02*
X121067000Y43581300D01*
X31738937Y31738937D02*
X38100000Y38100000D01*
X119608900Y57060283D02*
X119633441Y57035742D01*
X119608900Y57011201D02*
X119608900Y45039400D01*
D25*
X112957313Y59037618D02*
X117229962Y59037618D01*
D27*
X31738937Y29106637D02*
X31738937Y31738937D01*
%TO.N,Net-(D10-A)*%
X32149605Y63295616D02*
X27732000Y58878011D01*
D25*
X27732000Y58878011D02*
X27732000Y58686000D01*
D27*
%TO.N,3V3*%
X118795500Y79377900D02*
X118741100Y79323500D01*
X127691800Y36748900D02*
X125899400Y36748900D01*
X118741100Y79323500D02*
X118741100Y43907200D01*
X118741100Y43907200D02*
X119067000Y43581300D01*
X125899400Y36748900D02*
X119067000Y43581300D01*
D25*
%TO.N,Net-(Q1-G)*%
X27220000Y64161400D02*
X117546300Y64161400D01*
X25306100Y66075300D02*
X27220000Y64161400D01*
%TO.N,Net-(U2-IO13)*%
X107002600Y82910500D02*
X110397900Y79515200D01*
X110397900Y79515200D02*
X110397900Y78726000D01*
D27*
%TO.N,Net-(J1-Pin_1)*%
X11095000Y34796000D02*
X11095000Y46486000D01*
X24732800Y21158200D02*
X11095000Y34796000D01*
X76240100Y25400000D02*
X71998300Y21158200D01*
X78342000Y25400000D02*
X76240100Y25400000D01*
X71998300Y21158200D02*
X24732800Y21158200D01*
%TO.N,Net-(J2-Pin_1)*%
X83745200Y27501900D02*
X55745800Y27501900D01*
X85847100Y25400000D02*
X83745200Y27501900D01*
X87949000Y25400000D02*
X85847100Y25400000D01*
X30446100Y43771900D02*
X27732000Y46486000D01*
X55745800Y27501900D02*
X39475800Y43771900D01*
X39475800Y43771900D02*
X30446100Y43771900D01*
%TO.N,Net-(J3-Pin_1)*%
X97556000Y25400000D02*
X95454100Y25400000D01*
X57273800Y33581200D02*
X44369000Y46486000D01*
X87272900Y33581200D02*
X57273800Y33581200D01*
X95454100Y25400000D02*
X87272900Y33581200D01*
%TO.N,Net-(J4-Pin_1)*%
X91378200Y39082900D02*
X68409100Y39082900D01*
X107163000Y25400000D02*
X105061100Y25400000D01*
X105061100Y25400000D02*
X91378200Y39082900D01*
X68409100Y39082900D02*
X61006000Y46486000D01*
%TO.N,Net-(J5-Pin_1)*%
X116770000Y25400000D02*
X114668100Y25400000D01*
X108691100Y27501900D02*
X93938100Y42254900D01*
X112566200Y27501900D02*
X108691100Y27501900D01*
X93938100Y42254900D02*
X81874100Y42254900D01*
X114668100Y25400000D02*
X112566200Y27501900D01*
X81874100Y42254900D02*
X77643000Y46486000D01*
%TO.N,Net-(AC24-IN1-Pin_1)*%
X83693000Y60636000D02*
X67056000Y60636000D01*
X100330000Y60636000D02*
X83693000Y60636000D01*
X33782000Y60636000D02*
X50419000Y60636000D01*
D25*
%TO.N,Net-(U2-IO5)*%
X106029300Y85666200D02*
X117424300Y74271200D01*
X117424300Y74271200D02*
X117424300Y66888000D01*
%TO.N,Net-(U2-IO4)*%
X106034500Y84597400D02*
X104993300Y85638600D01*
X114549800Y76447400D02*
X106399800Y84597400D01*
X114549800Y66892700D02*
X114549800Y76447400D01*
X106399800Y84597400D02*
X106034500Y84597400D01*
D27*
%TO.N,Net-(AC24-IN1-Pin_2)*%
X108941100Y23298100D02*
X111043000Y25400000D01*
X113144900Y23298100D02*
X118548100Y23298100D01*
X101436000Y25400000D02*
X103537900Y23298100D01*
X111043000Y25400000D02*
X113144900Y23298100D01*
X118548100Y23298100D02*
X120650000Y25400000D01*
X103537900Y23298100D02*
X108941100Y23298100D01*
D25*
%TO.N,Net-(SENSOR1-Pin_1)*%
X127691800Y32868900D02*
X127691800Y34695800D01*
X129553800Y35986900D02*
X129553800Y75192100D01*
X127691800Y34695800D02*
X128262700Y34695800D01*
X129553800Y75192100D02*
X123114400Y81631500D01*
X128262700Y34695800D02*
X129553800Y35986900D01*
D27*
%TO.N,5V*%
X54467000Y56784000D02*
X41634000Y56784000D01*
X38100000Y33100000D02*
X38100000Y34701900D01*
X104859600Y57265600D02*
X106280000Y58686000D01*
X25413600Y56367400D02*
X25605400Y56367400D01*
X39706200Y36308100D02*
X38100000Y34701900D01*
X41634000Y56784000D02*
X39732000Y58686000D01*
X25605400Y45627000D02*
X29162800Y42069600D01*
X29162800Y42069600D02*
X36396000Y42069600D01*
X91501400Y56827600D02*
X104421600Y56827600D01*
X56369000Y58686000D02*
X54467000Y56784000D01*
X25605400Y56367400D02*
X37413400Y56367400D01*
X37413400Y56367400D02*
X39732000Y58686000D01*
X25605400Y56367400D02*
X25605400Y45627000D01*
X39706200Y38759400D02*
X39706200Y36308100D01*
X117067000Y43581300D02*
X117067000Y45058200D01*
X104859600Y57265600D02*
X117067000Y45058200D01*
X23095000Y58686000D02*
X25413600Y56367400D01*
X89643000Y58686000D02*
X91501400Y56827600D01*
X104421600Y56827600D02*
X104859600Y57265600D01*
X36396000Y42069600D02*
X39706200Y38759400D01*
%TO.N,Net-(J6-Pin_1)*%
X103189100Y46486000D02*
X94280000Y46486000D01*
X124275100Y25400000D02*
X103189100Y46486000D01*
X126377000Y25400000D02*
X124275100Y25400000D01*
D25*
%TO.N,Net-(EXT1-Pin_1)*%
X94587900Y79347900D02*
X109535100Y79347900D01*
X92710000Y77470000D02*
X94587900Y79347900D01*
%TO.N,Net-(EXT1-Pin_2)*%
X108732500Y78672900D02*
X108792900Y78612500D01*
X94710000Y77470000D02*
X95636900Y77470000D01*
X95636900Y78046700D02*
X96263100Y78672900D01*
X96263100Y78672900D02*
X108732500Y78672900D01*
X95636900Y77470000D02*
X95636900Y78046700D01*
%TO.N,Net-(EXT1-Pin_3)*%
X97636900Y76893300D02*
X106855300Y67674900D01*
X106855300Y67674900D02*
X112962800Y67674900D01*
X96710000Y77470000D02*
X97636900Y77470000D01*
X97636900Y77470000D02*
X97636900Y76893300D01*
%TO.N,Net-(EXT1-Pin_4)*%
X108309800Y68797100D02*
X99636900Y77470000D01*
X113104900Y68797100D02*
X108309800Y68797100D01*
X98710000Y77470000D02*
X99636900Y77470000D01*
%TD*%
M02*
