%TF.GenerationSoftware,KiCad,Pcbnew,7.0.8*%
%TF.CreationDate,2023-11-08T20:04:04+02:00*%
%TF.ProjectId,sprinklers,73707269-6e6b-46c6-9572-732e6b696361,1.2*%
%TF.SameCoordinates,Original*%
%TF.FileFunction,Paste,Top*%
%TF.FilePolarity,Positive*%
%FSLAX46Y46*%
G04 Gerber Fmt 4.6, Leading zero omitted, Abs format (unit mm)*
G04 Created by KiCad (PCBNEW 7.0.8) date 2023-11-08 20:04:04*
%MOMM*%
%LPD*%
G01*
G04 APERTURE LIST*
G04 Aperture macros list*
%AMRoundRect*
0 Rectangle with rounded corners*
0 $1 Rounding radius*
0 $2 $3 $4 $5 $6 $7 $8 $9 X,Y pos of 4 corners*
0 Add a 4 corners polygon primitive as box body*
4,1,4,$2,$3,$4,$5,$6,$7,$8,$9,$2,$3,0*
0 Add four circle primitives for the rounded corners*
1,1,$1+$1,$2,$3*
1,1,$1+$1,$4,$5*
1,1,$1+$1,$6,$7*
1,1,$1+$1,$8,$9*
0 Add four rect primitives between the rounded corners*
20,1,$1+$1,$2,$3,$4,$5,0*
20,1,$1+$1,$4,$5,$6,$7,0*
20,1,$1+$1,$6,$7,$8,$9,0*
20,1,$1+$1,$8,$9,$2,$3,0*%
%AMFreePoly0*
4,1,41,-22.500000,1.388890,-22.492142,1.520800,-22.447241,1.727208,-22.364088,1.921388,-22.245689,2.096323,-22.096323,2.245689,-21.921388,2.364088,-21.727208,2.447241,-21.520800,2.492142,-21.388890,2.500000,21.388890,2.500000,21.520800,2.492142,21.727208,2.447241,21.921388,2.364088,22.096323,2.245689,22.245689,2.096323,22.364088,1.921388,22.447241,1.727208,22.492142,1.520800,22.500000,1.388890,
22.500000,-1.388890,22.492142,-1.520800,22.447241,-1.727208,22.364088,-1.921388,22.245689,-2.096323,22.096323,-2.245689,21.921388,-2.364088,21.727208,-2.447241,21.520800,-2.492142,21.388890,-2.500000,-21.388890,-2.500000,-21.520800,-2.492142,-21.727208,-2.447241,-21.921388,-2.364088,-22.096323,-2.245689,-22.245689,-2.096323,-22.364088,-1.921388,-22.447241,-1.727208,-22.492142,-1.520800,-22.500000,-1.388890,
-22.500000,1.388890,-22.500000,1.388890,$1*%
G04 Aperture macros list end*
%ADD10RoundRect,0.250000X0.300000X-2.050000X0.300000X2.050000X-0.300000X2.050000X-0.300000X-2.050000X0*%
%ADD11RoundRect,0.250000X2.375000X-2.025000X2.375000X2.025000X-2.375000X2.025000X-2.375000X-2.025000X0*%
%ADD12RoundRect,0.079500X0.079500X0.100500X-0.079500X0.100500X-0.079500X-0.100500X0.079500X-0.100500X0*%
%ADD13RoundRect,0.079500X-0.100500X0.079500X-0.100500X-0.079500X0.100500X-0.079500X0.100500X0.079500X0*%
%ADD14RoundRect,0.250000X-1.000000X-0.650000X1.000000X-0.650000X1.000000X0.650000X-1.000000X0.650000X0*%
%ADD15RoundRect,0.225000X0.250000X-0.225000X0.250000X0.225000X-0.250000X0.225000X-0.250000X-0.225000X0*%
%ADD16RoundRect,0.250000X0.900000X-1.000000X0.900000X1.000000X-0.900000X1.000000X-0.900000X-1.000000X0*%
%ADD17RoundRect,0.250000X0.475000X-0.250000X0.475000X0.250000X-0.475000X0.250000X-0.475000X-0.250000X0*%
%ADD18RoundRect,0.243750X-0.456250X0.243750X-0.456250X-0.243750X0.456250X-0.243750X0.456250X0.243750X0*%
%ADD19RoundRect,0.250000X-0.900000X1.000000X-0.900000X-1.000000X0.900000X-1.000000X0.900000X1.000000X0*%
%ADD20FreePoly0,180.000000*%
%ADD21RoundRect,0.140000X0.140000X0.170000X-0.140000X0.170000X-0.140000X-0.170000X0.140000X-0.170000X0*%
%ADD22R,5.400000X2.900000*%
%ADD23R,1.000000X1.700000*%
%ADD24RoundRect,0.218750X-0.256250X0.218750X-0.256250X-0.218750X0.256250X-0.218750X0.256250X0.218750X0*%
%ADD25R,0.900000X1.500000*%
%ADD26R,1.500000X0.900000*%
%ADD27R,0.900000X0.900000*%
%ADD28RoundRect,0.250000X-0.312500X-0.625000X0.312500X-0.625000X0.312500X0.625000X-0.312500X0.625000X0*%
%ADD29R,1.500000X2.000000*%
%ADD30R,3.800000X2.000000*%
%ADD31RoundRect,0.140000X-0.140000X-0.170000X0.140000X-0.170000X0.140000X0.170000X-0.140000X0.170000X0*%
%ADD32RoundRect,0.218750X0.256250X-0.218750X0.256250X0.218750X-0.256250X0.218750X-0.256250X-0.218750X0*%
%ADD33RoundRect,0.225000X-0.225000X-0.375000X0.225000X-0.375000X0.225000X0.375000X-0.225000X0.375000X0*%
%ADD34RoundRect,0.243750X0.456250X-0.243750X0.456250X0.243750X-0.456250X0.243750X-0.456250X-0.243750X0*%
%ADD35RoundRect,0.079500X-0.079500X-0.100500X0.079500X-0.100500X0.079500X0.100500X-0.079500X0.100500X0*%
%ADD36RoundRect,0.250000X0.625000X-0.312500X0.625000X0.312500X-0.625000X0.312500X-0.625000X-0.312500X0*%
%ADD37R,2.000000X1.500000*%
%ADD38R,2.000000X3.800000*%
%ADD39RoundRect,0.250000X-1.000000X-0.900000X1.000000X-0.900000X1.000000X0.900000X-1.000000X0.900000X0*%
%ADD40R,3.050000X2.750000*%
%ADD41R,2.200000X1.200000*%
%ADD42RoundRect,0.079500X0.100500X-0.079500X0.100500X0.079500X-0.100500X0.079500X-0.100500X-0.079500X0*%
%ADD43RoundRect,0.250000X1.000000X0.650000X-1.000000X0.650000X-1.000000X-0.650000X1.000000X-0.650000X0*%
%ADD44RoundRect,0.140000X-0.170000X0.140000X-0.170000X-0.140000X0.170000X-0.140000X0.170000X0.140000X0*%
%ADD45RoundRect,0.250000X1.000000X0.900000X-1.000000X0.900000X-1.000000X-0.900000X1.000000X-0.900000X0*%
%ADD46R,1.700000X1.000000*%
G04 APERTURE END LIST*
D10*
%TO.C,U1*%
X28673063Y-41490774D03*
X30373063Y-41490774D03*
X32073063Y-41490774D03*
D11*
X29298063Y-34765774D03*
X34848063Y-34765774D03*
X29298063Y-29915774D03*
X34848063Y-29915774D03*
D10*
X33773063Y-41490774D03*
X35473063Y-41490774D03*
%TD*%
D12*
%TO.C,R11*%
X24750163Y-60400474D03*
X24060163Y-60400474D03*
%TD*%
D13*
%TO.C,R8*%
X20842301Y-28089787D03*
X20842301Y-28779787D03*
%TD*%
D14*
%TO.C,D5*%
X44249763Y-44909674D03*
X48249763Y-44909674D03*
%TD*%
D12*
%TO.C,R12*%
X27433663Y-60400474D03*
X26743663Y-60400474D03*
%TD*%
D15*
%TO.C,C2*%
X31213563Y-49270374D03*
X31213563Y-47720374D03*
%TD*%
D16*
%TO.C,D6*%
X59387563Y-55648974D03*
X59387563Y-51348974D03*
%TD*%
D12*
%TO.C,R13*%
X29877363Y-60400474D03*
X29187363Y-60400474D03*
%TD*%
D17*
%TO.C,C1*%
X33117563Y-49445374D03*
X33117563Y-47545374D03*
%TD*%
D16*
%TO.C,D8*%
X44586163Y-65157374D03*
X44586163Y-60857374D03*
%TD*%
D18*
%TO.C,D3*%
X18364254Y-30178548D03*
X18364254Y-32053548D03*
%TD*%
D19*
%TO.C,D7*%
X50136163Y-60857374D03*
X50136163Y-65157374D03*
%TD*%
D20*
%TO.C,*%
X110868074Y-61951375D03*
%TD*%
D21*
%TO.C,C7*%
X27046463Y-46044474D03*
X26086463Y-46044474D03*
%TD*%
D22*
%TO.C,L1*%
X44850063Y-39335974D03*
X44850063Y-29435974D03*
%TD*%
D23*
%TO.C,RST_SW1*%
X17958495Y-61262272D03*
X17958495Y-54962272D03*
X21758495Y-61262272D03*
X21758495Y-54962272D03*
%TD*%
D18*
%TO.C,D2*%
X20808675Y-30178548D03*
X20808675Y-32053548D03*
%TD*%
D24*
%TO.C,D1*%
X22798675Y-30328548D03*
X22798675Y-31903548D03*
%TD*%
D25*
%TO.C,U2*%
X6117863Y-51705474D03*
X7387863Y-51705474D03*
X8657863Y-51705474D03*
X9927863Y-51705474D03*
X11197863Y-51705474D03*
X12467863Y-51705474D03*
X13737863Y-51705474D03*
X15007863Y-51705474D03*
X16277863Y-51705474D03*
X17547863Y-51705474D03*
X18817863Y-51705474D03*
X20087863Y-51705474D03*
X21357863Y-51705474D03*
X22627863Y-51705474D03*
D26*
X23722863Y-48670474D03*
X23722863Y-47400474D03*
X23722863Y-46130474D03*
X23722863Y-44860474D03*
X23722863Y-43590474D03*
X23722863Y-42320474D03*
X23722863Y-41050474D03*
X23722863Y-39780474D03*
X23722863Y-38510474D03*
X23722863Y-37240474D03*
D25*
X22627863Y-34205474D03*
X21357863Y-34205474D03*
X20087863Y-34205474D03*
X18817863Y-34205474D03*
X17547863Y-34205474D03*
X16277863Y-34205474D03*
X15007863Y-34205474D03*
X13737863Y-34205474D03*
X12467863Y-34205474D03*
X11197863Y-34205474D03*
X9927863Y-34205474D03*
X8657863Y-34205474D03*
X7387863Y-34205474D03*
X6117863Y-34205474D03*
D27*
X12282863Y-45855474D03*
X13682863Y-45855474D03*
X15082863Y-45855474D03*
X12282863Y-44455474D03*
X13682863Y-44455474D03*
X15082863Y-44455474D03*
X12282863Y-43055474D03*
X13682863Y-43055474D03*
X15082863Y-43055474D03*
%TD*%
D13*
%TO.C,R7*%
X18279498Y-28069084D03*
X18279498Y-28759084D03*
%TD*%
D28*
%TO.C,R10*%
X7077063Y-56324274D03*
X10002063Y-56324274D03*
%TD*%
D19*
%TO.C,D4*%
X54538663Y-51303474D03*
X54538663Y-55603474D03*
%TD*%
D20*
%TO.C,*%
X110532471Y-32919476D03*
%TD*%
D29*
%TO.C,U3*%
X40467363Y-59142474D03*
X38167363Y-59142474D03*
D30*
X38167363Y-65442474D03*
D29*
X35867363Y-59142474D03*
%TD*%
D13*
%TO.C,R9*%
X22792415Y-28286489D03*
X22792415Y-28976489D03*
%TD*%
D17*
%TO.C,C3*%
X38940463Y-49445374D03*
X38940463Y-47545374D03*
%TD*%
D31*
%TO.C,C8*%
X28399263Y-46080574D03*
X29359263Y-46080574D03*
%TD*%
D15*
%TO.C,C4*%
X36909163Y-49270374D03*
X36909163Y-47720374D03*
%TD*%
D10*
%TO.C,U1*%
X28667516Y119542D03*
X30367516Y119542D03*
X32067516Y119542D03*
D11*
X29292516Y6844542D03*
X34842516Y6844542D03*
X29292516Y11694542D03*
X34842516Y11694542D03*
D10*
X33767516Y119542D03*
X35467516Y119542D03*
%TD*%
D12*
%TO.C,R11*%
X24744616Y-18790158D03*
X24054616Y-18790158D03*
%TD*%
D13*
%TO.C,R8*%
X20836754Y13520529D03*
X20836754Y12830529D03*
%TD*%
D14*
%TO.C,D5*%
X44244216Y-3299358D03*
X48244216Y-3299358D03*
%TD*%
D12*
%TO.C,R12*%
X27428116Y-18790158D03*
X26738116Y-18790158D03*
%TD*%
D15*
%TO.C,C2*%
X31208016Y-7660058D03*
X31208016Y-6110058D03*
%TD*%
D16*
%TO.C,D6*%
X59382016Y-14038658D03*
X59382016Y-9738658D03*
%TD*%
D12*
%TO.C,R13*%
X29871816Y-18790158D03*
X29181816Y-18790158D03*
%TD*%
D17*
%TO.C,C1*%
X33112016Y-7835058D03*
X33112016Y-5935058D03*
%TD*%
D16*
%TO.C,D8*%
X44580616Y-23547058D03*
X44580616Y-19247058D03*
%TD*%
D18*
%TO.C,D3*%
X18358707Y11431768D03*
X18358707Y9556768D03*
%TD*%
D19*
%TO.C,D7*%
X50130616Y-19247058D03*
X50130616Y-23547058D03*
%TD*%
D20*
%TO.C,*%
X110862527Y-20341059D03*
%TD*%
D21*
%TO.C,C7*%
X27040916Y-4434158D03*
X26080916Y-4434158D03*
%TD*%
D22*
%TO.C,L1*%
X44844516Y2274342D03*
X44844516Y12174342D03*
%TD*%
D23*
%TO.C,RST_SW1*%
X17952948Y-19651956D03*
X17952948Y-13351956D03*
X21752948Y-19651956D03*
X21752948Y-13351956D03*
%TD*%
D18*
%TO.C,D2*%
X20803128Y11431768D03*
X20803128Y9556768D03*
%TD*%
D24*
%TO.C,D1*%
X22793128Y11281768D03*
X22793128Y9706768D03*
%TD*%
D25*
%TO.C,U2*%
X6112316Y-10095158D03*
X7382316Y-10095158D03*
X8652316Y-10095158D03*
X9922316Y-10095158D03*
X11192316Y-10095158D03*
X12462316Y-10095158D03*
X13732316Y-10095158D03*
X15002316Y-10095158D03*
X16272316Y-10095158D03*
X17542316Y-10095158D03*
X18812316Y-10095158D03*
X20082316Y-10095158D03*
X21352316Y-10095158D03*
X22622316Y-10095158D03*
D26*
X23717316Y-7060158D03*
X23717316Y-5790158D03*
X23717316Y-4520158D03*
X23717316Y-3250158D03*
X23717316Y-1980158D03*
X23717316Y-710158D03*
X23717316Y559842D03*
X23717316Y1829842D03*
X23717316Y3099842D03*
X23717316Y4369842D03*
D25*
X22622316Y7404842D03*
X21352316Y7404842D03*
X20082316Y7404842D03*
X18812316Y7404842D03*
X17542316Y7404842D03*
X16272316Y7404842D03*
X15002316Y7404842D03*
X13732316Y7404842D03*
X12462316Y7404842D03*
X11192316Y7404842D03*
X9922316Y7404842D03*
X8652316Y7404842D03*
X7382316Y7404842D03*
X6112316Y7404842D03*
D27*
X12277316Y-4245158D03*
X13677316Y-4245158D03*
X15077316Y-4245158D03*
X12277316Y-2845158D03*
X13677316Y-2845158D03*
X15077316Y-2845158D03*
X12277316Y-1445158D03*
X13677316Y-1445158D03*
X15077316Y-1445158D03*
%TD*%
D13*
%TO.C,R7*%
X18273951Y13541232D03*
X18273951Y12851232D03*
%TD*%
D28*
%TO.C,R10*%
X7071516Y-14713958D03*
X9996516Y-14713958D03*
%TD*%
D19*
%TO.C,D4*%
X54533116Y-9693158D03*
X54533116Y-13993158D03*
%TD*%
D20*
%TO.C,*%
X110526924Y8690840D03*
%TD*%
D29*
%TO.C,U3*%
X40461816Y-17532158D03*
X38161816Y-17532158D03*
D30*
X38161816Y-23832158D03*
D29*
X35861816Y-17532158D03*
%TD*%
D13*
%TO.C,R9*%
X22786868Y13323827D03*
X22786868Y12633827D03*
%TD*%
D17*
%TO.C,C3*%
X38934916Y-7835058D03*
X38934916Y-5935058D03*
%TD*%
D31*
%TO.C,C8*%
X28393716Y-4470258D03*
X29353716Y-4470258D03*
%TD*%
D15*
%TO.C,C4*%
X36903616Y-7660058D03*
X36903616Y-6110058D03*
%TD*%
D32*
%TO.C,D1*%
X113523362Y60890421D03*
X113523362Y62465421D03*
%TD*%
D33*
%TO.C,D12*%
X59851000Y63598500D03*
X63151000Y63598500D03*
%TD*%
D34*
%TO.C,D2*%
X116201485Y60547225D03*
X116201485Y62422225D03*
%TD*%
D35*
%TO.C,R11*%
X102299000Y89138600D03*
X102989000Y89138600D03*
%TD*%
D15*
%TO.C,C4*%
X95300000Y37688900D03*
X95300000Y39238900D03*
%TD*%
D17*
%TO.C,C3*%
X92760000Y36858600D03*
X92760000Y38758600D03*
%TD*%
D36*
%TO.C,R3*%
X55192500Y68454400D03*
X55192500Y71379400D03*
%TD*%
D34*
%TO.C,D3*%
X119419856Y60550501D03*
X119419856Y62425501D03*
%TD*%
D37*
%TO.C,U3*%
X83870000Y37860000D03*
X83870000Y35560000D03*
D38*
X90170000Y35560000D03*
D37*
X83870000Y33260000D03*
%TD*%
D33*
%TO.C,D9*%
X43214000Y63598500D03*
X46514000Y63598500D03*
%TD*%
D36*
%TO.C,R10*%
X118815600Y87773300D03*
X118815600Y90698300D03*
%TD*%
D33*
%TO.C,D14*%
X93125000Y63598500D03*
X96425000Y63598500D03*
%TD*%
D39*
%TO.C,D6*%
X10766600Y38640600D03*
X15066600Y38640600D03*
%TD*%
D10*
%TO.C,U1*%
X48435000Y26525000D03*
X50135000Y26525000D03*
X51835000Y26525000D03*
D11*
X49060000Y33250000D03*
X54610000Y33250000D03*
X49060000Y38100000D03*
X54610000Y38100000D03*
D10*
X53535000Y26525000D03*
X55235000Y26525000D03*
%TD*%
D40*
%TO.C,Q1*%
X14320000Y67168300D03*
X14320000Y70218300D03*
X10970000Y67168300D03*
X10970000Y70218300D03*
D41*
X18945000Y66413300D03*
X18945000Y70973300D03*
%TD*%
D22*
%TO.C,L1*%
X66063300Y28747600D03*
X66063300Y38647600D03*
%TD*%
D40*
%TO.C,Q2*%
X30950900Y67168300D03*
X30950900Y70218300D03*
X27600900Y67168300D03*
X27600900Y70218300D03*
D41*
X35575900Y66413300D03*
X35575900Y70973300D03*
%TD*%
D42*
%TO.C,R9*%
X113991104Y59001939D03*
X113991104Y59691939D03*
%TD*%
D43*
%TO.C,D5*%
X40100000Y24130000D03*
X36100000Y24130000D03*
%TD*%
D40*
%TO.C,Q5*%
X81078200Y67168300D03*
X81078200Y70218300D03*
X77728200Y67168300D03*
X77728200Y70218300D03*
D41*
X85703200Y66413300D03*
X85703200Y70973300D03*
%TD*%
D40*
%TO.C,Q4*%
X64369100Y67168300D03*
X64369100Y70218300D03*
X61019100Y67168300D03*
X61019100Y70218300D03*
D41*
X68994100Y66413300D03*
X68994100Y70973300D03*
%TD*%
D36*
%TO.C,R5*%
X88540600Y68454400D03*
X88540600Y71379400D03*
%TD*%
D33*
%TO.C,D13*%
X76488000Y63598500D03*
X79788000Y63598500D03*
%TD*%
%TO.C,D10*%
X26577000Y63598500D03*
X29877000Y63598500D03*
%TD*%
D40*
%TO.C,Q6*%
X97456100Y67168300D03*
X97456100Y70218300D03*
X94106100Y67168300D03*
X94106100Y70218300D03*
D41*
X102081100Y66413300D03*
X102081100Y70973300D03*
%TD*%
D33*
%TO.C,D11*%
X9895000Y63598500D03*
X13195000Y63598500D03*
%TD*%
D16*
%TO.C,D8*%
X27940000Y34680000D03*
X27940000Y38980000D03*
%TD*%
D17*
%TO.C,C1*%
X78776900Y37111800D03*
X78776900Y39011800D03*
%TD*%
D44*
%TO.C,C8*%
X55237900Y23348400D03*
X55237900Y22388400D03*
%TD*%
D25*
%TO.C,U2*%
X129515000Y83036000D03*
X128245000Y83036000D03*
X126975000Y83036000D03*
X125705000Y83036000D03*
X124435000Y83036000D03*
X123165000Y83036000D03*
X121895000Y83036000D03*
X120625000Y83036000D03*
X119355000Y83036000D03*
X118085000Y83036000D03*
X116815000Y83036000D03*
X115545000Y83036000D03*
X114275000Y83036000D03*
X113005000Y83036000D03*
D26*
X111910000Y80001000D03*
X111910000Y78731000D03*
X111910000Y77461000D03*
X111910000Y76191000D03*
X111910000Y74921000D03*
X111910000Y73651000D03*
X111910000Y72381000D03*
X111910000Y71111000D03*
X111910000Y69841000D03*
X111910000Y68571000D03*
D25*
X113005000Y65536000D03*
X114275000Y65536000D03*
X115545000Y65536000D03*
X116815000Y65536000D03*
X118085000Y65536000D03*
X119355000Y65536000D03*
X120625000Y65536000D03*
X121895000Y65536000D03*
X123165000Y65536000D03*
X124435000Y65536000D03*
X125705000Y65536000D03*
X126975000Y65536000D03*
X128245000Y65536000D03*
X129515000Y65536000D03*
D27*
X123350000Y77186000D03*
X121950000Y77186000D03*
X120550000Y77186000D03*
X123350000Y75786000D03*
X121950000Y75786000D03*
X120550000Y75786000D03*
X123350000Y74386000D03*
X121950000Y74386000D03*
X120550000Y74386000D03*
%TD*%
D36*
%TO.C,R2*%
X38518400Y68454400D03*
X38518400Y71379400D03*
%TD*%
D42*
%TO.C,R7*%
X119404543Y58329706D03*
X119404543Y59019706D03*
%TD*%
D15*
%TO.C,C2*%
X80685300Y36549700D03*
X80685300Y38099700D03*
%TD*%
D36*
%TO.C,R4*%
X71866600Y68454400D03*
X71866600Y71379400D03*
%TD*%
D44*
%TO.C,C7*%
X45303600Y29459400D03*
X45303600Y28499400D03*
%TD*%
D42*
%TO.C,R8*%
X116199527Y58381240D03*
X116199527Y59071240D03*
%TD*%
D36*
%TO.C,R6*%
X105214700Y68454400D03*
X105214700Y71379400D03*
%TD*%
D35*
%TO.C,R13*%
X102299000Y85638600D03*
X102989000Y85638600D03*
%TD*%
D36*
%TO.C,R1*%
X21844400Y68454400D03*
X21844400Y71379400D03*
%TD*%
D45*
%TO.C,D4*%
X15060600Y33877500D03*
X10760600Y33877500D03*
%TD*%
D19*
%TO.C,D7*%
X21590000Y38980000D03*
X21590000Y34680000D03*
%TD*%
D40*
%TO.C,Q3*%
X47660000Y67168300D03*
X47660000Y70218300D03*
X44310000Y67168300D03*
X44310000Y70218300D03*
D41*
X52285000Y66413300D03*
X52285000Y70973300D03*
%TD*%
D35*
%TO.C,R12*%
X102299000Y87388600D03*
X102989000Y87388600D03*
%TD*%
D46*
%TO.C,RST_SW1*%
X121355600Y90495800D03*
X127655600Y90495800D03*
X121355600Y86695800D03*
X127655600Y86695800D03*
%TD*%
M02*
