%TF.GenerationSoftware,KiCad,Pcbnew,7.0.8*%
%TF.CreationDate,2023-11-09T16:26:40+02:00*%
%TF.ProjectId,sprinklers,73707269-6e6b-46c6-9572-732e6b696361,1.2*%
%TF.SameCoordinates,Original*%
%TF.FileFunction,Copper,L2,Bot*%
%TF.FilePolarity,Positive*%
%FSLAX46Y46*%
G04 Gerber Fmt 4.6, Leading zero omitted, Abs format (unit mm)*
G04 Created by KiCad (PCBNEW 7.0.8) date 2023-11-09 16:26:40*
%MOMM*%
%LPD*%
G01*
G04 APERTURE LIST*
G04 Aperture macros list*
%AMRoundRect*
0 Rectangle with rounded corners*
0 $1 Rounding radius*
0 $2 $3 $4 $5 $6 $7 $8 $9 X,Y pos of 4 corners*
0 Add a 4 corners polygon primitive as box body*
4,1,4,$2,$3,$4,$5,$6,$7,$8,$9,$2,$3,0*
0 Add four circle primitives for the rounded corners*
1,1,$1+$1,$2,$3*
1,1,$1+$1,$4,$5*
1,1,$1+$1,$6,$7*
1,1,$1+$1,$8,$9*
0 Add four rect primitives between the rounded corners*
20,1,$1+$1,$2,$3,$4,$5,0*
20,1,$1+$1,$4,$5,$6,$7,0*
20,1,$1+$1,$6,$7,$8,$9,0*
20,1,$1+$1,$8,$9,$2,$3,0*%
%AMFreePoly0*
4,1,41,-22.500000,1.388890,-22.492142,1.520800,-22.447241,1.727208,-22.364088,1.921388,-22.245689,2.096323,-22.096323,2.245689,-21.921388,2.364088,-21.727208,2.447241,-21.520800,2.492142,-21.388890,2.500000,21.388890,2.500000,21.520800,2.492142,21.727208,2.447241,21.921388,2.364088,22.096323,2.245689,22.245689,2.096323,22.364088,1.921388,22.447241,1.727208,22.492142,1.520800,22.500000,1.388890,
22.500000,-1.388890,22.492142,-1.520800,22.447241,-1.727208,22.364088,-1.921388,22.245689,-2.096323,22.096323,-2.245689,21.921388,-2.364088,21.727208,-2.447241,21.520800,-2.492142,21.388890,-2.500000,-21.388890,-2.500000,-21.520800,-2.492142,-21.727208,-2.447241,-21.921388,-2.364088,-22.096323,-2.245689,-22.245689,-2.096323,-22.364088,-1.921388,-22.447241,-1.727208,-22.492142,-1.520800,-22.500000,-1.388890,
-22.500000,1.388890,-22.500000,1.388890,$1*%
G04 Aperture macros list end*
%TA.AperFunction,ComponentPad*%
%ADD10RoundRect,0.250000X0.350000X0.625000X-0.350000X0.625000X-0.350000X-0.625000X0.350000X-0.625000X0*%
%TD*%
%TA.AperFunction,ComponentPad*%
%ADD11O,1.200000X1.750000*%
%TD*%
%TA.AperFunction,HeatsinkPad*%
%ADD12C,0.600000*%
%TD*%
%TA.AperFunction,ComponentPad*%
%ADD13C,1.440000*%
%TD*%
%TA.AperFunction,ComponentPad*%
%ADD14RoundRect,0.250000X-0.350000X-0.625000X0.350000X-0.625000X0.350000X0.625000X-0.350000X0.625000X0*%
%TD*%
%TA.AperFunction,ComponentPad*%
%ADD15R,2.000000X2.000000*%
%TD*%
%TA.AperFunction,ComponentPad*%
%ADD16C,2.000000*%
%TD*%
%TA.AperFunction,ComponentPad*%
%ADD17R,3.000000X3.000000*%
%TD*%
%TA.AperFunction,ComponentPad*%
%ADD18C,3.000000*%
%TD*%
%TA.AperFunction,SMDPad,CuDef*%
%ADD19FreePoly0,180.000000*%
%TD*%
%TA.AperFunction,ComponentPad*%
%ADD20C,2.500000*%
%TD*%
%TA.AperFunction,ComponentPad*%
%ADD21RoundRect,0.250000X-0.625000X0.350000X-0.625000X-0.350000X0.625000X-0.350000X0.625000X0.350000X0*%
%TD*%
%TA.AperFunction,ComponentPad*%
%ADD22O,1.750000X1.200000*%
%TD*%
%TA.AperFunction,ViaPad*%
%ADD23C,0.800000*%
%TD*%
%TA.AperFunction,ViaPad*%
%ADD24C,1.000000*%
%TD*%
%TA.AperFunction,Conductor*%
%ADD25C,0.500000*%
%TD*%
%TA.AperFunction,Conductor*%
%ADD26C,0.250000*%
%TD*%
%TA.AperFunction,Conductor*%
%ADD27C,1.000000*%
%TD*%
G04 APERTURE END LIST*
D10*
%TO.P,PROG1,1,Pin_1*%
%TO.N,Net-(PROG1-Pin_1)*%
X13043763Y-62018627D03*
D11*
%TO.P,PROG1,2,Pin_2*%
%TO.N,Net-(PROG1-Pin_2)*%
X11043763Y-62018627D03*
%TO.P,PROG1,3,Pin_3*%
%TO.N,Net-(PROG1-Pin_3)*%
X9043763Y-62018627D03*
%TO.P,PROG1,4,Pin_4*%
%TO.N,Net-(POWER1-Pin_1)*%
X7043763Y-62018627D03*
%TD*%
D12*
%TO.P,U2,39,GND*%
%TO.N,GRD*%
X12201263Y-42967027D03*
X13601263Y-42967027D03*
X11501263Y-42267027D03*
X12901263Y-42267027D03*
X14301263Y-42267027D03*
X12201263Y-41567027D03*
X13601263Y-41567027D03*
X11501263Y-40867027D03*
X12901263Y-40867027D03*
X14301263Y-40867027D03*
X12201263Y-40167027D03*
X13601263Y-40167027D03*
%TD*%
D13*
%TO.P,RV1,1,1*%
%TO.N,GRD*%
X58929963Y-25963927D03*
%TO.P,RV1,2,2*%
%TO.N,Net-(SENSOR1-Pin_1)*%
X56389963Y-28503927D03*
%TO.P,RV1,3,3*%
%TO.N,unconnected-(RV1-Pad3)*%
X53849963Y-25963927D03*
%TD*%
D10*
%TO.P,EXT1,1,Pin_1*%
%TO.N,Net-(EXT1-Pin_1)*%
X12200613Y-27780453D03*
D11*
%TO.P,EXT1,2,Pin_2*%
%TO.N,Net-(EXT1-Pin_2)*%
X10200613Y-27780453D03*
%TO.P,EXT1,3,Pin_3*%
%TO.N,Net-(EXT1-Pin_3)*%
X8200613Y-27780453D03*
%TO.P,EXT1,4,Pin_4*%
%TO.N,Net-(EXT1-Pin_4)*%
X6200613Y-27780453D03*
%TD*%
D14*
%TO.P,LED1,1,Pin_1*%
%TO.N,Net-(LED1-Pin_1)*%
X24711263Y-60918627D03*
D11*
%TO.P,LED1,2,Pin_2*%
%TO.N,Net-(LED1-Pin_2)*%
X26711263Y-60918627D03*
%TO.P,LED1,3,Pin_3*%
%TO.N,Net-(LED1-Pin_3)*%
X28711263Y-60918627D03*
%TO.P,LED1,4,Pin_4*%
%TO.N,GRD*%
X30711263Y-60918627D03*
%TD*%
D15*
%TO.P,C6,1*%
%TO.N,Net-(POWER1-Pin_2)*%
X56409563Y-40827727D03*
D16*
%TO.P,C6,2*%
%TO.N,GRD*%
X56409563Y-35827727D03*
%TD*%
D10*
%TO.P,POWER1,1,Pin_1*%
%TO.N,Net-(POWER1-Pin_1)*%
X37351163Y-50990027D03*
D11*
%TO.P,POWER1,2,Pin_2*%
%TO.N,Net-(POWER1-Pin_2)*%
X35351163Y-50990027D03*
%TO.P,POWER1,3,Pin_3*%
%TO.N,3V3*%
X33351163Y-50990027D03*
%TO.P,POWER1,4,Pin_4*%
%TO.N,GRD*%
X31351163Y-50990027D03*
%TD*%
D17*
%TO.P,AC24-IN1,1,Pin_1*%
%TO.N,Net-(AC24-IN1-Pin_1)*%
X55703564Y-61273845D03*
D18*
%TO.P,AC24-IN1,2,Pin_2*%
%TO.N,Net-(AC24-IN1-Pin_2)*%
X55703564Y-57393845D03*
%TD*%
D15*
%TO.P,C5,1*%
%TO.N,Net-(D4-K)*%
X45210263Y-52055127D03*
D16*
%TO.P,C5,2*%
%TO.N,GRD*%
X45210263Y-47055127D03*
%TD*%
D10*
%TO.P,PROG1,1,Pin_1*%
%TO.N,Net-(PROG1-Pin_1)*%
X13170601Y-18716700D03*
D11*
%TO.P,PROG1,2,Pin_2*%
%TO.N,Net-(PROG1-Pin_2)*%
X11170601Y-18716700D03*
%TO.P,PROG1,3,Pin_3*%
%TO.N,Net-(PROG1-Pin_3)*%
X9170601Y-18716700D03*
%TO.P,PROG1,4,Pin_4*%
%TO.N,Net-(POWER1-Pin_1)*%
X7170601Y-18716700D03*
%TD*%
D12*
%TO.P,U2,39,GND*%
%TO.N,GRD*%
X12328101Y334900D03*
X13728101Y334900D03*
X11628101Y1034900D03*
X13028101Y1034900D03*
X14428101Y1034900D03*
X12328101Y1734900D03*
X13728101Y1734900D03*
X11628101Y2434900D03*
X13028101Y2434900D03*
X14428101Y2434900D03*
X12328101Y3134900D03*
X13728101Y3134900D03*
%TD*%
D13*
%TO.P,RV1,1,1*%
%TO.N,GRD*%
X59056801Y17338000D03*
%TO.P,RV1,2,2*%
%TO.N,Net-(SENSOR1-Pin_1)*%
X56516801Y14798000D03*
%TO.P,RV1,3,3*%
%TO.N,unconnected-(RV1-Pad3)*%
X53976801Y17338000D03*
%TD*%
D10*
%TO.P,EXT1,1,Pin_1*%
%TO.N,Net-(EXT1-Pin_1)*%
X12327451Y15521474D03*
D11*
%TO.P,EXT1,2,Pin_2*%
%TO.N,Net-(EXT1-Pin_2)*%
X10327451Y15521474D03*
%TO.P,EXT1,3,Pin_3*%
%TO.N,Net-(EXT1-Pin_3)*%
X8327451Y15521474D03*
%TO.P,EXT1,4,Pin_4*%
%TO.N,Net-(EXT1-Pin_4)*%
X6327451Y15521474D03*
%TD*%
D14*
%TO.P,LED1,1,Pin_1*%
%TO.N,Net-(LED1-Pin_1)*%
X24838101Y-17616700D03*
D11*
%TO.P,LED1,2,Pin_2*%
%TO.N,Net-(LED1-Pin_2)*%
X26838101Y-17616700D03*
%TO.P,LED1,3,Pin_3*%
%TO.N,Net-(LED1-Pin_3)*%
X28838101Y-17616700D03*
%TO.P,LED1,4,Pin_4*%
%TO.N,GRD*%
X30838101Y-17616700D03*
%TD*%
D15*
%TO.P,C6,1*%
%TO.N,Net-(POWER1-Pin_2)*%
X56536401Y2474200D03*
D16*
%TO.P,C6,2*%
%TO.N,GRD*%
X56536401Y7474200D03*
%TD*%
D10*
%TO.P,POWER1,1,Pin_1*%
%TO.N,Net-(POWER1-Pin_1)*%
X37478001Y-7688100D03*
D11*
%TO.P,POWER1,2,Pin_2*%
%TO.N,Net-(POWER1-Pin_2)*%
X35478001Y-7688100D03*
%TO.P,POWER1,3,Pin_3*%
%TO.N,3V3*%
X33478001Y-7688100D03*
%TO.P,POWER1,4,Pin_4*%
%TO.N,GRD*%
X31478001Y-7688100D03*
%TD*%
D17*
%TO.P,AC24-IN1,1,Pin_1*%
%TO.N,Net-(AC24-IN1-Pin_1)*%
X55830402Y-17971918D03*
D18*
%TO.P,AC24-IN1,2,Pin_2*%
%TO.N,Net-(AC24-IN1-Pin_2)*%
X55830402Y-14091918D03*
%TD*%
D15*
%TO.P,C5,1*%
%TO.N,Net-(D4-K)*%
X45337101Y-8753200D03*
D16*
%TO.P,C5,2*%
%TO.N,GRD*%
X45337101Y-3753200D03*
%TD*%
D19*
%TO.P,,1*%
%TO.N,Net-(SENSOR1-Pin_1)*%
X109871027Y-29636635D03*
%TD*%
D17*
%TO.P,J2,1,Pin_1*%
%TO.N,Net-(J2-Pin_1)*%
X87412404Y31886166D03*
D18*
%TO.P,J2,2,Pin_2*%
%TO.N,Net-(AC24-IN1-Pin_2)*%
X91292404Y31886166D03*
%TD*%
D19*
%TO.P,,1*%
%TO.N,3V3*%
X110206630Y-58668534D03*
%TD*%
D18*
%TO.P,K5,1*%
%TO.N,Net-(AC24-IN1-Pin_1)*%
X83156404Y67122166D03*
D20*
%TO.P,K5,2*%
%TO.N,Net-(D13-A)*%
X77106404Y65172166D03*
D18*
%TO.P,K5,3*%
%TO.N,Net-(J5-Pin_1)*%
X77106404Y52972166D03*
%TO.P,K5,4*%
%TO.N,unconnected-(K5-Pad4)*%
X89156404Y52922166D03*
D20*
%TO.P,K5,5*%
%TO.N,5V*%
X89106404Y65172166D03*
%TD*%
D14*
%TO.P,POWER1,1,Pin_1*%
%TO.N,Net-(POWER1-Pin_1)*%
X114367833Y50173181D03*
D11*
%TO.P,POWER1,2,Pin_2*%
%TO.N,5V*%
X116367833Y50173181D03*
%TO.P,POWER1,3,Pin_3*%
%TO.N,3V3*%
X118367833Y50173181D03*
%TO.P,POWER1,4,Pin_4*%
%TO.N,GRD*%
X120367833Y50173181D03*
%TD*%
D17*
%TO.P,J3,1,Pin_1*%
%TO.N,Net-(J3-Pin_1)*%
X97019404Y31886166D03*
D18*
%TO.P,J3,2,Pin_2*%
%TO.N,Net-(AC24-IN1-Pin_2)*%
X100899404Y31886166D03*
%TD*%
%TO.P,K3,1*%
%TO.N,Net-(AC24-IN1-Pin_1)*%
X49882404Y67122166D03*
D20*
%TO.P,K3,2*%
%TO.N,Net-(D9-A)*%
X43832404Y65172166D03*
D18*
%TO.P,K3,3*%
%TO.N,Net-(J3-Pin_1)*%
X43832404Y52972166D03*
%TO.P,K3,4*%
%TO.N,unconnected-(K3-Pad4)*%
X55882404Y52922166D03*
D20*
%TO.P,K3,5*%
%TO.N,5V*%
X55832404Y65172166D03*
%TD*%
D17*
%TO.P,J6,1,Pin_1*%
%TO.N,Net-(J6-Pin_1)*%
X125840404Y31886166D03*
D18*
%TO.P,J6,2,Pin_2*%
%TO.N,Net-(AC24-IN1-Pin_2)*%
X129720404Y31886166D03*
%TD*%
D17*
%TO.P,J5,1,Pin_1*%
%TO.N,Net-(J5-Pin_1)*%
X116233404Y31886166D03*
D18*
%TO.P,J5,2,Pin_2*%
%TO.N,Net-(AC24-IN1-Pin_2)*%
X120113404Y31886166D03*
%TD*%
%TO.P,K1,1*%
%TO.N,Net-(AC24-IN1-Pin_1)*%
X16608404Y67122166D03*
D20*
%TO.P,K1,2*%
%TO.N,Net-(D11-A)*%
X10558404Y65172166D03*
D18*
%TO.P,K1,3*%
%TO.N,Net-(J1-Pin_1)*%
X10558404Y52972166D03*
%TO.P,K1,4*%
%TO.N,unconnected-(K1-Pad4)*%
X22608404Y52922166D03*
D20*
%TO.P,K1,5*%
%TO.N,5V*%
X22558404Y65172166D03*
%TD*%
D18*
%TO.P,K4,1*%
%TO.N,Net-(AC24-IN1-Pin_1)*%
X66519404Y67122166D03*
D20*
%TO.P,K4,2*%
%TO.N,Net-(D12-A)*%
X60469404Y65172166D03*
D18*
%TO.P,K4,3*%
%TO.N,Net-(J4-Pin_1)*%
X60469404Y52972166D03*
%TO.P,K4,4*%
%TO.N,unconnected-(K4-Pad4)*%
X72519404Y52922166D03*
D20*
%TO.P,K4,5*%
%TO.N,5V*%
X72469404Y65172166D03*
%TD*%
D19*
%TO.P,,1*%
%TO.N,Net-(SENSOR1-Pin_1)*%
X109909909Y13671788D03*
%TD*%
%TO.P,,1*%
%TO.N,3V3*%
X110245512Y-15360111D03*
%TD*%
D12*
%TO.P,U2,39,GND*%
%TO.N,GRD*%
X122113404Y83672166D03*
X120713404Y83672166D03*
X122813404Y82972166D03*
X121413404Y82972166D03*
X120013404Y82972166D03*
X122113404Y82272166D03*
X120713404Y82272166D03*
X122813404Y81572166D03*
X121413404Y81572166D03*
X120013404Y81572166D03*
X122113404Y80872166D03*
X120713404Y80872166D03*
%TD*%
D18*
%TO.P,K6,1*%
%TO.N,Net-(AC24-IN1-Pin_1)*%
X99793404Y67122166D03*
D20*
%TO.P,K6,2*%
%TO.N,Net-(D14-A)*%
X93743404Y65172166D03*
D18*
%TO.P,K6,3*%
%TO.N,Net-(J6-Pin_1)*%
X93743404Y52972166D03*
%TO.P,K6,4*%
%TO.N,unconnected-(K6-Pad4)*%
X105793404Y52922166D03*
D20*
%TO.P,K6,5*%
%TO.N,5V*%
X105743404Y65172166D03*
%TD*%
D15*
%TO.P,C6,1*%
%TO.N,5V*%
X37563404Y39586166D03*
D16*
%TO.P,C6,2*%
%TO.N,GRD*%
X37563404Y44586166D03*
%TD*%
D17*
%TO.P,J1,1,Pin_1*%
%TO.N,Net-(J1-Pin_1)*%
X77805404Y31886166D03*
D18*
%TO.P,J1,2,Pin_2*%
%TO.N,Net-(AC24-IN1-Pin_2)*%
X81685404Y31886166D03*
%TD*%
D13*
%TO.P,RV1,1,1*%
%TO.N,GRD*%
X102333404Y42046166D03*
%TO.P,RV1,2,2*%
%TO.N,Net-(SENSOR1-Pin_1)*%
X104873404Y44586166D03*
%TO.P,RV1,3,3*%
%TO.N,unconnected-(RV1-Pad3)*%
X107413404Y42046166D03*
%TD*%
D18*
%TO.P,K2,1*%
%TO.N,Net-(AC24-IN1-Pin_1)*%
X33245404Y67122166D03*
D20*
%TO.P,K2,2*%
%TO.N,Net-(D10-A)*%
X27195404Y65172166D03*
D18*
%TO.P,K2,3*%
%TO.N,Net-(J2-Pin_1)*%
X27195404Y52972166D03*
%TO.P,K2,4*%
%TO.N,unconnected-(K2-Pad4)*%
X39245404Y52922166D03*
D20*
%TO.P,K2,5*%
%TO.N,5V*%
X39195404Y65172166D03*
%TD*%
D17*
%TO.P,SENSOR1,1,Pin_1*%
%TO.N,Net-(SENSOR1-Pin_1)*%
X127155204Y39355066D03*
D18*
%TO.P,SENSOR1,2,Pin_2*%
%TO.N,3V3*%
X127155204Y43235066D03*
%TD*%
D14*
%TO.P,PROG1,1,Pin_1*%
%TO.N,Net-(PROG1-Pin_1)*%
X120313534Y58556167D03*
D11*
%TO.P,PROG1,2,Pin_2*%
%TO.N,Net-(PROG1-Pin_2)*%
X122313534Y58556167D03*
%TO.P,PROG1,3,Pin_3*%
%TO.N,Net-(PROG1-Pin_3)*%
X124313534Y58556167D03*
%TO.P,PROG1,4,Pin_4*%
%TO.N,Net-(POWER1-Pin_1)*%
X126313534Y58556167D03*
%TD*%
D17*
%TO.P,J4,1,Pin_1*%
%TO.N,Net-(J4-Pin_1)*%
X106626404Y31886166D03*
D18*
%TO.P,J4,2,Pin_2*%
%TO.N,Net-(AC24-IN1-Pin_2)*%
X110506404Y31886166D03*
%TD*%
D21*
%TO.P,LED1,1,Pin_1*%
%TO.N,Net-(LED1-Pin_1)*%
X97523404Y96116166D03*
D22*
%TO.P,LED1,2,Pin_2*%
%TO.N,Net-(LED1-Pin_2)*%
X97523404Y94116166D03*
%TO.P,LED1,3,Pin_3*%
%TO.N,Net-(LED1-Pin_3)*%
X97523404Y92116166D03*
%TO.P,LED1,4,Pin_4*%
%TO.N,GRD*%
X97523404Y90116166D03*
%TD*%
D17*
%TO.P,AC24-IN1,1,Pin_1*%
%TO.N,Net-(AC24-IN1-Pin_1)*%
X10823404Y32132166D03*
D18*
%TO.P,AC24-IN1,2,Pin_2*%
%TO.N,Net-(AC24-IN1-Pin_2)*%
X14703404Y32132166D03*
%TD*%
D14*
%TO.P,EXT1,1,Pin_1*%
%TO.N,Net-(EXT1-Pin_1)*%
X92173404Y83956166D03*
D11*
%TO.P,EXT1,2,Pin_2*%
%TO.N,Net-(EXT1-Pin_2)*%
X94173404Y83956166D03*
%TO.P,EXT1,3,Pin_3*%
%TO.N,Net-(EXT1-Pin_3)*%
X96173404Y83956166D03*
%TO.P,EXT1,4,Pin_4*%
%TO.N,Net-(EXT1-Pin_4)*%
X98173404Y83956166D03*
%TD*%
D15*
%TO.P,C5,1*%
%TO.N,Net-(D4-K)*%
X24863404Y34253866D03*
D16*
%TO.P,C5,2*%
%TO.N,GRD*%
X24863404Y29253866D03*
%TD*%
D23*
%TO.N,Net-(PROG1-Pin_3)*%
X9151263Y-32693227D03*
%TO.N,Net-(U2-IO4)*%
X20548163Y-32701327D03*
%TO.N,Net-(PROG1-Pin_1)*%
X17037763Y-37045527D03*
%TO.N,Net-(EXT1-Pin_1)*%
X15036763Y-45813027D03*
%TO.N,Net-(PROG1-Pin_2)*%
X10421263Y-32703427D03*
%TO.N,Net-(EXT1-Pin_2)*%
X14231263Y-47453527D03*
%TO.N,GRD*%
X39864122Y-43244136D03*
%TO.N,Net-(D4-K)*%
X26074482Y-38969706D03*
%TO.N,3V3*%
X37415563Y-48074327D03*
%TO.N,GRD*%
X38370867Y-40687532D03*
%TO.N,Net-(U2-IO4)*%
X28479363Y-54043327D03*
%TO.N,Net-(SENSOR1-Pin_1)*%
X19255363Y-44764227D03*
%TO.N,Net-(PROG1-Pin_3)*%
X9278101Y10608700D03*
%TO.N,Net-(U2-IO4)*%
X20675001Y10600600D03*
%TO.N,Net-(PROG1-Pin_1)*%
X17164601Y6256400D03*
%TO.N,Net-(EXT1-Pin_1)*%
X15163601Y-2511100D03*
%TO.N,Net-(PROG1-Pin_2)*%
X10548101Y10598500D03*
%TO.N,Net-(EXT1-Pin_2)*%
X14358101Y-4151600D03*
%TO.N,GRD*%
X39990960Y57791D03*
%TO.N,Net-(D4-K)*%
X26201320Y4332221D03*
%TO.N,3V3*%
X37542401Y-4772400D03*
%TO.N,GRD*%
X38497705Y2614395D03*
%TO.N,Net-(U2-IO4)*%
X28606201Y-10741400D03*
%TO.N,Net-(SENSOR1-Pin_1)*%
X19382201Y-1462300D03*
%TO.N,GRD*%
X74076553Y78657301D03*
X119072304Y62230000D03*
X113030000Y62230000D03*
X49157149Y78657301D03*
X116688283Y61980572D03*
%TO.N,Net-(D10-A)*%
X31613009Y69781782D03*
%TO.N,3V3*%
X118615644Y-15360111D03*
D24*
X118258904Y85864066D03*
D23*
X118576762Y-58668534D03*
X113535644Y-15360111D03*
X108416762Y-58668534D03*
X93176762Y-58668534D03*
X73045401Y-15420510D03*
X73006519Y-58728933D03*
X123656762Y-58668534D03*
X98256762Y-58668534D03*
X103336762Y-58668534D03*
X98295644Y-15360111D03*
X93215644Y-15360111D03*
X128736762Y-58668534D03*
X128775644Y-15360111D03*
X123695644Y-15360111D03*
X108455644Y-15360111D03*
X113496762Y-58668534D03*
X103375644Y-15360111D03*
%TO.N,Net-(Q1-G)*%
X24769504Y72561466D03*
X117009704Y70647566D03*
%TO.N,Net-(U2-IO13)*%
X106466004Y89396666D03*
X109861304Y85212166D03*
%TO.N,Net-(U2-IO5)*%
X116887704Y73374166D03*
X105492704Y92152366D03*
%TO.N,Net-(U2-IO4)*%
X104456704Y92124766D03*
X114013204Y73378866D03*
%TO.N,Net-(SENSOR1-Pin_1)*%
X108455644Y13671788D03*
X103375644Y13671788D03*
X98295644Y13671788D03*
X108416762Y-29636635D03*
X118615644Y13671788D03*
X103336762Y-29636635D03*
X128736762Y-29636635D03*
X128775644Y13671788D03*
X122577804Y88117666D03*
X118576762Y-29636635D03*
X123695644Y13671788D03*
X113535644Y13671788D03*
X93176762Y-29636635D03*
X98256762Y-29636635D03*
X93215644Y13671788D03*
X123656762Y-29636635D03*
X113496762Y-29636635D03*
%TO.N,Net-(EXT1-Pin_1)*%
X108998504Y85834066D03*
%TO.N,Net-(EXT1-Pin_2)*%
X108256304Y85098666D03*
%TO.N,Net-(EXT1-Pin_3)*%
X113030000Y74161066D03*
%TO.N,Net-(EXT1-Pin_4)*%
X113030000Y75283266D03*
%TD*%
D25*
%TO.N,3V3*%
X47614563Y-37875327D02*
X48008957Y-37480933D01*
X48008957Y-37480933D02*
X67654619Y-37480933D01*
D26*
%TO.N,Net-(POWER1-Pin_2)*%
X35351163Y-50990027D02*
X36278063Y-50990027D01*
%TO.N,GRD*%
X31351163Y-50990027D02*
X31351163Y-52191927D01*
%TO.N,Net-(U2-IO4)*%
X25834363Y-54043327D02*
X18510763Y-46719727D01*
%TO.N,3V3*%
X34278063Y-50990027D02*
X34278063Y-50410727D01*
%TO.N,Net-(EXT1-Pin_2)*%
X10200613Y-27780453D02*
X10200613Y-29451277D01*
%TO.N,Net-(D4-K)*%
X26074482Y-44067046D02*
X32351163Y-50343727D01*
X32351163Y-50343727D02*
X32351163Y-51592127D01*
%TO.N,Net-(PROG1-Pin_2)*%
X11043763Y-62018627D02*
X11043763Y-60816727D01*
%TO.N,3V3*%
X36614463Y-48074327D02*
X37415563Y-48074327D01*
X34278063Y-50410727D02*
X36614463Y-48074327D01*
X33351163Y-50990027D02*
X34278063Y-50990027D01*
%TO.N,GRD*%
X30711263Y-52831827D02*
X30711263Y-60469427D01*
%TO.N,Net-(D4-K)*%
X26074482Y-38969706D02*
X26074482Y-44067046D01*
%TO.N,GRD*%
X58929963Y-33307327D02*
X58929963Y-25963927D01*
X31351163Y-52191927D02*
X30711263Y-52831827D01*
X38370867Y-40687532D02*
X39864122Y-42180787D01*
X56409563Y-35827727D02*
X58929963Y-33307327D01*
X39864122Y-42180787D02*
X39864122Y-43244136D01*
%TO.N,Net-(SENSOR1-Pin_1)*%
X56389963Y-28503927D02*
X35515663Y-28503927D01*
%TO.N,Net-(U2-IO4)*%
X18510763Y-46719727D02*
X18510763Y-34738727D01*
%TO.N,Net-(POWER1-Pin_2)*%
X46792563Y-49117827D02*
X37357263Y-49117827D01*
X36278063Y-50197027D02*
X36278063Y-50990027D01*
X37357263Y-49117827D02*
X36278063Y-50197027D01*
X56409563Y-40827727D02*
X55082663Y-40827727D01*
X55082663Y-40827727D02*
X46792563Y-49117827D01*
%TO.N,Net-(PROG1-Pin_1)*%
X17037763Y-58024627D02*
X13043763Y-62018627D01*
%TO.N,Net-(U2-IO4)*%
X28479363Y-54043327D02*
X25834363Y-54043327D01*
%TO.N,Net-(EXT1-Pin_2)*%
X10200613Y-29451277D02*
X15102863Y-34353527D01*
X14231263Y-45081327D02*
X14231263Y-47453527D01*
%TO.N,Net-(EXT1-Pin_1)*%
X15625563Y-30297827D02*
X15625563Y-45224227D01*
%TO.N,3V3*%
X37415563Y-48074327D02*
X47614563Y-37875327D01*
%TO.N,Net-(EXT1-Pin_1)*%
X15625563Y-45224227D02*
X15036763Y-45813027D01*
X12200613Y-27780453D02*
X14717987Y-30297827D01*
%TO.N,Net-(EXT1-Pin_2)*%
X15102863Y-44209727D02*
X14231263Y-45081327D01*
%TO.N,Net-(SENSOR1-Pin_1)*%
X35515663Y-28503927D02*
X19255363Y-44764227D01*
%TO.N,Net-(U2-IO4)*%
X18510763Y-34738727D02*
X20548163Y-32701327D01*
%TO.N,Net-(PROG1-Pin_1)*%
X17037763Y-37045527D02*
X17037763Y-58024627D01*
%TO.N,Net-(D4-K)*%
X43713663Y-52224827D02*
X43883363Y-52055127D01*
X32983863Y-52224827D02*
X43713663Y-52224827D01*
X43883363Y-52055127D02*
X45210263Y-52055127D01*
X32351163Y-51592127D02*
X32983863Y-52224827D01*
%TO.N,Net-(PROG1-Pin_3)*%
X9151263Y-60709227D02*
X9151263Y-32693227D01*
%TO.N,Net-(PROG1-Pin_2)*%
X10421263Y-60194227D02*
X10421263Y-32703427D01*
X11043763Y-60816727D02*
X10421263Y-60194227D01*
%TO.N,Net-(PROG1-Pin_3)*%
X9043763Y-62018627D02*
X9043763Y-60816727D01*
%TO.N,Net-(EXT1-Pin_2)*%
X15102863Y-34353527D02*
X15102863Y-44209727D01*
%TO.N,Net-(PROG1-Pin_3)*%
X9043763Y-60816727D02*
X9151263Y-60709227D01*
%TO.N,Net-(EXT1-Pin_1)*%
X14717987Y-30297827D02*
X15625563Y-30297827D01*
D25*
%TO.N,3V3*%
X47741401Y5426600D02*
X48142291Y5827490D01*
X48142291Y5827490D02*
X67693501Y5827490D01*
D26*
%TO.N,Net-(POWER1-Pin_2)*%
X35478001Y-7688100D02*
X36404901Y-7688100D01*
%TO.N,GRD*%
X31478001Y-7688100D02*
X31478001Y-8890000D01*
%TO.N,Net-(U2-IO4)*%
X25961201Y-10741400D02*
X18637601Y-3417800D01*
%TO.N,3V3*%
X34404901Y-7688100D02*
X34404901Y-7108800D01*
%TO.N,Net-(EXT1-Pin_2)*%
X10327451Y15521474D02*
X10327451Y13850650D01*
%TO.N,Net-(D4-K)*%
X26201320Y-765119D02*
X32478001Y-7041800D01*
X32478001Y-7041800D02*
X32478001Y-8290200D01*
%TO.N,Net-(PROG1-Pin_2)*%
X11170601Y-18716700D02*
X11170601Y-17514800D01*
%TO.N,3V3*%
X36741301Y-4772400D02*
X37542401Y-4772400D01*
X34404901Y-7108800D02*
X36741301Y-4772400D01*
X33478001Y-7688100D02*
X34404901Y-7688100D01*
%TO.N,GRD*%
X30838101Y-9529900D02*
X30838101Y-17167500D01*
%TO.N,Net-(D4-K)*%
X26201320Y4332221D02*
X26201320Y-765119D01*
%TO.N,GRD*%
X59056801Y9994600D02*
X59056801Y17338000D01*
X31478001Y-8890000D02*
X30838101Y-9529900D01*
X38497705Y2614395D02*
X39990960Y1121140D01*
X56536401Y7474200D02*
X59056801Y9994600D01*
X39990960Y1121140D02*
X39990960Y57791D01*
%TO.N,Net-(SENSOR1-Pin_1)*%
X56516801Y14798000D02*
X35642501Y14798000D01*
%TO.N,Net-(U2-IO4)*%
X18637601Y-3417800D02*
X18637601Y8563200D01*
%TO.N,Net-(POWER1-Pin_2)*%
X46919401Y-5815900D02*
X37484101Y-5815900D01*
X36404901Y-6895100D02*
X36404901Y-7688100D01*
X37484101Y-5815900D02*
X36404901Y-6895100D01*
X56536401Y2474200D02*
X55209501Y2474200D01*
X55209501Y2474200D02*
X46919401Y-5815900D01*
%TO.N,Net-(PROG1-Pin_1)*%
X17164601Y-14722700D02*
X13170601Y-18716700D01*
%TO.N,Net-(U2-IO4)*%
X28606201Y-10741400D02*
X25961201Y-10741400D01*
%TO.N,Net-(EXT1-Pin_2)*%
X10327451Y13850650D02*
X15229701Y8948400D01*
X14358101Y-1779400D02*
X14358101Y-4151600D01*
%TO.N,Net-(EXT1-Pin_1)*%
X15752401Y13004100D02*
X15752401Y-1922300D01*
%TO.N,3V3*%
X37542401Y-4772400D02*
X47741401Y5426600D01*
%TO.N,Net-(EXT1-Pin_1)*%
X15752401Y-1922300D02*
X15163601Y-2511100D01*
X12327451Y15521474D02*
X14844825Y13004100D01*
%TO.N,Net-(EXT1-Pin_2)*%
X15229701Y-907800D02*
X14358101Y-1779400D01*
%TO.N,Net-(SENSOR1-Pin_1)*%
X35642501Y14798000D02*
X19382201Y-1462300D01*
%TO.N,Net-(U2-IO4)*%
X18637601Y8563200D02*
X20675001Y10600600D01*
%TO.N,Net-(PROG1-Pin_1)*%
X17164601Y6256400D02*
X17164601Y-14722700D01*
%TO.N,Net-(D4-K)*%
X43840501Y-8922900D02*
X44010201Y-8753200D01*
X33110701Y-8922900D02*
X43840501Y-8922900D01*
X44010201Y-8753200D02*
X45337101Y-8753200D01*
X32478001Y-8290200D02*
X33110701Y-8922900D01*
%TO.N,Net-(PROG1-Pin_3)*%
X9278101Y-17407300D02*
X9278101Y10608700D01*
%TO.N,Net-(PROG1-Pin_2)*%
X10548101Y-16892300D02*
X10548101Y10598500D01*
X11170601Y-17514800D02*
X10548101Y-16892300D01*
%TO.N,Net-(PROG1-Pin_3)*%
X9170601Y-18716700D02*
X9170601Y-17514800D01*
%TO.N,Net-(EXT1-Pin_2)*%
X15229701Y8948400D02*
X15229701Y-907800D01*
%TO.N,Net-(PROG1-Pin_3)*%
X9170601Y-17514800D02*
X9278101Y-17407300D01*
%TO.N,Net-(EXT1-Pin_1)*%
X14844825Y13004100D02*
X15752401Y13004100D01*
D25*
%TO.N,GRD*%
X119072304Y62230000D02*
X119072304Y79391066D01*
X31202341Y38225103D02*
X37563404Y44586166D01*
X24863404Y29253866D02*
X31202341Y35592803D01*
X31202341Y35592803D02*
X31202341Y38225103D01*
X119072304Y51525566D02*
X120530404Y50067466D01*
X119072304Y79391066D02*
X120553404Y80872166D01*
X100568404Y93161166D02*
X97523404Y90116166D01*
X120553404Y83672166D02*
X120553404Y85459166D01*
X74076553Y78657301D02*
X49157149Y78657301D01*
X112851404Y93161166D02*
X100568404Y93161166D01*
D26*
X113279428Y61980572D02*
X113030000Y62230000D01*
D25*
X119072304Y62230000D02*
X119072304Y51525566D01*
X120553404Y85459166D02*
X112851404Y93161166D01*
D26*
X116688283Y61980572D02*
X113279428Y61980572D01*
D25*
%TO.N,Net-(D10-A)*%
X31613009Y69781782D02*
X27195404Y65364177D01*
D26*
X27195404Y65364177D02*
X27195404Y65172166D01*
D25*
%TO.N,3V3*%
X118204504Y50393366D02*
X118530404Y50067466D01*
D26*
X67654619Y-37480933D02*
X67654619Y-37480833D01*
D27*
X67693501Y5827590D02*
X67693501Y-10068610D01*
X67654619Y-37480833D02*
X67654619Y-53377033D01*
D25*
X118204504Y85809666D02*
X118204504Y50393366D01*
D27*
X67693501Y-10068610D02*
X73045401Y-15420510D01*
D25*
X127155204Y43235066D02*
X125362804Y43235066D01*
X118258904Y85864066D02*
X118204504Y85809666D01*
D26*
X67693501Y5827490D02*
X67693501Y5827590D01*
D27*
X67654619Y-53377033D02*
X73006519Y-58728933D01*
D25*
X125362804Y43235066D02*
X118530404Y50067466D01*
D26*
%TO.N,Net-(Q1-G)*%
X24769504Y72561466D02*
X26683404Y70647566D01*
X26683404Y70647566D02*
X117009704Y70647566D01*
%TO.N,Net-(U2-IO13)*%
X106466004Y89396666D02*
X109861304Y86001366D01*
X109861304Y86001366D02*
X109861304Y85212166D01*
D25*
%TO.N,Net-(J1-Pin_1)*%
X77805404Y31886166D02*
X75703504Y31886166D01*
X71461704Y27644366D02*
X24196204Y27644366D01*
X10558404Y41282166D02*
X10558404Y52972166D01*
X75703504Y31886166D02*
X71461704Y27644366D01*
X24196204Y27644366D02*
X10558404Y41282166D01*
%TO.N,Net-(J2-Pin_1)*%
X85310504Y31886166D02*
X83208604Y33988066D01*
X38939204Y50258066D02*
X29909504Y50258066D01*
X29909504Y50258066D02*
X27195404Y52972166D01*
X83208604Y33988066D02*
X55209204Y33988066D01*
X87412404Y31886166D02*
X85310504Y31886166D01*
X55209204Y33988066D02*
X38939204Y50258066D01*
%TO.N,Net-(J3-Pin_1)*%
X94917504Y31886166D02*
X86736304Y40067366D01*
X86736304Y40067366D02*
X56737204Y40067366D01*
X56737204Y40067366D02*
X43832404Y52972166D01*
X97019404Y31886166D02*
X94917504Y31886166D01*
%TO.N,Net-(J4-Pin_1)*%
X90841604Y45569066D02*
X67872504Y45569066D01*
X106626404Y31886166D02*
X104524504Y31886166D01*
X67872504Y45569066D02*
X60469404Y52972166D01*
X104524504Y31886166D02*
X90841604Y45569066D01*
%TO.N,Net-(J5-Pin_1)*%
X81337504Y48741066D02*
X77106404Y52972166D01*
X116233404Y31886166D02*
X114131504Y31886166D01*
X114131504Y31886166D02*
X112029604Y33988066D01*
X93401504Y48741066D02*
X81337504Y48741066D01*
X108154504Y33988066D02*
X93401504Y48741066D01*
X112029604Y33988066D02*
X108154504Y33988066D01*
%TO.N,Net-(AC24-IN1-Pin_1)*%
X33245404Y67122166D02*
X49882404Y67122166D01*
X83156404Y67122166D02*
X66519404Y67122166D01*
X99793404Y67122166D02*
X83156404Y67122166D01*
X49882404Y67122166D02*
X66519404Y67122166D01*
D26*
%TO.N,Net-(U2-IO5)*%
X116887704Y80757366D02*
X116887704Y73374166D01*
X105492704Y92152366D02*
X116887704Y80757366D01*
%TO.N,Net-(U2-IO4)*%
X105497904Y91083566D02*
X104456704Y92124766D01*
X114013204Y73378866D02*
X114013204Y82933566D01*
X105863204Y91083566D02*
X105497904Y91083566D01*
X114013204Y82933566D02*
X105863204Y91083566D01*
D25*
%TO.N,Net-(AC24-IN1-Pin_2)*%
X100899404Y31886166D02*
X103001304Y29784266D01*
X112608304Y29784266D02*
X118011504Y29784266D01*
X108404504Y29784266D02*
X110506404Y31886166D01*
X103001304Y29784266D02*
X108404504Y29784266D01*
X118011504Y29784266D02*
X120113404Y31886166D01*
X110506404Y31886166D02*
X112608304Y29784266D01*
D26*
%TO.N,Net-(SENSOR1-Pin_1)*%
X127155204Y39355066D02*
X127155204Y41181966D01*
X127726104Y41181966D02*
X129017204Y42473066D01*
X129017204Y42473066D02*
X129017204Y81678266D01*
X127155204Y41181966D02*
X127726104Y41181966D01*
X129017204Y81678266D02*
X122577804Y88117666D01*
D25*
%TO.N,5V*%
X90964804Y63313766D02*
X103885004Y63313766D01*
X35859404Y48555766D02*
X39169604Y45245566D01*
X24877004Y62853566D02*
X25068804Y62853566D01*
X39169604Y45245566D02*
X39169604Y42794266D01*
X25068804Y62853566D02*
X25068804Y52113166D01*
X37563404Y39586166D02*
X37563404Y41188066D01*
X57684304Y63320266D02*
X70617504Y63320266D01*
X103885004Y63313766D02*
X104323004Y63751766D01*
X39169604Y42794266D02*
X37563404Y41188066D01*
X89106404Y65172166D02*
X90964804Y63313766D01*
X116530404Y50067466D02*
X116530404Y51544366D01*
X53930404Y63270166D02*
X41097404Y63270166D01*
X22558404Y65172166D02*
X24877004Y62853566D01*
X28626204Y48555766D02*
X35859404Y48555766D01*
X104323004Y63751766D02*
X105743404Y65172166D01*
X74321304Y63320266D02*
X72469404Y65172166D01*
X55832404Y65172166D02*
X53930404Y63270166D01*
X41097404Y63270166D02*
X39195404Y65172166D01*
X55832404Y65172166D02*
X57684304Y63320266D01*
X70617504Y63320266D02*
X72469404Y65172166D01*
X104323004Y63751766D02*
X116530404Y51544366D01*
X36876804Y62853566D02*
X39195404Y65172166D01*
X25068804Y62853566D02*
X36876804Y62853566D01*
X89106404Y65172166D02*
X87254504Y63320266D01*
X25068804Y52113166D02*
X28626204Y48555766D01*
X87254504Y63320266D02*
X74321304Y63320266D01*
%TO.N,Net-(J6-Pin_1)*%
X125840404Y31886166D02*
X123738504Y31886166D01*
X102652504Y52972166D02*
X93743404Y52972166D01*
X123738504Y31886166D02*
X102652504Y52972166D01*
D26*
%TO.N,Net-(EXT1-Pin_1)*%
X94051304Y85834066D02*
X108998504Y85834066D01*
X92173404Y83956166D02*
X94051304Y85834066D01*
%TO.N,Net-(EXT1-Pin_2)*%
X94173404Y83956166D02*
X95100304Y83956166D01*
X108195904Y85159066D02*
X108256304Y85098666D01*
X95100304Y83956166D02*
X95100304Y84532866D01*
X95100304Y84532866D02*
X95726504Y85159066D01*
X95726504Y85159066D02*
X108195904Y85159066D01*
%TO.N,Net-(EXT1-Pin_3)*%
X97100304Y83379466D02*
X97100304Y83956166D01*
X106318704Y74161066D02*
X97100304Y83379466D01*
X97100304Y83956166D02*
X96173404Y83956166D01*
X113030000Y74161066D02*
X106318704Y74161066D01*
%TO.N,Net-(EXT1-Pin_4)*%
X107773204Y75283266D02*
X99100304Y83956166D01*
X99100304Y83956166D02*
X98173404Y83956166D01*
X113030000Y75283266D02*
X107773204Y75283266D01*
%TD*%
M02*
