%TF.GenerationSoftware,KiCad,Pcbnew,7.0.8*%
%TF.CreationDate,2023-11-08T20:04:04+02:00*%
%TF.ProjectId,sprinklers,73707269-6e6b-46c6-9572-732e6b696361,1.2*%
%TF.SameCoordinates,Original*%
%TF.FileFunction,Soldermask,Bot*%
%TF.FilePolarity,Negative*%
%FSLAX46Y46*%
G04 Gerber Fmt 4.6, Leading zero omitted, Abs format (unit mm)*
G04 Created by KiCad (PCBNEW 7.0.8) date 2023-11-08 20:04:04*
%MOMM*%
%LPD*%
G01*
G04 APERTURE LIST*
G04 Aperture macros list*
%AMRoundRect*
0 Rectangle with rounded corners*
0 $1 Rounding radius*
0 $2 $3 $4 $5 $6 $7 $8 $9 X,Y pos of 4 corners*
0 Add a 4 corners polygon primitive as box body*
4,1,4,$2,$3,$4,$5,$6,$7,$8,$9,$2,$3,0*
0 Add four circle primitives for the rounded corners*
1,1,$1+$1,$2,$3*
1,1,$1+$1,$4,$5*
1,1,$1+$1,$6,$7*
1,1,$1+$1,$8,$9*
0 Add four rect primitives between the rounded corners*
20,1,$1+$1,$2,$3,$4,$5,0*
20,1,$1+$1,$4,$5,$6,$7,0*
20,1,$1+$1,$6,$7,$8,$9,0*
20,1,$1+$1,$8,$9,$2,$3,0*%
%AMFreePoly0*
4,1,41,-22.500000,1.388890,-22.492142,1.520800,-22.447241,1.727208,-22.364088,1.921388,-22.245689,2.096323,-22.096323,2.245689,-21.921388,2.364088,-21.727208,2.447241,-21.520800,2.492142,-21.388890,2.500000,21.388890,2.500000,21.520800,2.492142,21.727208,2.447241,21.921388,2.364088,22.096323,2.245689,22.245689,2.096323,22.364088,1.921388,22.447241,1.727208,22.492142,1.520800,22.500000,1.388890,
22.500000,-1.388890,22.492142,-1.520800,22.447241,-1.727208,22.364088,-1.921388,22.245689,-2.096323,22.096323,-2.245689,21.921388,-2.364088,21.727208,-2.447241,21.520800,-2.492142,21.388890,-2.500000,-21.388890,-2.500000,-21.520800,-2.492142,-21.727208,-2.447241,-21.921388,-2.364088,-22.096323,-2.245689,-22.245689,-2.096323,-22.364088,-1.921388,-22.447241,-1.727208,-22.492142,-1.520800,-22.500000,-1.388890,
-22.500000,1.388890,-22.500000,1.388890,$1*%
G04 Aperture macros list end*
%ADD10RoundRect,0.250000X-0.350000X-0.625000X0.350000X-0.625000X0.350000X0.625000X-0.350000X0.625000X0*%
%ADD11O,1.200000X1.750000*%
%ADD12C,1.440000*%
%ADD13FreePoly0,180.000000*%
%ADD14RoundRect,0.250000X0.350000X0.625000X-0.350000X0.625000X-0.350000X-0.625000X0.350000X-0.625000X0*%
%ADD15R,3.000000X3.000000*%
%ADD16C,3.000000*%
%ADD17R,2.000000X2.000000*%
%ADD18C,2.000000*%
%ADD19C,2.500000*%
%ADD20RoundRect,0.250000X-0.625000X0.350000X-0.625000X-0.350000X0.625000X-0.350000X0.625000X0.350000X0*%
%ADD21O,1.750000X1.200000*%
G04 APERTURE END LIST*
D10*
%TO.C,LED1*%
X25492863Y-63357874D03*
D11*
X27492863Y-63357874D03*
X29492863Y-63357874D03*
X31492863Y-63357874D03*
%TD*%
D12*
%TO.C,RV1*%
X59711563Y-28852374D03*
X57171563Y-31392374D03*
X54631563Y-28852374D03*
%TD*%
D13*
%TO.C,*%
X110532471Y-32919476D03*
%TD*%
D14*
%TO.C,EXT1*%
X13774663Y-30553774D03*
D11*
X11774663Y-30553774D03*
X9774663Y-30553774D03*
X7774663Y-30553774D03*
%TD*%
D15*
%TO.C,AC24-IN1*%
X56485164Y-64162292D03*
D16*
X56485164Y-60282292D03*
%TD*%
D14*
%TO.C,POWER1*%
X38132763Y-53878474D03*
D11*
X36132763Y-53878474D03*
X34132763Y-53878474D03*
X32132763Y-53878474D03*
%TD*%
D13*
%TO.C,*%
X110868074Y-61951375D03*
%TD*%
D17*
%TO.C,C6*%
X57191163Y-43716174D03*
D18*
X57191163Y-38716174D03*
%TD*%
D14*
%TO.C,PROG1*%
X13825363Y-64907074D03*
D11*
X11825363Y-64907074D03*
X9825363Y-64907074D03*
X7825363Y-64907074D03*
%TD*%
D17*
%TO.C,C5*%
X45991863Y-54943574D03*
D18*
X45991863Y-49943574D03*
%TD*%
D10*
%TO.C,LED1*%
X25487316Y-21747558D03*
D11*
X27487316Y-21747558D03*
X29487316Y-21747558D03*
X31487316Y-21747558D03*
%TD*%
D12*
%TO.C,RV1*%
X59706016Y12757942D03*
X57166016Y10217942D03*
X54626016Y12757942D03*
%TD*%
D13*
%TO.C,*%
X110526924Y8690840D03*
%TD*%
D14*
%TO.C,EXT1*%
X13769116Y11056542D03*
D11*
X11769116Y11056542D03*
X9769116Y11056542D03*
X7769116Y11056542D03*
%TD*%
D15*
%TO.C,AC24-IN1*%
X56479617Y-22551976D03*
D16*
X56479617Y-18671976D03*
%TD*%
D14*
%TO.C,POWER1*%
X38127216Y-12268158D03*
D11*
X36127216Y-12268158D03*
X34127216Y-12268158D03*
X32127216Y-12268158D03*
%TD*%
D13*
%TO.C,*%
X110862527Y-20341059D03*
%TD*%
D17*
%TO.C,C6*%
X57185616Y-2105858D03*
D18*
X57185616Y2894142D03*
%TD*%
D14*
%TO.C,PROG1*%
X13819816Y-23296758D03*
D11*
X11819816Y-23296758D03*
X9819816Y-23296758D03*
X7819816Y-23296758D03*
%TD*%
D17*
%TO.C,C5*%
X45986316Y-13333258D03*
D18*
X45986316Y-8333258D03*
%TD*%
D16*
%TO.C,K4*%
X67056000Y60636000D03*
D19*
X61006000Y58686000D03*
D16*
X61006000Y46486000D03*
X73056000Y46436000D03*
D19*
X73006000Y58686000D03*
%TD*%
D16*
%TO.C,K2*%
X33782000Y60636000D03*
D19*
X27732000Y58686000D03*
D16*
X27732000Y46486000D03*
X39782000Y46436000D03*
D19*
X39732000Y58686000D03*
%TD*%
D15*
%TO.C,AC24-IN1*%
X11360000Y25646000D03*
D16*
X15240000Y25646000D03*
%TD*%
D12*
%TO.C,RV1*%
X102870000Y35560000D03*
X105410000Y38100000D03*
X107950000Y35560000D03*
%TD*%
D20*
%TO.C,LED1*%
X98060000Y89630000D03*
D21*
X98060000Y87630000D03*
X98060000Y85630000D03*
X98060000Y83630000D03*
%TD*%
D15*
%TO.C,J4*%
X107163000Y25400000D03*
D16*
X111043000Y25400000D03*
%TD*%
%TO.C,K5*%
X83693000Y60636000D03*
D19*
X77643000Y58686000D03*
D16*
X77643000Y46486000D03*
X89693000Y46436000D03*
D19*
X89643000Y58686000D03*
%TD*%
D17*
%TO.C,C5*%
X25400000Y27767700D03*
D18*
X25400000Y22767700D03*
%TD*%
D17*
%TO.C,C6*%
X38100000Y33100000D03*
D18*
X38100000Y38100000D03*
%TD*%
D16*
%TO.C,K1*%
X17145000Y60636000D03*
D19*
X11095000Y58686000D03*
D16*
X11095000Y46486000D03*
X23145000Y46436000D03*
D19*
X23095000Y58686000D03*
%TD*%
D15*
%TO.C,J5*%
X116770000Y25400000D03*
D16*
X120650000Y25400000D03*
%TD*%
D15*
%TO.C,SENSOR1*%
X127691800Y32868900D03*
D16*
X127691800Y36748900D03*
%TD*%
D10*
%TO.C,POWER1*%
X114904429Y43687015D03*
D11*
X116904429Y43687015D03*
X118904429Y43687015D03*
X120904429Y43687015D03*
%TD*%
D15*
%TO.C,J2*%
X87949000Y25400000D03*
D16*
X91829000Y25400000D03*
%TD*%
D10*
%TO.C,EXT1*%
X92710000Y77470000D03*
D11*
X94710000Y77470000D03*
X96710000Y77470000D03*
X98710000Y77470000D03*
%TD*%
D10*
%TO.C,PROG1*%
X120850130Y52070001D03*
D11*
X122850130Y52070001D03*
X124850130Y52070001D03*
X126850130Y52070001D03*
%TD*%
D16*
%TO.C,K3*%
X50419000Y60636000D03*
D19*
X44369000Y58686000D03*
D16*
X44369000Y46486000D03*
X56419000Y46436000D03*
D19*
X56369000Y58686000D03*
%TD*%
D15*
%TO.C,J3*%
X97556000Y25400000D03*
D16*
X101436000Y25400000D03*
%TD*%
D15*
%TO.C,J6*%
X126377000Y25400000D03*
D16*
X130257000Y25400000D03*
%TD*%
D15*
%TO.C,J1*%
X78342000Y25400000D03*
D16*
X82222000Y25400000D03*
%TD*%
%TO.C,K6*%
X100330000Y60636000D03*
D19*
X94280000Y58686000D03*
D16*
X94280000Y46486000D03*
X106330000Y46436000D03*
D19*
X106280000Y58686000D03*
%TD*%
M02*
