%TF.GenerationSoftware,KiCad,Pcbnew,7.0.8*%
%TF.CreationDate,2023-11-08T20:04:04+02:00*%
%TF.ProjectId,sprinklers,73707269-6e6b-46c6-9572-732e6b696361,1.2*%
%TF.SameCoordinates,Original*%
%TF.FileFunction,Copper,L1,Top*%
%TF.FilePolarity,Positive*%
%FSLAX46Y46*%
G04 Gerber Fmt 4.6, Leading zero omitted, Abs format (unit mm)*
G04 Created by KiCad (PCBNEW 7.0.8) date 2023-11-08 20:04:04*
%MOMM*%
%LPD*%
G01*
G04 APERTURE LIST*
G04 Aperture macros list*
%AMRoundRect*
0 Rectangle with rounded corners*
0 $1 Rounding radius*
0 $2 $3 $4 $5 $6 $7 $8 $9 X,Y pos of 4 corners*
0 Add a 4 corners polygon primitive as box body*
4,1,4,$2,$3,$4,$5,$6,$7,$8,$9,$2,$3,0*
0 Add four circle primitives for the rounded corners*
1,1,$1+$1,$2,$3*
1,1,$1+$1,$4,$5*
1,1,$1+$1,$6,$7*
1,1,$1+$1,$8,$9*
0 Add four rect primitives between the rounded corners*
20,1,$1+$1,$2,$3,$4,$5,0*
20,1,$1+$1,$4,$5,$6,$7,0*
20,1,$1+$1,$6,$7,$8,$9,0*
20,1,$1+$1,$8,$9,$2,$3,0*%
%AMFreePoly0*
4,1,41,-22.500000,1.388890,-22.492142,1.520800,-22.447241,1.727208,-22.364088,1.921388,-22.245689,2.096323,-22.096323,2.245689,-21.921388,2.364088,-21.727208,2.447241,-21.520800,2.492142,-21.388890,2.500000,21.388890,2.500000,21.520800,2.492142,21.727208,2.447241,21.921388,2.364088,22.096323,2.245689,22.245689,2.096323,22.364088,1.921388,22.447241,1.727208,22.492142,1.520800,22.500000,1.388890,
22.500000,-1.388890,22.492142,-1.520800,22.447241,-1.727208,22.364088,-1.921388,22.245689,-2.096323,22.096323,-2.245689,21.921388,-2.364088,21.727208,-2.447241,21.520800,-2.492142,21.388890,-2.500000,-21.388890,-2.500000,-21.520800,-2.492142,-21.727208,-2.447241,-21.921388,-2.364088,-22.096323,-2.245689,-22.245689,-2.096323,-22.364088,-1.921388,-22.447241,-1.727208,-22.492142,-1.520800,-22.500000,-1.388890,
-22.500000,1.388890,-22.500000,1.388890,$1*%
G04 Aperture macros list end*
%TA.AperFunction,SMDPad,CuDef*%
%ADD10RoundRect,0.250000X0.300000X-2.050000X0.300000X2.050000X-0.300000X2.050000X-0.300000X-2.050000X0*%
%TD*%
%TA.AperFunction,SMDPad,CuDef*%
%ADD11RoundRect,0.250000X2.375000X-2.025000X2.375000X2.025000X-2.375000X2.025000X-2.375000X-2.025000X0*%
%TD*%
%TA.AperFunction,SMDPad,CuDef*%
%ADD12RoundRect,0.250002X5.149998X-4.449998X5.149998X4.449998X-5.149998X4.449998X-5.149998X-4.449998X0*%
%TD*%
%TA.AperFunction,ComponentPad*%
%ADD13RoundRect,0.250000X-0.350000X-0.625000X0.350000X-0.625000X0.350000X0.625000X-0.350000X0.625000X0*%
%TD*%
%TA.AperFunction,ComponentPad*%
%ADD14O,1.200000X1.750000*%
%TD*%
%TA.AperFunction,ComponentPad*%
%ADD15C,1.440000*%
%TD*%
%TA.AperFunction,SMDPad,CuDef*%
%ADD16RoundRect,0.100000X0.130000X0.100000X-0.130000X0.100000X-0.130000X-0.100000X0.130000X-0.100000X0*%
%TD*%
%TA.AperFunction,SMDPad,CuDef*%
%ADD17RoundRect,0.100000X-0.100000X0.130000X-0.100000X-0.130000X0.100000X-0.130000X0.100000X0.130000X0*%
%TD*%
%TA.AperFunction,SMDPad,CuDef*%
%ADD18RoundRect,0.250000X-1.000000X-0.650000X1.000000X-0.650000X1.000000X0.650000X-1.000000X0.650000X0*%
%TD*%
%TA.AperFunction,SMDPad,CuDef*%
%ADD19RoundRect,0.225000X0.250000X-0.225000X0.250000X0.225000X-0.250000X0.225000X-0.250000X-0.225000X0*%
%TD*%
%TA.AperFunction,SMDPad,CuDef*%
%ADD20RoundRect,0.250000X0.900000X-1.000000X0.900000X1.000000X-0.900000X1.000000X-0.900000X-1.000000X0*%
%TD*%
%TA.AperFunction,SMDPad,CuDef*%
%ADD21RoundRect,0.250000X0.475000X-0.250000X0.475000X0.250000X-0.475000X0.250000X-0.475000X-0.250000X0*%
%TD*%
%TA.AperFunction,SMDPad,CuDef*%
%ADD22RoundRect,0.243750X-0.456250X0.243750X-0.456250X-0.243750X0.456250X-0.243750X0.456250X0.243750X0*%
%TD*%
%TA.AperFunction,SMDPad,CuDef*%
%ADD23RoundRect,0.250000X-0.900000X1.000000X-0.900000X-1.000000X0.900000X-1.000000X0.900000X1.000000X0*%
%TD*%
%TA.AperFunction,SMDPad,CuDef*%
%ADD24FreePoly0,180.000000*%
%TD*%
%TA.AperFunction,ComponentPad*%
%ADD25RoundRect,0.250000X0.350000X0.625000X-0.350000X0.625000X-0.350000X-0.625000X0.350000X-0.625000X0*%
%TD*%
%TA.AperFunction,SMDPad,CuDef*%
%ADD26RoundRect,0.140000X0.140000X0.170000X-0.140000X0.170000X-0.140000X-0.170000X0.140000X-0.170000X0*%
%TD*%
%TA.AperFunction,ComponentPad*%
%ADD27R,3.000000X3.000000*%
%TD*%
%TA.AperFunction,ComponentPad*%
%ADD28C,3.000000*%
%TD*%
%TA.AperFunction,SMDPad,CuDef*%
%ADD29R,5.400000X2.900000*%
%TD*%
%TA.AperFunction,SMDPad,CuDef*%
%ADD30R,1.000000X1.700000*%
%TD*%
%TA.AperFunction,SMDPad,CuDef*%
%ADD31RoundRect,0.218750X-0.256250X0.218750X-0.256250X-0.218750X0.256250X-0.218750X0.256250X0.218750X0*%
%TD*%
%TA.AperFunction,SMDPad,CuDef*%
%ADD32R,0.900000X1.500000*%
%TD*%
%TA.AperFunction,SMDPad,CuDef*%
%ADD33R,1.500000X0.900000*%
%TD*%
%TA.AperFunction,SMDPad,CuDef*%
%ADD34R,0.900000X0.900000*%
%TD*%
%TA.AperFunction,HeatsinkPad*%
%ADD35C,0.600000*%
%TD*%
%TA.AperFunction,SMDPad,CuDef*%
%ADD36R,3.800000X3.800000*%
%TD*%
%TA.AperFunction,SMDPad,CuDef*%
%ADD37RoundRect,0.250000X-0.312500X-0.625000X0.312500X-0.625000X0.312500X0.625000X-0.312500X0.625000X0*%
%TD*%
%TA.AperFunction,ComponentPad*%
%ADD38R,2.000000X2.000000*%
%TD*%
%TA.AperFunction,ComponentPad*%
%ADD39C,2.000000*%
%TD*%
%TA.AperFunction,SMDPad,CuDef*%
%ADD40R,1.500000X2.000000*%
%TD*%
%TA.AperFunction,SMDPad,CuDef*%
%ADD41R,3.800000X2.000000*%
%TD*%
%TA.AperFunction,SMDPad,CuDef*%
%ADD42RoundRect,0.140000X-0.140000X-0.170000X0.140000X-0.170000X0.140000X0.170000X-0.140000X0.170000X0*%
%TD*%
%TA.AperFunction,SMDPad,CuDef*%
%ADD43RoundRect,0.218750X0.256250X-0.218750X0.256250X0.218750X-0.256250X0.218750X-0.256250X-0.218750X0*%
%TD*%
%TA.AperFunction,SMDPad,CuDef*%
%ADD44RoundRect,0.225000X-0.225000X-0.375000X0.225000X-0.375000X0.225000X0.375000X-0.225000X0.375000X0*%
%TD*%
%TA.AperFunction,SMDPad,CuDef*%
%ADD45RoundRect,0.243750X0.456250X-0.243750X0.456250X0.243750X-0.456250X0.243750X-0.456250X-0.243750X0*%
%TD*%
%TA.AperFunction,SMDPad,CuDef*%
%ADD46RoundRect,0.100000X-0.130000X-0.100000X0.130000X-0.100000X0.130000X0.100000X-0.130000X0.100000X0*%
%TD*%
%TA.AperFunction,ComponentPad*%
%ADD47C,2.500000*%
%TD*%
%TA.AperFunction,SMDPad,CuDef*%
%ADD48RoundRect,0.250000X0.625000X-0.312500X0.625000X0.312500X-0.625000X0.312500X-0.625000X-0.312500X0*%
%TD*%
%TA.AperFunction,ComponentPad*%
%ADD49RoundRect,0.250000X-0.625000X0.350000X-0.625000X-0.350000X0.625000X-0.350000X0.625000X0.350000X0*%
%TD*%
%TA.AperFunction,ComponentPad*%
%ADD50O,1.750000X1.200000*%
%TD*%
%TA.AperFunction,SMDPad,CuDef*%
%ADD51R,2.000000X1.500000*%
%TD*%
%TA.AperFunction,SMDPad,CuDef*%
%ADD52R,2.000000X3.800000*%
%TD*%
%TA.AperFunction,SMDPad,CuDef*%
%ADD53RoundRect,0.250000X-1.000000X-0.900000X1.000000X-0.900000X1.000000X0.900000X-1.000000X0.900000X0*%
%TD*%
%TA.AperFunction,SMDPad,CuDef*%
%ADD54R,2.200000X1.200000*%
%TD*%
%TA.AperFunction,SMDPad,CuDef*%
%ADD55R,6.400000X5.800000*%
%TD*%
%TA.AperFunction,SMDPad,CuDef*%
%ADD56RoundRect,0.100000X0.100000X-0.130000X0.100000X0.130000X-0.100000X0.130000X-0.100000X-0.130000X0*%
%TD*%
%TA.AperFunction,SMDPad,CuDef*%
%ADD57RoundRect,0.250000X1.000000X0.650000X-1.000000X0.650000X-1.000000X-0.650000X1.000000X-0.650000X0*%
%TD*%
%TA.AperFunction,SMDPad,CuDef*%
%ADD58RoundRect,0.140000X-0.170000X0.140000X-0.170000X-0.140000X0.170000X-0.140000X0.170000X0.140000X0*%
%TD*%
%TA.AperFunction,SMDPad,CuDef*%
%ADD59RoundRect,0.250000X1.000000X0.900000X-1.000000X0.900000X-1.000000X-0.900000X1.000000X-0.900000X0*%
%TD*%
%TA.AperFunction,SMDPad,CuDef*%
%ADD60R,1.700000X1.000000*%
%TD*%
%TA.AperFunction,ViaPad*%
%ADD61C,0.800000*%
%TD*%
%TA.AperFunction,ViaPad*%
%ADD62C,1.000000*%
%TD*%
%TA.AperFunction,Conductor*%
%ADD63C,0.250000*%
%TD*%
%TA.AperFunction,Conductor*%
%ADD64C,1.000000*%
%TD*%
%TA.AperFunction,Conductor*%
%ADD65C,0.500000*%
%TD*%
G04 APERTURE END LIST*
D10*
%TO.P,U1,1,VIN*%
%TO.N,Net-(D4-K)*%
X28673063Y-41490774D03*
%TO.P,U1,2,OUT*%
%TO.N,Net-(D5-K)*%
X30373063Y-41490774D03*
%TO.P,U1,3,GND*%
%TO.N,GRD*%
X32073063Y-41490774D03*
D11*
X29298063Y-34765774D03*
X34848063Y-34765774D03*
D12*
X32073063Y-32340774D03*
D11*
X29298063Y-29915774D03*
X34848063Y-29915774D03*
D10*
%TO.P,U1,4,FB*%
%TO.N,Net-(POWER1-Pin_2)*%
X33773063Y-41490774D03*
%TO.P,U1,5,~{ON}/OFF*%
%TO.N,GRD*%
X35473063Y-41490774D03*
%TD*%
D13*
%TO.P,LED1,1,Pin_1*%
%TO.N,Net-(LED1-Pin_1)*%
X25492863Y-63357874D03*
D14*
%TO.P,LED1,2,Pin_2*%
%TO.N,Net-(LED1-Pin_2)*%
X27492863Y-63357874D03*
%TO.P,LED1,3,Pin_3*%
%TO.N,Net-(LED1-Pin_3)*%
X29492863Y-63357874D03*
%TO.P,LED1,4,Pin_4*%
%TO.N,GRD*%
X31492863Y-63357874D03*
%TD*%
D15*
%TO.P,RV1,1,1*%
%TO.N,GRD*%
X59711563Y-28852374D03*
%TO.P,RV1,2,2*%
%TO.N,Net-(SENSOR1-Pin_1)*%
X57171563Y-31392374D03*
%TO.P,RV1,3,3*%
%TO.N,unconnected-(RV1-Pad3)*%
X54631563Y-28852374D03*
%TD*%
D16*
%TO.P,R11,1*%
%TO.N,Net-(LED1-Pin_1)*%
X24725163Y-60400474D03*
%TO.P,R11,2*%
%TO.N,Net-(U2-IO13)*%
X24085163Y-60400474D03*
%TD*%
D17*
%TO.P,R8,1*%
%TO.N,GRD*%
X20842301Y-28114787D03*
%TO.P,R8,2*%
%TO.N,Net-(D2-K)*%
X20842301Y-28754787D03*
%TD*%
D18*
%TO.P,D5,1,K*%
%TO.N,Net-(D5-K)*%
X44249763Y-44909674D03*
%TO.P,D5,2,A*%
%TO.N,GRD*%
X48249763Y-44909674D03*
%TD*%
D16*
%TO.P,R12,1*%
%TO.N,Net-(LED1-Pin_2)*%
X27408663Y-60400474D03*
%TO.P,R12,2*%
%TO.N,Net-(U2-IO5)*%
X26768663Y-60400474D03*
%TD*%
D19*
%TO.P,C2,1*%
%TO.N,Net-(POWER1-Pin_2)*%
X31213563Y-49270374D03*
%TO.P,C2,2*%
%TO.N,GRD*%
X31213563Y-47720374D03*
%TD*%
D20*
%TO.P,D6,1,K*%
%TO.N,Net-(AC24-IN1-Pin_1)*%
X59387563Y-55648974D03*
%TO.P,D6,2,A*%
%TO.N,GRD*%
X59387563Y-51348974D03*
%TD*%
D16*
%TO.P,R13,1*%
%TO.N,Net-(LED1-Pin_3)*%
X29852363Y-60400474D03*
%TO.P,R13,2*%
%TO.N,Net-(U2-IO4)*%
X29212363Y-60400474D03*
%TD*%
D21*
%TO.P,C1,1*%
%TO.N,Net-(POWER1-Pin_2)*%
X33117563Y-49445374D03*
%TO.P,C1,2*%
%TO.N,GRD*%
X33117563Y-47545374D03*
%TD*%
D20*
%TO.P,D8,1,K*%
%TO.N,Net-(AC24-IN1-Pin_2)*%
X44586163Y-65157374D03*
%TO.P,D8,2,A*%
%TO.N,GRD*%
X44586163Y-60857374D03*
%TD*%
D22*
%TO.P,D3,1,K*%
%TO.N,Net-(D3-K)*%
X18364254Y-30178548D03*
%TO.P,D3,2,A*%
%TO.N,Net-(D3-A)*%
X18364254Y-32053548D03*
%TD*%
D23*
%TO.P,D7,1,K*%
%TO.N,Net-(D4-K)*%
X50136163Y-60857374D03*
%TO.P,D7,2,A*%
%TO.N,Net-(AC24-IN1-Pin_2)*%
X50136163Y-65157374D03*
%TD*%
D24*
%TO.P,,1*%
%TO.N,3V3*%
X110868074Y-61951375D03*
%TD*%
D25*
%TO.P,EXT1,1,Pin_1*%
%TO.N,Net-(EXT1-Pin_1)*%
X13774663Y-30553774D03*
D14*
%TO.P,EXT1,2,Pin_2*%
%TO.N,Net-(EXT1-Pin_2)*%
X11774663Y-30553774D03*
%TO.P,EXT1,3,Pin_3*%
%TO.N,Net-(EXT1-Pin_3)*%
X9774663Y-30553774D03*
%TO.P,EXT1,4,Pin_4*%
%TO.N,Net-(EXT1-Pin_4)*%
X7774663Y-30553774D03*
%TD*%
D26*
%TO.P,C7,1*%
%TO.N,GRD*%
X27046463Y-46044474D03*
%TO.P,C7,2*%
%TO.N,Net-(D4-K)*%
X26086463Y-46044474D03*
%TD*%
D27*
%TO.P,AC24-IN1,1,Pin_1*%
%TO.N,Net-(AC24-IN1-Pin_1)*%
X56485164Y-64162292D03*
D28*
%TO.P,AC24-IN1,2,Pin_2*%
%TO.N,Net-(AC24-IN1-Pin_2)*%
X56485164Y-60282292D03*
%TD*%
D25*
%TO.P,POWER1,1,Pin_1*%
%TO.N,Net-(POWER1-Pin_1)*%
X38132763Y-53878474D03*
D14*
%TO.P,POWER1,2,Pin_2*%
%TO.N,Net-(POWER1-Pin_2)*%
X36132763Y-53878474D03*
%TO.P,POWER1,3,Pin_3*%
%TO.N,3V3*%
X34132763Y-53878474D03*
%TO.P,POWER1,4,Pin_4*%
%TO.N,GRD*%
X32132763Y-53878474D03*
%TD*%
D29*
%TO.P,L1,1,1*%
%TO.N,Net-(D5-K)*%
X44850063Y-39335974D03*
%TO.P,L1,2,2*%
%TO.N,Net-(POWER1-Pin_2)*%
X44850063Y-29435974D03*
%TD*%
D30*
%TO.P,RST_SW1,1,A*%
%TO.N,Net-(POWER1-Pin_1)*%
X17958495Y-61262272D03*
X17958495Y-54962272D03*
%TO.P,RST_SW1,2,B*%
%TO.N,GRD*%
X21758495Y-61262272D03*
X21758495Y-54962272D03*
%TD*%
D22*
%TO.P,D2,1,K*%
%TO.N,Net-(D2-K)*%
X20808675Y-30178548D03*
%TO.P,D2,2,A*%
%TO.N,Net-(D2-A)*%
X20808675Y-32053548D03*
%TD*%
D31*
%TO.P,D1,1,K*%
%TO.N,Net-(D1-K)*%
X22798675Y-30328548D03*
%TO.P,D1,2,A*%
%TO.N,Net-(D1-A)*%
X22798675Y-31903548D03*
%TD*%
D32*
%TO.P,U2,1,GND*%
%TO.N,GRD*%
X6117863Y-51705474D03*
%TO.P,U2,2,VDD*%
%TO.N,3V3*%
X7387863Y-51705474D03*
%TO.P,U2,3,EN*%
%TO.N,Net-(POWER1-Pin_1)*%
X8657863Y-51705474D03*
%TO.P,U2,4,SENSOR_VP*%
%TO.N,unconnected-(U2-SENSOR_VP-Pad4)*%
X9927863Y-51705474D03*
%TO.P,U2,5,SENSOR_VN*%
%TO.N,unconnected-(U2-SENSOR_VN-Pad5)*%
X11197863Y-51705474D03*
%TO.P,U2,6,IO34*%
%TO.N,Net-(SENSOR1-Pin_1)*%
X12467863Y-51705474D03*
%TO.P,U2,7,IO35*%
%TO.N,Net-(EXT1-Pin_1)*%
X13737863Y-51705474D03*
%TO.P,U2,8,IO32*%
%TO.N,Net-(EXT1-Pin_2)*%
X15007863Y-51705474D03*
%TO.P,U2,9,IO33*%
%TO.N,unconnected-(U2-IO33-Pad9)*%
X16277863Y-51705474D03*
%TO.P,U2,10,IO25*%
%TO.N,unconnected-(U2-IO25-Pad10)*%
X17547863Y-51705474D03*
%TO.P,U2,11,IO26*%
%TO.N,unconnected-(U2-IO26-Pad11)*%
X18817863Y-51705474D03*
%TO.P,U2,12,IO27*%
%TO.N,unconnected-(U2-IO27-Pad12)*%
X20087863Y-51705474D03*
%TO.P,U2,13,IO14*%
%TO.N,unconnected-(U2-IO14-Pad13)*%
X21357863Y-51705474D03*
%TO.P,U2,14,IO12*%
%TO.N,unconnected-(U2-IO12-Pad14)*%
X22627863Y-51705474D03*
D33*
%TO.P,U2,15,GND*%
%TO.N,GRD*%
X23722863Y-48670474D03*
%TO.P,U2,16,IO13*%
%TO.N,Net-(U2-IO13)*%
X23722863Y-47400474D03*
%TO.P,U2,17,SHD/SD2*%
%TO.N,unconnected-(U2-SHD{slash}SD2-Pad17)*%
X23722863Y-46130474D03*
%TO.P,U2,18,SWP/SD3*%
%TO.N,unconnected-(U2-SWP{slash}SD3-Pad18)*%
X23722863Y-44860474D03*
%TO.P,U2,19,SCS/CMD*%
%TO.N,unconnected-(U2-SCS{slash}CMD-Pad19)*%
X23722863Y-43590474D03*
%TO.P,U2,20,SCK/CLK*%
%TO.N,unconnected-(U2-SCK{slash}CLK-Pad20)*%
X23722863Y-42320474D03*
%TO.P,U2,21,SDO/SD0*%
%TO.N,unconnected-(U2-SDO{slash}SD0-Pad21)*%
X23722863Y-41050474D03*
%TO.P,U2,22,SDI/SD1*%
%TO.N,unconnected-(U2-SDI{slash}SD1-Pad22)*%
X23722863Y-39780474D03*
%TO.P,U2,23,IO15*%
%TO.N,Net-(D1-A)*%
X23722863Y-38510474D03*
%TO.P,U2,24,IO2*%
%TO.N,unconnected-(U2-IO2-Pad24)*%
X23722863Y-37240474D03*
D32*
%TO.P,U2,25,IO0*%
%TO.N,Net-(PROG1-Pin_1)*%
X22627863Y-34205474D03*
%TO.P,U2,26,IO4*%
%TO.N,Net-(U2-IO4)*%
X21357863Y-34205474D03*
%TO.P,U2,27,IO16*%
%TO.N,Net-(D2-A)*%
X20087863Y-34205474D03*
%TO.P,U2,28,IO17*%
%TO.N,Net-(D3-A)*%
X18817863Y-34205474D03*
%TO.P,U2,29,IO5*%
%TO.N,Net-(U2-IO5)*%
X17547863Y-34205474D03*
%TO.P,U2,30,IO18*%
%TO.N,unconnected-(U2-IO18-Pad30)*%
X16277863Y-34205474D03*
%TO.P,U2,31,IO19*%
%TO.N,unconnected-(U2-IO19-Pad31)*%
X15007863Y-34205474D03*
%TO.P,U2,32,NC*%
%TO.N,unconnected-(U2-NC-Pad32)*%
X13737863Y-34205474D03*
%TO.P,U2,33,IO21*%
%TO.N,unconnected-(U2-IO21-Pad33)*%
X12467863Y-34205474D03*
%TO.P,U2,34,RXD0/IO3*%
%TO.N,Net-(PROG1-Pin_2)*%
X11197863Y-34205474D03*
%TO.P,U2,35,TXD0/IO1*%
%TO.N,Net-(PROG1-Pin_3)*%
X9927863Y-34205474D03*
%TO.P,U2,36,IO22*%
%TO.N,Net-(EXT1-Pin_3)*%
X8657863Y-34205474D03*
%TO.P,U2,37,IO23*%
%TO.N,Net-(EXT1-Pin_4)*%
X7387863Y-34205474D03*
%TO.P,U2,38,GND*%
%TO.N,GRD*%
X6117863Y-34205474D03*
D34*
%TO.P,U2,39,GND*%
X12282863Y-45855474D03*
D35*
X12982863Y-45855474D03*
D34*
X13682863Y-45855474D03*
D35*
X14382863Y-45855474D03*
D34*
X15082863Y-45855474D03*
D35*
X12282863Y-45155474D03*
X13682863Y-45155474D03*
X15082863Y-45155474D03*
D34*
X12282863Y-44455474D03*
D35*
X12982863Y-44455474D03*
D34*
X13682863Y-44455474D03*
D36*
X13682863Y-44455474D03*
D35*
X14382863Y-44455474D03*
D34*
X15082863Y-44455474D03*
D35*
X12282863Y-43755474D03*
X13682863Y-43755474D03*
X15082863Y-43755474D03*
D34*
X12282863Y-43055474D03*
D35*
X12982863Y-43055474D03*
D34*
X13682863Y-43055474D03*
D35*
X14382863Y-43055474D03*
D34*
X15082863Y-43055474D03*
%TD*%
D17*
%TO.P,R7,1*%
%TO.N,GRD*%
X18279498Y-28094084D03*
%TO.P,R7,2*%
%TO.N,Net-(D3-K)*%
X18279498Y-28734084D03*
%TD*%
D37*
%TO.P,R10,1*%
%TO.N,3V3*%
X7077063Y-56324274D03*
%TO.P,R10,2*%
%TO.N,Net-(POWER1-Pin_1)*%
X10002063Y-56324274D03*
%TD*%
D23*
%TO.P,D4,1,K*%
%TO.N,Net-(D4-K)*%
X54538663Y-51303474D03*
%TO.P,D4,2,A*%
%TO.N,Net-(AC24-IN1-Pin_1)*%
X54538663Y-55603474D03*
%TD*%
D38*
%TO.P,C6,1*%
%TO.N,Net-(POWER1-Pin_2)*%
X57191163Y-43716174D03*
D39*
%TO.P,C6,2*%
%TO.N,GRD*%
X57191163Y-38716174D03*
%TD*%
D24*
%TO.P,,1*%
%TO.N,Net-(SENSOR1-Pin_1)*%
X110532471Y-32919476D03*
%TD*%
D40*
%TO.P,U3,1,GND*%
%TO.N,GRD*%
X40467363Y-59142474D03*
%TO.P,U3,2,VO*%
%TO.N,3V3*%
X38167363Y-59142474D03*
D41*
X38167363Y-65442474D03*
D40*
%TO.P,U3,3,VI*%
%TO.N,Net-(POWER1-Pin_2)*%
X35867363Y-59142474D03*
%TD*%
D17*
%TO.P,R9,1*%
%TO.N,GRD*%
X22792415Y-28311489D03*
%TO.P,R9,2*%
%TO.N,Net-(D1-K)*%
X22792415Y-28951489D03*
%TD*%
D21*
%TO.P,C3,1*%
%TO.N,3V3*%
X38940463Y-49445374D03*
%TO.P,C3,2*%
%TO.N,GRD*%
X38940463Y-47545374D03*
%TD*%
D25*
%TO.P,PROG1,1,Pin_1*%
%TO.N,Net-(PROG1-Pin_1)*%
X13825363Y-64907074D03*
D14*
%TO.P,PROG1,2,Pin_2*%
%TO.N,Net-(PROG1-Pin_2)*%
X11825363Y-64907074D03*
%TO.P,PROG1,3,Pin_3*%
%TO.N,Net-(PROG1-Pin_3)*%
X9825363Y-64907074D03*
%TO.P,PROG1,4,Pin_4*%
%TO.N,Net-(POWER1-Pin_1)*%
X7825363Y-64907074D03*
%TD*%
D42*
%TO.P,C8,1*%
%TO.N,GRD*%
X28399263Y-46080574D03*
%TO.P,C8,2*%
%TO.N,Net-(D5-K)*%
X29359263Y-46080574D03*
%TD*%
D38*
%TO.P,C5,1*%
%TO.N,Net-(D4-K)*%
X45991863Y-54943574D03*
D39*
%TO.P,C5,2*%
%TO.N,GRD*%
X45991863Y-49943574D03*
%TD*%
D19*
%TO.P,C4,1*%
%TO.N,3V3*%
X36909163Y-49270374D03*
%TO.P,C4,2*%
%TO.N,GRD*%
X36909163Y-47720374D03*
%TD*%
D10*
%TO.P,U1,1,VIN*%
%TO.N,Net-(D4-K)*%
X28667516Y119542D03*
%TO.P,U1,2,OUT*%
%TO.N,Net-(D5-K)*%
X30367516Y119542D03*
%TO.P,U1,3,GND*%
%TO.N,GRD*%
X32067516Y119542D03*
D11*
X29292516Y6844542D03*
X34842516Y6844542D03*
D12*
X32067516Y9269542D03*
D11*
X29292516Y11694542D03*
X34842516Y11694542D03*
D10*
%TO.P,U1,4,FB*%
%TO.N,Net-(POWER1-Pin_2)*%
X33767516Y119542D03*
%TO.P,U1,5,~{ON}/OFF*%
%TO.N,GRD*%
X35467516Y119542D03*
%TD*%
D13*
%TO.P,LED1,1,Pin_1*%
%TO.N,Net-(LED1-Pin_1)*%
X25487316Y-21747558D03*
D14*
%TO.P,LED1,2,Pin_2*%
%TO.N,Net-(LED1-Pin_2)*%
X27487316Y-21747558D03*
%TO.P,LED1,3,Pin_3*%
%TO.N,Net-(LED1-Pin_3)*%
X29487316Y-21747558D03*
%TO.P,LED1,4,Pin_4*%
%TO.N,GRD*%
X31487316Y-21747558D03*
%TD*%
D15*
%TO.P,RV1,1,1*%
%TO.N,GRD*%
X59706016Y12757942D03*
%TO.P,RV1,2,2*%
%TO.N,Net-(SENSOR1-Pin_1)*%
X57166016Y10217942D03*
%TO.P,RV1,3,3*%
%TO.N,unconnected-(RV1-Pad3)*%
X54626016Y12757942D03*
%TD*%
D16*
%TO.P,R11,1*%
%TO.N,Net-(LED1-Pin_1)*%
X24719616Y-18790158D03*
%TO.P,R11,2*%
%TO.N,Net-(U2-IO13)*%
X24079616Y-18790158D03*
%TD*%
D17*
%TO.P,R8,1*%
%TO.N,GRD*%
X20836754Y13495529D03*
%TO.P,R8,2*%
%TO.N,Net-(D2-K)*%
X20836754Y12855529D03*
%TD*%
D18*
%TO.P,D5,1,K*%
%TO.N,Net-(D5-K)*%
X44244216Y-3299358D03*
%TO.P,D5,2,A*%
%TO.N,GRD*%
X48244216Y-3299358D03*
%TD*%
D16*
%TO.P,R12,1*%
%TO.N,Net-(LED1-Pin_2)*%
X27403116Y-18790158D03*
%TO.P,R12,2*%
%TO.N,Net-(U2-IO5)*%
X26763116Y-18790158D03*
%TD*%
D19*
%TO.P,C2,1*%
%TO.N,Net-(POWER1-Pin_2)*%
X31208016Y-7660058D03*
%TO.P,C2,2*%
%TO.N,GRD*%
X31208016Y-6110058D03*
%TD*%
D20*
%TO.P,D6,1,K*%
%TO.N,Net-(AC24-IN1-Pin_1)*%
X59382016Y-14038658D03*
%TO.P,D6,2,A*%
%TO.N,GRD*%
X59382016Y-9738658D03*
%TD*%
D16*
%TO.P,R13,1*%
%TO.N,Net-(LED1-Pin_3)*%
X29846816Y-18790158D03*
%TO.P,R13,2*%
%TO.N,Net-(U2-IO4)*%
X29206816Y-18790158D03*
%TD*%
D21*
%TO.P,C1,1*%
%TO.N,Net-(POWER1-Pin_2)*%
X33112016Y-7835058D03*
%TO.P,C1,2*%
%TO.N,GRD*%
X33112016Y-5935058D03*
%TD*%
D20*
%TO.P,D8,1,K*%
%TO.N,Net-(AC24-IN1-Pin_2)*%
X44580616Y-23547058D03*
%TO.P,D8,2,A*%
%TO.N,GRD*%
X44580616Y-19247058D03*
%TD*%
D22*
%TO.P,D3,1,K*%
%TO.N,Net-(D3-K)*%
X18358707Y11431768D03*
%TO.P,D3,2,A*%
%TO.N,Net-(D3-A)*%
X18358707Y9556768D03*
%TD*%
D23*
%TO.P,D7,1,K*%
%TO.N,Net-(D4-K)*%
X50130616Y-19247058D03*
%TO.P,D7,2,A*%
%TO.N,Net-(AC24-IN1-Pin_2)*%
X50130616Y-23547058D03*
%TD*%
D24*
%TO.P,,1*%
%TO.N,3V3*%
X110862527Y-20341059D03*
%TD*%
D25*
%TO.P,EXT1,1,Pin_1*%
%TO.N,Net-(EXT1-Pin_1)*%
X13769116Y11056542D03*
D14*
%TO.P,EXT1,2,Pin_2*%
%TO.N,Net-(EXT1-Pin_2)*%
X11769116Y11056542D03*
%TO.P,EXT1,3,Pin_3*%
%TO.N,Net-(EXT1-Pin_3)*%
X9769116Y11056542D03*
%TO.P,EXT1,4,Pin_4*%
%TO.N,Net-(EXT1-Pin_4)*%
X7769116Y11056542D03*
%TD*%
D26*
%TO.P,C7,1*%
%TO.N,GRD*%
X27040916Y-4434158D03*
%TO.P,C7,2*%
%TO.N,Net-(D4-K)*%
X26080916Y-4434158D03*
%TD*%
D27*
%TO.P,AC24-IN1,1,Pin_1*%
%TO.N,Net-(AC24-IN1-Pin_1)*%
X56479617Y-22551976D03*
D28*
%TO.P,AC24-IN1,2,Pin_2*%
%TO.N,Net-(AC24-IN1-Pin_2)*%
X56479617Y-18671976D03*
%TD*%
D25*
%TO.P,POWER1,1,Pin_1*%
%TO.N,Net-(POWER1-Pin_1)*%
X38127216Y-12268158D03*
D14*
%TO.P,POWER1,2,Pin_2*%
%TO.N,Net-(POWER1-Pin_2)*%
X36127216Y-12268158D03*
%TO.P,POWER1,3,Pin_3*%
%TO.N,3V3*%
X34127216Y-12268158D03*
%TO.P,POWER1,4,Pin_4*%
%TO.N,GRD*%
X32127216Y-12268158D03*
%TD*%
D29*
%TO.P,L1,1,1*%
%TO.N,Net-(D5-K)*%
X44844516Y2274342D03*
%TO.P,L1,2,2*%
%TO.N,Net-(POWER1-Pin_2)*%
X44844516Y12174342D03*
%TD*%
D30*
%TO.P,RST_SW1,1,A*%
%TO.N,Net-(POWER1-Pin_1)*%
X17952948Y-19651956D03*
X17952948Y-13351956D03*
%TO.P,RST_SW1,2,B*%
%TO.N,GRD*%
X21752948Y-19651956D03*
X21752948Y-13351956D03*
%TD*%
D22*
%TO.P,D2,1,K*%
%TO.N,Net-(D2-K)*%
X20803128Y11431768D03*
%TO.P,D2,2,A*%
%TO.N,Net-(D2-A)*%
X20803128Y9556768D03*
%TD*%
D31*
%TO.P,D1,1,K*%
%TO.N,Net-(D1-K)*%
X22793128Y11281768D03*
%TO.P,D1,2,A*%
%TO.N,Net-(D1-A)*%
X22793128Y9706768D03*
%TD*%
D32*
%TO.P,U2,1,GND*%
%TO.N,GRD*%
X6112316Y-10095158D03*
%TO.P,U2,2,VDD*%
%TO.N,3V3*%
X7382316Y-10095158D03*
%TO.P,U2,3,EN*%
%TO.N,Net-(POWER1-Pin_1)*%
X8652316Y-10095158D03*
%TO.P,U2,4,SENSOR_VP*%
%TO.N,unconnected-(U2-SENSOR_VP-Pad4)*%
X9922316Y-10095158D03*
%TO.P,U2,5,SENSOR_VN*%
%TO.N,unconnected-(U2-SENSOR_VN-Pad5)*%
X11192316Y-10095158D03*
%TO.P,U2,6,IO34*%
%TO.N,Net-(SENSOR1-Pin_1)*%
X12462316Y-10095158D03*
%TO.P,U2,7,IO35*%
%TO.N,Net-(EXT1-Pin_1)*%
X13732316Y-10095158D03*
%TO.P,U2,8,IO32*%
%TO.N,Net-(EXT1-Pin_2)*%
X15002316Y-10095158D03*
%TO.P,U2,9,IO33*%
%TO.N,unconnected-(U2-IO33-Pad9)*%
X16272316Y-10095158D03*
%TO.P,U2,10,IO25*%
%TO.N,unconnected-(U2-IO25-Pad10)*%
X17542316Y-10095158D03*
%TO.P,U2,11,IO26*%
%TO.N,unconnected-(U2-IO26-Pad11)*%
X18812316Y-10095158D03*
%TO.P,U2,12,IO27*%
%TO.N,unconnected-(U2-IO27-Pad12)*%
X20082316Y-10095158D03*
%TO.P,U2,13,IO14*%
%TO.N,unconnected-(U2-IO14-Pad13)*%
X21352316Y-10095158D03*
%TO.P,U2,14,IO12*%
%TO.N,unconnected-(U2-IO12-Pad14)*%
X22622316Y-10095158D03*
D33*
%TO.P,U2,15,GND*%
%TO.N,GRD*%
X23717316Y-7060158D03*
%TO.P,U2,16,IO13*%
%TO.N,Net-(U2-IO13)*%
X23717316Y-5790158D03*
%TO.P,U2,17,SHD/SD2*%
%TO.N,unconnected-(U2-SHD{slash}SD2-Pad17)*%
X23717316Y-4520158D03*
%TO.P,U2,18,SWP/SD3*%
%TO.N,unconnected-(U2-SWP{slash}SD3-Pad18)*%
X23717316Y-3250158D03*
%TO.P,U2,19,SCS/CMD*%
%TO.N,unconnected-(U2-SCS{slash}CMD-Pad19)*%
X23717316Y-1980158D03*
%TO.P,U2,20,SCK/CLK*%
%TO.N,unconnected-(U2-SCK{slash}CLK-Pad20)*%
X23717316Y-710158D03*
%TO.P,U2,21,SDO/SD0*%
%TO.N,unconnected-(U2-SDO{slash}SD0-Pad21)*%
X23717316Y559842D03*
%TO.P,U2,22,SDI/SD1*%
%TO.N,unconnected-(U2-SDI{slash}SD1-Pad22)*%
X23717316Y1829842D03*
%TO.P,U2,23,IO15*%
%TO.N,Net-(D1-A)*%
X23717316Y3099842D03*
%TO.P,U2,24,IO2*%
%TO.N,unconnected-(U2-IO2-Pad24)*%
X23717316Y4369842D03*
D32*
%TO.P,U2,25,IO0*%
%TO.N,Net-(PROG1-Pin_1)*%
X22622316Y7404842D03*
%TO.P,U2,26,IO4*%
%TO.N,Net-(U2-IO4)*%
X21352316Y7404842D03*
%TO.P,U2,27,IO16*%
%TO.N,Net-(D2-A)*%
X20082316Y7404842D03*
%TO.P,U2,28,IO17*%
%TO.N,Net-(D3-A)*%
X18812316Y7404842D03*
%TO.P,U2,29,IO5*%
%TO.N,Net-(U2-IO5)*%
X17542316Y7404842D03*
%TO.P,U2,30,IO18*%
%TO.N,unconnected-(U2-IO18-Pad30)*%
X16272316Y7404842D03*
%TO.P,U2,31,IO19*%
%TO.N,unconnected-(U2-IO19-Pad31)*%
X15002316Y7404842D03*
%TO.P,U2,32,NC*%
%TO.N,unconnected-(U2-NC-Pad32)*%
X13732316Y7404842D03*
%TO.P,U2,33,IO21*%
%TO.N,unconnected-(U2-IO21-Pad33)*%
X12462316Y7404842D03*
%TO.P,U2,34,RXD0/IO3*%
%TO.N,Net-(PROG1-Pin_2)*%
X11192316Y7404842D03*
%TO.P,U2,35,TXD0/IO1*%
%TO.N,Net-(PROG1-Pin_3)*%
X9922316Y7404842D03*
%TO.P,U2,36,IO22*%
%TO.N,Net-(EXT1-Pin_3)*%
X8652316Y7404842D03*
%TO.P,U2,37,IO23*%
%TO.N,Net-(EXT1-Pin_4)*%
X7382316Y7404842D03*
%TO.P,U2,38,GND*%
%TO.N,GRD*%
X6112316Y7404842D03*
D34*
%TO.P,U2,39,GND*%
X12277316Y-4245158D03*
D35*
X12977316Y-4245158D03*
D34*
X13677316Y-4245158D03*
D35*
X14377316Y-4245158D03*
D34*
X15077316Y-4245158D03*
D35*
X12277316Y-3545158D03*
X13677316Y-3545158D03*
X15077316Y-3545158D03*
D34*
X12277316Y-2845158D03*
D35*
X12977316Y-2845158D03*
D34*
X13677316Y-2845158D03*
D36*
X13677316Y-2845158D03*
D35*
X14377316Y-2845158D03*
D34*
X15077316Y-2845158D03*
D35*
X12277316Y-2145158D03*
X13677316Y-2145158D03*
X15077316Y-2145158D03*
D34*
X12277316Y-1445158D03*
D35*
X12977316Y-1445158D03*
D34*
X13677316Y-1445158D03*
D35*
X14377316Y-1445158D03*
D34*
X15077316Y-1445158D03*
%TD*%
D17*
%TO.P,R7,1*%
%TO.N,GRD*%
X18273951Y13516232D03*
%TO.P,R7,2*%
%TO.N,Net-(D3-K)*%
X18273951Y12876232D03*
%TD*%
D37*
%TO.P,R10,1*%
%TO.N,3V3*%
X7071516Y-14713958D03*
%TO.P,R10,2*%
%TO.N,Net-(POWER1-Pin_1)*%
X9996516Y-14713958D03*
%TD*%
D23*
%TO.P,D4,1,K*%
%TO.N,Net-(D4-K)*%
X54533116Y-9693158D03*
%TO.P,D4,2,A*%
%TO.N,Net-(AC24-IN1-Pin_1)*%
X54533116Y-13993158D03*
%TD*%
D38*
%TO.P,C6,1*%
%TO.N,Net-(POWER1-Pin_2)*%
X57185616Y-2105858D03*
D39*
%TO.P,C6,2*%
%TO.N,GRD*%
X57185616Y2894142D03*
%TD*%
D24*
%TO.P,,1*%
%TO.N,Net-(SENSOR1-Pin_1)*%
X110526924Y8690840D03*
%TD*%
D40*
%TO.P,U3,1,GND*%
%TO.N,GRD*%
X40461816Y-17532158D03*
%TO.P,U3,2,VO*%
%TO.N,3V3*%
X38161816Y-17532158D03*
D41*
X38161816Y-23832158D03*
D40*
%TO.P,U3,3,VI*%
%TO.N,Net-(POWER1-Pin_2)*%
X35861816Y-17532158D03*
%TD*%
D17*
%TO.P,R9,1*%
%TO.N,GRD*%
X22786868Y13298827D03*
%TO.P,R9,2*%
%TO.N,Net-(D1-K)*%
X22786868Y12658827D03*
%TD*%
D21*
%TO.P,C3,1*%
%TO.N,3V3*%
X38934916Y-7835058D03*
%TO.P,C3,2*%
%TO.N,GRD*%
X38934916Y-5935058D03*
%TD*%
D25*
%TO.P,PROG1,1,Pin_1*%
%TO.N,Net-(PROG1-Pin_1)*%
X13819816Y-23296758D03*
D14*
%TO.P,PROG1,2,Pin_2*%
%TO.N,Net-(PROG1-Pin_2)*%
X11819816Y-23296758D03*
%TO.P,PROG1,3,Pin_3*%
%TO.N,Net-(PROG1-Pin_3)*%
X9819816Y-23296758D03*
%TO.P,PROG1,4,Pin_4*%
%TO.N,Net-(POWER1-Pin_1)*%
X7819816Y-23296758D03*
%TD*%
D42*
%TO.P,C8,1*%
%TO.N,GRD*%
X28393716Y-4470258D03*
%TO.P,C8,2*%
%TO.N,Net-(D5-K)*%
X29353716Y-4470258D03*
%TD*%
D38*
%TO.P,C5,1*%
%TO.N,Net-(D4-K)*%
X45986316Y-13333258D03*
D39*
%TO.P,C5,2*%
%TO.N,GRD*%
X45986316Y-8333258D03*
%TD*%
D19*
%TO.P,C4,1*%
%TO.N,3V3*%
X36903616Y-7660058D03*
%TO.P,C4,2*%
%TO.N,GRD*%
X36903616Y-6110058D03*
%TD*%
D43*
%TO.P,D1,1,K*%
%TO.N,Net-(D1-K)*%
X113523362Y60890421D03*
%TO.P,D1,2,A*%
%TO.N,Net-(D1-A)*%
X113523362Y62465421D03*
%TD*%
D44*
%TO.P,D12,1,K*%
%TO.N,Net-(D12-K)*%
X59851000Y63598500D03*
%TO.P,D12,2,A*%
%TO.N,Net-(D12-A)*%
X63151000Y63598500D03*
%TD*%
D45*
%TO.P,D2,1,K*%
%TO.N,Net-(D2-K)*%
X116201485Y60547225D03*
%TO.P,D2,2,A*%
%TO.N,Net-(D2-A)*%
X116201485Y62422225D03*
%TD*%
D46*
%TO.P,R11,1*%
%TO.N,Net-(LED1-Pin_1)*%
X102324000Y89138600D03*
%TO.P,R11,2*%
%TO.N,Net-(U2-IO13)*%
X102964000Y89138600D03*
%TD*%
D28*
%TO.P,K4,1*%
%TO.N,Net-(AC24-IN1-Pin_1)*%
X67056000Y60636000D03*
D47*
%TO.P,K4,2*%
%TO.N,Net-(D12-A)*%
X61006000Y58686000D03*
D28*
%TO.P,K4,3*%
%TO.N,Net-(J4-Pin_1)*%
X61006000Y46486000D03*
%TO.P,K4,4*%
%TO.N,unconnected-(K4-Pad4)*%
X73056000Y46436000D03*
D47*
%TO.P,K4,5*%
%TO.N,5V*%
X73006000Y58686000D03*
%TD*%
D28*
%TO.P,K2,1*%
%TO.N,Net-(AC24-IN1-Pin_1)*%
X33782000Y60636000D03*
D47*
%TO.P,K2,2*%
%TO.N,Net-(D10-A)*%
X27732000Y58686000D03*
D28*
%TO.P,K2,3*%
%TO.N,Net-(J2-Pin_1)*%
X27732000Y46486000D03*
%TO.P,K2,4*%
%TO.N,unconnected-(K2-Pad4)*%
X39782000Y46436000D03*
D47*
%TO.P,K2,5*%
%TO.N,5V*%
X39732000Y58686000D03*
%TD*%
D19*
%TO.P,C4,1*%
%TO.N,3V3*%
X95300000Y37688900D03*
%TO.P,C4,2*%
%TO.N,GRD*%
X95300000Y39238900D03*
%TD*%
D27*
%TO.P,AC24-IN1,1,Pin_1*%
%TO.N,Net-(AC24-IN1-Pin_1)*%
X11360000Y25646000D03*
D28*
%TO.P,AC24-IN1,2,Pin_2*%
%TO.N,Net-(AC24-IN1-Pin_2)*%
X15240000Y25646000D03*
%TD*%
D21*
%TO.P,C3,1*%
%TO.N,3V3*%
X92760000Y36858600D03*
%TO.P,C3,2*%
%TO.N,GRD*%
X92760000Y38758600D03*
%TD*%
D15*
%TO.P,RV1,1,1*%
%TO.N,GRD*%
X102870000Y35560000D03*
%TO.P,RV1,2,2*%
%TO.N,Net-(SENSOR1-Pin_1)*%
X105410000Y38100000D03*
%TO.P,RV1,3,3*%
%TO.N,unconnected-(RV1-Pad3)*%
X107950000Y35560000D03*
%TD*%
D48*
%TO.P,R3,1*%
%TO.N,Net-(Q3-G)*%
X55192500Y68454400D03*
%TO.P,R3,2*%
%TO.N,GRD*%
X55192500Y71379400D03*
%TD*%
D49*
%TO.P,LED1,1,Pin_1*%
%TO.N,Net-(LED1-Pin_1)*%
X98060000Y89630000D03*
D50*
%TO.P,LED1,2,Pin_2*%
%TO.N,Net-(LED1-Pin_2)*%
X98060000Y87630000D03*
%TO.P,LED1,3,Pin_3*%
%TO.N,Net-(LED1-Pin_3)*%
X98060000Y85630000D03*
%TO.P,LED1,4,Pin_4*%
%TO.N,GRD*%
X98060000Y83630000D03*
%TD*%
D45*
%TO.P,D3,1,K*%
%TO.N,Net-(D3-K)*%
X119419856Y60550501D03*
%TO.P,D3,2,A*%
%TO.N,Net-(D3-A)*%
X119419856Y62425501D03*
%TD*%
D51*
%TO.P,U3,1,GND*%
%TO.N,GRD*%
X83870000Y37860000D03*
%TO.P,U3,2,VO*%
%TO.N,3V3*%
X83870000Y35560000D03*
D52*
X90170000Y35560000D03*
D51*
%TO.P,U3,3,VI*%
%TO.N,5V*%
X83870000Y33260000D03*
%TD*%
D27*
%TO.P,J4,1,Pin_1*%
%TO.N,Net-(J4-Pin_1)*%
X107163000Y25400000D03*
D28*
%TO.P,J4,2,Pin_2*%
%TO.N,Net-(AC24-IN1-Pin_2)*%
X111043000Y25400000D03*
%TD*%
D44*
%TO.P,D9,1,K*%
%TO.N,Net-(D9-K)*%
X43214000Y63598500D03*
%TO.P,D9,2,A*%
%TO.N,Net-(D9-A)*%
X46514000Y63598500D03*
%TD*%
D28*
%TO.P,K5,1*%
%TO.N,Net-(AC24-IN1-Pin_1)*%
X83693000Y60636000D03*
D47*
%TO.P,K5,2*%
%TO.N,Net-(D13-A)*%
X77643000Y58686000D03*
D28*
%TO.P,K5,3*%
%TO.N,Net-(J5-Pin_1)*%
X77643000Y46486000D03*
%TO.P,K5,4*%
%TO.N,unconnected-(K5-Pad4)*%
X89693000Y46436000D03*
D47*
%TO.P,K5,5*%
%TO.N,5V*%
X89643000Y58686000D03*
%TD*%
D38*
%TO.P,C5,1*%
%TO.N,Net-(D4-K)*%
X25400000Y27767700D03*
D39*
%TO.P,C5,2*%
%TO.N,GRD*%
X25400000Y22767700D03*
%TD*%
D48*
%TO.P,R10,1*%
%TO.N,3V3*%
X118815600Y87773300D03*
%TO.P,R10,2*%
%TO.N,Net-(POWER1-Pin_1)*%
X118815600Y90698300D03*
%TD*%
D44*
%TO.P,D14,1,K*%
%TO.N,Net-(D14-K)*%
X93125000Y63598500D03*
%TO.P,D14,2,A*%
%TO.N,Net-(D14-A)*%
X96425000Y63598500D03*
%TD*%
D53*
%TO.P,D6,1,K*%
%TO.N,Net-(AC24-IN1-Pin_1)*%
X10766600Y38640600D03*
%TO.P,D6,2,A*%
%TO.N,GRD*%
X15066600Y38640600D03*
%TD*%
D38*
%TO.P,C6,1*%
%TO.N,5V*%
X38100000Y33100000D03*
D39*
%TO.P,C6,2*%
%TO.N,GRD*%
X38100000Y38100000D03*
%TD*%
D28*
%TO.P,K1,1*%
%TO.N,Net-(AC24-IN1-Pin_1)*%
X17145000Y60636000D03*
D47*
%TO.P,K1,2*%
%TO.N,Net-(D11-A)*%
X11095000Y58686000D03*
D28*
%TO.P,K1,3*%
%TO.N,Net-(J1-Pin_1)*%
X11095000Y46486000D03*
%TO.P,K1,4*%
%TO.N,unconnected-(K1-Pad4)*%
X23145000Y46436000D03*
D47*
%TO.P,K1,5*%
%TO.N,5V*%
X23095000Y58686000D03*
%TD*%
D10*
%TO.P,U1,1,VIN*%
%TO.N,Net-(D4-K)*%
X48435000Y26525000D03*
%TO.P,U1,2,OUT*%
%TO.N,Net-(D5-K)*%
X50135000Y26525000D03*
%TO.P,U1,3,GND*%
%TO.N,GRD*%
X51835000Y26525000D03*
D11*
X49060000Y33250000D03*
X54610000Y33250000D03*
D12*
X51835000Y35675000D03*
D11*
X49060000Y38100000D03*
X54610000Y38100000D03*
D10*
%TO.P,U1,4,FB*%
%TO.N,5V*%
X53535000Y26525000D03*
%TO.P,U1,5,~{ON}/OFF*%
%TO.N,GRD*%
X55235000Y26525000D03*
%TD*%
D54*
%TO.P,Q1,1,G*%
%TO.N,Net-(Q1-G)*%
X18945000Y66413300D03*
D55*
%TO.P,Q1,2,D*%
%TO.N,Net-(D11-K)*%
X12645000Y68693300D03*
D54*
%TO.P,Q1,3,S*%
%TO.N,GRD*%
X18945000Y70973300D03*
%TD*%
D29*
%TO.P,L1,1,1*%
%TO.N,Net-(D5-K)*%
X66063300Y28747600D03*
%TO.P,L1,2,2*%
%TO.N,5V*%
X66063300Y38647600D03*
%TD*%
D54*
%TO.P,Q2,1,G*%
%TO.N,Net-(Q2-G)*%
X35575900Y66413300D03*
D55*
%TO.P,Q2,2,D*%
%TO.N,Net-(D10-K)*%
X29275900Y68693300D03*
D54*
%TO.P,Q2,3,S*%
%TO.N,GRD*%
X35575900Y70973300D03*
%TD*%
D56*
%TO.P,R9,1*%
%TO.N,GRD*%
X113991104Y59026939D03*
%TO.P,R9,2*%
%TO.N,Net-(D1-K)*%
X113991104Y59666939D03*
%TD*%
D27*
%TO.P,J5,1,Pin_1*%
%TO.N,Net-(J5-Pin_1)*%
X116770000Y25400000D03*
D28*
%TO.P,J5,2,Pin_2*%
%TO.N,Net-(AC24-IN1-Pin_2)*%
X120650000Y25400000D03*
%TD*%
D57*
%TO.P,D5,1,K*%
%TO.N,Net-(D5-K)*%
X40100000Y24130000D03*
%TO.P,D5,2,A*%
%TO.N,GRD*%
X36100000Y24130000D03*
%TD*%
D27*
%TO.P,SENSOR1,1,Pin_1*%
%TO.N,Net-(SENSOR1-Pin_1)*%
X127691800Y32868900D03*
D28*
%TO.P,SENSOR1,2,Pin_2*%
%TO.N,3V3*%
X127691800Y36748900D03*
%TD*%
D54*
%TO.P,Q5,1,G*%
%TO.N,Net-(Q5-G)*%
X85703200Y66413300D03*
D55*
%TO.P,Q5,2,D*%
%TO.N,Net-(D13-K)*%
X79403200Y68693300D03*
D54*
%TO.P,Q5,3,S*%
%TO.N,GRD*%
X85703200Y70973300D03*
%TD*%
%TO.P,Q4,1,G*%
%TO.N,Net-(Q4-G)*%
X68994100Y66413300D03*
D55*
%TO.P,Q4,2,D*%
%TO.N,Net-(D12-K)*%
X62694100Y68693300D03*
D54*
%TO.P,Q4,3,S*%
%TO.N,GRD*%
X68994100Y70973300D03*
%TD*%
D48*
%TO.P,R5,1*%
%TO.N,Net-(Q5-G)*%
X88540600Y68454400D03*
%TO.P,R5,2*%
%TO.N,GRD*%
X88540600Y71379400D03*
%TD*%
D44*
%TO.P,D13,1,K*%
%TO.N,Net-(D13-K)*%
X76488000Y63598500D03*
%TO.P,D13,2,A*%
%TO.N,Net-(D13-A)*%
X79788000Y63598500D03*
%TD*%
%TO.P,D10,1,K*%
%TO.N,Net-(D10-K)*%
X26577000Y63598500D03*
%TO.P,D10,2,A*%
%TO.N,Net-(D10-A)*%
X29877000Y63598500D03*
%TD*%
D54*
%TO.P,Q6,1,G*%
%TO.N,Net-(Q6-G)*%
X102081100Y66413300D03*
D55*
%TO.P,Q6,2,D*%
%TO.N,Net-(D14-K)*%
X95781100Y68693300D03*
D54*
%TO.P,Q6,3,S*%
%TO.N,GRD*%
X102081100Y70973300D03*
%TD*%
D13*
%TO.P,POWER1,1,Pin_1*%
%TO.N,Net-(POWER1-Pin_1)*%
X114904429Y43687015D03*
D14*
%TO.P,POWER1,2,Pin_2*%
%TO.N,5V*%
X116904429Y43687015D03*
%TO.P,POWER1,3,Pin_3*%
%TO.N,3V3*%
X118904429Y43687015D03*
%TO.P,POWER1,4,Pin_4*%
%TO.N,GRD*%
X120904429Y43687015D03*
%TD*%
D44*
%TO.P,D11,1,K*%
%TO.N,Net-(D11-K)*%
X9895000Y63598500D03*
%TO.P,D11,2,A*%
%TO.N,Net-(D11-A)*%
X13195000Y63598500D03*
%TD*%
D20*
%TO.P,D8,1,K*%
%TO.N,Net-(AC24-IN1-Pin_2)*%
X27940000Y34680000D03*
%TO.P,D8,2,A*%
%TO.N,GRD*%
X27940000Y38980000D03*
%TD*%
D21*
%TO.P,C1,1*%
%TO.N,5V*%
X78776900Y37111800D03*
%TO.P,C1,2*%
%TO.N,GRD*%
X78776900Y39011800D03*
%TD*%
D58*
%TO.P,C8,1*%
%TO.N,GRD*%
X55237900Y23348400D03*
%TO.P,C8,2*%
%TO.N,Net-(D5-K)*%
X55237900Y22388400D03*
%TD*%
D32*
%TO.P,U2,1,GND*%
%TO.N,GRD*%
X129515000Y83036000D03*
%TO.P,U2,2,VDD*%
%TO.N,3V3*%
X128245000Y83036000D03*
%TO.P,U2,3,EN*%
%TO.N,Net-(POWER1-Pin_1)*%
X126975000Y83036000D03*
%TO.P,U2,4,SENSOR_VP*%
%TO.N,unconnected-(U2-SENSOR_VP-Pad4)*%
X125705000Y83036000D03*
%TO.P,U2,5,SENSOR_VN*%
%TO.N,unconnected-(U2-SENSOR_VN-Pad5)*%
X124435000Y83036000D03*
%TO.P,U2,6,IO34*%
%TO.N,Net-(SENSOR1-Pin_1)*%
X123165000Y83036000D03*
%TO.P,U2,7,IO35*%
%TO.N,Net-(EXT1-Pin_1)*%
X121895000Y83036000D03*
%TO.P,U2,8,IO32*%
%TO.N,Net-(EXT1-Pin_2)*%
X120625000Y83036000D03*
%TO.P,U2,9,IO33*%
%TO.N,unconnected-(U2-IO33-Pad9)*%
X119355000Y83036000D03*
%TO.P,U2,10,IO25*%
%TO.N,Net-(Q2-G)*%
X118085000Y83036000D03*
%TO.P,U2,11,IO26*%
%TO.N,Net-(Q3-G)*%
X116815000Y83036000D03*
%TO.P,U2,12,IO27*%
%TO.N,Net-(Q4-G)*%
X115545000Y83036000D03*
%TO.P,U2,13,IO14*%
%TO.N,Net-(Q5-G)*%
X114275000Y83036000D03*
%TO.P,U2,14,IO12*%
%TO.N,Net-(Q6-G)*%
X113005000Y83036000D03*
D33*
%TO.P,U2,15,GND*%
%TO.N,GRD*%
X111910000Y80001000D03*
%TO.P,U2,16,IO13*%
%TO.N,Net-(U2-IO13)*%
X111910000Y78731000D03*
%TO.P,U2,17,SHD/SD2*%
%TO.N,unconnected-(U2-SHD{slash}SD2-Pad17)*%
X111910000Y77461000D03*
%TO.P,U2,18,SWP/SD3*%
%TO.N,unconnected-(U2-SWP{slash}SD3-Pad18)*%
X111910000Y76191000D03*
%TO.P,U2,19,SCS/CMD*%
%TO.N,unconnected-(U2-SCS{slash}CMD-Pad19)*%
X111910000Y74921000D03*
%TO.P,U2,20,SCK/CLK*%
%TO.N,unconnected-(U2-SCK{slash}CLK-Pad20)*%
X111910000Y73651000D03*
%TO.P,U2,21,SDO/SD0*%
%TO.N,unconnected-(U2-SDO{slash}SD0-Pad21)*%
X111910000Y72381000D03*
%TO.P,U2,22,SDI/SD1*%
%TO.N,unconnected-(U2-SDI{slash}SD1-Pad22)*%
X111910000Y71111000D03*
%TO.P,U2,23,IO15*%
%TO.N,Net-(D1-A)*%
X111910000Y69841000D03*
%TO.P,U2,24,IO2*%
%TO.N,unconnected-(U2-IO2-Pad24)*%
X111910000Y68571000D03*
D32*
%TO.P,U2,25,IO0*%
%TO.N,Net-(PROG1-Pin_1)*%
X113005000Y65536000D03*
%TO.P,U2,26,IO4*%
%TO.N,Net-(U2-IO4)*%
X114275000Y65536000D03*
%TO.P,U2,27,IO16*%
%TO.N,Net-(D2-A)*%
X115545000Y65536000D03*
%TO.P,U2,28,IO17*%
%TO.N,Net-(D3-A)*%
X116815000Y65536000D03*
%TO.P,U2,29,IO5*%
%TO.N,Net-(U2-IO5)*%
X118085000Y65536000D03*
%TO.P,U2,30,IO18*%
%TO.N,unconnected-(U2-IO18-Pad30)*%
X119355000Y65536000D03*
%TO.P,U2,31,IO19*%
%TO.N,unconnected-(U2-IO19-Pad31)*%
X120625000Y65536000D03*
%TO.P,U2,32,NC*%
%TO.N,unconnected-(U2-NC-Pad32)*%
X121895000Y65536000D03*
%TO.P,U2,33,IO21*%
%TO.N,Net-(Q1-G)*%
X123165000Y65536000D03*
%TO.P,U2,34,RXD0/IO3*%
%TO.N,Net-(PROG1-Pin_2)*%
X124435000Y65536000D03*
%TO.P,U2,35,TXD0/IO1*%
%TO.N,Net-(PROG1-Pin_3)*%
X125705000Y65536000D03*
%TO.P,U2,36,IO22*%
%TO.N,Net-(EXT1-Pin_3)*%
X126975000Y65536000D03*
%TO.P,U2,37,IO23*%
%TO.N,Net-(EXT1-Pin_4)*%
X128245000Y65536000D03*
%TO.P,U2,38,GND*%
%TO.N,GRD*%
X129515000Y65536000D03*
D34*
%TO.P,U2,39,GND*%
X123350000Y77186000D03*
D35*
X122650000Y77186000D03*
D34*
X121950000Y77186000D03*
D35*
X121250000Y77186000D03*
D34*
X120550000Y77186000D03*
D35*
X123350000Y76486000D03*
X121950000Y76486000D03*
X120550000Y76486000D03*
D34*
X123350000Y75786000D03*
D35*
X122650000Y75786000D03*
D34*
X121950000Y75786000D03*
D36*
X121950000Y75786000D03*
D35*
X121250000Y75786000D03*
D34*
X120550000Y75786000D03*
D35*
X123350000Y75086000D03*
X121950000Y75086000D03*
X120550000Y75086000D03*
D34*
X123350000Y74386000D03*
D35*
X122650000Y74386000D03*
D34*
X121950000Y74386000D03*
D35*
X121250000Y74386000D03*
D34*
X120550000Y74386000D03*
%TD*%
D27*
%TO.P,J2,1,Pin_1*%
%TO.N,Net-(J2-Pin_1)*%
X87949000Y25400000D03*
D28*
%TO.P,J2,2,Pin_2*%
%TO.N,Net-(AC24-IN1-Pin_2)*%
X91829000Y25400000D03*
%TD*%
D13*
%TO.P,EXT1,1,Pin_1*%
%TO.N,Net-(EXT1-Pin_1)*%
X92710000Y77470000D03*
D14*
%TO.P,EXT1,2,Pin_2*%
%TO.N,Net-(EXT1-Pin_2)*%
X94710000Y77470000D03*
%TO.P,EXT1,3,Pin_3*%
%TO.N,Net-(EXT1-Pin_3)*%
X96710000Y77470000D03*
%TO.P,EXT1,4,Pin_4*%
%TO.N,Net-(EXT1-Pin_4)*%
X98710000Y77470000D03*
%TD*%
D13*
%TO.P,PROG1,1,Pin_1*%
%TO.N,Net-(PROG1-Pin_1)*%
X120850130Y52070001D03*
D14*
%TO.P,PROG1,2,Pin_2*%
%TO.N,Net-(PROG1-Pin_2)*%
X122850130Y52070001D03*
%TO.P,PROG1,3,Pin_3*%
%TO.N,Net-(PROG1-Pin_3)*%
X124850130Y52070001D03*
%TO.P,PROG1,4,Pin_4*%
%TO.N,Net-(POWER1-Pin_1)*%
X126850130Y52070001D03*
%TD*%
D48*
%TO.P,R2,1*%
%TO.N,Net-(Q2-G)*%
X38518400Y68454400D03*
%TO.P,R2,2*%
%TO.N,GRD*%
X38518400Y71379400D03*
%TD*%
D56*
%TO.P,R7,1*%
%TO.N,GRD*%
X119404543Y58354706D03*
%TO.P,R7,2*%
%TO.N,Net-(D3-K)*%
X119404543Y58994706D03*
%TD*%
D19*
%TO.P,C2,1*%
%TO.N,5V*%
X80685300Y36549700D03*
%TO.P,C2,2*%
%TO.N,GRD*%
X80685300Y38099700D03*
%TD*%
D48*
%TO.P,R4,1*%
%TO.N,Net-(Q4-G)*%
X71866600Y68454400D03*
%TO.P,R4,2*%
%TO.N,GRD*%
X71866600Y71379400D03*
%TD*%
D58*
%TO.P,C7,1*%
%TO.N,GRD*%
X45303600Y29459400D03*
%TO.P,C7,2*%
%TO.N,Net-(D4-K)*%
X45303600Y28499400D03*
%TD*%
D28*
%TO.P,K3,1*%
%TO.N,Net-(AC24-IN1-Pin_1)*%
X50419000Y60636000D03*
D47*
%TO.P,K3,2*%
%TO.N,Net-(D9-A)*%
X44369000Y58686000D03*
D28*
%TO.P,K3,3*%
%TO.N,Net-(J3-Pin_1)*%
X44369000Y46486000D03*
%TO.P,K3,4*%
%TO.N,unconnected-(K3-Pad4)*%
X56419000Y46436000D03*
D47*
%TO.P,K3,5*%
%TO.N,5V*%
X56369000Y58686000D03*
%TD*%
D56*
%TO.P,R8,1*%
%TO.N,GRD*%
X116199527Y58406240D03*
%TO.P,R8,2*%
%TO.N,Net-(D2-K)*%
X116199527Y59046240D03*
%TD*%
D27*
%TO.P,J3,1,Pin_1*%
%TO.N,Net-(J3-Pin_1)*%
X97556000Y25400000D03*
D28*
%TO.P,J3,2,Pin_2*%
%TO.N,Net-(AC24-IN1-Pin_2)*%
X101436000Y25400000D03*
%TD*%
D48*
%TO.P,R6,1*%
%TO.N,Net-(Q6-G)*%
X105214700Y68454400D03*
%TO.P,R6,2*%
%TO.N,GRD*%
X105214700Y71379400D03*
%TD*%
D46*
%TO.P,R13,1*%
%TO.N,Net-(LED1-Pin_3)*%
X102324000Y85638600D03*
%TO.P,R13,2*%
%TO.N,Net-(U2-IO4)*%
X102964000Y85638600D03*
%TD*%
D48*
%TO.P,R1,1*%
%TO.N,Net-(Q1-G)*%
X21844400Y68454400D03*
%TO.P,R1,2*%
%TO.N,GRD*%
X21844400Y71379400D03*
%TD*%
D59*
%TO.P,D4,1,K*%
%TO.N,Net-(D4-K)*%
X15060600Y33877500D03*
%TO.P,D4,2,A*%
%TO.N,Net-(AC24-IN1-Pin_1)*%
X10760600Y33877500D03*
%TD*%
D23*
%TO.P,D7,1,K*%
%TO.N,Net-(D4-K)*%
X21590000Y38980000D03*
%TO.P,D7,2,A*%
%TO.N,Net-(AC24-IN1-Pin_2)*%
X21590000Y34680000D03*
%TD*%
D54*
%TO.P,Q3,1,G*%
%TO.N,Net-(Q3-G)*%
X52285000Y66413300D03*
D55*
%TO.P,Q3,2,D*%
%TO.N,Net-(D9-K)*%
X45985000Y68693300D03*
D54*
%TO.P,Q3,3,S*%
%TO.N,GRD*%
X52285000Y70973300D03*
%TD*%
D27*
%TO.P,J6,1,Pin_1*%
%TO.N,Net-(J6-Pin_1)*%
X126377000Y25400000D03*
D28*
%TO.P,J6,2,Pin_2*%
%TO.N,Net-(AC24-IN1-Pin_2)*%
X130257000Y25400000D03*
%TD*%
D27*
%TO.P,J1,1,Pin_1*%
%TO.N,Net-(J1-Pin_1)*%
X78342000Y25400000D03*
D28*
%TO.P,J1,2,Pin_2*%
%TO.N,Net-(AC24-IN1-Pin_2)*%
X82222000Y25400000D03*
%TD*%
D46*
%TO.P,R12,1*%
%TO.N,Net-(LED1-Pin_2)*%
X102324000Y87388600D03*
%TO.P,R12,2*%
%TO.N,Net-(U2-IO5)*%
X102964000Y87388600D03*
%TD*%
D60*
%TO.P,RST_SW1,1,A*%
%TO.N,Net-(POWER1-Pin_1)*%
X121355600Y90495800D03*
X127655600Y90495800D03*
%TO.P,RST_SW1,2,B*%
%TO.N,GRD*%
X121355600Y86695800D03*
X127655600Y86695800D03*
%TD*%
D28*
%TO.P,K6,1*%
%TO.N,Net-(AC24-IN1-Pin_1)*%
X100330000Y60636000D03*
D47*
%TO.P,K6,2*%
%TO.N,Net-(D14-A)*%
X94280000Y58686000D03*
D28*
%TO.P,K6,3*%
%TO.N,Net-(J6-Pin_1)*%
X94280000Y46486000D03*
%TO.P,K6,4*%
%TO.N,unconnected-(K6-Pad4)*%
X106330000Y46436000D03*
D47*
%TO.P,K6,5*%
%TO.N,5V*%
X106280000Y58686000D03*
%TD*%
D61*
%TO.N,Net-(SENSOR1-Pin_1)*%
X124318206Y-32919476D03*
X98918206Y-32919476D03*
X20036963Y-47652674D03*
%TO.N,3V3*%
X109078206Y-61951375D03*
%TO.N,Net-(EXT1-Pin_1)*%
X15818363Y-48701474D03*
%TO.N,Net-(SENSOR1-Pin_1)*%
X114158206Y-32919476D03*
X129398206Y-32919476D03*
%TO.N,3V3*%
X124318206Y-61951375D03*
X73667963Y-62011774D03*
%TO.N,Net-(SENSOR1-Pin_1)*%
X109078206Y-32919476D03*
%TO.N,Net-(EXT1-Pin_2)*%
X15012863Y-50341974D03*
%TO.N,Net-(SENSOR1-Pin_1)*%
X93838206Y-32919476D03*
%TO.N,GRD*%
X39152467Y-43575979D03*
%TO.N,3V3*%
X38197163Y-50962774D03*
%TO.N,Net-(D4-K)*%
X26864863Y-46964274D03*
%TO.N,3V3*%
X103998206Y-61951375D03*
%TO.N,Net-(SENSOR1-Pin_1)*%
X103998206Y-32919476D03*
%TO.N,Net-(U2-IO4)*%
X29260963Y-59576774D03*
%TO.N,GRD*%
X40645722Y-46132583D03*
%TO.N,3V3*%
X93838206Y-61951375D03*
X119238206Y-61951375D03*
X114158206Y-61951375D03*
%TO.N,Net-(SENSOR1-Pin_1)*%
X119238206Y-32919476D03*
%TO.N,Net-(U2-IO4)*%
X21329763Y-35589774D03*
%TO.N,Net-(PROG1-Pin_2)*%
X11202863Y-35591874D03*
%TO.N,3V3*%
X129398206Y-61951375D03*
%TO.N,Net-(PROG1-Pin_3)*%
X9932863Y-35581674D03*
%TO.N,Net-(PROG1-Pin_1)*%
X17819363Y-39933974D03*
%TO.N,3V3*%
X98918206Y-61951375D03*
%TO.N,Net-(SENSOR1-Pin_1)*%
X124312659Y8690840D03*
X98912659Y8690840D03*
X20031416Y-6042358D03*
%TO.N,3V3*%
X109072659Y-20341059D03*
%TO.N,Net-(EXT1-Pin_1)*%
X15812816Y-7091158D03*
%TO.N,Net-(SENSOR1-Pin_1)*%
X114152659Y8690840D03*
X129392659Y8690840D03*
%TO.N,3V3*%
X124312659Y-20341059D03*
X73662416Y-20401458D03*
%TO.N,Net-(SENSOR1-Pin_1)*%
X109072659Y8690840D03*
%TO.N,Net-(EXT1-Pin_2)*%
X15007316Y-8731658D03*
%TO.N,Net-(SENSOR1-Pin_1)*%
X93832659Y8690840D03*
%TO.N,GRD*%
X39146920Y-1965663D03*
%TO.N,3V3*%
X38191616Y-9352458D03*
%TO.N,Net-(D4-K)*%
X26859316Y-5353958D03*
%TO.N,3V3*%
X103992659Y-20341059D03*
%TO.N,Net-(SENSOR1-Pin_1)*%
X103992659Y8690840D03*
%TO.N,Net-(U2-IO4)*%
X29255416Y-17966458D03*
%TO.N,GRD*%
X40640175Y-4522267D03*
%TO.N,3V3*%
X93832659Y-20341059D03*
X119232659Y-20341059D03*
X114152659Y-20341059D03*
%TO.N,Net-(SENSOR1-Pin_1)*%
X119232659Y8690840D03*
%TO.N,Net-(U2-IO4)*%
X21324216Y6020542D03*
%TO.N,Net-(PROG1-Pin_2)*%
X11197316Y6018442D03*
%TO.N,3V3*%
X129392659Y-20341059D03*
%TO.N,Net-(PROG1-Pin_3)*%
X9927316Y6028642D03*
%TO.N,Net-(PROG1-Pin_1)*%
X17813816Y1676342D03*
%TO.N,3V3*%
X98912659Y-20341059D03*
%TO.N,GRD*%
X119633441Y57035742D03*
X112931805Y59012110D03*
X117229962Y59037618D03*
X74613149Y72171135D03*
X49693745Y72171135D03*
%TO.N,Net-(D10-A)*%
X32149605Y63295616D03*
D62*
%TO.N,3V3*%
X118795500Y79377900D03*
D61*
%TO.N,Net-(Q1-G)*%
X117546300Y64161400D03*
X25306100Y66075300D03*
%TO.N,Net-(U2-IO13)*%
X107002600Y82910500D03*
X110397900Y78726000D03*
%TO.N,Net-(U2-IO5)*%
X117424300Y66888000D03*
X106029300Y85666200D03*
%TO.N,Net-(U2-IO4)*%
X114549800Y66892700D03*
X104993300Y85638600D03*
%TO.N,Net-(SENSOR1-Pin_1)*%
X123114400Y81631500D03*
%TO.N,Net-(EXT1-Pin_1)*%
X109535100Y79347900D03*
%TO.N,Net-(EXT1-Pin_2)*%
X108792900Y78612500D03*
%TO.N,Net-(EXT1-Pin_3)*%
X112962800Y67674900D03*
%TO.N,Net-(EXT1-Pin_4)*%
X113104900Y68797100D03*
%TD*%
D63*
%TO.N,GRD*%
X29595563Y-47720374D02*
X28399263Y-46524074D01*
%TO.N,Net-(U2-IO4)*%
X21362863Y-35556674D02*
X21329763Y-35589774D01*
%TO.N,Net-(AC24-IN1-Pin_1)*%
X58032163Y-55648974D02*
X59387563Y-55648974D01*
%TO.N,Net-(U2-IO5)*%
X20763963Y-48036374D02*
X23461463Y-50733874D01*
X26081463Y-64562074D02*
X26493363Y-64150174D01*
X23461463Y-50733874D02*
X23461463Y-63135374D01*
%TO.N,GRD*%
X27082563Y-46080574D02*
X27046463Y-46044474D01*
X25475263Y-41498774D02*
X25475263Y-46603774D01*
%TO.N,Net-(U2-IO5)*%
X17552863Y-34205474D02*
X17552863Y-38461074D01*
X17030063Y-38983874D02*
X17030063Y-41633174D01*
%TO.N,Net-(U2-IO4)*%
X29260963Y-60351874D02*
X29212363Y-60400474D01*
%TO.N,GRD*%
X35473063Y-42984074D02*
X35473063Y-41490774D01*
%TO.N,Net-(D4-K)*%
X26086463Y-46185874D02*
X26086463Y-46044474D01*
%TO.N,GRD*%
X22792415Y-28311489D02*
X28114516Y-28311489D01*
%TO.N,Net-(D4-K)*%
X26864863Y-46964274D02*
X26086463Y-46185874D01*
%TO.N,Net-(D3-K)*%
X18279498Y-30093792D02*
X18364254Y-30178548D01*
%TO.N,GRD*%
X32073063Y-42959674D02*
X33252063Y-44138674D01*
X38940463Y-47545374D02*
X39270363Y-47545374D01*
%TO.N,Net-(D4-K)*%
X26086463Y-44077374D02*
X28673063Y-41490774D01*
X50898563Y-54943574D02*
X54538663Y-51303474D01*
%TO.N,Net-(EXT1-Pin_3)*%
X8662863Y-34205474D02*
X8662863Y-33128574D01*
%TO.N,Net-(AC24-IN1-Pin_1)*%
X56485164Y-64162292D02*
X59387563Y-61259893D01*
%TO.N,Net-(POWER1-Pin_1)*%
X7825363Y-64907074D02*
X8752263Y-64907074D01*
%TO.N,Net-(D5-K)*%
X44850063Y-39335974D02*
X44850063Y-41112874D01*
%TO.N,Net-(D1-A)*%
X24797863Y-38185474D02*
X24797863Y-33902736D01*
%TO.N,Net-(D5-K)*%
X30530163Y-44909674D02*
X29359263Y-46080574D01*
X30530163Y-41647874D02*
X30373063Y-41490774D01*
X30530163Y-44909674D02*
X44249763Y-44909674D01*
%TO.N,Net-(D3-K)*%
X18279498Y-28734084D02*
X18279498Y-30093792D01*
%TO.N,Net-(D1-K)*%
X22798675Y-28957749D02*
X22792415Y-28951489D01*
%TO.N,Net-(SENSOR1-Pin_1)*%
X12472863Y-50628574D02*
X15448763Y-47652674D01*
%TO.N,3V3*%
X7392863Y-52782374D02*
X7077063Y-53098174D01*
%TO.N,Net-(LED1-Pin_2)*%
X27492863Y-60484674D02*
X27492863Y-63357874D01*
%TO.N,Net-(POWER1-Pin_1)*%
X13361563Y-59683774D02*
X10002063Y-56324274D01*
%TO.N,Net-(D5-K)*%
X30530163Y-44909674D02*
X30530163Y-41647874D01*
%TO.N,3V3*%
X7392863Y-52130474D02*
X7392863Y-51705474D01*
X9027963Y-67699074D02*
X33683863Y-67699074D01*
X38197163Y-50188674D02*
X38940463Y-49445374D01*
%TO.N,Net-(SENSOR1-Pin_1)*%
X93838206Y-32919476D02*
X92311104Y-31392374D01*
%TO.N,3V3*%
X7077063Y-56324274D02*
X6846763Y-56554574D01*
%TO.N,Net-(D3-A)*%
X18817863Y-32507157D02*
X18364254Y-32053548D01*
%TO.N,3V3*%
X6846763Y-65517874D02*
X9027963Y-67699074D01*
X37442363Y-65442474D02*
X35940463Y-65442474D01*
D64*
X92228064Y-61951375D02*
X73178064Y-61951375D01*
D63*
%TO.N,Net-(U2-IO13)*%
X24085163Y-50637374D02*
X22893263Y-49445474D01*
%TO.N,Net-(EXT1-Pin_1)*%
X13742863Y-51705474D02*
X13742863Y-50520474D01*
%TO.N,3V3*%
X33683863Y-67699074D02*
X35940463Y-65442474D01*
%TO.N,GRD*%
X25475263Y-46603774D02*
X26248363Y-47376874D01*
%TO.N,3V3*%
X7392863Y-52130474D02*
X7392863Y-52782374D01*
%TO.N,GRD*%
X13855363Y-45142974D02*
X13842863Y-45155474D01*
X15242863Y-44455474D02*
X15217863Y-44480474D01*
%TO.N,3V3*%
X7077063Y-53098174D02*
X7077063Y-56324274D01*
%TO.N,Net-(D4-K)*%
X45991863Y-54943574D02*
X50136163Y-54943574D01*
%TO.N,3V3*%
X39585263Y-57724574D02*
X39585263Y-52350874D01*
X39585263Y-52350874D02*
X38197163Y-50962774D01*
X38167363Y-59142474D02*
X38167363Y-60469374D01*
X37442363Y-61194374D02*
X38167363Y-60469374D01*
X39244263Y-59142474D02*
X39244263Y-58065574D01*
X38167363Y-59142474D02*
X39244263Y-59142474D01*
%TO.N,GRD*%
X40467363Y-59142474D02*
X41544263Y-59142474D01*
X26576463Y-47704974D02*
X27218363Y-47704974D01*
X33117563Y-47545374D02*
X32942563Y-47720374D01*
%TO.N,3V3*%
X39244263Y-58065574D02*
X39585263Y-57724574D01*
%TO.N,GRD*%
X41668563Y-59018174D02*
X42746963Y-59018174D01*
X13842863Y-45155474D02*
X13842863Y-45855474D01*
X22595713Y-28114787D02*
X22792415Y-28311489D01*
X32073063Y-39917174D02*
X32073063Y-41490774D01*
X48391163Y-47544274D02*
X58563363Y-47544274D01*
X18279498Y-28094084D02*
X20821598Y-28094084D01*
X12442863Y-43055474D02*
X12442863Y-43755474D01*
X15242863Y-44505474D02*
X15217863Y-44480474D01*
%TO.N,Net-(D2-A)*%
X20087863Y-32774360D02*
X20087863Y-34205474D01*
%TO.N,GRD*%
X21758495Y-61262272D02*
X21758495Y-64843474D01*
%TO.N,Net-(POWER1-Pin_2)*%
X36132763Y-52664674D02*
X36132763Y-52460574D01*
%TO.N,GRD*%
X15217863Y-44480474D02*
X14542863Y-44480474D01*
X28399263Y-46080574D02*
X27082563Y-46080574D01*
X13842863Y-44455474D02*
X13842863Y-43755474D01*
X12442863Y-44455474D02*
X12455363Y-44467974D01*
X48391163Y-47544274D02*
X45991863Y-49943574D01*
X13855363Y-44480474D02*
X13855363Y-44467974D01*
%TO.N,3V3*%
X37442363Y-65442474D02*
X37442363Y-61194374D01*
%TO.N,GRD*%
X29510563Y-34978274D02*
X29510563Y-37463474D01*
%TO.N,Net-(EXT1-Pin_4)*%
X7392863Y-34205474D02*
X7392863Y-32137474D01*
%TO.N,Net-(D4-K)*%
X50136163Y-54943574D02*
X50898563Y-54943574D01*
%TO.N,GRD*%
X14542863Y-45855474D02*
X15242863Y-45855474D01*
X34318463Y-44138674D02*
X35473063Y-42984074D01*
%TO.N,Net-(LED1-Pin_1)*%
X24725163Y-60400474D02*
X25492863Y-61168174D01*
%TO.N,GRD*%
X33285563Y-33203274D02*
X33285563Y-32340774D01*
X21758495Y-64843474D02*
X23160163Y-64843474D01*
X30404563Y-47720374D02*
X29595563Y-47720374D01*
X26248363Y-47376874D02*
X24959763Y-48665474D01*
%TO.N,Net-(POWER1-Pin_2)*%
X39068963Y-54741874D02*
X35995263Y-57815574D01*
%TO.N,GRD*%
X26248363Y-47376874D02*
X26576463Y-47704974D01*
X59387563Y-48368474D02*
X59387563Y-51348974D01*
X30404563Y-53077174D02*
X31205863Y-53878474D01*
X32073063Y-32340774D02*
X31723063Y-32340774D01*
%TO.N,Net-(POWER1-Pin_1)*%
X34229763Y-62263674D02*
X34229763Y-57781474D01*
%TO.N,GRD*%
X13855363Y-44467974D02*
X13842863Y-44455474D01*
%TO.N,Net-(POWER1-Pin_2)*%
X33117563Y-49445374D02*
X32942563Y-49270374D01*
%TO.N,Net-(U2-IO5)*%
X26493363Y-60675774D02*
X26768663Y-60400474D01*
%TO.N,GRD*%
X41668563Y-59018174D02*
X41544263Y-59142474D01*
%TO.N,Net-(D4-K)*%
X50136163Y-54943574D02*
X50136163Y-60857374D01*
%TO.N,Net-(POWER1-Pin_2)*%
X44850063Y-31212874D02*
X44850063Y-37368574D01*
%TO.N,GRD*%
X12442863Y-42278574D02*
X6122863Y-35958574D01*
X6122863Y-35958574D02*
X6122863Y-30609874D01*
%TO.N,Net-(D2-K)*%
X20842301Y-30144922D02*
X20808675Y-30178548D01*
%TO.N,GRD*%
X40645722Y-46132583D02*
X40353254Y-46132583D01*
X23160163Y-64843474D02*
X23386163Y-65069474D01*
X40353254Y-46132583D02*
X38940463Y-47545374D01*
X41668563Y-49943574D02*
X45991863Y-49943574D01*
X15242863Y-45155474D02*
X15242863Y-44505474D01*
X28114516Y-28311489D02*
X28956875Y-29153848D01*
X29510563Y-37463474D02*
X25475263Y-41498774D01*
%TO.N,Net-(AC24-IN1-Pin_2)*%
X56485164Y-60282292D02*
X51610082Y-65157374D01*
%TO.N,Net-(U2-IO13)*%
X24085163Y-60400474D02*
X24085163Y-50637374D01*
%TO.N,GRD*%
X13842863Y-43055474D02*
X13142863Y-43055474D01*
X34848063Y-34765774D02*
X33285563Y-33203274D01*
X27218363Y-47704974D02*
X28399263Y-46524074D01*
%TO.N,Net-(POWER1-Pin_1)*%
X8662863Y-54985074D02*
X10002063Y-56324274D01*
%TO.N,Net-(D2-A)*%
X20808675Y-32053548D02*
X20087863Y-32774360D01*
%TO.N,GRD*%
X29619363Y-37463474D02*
X32073063Y-39917174D01*
X28938463Y-29556174D02*
X29298063Y-29915774D01*
%TO.N,Net-(LED1-Pin_3)*%
X29852363Y-60400474D02*
X29852363Y-61796474D01*
%TO.N,GRD*%
X31723063Y-32340774D02*
X29298063Y-34765774D01*
X12442863Y-43055474D02*
X12442863Y-42278574D01*
X29781263Y-65069474D02*
X31492863Y-63357874D01*
X37084163Y-47545374D02*
X38940463Y-47545374D01*
X48391163Y-45051074D02*
X48249763Y-44909674D01*
%TO.N,Net-(D1-A)*%
X24797863Y-33902736D02*
X22798675Y-31903548D01*
%TO.N,Net-(D3-A)*%
X18817863Y-34205474D02*
X18817863Y-32507157D01*
%TO.N,GRD*%
X33252063Y-44138674D02*
X34318463Y-44138674D01*
X8638653Y-28094084D02*
X18279498Y-28094084D01*
X13842863Y-45855474D02*
X13142863Y-45855474D01*
X35473063Y-41490774D02*
X37558268Y-43575979D01*
X32942563Y-47720374D02*
X31213563Y-47720374D01*
%TO.N,3V3*%
X6846763Y-56554574D02*
X6846763Y-65517874D01*
%TO.N,GRD*%
X28399263Y-46524074D02*
X28399263Y-46080574D01*
%TO.N,Net-(D5-K)*%
X44249763Y-44909674D02*
X44249763Y-41713174D01*
%TO.N,GRD*%
X29510563Y-37463474D02*
X29619363Y-37463474D01*
%TO.N,Net-(EXT1-Pin_4)*%
X7774663Y-30553774D02*
X7774663Y-31755674D01*
%TO.N,GRD*%
X58563363Y-47544274D02*
X58563363Y-40088374D01*
%TO.N,Net-(EXT1-Pin_3)*%
X8662863Y-33128574D02*
X8847763Y-32943674D01*
%TO.N,GRD*%
X32073063Y-41490774D02*
X32073063Y-42959674D01*
%TO.N,Net-(AC24-IN1-Pin_1)*%
X59387563Y-61259893D02*
X59387563Y-55648974D01*
%TO.N,GRD*%
X12455363Y-44480474D02*
X13142863Y-44480474D01*
X15242863Y-45855474D02*
X15242863Y-45155474D01*
X13855363Y-44480474D02*
X13855363Y-45142974D01*
X31213563Y-47720374D02*
X30404563Y-47720374D01*
%TO.N,Net-(EXT1-Pin_3)*%
X8847763Y-32943674D02*
X8847763Y-30553774D01*
%TO.N,GRD*%
X23386163Y-65069474D02*
X29781263Y-65069474D01*
%TO.N,Net-(POWER1-Pin_1)*%
X17869763Y-60897274D02*
X17869763Y-66020374D01*
%TO.N,GRD*%
X33285563Y-31478274D02*
X34848063Y-29915774D01*
%TO.N,Net-(U2-IO13)*%
X22647863Y-48085854D02*
X23338243Y-47395474D01*
X22838243Y-49445474D02*
X22647863Y-49255094D01*
X23338243Y-47395474D02*
X23882863Y-47395474D01*
%TO.N,Net-(POWER1-Pin_2)*%
X36392063Y-37368574D02*
X33773063Y-39987574D01*
%TO.N,Net-(U2-IO13)*%
X22647863Y-49255094D02*
X22647863Y-48085854D01*
%TO.N,GRD*%
X29298063Y-29915774D02*
X31723063Y-32340774D01*
X20821598Y-28094084D02*
X20842301Y-28114787D01*
%TO.N,Net-(POWER1-Pin_1)*%
X29296163Y-67197274D02*
X34229763Y-62263674D01*
%TO.N,Net-(D1-A)*%
X24472863Y-38510474D02*
X24797863Y-38185474D01*
%TO.N,GRD*%
X33285563Y-32340774D02*
X33285563Y-31478274D01*
%TO.N,Net-(AC24-IN1-Pin_2)*%
X50136163Y-65157374D02*
X44586163Y-65157374D01*
%TO.N,GRD*%
X37558268Y-43575979D02*
X39152467Y-43575979D01*
%TO.N,Net-(U2-IO4)*%
X29260963Y-59576774D02*
X29260963Y-60351874D01*
%TO.N,Net-(EXT1-Pin_3)*%
X9774663Y-30553774D02*
X8847763Y-30553774D01*
%TO.N,GRD*%
X12455363Y-44480474D02*
X12455363Y-45142974D01*
%TO.N,Net-(PROG1-Pin_2)*%
X11202863Y-34205474D02*
X11202863Y-35591874D01*
%TO.N,Net-(U2-IO5)*%
X26493363Y-64150174D02*
X26493363Y-60675774D01*
%TO.N,Net-(PROG1-Pin_1)*%
X18015663Y-39933974D02*
X22632863Y-35316774D01*
%TO.N,Net-(U2-IO5)*%
X20763963Y-45367074D02*
X20763963Y-48036374D01*
%TO.N,Net-(EXT1-Pin_2)*%
X15012863Y-51705474D02*
X15012863Y-50341974D01*
%TO.N,Net-(POWER1-Pin_1)*%
X8752263Y-64330374D02*
X13361563Y-59721074D01*
%TO.N,GRD*%
X13855363Y-44480474D02*
X14542863Y-44480474D01*
%TO.N,Net-(U2-IO5)*%
X17552863Y-38461074D02*
X17030063Y-38983874D01*
%TO.N,Net-(LED1-Pin_3)*%
X29492863Y-63357874D02*
X29492863Y-62155974D01*
X29852363Y-61796474D02*
X29492863Y-62155974D01*
%TO.N,Net-(POWER1-Pin_1)*%
X14537763Y-60897274D02*
X17869763Y-60897274D01*
%TO.N,GRD*%
X33285563Y-32340774D02*
X32073063Y-32340774D01*
%TO.N,Net-(POWER1-Pin_1)*%
X17869763Y-66020374D02*
X17869763Y-67197274D01*
X13361563Y-59721074D02*
X13361563Y-59683774D01*
%TO.N,Net-(POWER1-Pin_2)*%
X44850063Y-29435974D02*
X44850063Y-31212874D01*
%TO.N,Net-(AC24-IN1-Pin_1)*%
X54584163Y-55648974D02*
X58032163Y-55648974D01*
%TO.N,Net-(POWER1-Pin_2)*%
X35995263Y-57815574D02*
X35867363Y-57815574D01*
X38728863Y-52664674D02*
X39068963Y-53004774D01*
%TO.N,Net-(PROG1-Pin_1)*%
X17819363Y-39933974D02*
X18015663Y-39933974D01*
%TO.N,Net-(POWER1-Pin_2)*%
X33773063Y-39987574D02*
X33773063Y-41490774D01*
%TO.N,GRD*%
X36909163Y-47720374D02*
X37084163Y-47545374D01*
X13142863Y-43055474D02*
X12442863Y-43055474D01*
%TO.N,Net-(PROG1-Pin_1)*%
X22632863Y-35316774D02*
X22632863Y-34205474D01*
%TO.N,Net-(POWER1-Pin_2)*%
X32942563Y-49270374D02*
X31213563Y-49270374D01*
%TO.N,GRD*%
X39270363Y-47545374D02*
X41668563Y-49943574D01*
X48391163Y-47544274D02*
X48391163Y-45051074D01*
%TO.N,Net-(POWER1-Pin_2)*%
X44850063Y-37368574D02*
X36392063Y-37368574D01*
X57191163Y-43716174D02*
X55864263Y-43716174D01*
%TO.N,Net-(POWER1-Pin_1)*%
X13361563Y-59721074D02*
X14537763Y-60897274D01*
%TO.N,Net-(POWER1-Pin_2)*%
X49516663Y-37368574D02*
X44850063Y-37368574D01*
%TO.N,Net-(POWER1-Pin_1)*%
X17958495Y-54962272D02*
X17958495Y-61262272D01*
%TO.N,GRD*%
X30404563Y-47720374D02*
X30404563Y-53077174D01*
X36734163Y-47545374D02*
X33117563Y-47545374D01*
%TO.N,Net-(U2-IO5)*%
X24888163Y-64562074D02*
X26081463Y-64562074D01*
%TO.N,GRD*%
X20842301Y-28114787D02*
X22595713Y-28114787D01*
%TO.N,Net-(POWER1-Pin_1)*%
X8752263Y-64907074D02*
X8752263Y-64330374D01*
%TO.N,GRD*%
X23882863Y-48665474D02*
X24959763Y-48665474D01*
%TO.N,Net-(EXT1-Pin_1)*%
X15561863Y-48701474D02*
X15818363Y-48701474D01*
%TO.N,Net-(D1-K)*%
X22798675Y-30328548D02*
X22798675Y-28957749D01*
%TO.N,Net-(SENSOR1-Pin_1)*%
X12472863Y-51705474D02*
X12472863Y-50628574D01*
%TO.N,Net-(EXT1-Pin_1)*%
X13742863Y-50520474D02*
X15561863Y-48701474D01*
%TO.N,Net-(POWER1-Pin_2)*%
X36132763Y-53878474D02*
X36132763Y-52664674D01*
%TO.N,Net-(D5-K)*%
X44249763Y-41713174D02*
X44850063Y-41112874D01*
%TO.N,Net-(U2-IO4)*%
X21362863Y-34205474D02*
X21362863Y-35556674D01*
%TO.N,3V3*%
X38197163Y-50188674D02*
X37827463Y-50188674D01*
%TO.N,GRD*%
X58563363Y-40088374D02*
X57191163Y-38716174D01*
X15242863Y-43055474D02*
X14542863Y-43055474D01*
X12455363Y-44467974D02*
X12455363Y-44480474D01*
%TO.N,Net-(SENSOR1-Pin_1)*%
X57310963Y-31531774D02*
X57171563Y-31392374D01*
%TO.N,Net-(PROG1-Pin_3)*%
X9932863Y-34205474D02*
X9932863Y-35581674D01*
%TO.N,GRD*%
X13142863Y-45855474D02*
X12442863Y-45855474D01*
%TO.N,Net-(POWER1-Pin_1)*%
X17869763Y-67197274D02*
X29296163Y-67197274D01*
%TO.N,Net-(U2-IO5)*%
X17030063Y-41633174D02*
X20763963Y-45367074D01*
%TO.N,GRD*%
X41668563Y-49943574D02*
X41668563Y-59018174D01*
%TO.N,Net-(SENSOR1-Pin_1)*%
X15448763Y-47652674D02*
X20036963Y-47652674D01*
%TO.N,Net-(POWER1-Pin_2)*%
X39068963Y-53004774D02*
X39068963Y-54741874D01*
%TO.N,GRD*%
X21758495Y-61262272D02*
X21758495Y-54962272D01*
X15242863Y-43755474D02*
X15242863Y-43055474D01*
%TO.N,Net-(U2-IO13)*%
X22893263Y-49445474D02*
X22838243Y-49445474D01*
%TO.N,GRD*%
X12455363Y-45142974D02*
X12442863Y-45155474D01*
%TO.N,Net-(AC24-IN1-Pin_2)*%
X51610082Y-65157374D02*
X50136163Y-65157374D01*
X51154063Y-64139474D02*
X50136163Y-65157374D01*
%TO.N,GRD*%
X10895963Y-45855474D02*
X6122863Y-50628574D01*
%TO.N,Net-(EXT1-Pin_4)*%
X7392863Y-32137474D02*
X7774663Y-31755674D01*
%TO.N,Net-(POWER1-Pin_2)*%
X36132763Y-52460574D02*
X33117563Y-49445374D01*
%TO.N,GRD*%
X6122863Y-30609874D02*
X8638653Y-28094084D01*
D64*
%TO.N,Net-(SENSOR1-Pin_1)*%
X92311104Y-31392374D02*
X57171563Y-31392374D01*
D63*
%TO.N,Net-(POWER1-Pin_2)*%
X55864263Y-43716174D02*
X49516663Y-37368574D01*
%TO.N,Net-(AC24-IN1-Pin_1)*%
X54538663Y-55603474D02*
X54584163Y-55648974D01*
%TO.N,GRD*%
X42746963Y-59018174D02*
X44586163Y-60857374D01*
X13842863Y-43755474D02*
X13842863Y-43055474D01*
%TO.N,Net-(U2-IO5)*%
X23461463Y-63135374D02*
X24888163Y-64562074D01*
%TO.N,GRD*%
X14542863Y-43055474D02*
X13842863Y-43055474D01*
%TO.N,Net-(LED1-Pin_2)*%
X27408663Y-60400474D02*
X27492863Y-60484674D01*
%TO.N,Net-(POWER1-Pin_2)*%
X36132763Y-52664674D02*
X38728863Y-52664674D01*
%TO.N,GRD*%
X12442863Y-45855474D02*
X10895963Y-45855474D01*
%TO.N,Net-(POWER1-Pin_1)*%
X34229763Y-57781474D02*
X38132763Y-53878474D01*
%TO.N,3V3*%
X38167363Y-65442474D02*
X37442363Y-65442474D01*
X37827463Y-50188674D02*
X36909163Y-49270374D01*
%TO.N,GRD*%
X36909163Y-47720374D02*
X36734163Y-47545374D01*
X58563363Y-47544274D02*
X59387563Y-48368474D01*
%TO.N,Net-(D4-K)*%
X26086463Y-46044474D02*
X26086463Y-44077374D01*
%TO.N,Net-(D1-A)*%
X23722863Y-38510474D02*
X24472863Y-38510474D01*
%TO.N,GRD*%
X12442863Y-43755474D02*
X12442863Y-44455474D01*
%TO.N,Net-(LED1-Pin_1)*%
X25492863Y-61168174D02*
X25492863Y-63357874D01*
%TO.N,Net-(D2-K)*%
X20842301Y-28754787D02*
X20842301Y-30144922D01*
%TO.N,GRD*%
X6122863Y-51705474D02*
X6122863Y-50628574D01*
X29298063Y-34765774D02*
X29510563Y-34978274D01*
%TO.N,3V3*%
X38197163Y-50962774D02*
X38197163Y-50188674D01*
%TO.N,Net-(POWER1-Pin_1)*%
X8662863Y-51705474D02*
X8662863Y-54985074D01*
%TO.N,GRD*%
X32132763Y-53878474D02*
X31205863Y-53878474D01*
%TO.N,Net-(POWER1-Pin_2)*%
X35867363Y-59142474D02*
X35867363Y-57815574D01*
%TO.N,GRD*%
X29590016Y-6110058D02*
X28393716Y-4913758D01*
%TO.N,Net-(U2-IO4)*%
X21357316Y6053642D02*
X21324216Y6020542D01*
%TO.N,Net-(AC24-IN1-Pin_1)*%
X58026616Y-14038658D02*
X59382016Y-14038658D01*
%TO.N,Net-(U2-IO5)*%
X20758416Y-6426058D02*
X23455916Y-9123558D01*
X26075916Y-22951758D02*
X26487816Y-22539858D01*
X23455916Y-9123558D02*
X23455916Y-21525058D01*
%TO.N,GRD*%
X27077016Y-4470258D02*
X27040916Y-4434158D01*
X25469716Y111542D02*
X25469716Y-4993458D01*
%TO.N,Net-(U2-IO5)*%
X17547316Y7404842D02*
X17547316Y3149242D01*
X17024516Y2626442D02*
X17024516Y-22858D01*
%TO.N,Net-(U2-IO4)*%
X29255416Y-18741558D02*
X29206816Y-18790158D01*
%TO.N,GRD*%
X35467516Y-1373758D02*
X35467516Y119542D01*
%TO.N,Net-(D4-K)*%
X26080916Y-4575558D02*
X26080916Y-4434158D01*
%TO.N,GRD*%
X22786868Y13298827D02*
X28108969Y13298827D01*
%TO.N,Net-(D4-K)*%
X26859316Y-5353958D02*
X26080916Y-4575558D01*
%TO.N,Net-(D3-K)*%
X18273951Y11516524D02*
X18358707Y11431768D01*
%TO.N,GRD*%
X32067516Y-1349358D02*
X33246516Y-2528358D01*
X38934916Y-5935058D02*
X39264816Y-5935058D01*
%TO.N,Net-(D4-K)*%
X26080916Y-2467058D02*
X28667516Y119542D01*
X50893016Y-13333258D02*
X54533116Y-9693158D01*
%TO.N,Net-(EXT1-Pin_3)*%
X8657316Y7404842D02*
X8657316Y8481742D01*
%TO.N,Net-(AC24-IN1-Pin_1)*%
X56479617Y-22551976D02*
X59382016Y-19649577D01*
%TO.N,Net-(POWER1-Pin_1)*%
X7819816Y-23296758D02*
X8746716Y-23296758D01*
%TO.N,Net-(D5-K)*%
X44844516Y2274342D02*
X44844516Y497442D01*
%TO.N,Net-(D1-A)*%
X24792316Y3424842D02*
X24792316Y7707580D01*
%TO.N,Net-(D5-K)*%
X30524616Y-3299358D02*
X29353716Y-4470258D01*
X30524616Y-37558D02*
X30367516Y119542D01*
X30524616Y-3299358D02*
X44244216Y-3299358D01*
%TO.N,Net-(D3-K)*%
X18273951Y12876232D02*
X18273951Y11516524D01*
%TO.N,Net-(D1-K)*%
X22793128Y12652567D02*
X22786868Y12658827D01*
%TO.N,Net-(SENSOR1-Pin_1)*%
X12467316Y-9018258D02*
X15443216Y-6042358D01*
%TO.N,3V3*%
X7387316Y-11172058D02*
X7071516Y-11487858D01*
%TO.N,Net-(LED1-Pin_2)*%
X27487316Y-18874358D02*
X27487316Y-21747558D01*
%TO.N,Net-(POWER1-Pin_1)*%
X13356016Y-18073458D02*
X9996516Y-14713958D01*
%TO.N,Net-(D5-K)*%
X30524616Y-3299358D02*
X30524616Y-37558D01*
%TO.N,3V3*%
X7387316Y-10520158D02*
X7387316Y-10095158D01*
X9022416Y-26088758D02*
X33678316Y-26088758D01*
X38191616Y-8578358D02*
X38934916Y-7835058D01*
%TO.N,Net-(SENSOR1-Pin_1)*%
X93832659Y8690840D02*
X92305557Y10217942D01*
%TO.N,3V3*%
X7071516Y-14713958D02*
X6841216Y-14944258D01*
%TO.N,Net-(D3-A)*%
X18812316Y9103159D02*
X18358707Y9556768D01*
%TO.N,3V3*%
X6841216Y-23907558D02*
X9022416Y-26088758D01*
X37436816Y-23832158D02*
X35934916Y-23832158D01*
D64*
X92222517Y-20341059D02*
X73172517Y-20341059D01*
D63*
%TO.N,Net-(U2-IO13)*%
X24079616Y-9027058D02*
X22887716Y-7835158D01*
%TO.N,Net-(EXT1-Pin_1)*%
X13737316Y-10095158D02*
X13737316Y-8910158D01*
%TO.N,3V3*%
X33678316Y-26088758D02*
X35934916Y-23832158D01*
%TO.N,GRD*%
X25469716Y-4993458D02*
X26242816Y-5766558D01*
%TO.N,3V3*%
X7387316Y-10520158D02*
X7387316Y-11172058D01*
%TO.N,GRD*%
X13849816Y-3532658D02*
X13837316Y-3545158D01*
X15237316Y-2845158D02*
X15212316Y-2870158D01*
%TO.N,3V3*%
X7071516Y-11487858D02*
X7071516Y-14713958D01*
%TO.N,Net-(D4-K)*%
X45986316Y-13333258D02*
X50130616Y-13333258D01*
%TO.N,3V3*%
X39579716Y-16114258D02*
X39579716Y-10740558D01*
X39579716Y-10740558D02*
X38191616Y-9352458D01*
X38161816Y-17532158D02*
X38161816Y-18859058D01*
X37436816Y-19584058D02*
X38161816Y-18859058D01*
X39238716Y-17532158D02*
X39238716Y-16455258D01*
X38161816Y-17532158D02*
X39238716Y-17532158D01*
%TO.N,GRD*%
X40461816Y-17532158D02*
X41538716Y-17532158D01*
X26570916Y-6094658D02*
X27212816Y-6094658D01*
X33112016Y-5935058D02*
X32937016Y-6110058D01*
%TO.N,3V3*%
X39238716Y-16455258D02*
X39579716Y-16114258D01*
%TO.N,GRD*%
X41663016Y-17407858D02*
X42741416Y-17407858D01*
X13837316Y-3545158D02*
X13837316Y-4245158D01*
X22590166Y13495529D02*
X22786868Y13298827D01*
X32067516Y1693142D02*
X32067516Y119542D01*
X48385616Y-5933958D02*
X58557816Y-5933958D01*
X18273951Y13516232D02*
X20816051Y13516232D01*
X12437316Y-1445158D02*
X12437316Y-2145158D01*
X15237316Y-2895158D02*
X15212316Y-2870158D01*
%TO.N,Net-(D2-A)*%
X20082316Y8835956D02*
X20082316Y7404842D01*
%TO.N,GRD*%
X21752948Y-19651956D02*
X21752948Y-23233158D01*
%TO.N,Net-(POWER1-Pin_2)*%
X36127216Y-11054358D02*
X36127216Y-10850258D01*
%TO.N,GRD*%
X15212316Y-2870158D02*
X14537316Y-2870158D01*
X28393716Y-4470258D02*
X27077016Y-4470258D01*
X13837316Y-2845158D02*
X13837316Y-2145158D01*
X12437316Y-2845158D02*
X12449816Y-2857658D01*
X48385616Y-5933958D02*
X45986316Y-8333258D01*
X13849816Y-2870158D02*
X13849816Y-2857658D01*
%TO.N,3V3*%
X37436816Y-23832158D02*
X37436816Y-19584058D01*
%TO.N,GRD*%
X29505016Y6632042D02*
X29505016Y4146842D01*
%TO.N,Net-(EXT1-Pin_4)*%
X7387316Y7404842D02*
X7387316Y9472842D01*
%TO.N,Net-(D4-K)*%
X50130616Y-13333258D02*
X50893016Y-13333258D01*
%TO.N,GRD*%
X14537316Y-4245158D02*
X15237316Y-4245158D01*
X34312916Y-2528358D02*
X35467516Y-1373758D01*
%TO.N,Net-(LED1-Pin_1)*%
X24719616Y-18790158D02*
X25487316Y-19557858D01*
%TO.N,GRD*%
X33280016Y8407042D02*
X33280016Y9269542D01*
X21752948Y-23233158D02*
X23154616Y-23233158D01*
X30399016Y-6110058D02*
X29590016Y-6110058D01*
X26242816Y-5766558D02*
X24954216Y-7055158D01*
%TO.N,Net-(POWER1-Pin_2)*%
X39063416Y-13131558D02*
X35989716Y-16205258D01*
%TO.N,GRD*%
X26242816Y-5766558D02*
X26570916Y-6094658D01*
X59382016Y-6758158D02*
X59382016Y-9738658D01*
X30399016Y-11466858D02*
X31200316Y-12268158D01*
X32067516Y9269542D02*
X31717516Y9269542D01*
%TO.N,Net-(POWER1-Pin_1)*%
X34224216Y-20653358D02*
X34224216Y-16171158D01*
%TO.N,GRD*%
X13849816Y-2857658D02*
X13837316Y-2845158D01*
%TO.N,Net-(POWER1-Pin_2)*%
X33112016Y-7835058D02*
X32937016Y-7660058D01*
%TO.N,Net-(U2-IO5)*%
X26487816Y-19065458D02*
X26763116Y-18790158D01*
%TO.N,GRD*%
X41663016Y-17407858D02*
X41538716Y-17532158D01*
%TO.N,Net-(D4-K)*%
X50130616Y-13333258D02*
X50130616Y-19247058D01*
%TO.N,Net-(POWER1-Pin_2)*%
X44844516Y10397442D02*
X44844516Y4241742D01*
%TO.N,GRD*%
X12437316Y-668258D02*
X6117316Y5651742D01*
X6117316Y5651742D02*
X6117316Y11000442D01*
%TO.N,Net-(D2-K)*%
X20836754Y11465394D02*
X20803128Y11431768D01*
%TO.N,GRD*%
X40640175Y-4522267D02*
X40347707Y-4522267D01*
X23154616Y-23233158D02*
X23380616Y-23459158D01*
X40347707Y-4522267D02*
X38934916Y-5935058D01*
X41663016Y-8333258D02*
X45986316Y-8333258D01*
X15237316Y-3545158D02*
X15237316Y-2895158D01*
X28108969Y13298827D02*
X28951328Y12456468D01*
X29505016Y4146842D02*
X25469716Y111542D01*
%TO.N,Net-(AC24-IN1-Pin_2)*%
X56479617Y-18671976D02*
X51604535Y-23547058D01*
%TO.N,Net-(U2-IO13)*%
X24079616Y-18790158D02*
X24079616Y-9027058D01*
%TO.N,GRD*%
X13837316Y-1445158D02*
X13137316Y-1445158D01*
X34842516Y6844542D02*
X33280016Y8407042D01*
X27212816Y-6094658D02*
X28393716Y-4913758D01*
%TO.N,Net-(POWER1-Pin_1)*%
X8657316Y-13374758D02*
X9996516Y-14713958D01*
%TO.N,Net-(D2-A)*%
X20803128Y9556768D02*
X20082316Y8835956D01*
%TO.N,GRD*%
X29613816Y4146842D02*
X32067516Y1693142D01*
X28932916Y12054142D02*
X29292516Y11694542D01*
%TO.N,Net-(LED1-Pin_3)*%
X29846816Y-18790158D02*
X29846816Y-20186158D01*
%TO.N,GRD*%
X31717516Y9269542D02*
X29292516Y6844542D01*
X12437316Y-1445158D02*
X12437316Y-668258D01*
X29775716Y-23459158D02*
X31487316Y-21747558D01*
X37078616Y-5935058D02*
X38934916Y-5935058D01*
X48385616Y-3440758D02*
X48244216Y-3299358D01*
%TO.N,Net-(D1-A)*%
X24792316Y7707580D02*
X22793128Y9706768D01*
%TO.N,Net-(D3-A)*%
X18812316Y7404842D02*
X18812316Y9103159D01*
%TO.N,GRD*%
X33246516Y-2528358D02*
X34312916Y-2528358D01*
X8633106Y13516232D02*
X18273951Y13516232D01*
X13837316Y-4245158D02*
X13137316Y-4245158D01*
X35467516Y119542D02*
X37552721Y-1965663D01*
X32937016Y-6110058D02*
X31208016Y-6110058D01*
%TO.N,3V3*%
X6841216Y-14944258D02*
X6841216Y-23907558D01*
%TO.N,GRD*%
X28393716Y-4913758D02*
X28393716Y-4470258D01*
%TO.N,Net-(D5-K)*%
X44244216Y-3299358D02*
X44244216Y-102858D01*
%TO.N,GRD*%
X29505016Y4146842D02*
X29613816Y4146842D01*
%TO.N,Net-(EXT1-Pin_4)*%
X7769116Y11056542D02*
X7769116Y9854642D01*
%TO.N,GRD*%
X58557816Y-5933958D02*
X58557816Y1521942D01*
%TO.N,Net-(EXT1-Pin_3)*%
X8657316Y8481742D02*
X8842216Y8666642D01*
%TO.N,GRD*%
X32067516Y119542D02*
X32067516Y-1349358D01*
%TO.N,Net-(AC24-IN1-Pin_1)*%
X59382016Y-19649577D02*
X59382016Y-14038658D01*
%TO.N,GRD*%
X12449816Y-2870158D02*
X13137316Y-2870158D01*
X15237316Y-4245158D02*
X15237316Y-3545158D01*
X13849816Y-2870158D02*
X13849816Y-3532658D01*
X31208016Y-6110058D02*
X30399016Y-6110058D01*
%TO.N,Net-(EXT1-Pin_3)*%
X8842216Y8666642D02*
X8842216Y11056542D01*
%TO.N,GRD*%
X23380616Y-23459158D02*
X29775716Y-23459158D01*
%TO.N,Net-(POWER1-Pin_1)*%
X17864216Y-19286958D02*
X17864216Y-24410058D01*
%TO.N,GRD*%
X33280016Y10132042D02*
X34842516Y11694542D01*
%TO.N,Net-(U2-IO13)*%
X22642316Y-6475538D02*
X23332696Y-5785158D01*
X22832696Y-7835158D02*
X22642316Y-7644778D01*
X23332696Y-5785158D02*
X23877316Y-5785158D01*
%TO.N,Net-(POWER1-Pin_2)*%
X36386516Y4241742D02*
X33767516Y1622742D01*
%TO.N,Net-(U2-IO13)*%
X22642316Y-7644778D02*
X22642316Y-6475538D01*
%TO.N,GRD*%
X29292516Y11694542D02*
X31717516Y9269542D01*
X20816051Y13516232D02*
X20836754Y13495529D01*
%TO.N,Net-(POWER1-Pin_1)*%
X29290616Y-25586958D02*
X34224216Y-20653358D01*
%TO.N,Net-(D1-A)*%
X24467316Y3099842D02*
X24792316Y3424842D01*
%TO.N,GRD*%
X33280016Y9269542D02*
X33280016Y10132042D01*
%TO.N,Net-(AC24-IN1-Pin_2)*%
X50130616Y-23547058D02*
X44580616Y-23547058D01*
%TO.N,GRD*%
X37552721Y-1965663D02*
X39146920Y-1965663D01*
%TO.N,Net-(U2-IO4)*%
X29255416Y-17966458D02*
X29255416Y-18741558D01*
%TO.N,Net-(EXT1-Pin_3)*%
X9769116Y11056542D02*
X8842216Y11056542D01*
%TO.N,GRD*%
X12449816Y-2870158D02*
X12449816Y-3532658D01*
%TO.N,Net-(PROG1-Pin_2)*%
X11197316Y7404842D02*
X11197316Y6018442D01*
%TO.N,Net-(U2-IO5)*%
X26487816Y-22539858D02*
X26487816Y-19065458D01*
%TO.N,Net-(PROG1-Pin_1)*%
X18010116Y1676342D02*
X22627316Y6293542D01*
%TO.N,Net-(U2-IO5)*%
X20758416Y-3756758D02*
X20758416Y-6426058D01*
%TO.N,Net-(EXT1-Pin_2)*%
X15007316Y-10095158D02*
X15007316Y-8731658D01*
%TO.N,Net-(POWER1-Pin_1)*%
X8746716Y-22720058D02*
X13356016Y-18110758D01*
%TO.N,GRD*%
X13849816Y-2870158D02*
X14537316Y-2870158D01*
%TO.N,Net-(U2-IO5)*%
X17547316Y3149242D02*
X17024516Y2626442D01*
%TO.N,Net-(LED1-Pin_3)*%
X29487316Y-21747558D02*
X29487316Y-20545658D01*
X29846816Y-20186158D02*
X29487316Y-20545658D01*
%TO.N,Net-(POWER1-Pin_1)*%
X14532216Y-19286958D02*
X17864216Y-19286958D01*
%TO.N,GRD*%
X33280016Y9269542D02*
X32067516Y9269542D01*
%TO.N,Net-(POWER1-Pin_1)*%
X17864216Y-24410058D02*
X17864216Y-25586958D01*
X13356016Y-18110758D02*
X13356016Y-18073458D01*
%TO.N,Net-(POWER1-Pin_2)*%
X44844516Y12174342D02*
X44844516Y10397442D01*
%TO.N,Net-(AC24-IN1-Pin_1)*%
X54578616Y-14038658D02*
X58026616Y-14038658D01*
%TO.N,Net-(POWER1-Pin_2)*%
X35989716Y-16205258D02*
X35861816Y-16205258D01*
X38723316Y-11054358D02*
X39063416Y-11394458D01*
%TO.N,Net-(PROG1-Pin_1)*%
X17813816Y1676342D02*
X18010116Y1676342D01*
%TO.N,Net-(POWER1-Pin_2)*%
X33767516Y1622742D02*
X33767516Y119542D01*
%TO.N,GRD*%
X36903616Y-6110058D02*
X37078616Y-5935058D01*
X13137316Y-1445158D02*
X12437316Y-1445158D01*
%TO.N,Net-(PROG1-Pin_1)*%
X22627316Y6293542D02*
X22627316Y7404842D01*
%TO.N,Net-(POWER1-Pin_2)*%
X32937016Y-7660058D02*
X31208016Y-7660058D01*
%TO.N,GRD*%
X39264816Y-5935058D02*
X41663016Y-8333258D01*
X48385616Y-5933958D02*
X48385616Y-3440758D01*
%TO.N,Net-(POWER1-Pin_2)*%
X44844516Y4241742D02*
X36386516Y4241742D01*
X57185616Y-2105858D02*
X55858716Y-2105858D01*
%TO.N,Net-(POWER1-Pin_1)*%
X13356016Y-18110758D02*
X14532216Y-19286958D01*
%TO.N,Net-(POWER1-Pin_2)*%
X49511116Y4241742D02*
X44844516Y4241742D01*
%TO.N,Net-(POWER1-Pin_1)*%
X17952948Y-13351956D02*
X17952948Y-19651956D01*
%TO.N,GRD*%
X30399016Y-6110058D02*
X30399016Y-11466858D01*
X36728616Y-5935058D02*
X33112016Y-5935058D01*
%TO.N,Net-(U2-IO5)*%
X24882616Y-22951758D02*
X26075916Y-22951758D01*
%TO.N,GRD*%
X20836754Y13495529D02*
X22590166Y13495529D01*
%TO.N,Net-(POWER1-Pin_1)*%
X8746716Y-23296758D02*
X8746716Y-22720058D01*
%TO.N,GRD*%
X23877316Y-7055158D02*
X24954216Y-7055158D01*
%TO.N,Net-(EXT1-Pin_1)*%
X15556316Y-7091158D02*
X15812816Y-7091158D01*
%TO.N,Net-(D1-K)*%
X22793128Y11281768D02*
X22793128Y12652567D01*
%TO.N,Net-(SENSOR1-Pin_1)*%
X12467316Y-10095158D02*
X12467316Y-9018258D01*
%TO.N,Net-(EXT1-Pin_1)*%
X13737316Y-8910158D02*
X15556316Y-7091158D01*
%TO.N,Net-(POWER1-Pin_2)*%
X36127216Y-12268158D02*
X36127216Y-11054358D01*
%TO.N,Net-(D5-K)*%
X44244216Y-102858D02*
X44844516Y497442D01*
%TO.N,Net-(U2-IO4)*%
X21357316Y7404842D02*
X21357316Y6053642D01*
%TO.N,3V3*%
X38191616Y-8578358D02*
X37821916Y-8578358D01*
%TO.N,GRD*%
X58557816Y1521942D02*
X57185616Y2894142D01*
X15237316Y-1445158D02*
X14537316Y-1445158D01*
X12449816Y-2857658D02*
X12449816Y-2870158D01*
%TO.N,Net-(SENSOR1-Pin_1)*%
X57305416Y10078542D02*
X57166016Y10217942D01*
%TO.N,Net-(PROG1-Pin_3)*%
X9927316Y7404842D02*
X9927316Y6028642D01*
%TO.N,GRD*%
X13137316Y-4245158D02*
X12437316Y-4245158D01*
%TO.N,Net-(POWER1-Pin_1)*%
X17864216Y-25586958D02*
X29290616Y-25586958D01*
%TO.N,Net-(U2-IO5)*%
X17024516Y-22858D02*
X20758416Y-3756758D01*
%TO.N,GRD*%
X41663016Y-8333258D02*
X41663016Y-17407858D01*
%TO.N,Net-(SENSOR1-Pin_1)*%
X15443216Y-6042358D02*
X20031416Y-6042358D01*
%TO.N,Net-(POWER1-Pin_2)*%
X39063416Y-11394458D02*
X39063416Y-13131558D01*
%TO.N,GRD*%
X21752948Y-19651956D02*
X21752948Y-13351956D01*
X15237316Y-2145158D02*
X15237316Y-1445158D01*
%TO.N,Net-(U2-IO13)*%
X22887716Y-7835158D02*
X22832696Y-7835158D01*
%TO.N,GRD*%
X12449816Y-3532658D02*
X12437316Y-3545158D01*
%TO.N,Net-(AC24-IN1-Pin_2)*%
X51604535Y-23547058D02*
X50130616Y-23547058D01*
X51148516Y-22529158D02*
X50130616Y-23547058D01*
%TO.N,GRD*%
X10890416Y-4245158D02*
X6117316Y-9018258D01*
%TO.N,Net-(EXT1-Pin_4)*%
X7387316Y9472842D02*
X7769116Y9854642D01*
%TO.N,Net-(POWER1-Pin_2)*%
X36127216Y-10850258D02*
X33112016Y-7835058D01*
%TO.N,GRD*%
X6117316Y11000442D02*
X8633106Y13516232D01*
D64*
%TO.N,Net-(SENSOR1-Pin_1)*%
X92305557Y10217942D02*
X57166016Y10217942D01*
D63*
%TO.N,Net-(POWER1-Pin_2)*%
X55858716Y-2105858D02*
X49511116Y4241742D01*
%TO.N,Net-(AC24-IN1-Pin_1)*%
X54533116Y-13993158D02*
X54578616Y-14038658D01*
%TO.N,GRD*%
X42741416Y-17407858D02*
X44580616Y-19247058D01*
X13837316Y-2145158D02*
X13837316Y-1445158D01*
%TO.N,Net-(U2-IO5)*%
X23455916Y-21525058D02*
X24882616Y-22951758D01*
%TO.N,GRD*%
X14537316Y-1445158D02*
X13837316Y-1445158D01*
%TO.N,Net-(LED1-Pin_2)*%
X27403116Y-18790158D02*
X27487316Y-18874358D01*
%TO.N,Net-(POWER1-Pin_2)*%
X36127216Y-11054358D02*
X38723316Y-11054358D01*
%TO.N,GRD*%
X12437316Y-4245158D02*
X10890416Y-4245158D01*
%TO.N,Net-(POWER1-Pin_1)*%
X34224216Y-16171158D02*
X38127216Y-12268158D01*
%TO.N,3V3*%
X38161816Y-23832158D02*
X37436816Y-23832158D01*
X37821916Y-8578358D02*
X36903616Y-7660058D01*
%TO.N,GRD*%
X36903616Y-6110058D02*
X36728616Y-5935058D01*
X58557816Y-5933958D02*
X59382016Y-6758158D01*
%TO.N,Net-(D4-K)*%
X26080916Y-4434158D02*
X26080916Y-2467058D01*
%TO.N,Net-(D1-A)*%
X23717316Y3099842D02*
X24467316Y3099842D01*
%TO.N,GRD*%
X12437316Y-2145158D02*
X12437316Y-2845158D01*
%TO.N,Net-(LED1-Pin_1)*%
X25487316Y-19557858D02*
X25487316Y-21747558D01*
%TO.N,Net-(D2-K)*%
X20836754Y12855529D02*
X20836754Y11465394D01*
%TO.N,GRD*%
X6117316Y-10095158D02*
X6117316Y-9018258D01*
X29292516Y6844542D02*
X29505016Y6632042D01*
%TO.N,3V3*%
X38191616Y-9352458D02*
X38191616Y-8578358D01*
%TO.N,Net-(POWER1-Pin_1)*%
X8657316Y-10095158D02*
X8657316Y-13374758D01*
%TO.N,GRD*%
X32127216Y-12268158D02*
X31200316Y-12268158D01*
%TO.N,Net-(POWER1-Pin_2)*%
X35861816Y-17532158D02*
X35861816Y-16205258D01*
D65*
%TO.N,Net-(D9-K)*%
X43214000Y65922300D02*
X43214000Y63598500D01*
X45985000Y68693300D02*
X43214000Y65922300D01*
%TO.N,Net-(D9-A)*%
X46514000Y60831000D02*
X46514000Y63598500D01*
X44369000Y58686000D02*
X46514000Y60831000D01*
%TO.N,Net-(D10-K)*%
X26577000Y65994400D02*
X29275900Y68693300D01*
X26577000Y63598500D02*
X26577000Y65994400D01*
%TO.N,GRD*%
X71102100Y71379400D02*
X70696000Y70973300D01*
X26762300Y24130000D02*
X25400000Y22767700D01*
X123190000Y75786000D02*
X123190000Y76486000D01*
X129510000Y65536000D02*
X129510000Y67014100D01*
X102081100Y71273800D02*
X105109100Y71273800D01*
X129510000Y67014100D02*
X123190000Y73334100D01*
X129510000Y83712000D02*
X129510000Y83036000D01*
X123190000Y75786000D02*
X122515000Y75786000D01*
X22660200Y72195200D02*
X21844400Y71379400D01*
X35575900Y71370900D02*
X35575900Y71343100D01*
X127655600Y86695800D02*
X129107500Y86695800D01*
D63*
X117242580Y59025000D02*
X117229962Y59037618D01*
D65*
X85703200Y70973300D02*
X87405100Y70973300D01*
X88540600Y71379400D02*
X90332600Y73171400D01*
X83870000Y37860000D02*
X85471900Y37860000D01*
X90332600Y73171400D02*
X99941900Y73171400D01*
X74613149Y72171135D02*
X74582084Y72202200D01*
X35929900Y38980000D02*
X27940000Y38980000D01*
X92760000Y38758600D02*
X86370500Y38758600D01*
X79773200Y39011800D02*
X80685300Y38099700D01*
X121090000Y77186000D02*
X120390000Y77186000D01*
X55235000Y23351300D02*
X55235000Y23596000D01*
X105109100Y71273800D02*
X105214700Y71379400D01*
X121790000Y74386000D02*
X121790000Y75086000D01*
X129107500Y86695800D02*
X129107500Y84790400D01*
X51835000Y24668900D02*
X52907900Y23596000D01*
X121090000Y75811000D02*
X121115000Y75786000D01*
X78776900Y39011800D02*
X77089200Y40699500D01*
X35575900Y71343100D02*
X38482100Y71343100D01*
X35575900Y69771400D02*
X33854200Y68049700D01*
X98060000Y82428100D02*
X99941900Y80546200D01*
X37220000Y38980000D02*
X35929900Y38980000D01*
X71866600Y71379400D02*
X71102100Y71379400D01*
X21844400Y71379400D02*
X21053000Y71379400D01*
X55237900Y23348400D02*
X55235000Y23351300D01*
X50773700Y29459400D02*
X45303600Y29459400D01*
X111750000Y79996000D02*
X113101900Y79996000D01*
X72689400Y72202200D02*
X71866600Y71379400D01*
X17264900Y40838900D02*
X15066600Y38640600D01*
X35575900Y71370900D02*
X35575900Y72175200D01*
X38482100Y71343100D02*
X38518400Y71379400D01*
X123190000Y75086000D02*
X123190000Y75786000D01*
X121115000Y75786000D02*
X121790000Y75786000D01*
X74644214Y72202200D02*
X74613149Y72171135D01*
X85703200Y72175200D02*
X85676200Y72202200D01*
D63*
X117229962Y59037618D02*
X116598584Y58406240D01*
D65*
X100484000Y73171400D02*
X102081100Y71574300D01*
X122490000Y77186000D02*
X123190000Y77186000D01*
X36100000Y24130000D02*
X26762300Y24130000D01*
X99941900Y80546200D02*
X99941900Y73171400D01*
X36498100Y31807200D02*
X36498100Y36498100D01*
D63*
X119404543Y58354706D02*
X119404543Y57264640D01*
D65*
X113101900Y79996000D02*
X115911900Y77186000D01*
X52185000Y35675000D02*
X54610000Y33250000D01*
X121090000Y74386000D02*
X121790000Y74386000D01*
X55235000Y23596000D02*
X55235000Y26525000D01*
X121790000Y75786000D02*
X121790000Y76486000D01*
X121790000Y74386000D02*
X122490000Y74386000D01*
X123190000Y74386000D02*
X123190000Y75086000D01*
X33854200Y68049700D02*
X33854200Y64173300D01*
X129107500Y84790400D02*
X129510000Y84387900D01*
X38100000Y38100000D02*
X37220000Y38980000D01*
X119548000Y42062300D02*
X121067000Y43581300D01*
X120390000Y76660100D02*
X120390000Y76486000D01*
X124241900Y77186000D02*
X125011900Y77186000D01*
X98060000Y83630000D02*
X98060000Y82428100D01*
X35575900Y72175200D02*
X35555900Y72195200D01*
X129510000Y83036000D02*
X129510000Y81684100D01*
X49693745Y72171135D02*
X49717810Y72195200D01*
X119864100Y77186000D02*
X120390000Y76660100D01*
X86370500Y38758600D02*
X85471900Y37860000D01*
D63*
X112946634Y59026939D02*
X112931805Y59012110D01*
D65*
X87405100Y70973300D02*
X87811200Y71379400D01*
X120390000Y77186000D02*
X119864100Y77186000D01*
X38845900Y29459400D02*
X36498100Y31807200D01*
X102870000Y37468300D02*
X101099400Y39238900D01*
X102870000Y37468300D02*
X102870000Y35560000D01*
X82028400Y38099700D02*
X82268100Y37860000D01*
D63*
X118110000Y59025000D02*
X117242580Y59025000D01*
D65*
X102081100Y70973300D02*
X102081100Y71273800D01*
X120390000Y75086000D02*
X120390000Y75786000D01*
X123190000Y74386000D02*
X123190000Y73334100D01*
X122515000Y75786000D02*
X122490000Y75811000D01*
X107464000Y42062300D02*
X119548000Y42062300D01*
X51835000Y35675000D02*
X51485000Y35675000D01*
X54997600Y71574300D02*
X55192500Y71379400D01*
X102081100Y71273800D02*
X102081100Y71574300D01*
X99941900Y73171400D02*
X100484000Y73171400D01*
X38518400Y71379400D02*
X39334200Y72195200D01*
X51835000Y28398100D02*
X50773700Y29459400D01*
X120390000Y75811000D02*
X121090000Y75811000D01*
X52285000Y70973300D02*
X52285000Y71574300D01*
X77089200Y40699500D02*
X57209500Y40699500D01*
X85676200Y72202200D02*
X74644214Y72202200D01*
X49669680Y72195200D02*
X49693745Y72171135D01*
X35929900Y62097600D02*
X35929900Y38980000D01*
X121790000Y77186000D02*
X122490000Y77186000D01*
X36498100Y36498100D02*
X38100000Y38100000D01*
X26081100Y40838900D02*
X17264900Y40838900D01*
X68994100Y70973300D02*
X70696000Y70973300D01*
X95300000Y39238900D02*
X93240300Y39238900D01*
X121790000Y75086000D02*
X121790000Y75786000D01*
X80685300Y38099700D02*
X82028400Y38099700D01*
X51835000Y35675000D02*
X52185000Y35675000D01*
X35555900Y72195200D02*
X22660200Y72195200D01*
X52285000Y71574300D02*
X54997600Y71574300D01*
D63*
X118780294Y58354706D02*
X118110000Y59025000D01*
D65*
X101099400Y39238900D02*
X95300000Y39238900D01*
X57209500Y40699500D02*
X54610000Y38100000D01*
X78776900Y39011800D02*
X79773200Y39011800D01*
X129510000Y83712000D02*
X129510000Y84387900D01*
X51835000Y26525000D02*
X51835000Y28398100D01*
X45303600Y29459400D02*
X38845900Y29459400D01*
X39334200Y72195200D02*
X49669680Y72195200D01*
X121090000Y77186000D02*
X121790000Y77186000D01*
X83870000Y37860000D02*
X82268100Y37860000D01*
D63*
X116598584Y58406240D02*
X116199527Y58406240D01*
D65*
X120390000Y76486000D02*
X120390000Y75811000D01*
X121355600Y86695800D02*
X127655600Y86695800D01*
X102870000Y37468300D02*
X107464000Y42062300D01*
X74582084Y72202200D02*
X72689400Y72202200D01*
X120390000Y74386000D02*
X121090000Y74386000D01*
X51835000Y26525000D02*
X51835000Y24668900D01*
X18945000Y70973300D02*
X20646900Y70973300D01*
X120390000Y75811000D02*
X120390000Y75786000D01*
X123190000Y77186000D02*
X124241900Y77186000D01*
X51485000Y35675000D02*
X49060000Y38100000D01*
D63*
X113991104Y59026939D02*
X112946634Y59026939D01*
D65*
X125011900Y77186000D02*
X129510000Y81684100D01*
X27940000Y38980000D02*
X26081100Y40838900D01*
X51664100Y72195200D02*
X52285000Y71574300D01*
X49717810Y72195200D02*
X51664100Y72195200D01*
X33854200Y64173300D02*
X35929900Y62097600D01*
D63*
X119404543Y58354706D02*
X118780294Y58354706D01*
D65*
X85703200Y70973300D02*
X85703200Y72175200D01*
X115911900Y77186000D02*
X119864100Y77186000D01*
X52907900Y23596000D02*
X55235000Y23596000D01*
X93240300Y39238900D02*
X92760000Y38758600D01*
X54610000Y38100000D02*
X52185000Y35675000D01*
X51485000Y35675000D02*
X49060000Y33250000D01*
D63*
X119404543Y57264640D02*
X119633441Y57035742D01*
D65*
X35575900Y70973300D02*
X35575900Y69771400D01*
X35575900Y70973300D02*
X35575900Y71343100D01*
X122490000Y74386000D02*
X123190000Y74386000D01*
X87811200Y71379400D02*
X88540600Y71379400D01*
X21053000Y71379400D02*
X20646900Y70973300D01*
X49060000Y38100000D02*
X38100000Y38100000D01*
%TO.N,Net-(D10-A)*%
X31846721Y63598500D02*
X32149605Y63295616D01*
X29877000Y63598500D02*
X31846721Y63598500D01*
%TO.N,3V3*%
X128240000Y83712000D02*
X128240000Y84387900D01*
X120415600Y85392800D02*
X118815600Y86992800D01*
X128240000Y84387900D02*
X127235100Y85392800D01*
X128240000Y83036000D02*
X128240000Y81684100D01*
X128240000Y83712000D02*
X128240000Y83036000D01*
X98767400Y34221500D02*
X95300000Y37688900D01*
X92760000Y36858600D02*
X91461400Y35560000D01*
X90170000Y35560000D02*
X83870000Y35560000D01*
X128240000Y81684100D02*
X125933800Y79377900D01*
X125164400Y34221500D02*
X98767400Y34221500D01*
X125933800Y79377900D02*
X118795500Y79377900D01*
X127691800Y36748900D02*
X125164400Y34221500D01*
X92760000Y36858600D02*
X94469700Y36858600D01*
X127235100Y85392800D02*
X120415600Y85392800D01*
X94469700Y36858600D02*
X95300000Y37688900D01*
X91461400Y35560000D02*
X90170000Y35560000D01*
X118815600Y86992800D02*
X118815600Y87773300D01*
%TO.N,Net-(D11-K)*%
X9895000Y65943300D02*
X9895000Y63598500D01*
X12645000Y68693300D02*
X9895000Y65943300D01*
%TO.N,Net-(D11-A)*%
X11095000Y58686000D02*
X13195000Y60786000D01*
X13195000Y60786000D02*
X13195000Y63598500D01*
%TO.N,Net-(D12-K)*%
X59851000Y65850200D02*
X59851000Y63598500D01*
X62694100Y68693300D02*
X59851000Y65850200D01*
D63*
%TO.N,Net-(Q1-G)*%
X25306100Y66075300D02*
X23654900Y66075300D01*
X20371900Y66413300D02*
X21844400Y67885800D01*
X117844000Y64459100D02*
X117546300Y64161400D01*
X123160000Y65536000D02*
X123160000Y64459100D01*
X123160000Y64459100D02*
X117844000Y64459100D01*
X21844400Y67885800D02*
X21844400Y68454400D01*
X18945000Y66413300D02*
X20371900Y66413300D01*
X23654900Y66075300D02*
X21844400Y67885800D01*
D65*
%TO.N,Net-(D12-A)*%
X67752400Y58686000D02*
X68916000Y59849600D01*
X68916000Y59849600D02*
X68916000Y61448000D01*
X68916000Y61448000D02*
X66765500Y63598500D01*
X61006000Y58686000D02*
X67752400Y58686000D01*
X66765500Y63598500D02*
X63151000Y63598500D01*
D63*
%TO.N,Net-(Q2-G)*%
X51124300Y67488800D02*
X49857700Y66222200D01*
X118080000Y84112900D02*
X110689000Y91503900D01*
X43728600Y62635800D02*
X40780300Y62635800D01*
X118080000Y83036000D02*
X118080000Y84112900D01*
X40780300Y62635800D02*
X37002800Y66413300D01*
X35575900Y66413300D02*
X37002800Y66413300D01*
X53991100Y69897900D02*
X51582000Y67488800D01*
X49857700Y65995900D02*
X48388100Y64526300D01*
X49857700Y66222200D02*
X49857700Y65995900D01*
X77283800Y91503900D02*
X55677800Y69897900D01*
X110689000Y91503900D02*
X77283800Y91503900D01*
X51582000Y67488800D02*
X51124300Y67488800D01*
X48388100Y64526300D02*
X45619100Y64526300D01*
X55677800Y69897900D02*
X53991100Y69897900D01*
X37002800Y66413300D02*
X37002800Y66938800D01*
X37002800Y66938800D02*
X38518400Y68454400D01*
X45619100Y64526300D02*
X43728600Y62635800D01*
%TO.N,Net-(Q3-G)*%
X109908500Y91014400D02*
X77752500Y91014400D01*
X77752500Y91014400D02*
X55192500Y68454400D01*
X53711900Y66413300D02*
X53711900Y66973800D01*
X116810000Y83036000D02*
X116810000Y84112900D01*
X52285000Y66413300D02*
X53711900Y66413300D01*
X116810000Y84112900D02*
X109908500Y91014400D01*
X53711900Y66973800D02*
X55192500Y68454400D01*
%TO.N,Net-(Q4-G)*%
X86179400Y90562500D02*
X109090400Y90562500D01*
X69118200Y67464300D02*
X68994100Y67340200D01*
X67569100Y71952200D02*
X67569100Y70003500D01*
X69118200Y68454400D02*
X69118200Y67464300D01*
X115540000Y83036000D02*
X115540000Y84112900D01*
X68994100Y66413300D02*
X68994100Y67340200D01*
X67569100Y70003500D02*
X69118200Y68454400D01*
X86179400Y90562500D02*
X67569100Y71952200D01*
X109090400Y90562500D02*
X115540000Y84112900D01*
X69118200Y68454400D02*
X71866600Y68454400D01*
%TO.N,Net-(Q5-G)*%
X111931100Y84112900D02*
X106763200Y78945000D01*
X106763200Y70914100D02*
X105731800Y69882700D01*
X114270000Y84112900D02*
X111931100Y84112900D01*
X85703200Y66413300D02*
X87130100Y66413300D01*
X106763200Y78945000D02*
X106763200Y70914100D01*
X87130100Y66413300D02*
X87130100Y67043900D01*
X87130100Y67043900D02*
X88540600Y68454400D01*
X99215372Y72390000D02*
X92476200Y72390000D01*
X92476200Y72390000D02*
X88540600Y68454400D01*
X100008878Y71596494D02*
X99215372Y72390000D01*
X114270000Y83036000D02*
X114270000Y84112900D01*
X100762400Y69882700D02*
X100008878Y70636222D01*
X100008878Y70636222D02*
X100008878Y71596494D01*
X105731800Y69882700D02*
X100762400Y69882700D01*
%TO.N,Net-(Q6-G)*%
X107441100Y70680800D02*
X105214700Y68454400D01*
X103508000Y66747700D02*
X103508000Y66413300D01*
X111495500Y83036000D02*
X107441100Y78981600D01*
X102081100Y66413300D02*
X103508000Y66413300D01*
X105214700Y68454400D02*
X103508000Y66747700D01*
X107441100Y78981600D02*
X107441100Y70680800D01*
X113000000Y83036000D02*
X111495500Y83036000D01*
D65*
%TO.N,Net-(D13-K)*%
X76488000Y65778100D02*
X76488000Y63598500D01*
X79403200Y68693300D02*
X76488000Y65778100D01*
D63*
%TO.N,Net-(D3-A)*%
X116810000Y65536000D02*
X116810000Y63872395D01*
X119419856Y62425501D02*
X118305501Y62425501D01*
X118305501Y62425501D02*
X118281197Y62401197D01*
X116810000Y63872395D02*
X118281197Y62401197D01*
%TO.N,Net-(D2-A)*%
X116201485Y62422225D02*
X115540000Y63083710D01*
X115540000Y63083710D02*
X115540000Y65536000D01*
%TO.N,Net-(U2-IO13)*%
X110673100Y78726000D02*
X110397900Y78726000D01*
X102964000Y89138600D02*
X103627800Y89138600D01*
X107002600Y85763800D02*
X107002600Y82910500D01*
X111750000Y78726000D02*
X110673100Y78726000D01*
X103627800Y89138600D02*
X107002600Y85763800D01*
%TO.N,Net-(D1-A)*%
X110673100Y65556900D02*
X113525274Y62704726D01*
X113525274Y62704726D02*
X113525274Y62538171D01*
X111750000Y69836000D02*
X110673100Y69836000D01*
X110673100Y69836000D02*
X110673100Y65556900D01*
D65*
%TO.N,Net-(D13-A)*%
X77643000Y58686000D02*
X79788000Y60831000D01*
X79788000Y60831000D02*
X79788000Y63598500D01*
D63*
%TO.N,Net-(D1-K)*%
X113525274Y60132769D02*
X113991104Y59666939D01*
X113525274Y60963171D02*
X113525274Y60132769D01*
%TO.N,Net-(D2-K)*%
X116201485Y59048198D02*
X116199527Y59046240D01*
X116201485Y60547225D02*
X116201485Y59048198D01*
%TO.N,Net-(D3-K)*%
X119404543Y58994706D02*
X119404543Y60535188D01*
X119404543Y60535188D02*
X119419856Y60550501D01*
D65*
%TO.N,Net-(D14-K)*%
X95781100Y68693300D02*
X93125000Y66037200D01*
X93125000Y66037200D02*
X93125000Y63598500D01*
%TO.N,Net-(D5-K)*%
X50135000Y24839800D02*
X52586400Y22388400D01*
X61481000Y22388400D02*
X66063300Y26970700D01*
X52586400Y22388400D02*
X55237900Y22388400D01*
X47845050Y23775000D02*
X49070200Y23775000D01*
X50135000Y24839800D02*
X50135000Y26525000D01*
X55237900Y22388400D02*
X61481000Y22388400D01*
X66063300Y28747600D02*
X66063300Y26970700D01*
X40100000Y24130000D02*
X40355700Y23874300D01*
X49070200Y23775000D02*
X50135000Y24839800D01*
X47745750Y23874300D02*
X47845050Y23775000D01*
X40355700Y23874300D02*
X47745750Y23874300D01*
%TO.N,Net-(AC24-IN1-Pin_1)*%
X17145000Y60636000D02*
X33782000Y60636000D01*
X50419000Y60636000D02*
X67056000Y60636000D01*
X10760600Y33877500D02*
X10760600Y38634600D01*
X10766600Y38640600D02*
X17145000Y45019000D01*
X10760600Y38634600D02*
X10766600Y38640600D01*
X17145000Y45019000D02*
X17145000Y60636000D01*
X11360000Y33278100D02*
X10760600Y33877500D01*
X11360000Y25646000D02*
X11360000Y33278100D01*
%TO.N,Net-(D4-K)*%
X29436100Y30476900D02*
X26726900Y27767700D01*
X31413600Y28499400D02*
X45303600Y28499400D01*
X29436100Y30476900D02*
X31413600Y28499400D01*
X30608000Y37076500D02*
X31750000Y35934500D01*
X47278000Y26525000D02*
X45303600Y28499400D01*
X21590000Y38980000D02*
X23493500Y37076500D01*
X23493500Y37076500D02*
X30608000Y37076500D01*
X15060600Y33877500D02*
X16487500Y33877500D01*
X16487500Y33877500D02*
X21590000Y38980000D01*
X31750000Y35934500D02*
X31750000Y32790800D01*
X31750000Y32790800D02*
X29436100Y30476900D01*
X25400000Y27767700D02*
X26726900Y27767700D01*
X48435000Y26525000D02*
X47278000Y26525000D01*
%TO.N,Net-(D14-A)*%
X94280000Y58686000D02*
X94280000Y61453500D01*
X94280000Y61453500D02*
X96425000Y63598500D01*
D63*
%TO.N,Net-(U2-IO5)*%
X118080000Y65536000D02*
X118080000Y66612900D01*
X117699400Y66612900D02*
X117424300Y66888000D01*
X104306900Y87388600D02*
X106029300Y85666200D01*
X102964000Y87388600D02*
X104306900Y87388600D01*
X118080000Y66612900D02*
X117699400Y66612900D01*
%TO.N,Net-(U2-IO4)*%
X102964000Y85638600D02*
X104993300Y85638600D01*
X114270000Y66612900D02*
X114549800Y66892700D01*
X114270000Y65536000D02*
X114270000Y66612900D01*
D65*
%TO.N,Net-(AC24-IN1-Pin_2)*%
X24686200Y21147700D02*
X17714000Y28120000D01*
X21590000Y34680000D02*
X27940000Y34680000D01*
X82222000Y25400000D02*
X77969700Y21147700D01*
X99334100Y23298100D02*
X101436000Y25400000D01*
X21590000Y34680000D02*
X21590000Y31996000D01*
X91829000Y25400000D02*
X89727100Y27501900D01*
X17714000Y28120000D02*
X15240000Y25646000D01*
X89727100Y27501900D02*
X84323900Y27501900D01*
X84323900Y27501900D02*
X82222000Y25400000D01*
X120650000Y25400000D02*
X122751900Y27501900D01*
X77969700Y21147700D02*
X24686200Y21147700D01*
X122751900Y27501900D02*
X128155100Y27501900D01*
X91829000Y25400000D02*
X93930900Y23298100D01*
X128155100Y27501900D02*
X130257000Y25400000D01*
X93930900Y23298100D02*
X99334100Y23298100D01*
X21590000Y31996000D02*
X17714000Y28120000D01*
D63*
%TO.N,Net-(SENSOR1-Pin_1)*%
X129518700Y37535300D02*
X129518700Y35951700D01*
X128262800Y34695800D02*
X127691800Y34695800D01*
X128454400Y38599600D02*
X129518700Y37535300D01*
X105410000Y38100000D02*
X105909600Y38599600D01*
X123114400Y81913500D02*
X123114400Y81631500D01*
X123160000Y81959100D02*
X123114400Y81913500D01*
X127691800Y32868900D02*
X127691800Y34695800D01*
X123160000Y83036000D02*
X123160000Y81959100D01*
X105909600Y38599600D02*
X128454400Y38599600D01*
X129518700Y35951700D02*
X128262800Y34695800D01*
D65*
%TO.N,5V*%
X53535000Y28381900D02*
X51544700Y30372200D01*
X87791100Y56834100D02*
X74857900Y56834100D01*
X71154100Y56834100D02*
X73006000Y58686000D01*
X78776900Y37111800D02*
X79339000Y36549700D01*
X66063300Y38647600D02*
X66063300Y36595700D01*
X83870000Y33260000D02*
X82268100Y33260000D01*
X58220900Y56834100D02*
X71154100Y56834100D01*
X66063300Y38647600D02*
X69365200Y38647600D01*
X59119900Y29652300D02*
X54805400Y29652300D01*
X82268100Y33260000D02*
X82268100Y34966900D01*
X51544700Y30372200D02*
X42429700Y30372200D01*
X38100000Y33100000D02*
X39701900Y33100000D01*
X53535000Y28381900D02*
X53535000Y26525000D01*
X66063300Y36595700D02*
X59119900Y29652300D01*
X54805400Y29652300D02*
X53535000Y28381900D01*
X74857900Y56834100D02*
X73006000Y58686000D01*
X82268100Y34966900D02*
X80685300Y36549700D01*
X89643000Y58686000D02*
X87791100Y56834100D01*
X42429700Y30372200D02*
X39701900Y33100000D01*
X78776900Y37111800D02*
X70901000Y37111800D01*
X56369000Y58686000D02*
X58220900Y56834100D01*
X70901000Y37111800D02*
X69365200Y38647600D01*
X79339000Y36549700D02*
X80685300Y36549700D01*
D63*
%TO.N,Net-(EXT1-Pin_1)*%
X121890000Y81959100D02*
X120983100Y81052200D01*
X109535100Y79686200D02*
X109535100Y79347900D01*
X110901100Y81052200D02*
X109535100Y79686200D01*
X120983100Y81052200D02*
X110901100Y81052200D01*
X121890000Y83036000D02*
X121890000Y81959100D01*
%TO.N,Net-(EXT1-Pin_2)*%
X108792900Y79692100D02*
X108792900Y78612500D01*
X111059900Y81959100D02*
X108792900Y79692100D01*
X120620000Y83036000D02*
X120620000Y81959100D01*
X120620000Y81959100D02*
X111059900Y81959100D01*
%TO.N,Net-(EXT1-Pin_3)*%
X125908000Y67674900D02*
X112962800Y67674900D01*
X126970000Y66612900D02*
X125908000Y67674900D01*
X126970000Y65536000D02*
X126970000Y66612900D01*
%TO.N,Net-(EXT1-Pin_4)*%
X126055800Y68797100D02*
X113104900Y68797100D01*
X128240000Y66612900D02*
X126055800Y68797100D01*
X128240000Y65536000D02*
X128240000Y66612900D01*
%TO.N,Net-(LED1-Pin_1)*%
X102324000Y89138600D02*
X98551400Y89138600D01*
X98551400Y89138600D02*
X98060000Y89630000D01*
%TO.N,Net-(LED1-Pin_2)*%
X98060000Y87630000D02*
X99261900Y87630000D01*
X99503300Y87388600D02*
X99261900Y87630000D01*
X102324000Y87388600D02*
X99503300Y87388600D01*
%TO.N,Net-(LED1-Pin_3)*%
X98060000Y85630000D02*
X99261900Y85630000D01*
X99270500Y85638600D02*
X99261900Y85630000D01*
X102324000Y85638600D02*
X99270500Y85638600D01*
%TO.N,Net-(POWER1-Pin_1)*%
X120555900Y84112900D02*
X126970000Y84112900D01*
X116969100Y45483400D02*
X115067000Y43581300D01*
X120767200Y90495800D02*
X120178700Y90495800D01*
X120265900Y45483400D02*
X116969100Y45483400D01*
X130436900Y88891400D02*
X130436900Y54727500D01*
X117574600Y87094200D02*
X120555900Y84112900D01*
X126852500Y52070000D02*
X127779400Y52070000D01*
X121355600Y90495800D02*
X127655600Y90495800D01*
X130436900Y54727500D02*
X127779400Y52070000D01*
X118815600Y90698300D02*
X119018100Y90495800D01*
X126970000Y83036000D02*
X126970000Y84112900D01*
X120767200Y90495800D02*
X121355600Y90495800D01*
X117574600Y89052300D02*
X117574600Y87094200D01*
X126852500Y52070000D02*
X120265900Y45483400D01*
X119018100Y90495800D02*
X117574600Y89052300D01*
X119018100Y90495800D02*
X120178700Y90495800D01*
X127655600Y90495800D02*
X128832500Y90495800D01*
X128832500Y90495800D02*
X130436900Y88891400D01*
%TO.N,Net-(PROG1-Pin_1)*%
X114009324Y64266000D02*
X113306761Y64266000D01*
X114750000Y63525324D02*
X114009324Y64266000D01*
X114750000Y56528338D02*
X114750000Y63525324D01*
X113306761Y64266000D02*
X113000000Y64572761D01*
X119208338Y52070000D02*
X114750000Y56528338D01*
X120852500Y52070000D02*
X119208338Y52070000D01*
X113000000Y64572761D02*
X113000000Y65536000D01*
%TO.N,Net-(PROG1-Pin_2)*%
X122852500Y52070000D02*
X123779400Y52070000D01*
X124430000Y53647500D02*
X123779400Y52996900D01*
X124430000Y65536000D02*
X124430000Y53647500D01*
X123779400Y52996900D02*
X123779400Y52070000D01*
%TO.N,Net-(PROG1-Pin_3)*%
X125779400Y64379700D02*
X125779400Y52070000D01*
X125700000Y65536000D02*
X125700000Y64459100D01*
X124852500Y52070000D02*
X125779400Y52070000D01*
X125700000Y64459100D02*
X125779400Y64379700D01*
%TD*%
M02*
