%TF.GenerationSoftware,KiCad,Pcbnew,7.0.8*%
%TF.CreationDate,2023-11-09T16:26:40+02:00*%
%TF.ProjectId,sprinklers,73707269-6e6b-46c6-9572-732e6b696361,1.2*%
%TF.SameCoordinates,Original*%
%TF.FileFunction,Paste,Top*%
%TF.FilePolarity,Positive*%
%FSLAX46Y46*%
G04 Gerber Fmt 4.6, Leading zero omitted, Abs format (unit mm)*
G04 Created by KiCad (PCBNEW 7.0.8) date 2023-11-09 16:26:40*
%MOMM*%
%LPD*%
G01*
G04 APERTURE LIST*
G04 Aperture macros list*
%AMRoundRect*
0 Rectangle with rounded corners*
0 $1 Rounding radius*
0 $2 $3 $4 $5 $6 $7 $8 $9 X,Y pos of 4 corners*
0 Add a 4 corners polygon primitive as box body*
4,1,4,$2,$3,$4,$5,$6,$7,$8,$9,$2,$3,0*
0 Add four circle primitives for the rounded corners*
1,1,$1+$1,$2,$3*
1,1,$1+$1,$4,$5*
1,1,$1+$1,$6,$7*
1,1,$1+$1,$8,$9*
0 Add four rect primitives between the rounded corners*
20,1,$1+$1,$2,$3,$4,$5,0*
20,1,$1+$1,$4,$5,$6,$7,0*
20,1,$1+$1,$6,$7,$8,$9,0*
20,1,$1+$1,$8,$9,$2,$3,0*%
%AMFreePoly0*
4,1,41,-22.500000,1.388890,-22.492142,1.520800,-22.447241,1.727208,-22.364088,1.921388,-22.245689,2.096323,-22.096323,2.245689,-21.921388,2.364088,-21.727208,2.447241,-21.520800,2.492142,-21.388890,2.500000,21.388890,2.500000,21.520800,2.492142,21.727208,2.447241,21.921388,2.364088,22.096323,2.245689,22.245689,2.096323,22.364088,1.921388,22.447241,1.727208,22.492142,1.520800,22.500000,1.388890,
22.500000,-1.388890,22.492142,-1.520800,22.447241,-1.727208,22.364088,-1.921388,22.245689,-2.096323,22.096323,-2.245689,21.921388,-2.364088,21.727208,-2.447241,21.520800,-2.492142,21.388890,-2.500000,-21.388890,-2.500000,-21.520800,-2.492142,-21.727208,-2.447241,-21.921388,-2.364088,-22.096323,-2.245689,-22.245689,-2.096323,-22.364088,-1.921388,-22.447241,-1.727208,-22.492142,-1.520800,-22.500000,-1.388890,
-22.500000,1.388890,-22.500000,1.388890,$1*%
G04 Aperture macros list end*
%ADD10RoundRect,0.200000X0.275000X-0.200000X0.275000X0.200000X-0.275000X0.200000X-0.275000X-0.200000X0*%
%ADD11RoundRect,0.250000X-0.900000X1.000000X-0.900000X-1.000000X0.900000X-1.000000X0.900000X1.000000X0*%
%ADD12RoundRect,0.225000X0.250000X-0.225000X0.250000X0.225000X-0.250000X0.225000X-0.250000X-0.225000X0*%
%ADD13RoundRect,0.218750X-0.256250X0.218750X-0.256250X-0.218750X0.256250X-0.218750X0.256250X0.218750X0*%
%ADD14RoundRect,0.243750X-0.456250X0.243750X-0.456250X-0.243750X0.456250X-0.243750X0.456250X0.243750X0*%
%ADD15R,0.900000X1.500000*%
%ADD16R,1.500000X0.900000*%
%ADD17R,0.900000X0.900000*%
%ADD18RoundRect,0.200000X-0.275000X0.200000X-0.275000X-0.200000X0.275000X-0.200000X0.275000X0.200000X0*%
%ADD19RoundRect,0.250000X-1.000000X-0.650000X1.000000X-0.650000X1.000000X0.650000X-1.000000X0.650000X0*%
%ADD20RoundRect,0.250000X0.475000X-0.250000X0.475000X0.250000X-0.475000X0.250000X-0.475000X-0.250000X0*%
%ADD21RoundRect,0.250000X-0.312500X-0.625000X0.312500X-0.625000X0.312500X0.625000X-0.312500X0.625000X0*%
%ADD22RoundRect,0.250000X0.300000X-2.050000X0.300000X2.050000X-0.300000X2.050000X-0.300000X-2.050000X0*%
%ADD23RoundRect,0.250000X2.375000X-2.025000X2.375000X2.025000X-2.375000X2.025000X-2.375000X-2.025000X0*%
%ADD24R,5.400000X2.900000*%
%ADD25R,1.000000X1.700000*%
%ADD26RoundRect,0.250000X0.900000X-1.000000X0.900000X1.000000X-0.900000X1.000000X-0.900000X-1.000000X0*%
%ADD27R,1.500000X2.000000*%
%ADD28R,3.800000X2.000000*%
%ADD29RoundRect,0.243750X0.456250X-0.243750X0.456250X0.243750X-0.456250X0.243750X-0.456250X-0.243750X0*%
%ADD30RoundRect,0.225000X-0.225000X-0.375000X0.225000X-0.375000X0.225000X0.375000X-0.225000X0.375000X0*%
%ADD31R,3.050000X2.750000*%
%ADD32R,2.200000X1.200000*%
%ADD33RoundRect,0.250000X0.625000X-0.312500X0.625000X0.312500X-0.625000X0.312500X-0.625000X-0.312500X0*%
%ADD34RoundRect,0.250000X-0.475000X0.250000X-0.475000X-0.250000X0.475000X-0.250000X0.475000X0.250000X0*%
%ADD35RoundRect,0.250000X-1.000000X-0.900000X1.000000X-0.900000X1.000000X0.900000X-1.000000X0.900000X0*%
%ADD36RoundRect,0.250000X1.000000X0.900000X-1.000000X0.900000X-1.000000X-0.900000X1.000000X-0.900000X0*%
%ADD37RoundRect,0.200000X-0.200000X-0.275000X0.200000X-0.275000X0.200000X0.275000X-0.200000X0.275000X0*%
%ADD38R,2.000000X1.500000*%
%ADD39R,2.000000X3.800000*%
%ADD40FreePoly0,180.000000*%
%ADD41RoundRect,0.250000X1.000000X0.650000X-1.000000X0.650000X-1.000000X-0.650000X1.000000X-0.650000X0*%
%ADD42RoundRect,0.218750X0.256250X-0.218750X0.256250X0.218750X-0.256250X0.218750X-0.256250X-0.218750X0*%
%ADD43R,1.700000X1.000000*%
G04 APERTURE END LIST*
D10*
%TO.C,R11*%
X23847572Y-57336023D03*
X23847572Y-55686023D03*
%TD*%
D11*
%TO.C,D7*%
X49354563Y-57968927D03*
X49354563Y-62268927D03*
%TD*%
D12*
%TO.C,C2*%
X30431963Y-46381927D03*
X30431963Y-44831927D03*
%TD*%
D13*
%TO.C,D1*%
X22949300Y-27812953D03*
X22949300Y-29387953D03*
%TD*%
D10*
%TO.C,R12*%
X26284728Y-57707645D03*
X26284728Y-56057645D03*
%TD*%
D14*
%TO.C,D2*%
X19420783Y-27392230D03*
X19420783Y-29267230D03*
%TD*%
%TO.C,D3*%
X15706868Y-27335024D03*
X15706868Y-29210024D03*
%TD*%
D15*
%TO.C,U2*%
X5336263Y-48817027D03*
X6606263Y-48817027D03*
X7876263Y-48817027D03*
X9146263Y-48817027D03*
X10416263Y-48817027D03*
X11686263Y-48817027D03*
X12956263Y-48817027D03*
X14226263Y-48817027D03*
X15496263Y-48817027D03*
X16766263Y-48817027D03*
X18036263Y-48817027D03*
X19306263Y-48817027D03*
X20576263Y-48817027D03*
X21846263Y-48817027D03*
D16*
X22941263Y-45782027D03*
X22941263Y-44512027D03*
X22941263Y-43242027D03*
X22941263Y-41972027D03*
X22941263Y-40702027D03*
X22941263Y-39432027D03*
X22941263Y-38162027D03*
X22941263Y-36892027D03*
X22941263Y-35622027D03*
X22941263Y-34352027D03*
D15*
X21846263Y-31317027D03*
X20576263Y-31317027D03*
X19306263Y-31317027D03*
X18036263Y-31317027D03*
X16766263Y-31317027D03*
X15496263Y-31317027D03*
X14226263Y-31317027D03*
X12956263Y-31317027D03*
X11686263Y-31317027D03*
X10416263Y-31317027D03*
X9146263Y-31317027D03*
X7876263Y-31317027D03*
X6606263Y-31317027D03*
X5336263Y-31317027D03*
D17*
X11501263Y-42967027D03*
X12901263Y-42967027D03*
X14301263Y-42967027D03*
X11501263Y-41567027D03*
X12901263Y-41567027D03*
X14301263Y-41567027D03*
X11501263Y-40167027D03*
X12901263Y-40167027D03*
X14301263Y-40167027D03*
%TD*%
D18*
%TO.C,R8*%
X21361168Y-25229341D03*
X21361168Y-26879341D03*
%TD*%
D19*
%TO.C,D5*%
X43468163Y-42021227D03*
X47468163Y-42021227D03*
%TD*%
D20*
%TO.C,C3*%
X38158863Y-46556927D03*
X38158863Y-44656927D03*
%TD*%
%TO.C,C8*%
X28097663Y-44142127D03*
X28097663Y-42242127D03*
%TD*%
D21*
%TO.C,R10*%
X6295463Y-53435827D03*
X9220463Y-53435827D03*
%TD*%
D22*
%TO.C,U1*%
X27891463Y-38602327D03*
X29591463Y-38602327D03*
X31291463Y-38602327D03*
D23*
X28516463Y-31877327D03*
X34066463Y-31877327D03*
X28516463Y-27027327D03*
X34066463Y-27027327D03*
D22*
X32991463Y-38602327D03*
X34691463Y-38602327D03*
%TD*%
D11*
%TO.C,D4*%
X53757063Y-48415027D03*
X53757063Y-52715027D03*
%TD*%
D24*
%TO.C,L1*%
X44068463Y-36447527D03*
X44068463Y-26547527D03*
%TD*%
D25*
%TO.C,RST_SW1*%
X17176895Y-58373825D03*
X17176895Y-52073825D03*
X20976895Y-58373825D03*
X20976895Y-52073825D03*
%TD*%
D26*
%TO.C,D6*%
X58605963Y-52760527D03*
X58605963Y-48460527D03*
%TD*%
D20*
%TO.C,C7*%
X25784863Y-44106027D03*
X25784863Y-42206027D03*
%TD*%
D10*
%TO.C,R13*%
X28728428Y-57707645D03*
X28728428Y-56057645D03*
%TD*%
D27*
%TO.C,U3*%
X39685763Y-56254027D03*
X37385763Y-56254027D03*
D28*
X37385763Y-62554027D03*
D27*
X35085763Y-56254027D03*
%TD*%
D26*
%TO.C,D8*%
X43804563Y-62268927D03*
X43804563Y-57968927D03*
%TD*%
D20*
%TO.C,C1*%
X32335963Y-46556927D03*
X32335963Y-44656927D03*
%TD*%
D18*
%TO.C,R9*%
X24720393Y-25181854D03*
X24720393Y-26831854D03*
%TD*%
%TO.C,R7*%
X17543747Y-25273696D03*
X17543747Y-26923696D03*
%TD*%
D12*
%TO.C,C4*%
X36127563Y-46381927D03*
X36127563Y-44831927D03*
%TD*%
D10*
%TO.C,R11*%
X23974410Y-14034096D03*
X23974410Y-12384096D03*
%TD*%
D11*
%TO.C,D7*%
X49481401Y-14667000D03*
X49481401Y-18967000D03*
%TD*%
D12*
%TO.C,C2*%
X30558801Y-3080000D03*
X30558801Y-1530000D03*
%TD*%
D13*
%TO.C,D1*%
X23076138Y15488974D03*
X23076138Y13913974D03*
%TD*%
D10*
%TO.C,R12*%
X26411566Y-14405718D03*
X26411566Y-12755718D03*
%TD*%
D14*
%TO.C,D2*%
X19547621Y15909697D03*
X19547621Y14034697D03*
%TD*%
%TO.C,D3*%
X15833706Y15966903D03*
X15833706Y14091903D03*
%TD*%
D15*
%TO.C,U2*%
X5463101Y-5515100D03*
X6733101Y-5515100D03*
X8003101Y-5515100D03*
X9273101Y-5515100D03*
X10543101Y-5515100D03*
X11813101Y-5515100D03*
X13083101Y-5515100D03*
X14353101Y-5515100D03*
X15623101Y-5515100D03*
X16893101Y-5515100D03*
X18163101Y-5515100D03*
X19433101Y-5515100D03*
X20703101Y-5515100D03*
X21973101Y-5515100D03*
D16*
X23068101Y-2480100D03*
X23068101Y-1210100D03*
X23068101Y59900D03*
X23068101Y1329900D03*
X23068101Y2599900D03*
X23068101Y3869900D03*
X23068101Y5139900D03*
X23068101Y6409900D03*
X23068101Y7679900D03*
X23068101Y8949900D03*
D15*
X21973101Y11984900D03*
X20703101Y11984900D03*
X19433101Y11984900D03*
X18163101Y11984900D03*
X16893101Y11984900D03*
X15623101Y11984900D03*
X14353101Y11984900D03*
X13083101Y11984900D03*
X11813101Y11984900D03*
X10543101Y11984900D03*
X9273101Y11984900D03*
X8003101Y11984900D03*
X6733101Y11984900D03*
X5463101Y11984900D03*
D17*
X11628101Y334900D03*
X13028101Y334900D03*
X14428101Y334900D03*
X11628101Y1734900D03*
X13028101Y1734900D03*
X14428101Y1734900D03*
X11628101Y3134900D03*
X13028101Y3134900D03*
X14428101Y3134900D03*
%TD*%
D18*
%TO.C,R8*%
X21488006Y18072586D03*
X21488006Y16422586D03*
%TD*%
D19*
%TO.C,D5*%
X43595001Y1280700D03*
X47595001Y1280700D03*
%TD*%
D20*
%TO.C,C3*%
X38285701Y-3255000D03*
X38285701Y-1355000D03*
%TD*%
%TO.C,C8*%
X28224501Y-840200D03*
X28224501Y1059800D03*
%TD*%
D21*
%TO.C,R10*%
X6422301Y-10133900D03*
X9347301Y-10133900D03*
%TD*%
D22*
%TO.C,U1*%
X28018301Y4699600D03*
X29718301Y4699600D03*
X31418301Y4699600D03*
D23*
X28643301Y11424600D03*
X34193301Y11424600D03*
X28643301Y16274600D03*
X34193301Y16274600D03*
D22*
X33118301Y4699600D03*
X34818301Y4699600D03*
%TD*%
D11*
%TO.C,D4*%
X53883901Y-5113100D03*
X53883901Y-9413100D03*
%TD*%
D24*
%TO.C,L1*%
X44195301Y6854400D03*
X44195301Y16754400D03*
%TD*%
D25*
%TO.C,RST_SW1*%
X17303733Y-15071898D03*
X17303733Y-8771898D03*
X21103733Y-15071898D03*
X21103733Y-8771898D03*
%TD*%
D26*
%TO.C,D6*%
X58732801Y-9458600D03*
X58732801Y-5158600D03*
%TD*%
D20*
%TO.C,C7*%
X25911701Y-804100D03*
X25911701Y1095900D03*
%TD*%
D10*
%TO.C,R13*%
X28855266Y-14405718D03*
X28855266Y-12755718D03*
%TD*%
D27*
%TO.C,U3*%
X39812601Y-12952100D03*
X37512601Y-12952100D03*
D28*
X37512601Y-19252100D03*
D27*
X35212601Y-12952100D03*
%TD*%
D26*
%TO.C,D8*%
X43931401Y-18967000D03*
X43931401Y-14667000D03*
%TD*%
D20*
%TO.C,C1*%
X32462801Y-3255000D03*
X32462801Y-1355000D03*
%TD*%
D18*
%TO.C,R9*%
X24847231Y18120073D03*
X24847231Y16470073D03*
%TD*%
%TO.C,R7*%
X17670585Y18028231D03*
X17670585Y16378231D03*
%TD*%
D12*
%TO.C,C4*%
X36254401Y-3080000D03*
X36254401Y-1530000D03*
%TD*%
D29*
%TO.C,D3*%
X118883260Y67036667D03*
X118883260Y68911667D03*
%TD*%
D30*
%TO.C,D12*%
X59314404Y70084666D03*
X62614404Y70084666D03*
%TD*%
D31*
%TO.C,Q2*%
X30414304Y73654466D03*
X30414304Y76704466D03*
X27064304Y73654466D03*
X27064304Y76704466D03*
D32*
X35039304Y72899466D03*
X35039304Y77459466D03*
%TD*%
D30*
%TO.C,D11*%
X9358404Y70084666D03*
X12658404Y70084666D03*
%TD*%
D33*
%TO.C,R2*%
X37981804Y74940566D03*
X37981804Y77865566D03*
%TD*%
D12*
%TO.C,C4*%
X94763404Y44175066D03*
X94763404Y45725066D03*
%TD*%
D34*
%TO.C,C7*%
X43665953Y35920740D03*
X43665953Y34020740D03*
%TD*%
D10*
%TO.C,R7*%
X118856501Y63383526D03*
X118856501Y65033526D03*
%TD*%
D35*
%TO.C,D6*%
X10230004Y45126766D03*
X14530004Y45126766D03*
%TD*%
D36*
%TO.C,D4*%
X14524004Y40363666D03*
X10224004Y40363666D03*
%TD*%
D33*
%TO.C,R1*%
X21307804Y74940566D03*
X21307804Y77865566D03*
%TD*%
D31*
%TO.C,Q6*%
X96919504Y73654466D03*
X96919504Y76704466D03*
X93569504Y73654466D03*
X93569504Y76704466D03*
D32*
X101544504Y72899466D03*
X101544504Y77459466D03*
%TD*%
D30*
%TO.C,D9*%
X42677404Y70084666D03*
X45977404Y70084666D03*
%TD*%
D31*
%TO.C,Q3*%
X47123404Y73654466D03*
X47123404Y76704466D03*
X43773404Y73654466D03*
X43773404Y76704466D03*
D32*
X51748404Y72899466D03*
X51748404Y77459466D03*
%TD*%
D37*
%TO.C,R11*%
X101282404Y95624766D03*
X102932404Y95624766D03*
%TD*%
D33*
%TO.C,R4*%
X71330004Y74940566D03*
X71330004Y77865566D03*
%TD*%
D15*
%TO.C,U2*%
X128978404Y89522166D03*
X127708404Y89522166D03*
X126438404Y89522166D03*
X125168404Y89522166D03*
X123898404Y89522166D03*
X122628404Y89522166D03*
X121358404Y89522166D03*
X120088404Y89522166D03*
X118818404Y89522166D03*
X117548404Y89522166D03*
X116278404Y89522166D03*
X115008404Y89522166D03*
X113738404Y89522166D03*
X112468404Y89522166D03*
D16*
X111373404Y86487166D03*
X111373404Y85217166D03*
X111373404Y83947166D03*
X111373404Y82677166D03*
X111373404Y81407166D03*
X111373404Y80137166D03*
X111373404Y78867166D03*
X111373404Y77597166D03*
X111373404Y76327166D03*
X111373404Y75057166D03*
D15*
X112468404Y72022166D03*
X113738404Y72022166D03*
X115008404Y72022166D03*
X116278404Y72022166D03*
X117548404Y72022166D03*
X118818404Y72022166D03*
X120088404Y72022166D03*
X121358404Y72022166D03*
X122628404Y72022166D03*
X123898404Y72022166D03*
X125168404Y72022166D03*
X126438404Y72022166D03*
X127708404Y72022166D03*
X128978404Y72022166D03*
D17*
X122813404Y83672166D03*
X121413404Y83672166D03*
X120013404Y83672166D03*
X122813404Y82272166D03*
X121413404Y82272166D03*
X120013404Y82272166D03*
X122813404Y80872166D03*
X121413404Y80872166D03*
X120013404Y80872166D03*
%TD*%
D26*
%TO.C,D8*%
X27403404Y41166166D03*
X27403404Y45466166D03*
%TD*%
D38*
%TO.C,U3*%
X83333404Y44346166D03*
X83333404Y42046166D03*
D39*
X89633404Y42046166D03*
D38*
X83333404Y39746166D03*
%TD*%
D31*
%TO.C,Q4*%
X63832504Y73654466D03*
X63832504Y76704466D03*
X60482504Y73654466D03*
X60482504Y76704466D03*
D32*
X68457504Y72899466D03*
X68457504Y77459466D03*
%TD*%
D20*
%TO.C,C1*%
X78240304Y43597966D03*
X78240304Y45497966D03*
%TD*%
D10*
%TO.C,R9*%
X112987782Y64049550D03*
X112987782Y65699550D03*
%TD*%
D29*
%TO.C,D2*%
X115664889Y67033391D03*
X115664889Y68908391D03*
%TD*%
D10*
%TO.C,R8*%
X115614774Y63498788D03*
X115614774Y65148788D03*
%TD*%
D40*
%TO.C,*%
X110245512Y-15360111D03*
%TD*%
D20*
%TO.C,C3*%
X92223404Y43344766D03*
X92223404Y45244766D03*
%TD*%
D41*
%TO.C,D5*%
X39563404Y30616166D03*
X35563404Y30616166D03*
%TD*%
D33*
%TO.C,R3*%
X54655904Y74940566D03*
X54655904Y77865566D03*
%TD*%
D31*
%TO.C,Q1*%
X13783404Y73654466D03*
X13783404Y76704466D03*
X10433404Y73654466D03*
X10433404Y76704466D03*
D32*
X18408404Y72899466D03*
X18408404Y77459466D03*
%TD*%
D42*
%TO.C,D1*%
X112986766Y67376587D03*
X112986766Y68951587D03*
%TD*%
D24*
%TO.C,L1*%
X65526704Y35233766D03*
X65526704Y45133766D03*
%TD*%
D30*
%TO.C,D13*%
X75951404Y70084666D03*
X79251404Y70084666D03*
%TD*%
D20*
%TO.C,C8*%
X58649516Y30334639D03*
X58649516Y32234639D03*
%TD*%
D37*
%TO.C,R12*%
X101282404Y93874766D03*
X102932404Y93874766D03*
%TD*%
D33*
%TO.C,R5*%
X88004004Y74940566D03*
X88004004Y77865566D03*
%TD*%
D31*
%TO.C,Q5*%
X80541604Y73654466D03*
X80541604Y76704466D03*
X77191604Y73654466D03*
X77191604Y76704466D03*
D32*
X85166604Y72899466D03*
X85166604Y77459466D03*
%TD*%
D30*
%TO.C,D14*%
X92588404Y70084666D03*
X95888404Y70084666D03*
%TD*%
D11*
%TO.C,D7*%
X21053404Y45466166D03*
X21053404Y41166166D03*
%TD*%
D37*
%TO.C,R13*%
X101282404Y92124766D03*
X102932404Y92124766D03*
%TD*%
D40*
%TO.C,*%
X109871027Y-29636635D03*
%TD*%
D33*
%TO.C,R6*%
X104678104Y74940566D03*
X104678104Y77865566D03*
%TD*%
D43*
%TO.C,RST_SW1*%
X120819004Y96981966D03*
X127119004Y96981966D03*
X120819004Y93181966D03*
X127119004Y93181966D03*
%TD*%
D22*
%TO.C,U1*%
X47898404Y33011166D03*
X49598404Y33011166D03*
X51298404Y33011166D03*
D23*
X48523404Y39736166D03*
X54073404Y39736166D03*
X48523404Y44586166D03*
X54073404Y44586166D03*
D22*
X52998404Y33011166D03*
X54698404Y33011166D03*
%TD*%
D40*
%TO.C,*%
X110206630Y-58668534D03*
%TD*%
D12*
%TO.C,C2*%
X80148704Y43035866D03*
X80148704Y44585866D03*
%TD*%
D40*
%TO.C,*%
X109909909Y13671788D03*
%TD*%
D30*
%TO.C,D10*%
X26040404Y70084666D03*
X29340404Y70084666D03*
%TD*%
D33*
%TO.C,R10*%
X118279004Y94259466D03*
X118279004Y97184466D03*
%TD*%
M02*
