M48
; DRILL file {KiCad 7.0.8} date 2023 November 08, Wednesday 20:04:04
; FORMAT={-:-/ absolute / inch / decimal}
; #@! TF.CreationDate,2023-11-08T20:04:04+02:00
; #@! TF.GenerationSoftware,Kicad,Pcbnew,7.0.8
; #@! TF.FileFunction,Plated,1,2,PTH
FMAT,2
INCH
; #@! TA.AperFunction,Plated,PTH,ComponentDrill
T1C0.0079
; #@! TA.AperFunction,Plated,PTH,ViaDrill
T2C0.0157
; #@! TA.AperFunction,Plated,PTH,ViaDrill
T3C0.0236
; #@! TA.AperFunction,Plated,PTH,ComponentDrill
T4C0.0295
; #@! TA.AperFunction,Plated,PTH,ComponentDrill
T5C0.0315
; #@! TA.AperFunction,Plated,PTH,ComponentDrill
T6C0.0394
; #@! TA.AperFunction,Plated,PTH,ComponentDrill
T7C0.0512
; #@! TA.AperFunction,Plated,PTH,ComponentDrill
T8C0.0689
%
G90
G05
T1
X0.4834Y-0.0845
X0.4834Y-0.1396
X0.4836Y-1.7227
X0.4836Y-1.7778
X0.5109Y-0.0569
X0.5109Y-0.112
X0.5109Y-0.1671
X0.5111Y-1.6951
X0.5111Y-1.7502
X0.5111Y-1.8053
X0.5385Y-0.0845
X0.5385Y-0.1396
X0.5387Y-1.7227
X0.5387Y-1.7778
X0.566Y-0.0569
X0.566Y-0.112
X0.566Y-0.1671
X0.5663Y-1.6951
X0.5663Y-1.7502
X0.5663Y-1.8053
X0.5936Y-0.0845
X0.5936Y-0.1396
X0.5938Y-1.7227
X0.5938Y-1.7778
X4.7461Y3.0113
X4.7461Y2.9561
X4.7736Y3.0388
X4.7736Y2.9837
X4.7736Y2.9286
X4.8012Y3.0113
X4.8012Y2.9561
X4.8287Y3.0388
X4.8287Y2.9837
X4.8287Y2.9286
X4.8563Y3.0113
X4.8563Y2.9561
T2
X0.3908Y0.2373
X0.3911Y-1.4009
X0.4408Y0.2369
X0.4411Y-1.4013
X0.5908Y-0.3438
X0.5911Y-1.982
X0.6226Y-0.2792
X0.6228Y-1.9174
X0.7013Y0.066
X0.7015Y-1.5722
X0.7886Y-0.2379
X0.7889Y-1.8761
X0.8395Y0.237
X0.8398Y-1.4012
X0.9963Y2.6014
X1.0575Y-0.2108
X1.0577Y-1.849
X1.1518Y-0.7073
X1.152Y-2.3455
X1.2657Y2.492
X1.5036Y-0.3682
X1.5038Y-2.0064
X1.5412Y-0.0774
X1.5414Y-1.7156
X1.6Y-0.178
X1.6002Y-1.8162
X1.9564Y2.8414
X2.9001Y-0.8032
X2.9003Y-2.4414
X2.9375Y2.8414
X3.6942Y0.3422
X3.6942Y-0.8008
X3.6944Y-1.296
X3.6944Y-2.439
X3.8942Y0.3422
X3.8942Y-0.8008
X3.8944Y-1.296
X3.8944Y-2.439
X4.0942Y0.3422
X4.0942Y-0.8008
X4.0944Y-1.296
X4.0944Y-2.439
X4.1336Y3.3716
X4.1744Y3.3727
X4.2127Y3.2642
X4.2832Y3.095
X4.2942Y0.3422
X4.2942Y-0.8008
X4.2944Y-1.296
X4.2944Y-2.439
X4.3124Y3.1239
X4.3464Y3.0994
X4.4461Y2.3233
X4.4474Y2.6644
X4.4529Y2.7085
X4.4942Y0.3422
X4.4942Y-0.8008
X4.4944Y-1.296
X4.4944Y-2.439
X4.5098Y2.6336
X4.6154Y2.3243
X4.623Y2.6334
X4.6278Y2.526
X4.6942Y0.3422
X4.6942Y-0.8008
X4.6944Y-1.296
X4.6944Y-2.439
X4.71Y2.2455
X4.847Y3.2138
X4.8942Y0.3422
X4.8942Y-0.8008
X4.8944Y-1.296
X4.8944Y-2.439
X5.0942Y0.3422
X5.0942Y-0.8008
X5.0944Y-1.296
X5.0944Y-2.439
T3
X4.677Y3.1251
T4
X0.3059Y0.4353
X0.3061Y-1.2029
X0.3079Y-0.9172
X0.3081Y-2.5554
X0.3846Y0.4353
X0.3848Y-1.2029
X0.3866Y-0.9172
X0.3868Y-2.5554
X0.4634Y0.4353
X0.4636Y-1.2029
X0.4653Y-0.9172
X0.4656Y-2.5554
X0.5421Y0.4353
X0.5423Y-1.2029
X0.5441Y-0.9172
X0.5443Y-2.5554
X1.0034Y-0.8562
X1.0037Y-2.4944
X1.0822Y-0.8562
X1.0824Y-2.4944
X1.1609Y-0.8562
X1.1611Y-2.4944
X1.2397Y-0.8562
X1.2399Y-2.4944
X1.2649Y-0.483
X1.2651Y-2.1212
X1.3436Y-0.483
X1.3438Y-2.1212
X1.4223Y-0.483
X1.4225Y-2.1212
X1.5011Y-0.483
X1.5013Y-2.1212
X3.65Y3.05
X3.7287Y3.05
X3.8075Y3.05
X3.8606Y3.5287
X3.8606Y3.45
X3.8606Y3.3713
X3.8606Y3.2925
X3.8862Y3.05
X4.5238Y1.72
X4.6025Y1.72
X4.6813Y1.72
X4.7579Y2.05
X4.76Y1.72
X4.8366Y2.05
X4.9154Y2.05
X4.9941Y2.05
T5
X2.1506Y0.5023
X2.1508Y-1.1359
X2.2506Y0.4023
X2.2508Y-1.2359
X2.3506Y0.5023
X2.3508Y-1.1359
X4.05Y1.4
X4.15Y1.5
X4.25Y1.4
T6
X0.4368Y2.3105
X0.9093Y2.3105
X1.0Y1.0932
X1.0Y0.8964
X1.0918Y2.3105
X1.5Y1.5
X1.5Y1.3031
X1.5643Y2.3105
X1.7468Y2.3105
X1.8105Y-0.3281
X1.8105Y-0.5249
X1.8107Y-1.9663
X1.8107Y-2.1631
X2.2193Y2.3105
X2.2514Y0.1139
X2.2514Y-0.0829
X2.2516Y-1.5243
X2.2516Y-1.7211
X2.4018Y2.3105
X2.8743Y2.3105
X3.0568Y2.3105
X3.5293Y2.3105
X3.7118Y2.3105
X4.1843Y2.3105
T7
X0.4368Y1.8302
X0.675Y2.3872
X0.9112Y1.8282
X1.0918Y1.8302
X1.33Y2.3872
X1.5662Y1.8282
X1.7468Y1.8302
X1.985Y2.3872
X2.2212Y1.8282
X2.4018Y1.8302
X2.64Y2.3872
X2.8762Y1.8282
X3.0568Y1.8302
X3.295Y2.3872
X3.5312Y1.8282
X3.7118Y1.8302
X3.95Y2.3872
X4.1862Y1.8282
T8
X0.4472Y1.0097
X0.6Y1.0097
X2.2236Y-0.7351
X2.2236Y-0.8879
X2.2238Y-2.3733
X2.2238Y-2.5261
X3.0843Y1.0
X3.2371Y1.0
X3.4626Y1.0
X3.6153Y1.0
X3.8408Y1.0
X3.9935Y1.0
X4.219Y1.0
X4.3718Y1.0
X4.5972Y1.0
X4.75Y1.0
X4.9755Y1.0
X5.0272Y1.4468
X5.0272Y1.2941
X5.1282Y1.0
T0
M30
