%TF.GenerationSoftware,KiCad,Pcbnew,7.0.8*%
%TF.CreationDate,2023-10-11T10:21:05+03:00*%
%TF.ProjectId,sprinklers,73707269-6e6b-46c6-9572-732e6b696361,rev?*%
%TF.SameCoordinates,Original*%
%TF.FileFunction,Soldermask,Top*%
%TF.FilePolarity,Negative*%
%FSLAX46Y46*%
G04 Gerber Fmt 4.6, Leading zero omitted, Abs format (unit mm)*
G04 Created by KiCad (PCBNEW 7.0.8) date 2023-10-11 10:21:05*
%MOMM*%
%LPD*%
G01*
G04 APERTURE LIST*
G04 Aperture macros list*
%AMRoundRect*
0 Rectangle with rounded corners*
0 $1 Rounding radius*
0 $2 $3 $4 $5 $6 $7 $8 $9 X,Y pos of 4 corners*
0 Add a 4 corners polygon primitive as box body*
4,1,4,$2,$3,$4,$5,$6,$7,$8,$9,$2,$3,0*
0 Add four circle primitives for the rounded corners*
1,1,$1+$1,$2,$3*
1,1,$1+$1,$4,$5*
1,1,$1+$1,$6,$7*
1,1,$1+$1,$8,$9*
0 Add four rect primitives between the rounded corners*
20,1,$1+$1,$2,$3,$4,$5,0*
20,1,$1+$1,$4,$5,$6,$7,0*
20,1,$1+$1,$6,$7,$8,$9,0*
20,1,$1+$1,$8,$9,$2,$3,0*%
G04 Aperture macros list end*
%ADD10C,3.000000*%
%ADD11C,2.500000*%
%ADD12R,1.100000X1.700000*%
%ADD13R,0.700000X1.300000*%
%ADD14R,1.100000X0.850000*%
%ADD15R,0.900000X1.850000*%
%ADD16R,0.650000X1.150000*%
%ADD17R,0.650000X1.350000*%
%ADD18R,1.000000X1.350000*%
%ADD19RoundRect,0.147500X-0.147500X-0.172500X0.147500X-0.172500X0.147500X0.172500X-0.147500X0.172500X0*%
%ADD20RoundRect,0.500000X-1.250000X-0.500000X1.250000X-0.500000X1.250000X0.500000X-1.250000X0.500000X0*%
%ADD21RoundRect,0.250000X-3.250000X-3.250000X3.250000X-3.250000X3.250000X3.250000X-3.250000X3.250000X0*%
%ADD22RoundRect,0.140000X-0.140000X-0.170000X0.140000X-0.170000X0.140000X0.170000X-0.140000X0.170000X0*%
%ADD23R,1.500000X0.900000*%
%ADD24R,0.900000X1.500000*%
%ADD25C,0.600000*%
%ADD26R,3.800000X3.800000*%
%ADD27RoundRect,0.250000X-0.312500X-0.625000X0.312500X-0.625000X0.312500X0.625000X-0.312500X0.625000X0*%
%ADD28RoundRect,0.250000X-1.500000X-0.550000X1.500000X-0.550000X1.500000X0.550000X-1.500000X0.550000X0*%
%ADD29RoundRect,0.250000X-0.850000X-0.350000X0.850000X-0.350000X0.850000X0.350000X-0.850000X0.350000X0*%
%ADD30RoundRect,0.249997X-2.950003X-2.650003X2.950003X-2.650003X2.950003X2.650003X-2.950003X2.650003X0*%
G04 APERTURE END LIST*
D10*
%TO.C,K4*%
X31720000Y-146505000D03*
D11*
X33670000Y-152555000D03*
D10*
X45870000Y-152555000D03*
X45920000Y-140505000D03*
D11*
X33670000Y-140555000D03*
%TD*%
D12*
%TO.C,Q2*%
X51990000Y-42155000D03*
X51990000Y-44355000D03*
X51990000Y-46555000D03*
X60990000Y-42155000D03*
X60990000Y-44355000D03*
X60990000Y-46555000D03*
D13*
X54240000Y-44355000D03*
D14*
X55640000Y-42630000D03*
X55640000Y-43780000D03*
X55640000Y-44930000D03*
X55640000Y-46080000D03*
X58440000Y-42630000D03*
X58440000Y-43780000D03*
X58440000Y-44930000D03*
X58440000Y-46080000D03*
%TD*%
D15*
%TO.C,Q6*%
X52680000Y-165195000D03*
X52680000Y-167545000D03*
X59080000Y-165195000D03*
X59080000Y-167545000D03*
D16*
X54330000Y-165420000D03*
D17*
X54330000Y-167220000D03*
D18*
X55705000Y-165520000D03*
X55705000Y-167220000D03*
%TD*%
D19*
%TO.C,D3*%
X109227500Y-80370000D03*
X110197500Y-80370000D03*
%TD*%
D20*
%TO.C,REF\u002A\u002A*%
X149565000Y-29450000D03*
D21*
X156965000Y-31750000D03*
D20*
X149565000Y-34030000D03*
%TD*%
D22*
%TO.C,C4*%
X108977500Y-74410000D03*
X109937500Y-74410000D03*
%TD*%
%TO.C,C1*%
X108977500Y-68500000D03*
X109937500Y-68500000D03*
%TD*%
D23*
%TO.C,U2*%
X228880000Y-54610000D03*
X228880000Y-55880000D03*
X228880000Y-57150000D03*
X228880000Y-58420000D03*
X228880000Y-59690000D03*
X228880000Y-60960000D03*
X228880000Y-62230000D03*
X228880000Y-63500000D03*
X228880000Y-64770000D03*
X228880000Y-66040000D03*
X228880000Y-67310000D03*
X228880000Y-68580000D03*
X228880000Y-69850000D03*
X228880000Y-71120000D03*
D24*
X231920000Y-72370000D03*
X233190000Y-72370000D03*
X234460000Y-72370000D03*
X235730000Y-72370000D03*
X237000000Y-72370000D03*
X238270000Y-72370000D03*
X239540000Y-72370000D03*
X240810000Y-72370000D03*
X242080000Y-72370000D03*
X243350000Y-72370000D03*
D23*
X246380000Y-71120000D03*
X246380000Y-69850000D03*
X246380000Y-68580000D03*
X246380000Y-67310000D03*
X246380000Y-66040000D03*
X246380000Y-64770000D03*
X246380000Y-63500000D03*
X246380000Y-62230000D03*
X246380000Y-60960000D03*
X246380000Y-59690000D03*
X246380000Y-58420000D03*
X246380000Y-57150000D03*
X246380000Y-55880000D03*
X246380000Y-54610000D03*
D25*
X234730000Y-61630000D03*
X234730000Y-63030000D03*
X235430000Y-60930000D03*
X235430000Y-62330000D03*
X235430000Y-63730000D03*
X236105000Y-61630000D03*
X236105000Y-63030000D03*
D26*
X236130000Y-62330000D03*
D25*
X236830000Y-60930000D03*
X236830000Y-62330000D03*
X236830000Y-63730000D03*
X237530000Y-61630000D03*
X237530000Y-63030000D03*
%TD*%
D10*
%TO.C,K1*%
X29030000Y-26970000D03*
D11*
X30980000Y-33020000D03*
D10*
X43180000Y-33020000D03*
X43230000Y-20970000D03*
D11*
X30980000Y-21020000D03*
%TD*%
D12*
%TO.C,Q1*%
X76120000Y-37075000D03*
X76120000Y-39275000D03*
X76120000Y-41475000D03*
X85120000Y-37075000D03*
X85120000Y-39275000D03*
X85120000Y-41475000D03*
D13*
X78370000Y-39275000D03*
D14*
X79770000Y-37550000D03*
X79770000Y-38700000D03*
X79770000Y-39850000D03*
X79770000Y-41000000D03*
X82570000Y-37550000D03*
X82570000Y-38700000D03*
X82570000Y-39850000D03*
X82570000Y-41000000D03*
%TD*%
D19*
%TO.C,D2*%
X109227500Y-78380000D03*
X110197500Y-78380000D03*
%TD*%
D27*
%TO.C,R3*%
X103755000Y-75740000D03*
X106680000Y-75740000D03*
%TD*%
D15*
%TO.C,Q3*%
X52680000Y-142335000D03*
X52680000Y-144685000D03*
X59080000Y-142335000D03*
X59080000Y-144685000D03*
D16*
X54330000Y-142560000D03*
D17*
X54330000Y-144360000D03*
D18*
X55705000Y-142660000D03*
X55705000Y-144360000D03*
%TD*%
D22*
%TO.C,C3*%
X108977500Y-72440000D03*
X109937500Y-72440000D03*
%TD*%
D27*
%TO.C,R8*%
X103755000Y-85610000D03*
X106680000Y-85610000D03*
%TD*%
D10*
%TO.C,K5*%
X31720000Y-163455000D03*
D11*
X33670000Y-169505000D03*
D10*
X45870000Y-169505000D03*
X45920000Y-157455000D03*
D11*
X33670000Y-157505000D03*
%TD*%
D27*
%TO.C,R1*%
X103755000Y-69160000D03*
X106680000Y-69160000D03*
%TD*%
D19*
%TO.C,D1*%
X109227500Y-76390000D03*
X110197500Y-76390000D03*
%TD*%
D12*
%TO.C,Q7*%
X39260000Y-42590000D03*
X39260000Y-44790000D03*
X39260000Y-46990000D03*
X48260000Y-42590000D03*
X48260000Y-44790000D03*
X48260000Y-46990000D03*
D13*
X41510000Y-44790000D03*
D14*
X42910000Y-43065000D03*
X42910000Y-44215000D03*
X42910000Y-45365000D03*
X42910000Y-46515000D03*
X45710000Y-43065000D03*
X45710000Y-44215000D03*
X45710000Y-45365000D03*
X45710000Y-46515000D03*
%TD*%
D27*
%TO.C,R2*%
X103755000Y-72450000D03*
X106680000Y-72450000D03*
%TD*%
%TO.C,R7*%
X103755000Y-82320000D03*
X106680000Y-82320000D03*
%TD*%
D15*
%TO.C,Q4*%
X52020000Y-151120000D03*
X52020000Y-153470000D03*
X58420000Y-151120000D03*
X58420000Y-153470000D03*
D16*
X53670000Y-151345000D03*
D17*
X53670000Y-153145000D03*
D18*
X55045000Y-151445000D03*
X55045000Y-153145000D03*
%TD*%
D27*
%TO.C,R9*%
X103755000Y-88900000D03*
X106680000Y-88900000D03*
%TD*%
D15*
%TO.C,Q5*%
X52020000Y-157570000D03*
X52020000Y-159920000D03*
X58420000Y-157570000D03*
X58420000Y-159920000D03*
D16*
X53670000Y-157795000D03*
D17*
X53670000Y-159595000D03*
D18*
X55045000Y-157895000D03*
X55045000Y-159595000D03*
%TD*%
D27*
%TO.C,R6*%
X103755000Y-79030000D03*
X106680000Y-79030000D03*
%TD*%
D10*
%TO.C,K6*%
X31720000Y-180405000D03*
D11*
X33670000Y-186455000D03*
D10*
X45870000Y-186455000D03*
X45920000Y-174405000D03*
D11*
X33670000Y-174455000D03*
%TD*%
D10*
%TO.C,K2*%
X32140000Y-109220000D03*
D11*
X34090000Y-115270000D03*
D10*
X46290000Y-115270000D03*
X46340000Y-103220000D03*
D11*
X34090000Y-103270000D03*
%TD*%
D28*
%TO.C,U1*%
X65780000Y-64770000D03*
X71380000Y-64770000D03*
%TD*%
D29*
%TO.C,REF\u002A\u002A*%
X135930000Y-29470000D03*
D30*
X142230000Y-31750000D03*
D29*
X135930000Y-34030000D03*
%TD*%
D27*
%TO.C,R5*%
X64577500Y-49530000D03*
X67502500Y-49530000D03*
%TD*%
D10*
%TO.C,K3*%
X31720000Y-129555000D03*
D11*
X33670000Y-135605000D03*
D10*
X45870000Y-135605000D03*
X45920000Y-123555000D03*
D11*
X33670000Y-123605000D03*
%TD*%
D27*
%TO.C,R4*%
X99945000Y-22860000D03*
X102870000Y-22860000D03*
%TD*%
D22*
%TO.C,C2*%
X108977500Y-70470000D03*
X109937500Y-70470000D03*
%TD*%
M02*
