%TF.GenerationSoftware,KiCad,Pcbnew,7.0.8*%
%TF.CreationDate,2023-10-11T10:21:05+03:00*%
%TF.ProjectId,sprinklers,73707269-6e6b-46c6-9572-732e6b696361,rev?*%
%TF.SameCoordinates,Original*%
%TF.FileFunction,Paste,Top*%
%TF.FilePolarity,Positive*%
%FSLAX46Y46*%
G04 Gerber Fmt 4.6, Leading zero omitted, Abs format (unit mm)*
G04 Created by KiCad (PCBNEW 7.0.8) date 2023-10-11 10:21:05*
%MOMM*%
%LPD*%
G01*
G04 APERTURE LIST*
G04 Aperture macros list*
%AMRoundRect*
0 Rectangle with rounded corners*
0 $1 Rounding radius*
0 $2 $3 $4 $5 $6 $7 $8 $9 X,Y pos of 4 corners*
0 Add a 4 corners polygon primitive as box body*
4,1,4,$2,$3,$4,$5,$6,$7,$8,$9,$2,$3,0*
0 Add four circle primitives for the rounded corners*
1,1,$1+$1,$2,$3*
1,1,$1+$1,$4,$5*
1,1,$1+$1,$6,$7*
1,1,$1+$1,$8,$9*
0 Add four rect primitives between the rounded corners*
20,1,$1+$1,$2,$3,$4,$5,0*
20,1,$1+$1,$4,$5,$6,$7,0*
20,1,$1+$1,$6,$7,$8,$9,0*
20,1,$1+$1,$8,$9,$2,$3,0*%
G04 Aperture macros list end*
%ADD10R,1.100000X1.700000*%
%ADD11R,0.700000X1.300000*%
%ADD12R,1.100000X0.850000*%
%ADD13R,0.900000X1.850000*%
%ADD14R,0.650000X1.150000*%
%ADD15R,0.650000X1.350000*%
%ADD16R,1.000000X1.350000*%
%ADD17RoundRect,0.147500X-0.147500X-0.172500X0.147500X-0.172500X0.147500X0.172500X-0.147500X0.172500X0*%
%ADD18RoundRect,0.250000X-1.400000X1.400000X-1.400000X-1.400000X1.400000X-1.400000X1.400000X1.400000X0*%
%ADD19RoundRect,0.500000X-1.250000X-0.500000X1.250000X-0.500000X1.250000X0.500000X-1.250000X0.500000X0*%
%ADD20RoundRect,0.140000X-0.140000X-0.170000X0.140000X-0.170000X0.140000X0.170000X-0.140000X0.170000X0*%
%ADD21R,1.500000X0.900000*%
%ADD22R,0.900000X1.500000*%
%ADD23R,0.900000X0.900000*%
%ADD24RoundRect,0.250000X-0.312500X-0.625000X0.312500X-0.625000X0.312500X0.625000X-0.312500X0.625000X0*%
%ADD25RoundRect,0.250000X-1.500000X-0.550000X1.500000X-0.550000X1.500000X0.550000X-1.500000X0.550000X0*%
%ADD26RoundRect,0.250000X-0.850000X-0.350000X0.850000X-0.350000X0.850000X0.350000X-0.850000X0.350000X0*%
%ADD27RoundRect,0.250000X-1.275000X-1.125000X1.275000X-1.125000X1.275000X1.125000X-1.275000X1.125000X0*%
G04 APERTURE END LIST*
D10*
%TO.C,Q2*%
X51990000Y-42155000D03*
X51990000Y-44355000D03*
X51990000Y-46555000D03*
X60990000Y-42155000D03*
X60990000Y-44355000D03*
X60990000Y-46555000D03*
D11*
X54240000Y-44355000D03*
D12*
X55640000Y-42630000D03*
X55640000Y-43780000D03*
X55640000Y-44930000D03*
X55640000Y-46080000D03*
X58440000Y-42630000D03*
X58440000Y-43780000D03*
X58440000Y-44930000D03*
X58440000Y-46080000D03*
%TD*%
D13*
%TO.C,Q6*%
X52680000Y-165195000D03*
X52680000Y-167545000D03*
X59080000Y-165195000D03*
X59080000Y-167545000D03*
D14*
X54330000Y-165420000D03*
D15*
X54330000Y-167220000D03*
D16*
X55705000Y-165520000D03*
X55705000Y-167220000D03*
%TD*%
D17*
%TO.C,D3*%
X109227500Y-80370000D03*
X110197500Y-80370000D03*
%TD*%
D18*
%TO.C,REF\u002A\u002A*%
X155190000Y-29950000D03*
X155190000Y-33550000D03*
X158740000Y-29950000D03*
X158740000Y-33550000D03*
D19*
X149565000Y-29450000D03*
X149565000Y-34030000D03*
%TD*%
D20*
%TO.C,C4*%
X108977500Y-74410000D03*
X109937500Y-74410000D03*
%TD*%
%TO.C,C1*%
X108977500Y-68500000D03*
X109937500Y-68500000D03*
%TD*%
D21*
%TO.C,U2*%
X228880000Y-54610000D03*
X228880000Y-55880000D03*
X228880000Y-57150000D03*
X228880000Y-58420000D03*
X228880000Y-59690000D03*
X228880000Y-60960000D03*
X228880000Y-62230000D03*
X228880000Y-63500000D03*
X228880000Y-64770000D03*
X228880000Y-66040000D03*
X228880000Y-67310000D03*
X228880000Y-68580000D03*
X228880000Y-69850000D03*
X228880000Y-71120000D03*
D22*
X231920000Y-72370000D03*
X233190000Y-72370000D03*
X234460000Y-72370000D03*
X235730000Y-72370000D03*
X237000000Y-72370000D03*
X238270000Y-72370000D03*
X239540000Y-72370000D03*
X240810000Y-72370000D03*
X242080000Y-72370000D03*
X243350000Y-72370000D03*
D21*
X246380000Y-71120000D03*
X246380000Y-69850000D03*
X246380000Y-68580000D03*
X246380000Y-67310000D03*
X246380000Y-66040000D03*
X246380000Y-64770000D03*
X246380000Y-63500000D03*
X246380000Y-62230000D03*
X246380000Y-60960000D03*
X246380000Y-59690000D03*
X246380000Y-58420000D03*
X246380000Y-57150000D03*
X246380000Y-55880000D03*
X246380000Y-54610000D03*
D23*
X234730000Y-60930000D03*
X234730000Y-62330000D03*
X234730000Y-63730000D03*
X236130000Y-60930000D03*
X236130000Y-62330000D03*
X236130000Y-63730000D03*
X237530000Y-60930000D03*
X237530000Y-62330000D03*
X237530000Y-63730000D03*
%TD*%
D10*
%TO.C,Q1*%
X76120000Y-37075000D03*
X76120000Y-39275000D03*
X76120000Y-41475000D03*
X85120000Y-37075000D03*
X85120000Y-39275000D03*
X85120000Y-41475000D03*
D11*
X78370000Y-39275000D03*
D12*
X79770000Y-37550000D03*
X79770000Y-38700000D03*
X79770000Y-39850000D03*
X79770000Y-41000000D03*
X82570000Y-37550000D03*
X82570000Y-38700000D03*
X82570000Y-39850000D03*
X82570000Y-41000000D03*
%TD*%
D17*
%TO.C,D2*%
X109227500Y-78380000D03*
X110197500Y-78380000D03*
%TD*%
D24*
%TO.C,R3*%
X103755000Y-75740000D03*
X106680000Y-75740000D03*
%TD*%
D13*
%TO.C,Q3*%
X52680000Y-142335000D03*
X52680000Y-144685000D03*
X59080000Y-142335000D03*
X59080000Y-144685000D03*
D14*
X54330000Y-142560000D03*
D15*
X54330000Y-144360000D03*
D16*
X55705000Y-142660000D03*
X55705000Y-144360000D03*
%TD*%
D20*
%TO.C,C3*%
X108977500Y-72440000D03*
X109937500Y-72440000D03*
%TD*%
D24*
%TO.C,R8*%
X103755000Y-85610000D03*
X106680000Y-85610000D03*
%TD*%
%TO.C,R1*%
X103755000Y-69160000D03*
X106680000Y-69160000D03*
%TD*%
D17*
%TO.C,D1*%
X109227500Y-76390000D03*
X110197500Y-76390000D03*
%TD*%
D10*
%TO.C,Q7*%
X39260000Y-42590000D03*
X39260000Y-44790000D03*
X39260000Y-46990000D03*
X48260000Y-42590000D03*
X48260000Y-44790000D03*
X48260000Y-46990000D03*
D11*
X41510000Y-44790000D03*
D12*
X42910000Y-43065000D03*
X42910000Y-44215000D03*
X42910000Y-45365000D03*
X42910000Y-46515000D03*
X45710000Y-43065000D03*
X45710000Y-44215000D03*
X45710000Y-45365000D03*
X45710000Y-46515000D03*
%TD*%
D24*
%TO.C,R2*%
X103755000Y-72450000D03*
X106680000Y-72450000D03*
%TD*%
%TO.C,R7*%
X103755000Y-82320000D03*
X106680000Y-82320000D03*
%TD*%
D13*
%TO.C,Q4*%
X52020000Y-151120000D03*
X52020000Y-153470000D03*
X58420000Y-151120000D03*
X58420000Y-153470000D03*
D14*
X53670000Y-151345000D03*
D15*
X53670000Y-153145000D03*
D16*
X55045000Y-151445000D03*
X55045000Y-153145000D03*
%TD*%
D24*
%TO.C,R9*%
X103755000Y-88900000D03*
X106680000Y-88900000D03*
%TD*%
D13*
%TO.C,Q5*%
X52020000Y-157570000D03*
X52020000Y-159920000D03*
X58420000Y-157570000D03*
X58420000Y-159920000D03*
D14*
X53670000Y-157795000D03*
D15*
X53670000Y-159595000D03*
D16*
X55045000Y-157895000D03*
X55045000Y-159595000D03*
%TD*%
D24*
%TO.C,R6*%
X103755000Y-79030000D03*
X106680000Y-79030000D03*
%TD*%
D25*
%TO.C,U1*%
X65780000Y-64770000D03*
X71380000Y-64770000D03*
%TD*%
D26*
%TO.C,REF\u002A\u002A*%
X135930000Y-29470000D03*
D27*
X140555000Y-30225000D03*
X140555000Y-33275000D03*
X143905000Y-30225000D03*
X143905000Y-33275000D03*
D26*
X135930000Y-34030000D03*
%TD*%
D24*
%TO.C,R5*%
X64577500Y-49530000D03*
X67502500Y-49530000D03*
%TD*%
%TO.C,R4*%
X99945000Y-22860000D03*
X102870000Y-22860000D03*
%TD*%
D20*
%TO.C,C2*%
X108977500Y-70470000D03*
X109937500Y-70470000D03*
%TD*%
M02*
