M48
; DRILL file {KiCad 7.0.8} date 2023 October 11, Wednesday 10:21:07
; FORMAT={-:-/ absolute / inch / decimal}
; #@! TF.CreationDate,2023-10-11T10:21:07+03:00
; #@! TF.GenerationSoftware,Kicad,Pcbnew,7.0.8
; #@! TF.FileFunction,Plated,1,2,PTH
FMAT,2
INCH
; #@! TA.AperFunction,Plated,PTH,ComponentDrill
T1C0.0079
; #@! TA.AperFunction,Plated,PTH,ComponentDrill
T2C0.0394
; #@! TA.AperFunction,Plated,PTH,ComponentDrill
T3C0.0512
%
G90
G05
T1
X9.2413Y-2.4264
X9.2413Y-2.4815
X9.2689Y-2.3988
X9.2689Y-2.4539
X9.2689Y-2.5091
X9.2955Y-2.4264
X9.2955Y-2.4815
X9.324Y-2.3988
X9.324Y-2.4539
X9.324Y-2.5091
X9.3516Y-2.4264
X9.3516Y-2.4815
T2
X1.2197Y-0.8276
X1.2197Y-1.3
X1.3256Y-4.8663
X1.3256Y-5.3388
X1.3256Y-5.5337
X1.3256Y-6.0061
X1.3256Y-6.201
X1.3256Y-6.6734
X1.3256Y-6.8683
X1.3256Y-7.3407
X1.3421Y-4.0657
X1.3421Y-4.5382
T3
X1.1429Y-1.0618
X1.2488Y-5.1006
X1.2488Y-5.7679
X1.2488Y-6.4352
X1.2488Y-7.1026
X1.2654Y-4.3
X1.7Y-1.3
X1.702Y-0.8256
X1.8059Y-5.3388
X1.8059Y-6.0061
X1.8059Y-6.6734
X1.8059Y-7.3407
X1.8079Y-4.8644
X1.8079Y-5.5317
X1.8079Y-6.199
X1.8079Y-6.8663
X1.8224Y-4.5382
X1.8244Y-4.0638
T0
M30
