%TF.GenerationSoftware,KiCad,Pcbnew,7.0.8*%
%TF.CreationDate,2023-10-11T10:21:05+03:00*%
%TF.ProjectId,sprinklers,73707269-6e6b-46c6-9572-732e6b696361,rev?*%
%TF.SameCoordinates,Original*%
%TF.FileFunction,Legend,Top*%
%TF.FilePolarity,Positive*%
%FSLAX46Y46*%
G04 Gerber Fmt 4.6, Leading zero omitted, Abs format (unit mm)*
G04 Created by KiCad (PCBNEW 7.0.8) date 2023-10-11 10:21:05*
%MOMM*%
%LPD*%
G01*
G04 APERTURE LIST*
%ADD10C,0.150000*%
%ADD11C,0.120000*%
%ADD12C,0.100000*%
G04 APERTURE END LIST*
D10*
X39081905Y-156159819D02*
X39081905Y-155159819D01*
X39653333Y-156159819D02*
X39224762Y-155588390D01*
X39653333Y-155159819D02*
X39081905Y-155731247D01*
X40510476Y-155493152D02*
X40510476Y-156159819D01*
X40272381Y-155112200D02*
X40034286Y-155826485D01*
X40034286Y-155826485D02*
X40653333Y-155826485D01*
X56394761Y-40405057D02*
X56299523Y-40357438D01*
X56299523Y-40357438D02*
X56204285Y-40262200D01*
X56204285Y-40262200D02*
X56061428Y-40119342D01*
X56061428Y-40119342D02*
X55966190Y-40071723D01*
X55966190Y-40071723D02*
X55870952Y-40071723D01*
X55918571Y-40309819D02*
X55823333Y-40262200D01*
X55823333Y-40262200D02*
X55728095Y-40166961D01*
X55728095Y-40166961D02*
X55680476Y-39976485D01*
X55680476Y-39976485D02*
X55680476Y-39643152D01*
X55680476Y-39643152D02*
X55728095Y-39452676D01*
X55728095Y-39452676D02*
X55823333Y-39357438D01*
X55823333Y-39357438D02*
X55918571Y-39309819D01*
X55918571Y-39309819D02*
X56109047Y-39309819D01*
X56109047Y-39309819D02*
X56204285Y-39357438D01*
X56204285Y-39357438D02*
X56299523Y-39452676D01*
X56299523Y-39452676D02*
X56347142Y-39643152D01*
X56347142Y-39643152D02*
X56347142Y-39976485D01*
X56347142Y-39976485D02*
X56299523Y-40166961D01*
X56299523Y-40166961D02*
X56204285Y-40262200D01*
X56204285Y-40262200D02*
X56109047Y-40309819D01*
X56109047Y-40309819D02*
X55918571Y-40309819D01*
X56728095Y-39405057D02*
X56775714Y-39357438D01*
X56775714Y-39357438D02*
X56870952Y-39309819D01*
X56870952Y-39309819D02*
X57109047Y-39309819D01*
X57109047Y-39309819D02*
X57204285Y-39357438D01*
X57204285Y-39357438D02*
X57251904Y-39405057D01*
X57251904Y-39405057D02*
X57299523Y-39500295D01*
X57299523Y-39500295D02*
X57299523Y-39595533D01*
X57299523Y-39595533D02*
X57251904Y-39738390D01*
X57251904Y-39738390D02*
X56680476Y-40309819D01*
X56680476Y-40309819D02*
X57299523Y-40309819D01*
X55784761Y-170420057D02*
X55689523Y-170372438D01*
X55689523Y-170372438D02*
X55594285Y-170277200D01*
X55594285Y-170277200D02*
X55451428Y-170134342D01*
X55451428Y-170134342D02*
X55356190Y-170086723D01*
X55356190Y-170086723D02*
X55260952Y-170086723D01*
X55308571Y-170324819D02*
X55213333Y-170277200D01*
X55213333Y-170277200D02*
X55118095Y-170181961D01*
X55118095Y-170181961D02*
X55070476Y-169991485D01*
X55070476Y-169991485D02*
X55070476Y-169658152D01*
X55070476Y-169658152D02*
X55118095Y-169467676D01*
X55118095Y-169467676D02*
X55213333Y-169372438D01*
X55213333Y-169372438D02*
X55308571Y-169324819D01*
X55308571Y-169324819D02*
X55499047Y-169324819D01*
X55499047Y-169324819D02*
X55594285Y-169372438D01*
X55594285Y-169372438D02*
X55689523Y-169467676D01*
X55689523Y-169467676D02*
X55737142Y-169658152D01*
X55737142Y-169658152D02*
X55737142Y-169991485D01*
X55737142Y-169991485D02*
X55689523Y-170181961D01*
X55689523Y-170181961D02*
X55594285Y-170277200D01*
X55594285Y-170277200D02*
X55499047Y-170324819D01*
X55499047Y-170324819D02*
X55308571Y-170324819D01*
X56594285Y-169324819D02*
X56403809Y-169324819D01*
X56403809Y-169324819D02*
X56308571Y-169372438D01*
X56308571Y-169372438D02*
X56260952Y-169420057D01*
X56260952Y-169420057D02*
X56165714Y-169562914D01*
X56165714Y-169562914D02*
X56118095Y-169753390D01*
X56118095Y-169753390D02*
X56118095Y-170134342D01*
X56118095Y-170134342D02*
X56165714Y-170229580D01*
X56165714Y-170229580D02*
X56213333Y-170277200D01*
X56213333Y-170277200D02*
X56308571Y-170324819D01*
X56308571Y-170324819D02*
X56499047Y-170324819D01*
X56499047Y-170324819D02*
X56594285Y-170277200D01*
X56594285Y-170277200D02*
X56641904Y-170229580D01*
X56641904Y-170229580D02*
X56689523Y-170134342D01*
X56689523Y-170134342D02*
X56689523Y-169896247D01*
X56689523Y-169896247D02*
X56641904Y-169801009D01*
X56641904Y-169801009D02*
X56594285Y-169753390D01*
X56594285Y-169753390D02*
X56499047Y-169705771D01*
X56499047Y-169705771D02*
X56308571Y-169705771D01*
X56308571Y-169705771D02*
X56213333Y-169753390D01*
X56213333Y-169753390D02*
X56165714Y-169801009D01*
X56165714Y-169801009D02*
X56118095Y-169896247D01*
X108974405Y-79654819D02*
X108974405Y-78654819D01*
X108974405Y-78654819D02*
X109212500Y-78654819D01*
X109212500Y-78654819D02*
X109355357Y-78702438D01*
X109355357Y-78702438D02*
X109450595Y-78797676D01*
X109450595Y-78797676D02*
X109498214Y-78892914D01*
X109498214Y-78892914D02*
X109545833Y-79083390D01*
X109545833Y-79083390D02*
X109545833Y-79226247D01*
X109545833Y-79226247D02*
X109498214Y-79416723D01*
X109498214Y-79416723D02*
X109450595Y-79511961D01*
X109450595Y-79511961D02*
X109355357Y-79607200D01*
X109355357Y-79607200D02*
X109212500Y-79654819D01*
X109212500Y-79654819D02*
X108974405Y-79654819D01*
X109879167Y-78654819D02*
X110498214Y-78654819D01*
X110498214Y-78654819D02*
X110164881Y-79035771D01*
X110164881Y-79035771D02*
X110307738Y-79035771D01*
X110307738Y-79035771D02*
X110402976Y-79083390D01*
X110402976Y-79083390D02*
X110450595Y-79131009D01*
X110450595Y-79131009D02*
X110498214Y-79226247D01*
X110498214Y-79226247D02*
X110498214Y-79464342D01*
X110498214Y-79464342D02*
X110450595Y-79559580D01*
X110450595Y-79559580D02*
X110402976Y-79607200D01*
X110402976Y-79607200D02*
X110307738Y-79654819D01*
X110307738Y-79654819D02*
X110022024Y-79654819D01*
X110022024Y-79654819D02*
X109926786Y-79607200D01*
X109926786Y-79607200D02*
X109879167Y-79559580D01*
X152231666Y-27654819D02*
X151898333Y-27178628D01*
X151660238Y-27654819D02*
X151660238Y-26654819D01*
X151660238Y-26654819D02*
X152041190Y-26654819D01*
X152041190Y-26654819D02*
X152136428Y-26702438D01*
X152136428Y-26702438D02*
X152184047Y-26750057D01*
X152184047Y-26750057D02*
X152231666Y-26845295D01*
X152231666Y-26845295D02*
X152231666Y-26988152D01*
X152231666Y-26988152D02*
X152184047Y-27083390D01*
X152184047Y-27083390D02*
X152136428Y-27131009D01*
X152136428Y-27131009D02*
X152041190Y-27178628D01*
X152041190Y-27178628D02*
X151660238Y-27178628D01*
X152660238Y-27131009D02*
X152993571Y-27131009D01*
X153136428Y-27654819D02*
X152660238Y-27654819D01*
X152660238Y-27654819D02*
X152660238Y-26654819D01*
X152660238Y-26654819D02*
X153136428Y-26654819D01*
X153898333Y-27131009D02*
X153565000Y-27131009D01*
X153565000Y-27654819D02*
X153565000Y-26654819D01*
X153565000Y-26654819D02*
X154041190Y-26654819D01*
X154565000Y-26654819D02*
X154565000Y-26892914D01*
X154326905Y-26797676D02*
X154565000Y-26892914D01*
X154565000Y-26892914D02*
X154803095Y-26797676D01*
X154422143Y-27083390D02*
X154565000Y-26892914D01*
X154565000Y-26892914D02*
X154707857Y-27083390D01*
X155326905Y-26654819D02*
X155326905Y-26892914D01*
X155088810Y-26797676D02*
X155326905Y-26892914D01*
X155326905Y-26892914D02*
X155565000Y-26797676D01*
X155184048Y-27083390D02*
X155326905Y-26892914D01*
X155326905Y-26892914D02*
X155469762Y-27083390D01*
X109290833Y-73609580D02*
X109243214Y-73657200D01*
X109243214Y-73657200D02*
X109100357Y-73704819D01*
X109100357Y-73704819D02*
X109005119Y-73704819D01*
X109005119Y-73704819D02*
X108862262Y-73657200D01*
X108862262Y-73657200D02*
X108767024Y-73561961D01*
X108767024Y-73561961D02*
X108719405Y-73466723D01*
X108719405Y-73466723D02*
X108671786Y-73276247D01*
X108671786Y-73276247D02*
X108671786Y-73133390D01*
X108671786Y-73133390D02*
X108719405Y-72942914D01*
X108719405Y-72942914D02*
X108767024Y-72847676D01*
X108767024Y-72847676D02*
X108862262Y-72752438D01*
X108862262Y-72752438D02*
X109005119Y-72704819D01*
X109005119Y-72704819D02*
X109100357Y-72704819D01*
X109100357Y-72704819D02*
X109243214Y-72752438D01*
X109243214Y-72752438D02*
X109290833Y-72800057D01*
X110147976Y-73038152D02*
X110147976Y-73704819D01*
X109909881Y-72657200D02*
X109671786Y-73371485D01*
X109671786Y-73371485D02*
X110290833Y-73371485D01*
X109290833Y-67699580D02*
X109243214Y-67747200D01*
X109243214Y-67747200D02*
X109100357Y-67794819D01*
X109100357Y-67794819D02*
X109005119Y-67794819D01*
X109005119Y-67794819D02*
X108862262Y-67747200D01*
X108862262Y-67747200D02*
X108767024Y-67651961D01*
X108767024Y-67651961D02*
X108719405Y-67556723D01*
X108719405Y-67556723D02*
X108671786Y-67366247D01*
X108671786Y-67366247D02*
X108671786Y-67223390D01*
X108671786Y-67223390D02*
X108719405Y-67032914D01*
X108719405Y-67032914D02*
X108767024Y-66937676D01*
X108767024Y-66937676D02*
X108862262Y-66842438D01*
X108862262Y-66842438D02*
X109005119Y-66794819D01*
X109005119Y-66794819D02*
X109100357Y-66794819D01*
X109100357Y-66794819D02*
X109243214Y-66842438D01*
X109243214Y-66842438D02*
X109290833Y-66890057D01*
X110243214Y-67794819D02*
X109671786Y-67794819D01*
X109957500Y-67794819D02*
X109957500Y-66794819D01*
X109957500Y-66794819D02*
X109862262Y-66937676D01*
X109862262Y-66937676D02*
X109767024Y-67032914D01*
X109767024Y-67032914D02*
X109671786Y-67080533D01*
X226474819Y-72051904D02*
X227284342Y-72051904D01*
X227284342Y-72051904D02*
X227379580Y-72004285D01*
X227379580Y-72004285D02*
X227427200Y-71956666D01*
X227427200Y-71956666D02*
X227474819Y-71861428D01*
X227474819Y-71861428D02*
X227474819Y-71670952D01*
X227474819Y-71670952D02*
X227427200Y-71575714D01*
X227427200Y-71575714D02*
X227379580Y-71528095D01*
X227379580Y-71528095D02*
X227284342Y-71480476D01*
X227284342Y-71480476D02*
X226474819Y-71480476D01*
X226570057Y-71051904D02*
X226522438Y-71004285D01*
X226522438Y-71004285D02*
X226474819Y-70909047D01*
X226474819Y-70909047D02*
X226474819Y-70670952D01*
X226474819Y-70670952D02*
X226522438Y-70575714D01*
X226522438Y-70575714D02*
X226570057Y-70528095D01*
X226570057Y-70528095D02*
X226665295Y-70480476D01*
X226665295Y-70480476D02*
X226760533Y-70480476D01*
X226760533Y-70480476D02*
X226903390Y-70528095D01*
X226903390Y-70528095D02*
X227474819Y-71099523D01*
X227474819Y-71099523D02*
X227474819Y-70480476D01*
X36391905Y-36624819D02*
X36391905Y-35624819D01*
X36963333Y-36624819D02*
X36534762Y-36053390D01*
X36963333Y-35624819D02*
X36391905Y-36196247D01*
X37915714Y-36624819D02*
X37344286Y-36624819D01*
X37630000Y-36624819D02*
X37630000Y-35624819D01*
X37630000Y-35624819D02*
X37534762Y-35767676D01*
X37534762Y-35767676D02*
X37439524Y-35862914D01*
X37439524Y-35862914D02*
X37344286Y-35910533D01*
X80524761Y-35325057D02*
X80429523Y-35277438D01*
X80429523Y-35277438D02*
X80334285Y-35182200D01*
X80334285Y-35182200D02*
X80191428Y-35039342D01*
X80191428Y-35039342D02*
X80096190Y-34991723D01*
X80096190Y-34991723D02*
X80000952Y-34991723D01*
X80048571Y-35229819D02*
X79953333Y-35182200D01*
X79953333Y-35182200D02*
X79858095Y-35086961D01*
X79858095Y-35086961D02*
X79810476Y-34896485D01*
X79810476Y-34896485D02*
X79810476Y-34563152D01*
X79810476Y-34563152D02*
X79858095Y-34372676D01*
X79858095Y-34372676D02*
X79953333Y-34277438D01*
X79953333Y-34277438D02*
X80048571Y-34229819D01*
X80048571Y-34229819D02*
X80239047Y-34229819D01*
X80239047Y-34229819D02*
X80334285Y-34277438D01*
X80334285Y-34277438D02*
X80429523Y-34372676D01*
X80429523Y-34372676D02*
X80477142Y-34563152D01*
X80477142Y-34563152D02*
X80477142Y-34896485D01*
X80477142Y-34896485D02*
X80429523Y-35086961D01*
X80429523Y-35086961D02*
X80334285Y-35182200D01*
X80334285Y-35182200D02*
X80239047Y-35229819D01*
X80239047Y-35229819D02*
X80048571Y-35229819D01*
X81429523Y-35229819D02*
X80858095Y-35229819D01*
X81143809Y-35229819D02*
X81143809Y-34229819D01*
X81143809Y-34229819D02*
X81048571Y-34372676D01*
X81048571Y-34372676D02*
X80953333Y-34467914D01*
X80953333Y-34467914D02*
X80858095Y-34515533D01*
X108974405Y-77664819D02*
X108974405Y-76664819D01*
X108974405Y-76664819D02*
X109212500Y-76664819D01*
X109212500Y-76664819D02*
X109355357Y-76712438D01*
X109355357Y-76712438D02*
X109450595Y-76807676D01*
X109450595Y-76807676D02*
X109498214Y-76902914D01*
X109498214Y-76902914D02*
X109545833Y-77093390D01*
X109545833Y-77093390D02*
X109545833Y-77236247D01*
X109545833Y-77236247D02*
X109498214Y-77426723D01*
X109498214Y-77426723D02*
X109450595Y-77521961D01*
X109450595Y-77521961D02*
X109355357Y-77617200D01*
X109355357Y-77617200D02*
X109212500Y-77664819D01*
X109212500Y-77664819D02*
X108974405Y-77664819D01*
X109926786Y-76760057D02*
X109974405Y-76712438D01*
X109974405Y-76712438D02*
X110069643Y-76664819D01*
X110069643Y-76664819D02*
X110307738Y-76664819D01*
X110307738Y-76664819D02*
X110402976Y-76712438D01*
X110402976Y-76712438D02*
X110450595Y-76760057D01*
X110450595Y-76760057D02*
X110498214Y-76855295D01*
X110498214Y-76855295D02*
X110498214Y-76950533D01*
X110498214Y-76950533D02*
X110450595Y-77093390D01*
X110450595Y-77093390D02*
X109879167Y-77664819D01*
X109879167Y-77664819D02*
X110498214Y-77664819D01*
X105050833Y-74374819D02*
X104717500Y-73898628D01*
X104479405Y-74374819D02*
X104479405Y-73374819D01*
X104479405Y-73374819D02*
X104860357Y-73374819D01*
X104860357Y-73374819D02*
X104955595Y-73422438D01*
X104955595Y-73422438D02*
X105003214Y-73470057D01*
X105003214Y-73470057D02*
X105050833Y-73565295D01*
X105050833Y-73565295D02*
X105050833Y-73708152D01*
X105050833Y-73708152D02*
X105003214Y-73803390D01*
X105003214Y-73803390D02*
X104955595Y-73851009D01*
X104955595Y-73851009D02*
X104860357Y-73898628D01*
X104860357Y-73898628D02*
X104479405Y-73898628D01*
X105384167Y-73374819D02*
X106003214Y-73374819D01*
X106003214Y-73374819D02*
X105669881Y-73755771D01*
X105669881Y-73755771D02*
X105812738Y-73755771D01*
X105812738Y-73755771D02*
X105907976Y-73803390D01*
X105907976Y-73803390D02*
X105955595Y-73851009D01*
X105955595Y-73851009D02*
X106003214Y-73946247D01*
X106003214Y-73946247D02*
X106003214Y-74184342D01*
X106003214Y-74184342D02*
X105955595Y-74279580D01*
X105955595Y-74279580D02*
X105907976Y-74327200D01*
X105907976Y-74327200D02*
X105812738Y-74374819D01*
X105812738Y-74374819D02*
X105527024Y-74374819D01*
X105527024Y-74374819D02*
X105431786Y-74327200D01*
X105431786Y-74327200D02*
X105384167Y-74279580D01*
X55784761Y-147560057D02*
X55689523Y-147512438D01*
X55689523Y-147512438D02*
X55594285Y-147417200D01*
X55594285Y-147417200D02*
X55451428Y-147274342D01*
X55451428Y-147274342D02*
X55356190Y-147226723D01*
X55356190Y-147226723D02*
X55260952Y-147226723D01*
X55308571Y-147464819D02*
X55213333Y-147417200D01*
X55213333Y-147417200D02*
X55118095Y-147321961D01*
X55118095Y-147321961D02*
X55070476Y-147131485D01*
X55070476Y-147131485D02*
X55070476Y-146798152D01*
X55070476Y-146798152D02*
X55118095Y-146607676D01*
X55118095Y-146607676D02*
X55213333Y-146512438D01*
X55213333Y-146512438D02*
X55308571Y-146464819D01*
X55308571Y-146464819D02*
X55499047Y-146464819D01*
X55499047Y-146464819D02*
X55594285Y-146512438D01*
X55594285Y-146512438D02*
X55689523Y-146607676D01*
X55689523Y-146607676D02*
X55737142Y-146798152D01*
X55737142Y-146798152D02*
X55737142Y-147131485D01*
X55737142Y-147131485D02*
X55689523Y-147321961D01*
X55689523Y-147321961D02*
X55594285Y-147417200D01*
X55594285Y-147417200D02*
X55499047Y-147464819D01*
X55499047Y-147464819D02*
X55308571Y-147464819D01*
X56070476Y-146464819D02*
X56689523Y-146464819D01*
X56689523Y-146464819D02*
X56356190Y-146845771D01*
X56356190Y-146845771D02*
X56499047Y-146845771D01*
X56499047Y-146845771D02*
X56594285Y-146893390D01*
X56594285Y-146893390D02*
X56641904Y-146941009D01*
X56641904Y-146941009D02*
X56689523Y-147036247D01*
X56689523Y-147036247D02*
X56689523Y-147274342D01*
X56689523Y-147274342D02*
X56641904Y-147369580D01*
X56641904Y-147369580D02*
X56594285Y-147417200D01*
X56594285Y-147417200D02*
X56499047Y-147464819D01*
X56499047Y-147464819D02*
X56213333Y-147464819D01*
X56213333Y-147464819D02*
X56118095Y-147417200D01*
X56118095Y-147417200D02*
X56070476Y-147369580D01*
X109290833Y-71639580D02*
X109243214Y-71687200D01*
X109243214Y-71687200D02*
X109100357Y-71734819D01*
X109100357Y-71734819D02*
X109005119Y-71734819D01*
X109005119Y-71734819D02*
X108862262Y-71687200D01*
X108862262Y-71687200D02*
X108767024Y-71591961D01*
X108767024Y-71591961D02*
X108719405Y-71496723D01*
X108719405Y-71496723D02*
X108671786Y-71306247D01*
X108671786Y-71306247D02*
X108671786Y-71163390D01*
X108671786Y-71163390D02*
X108719405Y-70972914D01*
X108719405Y-70972914D02*
X108767024Y-70877676D01*
X108767024Y-70877676D02*
X108862262Y-70782438D01*
X108862262Y-70782438D02*
X109005119Y-70734819D01*
X109005119Y-70734819D02*
X109100357Y-70734819D01*
X109100357Y-70734819D02*
X109243214Y-70782438D01*
X109243214Y-70782438D02*
X109290833Y-70830057D01*
X109624167Y-70734819D02*
X110243214Y-70734819D01*
X110243214Y-70734819D02*
X109909881Y-71115771D01*
X109909881Y-71115771D02*
X110052738Y-71115771D01*
X110052738Y-71115771D02*
X110147976Y-71163390D01*
X110147976Y-71163390D02*
X110195595Y-71211009D01*
X110195595Y-71211009D02*
X110243214Y-71306247D01*
X110243214Y-71306247D02*
X110243214Y-71544342D01*
X110243214Y-71544342D02*
X110195595Y-71639580D01*
X110195595Y-71639580D02*
X110147976Y-71687200D01*
X110147976Y-71687200D02*
X110052738Y-71734819D01*
X110052738Y-71734819D02*
X109767024Y-71734819D01*
X109767024Y-71734819D02*
X109671786Y-71687200D01*
X109671786Y-71687200D02*
X109624167Y-71639580D01*
X105050833Y-84244819D02*
X104717500Y-83768628D01*
X104479405Y-84244819D02*
X104479405Y-83244819D01*
X104479405Y-83244819D02*
X104860357Y-83244819D01*
X104860357Y-83244819D02*
X104955595Y-83292438D01*
X104955595Y-83292438D02*
X105003214Y-83340057D01*
X105003214Y-83340057D02*
X105050833Y-83435295D01*
X105050833Y-83435295D02*
X105050833Y-83578152D01*
X105050833Y-83578152D02*
X105003214Y-83673390D01*
X105003214Y-83673390D02*
X104955595Y-83721009D01*
X104955595Y-83721009D02*
X104860357Y-83768628D01*
X104860357Y-83768628D02*
X104479405Y-83768628D01*
X105622262Y-83673390D02*
X105527024Y-83625771D01*
X105527024Y-83625771D02*
X105479405Y-83578152D01*
X105479405Y-83578152D02*
X105431786Y-83482914D01*
X105431786Y-83482914D02*
X105431786Y-83435295D01*
X105431786Y-83435295D02*
X105479405Y-83340057D01*
X105479405Y-83340057D02*
X105527024Y-83292438D01*
X105527024Y-83292438D02*
X105622262Y-83244819D01*
X105622262Y-83244819D02*
X105812738Y-83244819D01*
X105812738Y-83244819D02*
X105907976Y-83292438D01*
X105907976Y-83292438D02*
X105955595Y-83340057D01*
X105955595Y-83340057D02*
X106003214Y-83435295D01*
X106003214Y-83435295D02*
X106003214Y-83482914D01*
X106003214Y-83482914D02*
X105955595Y-83578152D01*
X105955595Y-83578152D02*
X105907976Y-83625771D01*
X105907976Y-83625771D02*
X105812738Y-83673390D01*
X105812738Y-83673390D02*
X105622262Y-83673390D01*
X105622262Y-83673390D02*
X105527024Y-83721009D01*
X105527024Y-83721009D02*
X105479405Y-83768628D01*
X105479405Y-83768628D02*
X105431786Y-83863866D01*
X105431786Y-83863866D02*
X105431786Y-84054342D01*
X105431786Y-84054342D02*
X105479405Y-84149580D01*
X105479405Y-84149580D02*
X105527024Y-84197200D01*
X105527024Y-84197200D02*
X105622262Y-84244819D01*
X105622262Y-84244819D02*
X105812738Y-84244819D01*
X105812738Y-84244819D02*
X105907976Y-84197200D01*
X105907976Y-84197200D02*
X105955595Y-84149580D01*
X105955595Y-84149580D02*
X106003214Y-84054342D01*
X106003214Y-84054342D02*
X106003214Y-83863866D01*
X106003214Y-83863866D02*
X105955595Y-83768628D01*
X105955595Y-83768628D02*
X105907976Y-83721009D01*
X105907976Y-83721009D02*
X105812738Y-83673390D01*
X39081905Y-173109819D02*
X39081905Y-172109819D01*
X39653333Y-173109819D02*
X39224762Y-172538390D01*
X39653333Y-172109819D02*
X39081905Y-172681247D01*
X40558095Y-172109819D02*
X40081905Y-172109819D01*
X40081905Y-172109819D02*
X40034286Y-172586009D01*
X40034286Y-172586009D02*
X40081905Y-172538390D01*
X40081905Y-172538390D02*
X40177143Y-172490771D01*
X40177143Y-172490771D02*
X40415238Y-172490771D01*
X40415238Y-172490771D02*
X40510476Y-172538390D01*
X40510476Y-172538390D02*
X40558095Y-172586009D01*
X40558095Y-172586009D02*
X40605714Y-172681247D01*
X40605714Y-172681247D02*
X40605714Y-172919342D01*
X40605714Y-172919342D02*
X40558095Y-173014580D01*
X40558095Y-173014580D02*
X40510476Y-173062200D01*
X40510476Y-173062200D02*
X40415238Y-173109819D01*
X40415238Y-173109819D02*
X40177143Y-173109819D01*
X40177143Y-173109819D02*
X40081905Y-173062200D01*
X40081905Y-173062200D02*
X40034286Y-173014580D01*
X105050833Y-67794819D02*
X104717500Y-67318628D01*
X104479405Y-67794819D02*
X104479405Y-66794819D01*
X104479405Y-66794819D02*
X104860357Y-66794819D01*
X104860357Y-66794819D02*
X104955595Y-66842438D01*
X104955595Y-66842438D02*
X105003214Y-66890057D01*
X105003214Y-66890057D02*
X105050833Y-66985295D01*
X105050833Y-66985295D02*
X105050833Y-67128152D01*
X105050833Y-67128152D02*
X105003214Y-67223390D01*
X105003214Y-67223390D02*
X104955595Y-67271009D01*
X104955595Y-67271009D02*
X104860357Y-67318628D01*
X104860357Y-67318628D02*
X104479405Y-67318628D01*
X106003214Y-67794819D02*
X105431786Y-67794819D01*
X105717500Y-67794819D02*
X105717500Y-66794819D01*
X105717500Y-66794819D02*
X105622262Y-66937676D01*
X105622262Y-66937676D02*
X105527024Y-67032914D01*
X105527024Y-67032914D02*
X105431786Y-67080533D01*
X108974405Y-75674819D02*
X108974405Y-74674819D01*
X108974405Y-74674819D02*
X109212500Y-74674819D01*
X109212500Y-74674819D02*
X109355357Y-74722438D01*
X109355357Y-74722438D02*
X109450595Y-74817676D01*
X109450595Y-74817676D02*
X109498214Y-74912914D01*
X109498214Y-74912914D02*
X109545833Y-75103390D01*
X109545833Y-75103390D02*
X109545833Y-75246247D01*
X109545833Y-75246247D02*
X109498214Y-75436723D01*
X109498214Y-75436723D02*
X109450595Y-75531961D01*
X109450595Y-75531961D02*
X109355357Y-75627200D01*
X109355357Y-75627200D02*
X109212500Y-75674819D01*
X109212500Y-75674819D02*
X108974405Y-75674819D01*
X110498214Y-75674819D02*
X109926786Y-75674819D01*
X110212500Y-75674819D02*
X110212500Y-74674819D01*
X110212500Y-74674819D02*
X110117262Y-74817676D01*
X110117262Y-74817676D02*
X110022024Y-74912914D01*
X110022024Y-74912914D02*
X109926786Y-74960533D01*
X43664761Y-40840057D02*
X43569523Y-40792438D01*
X43569523Y-40792438D02*
X43474285Y-40697200D01*
X43474285Y-40697200D02*
X43331428Y-40554342D01*
X43331428Y-40554342D02*
X43236190Y-40506723D01*
X43236190Y-40506723D02*
X43140952Y-40506723D01*
X43188571Y-40744819D02*
X43093333Y-40697200D01*
X43093333Y-40697200D02*
X42998095Y-40601961D01*
X42998095Y-40601961D02*
X42950476Y-40411485D01*
X42950476Y-40411485D02*
X42950476Y-40078152D01*
X42950476Y-40078152D02*
X42998095Y-39887676D01*
X42998095Y-39887676D02*
X43093333Y-39792438D01*
X43093333Y-39792438D02*
X43188571Y-39744819D01*
X43188571Y-39744819D02*
X43379047Y-39744819D01*
X43379047Y-39744819D02*
X43474285Y-39792438D01*
X43474285Y-39792438D02*
X43569523Y-39887676D01*
X43569523Y-39887676D02*
X43617142Y-40078152D01*
X43617142Y-40078152D02*
X43617142Y-40411485D01*
X43617142Y-40411485D02*
X43569523Y-40601961D01*
X43569523Y-40601961D02*
X43474285Y-40697200D01*
X43474285Y-40697200D02*
X43379047Y-40744819D01*
X43379047Y-40744819D02*
X43188571Y-40744819D01*
X43950476Y-39744819D02*
X44617142Y-39744819D01*
X44617142Y-39744819D02*
X44188571Y-40744819D01*
X105050833Y-71084819D02*
X104717500Y-70608628D01*
X104479405Y-71084819D02*
X104479405Y-70084819D01*
X104479405Y-70084819D02*
X104860357Y-70084819D01*
X104860357Y-70084819D02*
X104955595Y-70132438D01*
X104955595Y-70132438D02*
X105003214Y-70180057D01*
X105003214Y-70180057D02*
X105050833Y-70275295D01*
X105050833Y-70275295D02*
X105050833Y-70418152D01*
X105050833Y-70418152D02*
X105003214Y-70513390D01*
X105003214Y-70513390D02*
X104955595Y-70561009D01*
X104955595Y-70561009D02*
X104860357Y-70608628D01*
X104860357Y-70608628D02*
X104479405Y-70608628D01*
X105431786Y-70180057D02*
X105479405Y-70132438D01*
X105479405Y-70132438D02*
X105574643Y-70084819D01*
X105574643Y-70084819D02*
X105812738Y-70084819D01*
X105812738Y-70084819D02*
X105907976Y-70132438D01*
X105907976Y-70132438D02*
X105955595Y-70180057D01*
X105955595Y-70180057D02*
X106003214Y-70275295D01*
X106003214Y-70275295D02*
X106003214Y-70370533D01*
X106003214Y-70370533D02*
X105955595Y-70513390D01*
X105955595Y-70513390D02*
X105384167Y-71084819D01*
X105384167Y-71084819D02*
X106003214Y-71084819D01*
X105050833Y-80954819D02*
X104717500Y-80478628D01*
X104479405Y-80954819D02*
X104479405Y-79954819D01*
X104479405Y-79954819D02*
X104860357Y-79954819D01*
X104860357Y-79954819D02*
X104955595Y-80002438D01*
X104955595Y-80002438D02*
X105003214Y-80050057D01*
X105003214Y-80050057D02*
X105050833Y-80145295D01*
X105050833Y-80145295D02*
X105050833Y-80288152D01*
X105050833Y-80288152D02*
X105003214Y-80383390D01*
X105003214Y-80383390D02*
X104955595Y-80431009D01*
X104955595Y-80431009D02*
X104860357Y-80478628D01*
X104860357Y-80478628D02*
X104479405Y-80478628D01*
X105384167Y-79954819D02*
X106050833Y-79954819D01*
X106050833Y-79954819D02*
X105622262Y-80954819D01*
X55124761Y-156345057D02*
X55029523Y-156297438D01*
X55029523Y-156297438D02*
X54934285Y-156202200D01*
X54934285Y-156202200D02*
X54791428Y-156059342D01*
X54791428Y-156059342D02*
X54696190Y-156011723D01*
X54696190Y-156011723D02*
X54600952Y-156011723D01*
X54648571Y-156249819D02*
X54553333Y-156202200D01*
X54553333Y-156202200D02*
X54458095Y-156106961D01*
X54458095Y-156106961D02*
X54410476Y-155916485D01*
X54410476Y-155916485D02*
X54410476Y-155583152D01*
X54410476Y-155583152D02*
X54458095Y-155392676D01*
X54458095Y-155392676D02*
X54553333Y-155297438D01*
X54553333Y-155297438D02*
X54648571Y-155249819D01*
X54648571Y-155249819D02*
X54839047Y-155249819D01*
X54839047Y-155249819D02*
X54934285Y-155297438D01*
X54934285Y-155297438D02*
X55029523Y-155392676D01*
X55029523Y-155392676D02*
X55077142Y-155583152D01*
X55077142Y-155583152D02*
X55077142Y-155916485D01*
X55077142Y-155916485D02*
X55029523Y-156106961D01*
X55029523Y-156106961D02*
X54934285Y-156202200D01*
X54934285Y-156202200D02*
X54839047Y-156249819D01*
X54839047Y-156249819D02*
X54648571Y-156249819D01*
X55934285Y-155583152D02*
X55934285Y-156249819D01*
X55696190Y-155202200D02*
X55458095Y-155916485D01*
X55458095Y-155916485D02*
X56077142Y-155916485D01*
X105050833Y-87534819D02*
X104717500Y-87058628D01*
X104479405Y-87534819D02*
X104479405Y-86534819D01*
X104479405Y-86534819D02*
X104860357Y-86534819D01*
X104860357Y-86534819D02*
X104955595Y-86582438D01*
X104955595Y-86582438D02*
X105003214Y-86630057D01*
X105003214Y-86630057D02*
X105050833Y-86725295D01*
X105050833Y-86725295D02*
X105050833Y-86868152D01*
X105050833Y-86868152D02*
X105003214Y-86963390D01*
X105003214Y-86963390D02*
X104955595Y-87011009D01*
X104955595Y-87011009D02*
X104860357Y-87058628D01*
X104860357Y-87058628D02*
X104479405Y-87058628D01*
X105527024Y-87534819D02*
X105717500Y-87534819D01*
X105717500Y-87534819D02*
X105812738Y-87487200D01*
X105812738Y-87487200D02*
X105860357Y-87439580D01*
X105860357Y-87439580D02*
X105955595Y-87296723D01*
X105955595Y-87296723D02*
X106003214Y-87106247D01*
X106003214Y-87106247D02*
X106003214Y-86725295D01*
X106003214Y-86725295D02*
X105955595Y-86630057D01*
X105955595Y-86630057D02*
X105907976Y-86582438D01*
X105907976Y-86582438D02*
X105812738Y-86534819D01*
X105812738Y-86534819D02*
X105622262Y-86534819D01*
X105622262Y-86534819D02*
X105527024Y-86582438D01*
X105527024Y-86582438D02*
X105479405Y-86630057D01*
X105479405Y-86630057D02*
X105431786Y-86725295D01*
X105431786Y-86725295D02*
X105431786Y-86963390D01*
X105431786Y-86963390D02*
X105479405Y-87058628D01*
X105479405Y-87058628D02*
X105527024Y-87106247D01*
X105527024Y-87106247D02*
X105622262Y-87153866D01*
X105622262Y-87153866D02*
X105812738Y-87153866D01*
X105812738Y-87153866D02*
X105907976Y-87106247D01*
X105907976Y-87106247D02*
X105955595Y-87058628D01*
X105955595Y-87058628D02*
X106003214Y-86963390D01*
X55124761Y-162795057D02*
X55029523Y-162747438D01*
X55029523Y-162747438D02*
X54934285Y-162652200D01*
X54934285Y-162652200D02*
X54791428Y-162509342D01*
X54791428Y-162509342D02*
X54696190Y-162461723D01*
X54696190Y-162461723D02*
X54600952Y-162461723D01*
X54648571Y-162699819D02*
X54553333Y-162652200D01*
X54553333Y-162652200D02*
X54458095Y-162556961D01*
X54458095Y-162556961D02*
X54410476Y-162366485D01*
X54410476Y-162366485D02*
X54410476Y-162033152D01*
X54410476Y-162033152D02*
X54458095Y-161842676D01*
X54458095Y-161842676D02*
X54553333Y-161747438D01*
X54553333Y-161747438D02*
X54648571Y-161699819D01*
X54648571Y-161699819D02*
X54839047Y-161699819D01*
X54839047Y-161699819D02*
X54934285Y-161747438D01*
X54934285Y-161747438D02*
X55029523Y-161842676D01*
X55029523Y-161842676D02*
X55077142Y-162033152D01*
X55077142Y-162033152D02*
X55077142Y-162366485D01*
X55077142Y-162366485D02*
X55029523Y-162556961D01*
X55029523Y-162556961D02*
X54934285Y-162652200D01*
X54934285Y-162652200D02*
X54839047Y-162699819D01*
X54839047Y-162699819D02*
X54648571Y-162699819D01*
X55981904Y-161699819D02*
X55505714Y-161699819D01*
X55505714Y-161699819D02*
X55458095Y-162176009D01*
X55458095Y-162176009D02*
X55505714Y-162128390D01*
X55505714Y-162128390D02*
X55600952Y-162080771D01*
X55600952Y-162080771D02*
X55839047Y-162080771D01*
X55839047Y-162080771D02*
X55934285Y-162128390D01*
X55934285Y-162128390D02*
X55981904Y-162176009D01*
X55981904Y-162176009D02*
X56029523Y-162271247D01*
X56029523Y-162271247D02*
X56029523Y-162509342D01*
X56029523Y-162509342D02*
X55981904Y-162604580D01*
X55981904Y-162604580D02*
X55934285Y-162652200D01*
X55934285Y-162652200D02*
X55839047Y-162699819D01*
X55839047Y-162699819D02*
X55600952Y-162699819D01*
X55600952Y-162699819D02*
X55505714Y-162652200D01*
X55505714Y-162652200D02*
X55458095Y-162604580D01*
X105050833Y-77664819D02*
X104717500Y-77188628D01*
X104479405Y-77664819D02*
X104479405Y-76664819D01*
X104479405Y-76664819D02*
X104860357Y-76664819D01*
X104860357Y-76664819D02*
X104955595Y-76712438D01*
X104955595Y-76712438D02*
X105003214Y-76760057D01*
X105003214Y-76760057D02*
X105050833Y-76855295D01*
X105050833Y-76855295D02*
X105050833Y-76998152D01*
X105050833Y-76998152D02*
X105003214Y-77093390D01*
X105003214Y-77093390D02*
X104955595Y-77141009D01*
X104955595Y-77141009D02*
X104860357Y-77188628D01*
X104860357Y-77188628D02*
X104479405Y-77188628D01*
X105907976Y-76664819D02*
X105717500Y-76664819D01*
X105717500Y-76664819D02*
X105622262Y-76712438D01*
X105622262Y-76712438D02*
X105574643Y-76760057D01*
X105574643Y-76760057D02*
X105479405Y-76902914D01*
X105479405Y-76902914D02*
X105431786Y-77093390D01*
X105431786Y-77093390D02*
X105431786Y-77474342D01*
X105431786Y-77474342D02*
X105479405Y-77569580D01*
X105479405Y-77569580D02*
X105527024Y-77617200D01*
X105527024Y-77617200D02*
X105622262Y-77664819D01*
X105622262Y-77664819D02*
X105812738Y-77664819D01*
X105812738Y-77664819D02*
X105907976Y-77617200D01*
X105907976Y-77617200D02*
X105955595Y-77569580D01*
X105955595Y-77569580D02*
X106003214Y-77474342D01*
X106003214Y-77474342D02*
X106003214Y-77236247D01*
X106003214Y-77236247D02*
X105955595Y-77141009D01*
X105955595Y-77141009D02*
X105907976Y-77093390D01*
X105907976Y-77093390D02*
X105812738Y-77045771D01*
X105812738Y-77045771D02*
X105622262Y-77045771D01*
X105622262Y-77045771D02*
X105527024Y-77093390D01*
X105527024Y-77093390D02*
X105479405Y-77141009D01*
X105479405Y-77141009D02*
X105431786Y-77236247D01*
X39081905Y-190059819D02*
X39081905Y-189059819D01*
X39653333Y-190059819D02*
X39224762Y-189488390D01*
X39653333Y-189059819D02*
X39081905Y-189631247D01*
X40510476Y-189059819D02*
X40320000Y-189059819D01*
X40320000Y-189059819D02*
X40224762Y-189107438D01*
X40224762Y-189107438D02*
X40177143Y-189155057D01*
X40177143Y-189155057D02*
X40081905Y-189297914D01*
X40081905Y-189297914D02*
X40034286Y-189488390D01*
X40034286Y-189488390D02*
X40034286Y-189869342D01*
X40034286Y-189869342D02*
X40081905Y-189964580D01*
X40081905Y-189964580D02*
X40129524Y-190012200D01*
X40129524Y-190012200D02*
X40224762Y-190059819D01*
X40224762Y-190059819D02*
X40415238Y-190059819D01*
X40415238Y-190059819D02*
X40510476Y-190012200D01*
X40510476Y-190012200D02*
X40558095Y-189964580D01*
X40558095Y-189964580D02*
X40605714Y-189869342D01*
X40605714Y-189869342D02*
X40605714Y-189631247D01*
X40605714Y-189631247D02*
X40558095Y-189536009D01*
X40558095Y-189536009D02*
X40510476Y-189488390D01*
X40510476Y-189488390D02*
X40415238Y-189440771D01*
X40415238Y-189440771D02*
X40224762Y-189440771D01*
X40224762Y-189440771D02*
X40129524Y-189488390D01*
X40129524Y-189488390D02*
X40081905Y-189536009D01*
X40081905Y-189536009D02*
X40034286Y-189631247D01*
X39501905Y-118874819D02*
X39501905Y-117874819D01*
X40073333Y-118874819D02*
X39644762Y-118303390D01*
X40073333Y-117874819D02*
X39501905Y-118446247D01*
X40454286Y-117970057D02*
X40501905Y-117922438D01*
X40501905Y-117922438D02*
X40597143Y-117874819D01*
X40597143Y-117874819D02*
X40835238Y-117874819D01*
X40835238Y-117874819D02*
X40930476Y-117922438D01*
X40930476Y-117922438D02*
X40978095Y-117970057D01*
X40978095Y-117970057D02*
X41025714Y-118065295D01*
X41025714Y-118065295D02*
X41025714Y-118160533D01*
X41025714Y-118160533D02*
X40978095Y-118303390D01*
X40978095Y-118303390D02*
X40406667Y-118874819D01*
X40406667Y-118874819D02*
X41025714Y-118874819D01*
X67818095Y-59874819D02*
X67818095Y-60684342D01*
X67818095Y-60684342D02*
X67865714Y-60779580D01*
X67865714Y-60779580D02*
X67913333Y-60827200D01*
X67913333Y-60827200D02*
X68008571Y-60874819D01*
X68008571Y-60874819D02*
X68199047Y-60874819D01*
X68199047Y-60874819D02*
X68294285Y-60827200D01*
X68294285Y-60827200D02*
X68341904Y-60779580D01*
X68341904Y-60779580D02*
X68389523Y-60684342D01*
X68389523Y-60684342D02*
X68389523Y-59874819D01*
X69389523Y-60874819D02*
X68818095Y-60874819D01*
X69103809Y-60874819D02*
X69103809Y-59874819D01*
X69103809Y-59874819D02*
X69008571Y-60017676D01*
X69008571Y-60017676D02*
X68913333Y-60112914D01*
X68913333Y-60112914D02*
X68818095Y-60160533D01*
X139636666Y-27704819D02*
X139303333Y-27228628D01*
X139065238Y-27704819D02*
X139065238Y-26704819D01*
X139065238Y-26704819D02*
X139446190Y-26704819D01*
X139446190Y-26704819D02*
X139541428Y-26752438D01*
X139541428Y-26752438D02*
X139589047Y-26800057D01*
X139589047Y-26800057D02*
X139636666Y-26895295D01*
X139636666Y-26895295D02*
X139636666Y-27038152D01*
X139636666Y-27038152D02*
X139589047Y-27133390D01*
X139589047Y-27133390D02*
X139541428Y-27181009D01*
X139541428Y-27181009D02*
X139446190Y-27228628D01*
X139446190Y-27228628D02*
X139065238Y-27228628D01*
X140065238Y-27181009D02*
X140398571Y-27181009D01*
X140541428Y-27704819D02*
X140065238Y-27704819D01*
X140065238Y-27704819D02*
X140065238Y-26704819D01*
X140065238Y-26704819D02*
X140541428Y-26704819D01*
X141303333Y-27181009D02*
X140970000Y-27181009D01*
X140970000Y-27704819D02*
X140970000Y-26704819D01*
X140970000Y-26704819D02*
X141446190Y-26704819D01*
X141970000Y-26704819D02*
X141970000Y-26942914D01*
X141731905Y-26847676D02*
X141970000Y-26942914D01*
X141970000Y-26942914D02*
X142208095Y-26847676D01*
X141827143Y-27133390D02*
X141970000Y-26942914D01*
X141970000Y-26942914D02*
X142112857Y-27133390D01*
X142731905Y-26704819D02*
X142731905Y-26942914D01*
X142493810Y-26847676D02*
X142731905Y-26942914D01*
X142731905Y-26942914D02*
X142970000Y-26847676D01*
X142589048Y-27133390D02*
X142731905Y-26942914D01*
X142731905Y-26942914D02*
X142874762Y-27133390D01*
X65873333Y-48164819D02*
X65540000Y-47688628D01*
X65301905Y-48164819D02*
X65301905Y-47164819D01*
X65301905Y-47164819D02*
X65682857Y-47164819D01*
X65682857Y-47164819D02*
X65778095Y-47212438D01*
X65778095Y-47212438D02*
X65825714Y-47260057D01*
X65825714Y-47260057D02*
X65873333Y-47355295D01*
X65873333Y-47355295D02*
X65873333Y-47498152D01*
X65873333Y-47498152D02*
X65825714Y-47593390D01*
X65825714Y-47593390D02*
X65778095Y-47641009D01*
X65778095Y-47641009D02*
X65682857Y-47688628D01*
X65682857Y-47688628D02*
X65301905Y-47688628D01*
X66778095Y-47164819D02*
X66301905Y-47164819D01*
X66301905Y-47164819D02*
X66254286Y-47641009D01*
X66254286Y-47641009D02*
X66301905Y-47593390D01*
X66301905Y-47593390D02*
X66397143Y-47545771D01*
X66397143Y-47545771D02*
X66635238Y-47545771D01*
X66635238Y-47545771D02*
X66730476Y-47593390D01*
X66730476Y-47593390D02*
X66778095Y-47641009D01*
X66778095Y-47641009D02*
X66825714Y-47736247D01*
X66825714Y-47736247D02*
X66825714Y-47974342D01*
X66825714Y-47974342D02*
X66778095Y-48069580D01*
X66778095Y-48069580D02*
X66730476Y-48117200D01*
X66730476Y-48117200D02*
X66635238Y-48164819D01*
X66635238Y-48164819D02*
X66397143Y-48164819D01*
X66397143Y-48164819D02*
X66301905Y-48117200D01*
X66301905Y-48117200D02*
X66254286Y-48069580D01*
X39081905Y-139209819D02*
X39081905Y-138209819D01*
X39653333Y-139209819D02*
X39224762Y-138638390D01*
X39653333Y-138209819D02*
X39081905Y-138781247D01*
X39986667Y-138209819D02*
X40605714Y-138209819D01*
X40605714Y-138209819D02*
X40272381Y-138590771D01*
X40272381Y-138590771D02*
X40415238Y-138590771D01*
X40415238Y-138590771D02*
X40510476Y-138638390D01*
X40510476Y-138638390D02*
X40558095Y-138686009D01*
X40558095Y-138686009D02*
X40605714Y-138781247D01*
X40605714Y-138781247D02*
X40605714Y-139019342D01*
X40605714Y-139019342D02*
X40558095Y-139114580D01*
X40558095Y-139114580D02*
X40510476Y-139162200D01*
X40510476Y-139162200D02*
X40415238Y-139209819D01*
X40415238Y-139209819D02*
X40129524Y-139209819D01*
X40129524Y-139209819D02*
X40034286Y-139162200D01*
X40034286Y-139162200D02*
X39986667Y-139114580D01*
X101240833Y-21494819D02*
X100907500Y-21018628D01*
X100669405Y-21494819D02*
X100669405Y-20494819D01*
X100669405Y-20494819D02*
X101050357Y-20494819D01*
X101050357Y-20494819D02*
X101145595Y-20542438D01*
X101145595Y-20542438D02*
X101193214Y-20590057D01*
X101193214Y-20590057D02*
X101240833Y-20685295D01*
X101240833Y-20685295D02*
X101240833Y-20828152D01*
X101240833Y-20828152D02*
X101193214Y-20923390D01*
X101193214Y-20923390D02*
X101145595Y-20971009D01*
X101145595Y-20971009D02*
X101050357Y-21018628D01*
X101050357Y-21018628D02*
X100669405Y-21018628D01*
X102097976Y-20828152D02*
X102097976Y-21494819D01*
X101859881Y-20447200D02*
X101621786Y-21161485D01*
X101621786Y-21161485D02*
X102240833Y-21161485D01*
X109290833Y-69669580D02*
X109243214Y-69717200D01*
X109243214Y-69717200D02*
X109100357Y-69764819D01*
X109100357Y-69764819D02*
X109005119Y-69764819D01*
X109005119Y-69764819D02*
X108862262Y-69717200D01*
X108862262Y-69717200D02*
X108767024Y-69621961D01*
X108767024Y-69621961D02*
X108719405Y-69526723D01*
X108719405Y-69526723D02*
X108671786Y-69336247D01*
X108671786Y-69336247D02*
X108671786Y-69193390D01*
X108671786Y-69193390D02*
X108719405Y-69002914D01*
X108719405Y-69002914D02*
X108767024Y-68907676D01*
X108767024Y-68907676D02*
X108862262Y-68812438D01*
X108862262Y-68812438D02*
X109005119Y-68764819D01*
X109005119Y-68764819D02*
X109100357Y-68764819D01*
X109100357Y-68764819D02*
X109243214Y-68812438D01*
X109243214Y-68812438D02*
X109290833Y-68860057D01*
X109671786Y-68860057D02*
X109719405Y-68812438D01*
X109719405Y-68812438D02*
X109814643Y-68764819D01*
X109814643Y-68764819D02*
X110052738Y-68764819D01*
X110052738Y-68764819D02*
X110147976Y-68812438D01*
X110147976Y-68812438D02*
X110195595Y-68860057D01*
X110195595Y-68860057D02*
X110243214Y-68955295D01*
X110243214Y-68955295D02*
X110243214Y-69050533D01*
X110243214Y-69050533D02*
X110195595Y-69193390D01*
X110195595Y-69193390D02*
X109624167Y-69764819D01*
X109624167Y-69764819D02*
X110243214Y-69764819D01*
D11*
%TO.C,K4*%
X30320000Y-138705000D02*
X30320000Y-145305000D01*
X30320000Y-138705000D02*
X50120000Y-138705000D01*
X30320000Y-147705000D02*
X30320000Y-154305000D01*
X34370000Y-146555000D02*
X33570000Y-146555000D01*
X34370000Y-146555000D02*
X34370000Y-150155000D01*
X35270000Y-152555000D02*
X37770000Y-152555000D01*
X35770000Y-144755000D02*
X39770000Y-144755000D01*
X35770000Y-148355000D02*
X35770000Y-144755000D01*
X37770000Y-140555000D02*
X35270000Y-140555000D01*
X37770000Y-140555000D02*
X37770000Y-144755000D01*
X37770000Y-148355000D02*
X37770000Y-152555000D01*
X39770000Y-144755000D02*
X39770000Y-148355000D01*
X39770000Y-148355000D02*
X35770000Y-144755000D01*
X39770000Y-148355000D02*
X35770000Y-148355000D01*
X41170000Y-146555000D02*
X41170000Y-150155000D01*
X41170000Y-146555000D02*
X42670000Y-146555000D01*
X41170000Y-150155000D02*
X34370000Y-150155000D01*
X42670000Y-146555000D02*
X47270000Y-144055000D01*
X45870000Y-142305000D02*
X45870000Y-144805000D01*
X45870000Y-150705000D02*
X45870000Y-148255000D01*
X50120000Y-138705000D02*
X50120000Y-154305000D01*
X50120000Y-154305000D02*
X30320000Y-154305000D01*
%TO.C,Q2*%
X51440000Y-41055000D02*
X52415000Y-41055000D01*
X52415000Y-41055000D02*
X52690000Y-40780000D01*
X52415000Y-47655000D02*
X52690000Y-47930000D01*
X60290000Y-40780000D02*
X52690000Y-40780000D01*
X60290000Y-47930000D02*
X52690000Y-47930000D01*
X60565000Y-41055000D02*
X60290000Y-40780000D01*
X60565000Y-47655000D02*
X60290000Y-47930000D01*
%TO.C,Q6*%
X52230000Y-163970000D02*
X52980000Y-163970000D01*
X52980000Y-163970000D02*
X53080000Y-163870000D01*
X53080000Y-163870000D02*
X58680000Y-163870000D01*
X53080000Y-168870000D02*
X52980000Y-168770000D01*
X58680000Y-163870000D02*
X58780000Y-163970000D01*
X58680000Y-168870000D02*
X53080000Y-168870000D01*
X58780000Y-168770000D02*
X58680000Y-168870000D01*
D12*
%TO.C,D3*%
X108672500Y-80370000D02*
G75*
G03*
X108672500Y-80370000I-50000J0D01*
G01*
D11*
%TO.C,REF\u002A\u002A*%
X151865000Y-28350000D02*
X153365000Y-28350000D01*
X151865000Y-28700000D02*
X151865000Y-28350000D01*
X151865000Y-33350000D02*
X151865000Y-30150000D01*
X151865000Y-35150000D02*
X151865000Y-34750000D01*
X153365000Y-35150000D02*
X151865000Y-35150000D01*
%TO.C,C4*%
X109349664Y-74050000D02*
X109565336Y-74050000D01*
X109349664Y-74770000D02*
X109565336Y-74770000D01*
%TO.C,C1*%
X109349664Y-68140000D02*
X109565336Y-68140000D01*
X109349664Y-68860000D02*
X109565336Y-68860000D01*
%TO.C,U2*%
X228510000Y-47000000D02*
X228510000Y-53415000D01*
X228510000Y-47000000D02*
X246750000Y-47000000D01*
X228510000Y-53415000D02*
X228130000Y-53415000D01*
X228510000Y-71960000D02*
X228510000Y-72740000D01*
X228510000Y-72740000D02*
X229510000Y-72740000D01*
X246750000Y-47000000D02*
X246750000Y-53415000D01*
X246750000Y-71960000D02*
X246750000Y-72740000D01*
X246750000Y-72740000D02*
X245750000Y-72740000D01*
%TO.C,K1*%
X27630000Y-19170000D02*
X27630000Y-25770000D01*
X27630000Y-19170000D02*
X47430000Y-19170000D01*
X27630000Y-28170000D02*
X27630000Y-34770000D01*
X31680000Y-27020000D02*
X30880000Y-27020000D01*
X31680000Y-27020000D02*
X31680000Y-30620000D01*
X32580000Y-33020000D02*
X35080000Y-33020000D01*
X33080000Y-25220000D02*
X37080000Y-25220000D01*
X33080000Y-28820000D02*
X33080000Y-25220000D01*
X35080000Y-21020000D02*
X32580000Y-21020000D01*
X35080000Y-21020000D02*
X35080000Y-25220000D01*
X35080000Y-28820000D02*
X35080000Y-33020000D01*
X37080000Y-25220000D02*
X37080000Y-28820000D01*
X37080000Y-28820000D02*
X33080000Y-25220000D01*
X37080000Y-28820000D02*
X33080000Y-28820000D01*
X38480000Y-27020000D02*
X38480000Y-30620000D01*
X38480000Y-27020000D02*
X39980000Y-27020000D01*
X38480000Y-30620000D02*
X31680000Y-30620000D01*
X39980000Y-27020000D02*
X44580000Y-24520000D01*
X43180000Y-22770000D02*
X43180000Y-25270000D01*
X43180000Y-31170000D02*
X43180000Y-28720000D01*
X47430000Y-19170000D02*
X47430000Y-34770000D01*
X47430000Y-34770000D02*
X27630000Y-34770000D01*
%TO.C,Q1*%
X75570000Y-35975000D02*
X76545000Y-35975000D01*
X76545000Y-35975000D02*
X76820000Y-35700000D01*
X76545000Y-42575000D02*
X76820000Y-42850000D01*
X84420000Y-35700000D02*
X76820000Y-35700000D01*
X84420000Y-42850000D02*
X76820000Y-42850000D01*
X84695000Y-35975000D02*
X84420000Y-35700000D01*
X84695000Y-42575000D02*
X84420000Y-42850000D01*
D12*
%TO.C,D2*%
X108672500Y-78380000D02*
G75*
G03*
X108672500Y-78380000I-50000J0D01*
G01*
D11*
%TO.C,R3*%
X104490436Y-74830000D02*
X105944564Y-74830000D01*
X104490436Y-76650000D02*
X105944564Y-76650000D01*
%TO.C,Q3*%
X52230000Y-141110000D02*
X52980000Y-141110000D01*
X52980000Y-141110000D02*
X53080000Y-141010000D01*
X53080000Y-141010000D02*
X58680000Y-141010000D01*
X53080000Y-146010000D02*
X52980000Y-145910000D01*
X58680000Y-141010000D02*
X58780000Y-141110000D01*
X58680000Y-146010000D02*
X53080000Y-146010000D01*
X58780000Y-145910000D02*
X58680000Y-146010000D01*
%TO.C,C3*%
X109349664Y-72080000D02*
X109565336Y-72080000D01*
X109349664Y-72800000D02*
X109565336Y-72800000D01*
%TO.C,R8*%
X104490436Y-84700000D02*
X105944564Y-84700000D01*
X104490436Y-86520000D02*
X105944564Y-86520000D01*
%TO.C,K5*%
X30320000Y-155655000D02*
X30320000Y-162255000D01*
X30320000Y-155655000D02*
X50120000Y-155655000D01*
X30320000Y-164655000D02*
X30320000Y-171255000D01*
X34370000Y-163505000D02*
X33570000Y-163505000D01*
X34370000Y-163505000D02*
X34370000Y-167105000D01*
X35270000Y-169505000D02*
X37770000Y-169505000D01*
X35770000Y-161705000D02*
X39770000Y-161705000D01*
X35770000Y-165305000D02*
X35770000Y-161705000D01*
X37770000Y-157505000D02*
X35270000Y-157505000D01*
X37770000Y-157505000D02*
X37770000Y-161705000D01*
X37770000Y-165305000D02*
X37770000Y-169505000D01*
X39770000Y-161705000D02*
X39770000Y-165305000D01*
X39770000Y-165305000D02*
X35770000Y-161705000D01*
X39770000Y-165305000D02*
X35770000Y-165305000D01*
X41170000Y-163505000D02*
X41170000Y-167105000D01*
X41170000Y-163505000D02*
X42670000Y-163505000D01*
X41170000Y-167105000D02*
X34370000Y-167105000D01*
X42670000Y-163505000D02*
X47270000Y-161005000D01*
X45870000Y-159255000D02*
X45870000Y-161755000D01*
X45870000Y-167655000D02*
X45870000Y-165205000D01*
X50120000Y-155655000D02*
X50120000Y-171255000D01*
X50120000Y-171255000D02*
X30320000Y-171255000D01*
%TO.C,R1*%
X104490436Y-68250000D02*
X105944564Y-68250000D01*
X104490436Y-70070000D02*
X105944564Y-70070000D01*
D12*
%TO.C,D1*%
X108672500Y-76390000D02*
G75*
G03*
X108672500Y-76390000I-50000J0D01*
G01*
D11*
%TO.C,Q7*%
X38710000Y-41490000D02*
X39685000Y-41490000D01*
X39685000Y-41490000D02*
X39960000Y-41215000D01*
X39685000Y-48090000D02*
X39960000Y-48365000D01*
X47560000Y-41215000D02*
X39960000Y-41215000D01*
X47560000Y-48365000D02*
X39960000Y-48365000D01*
X47835000Y-41490000D02*
X47560000Y-41215000D01*
X47835000Y-48090000D02*
X47560000Y-48365000D01*
%TO.C,R2*%
X104490436Y-71540000D02*
X105944564Y-71540000D01*
X104490436Y-73360000D02*
X105944564Y-73360000D01*
%TO.C,R7*%
X104490436Y-81410000D02*
X105944564Y-81410000D01*
X104490436Y-83230000D02*
X105944564Y-83230000D01*
%TO.C,Q4*%
X51570000Y-149895000D02*
X52320000Y-149895000D01*
X52320000Y-149895000D02*
X52420000Y-149795000D01*
X52420000Y-149795000D02*
X58020000Y-149795000D01*
X52420000Y-154795000D02*
X52320000Y-154695000D01*
X58020000Y-149795000D02*
X58120000Y-149895000D01*
X58020000Y-154795000D02*
X52420000Y-154795000D01*
X58120000Y-154695000D02*
X58020000Y-154795000D01*
%TO.C,R9*%
X104490436Y-87990000D02*
X105944564Y-87990000D01*
X104490436Y-89810000D02*
X105944564Y-89810000D01*
%TO.C,Q5*%
X51570000Y-156345000D02*
X52320000Y-156345000D01*
X52320000Y-156345000D02*
X52420000Y-156245000D01*
X52420000Y-156245000D02*
X58020000Y-156245000D01*
X52420000Y-161245000D02*
X52320000Y-161145000D01*
X58020000Y-156245000D02*
X58120000Y-156345000D01*
X58020000Y-161245000D02*
X52420000Y-161245000D01*
X58120000Y-161145000D02*
X58020000Y-161245000D01*
%TO.C,R6*%
X104490436Y-78120000D02*
X105944564Y-78120000D01*
X104490436Y-79940000D02*
X105944564Y-79940000D01*
%TO.C,K6*%
X30320000Y-172605000D02*
X30320000Y-179205000D01*
X30320000Y-172605000D02*
X50120000Y-172605000D01*
X30320000Y-181605000D02*
X30320000Y-188205000D01*
X34370000Y-180455000D02*
X33570000Y-180455000D01*
X34370000Y-180455000D02*
X34370000Y-184055000D01*
X35270000Y-186455000D02*
X37770000Y-186455000D01*
X35770000Y-178655000D02*
X39770000Y-178655000D01*
X35770000Y-182255000D02*
X35770000Y-178655000D01*
X37770000Y-174455000D02*
X35270000Y-174455000D01*
X37770000Y-174455000D02*
X37770000Y-178655000D01*
X37770000Y-182255000D02*
X37770000Y-186455000D01*
X39770000Y-178655000D02*
X39770000Y-182255000D01*
X39770000Y-182255000D02*
X35770000Y-178655000D01*
X39770000Y-182255000D02*
X35770000Y-182255000D01*
X41170000Y-180455000D02*
X41170000Y-184055000D01*
X41170000Y-180455000D02*
X42670000Y-180455000D01*
X41170000Y-184055000D02*
X34370000Y-184055000D01*
X42670000Y-180455000D02*
X47270000Y-177955000D01*
X45870000Y-176205000D02*
X45870000Y-178705000D01*
X45870000Y-184605000D02*
X45870000Y-182155000D01*
X50120000Y-172605000D02*
X50120000Y-188205000D01*
X50120000Y-188205000D02*
X30320000Y-188205000D01*
%TO.C,K2*%
X30740000Y-101420000D02*
X30740000Y-108020000D01*
X30740000Y-101420000D02*
X50540000Y-101420000D01*
X30740000Y-110420000D02*
X30740000Y-117020000D01*
X34790000Y-109270000D02*
X33990000Y-109270000D01*
X34790000Y-109270000D02*
X34790000Y-112870000D01*
X35690000Y-115270000D02*
X38190000Y-115270000D01*
X36190000Y-107470000D02*
X40190000Y-107470000D01*
X36190000Y-111070000D02*
X36190000Y-107470000D01*
X38190000Y-103270000D02*
X35690000Y-103270000D01*
X38190000Y-103270000D02*
X38190000Y-107470000D01*
X38190000Y-111070000D02*
X38190000Y-115270000D01*
X40190000Y-107470000D02*
X40190000Y-111070000D01*
X40190000Y-111070000D02*
X36190000Y-107470000D01*
X40190000Y-111070000D02*
X36190000Y-111070000D01*
X41590000Y-109270000D02*
X41590000Y-112870000D01*
X41590000Y-109270000D02*
X43090000Y-109270000D01*
X41590000Y-112870000D02*
X34790000Y-112870000D01*
X43090000Y-109270000D02*
X47690000Y-106770000D01*
X46290000Y-105020000D02*
X46290000Y-107520000D01*
X46290000Y-113420000D02*
X46290000Y-110970000D01*
X50540000Y-101420000D02*
X50540000Y-117020000D01*
X50540000Y-117020000D02*
X30740000Y-117020000D01*
%TO.C,U1*%
X64142500Y-62922500D02*
X64930000Y-62922500D01*
X64536250Y-62528750D02*
X64536250Y-63316250D01*
X65170000Y-62424437D02*
X65170000Y-63710000D01*
X65170000Y-62424437D02*
X66234437Y-61360000D01*
X65170000Y-67115563D02*
X65170000Y-65830000D01*
X65170000Y-67115563D02*
X66234437Y-68180000D01*
X66234437Y-61360000D02*
X71990000Y-61360000D01*
X66234437Y-68180000D02*
X71990000Y-68180000D01*
X71990000Y-61360000D02*
X71990000Y-63710000D01*
X71990000Y-68180000D02*
X71990000Y-65830000D01*
%TO.C,REF\u002A\u002A*%
X137660000Y-28300000D02*
X137660000Y-28570000D01*
X137660000Y-28570000D02*
X134830000Y-28570000D01*
X137660000Y-34930000D02*
X136560000Y-34930000D01*
X137660000Y-35200000D02*
X137660000Y-34930000D01*
X144080000Y-28300000D02*
X137660000Y-28300000D01*
X144080000Y-35200000D02*
X137660000Y-35200000D01*
%TO.C,R5*%
X65312936Y-48620000D02*
X66767064Y-48620000D01*
X65312936Y-50440000D02*
X66767064Y-50440000D01*
%TO.C,K3*%
X30320000Y-121755000D02*
X30320000Y-128355000D01*
X30320000Y-121755000D02*
X50120000Y-121755000D01*
X30320000Y-130755000D02*
X30320000Y-137355000D01*
X34370000Y-129605000D02*
X33570000Y-129605000D01*
X34370000Y-129605000D02*
X34370000Y-133205000D01*
X35270000Y-135605000D02*
X37770000Y-135605000D01*
X35770000Y-127805000D02*
X39770000Y-127805000D01*
X35770000Y-131405000D02*
X35770000Y-127805000D01*
X37770000Y-123605000D02*
X35270000Y-123605000D01*
X37770000Y-123605000D02*
X37770000Y-127805000D01*
X37770000Y-131405000D02*
X37770000Y-135605000D01*
X39770000Y-127805000D02*
X39770000Y-131405000D01*
X39770000Y-131405000D02*
X35770000Y-127805000D01*
X39770000Y-131405000D02*
X35770000Y-131405000D01*
X41170000Y-129605000D02*
X41170000Y-133205000D01*
X41170000Y-129605000D02*
X42670000Y-129605000D01*
X41170000Y-133205000D02*
X34370000Y-133205000D01*
X42670000Y-129605000D02*
X47270000Y-127105000D01*
X45870000Y-125355000D02*
X45870000Y-127855000D01*
X45870000Y-133755000D02*
X45870000Y-131305000D01*
X50120000Y-121755000D02*
X50120000Y-137355000D01*
X50120000Y-137355000D02*
X30320000Y-137355000D01*
%TO.C,R4*%
X100680436Y-21950000D02*
X102134564Y-21950000D01*
X100680436Y-23770000D02*
X102134564Y-23770000D01*
%TO.C,C2*%
X109349664Y-70110000D02*
X109565336Y-70110000D01*
X109349664Y-70830000D02*
X109565336Y-70830000D01*
%TD*%
M02*
