M48
; DRILL file {KiCad 7.0.8} date 2023 November 04, Saturday 16:43:43
; FORMAT={-:-/ absolute / inch / decimal}
; #@! TF.CreationDate,2023-11-04T16:43:43+02:00
; #@! TF.GenerationSoftware,Kicad,Pcbnew,7.0.8
; #@! TF.FileFunction,Plated,1,2,PTH
FMAT,2
INCH
; #@! TA.AperFunction,Plated,PTH,ComponentDrill
T1C0.0079
; #@! TA.AperFunction,Plated,PTH,ViaDrill
T2C0.0157
; #@! TA.AperFunction,Plated,PTH,ViaDrill
T3C0.0236
; #@! TA.AperFunction,Plated,PTH,ComponentDrill
T4C0.0256
; #@! TA.AperFunction,Plated,PTH,ComponentDrill
T5C0.0315
; #@! TA.AperFunction,Plated,PTH,ComponentDrill
T6C0.0394
; #@! TA.AperFunction,Plated,PTH,ComponentDrill
T7C0.0512
; #@! TA.AperFunction,Plated,PTH,ComponentDrill
T8C0.0689
%
G90
G05
T1
X4.8409Y3.0113
X4.8409Y2.9561
X4.8685Y3.0388
X4.8685Y2.9847
X4.8685Y2.9286
X4.8961Y3.0113
X4.8961Y2.9561
X4.9236Y3.0388
X4.9236Y2.9847
X4.9236Y2.9286
X4.9512Y3.0113
X4.9512Y2.9561
T2
X0.3Y1.1802
X0.65Y2.9302
X0.75Y1.4802
X1.0Y1.4302
X1.35Y2.9302
X2.05Y2.9302
X2.75Y2.8802
X2.8Y1.4302
X3.45Y2.9302
X3.95Y1.6302
X4.25Y1.6802
X4.3Y3.2802
X4.3Y3.1802
X4.35Y3.0802
X4.35Y2.9802
X4.55Y3.3302
X4.6Y3.3302
X4.65Y2.6802
X4.7Y3.3302
X4.7Y2.5
X4.7195Y3.2112
X4.75Y3.1302
X4.75Y1.1802
X4.7906Y3.1802
X5.1Y3.1802
X5.15Y3.1802
X5.15Y1.5802
X5.2Y1.75
T3
X1.5492Y1.1389
X1.6Y1.0802
X2.65Y0.7802
T4
X4.7999Y1.9819
X4.7999Y1.9319
X4.7999Y1.8819
X4.7999Y1.8819
X4.8499Y1.9819
X4.8499Y1.9319
X4.8499Y1.8819
T5
X1.05Y0.968
X1.05Y0.8302
X1.35Y1.3994
X1.35Y1.2617
X4.25Y1.3802
X4.35Y1.4802
X4.45Y1.3802
T6
X0.4368Y2.3105
X0.9093Y2.3105
X1.1318Y2.3105
X1.6043Y2.3105
X1.8268Y2.3105
X2.2993Y2.3105
X2.5218Y2.3105
X2.9943Y2.3105
X3.2168Y2.3105
X3.6893Y2.3105
X3.9118Y2.3105
X4.3843Y2.3105
X4.572Y2.3475
X4.572Y2.2475
X4.572Y2.1475
X4.7952Y3.5505
X4.8952Y3.5505
X4.9Y1.6306
X4.9Y1.5306
X4.9Y1.4306
X4.9952Y3.5505
T7
X0.4368Y1.8302
X0.675Y2.3872
X0.9112Y1.8282
X1.1318Y1.8302
X1.37Y2.3872
X1.6062Y1.8282
X1.8268Y1.8302
X2.065Y2.3872
X2.3012Y1.8282
X2.5218Y1.8302
X2.76Y2.3872
X2.9962Y1.8282
X3.2168Y1.8302
X3.455Y2.3872
X3.6912Y1.8282
X3.9118Y1.8302
X4.15Y2.3872
X4.3862Y1.8282
T8
X0.4749Y1.0097
X0.6277Y1.0097
X3.1589Y1.0097
X3.3116Y1.0097
X3.5371Y1.0097
X3.6898Y1.0097
X3.9153Y1.0097
X4.0681Y1.0097
X4.2935Y1.0097
X4.4463Y1.0097
X4.6718Y1.0097
X4.8245Y1.0097
X5.05Y1.0097
X5.2028Y1.0097
X5.2672Y1.4939
X5.2672Y1.3412
T6
G00X4.572Y2.4475
M15
G01X4.572Y2.4475
M16
G05
G00X5.0952Y3.5505
M15
G01X5.0952Y3.5505
M16
G05
T0
M30
