%TF.GenerationSoftware,KiCad,Pcbnew,7.0.8*%
%TF.CreationDate,2023-11-04T16:43:43+02:00*%
%TF.ProjectId,sprinklers,73707269-6e6b-46c6-9572-732e6b696361,1.1.0*%
%TF.SameCoordinates,Original*%
%TF.FileFunction,Legend,Top*%
%TF.FilePolarity,Positive*%
%FSLAX46Y46*%
G04 Gerber Fmt 4.6, Leading zero omitted, Abs format (unit mm)*
G04 Created by KiCad (PCBNEW 7.0.8) date 2023-11-04 16:43:43*
%MOMM*%
%LPD*%
G01*
G04 APERTURE LIST*
G04 Aperture macros list*
%AMRoundRect*
0 Rectangle with rounded corners*
0 $1 Rounding radius*
0 $2 $3 $4 $5 $6 $7 $8 $9 X,Y pos of 4 corners*
0 Add a 4 corners polygon primitive as box body*
4,1,4,$2,$3,$4,$5,$6,$7,$8,$9,$2,$3,0*
0 Add four circle primitives for the rounded corners*
1,1,$1+$1,$2,$3*
1,1,$1+$1,$4,$5*
1,1,$1+$1,$6,$7*
1,1,$1+$1,$8,$9*
0 Add four rect primitives between the rounded corners*
20,1,$1+$1,$2,$3,$4,$5,0*
20,1,$1+$1,$4,$5,$6,$7,0*
20,1,$1+$1,$6,$7,$8,$9,0*
20,1,$1+$1,$8,$9,$2,$3,0*%
G04 Aperture macros list end*
%ADD10C,0.125000*%
%ADD11C,0.150000*%
%ADD12C,0.400000*%
%ADD13C,0.120000*%
%ADD14C,0.100000*%
%ADD15RoundRect,0.250000X-0.625000X0.312500X-0.625000X-0.312500X0.625000X-0.312500X0.625000X0.312500X0*%
%ADD16RoundRect,0.147500X-0.147500X-0.172500X0.147500X-0.172500X0.147500X0.172500X-0.147500X0.172500X0*%
%ADD17C,3.000000*%
%ADD18C,2.500000*%
%ADD19RoundRect,0.225000X0.250000X-0.225000X0.250000X0.225000X-0.250000X0.225000X-0.250000X-0.225000X0*%
%ADD20R,3.000000X3.000000*%
%ADD21RoundRect,0.250000X0.475000X-0.250000X0.475000X0.250000X-0.475000X0.250000X-0.475000X-0.250000X0*%
%ADD22C,1.440000*%
%ADD23O,1.700000X1.700000*%
%ADD24R,1.700000X1.700000*%
%ADD25RoundRect,0.250000X-0.312500X-0.625000X0.312500X-0.625000X0.312500X0.625000X-0.312500X0.625000X0*%
%ADD26R,2.000000X1.500000*%
%ADD27R,2.000000X3.800000*%
%ADD28R,1.600000X1.600000*%
%ADD29C,1.600000*%
%ADD30RoundRect,0.250000X-1.000000X-0.900000X1.000000X-0.900000X1.000000X0.900000X-1.000000X0.900000X0*%
%ADD31RoundRect,0.250000X-2.050000X-0.300000X2.050000X-0.300000X2.050000X0.300000X-2.050000X0.300000X0*%
%ADD32RoundRect,0.250002X-4.449998X-5.149998X4.449998X-5.149998X4.449998X5.149998X-4.449998X5.149998X0*%
%ADD33R,2.200000X1.200000*%
%ADD34R,6.400000X5.800000*%
%ADD35R,5.400000X2.900000*%
%ADD36RoundRect,0.250000X1.000000X0.650000X-1.000000X0.650000X-1.000000X-0.650000X1.000000X-0.650000X0*%
%ADD37R,1.000000X1.000000*%
%ADD38O,1.000000X1.000000*%
%ADD39RoundRect,0.250000X0.900000X-1.000000X0.900000X1.000000X-0.900000X1.000000X-0.900000X-1.000000X0*%
%ADD40R,0.900000X1.500000*%
%ADD41R,1.500000X0.900000*%
%ADD42C,0.600000*%
%ADD43R,3.800000X3.800000*%
%ADD44RoundRect,0.250000X1.000000X0.900000X-1.000000X0.900000X-1.000000X-0.900000X1.000000X-0.900000X0*%
%ADD45RoundRect,0.250000X-0.900000X1.000000X-0.900000X-1.000000X0.900000X-1.000000X0.900000X1.000000X0*%
G04 APERTURE END LIST*
D10*
X125444485Y49396267D02*
X125368295Y49434362D01*
X125368295Y49434362D02*
X125254009Y49434362D01*
X125254009Y49434362D02*
X125139723Y49396267D01*
X125139723Y49396267D02*
X125063533Y49320077D01*
X125063533Y49320077D02*
X125025438Y49243886D01*
X125025438Y49243886D02*
X124987342Y49091505D01*
X124987342Y49091505D02*
X124987342Y48977219D01*
X124987342Y48977219D02*
X125025438Y48824838D01*
X125025438Y48824838D02*
X125063533Y48748648D01*
X125063533Y48748648D02*
X125139723Y48672457D01*
X125139723Y48672457D02*
X125254009Y48634362D01*
X125254009Y48634362D02*
X125330200Y48634362D01*
X125330200Y48634362D02*
X125444485Y48672457D01*
X125444485Y48672457D02*
X125482581Y48710553D01*
X125482581Y48710553D02*
X125482581Y48977219D01*
X125482581Y48977219D02*
X125330200Y48977219D01*
X125825438Y48634362D02*
X125825438Y49434362D01*
X125825438Y49434362D02*
X126282581Y48634362D01*
X126282581Y48634362D02*
X126282581Y49434362D01*
X126663533Y48634362D02*
X126663533Y49434362D01*
X126663533Y49434362D02*
X126854009Y49434362D01*
X126854009Y49434362D02*
X126968295Y49396267D01*
X126968295Y49396267D02*
X127044485Y49320077D01*
X127044485Y49320077D02*
X127082580Y49243886D01*
X127082580Y49243886D02*
X127120676Y49091505D01*
X127120676Y49091505D02*
X127120676Y48977219D01*
X127120676Y48977219D02*
X127082580Y48824838D01*
X127082580Y48824838D02*
X127044485Y48748648D01*
X127044485Y48748648D02*
X126968295Y48672457D01*
X126968295Y48672457D02*
X126854009Y48634362D01*
X126854009Y48634362D02*
X126663533Y48634362D01*
X119273833Y47364362D02*
X119007166Y47745315D01*
X118816690Y47364362D02*
X118816690Y48164362D01*
X118816690Y48164362D02*
X119121452Y48164362D01*
X119121452Y48164362D02*
X119197642Y48126267D01*
X119197642Y48126267D02*
X119235737Y48088172D01*
X119235737Y48088172D02*
X119273833Y48011981D01*
X119273833Y48011981D02*
X119273833Y47897696D01*
X119273833Y47897696D02*
X119235737Y47821505D01*
X119235737Y47821505D02*
X119197642Y47783410D01*
X119197642Y47783410D02*
X119121452Y47745315D01*
X119121452Y47745315D02*
X118816690Y47745315D01*
X119540499Y48164362D02*
X120073833Y47364362D01*
X120073833Y48164362D02*
X119540499Y47364362D01*
X118813522Y50367696D02*
X119080188Y50367696D01*
X119194474Y49948648D02*
X118813522Y49948648D01*
X118813522Y49948648D02*
X118813522Y50748648D01*
X118813522Y50748648D02*
X119194474Y50748648D01*
X119537332Y49948648D02*
X119537332Y50748648D01*
X119537332Y50748648D02*
X119994475Y49948648D01*
X119994475Y49948648D02*
X119994475Y50748648D01*
X119270666Y47408648D02*
X119003999Y47789601D01*
X118813523Y47408648D02*
X118813523Y48208648D01*
X118813523Y48208648D02*
X119118285Y48208648D01*
X119118285Y48208648D02*
X119194475Y48170553D01*
X119194475Y48170553D02*
X119232570Y48132458D01*
X119232570Y48132458D02*
X119270666Y48056267D01*
X119270666Y48056267D02*
X119270666Y47941982D01*
X119270666Y47941982D02*
X119232570Y47865791D01*
X119232570Y47865791D02*
X119194475Y47827696D01*
X119194475Y47827696D02*
X119118285Y47789601D01*
X119118285Y47789601D02*
X118813523Y47789601D01*
X119537332Y48208648D02*
X120070666Y47408648D01*
X120070666Y48208648D02*
X119537332Y47408648D01*
X124997007Y50253410D02*
X125606531Y50253410D01*
X125301769Y49948648D02*
X125301769Y50558172D01*
X125911292Y50748648D02*
X126406530Y50748648D01*
X126406530Y50748648D02*
X126139864Y50443886D01*
X126139864Y50443886D02*
X126254149Y50443886D01*
X126254149Y50443886D02*
X126330340Y50405791D01*
X126330340Y50405791D02*
X126368435Y50367696D01*
X126368435Y50367696D02*
X126406530Y50291505D01*
X126406530Y50291505D02*
X126406530Y50101029D01*
X126406530Y50101029D02*
X126368435Y50024839D01*
X126368435Y50024839D02*
X126330340Y49986743D01*
X126330340Y49986743D02*
X126254149Y49948648D01*
X126254149Y49948648D02*
X126025578Y49948648D01*
X126025578Y49948648D02*
X125949387Y49986743D01*
X125949387Y49986743D02*
X125911292Y50024839D01*
X126635102Y50748648D02*
X126901769Y49948648D01*
X126901769Y49948648D02*
X127168435Y50748648D01*
X127358911Y50748648D02*
X127854149Y50748648D01*
X127854149Y50748648D02*
X127587483Y50443886D01*
X127587483Y50443886D02*
X127701768Y50443886D01*
X127701768Y50443886D02*
X127777959Y50405791D01*
X127777959Y50405791D02*
X127816054Y50367696D01*
X127816054Y50367696D02*
X127854149Y50291505D01*
X127854149Y50291505D02*
X127854149Y50101029D01*
X127854149Y50101029D02*
X127816054Y50024839D01*
X127816054Y50024839D02*
X127777959Y49986743D01*
X127777959Y49986743D02*
X127701768Y49948648D01*
X127701768Y49948648D02*
X127473197Y49948648D01*
X127473197Y49948648D02*
X127397006Y49986743D01*
X127397006Y49986743D02*
X127358911Y50024839D01*
D11*
X21714334Y87485782D02*
X22857191Y87485782D01*
X22285762Y85485782D02*
X22285762Y87485782D01*
X23523858Y85485782D02*
X23523858Y87485782D01*
X24381001Y85485782D02*
X24381001Y86533401D01*
X24381001Y86533401D02*
X24285763Y86723878D01*
X24285763Y86723878D02*
X24095287Y86819116D01*
X24095287Y86819116D02*
X23809572Y86819116D01*
X23809572Y86819116D02*
X23619096Y86723878D01*
X23619096Y86723878D02*
X23523858Y86628640D01*
X26095287Y85581020D02*
X25904811Y85485782D01*
X25904811Y85485782D02*
X25523858Y85485782D01*
X25523858Y85485782D02*
X25333382Y85581020D01*
X25333382Y85581020D02*
X25238144Y85771497D01*
X25238144Y85771497D02*
X25238144Y86533401D01*
X25238144Y86533401D02*
X25333382Y86723878D01*
X25333382Y86723878D02*
X25523858Y86819116D01*
X25523858Y86819116D02*
X25904811Y86819116D01*
X25904811Y86819116D02*
X26095287Y86723878D01*
X26095287Y86723878D02*
X26190525Y86533401D01*
X26190525Y86533401D02*
X26190525Y86342925D01*
X26190525Y86342925D02*
X25238144Y86152449D01*
X27047668Y85485782D02*
X27047668Y87485782D01*
X27047668Y87485782D02*
X27523858Y87485782D01*
X27523858Y87485782D02*
X27809573Y87390544D01*
X27809573Y87390544D02*
X28000049Y87200068D01*
X28000049Y87200068D02*
X28095287Y87009592D01*
X28095287Y87009592D02*
X28190525Y86628640D01*
X28190525Y86628640D02*
X28190525Y86342925D01*
X28190525Y86342925D02*
X28095287Y85961973D01*
X28095287Y85961973D02*
X28000049Y85771497D01*
X28000049Y85771497D02*
X27809573Y85581020D01*
X27809573Y85581020D02*
X27523858Y85485782D01*
X27523858Y85485782D02*
X27047668Y85485782D01*
X29333382Y85485782D02*
X29142906Y85581020D01*
X29142906Y85581020D02*
X29047668Y85676259D01*
X29047668Y85676259D02*
X28952430Y85866735D01*
X28952430Y85866735D02*
X28952430Y86438163D01*
X28952430Y86438163D02*
X29047668Y86628640D01*
X29047668Y86628640D02*
X29142906Y86723878D01*
X29142906Y86723878D02*
X29333382Y86819116D01*
X29333382Y86819116D02*
X29619097Y86819116D01*
X29619097Y86819116D02*
X29809573Y86723878D01*
X29809573Y86723878D02*
X29904811Y86628640D01*
X29904811Y86628640D02*
X30000049Y86438163D01*
X30000049Y86438163D02*
X30000049Y85866735D01*
X30000049Y85866735D02*
X29904811Y85676259D01*
X29904811Y85676259D02*
X29809573Y85581020D01*
X29809573Y85581020D02*
X29619097Y85485782D01*
X29619097Y85485782D02*
X29333382Y85485782D01*
X30857192Y86819116D02*
X30857192Y85485782D01*
X30857192Y86628640D02*
X30952430Y86723878D01*
X30952430Y86723878D02*
X31142906Y86819116D01*
X31142906Y86819116D02*
X31428621Y86819116D01*
X31428621Y86819116D02*
X31619097Y86723878D01*
X31619097Y86723878D02*
X31714335Y86533401D01*
X31714335Y86533401D02*
X31714335Y85485782D01*
X32381002Y86819116D02*
X33142906Y86819116D01*
X32666716Y87485782D02*
X32666716Y85771497D01*
X32666716Y85771497D02*
X32761954Y85581020D01*
X32761954Y85581020D02*
X32952430Y85485782D01*
X32952430Y85485782D02*
X33142906Y85485782D01*
X33809573Y85485782D02*
X33809573Y87485782D01*
X34952430Y85485782D02*
X34095287Y86628640D01*
X34952430Y87485782D02*
X33809573Y86342925D01*
X35809573Y86819116D02*
X35809573Y85485782D01*
X35809573Y86628640D02*
X35904811Y86723878D01*
X35904811Y86723878D02*
X36095287Y86819116D01*
X36095287Y86819116D02*
X36381002Y86819116D01*
X36381002Y86819116D02*
X36571478Y86723878D01*
X36571478Y86723878D02*
X36666716Y86533401D01*
X36666716Y86533401D02*
X36666716Y85485782D01*
X37904811Y85485782D02*
X37714335Y85581020D01*
X37714335Y85581020D02*
X37619097Y85676259D01*
X37619097Y85676259D02*
X37523859Y85866735D01*
X37523859Y85866735D02*
X37523859Y86438163D01*
X37523859Y86438163D02*
X37619097Y86628640D01*
X37619097Y86628640D02*
X37714335Y86723878D01*
X37714335Y86723878D02*
X37904811Y86819116D01*
X37904811Y86819116D02*
X38190526Y86819116D01*
X38190526Y86819116D02*
X38381002Y86723878D01*
X38381002Y86723878D02*
X38476240Y86628640D01*
X38476240Y86628640D02*
X38571478Y86438163D01*
X38571478Y86438163D02*
X38571478Y85866735D01*
X38571478Y85866735D02*
X38476240Y85676259D01*
X38476240Y85676259D02*
X38381002Y85581020D01*
X38381002Y85581020D02*
X38190526Y85485782D01*
X38190526Y85485782D02*
X37904811Y85485782D01*
X39238145Y86819116D02*
X39619097Y85485782D01*
X39619097Y85485782D02*
X40000050Y86438163D01*
X40000050Y86438163D02*
X40381002Y85485782D01*
X40381002Y85485782D02*
X40761954Y86819116D01*
X42571478Y87390544D02*
X42381002Y87485782D01*
X42381002Y87485782D02*
X42095288Y87485782D01*
X42095288Y87485782D02*
X41809573Y87390544D01*
X41809573Y87390544D02*
X41619097Y87200068D01*
X41619097Y87200068D02*
X41523859Y87009592D01*
X41523859Y87009592D02*
X41428621Y86628640D01*
X41428621Y86628640D02*
X41428621Y86342925D01*
X41428621Y86342925D02*
X41523859Y85961973D01*
X41523859Y85961973D02*
X41619097Y85771497D01*
X41619097Y85771497D02*
X41809573Y85581020D01*
X41809573Y85581020D02*
X42095288Y85485782D01*
X42095288Y85485782D02*
X42285764Y85485782D01*
X42285764Y85485782D02*
X42571478Y85581020D01*
X42571478Y85581020D02*
X42666716Y85676259D01*
X42666716Y85676259D02*
X42666716Y86342925D01*
X42666716Y86342925D02*
X42285764Y86342925D01*
X44381002Y86819116D02*
X44381002Y85485782D01*
X43523859Y86819116D02*
X43523859Y85771497D01*
X43523859Y85771497D02*
X43619097Y85581020D01*
X43619097Y85581020D02*
X43809573Y85485782D01*
X43809573Y85485782D02*
X44095288Y85485782D01*
X44095288Y85485782D02*
X44285764Y85581020D01*
X44285764Y85581020D02*
X44381002Y85676259D01*
X45142907Y86819116D02*
X45619097Y85485782D01*
X46095288Y86819116D02*
X45619097Y85485782D01*
X45619097Y85485782D02*
X45428621Y85009592D01*
X45428621Y85009592D02*
X45333383Y84914354D01*
X45333383Y84914354D02*
X45142907Y84819116D01*
D12*
X21820002Y80819464D02*
X22248574Y80676607D01*
X22248574Y80676607D02*
X22962859Y80676607D01*
X22962859Y80676607D02*
X23248574Y80819464D01*
X23248574Y80819464D02*
X23391431Y80962322D01*
X23391431Y80962322D02*
X23534288Y81248036D01*
X23534288Y81248036D02*
X23534288Y81533750D01*
X23534288Y81533750D02*
X23391431Y81819464D01*
X23391431Y81819464D02*
X23248574Y81962322D01*
X23248574Y81962322D02*
X22962859Y82105179D01*
X22962859Y82105179D02*
X22391431Y82248036D01*
X22391431Y82248036D02*
X22105716Y82390893D01*
X22105716Y82390893D02*
X21962859Y82533750D01*
X21962859Y82533750D02*
X21820002Y82819464D01*
X21820002Y82819464D02*
X21820002Y83105179D01*
X21820002Y83105179D02*
X21962859Y83390893D01*
X21962859Y83390893D02*
X22105716Y83533750D01*
X22105716Y83533750D02*
X22391431Y83676607D01*
X22391431Y83676607D02*
X23105716Y83676607D01*
X23105716Y83676607D02*
X23534288Y83533750D01*
X24820002Y80676607D02*
X24820002Y83676607D01*
X24820002Y83676607D02*
X25962859Y83676607D01*
X25962859Y83676607D02*
X26248574Y83533750D01*
X26248574Y83533750D02*
X26391431Y83390893D01*
X26391431Y83390893D02*
X26534288Y83105179D01*
X26534288Y83105179D02*
X26534288Y82676607D01*
X26534288Y82676607D02*
X26391431Y82390893D01*
X26391431Y82390893D02*
X26248574Y82248036D01*
X26248574Y82248036D02*
X25962859Y82105179D01*
X25962859Y82105179D02*
X24820002Y82105179D01*
X29534288Y80676607D02*
X28534288Y82105179D01*
X27820002Y80676607D02*
X27820002Y83676607D01*
X27820002Y83676607D02*
X28962859Y83676607D01*
X28962859Y83676607D02*
X29248574Y83533750D01*
X29248574Y83533750D02*
X29391431Y83390893D01*
X29391431Y83390893D02*
X29534288Y83105179D01*
X29534288Y83105179D02*
X29534288Y82676607D01*
X29534288Y82676607D02*
X29391431Y82390893D01*
X29391431Y82390893D02*
X29248574Y82248036D01*
X29248574Y82248036D02*
X28962859Y82105179D01*
X28962859Y82105179D02*
X27820002Y82105179D01*
X30820002Y80676607D02*
X30820002Y83676607D01*
X32248573Y80676607D02*
X32248573Y83676607D01*
X32248573Y83676607D02*
X33962859Y80676607D01*
X33962859Y80676607D02*
X33962859Y83676607D01*
X35391430Y80676607D02*
X35391430Y83676607D01*
X37105716Y80676607D02*
X35820002Y82390893D01*
X37105716Y83676607D02*
X35391430Y81962322D01*
X39820002Y80676607D02*
X38391430Y80676607D01*
X38391430Y80676607D02*
X38391430Y83676607D01*
X40820001Y82248036D02*
X41820001Y82248036D01*
X42248573Y80676607D02*
X40820001Y80676607D01*
X40820001Y80676607D02*
X40820001Y83676607D01*
X40820001Y83676607D02*
X42248573Y83676607D01*
X45248573Y80676607D02*
X44248573Y82105179D01*
X43534287Y80676607D02*
X43534287Y83676607D01*
X43534287Y83676607D02*
X44677144Y83676607D01*
X44677144Y83676607D02*
X44962859Y83533750D01*
X44962859Y83533750D02*
X45105716Y83390893D01*
X45105716Y83390893D02*
X45248573Y83105179D01*
X45248573Y83105179D02*
X45248573Y82676607D01*
X45248573Y82676607D02*
X45105716Y82390893D01*
X45105716Y82390893D02*
X44962859Y82248036D01*
X44962859Y82248036D02*
X44677144Y82105179D01*
X44677144Y82105179D02*
X43534287Y82105179D01*
X46391430Y80819464D02*
X46820002Y80676607D01*
X46820002Y80676607D02*
X47534287Y80676607D01*
X47534287Y80676607D02*
X47820002Y80819464D01*
X47820002Y80819464D02*
X47962859Y80962322D01*
X47962859Y80962322D02*
X48105716Y81248036D01*
X48105716Y81248036D02*
X48105716Y81533750D01*
X48105716Y81533750D02*
X47962859Y81819464D01*
X47962859Y81819464D02*
X47820002Y81962322D01*
X47820002Y81962322D02*
X47534287Y82105179D01*
X47534287Y82105179D02*
X46962859Y82248036D01*
X46962859Y82248036D02*
X46677144Y82390893D01*
X46677144Y82390893D02*
X46534287Y82533750D01*
X46534287Y82533750D02*
X46391430Y82819464D01*
X46391430Y82819464D02*
X46391430Y83105179D01*
X46391430Y83105179D02*
X46534287Y83390893D01*
X46534287Y83390893D02*
X46677144Y83533750D01*
X46677144Y83533750D02*
X46962859Y83676607D01*
X46962859Y83676607D02*
X47677144Y83676607D01*
X47677144Y83676607D02*
X48105716Y83533750D01*
X53391430Y80962322D02*
X53248573Y80819464D01*
X53248573Y80819464D02*
X52820001Y80676607D01*
X52820001Y80676607D02*
X52534287Y80676607D01*
X52534287Y80676607D02*
X52105716Y80819464D01*
X52105716Y80819464D02*
X51820001Y81105179D01*
X51820001Y81105179D02*
X51677144Y81390893D01*
X51677144Y81390893D02*
X51534287Y81962322D01*
X51534287Y81962322D02*
X51534287Y82390893D01*
X51534287Y82390893D02*
X51677144Y82962322D01*
X51677144Y82962322D02*
X51820001Y83248036D01*
X51820001Y83248036D02*
X52105716Y83533750D01*
X52105716Y83533750D02*
X52534287Y83676607D01*
X52534287Y83676607D02*
X52820001Y83676607D01*
X52820001Y83676607D02*
X53248573Y83533750D01*
X53248573Y83533750D02*
X53391430Y83390893D01*
X55248573Y83676607D02*
X55820001Y83676607D01*
X55820001Y83676607D02*
X56105716Y83533750D01*
X56105716Y83533750D02*
X56391430Y83248036D01*
X56391430Y83248036D02*
X56534287Y82676607D01*
X56534287Y82676607D02*
X56534287Y81676607D01*
X56534287Y81676607D02*
X56391430Y81105179D01*
X56391430Y81105179D02*
X56105716Y80819464D01*
X56105716Y80819464D02*
X55820001Y80676607D01*
X55820001Y80676607D02*
X55248573Y80676607D01*
X55248573Y80676607D02*
X54962859Y80819464D01*
X54962859Y80819464D02*
X54677144Y81105179D01*
X54677144Y81105179D02*
X54534287Y81676607D01*
X54534287Y81676607D02*
X54534287Y82676607D01*
X54534287Y82676607D02*
X54677144Y83248036D01*
X54677144Y83248036D02*
X54962859Y83533750D01*
X54962859Y83533750D02*
X55248573Y83676607D01*
X57820001Y80676607D02*
X57820001Y83676607D01*
X57820001Y83676607D02*
X59534287Y80676607D01*
X59534287Y80676607D02*
X59534287Y83676607D01*
X60534287Y83676607D02*
X62248573Y83676607D01*
X61391430Y80676607D02*
X61391430Y83676607D01*
X64962858Y80676607D02*
X63962858Y82105179D01*
X63248572Y80676607D02*
X63248572Y83676607D01*
X63248572Y83676607D02*
X64391429Y83676607D01*
X64391429Y83676607D02*
X64677144Y83533750D01*
X64677144Y83533750D02*
X64820001Y83390893D01*
X64820001Y83390893D02*
X64962858Y83105179D01*
X64962858Y83105179D02*
X64962858Y82676607D01*
X64962858Y82676607D02*
X64820001Y82390893D01*
X64820001Y82390893D02*
X64677144Y82248036D01*
X64677144Y82248036D02*
X64391429Y82105179D01*
X64391429Y82105179D02*
X63248572Y82105179D01*
X66820001Y83676607D02*
X67391429Y83676607D01*
X67391429Y83676607D02*
X67677144Y83533750D01*
X67677144Y83533750D02*
X67962858Y83248036D01*
X67962858Y83248036D02*
X68105715Y82676607D01*
X68105715Y82676607D02*
X68105715Y81676607D01*
X68105715Y81676607D02*
X67962858Y81105179D01*
X67962858Y81105179D02*
X67677144Y80819464D01*
X67677144Y80819464D02*
X67391429Y80676607D01*
X67391429Y80676607D02*
X66820001Y80676607D01*
X66820001Y80676607D02*
X66534287Y80819464D01*
X66534287Y80819464D02*
X66248572Y81105179D01*
X66248572Y81105179D02*
X66105715Y81676607D01*
X66105715Y81676607D02*
X66105715Y82676607D01*
X66105715Y82676607D02*
X66248572Y83248036D01*
X66248572Y83248036D02*
X66534287Y83533750D01*
X66534287Y83533750D02*
X66820001Y83676607D01*
X70820001Y80676607D02*
X69391429Y80676607D01*
X69391429Y80676607D02*
X69391429Y83676607D01*
X73248572Y80676607D02*
X71820000Y80676607D01*
X71820000Y80676607D02*
X71820000Y83676607D01*
X74248571Y82248036D02*
X75248571Y82248036D01*
X75677143Y80676607D02*
X74248571Y80676607D01*
X74248571Y80676607D02*
X74248571Y83676607D01*
X74248571Y83676607D02*
X75677143Y83676607D01*
X78677143Y80676607D02*
X77677143Y82105179D01*
X76962857Y80676607D02*
X76962857Y83676607D01*
X76962857Y83676607D02*
X78105714Y83676607D01*
X78105714Y83676607D02*
X78391429Y83533750D01*
X78391429Y83533750D02*
X78534286Y83390893D01*
X78534286Y83390893D02*
X78677143Y83105179D01*
X78677143Y83105179D02*
X78677143Y82676607D01*
X78677143Y82676607D02*
X78534286Y82390893D01*
X78534286Y82390893D02*
X78391429Y82248036D01*
X78391429Y82248036D02*
X78105714Y82105179D01*
X78105714Y82105179D02*
X76962857Y82105179D01*
D10*
X125266840Y47783410D02*
X125381126Y47745315D01*
X125381126Y47745315D02*
X125419221Y47707219D01*
X125419221Y47707219D02*
X125457317Y47631029D01*
X125457317Y47631029D02*
X125457317Y47516743D01*
X125457317Y47516743D02*
X125419221Y47440553D01*
X125419221Y47440553D02*
X125381126Y47402457D01*
X125381126Y47402457D02*
X125304936Y47364362D01*
X125304936Y47364362D02*
X125000174Y47364362D01*
X125000174Y47364362D02*
X125000174Y48164362D01*
X125000174Y48164362D02*
X125266840Y48164362D01*
X125266840Y48164362D02*
X125343031Y48126267D01*
X125343031Y48126267D02*
X125381126Y48088172D01*
X125381126Y48088172D02*
X125419221Y48011981D01*
X125419221Y48011981D02*
X125419221Y47935791D01*
X125419221Y47935791D02*
X125381126Y47859600D01*
X125381126Y47859600D02*
X125343031Y47821505D01*
X125343031Y47821505D02*
X125266840Y47783410D01*
X125266840Y47783410D02*
X125000174Y47783410D01*
X125952555Y48164362D02*
X126104936Y48164362D01*
X126104936Y48164362D02*
X126181126Y48126267D01*
X126181126Y48126267D02*
X126257317Y48050077D01*
X126257317Y48050077D02*
X126295412Y47897696D01*
X126295412Y47897696D02*
X126295412Y47631029D01*
X126295412Y47631029D02*
X126257317Y47478648D01*
X126257317Y47478648D02*
X126181126Y47402457D01*
X126181126Y47402457D02*
X126104936Y47364362D01*
X126104936Y47364362D02*
X125952555Y47364362D01*
X125952555Y47364362D02*
X125876364Y47402457D01*
X125876364Y47402457D02*
X125800174Y47478648D01*
X125800174Y47478648D02*
X125762078Y47631029D01*
X125762078Y47631029D02*
X125762078Y47897696D01*
X125762078Y47897696D02*
X125800174Y48050077D01*
X125800174Y48050077D02*
X125876364Y48126267D01*
X125876364Y48126267D02*
X125952555Y48164362D01*
X126790650Y48164362D02*
X126943031Y48164362D01*
X126943031Y48164362D02*
X127019221Y48126267D01*
X127019221Y48126267D02*
X127095412Y48050077D01*
X127095412Y48050077D02*
X127133507Y47897696D01*
X127133507Y47897696D02*
X127133507Y47631029D01*
X127133507Y47631029D02*
X127095412Y47478648D01*
X127095412Y47478648D02*
X127019221Y47402457D01*
X127019221Y47402457D02*
X126943031Y47364362D01*
X126943031Y47364362D02*
X126790650Y47364362D01*
X126790650Y47364362D02*
X126714459Y47402457D01*
X126714459Y47402457D02*
X126638269Y47478648D01*
X126638269Y47478648D02*
X126600173Y47631029D01*
X126600173Y47631029D02*
X126600173Y47897696D01*
X126600173Y47897696D02*
X126638269Y48050077D01*
X126638269Y48050077D02*
X126714459Y48126267D01*
X126714459Y48126267D02*
X126790650Y48164362D01*
X127362078Y48164362D02*
X127819221Y48164362D01*
X127590649Y47364362D02*
X127590649Y48164362D01*
X118842094Y49478648D02*
X119299237Y49478648D01*
X119070665Y48678648D02*
X119070665Y49478648D01*
X119489713Y49478648D02*
X120023047Y48678648D01*
X120023047Y49478648D02*
X119489713Y48678648D01*
X118845261Y49434362D02*
X119302404Y49434362D01*
X119073832Y48634362D02*
X119073832Y49434362D01*
X119492880Y49434362D02*
X120026214Y48634362D01*
X120026214Y49434362D02*
X119492880Y48634362D01*
X125000174Y50209124D02*
X125609698Y50209124D01*
X125304936Y49904362D02*
X125304936Y50513886D01*
X125914459Y50704362D02*
X126409697Y50704362D01*
X126409697Y50704362D02*
X126143031Y50399600D01*
X126143031Y50399600D02*
X126257316Y50399600D01*
X126257316Y50399600D02*
X126333507Y50361505D01*
X126333507Y50361505D02*
X126371602Y50323410D01*
X126371602Y50323410D02*
X126409697Y50247219D01*
X126409697Y50247219D02*
X126409697Y50056743D01*
X126409697Y50056743D02*
X126371602Y49980553D01*
X126371602Y49980553D02*
X126333507Y49942457D01*
X126333507Y49942457D02*
X126257316Y49904362D01*
X126257316Y49904362D02*
X126028745Y49904362D01*
X126028745Y49904362D02*
X125952554Y49942457D01*
X125952554Y49942457D02*
X125914459Y49980553D01*
X126638269Y50704362D02*
X126904936Y49904362D01*
X126904936Y49904362D02*
X127171602Y50704362D01*
X127362078Y50704362D02*
X127857316Y50704362D01*
X127857316Y50704362D02*
X127590650Y50399600D01*
X127590650Y50399600D02*
X127704935Y50399600D01*
X127704935Y50399600D02*
X127781126Y50361505D01*
X127781126Y50361505D02*
X127819221Y50323410D01*
X127819221Y50323410D02*
X127857316Y50247219D01*
X127857316Y50247219D02*
X127857316Y50056743D01*
X127857316Y50056743D02*
X127819221Y49980553D01*
X127819221Y49980553D02*
X127781126Y49942457D01*
X127781126Y49942457D02*
X127704935Y49904362D01*
X127704935Y49904362D02*
X127476364Y49904362D01*
X127476364Y49904362D02*
X127400173Y49942457D01*
X127400173Y49942457D02*
X127362078Y49980553D01*
X118816689Y50323410D02*
X119083355Y50323410D01*
X119197641Y49904362D02*
X118816689Y49904362D01*
X118816689Y49904362D02*
X118816689Y50704362D01*
X118816689Y50704362D02*
X119197641Y50704362D01*
X119540499Y49904362D02*
X119540499Y50704362D01*
X119540499Y50704362D02*
X119997642Y49904362D01*
X119997642Y49904362D02*
X119997642Y50704362D01*
X125263673Y47827696D02*
X125377959Y47789601D01*
X125377959Y47789601D02*
X125416054Y47751505D01*
X125416054Y47751505D02*
X125454150Y47675315D01*
X125454150Y47675315D02*
X125454150Y47561029D01*
X125454150Y47561029D02*
X125416054Y47484839D01*
X125416054Y47484839D02*
X125377959Y47446743D01*
X125377959Y47446743D02*
X125301769Y47408648D01*
X125301769Y47408648D02*
X124997007Y47408648D01*
X124997007Y47408648D02*
X124997007Y48208648D01*
X124997007Y48208648D02*
X125263673Y48208648D01*
X125263673Y48208648D02*
X125339864Y48170553D01*
X125339864Y48170553D02*
X125377959Y48132458D01*
X125377959Y48132458D02*
X125416054Y48056267D01*
X125416054Y48056267D02*
X125416054Y47980077D01*
X125416054Y47980077D02*
X125377959Y47903886D01*
X125377959Y47903886D02*
X125339864Y47865791D01*
X125339864Y47865791D02*
X125263673Y47827696D01*
X125263673Y47827696D02*
X124997007Y47827696D01*
X125949388Y48208648D02*
X126101769Y48208648D01*
X126101769Y48208648D02*
X126177959Y48170553D01*
X126177959Y48170553D02*
X126254150Y48094363D01*
X126254150Y48094363D02*
X126292245Y47941982D01*
X126292245Y47941982D02*
X126292245Y47675315D01*
X126292245Y47675315D02*
X126254150Y47522934D01*
X126254150Y47522934D02*
X126177959Y47446743D01*
X126177959Y47446743D02*
X126101769Y47408648D01*
X126101769Y47408648D02*
X125949388Y47408648D01*
X125949388Y47408648D02*
X125873197Y47446743D01*
X125873197Y47446743D02*
X125797007Y47522934D01*
X125797007Y47522934D02*
X125758911Y47675315D01*
X125758911Y47675315D02*
X125758911Y47941982D01*
X125758911Y47941982D02*
X125797007Y48094363D01*
X125797007Y48094363D02*
X125873197Y48170553D01*
X125873197Y48170553D02*
X125949388Y48208648D01*
X126787483Y48208648D02*
X126939864Y48208648D01*
X126939864Y48208648D02*
X127016054Y48170553D01*
X127016054Y48170553D02*
X127092245Y48094363D01*
X127092245Y48094363D02*
X127130340Y47941982D01*
X127130340Y47941982D02*
X127130340Y47675315D01*
X127130340Y47675315D02*
X127092245Y47522934D01*
X127092245Y47522934D02*
X127016054Y47446743D01*
X127016054Y47446743D02*
X126939864Y47408648D01*
X126939864Y47408648D02*
X126787483Y47408648D01*
X126787483Y47408648D02*
X126711292Y47446743D01*
X126711292Y47446743D02*
X126635102Y47522934D01*
X126635102Y47522934D02*
X126597006Y47675315D01*
X126597006Y47675315D02*
X126597006Y47941982D01*
X126597006Y47941982D02*
X126635102Y48094363D01*
X126635102Y48094363D02*
X126711292Y48170553D01*
X126711292Y48170553D02*
X126787483Y48208648D01*
X127358911Y48208648D02*
X127816054Y48208648D01*
X127587482Y47408648D02*
X127587482Y48208648D01*
D11*
X68873309Y77258460D02*
X68206642Y78210841D01*
X67730452Y77258460D02*
X67730452Y79258460D01*
X67730452Y79258460D02*
X68492357Y79258460D01*
X68492357Y79258460D02*
X68682833Y79163222D01*
X68682833Y79163222D02*
X68778071Y79067984D01*
X68778071Y79067984D02*
X68873309Y78877508D01*
X68873309Y78877508D02*
X68873309Y78591794D01*
X68873309Y78591794D02*
X68778071Y78401318D01*
X68778071Y78401318D02*
X68682833Y78306079D01*
X68682833Y78306079D02*
X68492357Y78210841D01*
X68492357Y78210841D02*
X67730452Y78210841D01*
X69730452Y77448937D02*
X69825690Y77353698D01*
X69825690Y77353698D02*
X69730452Y77258460D01*
X69730452Y77258460D02*
X69635214Y77353698D01*
X69635214Y77353698D02*
X69730452Y77448937D01*
X69730452Y77448937D02*
X69730452Y77258460D01*
X73254262Y77258460D02*
X72111405Y77258460D01*
X72682833Y77258460D02*
X72682833Y79258460D01*
X72682833Y79258460D02*
X72492357Y78972746D01*
X72492357Y78972746D02*
X72301881Y78782270D01*
X72301881Y78782270D02*
X72111405Y78687032D01*
X74111405Y77448937D02*
X74206643Y77353698D01*
X74206643Y77353698D02*
X74111405Y77258460D01*
X74111405Y77258460D02*
X74016167Y77353698D01*
X74016167Y77353698D02*
X74111405Y77448937D01*
X74111405Y77448937D02*
X74111405Y77258460D01*
X76111405Y77258460D02*
X74968548Y77258460D01*
X75539976Y77258460D02*
X75539976Y79258460D01*
X75539976Y79258460D02*
X75349500Y78972746D01*
X75349500Y78972746D02*
X75159024Y78782270D01*
X75159024Y78782270D02*
X74968548Y78687032D01*
X76968548Y77448937D02*
X77063786Y77353698D01*
X77063786Y77353698D02*
X76968548Y77258460D01*
X76968548Y77258460D02*
X76873310Y77353698D01*
X76873310Y77353698D02*
X76968548Y77448937D01*
X76968548Y77448937D02*
X76968548Y77258460D01*
X78301881Y79258460D02*
X78492358Y79258460D01*
X78492358Y79258460D02*
X78682834Y79163222D01*
X78682834Y79163222D02*
X78778072Y79067984D01*
X78778072Y79067984D02*
X78873310Y78877508D01*
X78873310Y78877508D02*
X78968548Y78496556D01*
X78968548Y78496556D02*
X78968548Y78020365D01*
X78968548Y78020365D02*
X78873310Y77639413D01*
X78873310Y77639413D02*
X78778072Y77448937D01*
X78778072Y77448937D02*
X78682834Y77353698D01*
X78682834Y77353698D02*
X78492358Y77258460D01*
X78492358Y77258460D02*
X78301881Y77258460D01*
X78301881Y77258460D02*
X78111405Y77353698D01*
X78111405Y77353698D02*
X78016167Y77448937D01*
X78016167Y77448937D02*
X77920929Y77639413D01*
X77920929Y77639413D02*
X77825691Y78020365D01*
X77825691Y78020365D02*
X77825691Y78496556D01*
X77825691Y78496556D02*
X77920929Y78877508D01*
X77920929Y78877508D02*
X78016167Y79067984D01*
X78016167Y79067984D02*
X78111405Y79163222D01*
X78111405Y79163222D02*
X78301881Y79258460D01*
D10*
X125441318Y49440553D02*
X125365128Y49478648D01*
X125365128Y49478648D02*
X125250842Y49478648D01*
X125250842Y49478648D02*
X125136556Y49440553D01*
X125136556Y49440553D02*
X125060366Y49364363D01*
X125060366Y49364363D02*
X125022271Y49288172D01*
X125022271Y49288172D02*
X124984175Y49135791D01*
X124984175Y49135791D02*
X124984175Y49021505D01*
X124984175Y49021505D02*
X125022271Y48869124D01*
X125022271Y48869124D02*
X125060366Y48792934D01*
X125060366Y48792934D02*
X125136556Y48716743D01*
X125136556Y48716743D02*
X125250842Y48678648D01*
X125250842Y48678648D02*
X125327033Y48678648D01*
X125327033Y48678648D02*
X125441318Y48716743D01*
X125441318Y48716743D02*
X125479414Y48754839D01*
X125479414Y48754839D02*
X125479414Y49021505D01*
X125479414Y49021505D02*
X125327033Y49021505D01*
X125822271Y48678648D02*
X125822271Y49478648D01*
X125822271Y49478648D02*
X126279414Y48678648D01*
X126279414Y48678648D02*
X126279414Y49478648D01*
X126660366Y48678648D02*
X126660366Y49478648D01*
X126660366Y49478648D02*
X126850842Y49478648D01*
X126850842Y49478648D02*
X126965128Y49440553D01*
X126965128Y49440553D02*
X127041318Y49364363D01*
X127041318Y49364363D02*
X127079413Y49288172D01*
X127079413Y49288172D02*
X127117509Y49135791D01*
X127117509Y49135791D02*
X127117509Y49021505D01*
X127117509Y49021505D02*
X127079413Y48869124D01*
X127079413Y48869124D02*
X127041318Y48792934D01*
X127041318Y48792934D02*
X126965128Y48716743D01*
X126965128Y48716743D02*
X126850842Y48678648D01*
X126850842Y48678648D02*
X126660366Y48678648D01*
D11*
X113565763Y91696451D02*
X113232430Y92172642D01*
X112994335Y91696451D02*
X112994335Y92696451D01*
X112994335Y92696451D02*
X113375287Y92696451D01*
X113375287Y92696451D02*
X113470525Y92648832D01*
X113470525Y92648832D02*
X113518144Y92601213D01*
X113518144Y92601213D02*
X113565763Y92505975D01*
X113565763Y92505975D02*
X113565763Y92363118D01*
X113565763Y92363118D02*
X113518144Y92267880D01*
X113518144Y92267880D02*
X113470525Y92220261D01*
X113470525Y92220261D02*
X113375287Y92172642D01*
X113375287Y92172642D02*
X112994335Y92172642D01*
X114518144Y91696451D02*
X113946716Y91696451D01*
X114232430Y91696451D02*
X114232430Y92696451D01*
X114232430Y92696451D02*
X114137192Y92553594D01*
X114137192Y92553594D02*
X114041954Y92458356D01*
X114041954Y92458356D02*
X113946716Y92410737D01*
X114899097Y92601213D02*
X114946716Y92648832D01*
X114946716Y92648832D02*
X115041954Y92696451D01*
X115041954Y92696451D02*
X115280049Y92696451D01*
X115280049Y92696451D02*
X115375287Y92648832D01*
X115375287Y92648832D02*
X115422906Y92601213D01*
X115422906Y92601213D02*
X115470525Y92505975D01*
X115470525Y92505975D02*
X115470525Y92410737D01*
X115470525Y92410737D02*
X115422906Y92267880D01*
X115422906Y92267880D02*
X114851478Y91696451D01*
X114851478Y91696451D02*
X115470525Y91696451D01*
X105941905Y79051181D02*
X105941905Y80051181D01*
X105941905Y80051181D02*
X106180000Y80051181D01*
X106180000Y80051181D02*
X106322857Y80003562D01*
X106322857Y80003562D02*
X106418095Y79908324D01*
X106418095Y79908324D02*
X106465714Y79813086D01*
X106465714Y79813086D02*
X106513333Y79622610D01*
X106513333Y79622610D02*
X106513333Y79479753D01*
X106513333Y79479753D02*
X106465714Y79289277D01*
X106465714Y79289277D02*
X106418095Y79194039D01*
X106418095Y79194039D02*
X106322857Y79098800D01*
X106322857Y79098800D02*
X106180000Y79051181D01*
X106180000Y79051181D02*
X105941905Y79051181D01*
X107465714Y79051181D02*
X106894286Y79051181D01*
X107180000Y79051181D02*
X107180000Y80051181D01*
X107180000Y80051181D02*
X107084762Y79908324D01*
X107084762Y79908324D02*
X106989524Y79813086D01*
X106989524Y79813086D02*
X106894286Y79765467D01*
X44208847Y51654264D02*
X43208847Y51654264D01*
X44208847Y52225692D02*
X43637418Y51797121D01*
X43208847Y52225692D02*
X43780275Y51654264D01*
X43208847Y52559026D02*
X43208847Y53178073D01*
X43208847Y53178073D02*
X43589799Y52844740D01*
X43589799Y52844740D02*
X43589799Y52987597D01*
X43589799Y52987597D02*
X43637418Y53082835D01*
X43637418Y53082835D02*
X43685037Y53130454D01*
X43685037Y53130454D02*
X43780275Y53178073D01*
X43780275Y53178073D02*
X44018370Y53178073D01*
X44018370Y53178073D02*
X44113608Y53130454D01*
X44113608Y53130454D02*
X44161228Y53082835D01*
X44161228Y53082835D02*
X44208847Y52987597D01*
X44208847Y52987597D02*
X44208847Y52701883D01*
X44208847Y52701883D02*
X44161228Y52606645D01*
X44161228Y52606645D02*
X44113608Y52559026D01*
X105941905Y81591181D02*
X105941905Y82591181D01*
X105941905Y82591181D02*
X106180000Y82591181D01*
X106180000Y82591181D02*
X106322857Y82543562D01*
X106322857Y82543562D02*
X106418095Y82448324D01*
X106418095Y82448324D02*
X106465714Y82353086D01*
X106465714Y82353086D02*
X106513333Y82162610D01*
X106513333Y82162610D02*
X106513333Y82019753D01*
X106513333Y82019753D02*
X106465714Y81829277D01*
X106465714Y81829277D02*
X106418095Y81734039D01*
X106418095Y81734039D02*
X106322857Y81638800D01*
X106322857Y81638800D02*
X106180000Y81591181D01*
X106180000Y81591181D02*
X105941905Y81591181D01*
X106894286Y82495943D02*
X106941905Y82543562D01*
X106941905Y82543562D02*
X107037143Y82591181D01*
X107037143Y82591181D02*
X107275238Y82591181D01*
X107275238Y82591181D02*
X107370476Y82543562D01*
X107370476Y82543562D02*
X107418095Y82495943D01*
X107418095Y82495943D02*
X107465714Y82400705D01*
X107465714Y82400705D02*
X107465714Y82305467D01*
X107465714Y82305467D02*
X107418095Y82162610D01*
X107418095Y82162610D02*
X106846667Y81591181D01*
X106846667Y81591181D02*
X107465714Y81591181D01*
X61788338Y51753120D02*
X60788338Y51753120D01*
X61788338Y52324548D02*
X61216909Y51895977D01*
X60788338Y52324548D02*
X61359766Y51753120D01*
X61121671Y53181691D02*
X61788338Y53181691D01*
X60740719Y52943596D02*
X61455004Y52705501D01*
X61455004Y52705501D02*
X61455004Y53324548D01*
X26550607Y51793459D02*
X25550607Y51793459D01*
X26550607Y52364887D02*
X25979178Y51936316D01*
X25550607Y52364887D02*
X26122035Y51793459D01*
X25645845Y52745840D02*
X25598226Y52793459D01*
X25598226Y52793459D02*
X25550607Y52888697D01*
X25550607Y52888697D02*
X25550607Y53126792D01*
X25550607Y53126792D02*
X25598226Y53222030D01*
X25598226Y53222030D02*
X25645845Y53269649D01*
X25645845Y53269649D02*
X25741083Y53317268D01*
X25741083Y53317268D02*
X25836321Y53317268D01*
X25836321Y53317268D02*
X25979178Y53269649D01*
X25979178Y53269649D02*
X26550607Y52698221D01*
X26550607Y52698221D02*
X26550607Y53317268D01*
X100668484Y35088710D02*
X100716104Y35041091D01*
X100716104Y35041091D02*
X100763723Y34898234D01*
X100763723Y34898234D02*
X100763723Y34802996D01*
X100763723Y34802996D02*
X100716104Y34660139D01*
X100716104Y34660139D02*
X100620865Y34564901D01*
X100620865Y34564901D02*
X100525627Y34517282D01*
X100525627Y34517282D02*
X100335151Y34469663D01*
X100335151Y34469663D02*
X100192294Y34469663D01*
X100192294Y34469663D02*
X100001818Y34517282D01*
X100001818Y34517282D02*
X99906580Y34564901D01*
X99906580Y34564901D02*
X99811342Y34660139D01*
X99811342Y34660139D02*
X99763723Y34802996D01*
X99763723Y34802996D02*
X99763723Y34898234D01*
X99763723Y34898234D02*
X99811342Y35041091D01*
X99811342Y35041091D02*
X99858961Y35088710D01*
X100097056Y35945853D02*
X100763723Y35945853D01*
X99716104Y35707758D02*
X100430389Y35469663D01*
X100430389Y35469663D02*
X100430389Y36088710D01*
X10422381Y19646896D02*
X10898571Y19646896D01*
X10327143Y19361181D02*
X10660476Y20361181D01*
X10660476Y20361181D02*
X10993809Y19361181D01*
X11898571Y19456420D02*
X11850952Y19408800D01*
X11850952Y19408800D02*
X11708095Y19361181D01*
X11708095Y19361181D02*
X11612857Y19361181D01*
X11612857Y19361181D02*
X11470000Y19408800D01*
X11470000Y19408800D02*
X11374762Y19504039D01*
X11374762Y19504039D02*
X11327143Y19599277D01*
X11327143Y19599277D02*
X11279524Y19789753D01*
X11279524Y19789753D02*
X11279524Y19932610D01*
X11279524Y19932610D02*
X11327143Y20123086D01*
X11327143Y20123086D02*
X11374762Y20218324D01*
X11374762Y20218324D02*
X11470000Y20313562D01*
X11470000Y20313562D02*
X11612857Y20361181D01*
X11612857Y20361181D02*
X11708095Y20361181D01*
X11708095Y20361181D02*
X11850952Y20313562D01*
X11850952Y20313562D02*
X11898571Y20265943D01*
X12279524Y20265943D02*
X12327143Y20313562D01*
X12327143Y20313562D02*
X12422381Y20361181D01*
X12422381Y20361181D02*
X12660476Y20361181D01*
X12660476Y20361181D02*
X12755714Y20313562D01*
X12755714Y20313562D02*
X12803333Y20265943D01*
X12803333Y20265943D02*
X12850952Y20170705D01*
X12850952Y20170705D02*
X12850952Y20075467D01*
X12850952Y20075467D02*
X12803333Y19932610D01*
X12803333Y19932610D02*
X12231905Y19361181D01*
X12231905Y19361181D02*
X12850952Y19361181D01*
X13708095Y20027848D02*
X13708095Y19361181D01*
X13470000Y20408800D02*
X13231905Y19694515D01*
X13231905Y19694515D02*
X13850952Y19694515D01*
X14231905Y19742134D02*
X14993810Y19742134D01*
X15470000Y19361181D02*
X15470000Y20361181D01*
X15946190Y19361181D02*
X15946190Y20361181D01*
X15946190Y20361181D02*
X16517618Y19361181D01*
X16517618Y19361181D02*
X16517618Y20361181D01*
X17517618Y19361181D02*
X16946190Y19361181D01*
X17231904Y19361181D02*
X17231904Y20361181D01*
X17231904Y20361181D02*
X17136666Y20218324D01*
X17136666Y20218324D02*
X17041428Y20123086D01*
X17041428Y20123086D02*
X16946190Y20075467D01*
X98149580Y34123334D02*
X98197200Y34075715D01*
X98197200Y34075715D02*
X98244819Y33932858D01*
X98244819Y33932858D02*
X98244819Y33837620D01*
X98244819Y33837620D02*
X98197200Y33694763D01*
X98197200Y33694763D02*
X98101961Y33599525D01*
X98101961Y33599525D02*
X98006723Y33551906D01*
X98006723Y33551906D02*
X97816247Y33504287D01*
X97816247Y33504287D02*
X97673390Y33504287D01*
X97673390Y33504287D02*
X97482914Y33551906D01*
X97482914Y33551906D02*
X97387676Y33599525D01*
X97387676Y33599525D02*
X97292438Y33694763D01*
X97292438Y33694763D02*
X97244819Y33837620D01*
X97244819Y33837620D02*
X97244819Y33932858D01*
X97244819Y33932858D02*
X97292438Y34075715D01*
X97292438Y34075715D02*
X97340057Y34123334D01*
X97244819Y34456668D02*
X97244819Y35075715D01*
X97244819Y35075715D02*
X97625771Y34742382D01*
X97625771Y34742382D02*
X97625771Y34885239D01*
X97625771Y34885239D02*
X97673390Y34980477D01*
X97673390Y34980477D02*
X97721009Y35028096D01*
X97721009Y35028096D02*
X97816247Y35075715D01*
X97816247Y35075715D02*
X98054342Y35075715D01*
X98054342Y35075715D02*
X98149580Y35028096D01*
X98149580Y35028096D02*
X98197200Y34980477D01*
X98197200Y34980477D02*
X98244819Y34885239D01*
X98244819Y34885239D02*
X98244819Y34599525D01*
X98244819Y34599525D02*
X98197200Y34504287D01*
X98197200Y34504287D02*
X98149580Y34456668D01*
X109894761Y32211181D02*
X109561428Y32687372D01*
X109323333Y32211181D02*
X109323333Y33211181D01*
X109323333Y33211181D02*
X109704285Y33211181D01*
X109704285Y33211181D02*
X109799523Y33163562D01*
X109799523Y33163562D02*
X109847142Y33115943D01*
X109847142Y33115943D02*
X109894761Y33020705D01*
X109894761Y33020705D02*
X109894761Y32877848D01*
X109894761Y32877848D02*
X109847142Y32782610D01*
X109847142Y32782610D02*
X109799523Y32734991D01*
X109799523Y32734991D02*
X109704285Y32687372D01*
X109704285Y32687372D02*
X109323333Y32687372D01*
X110180476Y33211181D02*
X110513809Y32211181D01*
X110513809Y32211181D02*
X110847142Y33211181D01*
X111704285Y32211181D02*
X111132857Y32211181D01*
X111418571Y32211181D02*
X111418571Y33211181D01*
X111418571Y33211181D02*
X111323333Y33068324D01*
X111323333Y33068324D02*
X111228095Y32973086D01*
X111228095Y32973086D02*
X111132857Y32925467D01*
X121083644Y35202180D02*
X121083644Y34725990D01*
X121083644Y34725990D02*
X121559834Y34678371D01*
X121559834Y34678371D02*
X121512215Y34725990D01*
X121512215Y34725990D02*
X121464596Y34821228D01*
X121464596Y34821228D02*
X121464596Y35059323D01*
X121464596Y35059323D02*
X121512215Y35154561D01*
X121512215Y35154561D02*
X121559834Y35202180D01*
X121559834Y35202180D02*
X121655072Y35249799D01*
X121655072Y35249799D02*
X121893167Y35249799D01*
X121893167Y35249799D02*
X121988405Y35202180D01*
X121988405Y35202180D02*
X122036025Y35154561D01*
X122036025Y35154561D02*
X122083644Y35059323D01*
X122083644Y35059323D02*
X122083644Y34821228D01*
X122083644Y34821228D02*
X122036025Y34725990D01*
X122036025Y34725990D02*
X121988405Y34678371D01*
X121083644Y35535514D02*
X122083644Y35868847D01*
X122083644Y35868847D02*
X121083644Y36202180D01*
X121083644Y37202181D02*
X121083644Y37821228D01*
X121083644Y37821228D02*
X121464596Y37487895D01*
X121464596Y37487895D02*
X121464596Y37630752D01*
X121464596Y37630752D02*
X121512215Y37725990D01*
X121512215Y37725990D02*
X121559834Y37773609D01*
X121559834Y37773609D02*
X121655072Y37821228D01*
X121655072Y37821228D02*
X121893167Y37821228D01*
X121893167Y37821228D02*
X121988405Y37773609D01*
X121988405Y37773609D02*
X122036025Y37725990D01*
X122036025Y37725990D02*
X122083644Y37630752D01*
X122083644Y37630752D02*
X122083644Y37345038D01*
X122083644Y37345038D02*
X122036025Y37249800D01*
X122036025Y37249800D02*
X121988405Y37202181D01*
X121083644Y38106943D02*
X122083644Y38440276D01*
X122083644Y38440276D02*
X121083644Y38773609D01*
X121083644Y39011705D02*
X121083644Y39630752D01*
X121083644Y39630752D02*
X121464596Y39297419D01*
X121464596Y39297419D02*
X121464596Y39440276D01*
X121464596Y39440276D02*
X121512215Y39535514D01*
X121512215Y39535514D02*
X121559834Y39583133D01*
X121559834Y39583133D02*
X121655072Y39630752D01*
X121655072Y39630752D02*
X121893167Y39630752D01*
X121893167Y39630752D02*
X121988405Y39583133D01*
X121988405Y39583133D02*
X122036025Y39535514D01*
X122036025Y39535514D02*
X122083644Y39440276D01*
X122083644Y39440276D02*
X122083644Y39154562D01*
X122083644Y39154562D02*
X122036025Y39059324D01*
X122036025Y39059324D02*
X121988405Y39011705D01*
X121131263Y41345038D02*
X121083644Y41249800D01*
X121083644Y41249800D02*
X121083644Y41106943D01*
X121083644Y41106943D02*
X121131263Y40964086D01*
X121131263Y40964086D02*
X121226501Y40868848D01*
X121226501Y40868848D02*
X121321739Y40821229D01*
X121321739Y40821229D02*
X121512215Y40773610D01*
X121512215Y40773610D02*
X121655072Y40773610D01*
X121655072Y40773610D02*
X121845548Y40821229D01*
X121845548Y40821229D02*
X121940786Y40868848D01*
X121940786Y40868848D02*
X122036025Y40964086D01*
X122036025Y40964086D02*
X122083644Y41106943D01*
X122083644Y41106943D02*
X122083644Y41202181D01*
X122083644Y41202181D02*
X122036025Y41345038D01*
X122036025Y41345038D02*
X121988405Y41392657D01*
X121988405Y41392657D02*
X121655072Y41392657D01*
X121655072Y41392657D02*
X121655072Y41202181D01*
X122083644Y41821229D02*
X121083644Y41821229D01*
X121083644Y41821229D02*
X122083644Y42392657D01*
X122083644Y42392657D02*
X121083644Y42392657D01*
X122083644Y42868848D02*
X121083644Y42868848D01*
X121083644Y42868848D02*
X121083644Y43106943D01*
X121083644Y43106943D02*
X121131263Y43249800D01*
X121131263Y43249800D02*
X121226501Y43345038D01*
X121226501Y43345038D02*
X121321739Y43392657D01*
X121321739Y43392657D02*
X121512215Y43440276D01*
X121512215Y43440276D02*
X121655072Y43440276D01*
X121655072Y43440276D02*
X121845548Y43392657D01*
X121845548Y43392657D02*
X121940786Y43345038D01*
X121940786Y43345038D02*
X122036025Y43249800D01*
X122036025Y43249800D02*
X122083644Y43106943D01*
X122083644Y43106943D02*
X122083644Y42868848D01*
X46823333Y74521181D02*
X46490000Y74997372D01*
X46251905Y74521181D02*
X46251905Y75521181D01*
X46251905Y75521181D02*
X46632857Y75521181D01*
X46632857Y75521181D02*
X46728095Y75473562D01*
X46728095Y75473562D02*
X46775714Y75425943D01*
X46775714Y75425943D02*
X46823333Y75330705D01*
X46823333Y75330705D02*
X46823333Y75187848D01*
X46823333Y75187848D02*
X46775714Y75092610D01*
X46775714Y75092610D02*
X46728095Y75044991D01*
X46728095Y75044991D02*
X46632857Y74997372D01*
X46632857Y74997372D02*
X46251905Y74997372D01*
X47156667Y75521181D02*
X47775714Y75521181D01*
X47775714Y75521181D02*
X47442381Y75140229D01*
X47442381Y75140229D02*
X47585238Y75140229D01*
X47585238Y75140229D02*
X47680476Y75092610D01*
X47680476Y75092610D02*
X47728095Y75044991D01*
X47728095Y75044991D02*
X47775714Y74949753D01*
X47775714Y74949753D02*
X47775714Y74711658D01*
X47775714Y74711658D02*
X47728095Y74616420D01*
X47728095Y74616420D02*
X47680476Y74568800D01*
X47680476Y74568800D02*
X47585238Y74521181D01*
X47585238Y74521181D02*
X47299524Y74521181D01*
X47299524Y74521181D02*
X47204286Y74568800D01*
X47204286Y74568800D02*
X47156667Y74616420D01*
X105941905Y84131181D02*
X105941905Y85131181D01*
X105941905Y85131181D02*
X106180000Y85131181D01*
X106180000Y85131181D02*
X106322857Y85083562D01*
X106322857Y85083562D02*
X106418095Y84988324D01*
X106418095Y84988324D02*
X106465714Y84893086D01*
X106465714Y84893086D02*
X106513333Y84702610D01*
X106513333Y84702610D02*
X106513333Y84559753D01*
X106513333Y84559753D02*
X106465714Y84369277D01*
X106465714Y84369277D02*
X106418095Y84274039D01*
X106418095Y84274039D02*
X106322857Y84178800D01*
X106322857Y84178800D02*
X106180000Y84131181D01*
X106180000Y84131181D02*
X105941905Y84131181D01*
X106846667Y85131181D02*
X107465714Y85131181D01*
X107465714Y85131181D02*
X107132381Y84750229D01*
X107132381Y84750229D02*
X107275238Y84750229D01*
X107275238Y84750229D02*
X107370476Y84702610D01*
X107370476Y84702610D02*
X107418095Y84654991D01*
X107418095Y84654991D02*
X107465714Y84559753D01*
X107465714Y84559753D02*
X107465714Y84321658D01*
X107465714Y84321658D02*
X107418095Y84226420D01*
X107418095Y84226420D02*
X107370476Y84178800D01*
X107370476Y84178800D02*
X107275238Y84131181D01*
X107275238Y84131181D02*
X106989524Y84131181D01*
X106989524Y84131181D02*
X106894286Y84178800D01*
X106894286Y84178800D02*
X106846667Y84226420D01*
X121367255Y87897410D02*
X122033921Y87897410D01*
X122033921Y87897410D02*
X121605350Y86897410D01*
X124367255Y87897410D02*
X124176779Y87897410D01*
X124176779Y87897410D02*
X124081541Y87849791D01*
X124081541Y87849791D02*
X124033922Y87802172D01*
X124033922Y87802172D02*
X123938684Y87659315D01*
X123938684Y87659315D02*
X123891065Y87468839D01*
X123891065Y87468839D02*
X123891065Y87087887D01*
X123891065Y87087887D02*
X123938684Y86992649D01*
X123938684Y86992649D02*
X123986303Y86945029D01*
X123986303Y86945029D02*
X124081541Y86897410D01*
X124081541Y86897410D02*
X124272017Y86897410D01*
X124272017Y86897410D02*
X124367255Y86945029D01*
X124367255Y86945029D02*
X124414874Y86992649D01*
X124414874Y86992649D02*
X124462493Y87087887D01*
X124462493Y87087887D02*
X124462493Y87325982D01*
X124462493Y87325982D02*
X124414874Y87421220D01*
X124414874Y87421220D02*
X124367255Y87468839D01*
X124367255Y87468839D02*
X124272017Y87516458D01*
X124272017Y87516458D02*
X124081541Y87516458D01*
X124081541Y87516458D02*
X123986303Y87468839D01*
X123986303Y87468839D02*
X123938684Y87421220D01*
X123938684Y87421220D02*
X123891065Y87325982D01*
X126891065Y87897410D02*
X126414875Y87897410D01*
X126414875Y87897410D02*
X126367256Y87421220D01*
X126367256Y87421220D02*
X126414875Y87468839D01*
X126414875Y87468839D02*
X126510113Y87516458D01*
X126510113Y87516458D02*
X126748208Y87516458D01*
X126748208Y87516458D02*
X126843446Y87468839D01*
X126843446Y87468839D02*
X126891065Y87421220D01*
X126891065Y87421220D02*
X126938684Y87325982D01*
X126938684Y87325982D02*
X126938684Y87087887D01*
X126938684Y87087887D02*
X126891065Y86992649D01*
X126891065Y86992649D02*
X126843446Y86945029D01*
X126843446Y86945029D02*
X126748208Y86897410D01*
X126748208Y86897410D02*
X126510113Y86897410D01*
X126510113Y86897410D02*
X126414875Y86945029D01*
X126414875Y86945029D02*
X126367256Y86992649D01*
X129414875Y87849791D02*
X129319637Y87897410D01*
X129319637Y87897410D02*
X129176780Y87897410D01*
X129176780Y87897410D02*
X129033923Y87849791D01*
X129033923Y87849791D02*
X128938685Y87754553D01*
X128938685Y87754553D02*
X128891066Y87659315D01*
X128891066Y87659315D02*
X128843447Y87468839D01*
X128843447Y87468839D02*
X128843447Y87325982D01*
X128843447Y87325982D02*
X128891066Y87135506D01*
X128891066Y87135506D02*
X128938685Y87040268D01*
X128938685Y87040268D02*
X129033923Y86945029D01*
X129033923Y86945029D02*
X129176780Y86897410D01*
X129176780Y86897410D02*
X129272018Y86897410D01*
X129272018Y86897410D02*
X129414875Y86945029D01*
X129414875Y86945029D02*
X129462494Y86992649D01*
X129462494Y86992649D02*
X129462494Y87325982D01*
X129462494Y87325982D02*
X129272018Y87325982D01*
X91288095Y40101181D02*
X91288095Y39291658D01*
X91288095Y39291658D02*
X91335714Y39196420D01*
X91335714Y39196420D02*
X91383333Y39148800D01*
X91383333Y39148800D02*
X91478571Y39101181D01*
X91478571Y39101181D02*
X91669047Y39101181D01*
X91669047Y39101181D02*
X91764285Y39148800D01*
X91764285Y39148800D02*
X91811904Y39196420D01*
X91811904Y39196420D02*
X91859523Y39291658D01*
X91859523Y39291658D02*
X91859523Y40101181D01*
X92240476Y40101181D02*
X92859523Y40101181D01*
X92859523Y40101181D02*
X92526190Y39720229D01*
X92526190Y39720229D02*
X92669047Y39720229D01*
X92669047Y39720229D02*
X92764285Y39672610D01*
X92764285Y39672610D02*
X92811904Y39624991D01*
X92811904Y39624991D02*
X92859523Y39529753D01*
X92859523Y39529753D02*
X92859523Y39291658D01*
X92859523Y39291658D02*
X92811904Y39196420D01*
X92811904Y39196420D02*
X92764285Y39148800D01*
X92764285Y39148800D02*
X92669047Y39101181D01*
X92669047Y39101181D02*
X92383333Y39101181D01*
X92383333Y39101181D02*
X92288095Y39148800D01*
X92288095Y39148800D02*
X92240476Y39196420D01*
X109992666Y19091181D02*
X109992666Y18376896D01*
X109992666Y18376896D02*
X109945047Y18234039D01*
X109945047Y18234039D02*
X109849809Y18138800D01*
X109849809Y18138800D02*
X109706952Y18091181D01*
X109706952Y18091181D02*
X109611714Y18091181D01*
X110897428Y18757848D02*
X110897428Y18091181D01*
X110659333Y19138800D02*
X110421238Y18424515D01*
X110421238Y18424515D02*
X111040285Y18424515D01*
X79588024Y51795276D02*
X78588024Y51795276D01*
X79588024Y52366704D02*
X79016595Y51938133D01*
X78588024Y52366704D02*
X79159452Y51795276D01*
X78588024Y53271466D02*
X78588024Y52795276D01*
X78588024Y52795276D02*
X79064214Y52747657D01*
X79064214Y52747657D02*
X79016595Y52795276D01*
X79016595Y52795276D02*
X78968976Y52890514D01*
X78968976Y52890514D02*
X78968976Y53128609D01*
X78968976Y53128609D02*
X79016595Y53223847D01*
X79016595Y53223847D02*
X79064214Y53271466D01*
X79064214Y53271466D02*
X79159452Y53319085D01*
X79159452Y53319085D02*
X79397547Y53319085D01*
X79397547Y53319085D02*
X79492785Y53271466D01*
X79492785Y53271466D02*
X79540405Y53223847D01*
X79540405Y53223847D02*
X79588024Y53128609D01*
X79588024Y53128609D02*
X79588024Y52890514D01*
X79588024Y52890514D02*
X79540405Y52795276D01*
X79540405Y52795276D02*
X79492785Y52747657D01*
X21955674Y22709311D02*
X22003294Y22661692D01*
X22003294Y22661692D02*
X22050913Y22518835D01*
X22050913Y22518835D02*
X22050913Y22423597D01*
X22050913Y22423597D02*
X22003294Y22280740D01*
X22003294Y22280740D02*
X21908055Y22185502D01*
X21908055Y22185502D02*
X21812817Y22137883D01*
X21812817Y22137883D02*
X21622341Y22090264D01*
X21622341Y22090264D02*
X21479484Y22090264D01*
X21479484Y22090264D02*
X21289008Y22137883D01*
X21289008Y22137883D02*
X21193770Y22185502D01*
X21193770Y22185502D02*
X21098532Y22280740D01*
X21098532Y22280740D02*
X21050913Y22423597D01*
X21050913Y22423597D02*
X21050913Y22518835D01*
X21050913Y22518835D02*
X21098532Y22661692D01*
X21098532Y22661692D02*
X21146151Y22709311D01*
X21050913Y23614073D02*
X21050913Y23137883D01*
X21050913Y23137883D02*
X21527103Y23090264D01*
X21527103Y23090264D02*
X21479484Y23137883D01*
X21479484Y23137883D02*
X21431865Y23233121D01*
X21431865Y23233121D02*
X21431865Y23471216D01*
X21431865Y23471216D02*
X21479484Y23566454D01*
X21479484Y23566454D02*
X21527103Y23614073D01*
X21527103Y23614073D02*
X21622341Y23661692D01*
X21622341Y23661692D02*
X21860436Y23661692D01*
X21860436Y23661692D02*
X21955674Y23614073D01*
X21955674Y23614073D02*
X22003294Y23566454D01*
X22003294Y23566454D02*
X22050913Y23471216D01*
X22050913Y23471216D02*
X22050913Y23233121D01*
X22050913Y23233121D02*
X22003294Y23137883D01*
X22003294Y23137883D02*
X21955674Y23090264D01*
X13961905Y40141181D02*
X13961905Y41141181D01*
X13961905Y41141181D02*
X14200000Y41141181D01*
X14200000Y41141181D02*
X14342857Y41093562D01*
X14342857Y41093562D02*
X14438095Y40998324D01*
X14438095Y40998324D02*
X14485714Y40903086D01*
X14485714Y40903086D02*
X14533333Y40712610D01*
X14533333Y40712610D02*
X14533333Y40569753D01*
X14533333Y40569753D02*
X14485714Y40379277D01*
X14485714Y40379277D02*
X14438095Y40284039D01*
X14438095Y40284039D02*
X14342857Y40188800D01*
X14342857Y40188800D02*
X14200000Y40141181D01*
X14200000Y40141181D02*
X13961905Y40141181D01*
X15390476Y41141181D02*
X15200000Y41141181D01*
X15200000Y41141181D02*
X15104762Y41093562D01*
X15104762Y41093562D02*
X15057143Y41045943D01*
X15057143Y41045943D02*
X14961905Y40903086D01*
X14961905Y40903086D02*
X14914286Y40712610D01*
X14914286Y40712610D02*
X14914286Y40331658D01*
X14914286Y40331658D02*
X14961905Y40236420D01*
X14961905Y40236420D02*
X15009524Y40188800D01*
X15009524Y40188800D02*
X15104762Y40141181D01*
X15104762Y40141181D02*
X15295238Y40141181D01*
X15295238Y40141181D02*
X15390476Y40188800D01*
X15390476Y40188800D02*
X15438095Y40236420D01*
X15438095Y40236420D02*
X15485714Y40331658D01*
X15485714Y40331658D02*
X15485714Y40569753D01*
X15485714Y40569753D02*
X15438095Y40664991D01*
X15438095Y40664991D02*
X15390476Y40712610D01*
X15390476Y40712610D02*
X15295238Y40760229D01*
X15295238Y40760229D02*
X15104762Y40760229D01*
X15104762Y40760229D02*
X15009524Y40712610D01*
X15009524Y40712610D02*
X14961905Y40664991D01*
X14961905Y40664991D02*
X14914286Y40569753D01*
X29399580Y33629334D02*
X29447200Y33581715D01*
X29447200Y33581715D02*
X29494819Y33438858D01*
X29494819Y33438858D02*
X29494819Y33343620D01*
X29494819Y33343620D02*
X29447200Y33200763D01*
X29447200Y33200763D02*
X29351961Y33105525D01*
X29351961Y33105525D02*
X29256723Y33057906D01*
X29256723Y33057906D02*
X29066247Y33010287D01*
X29066247Y33010287D02*
X28923390Y33010287D01*
X28923390Y33010287D02*
X28732914Y33057906D01*
X28732914Y33057906D02*
X28637676Y33105525D01*
X28637676Y33105525D02*
X28542438Y33200763D01*
X28542438Y33200763D02*
X28494819Y33343620D01*
X28494819Y33343620D02*
X28494819Y33438858D01*
X28494819Y33438858D02*
X28542438Y33581715D01*
X28542438Y33581715D02*
X28590057Y33629334D01*
X28494819Y34486477D02*
X28494819Y34296001D01*
X28494819Y34296001D02*
X28542438Y34200763D01*
X28542438Y34200763D02*
X28590057Y34153144D01*
X28590057Y34153144D02*
X28732914Y34057906D01*
X28732914Y34057906D02*
X28923390Y34010287D01*
X28923390Y34010287D02*
X29304342Y34010287D01*
X29304342Y34010287D02*
X29399580Y34057906D01*
X29399580Y34057906D02*
X29447200Y34105525D01*
X29447200Y34105525D02*
X29494819Y34200763D01*
X29494819Y34200763D02*
X29494819Y34391239D01*
X29494819Y34391239D02*
X29447200Y34486477D01*
X29447200Y34486477D02*
X29399580Y34534096D01*
X29399580Y34534096D02*
X29304342Y34581715D01*
X29304342Y34581715D02*
X29066247Y34581715D01*
X29066247Y34581715D02*
X28971009Y34534096D01*
X28971009Y34534096D02*
X28923390Y34486477D01*
X28923390Y34486477D02*
X28875771Y34391239D01*
X28875771Y34391239D02*
X28875771Y34200763D01*
X28875771Y34200763D02*
X28923390Y34105525D01*
X28923390Y34105525D02*
X28971009Y34057906D01*
X28971009Y34057906D02*
X29066247Y34010287D01*
X118508340Y53425543D02*
X118460721Y53473162D01*
X118460721Y53473162D02*
X118413102Y53568400D01*
X118413102Y53568400D02*
X118413102Y53806495D01*
X118413102Y53806495D02*
X118460721Y53901733D01*
X118460721Y53901733D02*
X118508340Y53949352D01*
X118508340Y53949352D02*
X118603578Y53996971D01*
X118603578Y53996971D02*
X118698816Y53996971D01*
X118698816Y53996971D02*
X118841673Y53949352D01*
X118841673Y53949352D02*
X119413102Y53377924D01*
X119413102Y53377924D02*
X119413102Y53996971D01*
X118413102Y54854114D02*
X118413102Y54663638D01*
X118413102Y54663638D02*
X118460721Y54568400D01*
X118460721Y54568400D02*
X118508340Y54520781D01*
X118508340Y54520781D02*
X118651197Y54425543D01*
X118651197Y54425543D02*
X118841673Y54377924D01*
X118841673Y54377924D02*
X119222625Y54377924D01*
X119222625Y54377924D02*
X119317863Y54425543D01*
X119317863Y54425543D02*
X119365483Y54473162D01*
X119365483Y54473162D02*
X119413102Y54568400D01*
X119413102Y54568400D02*
X119413102Y54758876D01*
X119413102Y54758876D02*
X119365483Y54854114D01*
X119365483Y54854114D02*
X119317863Y54901733D01*
X119317863Y54901733D02*
X119222625Y54949352D01*
X119222625Y54949352D02*
X118984530Y54949352D01*
X118984530Y54949352D02*
X118889292Y54901733D01*
X118889292Y54901733D02*
X118841673Y54854114D01*
X118841673Y54854114D02*
X118794054Y54758876D01*
X118794054Y54758876D02*
X118794054Y54568400D01*
X118794054Y54568400D02*
X118841673Y54473162D01*
X118841673Y54473162D02*
X118889292Y54425543D01*
X118889292Y54425543D02*
X118984530Y54377924D01*
X118508340Y56092210D02*
X118460721Y56139829D01*
X118460721Y56139829D02*
X118413102Y56235067D01*
X118413102Y56235067D02*
X118413102Y56473162D01*
X118413102Y56473162D02*
X118460721Y56568400D01*
X118460721Y56568400D02*
X118508340Y56616019D01*
X118508340Y56616019D02*
X118603578Y56663638D01*
X118603578Y56663638D02*
X118698816Y56663638D01*
X118698816Y56663638D02*
X118841673Y56616019D01*
X118841673Y56616019D02*
X119413102Y56044591D01*
X119413102Y56044591D02*
X119413102Y56663638D01*
X118413102Y56996972D02*
X118413102Y57663638D01*
X118413102Y57663638D02*
X119413102Y57235067D01*
X118508340Y58758877D02*
X118460721Y58806496D01*
X118460721Y58806496D02*
X118413102Y58901734D01*
X118413102Y58901734D02*
X118413102Y59139829D01*
X118413102Y59139829D02*
X118460721Y59235067D01*
X118460721Y59235067D02*
X118508340Y59282686D01*
X118508340Y59282686D02*
X118603578Y59330305D01*
X118603578Y59330305D02*
X118698816Y59330305D01*
X118698816Y59330305D02*
X118841673Y59282686D01*
X118841673Y59282686D02*
X119413102Y58711258D01*
X119413102Y58711258D02*
X119413102Y59330305D01*
X118841673Y59901734D02*
X118794054Y59806496D01*
X118794054Y59806496D02*
X118746435Y59758877D01*
X118746435Y59758877D02*
X118651197Y59711258D01*
X118651197Y59711258D02*
X118603578Y59711258D01*
X118603578Y59711258D02*
X118508340Y59758877D01*
X118508340Y59758877D02*
X118460721Y59806496D01*
X118460721Y59806496D02*
X118413102Y59901734D01*
X118413102Y59901734D02*
X118413102Y60092210D01*
X118413102Y60092210D02*
X118460721Y60187448D01*
X118460721Y60187448D02*
X118508340Y60235067D01*
X118508340Y60235067D02*
X118603578Y60282686D01*
X118603578Y60282686D02*
X118651197Y60282686D01*
X118651197Y60282686D02*
X118746435Y60235067D01*
X118746435Y60235067D02*
X118794054Y60187448D01*
X118794054Y60187448D02*
X118841673Y60092210D01*
X118841673Y60092210D02*
X118841673Y59901734D01*
X118841673Y59901734D02*
X118889292Y59806496D01*
X118889292Y59806496D02*
X118936911Y59758877D01*
X118936911Y59758877D02*
X119032149Y59711258D01*
X119032149Y59711258D02*
X119222625Y59711258D01*
X119222625Y59711258D02*
X119317863Y59758877D01*
X119317863Y59758877D02*
X119365483Y59806496D01*
X119365483Y59806496D02*
X119413102Y59901734D01*
X119413102Y59901734D02*
X119413102Y60092210D01*
X119413102Y60092210D02*
X119365483Y60187448D01*
X119365483Y60187448D02*
X119317863Y60235067D01*
X119317863Y60235067D02*
X119222625Y60282686D01*
X119222625Y60282686D02*
X119032149Y60282686D01*
X119032149Y60282686D02*
X118936911Y60235067D01*
X118936911Y60235067D02*
X118889292Y60187448D01*
X118889292Y60187448D02*
X118841673Y60092210D01*
X118508340Y61425544D02*
X118460721Y61473163D01*
X118460721Y61473163D02*
X118413102Y61568401D01*
X118413102Y61568401D02*
X118413102Y61806496D01*
X118413102Y61806496D02*
X118460721Y61901734D01*
X118460721Y61901734D02*
X118508340Y61949353D01*
X118508340Y61949353D02*
X118603578Y61996972D01*
X118603578Y61996972D02*
X118698816Y61996972D01*
X118698816Y61996972D02*
X118841673Y61949353D01*
X118841673Y61949353D02*
X119413102Y61377925D01*
X119413102Y61377925D02*
X119413102Y61996972D01*
X119413102Y62473163D02*
X119413102Y62663639D01*
X119413102Y62663639D02*
X119365483Y62758877D01*
X119365483Y62758877D02*
X119317863Y62806496D01*
X119317863Y62806496D02*
X119175006Y62901734D01*
X119175006Y62901734D02*
X118984530Y62949353D01*
X118984530Y62949353D02*
X118603578Y62949353D01*
X118603578Y62949353D02*
X118508340Y62901734D01*
X118508340Y62901734D02*
X118460721Y62854115D01*
X118460721Y62854115D02*
X118413102Y62758877D01*
X118413102Y62758877D02*
X118413102Y62568401D01*
X118413102Y62568401D02*
X118460721Y62473163D01*
X118460721Y62473163D02*
X118508340Y62425544D01*
X118508340Y62425544D02*
X118603578Y62377925D01*
X118603578Y62377925D02*
X118841673Y62377925D01*
X118841673Y62377925D02*
X118936911Y62425544D01*
X118936911Y62425544D02*
X118984530Y62473163D01*
X118984530Y62473163D02*
X119032149Y62568401D01*
X119032149Y62568401D02*
X119032149Y62758877D01*
X119032149Y62758877D02*
X118984530Y62854115D01*
X118984530Y62854115D02*
X118936911Y62901734D01*
X118936911Y62901734D02*
X118841673Y62949353D01*
X8805657Y51880444D02*
X7805657Y51880444D01*
X8805657Y52451872D02*
X8234228Y52023301D01*
X7805657Y52451872D02*
X8377085Y51880444D01*
X8805657Y53404253D02*
X8805657Y52832825D01*
X8805657Y53118539D02*
X7805657Y53118539D01*
X7805657Y53118539D02*
X7948514Y53023301D01*
X7948514Y53023301D02*
X8043752Y52928063D01*
X8043752Y52928063D02*
X8091371Y52832825D01*
X52233095Y34396181D02*
X52233095Y33586658D01*
X52233095Y33586658D02*
X52280714Y33491420D01*
X52280714Y33491420D02*
X52328333Y33443800D01*
X52328333Y33443800D02*
X52423571Y33396181D01*
X52423571Y33396181D02*
X52614047Y33396181D01*
X52614047Y33396181D02*
X52709285Y33443800D01*
X52709285Y33443800D02*
X52756904Y33491420D01*
X52756904Y33491420D02*
X52804523Y33586658D01*
X52804523Y33586658D02*
X52804523Y34396181D01*
X53804523Y33396181D02*
X53233095Y33396181D01*
X53518809Y33396181D02*
X53518809Y34396181D01*
X53518809Y34396181D02*
X53423571Y34253324D01*
X53423571Y34253324D02*
X53328333Y34158086D01*
X53328333Y34158086D02*
X53233095Y34110467D01*
X14649761Y71907048D02*
X14554523Y71954667D01*
X14554523Y71954667D02*
X14459285Y72049905D01*
X14459285Y72049905D02*
X14316428Y72192763D01*
X14316428Y72192763D02*
X14221190Y72240382D01*
X14221190Y72240382D02*
X14125952Y72240382D01*
X14173571Y72002286D02*
X14078333Y72049905D01*
X14078333Y72049905D02*
X13983095Y72145144D01*
X13983095Y72145144D02*
X13935476Y72335620D01*
X13935476Y72335620D02*
X13935476Y72668953D01*
X13935476Y72668953D02*
X13983095Y72859429D01*
X13983095Y72859429D02*
X14078333Y72954667D01*
X14078333Y72954667D02*
X14173571Y73002286D01*
X14173571Y73002286D02*
X14364047Y73002286D01*
X14364047Y73002286D02*
X14459285Y72954667D01*
X14459285Y72954667D02*
X14554523Y72859429D01*
X14554523Y72859429D02*
X14602142Y72668953D01*
X14602142Y72668953D02*
X14602142Y72335620D01*
X14602142Y72335620D02*
X14554523Y72145144D01*
X14554523Y72145144D02*
X14459285Y72049905D01*
X14459285Y72049905D02*
X14364047Y72002286D01*
X14364047Y72002286D02*
X14173571Y72002286D01*
X15554523Y72002286D02*
X14983095Y72002286D01*
X15268809Y72002286D02*
X15268809Y73002286D01*
X15268809Y73002286D02*
X15173571Y72859429D01*
X15173571Y72859429D02*
X15078333Y72764191D01*
X15078333Y72764191D02*
X14983095Y72716572D01*
X60960379Y28165772D02*
X60960379Y27689582D01*
X60960379Y27689582D02*
X59960379Y27689582D01*
X60960379Y29022915D02*
X60960379Y28451487D01*
X60960379Y28737201D02*
X59960379Y28737201D01*
X59960379Y28737201D02*
X60103236Y28641963D01*
X60103236Y28641963D02*
X60198474Y28546725D01*
X60198474Y28546725D02*
X60246093Y28451487D01*
X31794761Y72025943D02*
X31699523Y72073562D01*
X31699523Y72073562D02*
X31604285Y72168800D01*
X31604285Y72168800D02*
X31461428Y72311658D01*
X31461428Y72311658D02*
X31366190Y72359277D01*
X31366190Y72359277D02*
X31270952Y72359277D01*
X31318571Y72121181D02*
X31223333Y72168800D01*
X31223333Y72168800D02*
X31128095Y72264039D01*
X31128095Y72264039D02*
X31080476Y72454515D01*
X31080476Y72454515D02*
X31080476Y72787848D01*
X31080476Y72787848D02*
X31128095Y72978324D01*
X31128095Y72978324D02*
X31223333Y73073562D01*
X31223333Y73073562D02*
X31318571Y73121181D01*
X31318571Y73121181D02*
X31509047Y73121181D01*
X31509047Y73121181D02*
X31604285Y73073562D01*
X31604285Y73073562D02*
X31699523Y72978324D01*
X31699523Y72978324D02*
X31747142Y72787848D01*
X31747142Y72787848D02*
X31747142Y72454515D01*
X31747142Y72454515D02*
X31699523Y72264039D01*
X31699523Y72264039D02*
X31604285Y72168800D01*
X31604285Y72168800D02*
X31509047Y72121181D01*
X31509047Y72121181D02*
X31318571Y72121181D01*
X32128095Y73025943D02*
X32175714Y73073562D01*
X32175714Y73073562D02*
X32270952Y73121181D01*
X32270952Y73121181D02*
X32509047Y73121181D01*
X32509047Y73121181D02*
X32604285Y73073562D01*
X32604285Y73073562D02*
X32651904Y73025943D01*
X32651904Y73025943D02*
X32699523Y72930705D01*
X32699523Y72930705D02*
X32699523Y72835467D01*
X32699523Y72835467D02*
X32651904Y72692610D01*
X32651904Y72692610D02*
X32080476Y72121181D01*
X32080476Y72121181D02*
X32699523Y72121181D01*
X97623333Y77781181D02*
X97290000Y78257372D01*
X97051905Y77781181D02*
X97051905Y78781181D01*
X97051905Y78781181D02*
X97432857Y78781181D01*
X97432857Y78781181D02*
X97528095Y78733562D01*
X97528095Y78733562D02*
X97575714Y78685943D01*
X97575714Y78685943D02*
X97623333Y78590705D01*
X97623333Y78590705D02*
X97623333Y78447848D01*
X97623333Y78447848D02*
X97575714Y78352610D01*
X97575714Y78352610D02*
X97528095Y78304991D01*
X97528095Y78304991D02*
X97432857Y78257372D01*
X97432857Y78257372D02*
X97051905Y78257372D01*
X98099524Y77781181D02*
X98290000Y77781181D01*
X98290000Y77781181D02*
X98385238Y77828800D01*
X98385238Y77828800D02*
X98432857Y77876420D01*
X98432857Y77876420D02*
X98528095Y78019277D01*
X98528095Y78019277D02*
X98575714Y78209753D01*
X98575714Y78209753D02*
X98575714Y78590705D01*
X98575714Y78590705D02*
X98528095Y78685943D01*
X98528095Y78685943D02*
X98480476Y78733562D01*
X98480476Y78733562D02*
X98385238Y78781181D01*
X98385238Y78781181D02*
X98194762Y78781181D01*
X98194762Y78781181D02*
X98099524Y78733562D01*
X98099524Y78733562D02*
X98051905Y78685943D01*
X98051905Y78685943D02*
X98004286Y78590705D01*
X98004286Y78590705D02*
X98004286Y78352610D01*
X98004286Y78352610D02*
X98051905Y78257372D01*
X98051905Y78257372D02*
X98099524Y78209753D01*
X98099524Y78209753D02*
X98194762Y78162134D01*
X98194762Y78162134D02*
X98385238Y78162134D01*
X98385238Y78162134D02*
X98480476Y78209753D01*
X98480476Y78209753D02*
X98528095Y78257372D01*
X98528095Y78257372D02*
X98575714Y78352610D01*
X119599666Y19091181D02*
X119599666Y18376896D01*
X119599666Y18376896D02*
X119552047Y18234039D01*
X119552047Y18234039D02*
X119456809Y18138800D01*
X119456809Y18138800D02*
X119313952Y18091181D01*
X119313952Y18091181D02*
X119218714Y18091181D01*
X120552047Y19091181D02*
X120075857Y19091181D01*
X120075857Y19091181D02*
X120028238Y18614991D01*
X120028238Y18614991D02*
X120075857Y18662610D01*
X120075857Y18662610D02*
X120171095Y18710229D01*
X120171095Y18710229D02*
X120409190Y18710229D01*
X120409190Y18710229D02*
X120504428Y18662610D01*
X120504428Y18662610D02*
X120552047Y18614991D01*
X120552047Y18614991D02*
X120599666Y18519753D01*
X120599666Y18519753D02*
X120599666Y18281658D01*
X120599666Y18281658D02*
X120552047Y18186420D01*
X120552047Y18186420D02*
X120504428Y18138800D01*
X120504428Y18138800D02*
X120409190Y18091181D01*
X120409190Y18091181D02*
X120171095Y18091181D01*
X120171095Y18091181D02*
X120075857Y18138800D01*
X120075857Y18138800D02*
X120028238Y18186420D01*
X33551905Y22741181D02*
X33551905Y23741181D01*
X33551905Y23741181D02*
X33790000Y23741181D01*
X33790000Y23741181D02*
X33932857Y23693562D01*
X33932857Y23693562D02*
X34028095Y23598324D01*
X34028095Y23598324D02*
X34075714Y23503086D01*
X34075714Y23503086D02*
X34123333Y23312610D01*
X34123333Y23312610D02*
X34123333Y23169753D01*
X34123333Y23169753D02*
X34075714Y22979277D01*
X34075714Y22979277D02*
X34028095Y22884039D01*
X34028095Y22884039D02*
X33932857Y22788800D01*
X33932857Y22788800D02*
X33790000Y22741181D01*
X33790000Y22741181D02*
X33551905Y22741181D01*
X35028095Y23741181D02*
X34551905Y23741181D01*
X34551905Y23741181D02*
X34504286Y23264991D01*
X34504286Y23264991D02*
X34551905Y23312610D01*
X34551905Y23312610D02*
X34647143Y23360229D01*
X34647143Y23360229D02*
X34885238Y23360229D01*
X34885238Y23360229D02*
X34980476Y23312610D01*
X34980476Y23312610D02*
X35028095Y23264991D01*
X35028095Y23264991D02*
X35075714Y23169753D01*
X35075714Y23169753D02*
X35075714Y22931658D01*
X35075714Y22931658D02*
X35028095Y22836420D01*
X35028095Y22836420D02*
X34980476Y22788800D01*
X34980476Y22788800D02*
X34885238Y22741181D01*
X34885238Y22741181D02*
X34647143Y22741181D01*
X34647143Y22741181D02*
X34551905Y22788800D01*
X34551905Y22788800D02*
X34504286Y22836420D01*
X141377200Y32737904D02*
X141424819Y32880761D01*
X141424819Y32880761D02*
X141424819Y33118856D01*
X141424819Y33118856D02*
X141377200Y33214094D01*
X141377200Y33214094D02*
X141329580Y33261713D01*
X141329580Y33261713D02*
X141234342Y33309332D01*
X141234342Y33309332D02*
X141139104Y33309332D01*
X141139104Y33309332D02*
X141043866Y33261713D01*
X141043866Y33261713D02*
X140996247Y33214094D01*
X140996247Y33214094D02*
X140948628Y33118856D01*
X140948628Y33118856D02*
X140901009Y32928380D01*
X140901009Y32928380D02*
X140853390Y32833142D01*
X140853390Y32833142D02*
X140805771Y32785523D01*
X140805771Y32785523D02*
X140710533Y32737904D01*
X140710533Y32737904D02*
X140615295Y32737904D01*
X140615295Y32737904D02*
X140520057Y32785523D01*
X140520057Y32785523D02*
X140472438Y32833142D01*
X140472438Y32833142D02*
X140424819Y32928380D01*
X140424819Y32928380D02*
X140424819Y33166475D01*
X140424819Y33166475D02*
X140472438Y33309332D01*
X140901009Y33737904D02*
X140901009Y34071237D01*
X141424819Y34214094D02*
X141424819Y33737904D01*
X141424819Y33737904D02*
X140424819Y33737904D01*
X140424819Y33737904D02*
X140424819Y34214094D01*
X141424819Y34642666D02*
X140424819Y34642666D01*
X140424819Y34642666D02*
X141424819Y35214094D01*
X141424819Y35214094D02*
X140424819Y35214094D01*
X141377200Y35642666D02*
X141424819Y35785523D01*
X141424819Y35785523D02*
X141424819Y36023618D01*
X141424819Y36023618D02*
X141377200Y36118856D01*
X141377200Y36118856D02*
X141329580Y36166475D01*
X141329580Y36166475D02*
X141234342Y36214094D01*
X141234342Y36214094D02*
X141139104Y36214094D01*
X141139104Y36214094D02*
X141043866Y36166475D01*
X141043866Y36166475D02*
X140996247Y36118856D01*
X140996247Y36118856D02*
X140948628Y36023618D01*
X140948628Y36023618D02*
X140901009Y35833142D01*
X140901009Y35833142D02*
X140853390Y35737904D01*
X140853390Y35737904D02*
X140805771Y35690285D01*
X140805771Y35690285D02*
X140710533Y35642666D01*
X140710533Y35642666D02*
X140615295Y35642666D01*
X140615295Y35642666D02*
X140520057Y35690285D01*
X140520057Y35690285D02*
X140472438Y35737904D01*
X140472438Y35737904D02*
X140424819Y35833142D01*
X140424819Y35833142D02*
X140424819Y36071237D01*
X140424819Y36071237D02*
X140472438Y36214094D01*
X140424819Y36833142D02*
X140424819Y37023618D01*
X140424819Y37023618D02*
X140472438Y37118856D01*
X140472438Y37118856D02*
X140567676Y37214094D01*
X140567676Y37214094D02*
X140758152Y37261713D01*
X140758152Y37261713D02*
X141091485Y37261713D01*
X141091485Y37261713D02*
X141281961Y37214094D01*
X141281961Y37214094D02*
X141377200Y37118856D01*
X141377200Y37118856D02*
X141424819Y37023618D01*
X141424819Y37023618D02*
X141424819Y36833142D01*
X141424819Y36833142D02*
X141377200Y36737904D01*
X141377200Y36737904D02*
X141281961Y36642666D01*
X141281961Y36642666D02*
X141091485Y36595047D01*
X141091485Y36595047D02*
X140758152Y36595047D01*
X140758152Y36595047D02*
X140567676Y36642666D01*
X140567676Y36642666D02*
X140472438Y36737904D01*
X140472438Y36737904D02*
X140424819Y36833142D01*
X141424819Y38261713D02*
X140948628Y37928380D01*
X141424819Y37690285D02*
X140424819Y37690285D01*
X140424819Y37690285D02*
X140424819Y38071237D01*
X140424819Y38071237D02*
X140472438Y38166475D01*
X140472438Y38166475D02*
X140520057Y38214094D01*
X140520057Y38214094D02*
X140615295Y38261713D01*
X140615295Y38261713D02*
X140758152Y38261713D01*
X140758152Y38261713D02*
X140853390Y38214094D01*
X140853390Y38214094D02*
X140901009Y38166475D01*
X140901009Y38166475D02*
X140948628Y38071237D01*
X140948628Y38071237D02*
X140948628Y37690285D01*
X141424819Y39214094D02*
X141424819Y38642666D01*
X141424819Y38928380D02*
X140424819Y38928380D01*
X140424819Y38928380D02*
X140567676Y38833142D01*
X140567676Y38833142D02*
X140662914Y38737904D01*
X140662914Y38737904D02*
X140710533Y38642666D01*
X119118293Y52464917D02*
X119451626Y52464917D01*
X119594483Y51941107D02*
X119118293Y51941107D01*
X119118293Y51941107D02*
X119118293Y52941107D01*
X119118293Y52941107D02*
X119594483Y52941107D01*
X119927817Y52941107D02*
X120594483Y51941107D01*
X120594483Y52941107D02*
X119927817Y51941107D01*
X120832579Y52941107D02*
X121404007Y52941107D01*
X121118293Y51941107D02*
X121118293Y52941107D01*
X122451626Y52988726D02*
X121594484Y51703012D01*
X122784960Y51941107D02*
X122784960Y52941107D01*
X122784960Y52941107D02*
X123165912Y52941107D01*
X123165912Y52941107D02*
X123261150Y52893488D01*
X123261150Y52893488D02*
X123308769Y52845869D01*
X123308769Y52845869D02*
X123356388Y52750631D01*
X123356388Y52750631D02*
X123356388Y52607774D01*
X123356388Y52607774D02*
X123308769Y52512536D01*
X123308769Y52512536D02*
X123261150Y52464917D01*
X123261150Y52464917D02*
X123165912Y52417298D01*
X123165912Y52417298D02*
X122784960Y52417298D01*
X124356388Y51941107D02*
X124023055Y52417298D01*
X123784960Y51941107D02*
X123784960Y52941107D01*
X123784960Y52941107D02*
X124165912Y52941107D01*
X124165912Y52941107D02*
X124261150Y52893488D01*
X124261150Y52893488D02*
X124308769Y52845869D01*
X124308769Y52845869D02*
X124356388Y52750631D01*
X124356388Y52750631D02*
X124356388Y52607774D01*
X124356388Y52607774D02*
X124308769Y52512536D01*
X124308769Y52512536D02*
X124261150Y52464917D01*
X124261150Y52464917D02*
X124165912Y52417298D01*
X124165912Y52417298D02*
X123784960Y52417298D01*
X124975436Y52941107D02*
X125165912Y52941107D01*
X125165912Y52941107D02*
X125261150Y52893488D01*
X125261150Y52893488D02*
X125356388Y52798250D01*
X125356388Y52798250D02*
X125404007Y52607774D01*
X125404007Y52607774D02*
X125404007Y52274441D01*
X125404007Y52274441D02*
X125356388Y52083965D01*
X125356388Y52083965D02*
X125261150Y51988726D01*
X125261150Y51988726D02*
X125165912Y51941107D01*
X125165912Y51941107D02*
X124975436Y51941107D01*
X124975436Y51941107D02*
X124880198Y51988726D01*
X124880198Y51988726D02*
X124784960Y52083965D01*
X124784960Y52083965D02*
X124737341Y52274441D01*
X124737341Y52274441D02*
X124737341Y52607774D01*
X124737341Y52607774D02*
X124784960Y52798250D01*
X124784960Y52798250D02*
X124880198Y52893488D01*
X124880198Y52893488D02*
X124975436Y52941107D01*
X126356388Y52893488D02*
X126261150Y52941107D01*
X126261150Y52941107D02*
X126118293Y52941107D01*
X126118293Y52941107D02*
X125975436Y52893488D01*
X125975436Y52893488D02*
X125880198Y52798250D01*
X125880198Y52798250D02*
X125832579Y52703012D01*
X125832579Y52703012D02*
X125784960Y52512536D01*
X125784960Y52512536D02*
X125784960Y52369679D01*
X125784960Y52369679D02*
X125832579Y52179203D01*
X125832579Y52179203D02*
X125880198Y52083965D01*
X125880198Y52083965D02*
X125975436Y51988726D01*
X125975436Y51988726D02*
X126118293Y51941107D01*
X126118293Y51941107D02*
X126213531Y51941107D01*
X126213531Y51941107D02*
X126356388Y51988726D01*
X126356388Y51988726D02*
X126404007Y52036346D01*
X126404007Y52036346D02*
X126404007Y52369679D01*
X126404007Y52369679D02*
X126213531Y52369679D01*
X85261761Y72280943D02*
X85166523Y72328562D01*
X85166523Y72328562D02*
X85071285Y72423800D01*
X85071285Y72423800D02*
X84928428Y72566658D01*
X84928428Y72566658D02*
X84833190Y72614277D01*
X84833190Y72614277D02*
X84737952Y72614277D01*
X84785571Y72376181D02*
X84690333Y72423800D01*
X84690333Y72423800D02*
X84595095Y72519039D01*
X84595095Y72519039D02*
X84547476Y72709515D01*
X84547476Y72709515D02*
X84547476Y73042848D01*
X84547476Y73042848D02*
X84595095Y73233324D01*
X84595095Y73233324D02*
X84690333Y73328562D01*
X84690333Y73328562D02*
X84785571Y73376181D01*
X84785571Y73376181D02*
X84976047Y73376181D01*
X84976047Y73376181D02*
X85071285Y73328562D01*
X85071285Y73328562D02*
X85166523Y73233324D01*
X85166523Y73233324D02*
X85214142Y73042848D01*
X85214142Y73042848D02*
X85214142Y72709515D01*
X85214142Y72709515D02*
X85166523Y72519039D01*
X85166523Y72519039D02*
X85071285Y72423800D01*
X85071285Y72423800D02*
X84976047Y72376181D01*
X84976047Y72376181D02*
X84785571Y72376181D01*
X86118904Y73376181D02*
X85642714Y73376181D01*
X85642714Y73376181D02*
X85595095Y72899991D01*
X85595095Y72899991D02*
X85642714Y72947610D01*
X85642714Y72947610D02*
X85737952Y72995229D01*
X85737952Y72995229D02*
X85976047Y72995229D01*
X85976047Y72995229D02*
X86071285Y72947610D01*
X86071285Y72947610D02*
X86118904Y72899991D01*
X86118904Y72899991D02*
X86166523Y72804753D01*
X86166523Y72804753D02*
X86166523Y72566658D01*
X86166523Y72566658D02*
X86118904Y72471420D01*
X86118904Y72471420D02*
X86071285Y72423800D01*
X86071285Y72423800D02*
X85976047Y72376181D01*
X85976047Y72376181D02*
X85737952Y72376181D01*
X85737952Y72376181D02*
X85642714Y72423800D01*
X85642714Y72423800D02*
X85595095Y72471420D01*
X109725875Y91696451D02*
X109392542Y92172642D01*
X109154447Y91696451D02*
X109154447Y92696451D01*
X109154447Y92696451D02*
X109535399Y92696451D01*
X109535399Y92696451D02*
X109630637Y92648832D01*
X109630637Y92648832D02*
X109678256Y92601213D01*
X109678256Y92601213D02*
X109725875Y92505975D01*
X109725875Y92505975D02*
X109725875Y92363118D01*
X109725875Y92363118D02*
X109678256Y92267880D01*
X109678256Y92267880D02*
X109630637Y92220261D01*
X109630637Y92220261D02*
X109535399Y92172642D01*
X109535399Y92172642D02*
X109154447Y92172642D01*
X110678256Y91696451D02*
X110106828Y91696451D01*
X110392542Y91696451D02*
X110392542Y92696451D01*
X110392542Y92696451D02*
X110297304Y92553594D01*
X110297304Y92553594D02*
X110202066Y92458356D01*
X110202066Y92458356D02*
X110106828Y92410737D01*
X111630637Y91696451D02*
X111059209Y91696451D01*
X111344923Y91696451D02*
X111344923Y92696451D01*
X111344923Y92696451D02*
X111249685Y92553594D01*
X111249685Y92553594D02*
X111154447Y92458356D01*
X111154447Y92458356D02*
X111059209Y92410737D01*
X67654761Y72025943D02*
X67559523Y72073562D01*
X67559523Y72073562D02*
X67464285Y72168800D01*
X67464285Y72168800D02*
X67321428Y72311658D01*
X67321428Y72311658D02*
X67226190Y72359277D01*
X67226190Y72359277D02*
X67130952Y72359277D01*
X67178571Y72121181D02*
X67083333Y72168800D01*
X67083333Y72168800D02*
X66988095Y72264039D01*
X66988095Y72264039D02*
X66940476Y72454515D01*
X66940476Y72454515D02*
X66940476Y72787848D01*
X66940476Y72787848D02*
X66988095Y72978324D01*
X66988095Y72978324D02*
X67083333Y73073562D01*
X67083333Y73073562D02*
X67178571Y73121181D01*
X67178571Y73121181D02*
X67369047Y73121181D01*
X67369047Y73121181D02*
X67464285Y73073562D01*
X67464285Y73073562D02*
X67559523Y72978324D01*
X67559523Y72978324D02*
X67607142Y72787848D01*
X67607142Y72787848D02*
X67607142Y72454515D01*
X67607142Y72454515D02*
X67559523Y72264039D01*
X67559523Y72264039D02*
X67464285Y72168800D01*
X67464285Y72168800D02*
X67369047Y72121181D01*
X67369047Y72121181D02*
X67178571Y72121181D01*
X68464285Y72787848D02*
X68464285Y72121181D01*
X68226190Y73168800D02*
X67988095Y72454515D01*
X67988095Y72454515D02*
X68607142Y72454515D01*
X81920333Y74521181D02*
X81587000Y74997372D01*
X81348905Y74521181D02*
X81348905Y75521181D01*
X81348905Y75521181D02*
X81729857Y75521181D01*
X81729857Y75521181D02*
X81825095Y75473562D01*
X81825095Y75473562D02*
X81872714Y75425943D01*
X81872714Y75425943D02*
X81920333Y75330705D01*
X81920333Y75330705D02*
X81920333Y75187848D01*
X81920333Y75187848D02*
X81872714Y75092610D01*
X81872714Y75092610D02*
X81825095Y75044991D01*
X81825095Y75044991D02*
X81729857Y74997372D01*
X81729857Y74997372D02*
X81348905Y74997372D01*
X82825095Y75521181D02*
X82348905Y75521181D01*
X82348905Y75521181D02*
X82301286Y75044991D01*
X82301286Y75044991D02*
X82348905Y75092610D01*
X82348905Y75092610D02*
X82444143Y75140229D01*
X82444143Y75140229D02*
X82682238Y75140229D01*
X82682238Y75140229D02*
X82777476Y75092610D01*
X82777476Y75092610D02*
X82825095Y75044991D01*
X82825095Y75044991D02*
X82872714Y74949753D01*
X82872714Y74949753D02*
X82872714Y74711658D01*
X82872714Y74711658D02*
X82825095Y74616420D01*
X82825095Y74616420D02*
X82777476Y74568800D01*
X82777476Y74568800D02*
X82682238Y74521181D01*
X82682238Y74521181D02*
X82444143Y74521181D01*
X82444143Y74521181D02*
X82348905Y74568800D01*
X82348905Y74568800D02*
X82301286Y74616420D01*
X102914761Y72285943D02*
X102819523Y72333562D01*
X102819523Y72333562D02*
X102724285Y72428800D01*
X102724285Y72428800D02*
X102581428Y72571658D01*
X102581428Y72571658D02*
X102486190Y72619277D01*
X102486190Y72619277D02*
X102390952Y72619277D01*
X102438571Y72381181D02*
X102343333Y72428800D01*
X102343333Y72428800D02*
X102248095Y72524039D01*
X102248095Y72524039D02*
X102200476Y72714515D01*
X102200476Y72714515D02*
X102200476Y73047848D01*
X102200476Y73047848D02*
X102248095Y73238324D01*
X102248095Y73238324D02*
X102343333Y73333562D01*
X102343333Y73333562D02*
X102438571Y73381181D01*
X102438571Y73381181D02*
X102629047Y73381181D01*
X102629047Y73381181D02*
X102724285Y73333562D01*
X102724285Y73333562D02*
X102819523Y73238324D01*
X102819523Y73238324D02*
X102867142Y73047848D01*
X102867142Y73047848D02*
X102867142Y72714515D01*
X102867142Y72714515D02*
X102819523Y72524039D01*
X102819523Y72524039D02*
X102724285Y72428800D01*
X102724285Y72428800D02*
X102629047Y72381181D01*
X102629047Y72381181D02*
X102438571Y72381181D01*
X103724285Y73381181D02*
X103533809Y73381181D01*
X103533809Y73381181D02*
X103438571Y73333562D01*
X103438571Y73333562D02*
X103390952Y73285943D01*
X103390952Y73285943D02*
X103295714Y73143086D01*
X103295714Y73143086D02*
X103248095Y72952610D01*
X103248095Y72952610D02*
X103248095Y72571658D01*
X103248095Y72571658D02*
X103295714Y72476420D01*
X103295714Y72476420D02*
X103343333Y72428800D01*
X103343333Y72428800D02*
X103438571Y72381181D01*
X103438571Y72381181D02*
X103629047Y72381181D01*
X103629047Y72381181D02*
X103724285Y72428800D01*
X103724285Y72428800D02*
X103771904Y72476420D01*
X103771904Y72476420D02*
X103819523Y72571658D01*
X103819523Y72571658D02*
X103819523Y72809753D01*
X103819523Y72809753D02*
X103771904Y72904991D01*
X103771904Y72904991D02*
X103724285Y72952610D01*
X103724285Y72952610D02*
X103629047Y73000229D01*
X103629047Y73000229D02*
X103438571Y73000229D01*
X103438571Y73000229D02*
X103343333Y72952610D01*
X103343333Y72952610D02*
X103295714Y72904991D01*
X103295714Y72904991D02*
X103248095Y72809753D01*
X25931905Y35105181D02*
X25931905Y36105181D01*
X25931905Y36105181D02*
X26170000Y36105181D01*
X26170000Y36105181D02*
X26312857Y36057562D01*
X26312857Y36057562D02*
X26408095Y35962324D01*
X26408095Y35962324D02*
X26455714Y35867086D01*
X26455714Y35867086D02*
X26503333Y35676610D01*
X26503333Y35676610D02*
X26503333Y35533753D01*
X26503333Y35533753D02*
X26455714Y35343277D01*
X26455714Y35343277D02*
X26408095Y35248039D01*
X26408095Y35248039D02*
X26312857Y35152800D01*
X26312857Y35152800D02*
X26170000Y35105181D01*
X26170000Y35105181D02*
X25931905Y35105181D01*
X27074762Y35676610D02*
X26979524Y35724229D01*
X26979524Y35724229D02*
X26931905Y35771848D01*
X26931905Y35771848D02*
X26884286Y35867086D01*
X26884286Y35867086D02*
X26884286Y35914705D01*
X26884286Y35914705D02*
X26931905Y36009943D01*
X26931905Y36009943D02*
X26979524Y36057562D01*
X26979524Y36057562D02*
X27074762Y36105181D01*
X27074762Y36105181D02*
X27265238Y36105181D01*
X27265238Y36105181D02*
X27360476Y36057562D01*
X27360476Y36057562D02*
X27408095Y36009943D01*
X27408095Y36009943D02*
X27455714Y35914705D01*
X27455714Y35914705D02*
X27455714Y35867086D01*
X27455714Y35867086D02*
X27408095Y35771848D01*
X27408095Y35771848D02*
X27360476Y35724229D01*
X27360476Y35724229D02*
X27265238Y35676610D01*
X27265238Y35676610D02*
X27074762Y35676610D01*
X27074762Y35676610D02*
X26979524Y35628991D01*
X26979524Y35628991D02*
X26931905Y35581372D01*
X26931905Y35581372D02*
X26884286Y35486134D01*
X26884286Y35486134D02*
X26884286Y35295658D01*
X26884286Y35295658D02*
X26931905Y35200420D01*
X26931905Y35200420D02*
X26979524Y35152800D01*
X26979524Y35152800D02*
X27074762Y35105181D01*
X27074762Y35105181D02*
X27265238Y35105181D01*
X27265238Y35105181D02*
X27360476Y35152800D01*
X27360476Y35152800D02*
X27408095Y35200420D01*
X27408095Y35200420D02*
X27455714Y35295658D01*
X27455714Y35295658D02*
X27455714Y35486134D01*
X27455714Y35486134D02*
X27408095Y35581372D01*
X27408095Y35581372D02*
X27360476Y35628991D01*
X27360476Y35628991D02*
X27265238Y35676610D01*
X84179580Y40473334D02*
X84227200Y40425715D01*
X84227200Y40425715D02*
X84274819Y40282858D01*
X84274819Y40282858D02*
X84274819Y40187620D01*
X84274819Y40187620D02*
X84227200Y40044763D01*
X84227200Y40044763D02*
X84131961Y39949525D01*
X84131961Y39949525D02*
X84036723Y39901906D01*
X84036723Y39901906D02*
X83846247Y39854287D01*
X83846247Y39854287D02*
X83703390Y39854287D01*
X83703390Y39854287D02*
X83512914Y39901906D01*
X83512914Y39901906D02*
X83417676Y39949525D01*
X83417676Y39949525D02*
X83322438Y40044763D01*
X83322438Y40044763D02*
X83274819Y40187620D01*
X83274819Y40187620D02*
X83274819Y40282858D01*
X83274819Y40282858D02*
X83322438Y40425715D01*
X83322438Y40425715D02*
X83370057Y40473334D01*
X84274819Y41425715D02*
X84274819Y40854287D01*
X84274819Y41140001D02*
X83274819Y41140001D01*
X83274819Y41140001D02*
X83417676Y41044763D01*
X83417676Y41044763D02*
X83512914Y40949525D01*
X83512914Y40949525D02*
X83560533Y40854287D01*
X114638095Y85441181D02*
X114638095Y84631658D01*
X114638095Y84631658D02*
X114685714Y84536420D01*
X114685714Y84536420D02*
X114733333Y84488800D01*
X114733333Y84488800D02*
X114828571Y84441181D01*
X114828571Y84441181D02*
X115019047Y84441181D01*
X115019047Y84441181D02*
X115114285Y84488800D01*
X115114285Y84488800D02*
X115161904Y84536420D01*
X115161904Y84536420D02*
X115209523Y84631658D01*
X115209523Y84631658D02*
X115209523Y85441181D01*
X115638095Y85345943D02*
X115685714Y85393562D01*
X115685714Y85393562D02*
X115780952Y85441181D01*
X115780952Y85441181D02*
X116019047Y85441181D01*
X116019047Y85441181D02*
X116114285Y85393562D01*
X116114285Y85393562D02*
X116161904Y85345943D01*
X116161904Y85345943D02*
X116209523Y85250705D01*
X116209523Y85250705D02*
X116209523Y85155467D01*
X116209523Y85155467D02*
X116161904Y85012610D01*
X116161904Y85012610D02*
X115590476Y84441181D01*
X115590476Y84441181D02*
X116209523Y84441181D01*
X90778666Y19091181D02*
X90778666Y18376896D01*
X90778666Y18376896D02*
X90731047Y18234039D01*
X90731047Y18234039D02*
X90635809Y18138800D01*
X90635809Y18138800D02*
X90492952Y18091181D01*
X90492952Y18091181D02*
X90397714Y18091181D01*
X91207238Y18995943D02*
X91254857Y19043562D01*
X91254857Y19043562D02*
X91350095Y19091181D01*
X91350095Y19091181D02*
X91588190Y19091181D01*
X91588190Y19091181D02*
X91683428Y19043562D01*
X91683428Y19043562D02*
X91731047Y18995943D01*
X91731047Y18995943D02*
X91778666Y18900705D01*
X91778666Y18900705D02*
X91778666Y18805467D01*
X91778666Y18805467D02*
X91731047Y18662610D01*
X91731047Y18662610D02*
X91159619Y18091181D01*
X91159619Y18091181D02*
X91778666Y18091181D01*
X28453333Y74521181D02*
X28120000Y74997372D01*
X27881905Y74521181D02*
X27881905Y75521181D01*
X27881905Y75521181D02*
X28262857Y75521181D01*
X28262857Y75521181D02*
X28358095Y75473562D01*
X28358095Y75473562D02*
X28405714Y75425943D01*
X28405714Y75425943D02*
X28453333Y75330705D01*
X28453333Y75330705D02*
X28453333Y75187848D01*
X28453333Y75187848D02*
X28405714Y75092610D01*
X28405714Y75092610D02*
X28358095Y75044991D01*
X28358095Y75044991D02*
X28262857Y74997372D01*
X28262857Y74997372D02*
X27881905Y74997372D01*
X28834286Y75425943D02*
X28881905Y75473562D01*
X28881905Y75473562D02*
X28977143Y75521181D01*
X28977143Y75521181D02*
X29215238Y75521181D01*
X29215238Y75521181D02*
X29310476Y75473562D01*
X29310476Y75473562D02*
X29358095Y75425943D01*
X29358095Y75425943D02*
X29405714Y75330705D01*
X29405714Y75330705D02*
X29405714Y75235467D01*
X29405714Y75235467D02*
X29358095Y75092610D01*
X29358095Y75092610D02*
X28786667Y74521181D01*
X28786667Y74521181D02*
X29405714Y74521181D01*
X97623333Y82861181D02*
X97290000Y83337372D01*
X97051905Y82861181D02*
X97051905Y83861181D01*
X97051905Y83861181D02*
X97432857Y83861181D01*
X97432857Y83861181D02*
X97528095Y83813562D01*
X97528095Y83813562D02*
X97575714Y83765943D01*
X97575714Y83765943D02*
X97623333Y83670705D01*
X97623333Y83670705D02*
X97623333Y83527848D01*
X97623333Y83527848D02*
X97575714Y83432610D01*
X97575714Y83432610D02*
X97528095Y83384991D01*
X97528095Y83384991D02*
X97432857Y83337372D01*
X97432857Y83337372D02*
X97051905Y83337372D01*
X97956667Y83861181D02*
X98623333Y83861181D01*
X98623333Y83861181D02*
X98194762Y82861181D01*
X86035662Y39290607D02*
X86083282Y39242988D01*
X86083282Y39242988D02*
X86130901Y39100131D01*
X86130901Y39100131D02*
X86130901Y39004893D01*
X86130901Y39004893D02*
X86083282Y38862036D01*
X86083282Y38862036D02*
X85988043Y38766798D01*
X85988043Y38766798D02*
X85892805Y38719179D01*
X85892805Y38719179D02*
X85702329Y38671560D01*
X85702329Y38671560D02*
X85559472Y38671560D01*
X85559472Y38671560D02*
X85368996Y38719179D01*
X85368996Y38719179D02*
X85273758Y38766798D01*
X85273758Y38766798D02*
X85178520Y38862036D01*
X85178520Y38862036D02*
X85130901Y39004893D01*
X85130901Y39004893D02*
X85130901Y39100131D01*
X85130901Y39100131D02*
X85178520Y39242988D01*
X85178520Y39242988D02*
X85226139Y39290607D01*
X85226139Y39671560D02*
X85178520Y39719179D01*
X85178520Y39719179D02*
X85130901Y39814417D01*
X85130901Y39814417D02*
X85130901Y40052512D01*
X85130901Y40052512D02*
X85178520Y40147750D01*
X85178520Y40147750D02*
X85226139Y40195369D01*
X85226139Y40195369D02*
X85321377Y40242988D01*
X85321377Y40242988D02*
X85416615Y40242988D01*
X85416615Y40242988D02*
X85559472Y40195369D01*
X85559472Y40195369D02*
X86130901Y39623941D01*
X86130901Y39623941D02*
X86130901Y40242988D01*
X64603333Y74521181D02*
X64270000Y74997372D01*
X64031905Y74521181D02*
X64031905Y75521181D01*
X64031905Y75521181D02*
X64412857Y75521181D01*
X64412857Y75521181D02*
X64508095Y75473562D01*
X64508095Y75473562D02*
X64555714Y75425943D01*
X64555714Y75425943D02*
X64603333Y75330705D01*
X64603333Y75330705D02*
X64603333Y75187848D01*
X64603333Y75187848D02*
X64555714Y75092610D01*
X64555714Y75092610D02*
X64508095Y75044991D01*
X64508095Y75044991D02*
X64412857Y74997372D01*
X64412857Y74997372D02*
X64031905Y74997372D01*
X65460476Y75187848D02*
X65460476Y74521181D01*
X65222381Y75568800D02*
X64984286Y74854515D01*
X64984286Y74854515D02*
X65603333Y74854515D01*
X117345875Y91696451D02*
X117012542Y92172642D01*
X116774447Y91696451D02*
X116774447Y92696451D01*
X116774447Y92696451D02*
X117155399Y92696451D01*
X117155399Y92696451D02*
X117250637Y92648832D01*
X117250637Y92648832D02*
X117298256Y92601213D01*
X117298256Y92601213D02*
X117345875Y92505975D01*
X117345875Y92505975D02*
X117345875Y92363118D01*
X117345875Y92363118D02*
X117298256Y92267880D01*
X117298256Y92267880D02*
X117250637Y92220261D01*
X117250637Y92220261D02*
X117155399Y92172642D01*
X117155399Y92172642D02*
X116774447Y92172642D01*
X118298256Y91696451D02*
X117726828Y91696451D01*
X118012542Y91696451D02*
X118012542Y92696451D01*
X118012542Y92696451D02*
X117917304Y92553594D01*
X117917304Y92553594D02*
X117822066Y92458356D01*
X117822066Y92458356D02*
X117726828Y92410737D01*
X118631590Y92696451D02*
X119250637Y92696451D01*
X119250637Y92696451D02*
X118917304Y92315499D01*
X118917304Y92315499D02*
X119060161Y92315499D01*
X119060161Y92315499D02*
X119155399Y92267880D01*
X119155399Y92267880D02*
X119203018Y92220261D01*
X119203018Y92220261D02*
X119250637Y92125023D01*
X119250637Y92125023D02*
X119250637Y91886928D01*
X119250637Y91886928D02*
X119203018Y91791690D01*
X119203018Y91791690D02*
X119155399Y91744070D01*
X119155399Y91744070D02*
X119060161Y91696451D01*
X119060161Y91696451D02*
X118774447Y91696451D01*
X118774447Y91696451D02*
X118679209Y91744070D01*
X118679209Y91744070D02*
X118631590Y91791690D01*
X97623333Y80321181D02*
X97290000Y80797372D01*
X97051905Y80321181D02*
X97051905Y81321181D01*
X97051905Y81321181D02*
X97432857Y81321181D01*
X97432857Y81321181D02*
X97528095Y81273562D01*
X97528095Y81273562D02*
X97575714Y81225943D01*
X97575714Y81225943D02*
X97623333Y81130705D01*
X97623333Y81130705D02*
X97623333Y80987848D01*
X97623333Y80987848D02*
X97575714Y80892610D01*
X97575714Y80892610D02*
X97528095Y80844991D01*
X97528095Y80844991D02*
X97432857Y80797372D01*
X97432857Y80797372D02*
X97051905Y80797372D01*
X98194762Y80892610D02*
X98099524Y80940229D01*
X98099524Y80940229D02*
X98051905Y80987848D01*
X98051905Y80987848D02*
X98004286Y81083086D01*
X98004286Y81083086D02*
X98004286Y81130705D01*
X98004286Y81130705D02*
X98051905Y81225943D01*
X98051905Y81225943D02*
X98099524Y81273562D01*
X98099524Y81273562D02*
X98194762Y81321181D01*
X98194762Y81321181D02*
X98385238Y81321181D01*
X98385238Y81321181D02*
X98480476Y81273562D01*
X98480476Y81273562D02*
X98528095Y81225943D01*
X98528095Y81225943D02*
X98575714Y81130705D01*
X98575714Y81130705D02*
X98575714Y81083086D01*
X98575714Y81083086D02*
X98528095Y80987848D01*
X98528095Y80987848D02*
X98480476Y80940229D01*
X98480476Y80940229D02*
X98385238Y80892610D01*
X98385238Y80892610D02*
X98194762Y80892610D01*
X98194762Y80892610D02*
X98099524Y80844991D01*
X98099524Y80844991D02*
X98051905Y80797372D01*
X98051905Y80797372D02*
X98004286Y80702134D01*
X98004286Y80702134D02*
X98004286Y80511658D01*
X98004286Y80511658D02*
X98051905Y80416420D01*
X98051905Y80416420D02*
X98099524Y80368800D01*
X98099524Y80368800D02*
X98194762Y80321181D01*
X98194762Y80321181D02*
X98385238Y80321181D01*
X98385238Y80321181D02*
X98480476Y80368800D01*
X98480476Y80368800D02*
X98528095Y80416420D01*
X98528095Y80416420D02*
X98575714Y80511658D01*
X98575714Y80511658D02*
X98575714Y80702134D01*
X98575714Y80702134D02*
X98528095Y80797372D01*
X98528095Y80797372D02*
X98480476Y80844991D01*
X98480476Y80844991D02*
X98385238Y80892610D01*
X100385666Y19091181D02*
X100385666Y18376896D01*
X100385666Y18376896D02*
X100338047Y18234039D01*
X100338047Y18234039D02*
X100242809Y18138800D01*
X100242809Y18138800D02*
X100099952Y18091181D01*
X100099952Y18091181D02*
X100004714Y18091181D01*
X100766619Y19091181D02*
X101385666Y19091181D01*
X101385666Y19091181D02*
X101052333Y18710229D01*
X101052333Y18710229D02*
X101195190Y18710229D01*
X101195190Y18710229D02*
X101290428Y18662610D01*
X101290428Y18662610D02*
X101338047Y18614991D01*
X101338047Y18614991D02*
X101385666Y18519753D01*
X101385666Y18519753D02*
X101385666Y18281658D01*
X101385666Y18281658D02*
X101338047Y18186420D01*
X101338047Y18186420D02*
X101290428Y18138800D01*
X101290428Y18138800D02*
X101195190Y18091181D01*
X101195190Y18091181D02*
X100909476Y18091181D01*
X100909476Y18091181D02*
X100814238Y18138800D01*
X100814238Y18138800D02*
X100766619Y18186420D01*
X99573333Y74521181D02*
X99240000Y74997372D01*
X99001905Y74521181D02*
X99001905Y75521181D01*
X99001905Y75521181D02*
X99382857Y75521181D01*
X99382857Y75521181D02*
X99478095Y75473562D01*
X99478095Y75473562D02*
X99525714Y75425943D01*
X99525714Y75425943D02*
X99573333Y75330705D01*
X99573333Y75330705D02*
X99573333Y75187848D01*
X99573333Y75187848D02*
X99525714Y75092610D01*
X99525714Y75092610D02*
X99478095Y75044991D01*
X99478095Y75044991D02*
X99382857Y74997372D01*
X99382857Y74997372D02*
X99001905Y74997372D01*
X100430476Y75521181D02*
X100240000Y75521181D01*
X100240000Y75521181D02*
X100144762Y75473562D01*
X100144762Y75473562D02*
X100097143Y75425943D01*
X100097143Y75425943D02*
X100001905Y75283086D01*
X100001905Y75283086D02*
X99954286Y75092610D01*
X99954286Y75092610D02*
X99954286Y74711658D01*
X99954286Y74711658D02*
X100001905Y74616420D01*
X100001905Y74616420D02*
X100049524Y74568800D01*
X100049524Y74568800D02*
X100144762Y74521181D01*
X100144762Y74521181D02*
X100335238Y74521181D01*
X100335238Y74521181D02*
X100430476Y74568800D01*
X100430476Y74568800D02*
X100478095Y74616420D01*
X100478095Y74616420D02*
X100525714Y74711658D01*
X100525714Y74711658D02*
X100525714Y74949753D01*
X100525714Y74949753D02*
X100478095Y75044991D01*
X100478095Y75044991D02*
X100430476Y75092610D01*
X100430476Y75092610D02*
X100335238Y75140229D01*
X100335238Y75140229D02*
X100144762Y75140229D01*
X100144762Y75140229D02*
X100049524Y75092610D01*
X100049524Y75092610D02*
X100001905Y75044991D01*
X100001905Y75044991D02*
X99954286Y74949753D01*
X11308333Y74521181D02*
X10975000Y74997372D01*
X10736905Y74521181D02*
X10736905Y75521181D01*
X10736905Y75521181D02*
X11117857Y75521181D01*
X11117857Y75521181D02*
X11213095Y75473562D01*
X11213095Y75473562D02*
X11260714Y75425943D01*
X11260714Y75425943D02*
X11308333Y75330705D01*
X11308333Y75330705D02*
X11308333Y75187848D01*
X11308333Y75187848D02*
X11260714Y75092610D01*
X11260714Y75092610D02*
X11213095Y75044991D01*
X11213095Y75044991D02*
X11117857Y74997372D01*
X11117857Y74997372D02*
X10736905Y74997372D01*
X12260714Y74521181D02*
X11689286Y74521181D01*
X11975000Y74521181D02*
X11975000Y75521181D01*
X11975000Y75521181D02*
X11879762Y75378324D01*
X11879762Y75378324D02*
X11784524Y75283086D01*
X11784524Y75283086D02*
X11689286Y75235467D01*
X13961905Y30331181D02*
X13961905Y31331181D01*
X13961905Y31331181D02*
X14200000Y31331181D01*
X14200000Y31331181D02*
X14342857Y31283562D01*
X14342857Y31283562D02*
X14438095Y31188324D01*
X14438095Y31188324D02*
X14485714Y31093086D01*
X14485714Y31093086D02*
X14533333Y30902610D01*
X14533333Y30902610D02*
X14533333Y30759753D01*
X14533333Y30759753D02*
X14485714Y30569277D01*
X14485714Y30569277D02*
X14438095Y30474039D01*
X14438095Y30474039D02*
X14342857Y30378800D01*
X14342857Y30378800D02*
X14200000Y30331181D01*
X14200000Y30331181D02*
X13961905Y30331181D01*
X15390476Y30997848D02*
X15390476Y30331181D01*
X15152381Y31378800D02*
X14914286Y30664515D01*
X14914286Y30664515D02*
X15533333Y30664515D01*
X19581905Y32565181D02*
X19581905Y33565181D01*
X19581905Y33565181D02*
X19820000Y33565181D01*
X19820000Y33565181D02*
X19962857Y33517562D01*
X19962857Y33517562D02*
X20058095Y33422324D01*
X20058095Y33422324D02*
X20105714Y33327086D01*
X20105714Y33327086D02*
X20153333Y33136610D01*
X20153333Y33136610D02*
X20153333Y32993753D01*
X20153333Y32993753D02*
X20105714Y32803277D01*
X20105714Y32803277D02*
X20058095Y32708039D01*
X20058095Y32708039D02*
X19962857Y32612800D01*
X19962857Y32612800D02*
X19820000Y32565181D01*
X19820000Y32565181D02*
X19581905Y32565181D01*
X20486667Y33565181D02*
X21153333Y33565181D01*
X21153333Y33565181D02*
X20724762Y32565181D01*
X50279761Y72280943D02*
X50184523Y72328562D01*
X50184523Y72328562D02*
X50089285Y72423800D01*
X50089285Y72423800D02*
X49946428Y72566658D01*
X49946428Y72566658D02*
X49851190Y72614277D01*
X49851190Y72614277D02*
X49755952Y72614277D01*
X49803571Y72376181D02*
X49708333Y72423800D01*
X49708333Y72423800D02*
X49613095Y72519039D01*
X49613095Y72519039D02*
X49565476Y72709515D01*
X49565476Y72709515D02*
X49565476Y73042848D01*
X49565476Y73042848D02*
X49613095Y73233324D01*
X49613095Y73233324D02*
X49708333Y73328562D01*
X49708333Y73328562D02*
X49803571Y73376181D01*
X49803571Y73376181D02*
X49994047Y73376181D01*
X49994047Y73376181D02*
X50089285Y73328562D01*
X50089285Y73328562D02*
X50184523Y73233324D01*
X50184523Y73233324D02*
X50232142Y73042848D01*
X50232142Y73042848D02*
X50232142Y72709515D01*
X50232142Y72709515D02*
X50184523Y72519039D01*
X50184523Y72519039D02*
X50089285Y72423800D01*
X50089285Y72423800D02*
X49994047Y72376181D01*
X49994047Y72376181D02*
X49803571Y72376181D01*
X50565476Y73376181D02*
X51184523Y73376181D01*
X51184523Y73376181D02*
X50851190Y72995229D01*
X50851190Y72995229D02*
X50994047Y72995229D01*
X50994047Y72995229D02*
X51089285Y72947610D01*
X51089285Y72947610D02*
X51136904Y72899991D01*
X51136904Y72899991D02*
X51184523Y72804753D01*
X51184523Y72804753D02*
X51184523Y72566658D01*
X51184523Y72566658D02*
X51136904Y72471420D01*
X51136904Y72471420D02*
X51089285Y72423800D01*
X51089285Y72423800D02*
X50994047Y72376181D01*
X50994047Y72376181D02*
X50708333Y72376181D01*
X50708333Y72376181D02*
X50613095Y72423800D01*
X50613095Y72423800D02*
X50565476Y72471420D01*
X129206666Y19091181D02*
X129206666Y18376896D01*
X129206666Y18376896D02*
X129159047Y18234039D01*
X129159047Y18234039D02*
X129063809Y18138800D01*
X129063809Y18138800D02*
X128920952Y18091181D01*
X128920952Y18091181D02*
X128825714Y18091181D01*
X130111428Y19091181D02*
X129920952Y19091181D01*
X129920952Y19091181D02*
X129825714Y19043562D01*
X129825714Y19043562D02*
X129778095Y18995943D01*
X129778095Y18995943D02*
X129682857Y18853086D01*
X129682857Y18853086D02*
X129635238Y18662610D01*
X129635238Y18662610D02*
X129635238Y18281658D01*
X129635238Y18281658D02*
X129682857Y18186420D01*
X129682857Y18186420D02*
X129730476Y18138800D01*
X129730476Y18138800D02*
X129825714Y18091181D01*
X129825714Y18091181D02*
X130016190Y18091181D01*
X130016190Y18091181D02*
X130111428Y18138800D01*
X130111428Y18138800D02*
X130159047Y18186420D01*
X130159047Y18186420D02*
X130206666Y18281658D01*
X130206666Y18281658D02*
X130206666Y18519753D01*
X130206666Y18519753D02*
X130159047Y18614991D01*
X130159047Y18614991D02*
X130111428Y18662610D01*
X130111428Y18662610D02*
X130016190Y18710229D01*
X130016190Y18710229D02*
X129825714Y18710229D01*
X129825714Y18710229D02*
X129730476Y18662610D01*
X129730476Y18662610D02*
X129682857Y18614991D01*
X129682857Y18614991D02*
X129635238Y18519753D01*
X81171666Y19091181D02*
X81171666Y18376896D01*
X81171666Y18376896D02*
X81124047Y18234039D01*
X81124047Y18234039D02*
X81028809Y18138800D01*
X81028809Y18138800D02*
X80885952Y18091181D01*
X80885952Y18091181D02*
X80790714Y18091181D01*
X82171666Y18091181D02*
X81600238Y18091181D01*
X81885952Y18091181D02*
X81885952Y19091181D01*
X81885952Y19091181D02*
X81790714Y18948324D01*
X81790714Y18948324D02*
X81695476Y18853086D01*
X81695476Y18853086D02*
X81600238Y18805467D01*
X97251280Y51795276D02*
X96251280Y51795276D01*
X97251280Y52366704D02*
X96679851Y51938133D01*
X96251280Y52366704D02*
X96822708Y51795276D01*
X96251280Y53223847D02*
X96251280Y53033371D01*
X96251280Y53033371D02*
X96298899Y52938133D01*
X96298899Y52938133D02*
X96346518Y52890514D01*
X96346518Y52890514D02*
X96489375Y52795276D01*
X96489375Y52795276D02*
X96679851Y52747657D01*
X96679851Y52747657D02*
X97060803Y52747657D01*
X97060803Y52747657D02*
X97156041Y52795276D01*
X97156041Y52795276D02*
X97203661Y52842895D01*
X97203661Y52842895D02*
X97251280Y52938133D01*
X97251280Y52938133D02*
X97251280Y53128609D01*
X97251280Y53128609D02*
X97203661Y53223847D01*
X97203661Y53223847D02*
X97156041Y53271466D01*
X97156041Y53271466D02*
X97060803Y53319085D01*
X97060803Y53319085D02*
X96822708Y53319085D01*
X96822708Y53319085D02*
X96727470Y53271466D01*
X96727470Y53271466D02*
X96679851Y53223847D01*
X96679851Y53223847D02*
X96632232Y53128609D01*
X96632232Y53128609D02*
X96632232Y52938133D01*
X96632232Y52938133D02*
X96679851Y52842895D01*
X96679851Y52842895D02*
X96727470Y52795276D01*
X96727470Y52795276D02*
X96822708Y52747657D01*
D13*
%TO.C,R12*%
X115088733Y89831284D02*
X115088733Y88377156D01*
X113268733Y89831284D02*
X113268733Y88377156D01*
D14*
%TO.C,D1*%
X105495436Y78236000D02*
G75*
G03*
X105495436Y78236000I-50000J0D01*
G01*
D13*
%TO.C,K3*%
X60251000Y62036000D02*
X53651000Y62036000D01*
X60251000Y62036000D02*
X60251000Y42236000D01*
X51251000Y62036000D02*
X44651000Y62036000D01*
X52401000Y57986000D02*
X52401000Y58786000D01*
X52401000Y57986000D02*
X48801000Y57986000D01*
X46401000Y57086000D02*
X46401000Y54586000D01*
X54201000Y56586000D02*
X54201000Y52586000D01*
X50601000Y56586000D02*
X54201000Y56586000D01*
X58401000Y54586000D02*
X58401000Y57086000D01*
X58401000Y54586000D02*
X54201000Y54586000D01*
X50601000Y54586000D02*
X46401000Y54586000D01*
X54201000Y52586000D02*
X50601000Y52586000D01*
X50601000Y52586000D02*
X54201000Y56586000D01*
X50601000Y52586000D02*
X50601000Y56586000D01*
X52401000Y51186000D02*
X48801000Y51186000D01*
X52401000Y51186000D02*
X52401000Y49686000D01*
X48801000Y51186000D02*
X48801000Y57986000D01*
X52401000Y49686000D02*
X54901000Y45086000D01*
X56651000Y46486000D02*
X54151000Y46486000D01*
X48251000Y46486000D02*
X50701000Y46486000D01*
X60251000Y42236000D02*
X44651000Y42236000D01*
X44651000Y42236000D02*
X44651000Y62036000D01*
D14*
%TO.C,D2*%
X105495436Y80776000D02*
G75*
G03*
X105495436Y80776000I-50000J0D01*
G01*
D13*
%TO.C,K4*%
X77904000Y62036000D02*
X71304000Y62036000D01*
X77904000Y62036000D02*
X77904000Y42236000D01*
X68904000Y62036000D02*
X62304000Y62036000D01*
X70054000Y57986000D02*
X70054000Y58786000D01*
X70054000Y57986000D02*
X66454000Y57986000D01*
X64054000Y57086000D02*
X64054000Y54586000D01*
X71854000Y56586000D02*
X71854000Y52586000D01*
X68254000Y56586000D02*
X71854000Y56586000D01*
X76054000Y54586000D02*
X76054000Y57086000D01*
X76054000Y54586000D02*
X71854000Y54586000D01*
X68254000Y54586000D02*
X64054000Y54586000D01*
X71854000Y52586000D02*
X68254000Y52586000D01*
X68254000Y52586000D02*
X71854000Y56586000D01*
X68254000Y52586000D02*
X68254000Y56586000D01*
X70054000Y51186000D02*
X66454000Y51186000D01*
X70054000Y51186000D02*
X70054000Y49686000D01*
X66454000Y51186000D02*
X66454000Y57986000D01*
X70054000Y49686000D02*
X72554000Y45086000D01*
X74304000Y46486000D02*
X71804000Y46486000D01*
X65904000Y46486000D02*
X68354000Y46486000D01*
X77904000Y42236000D02*
X62304000Y42236000D01*
X62304000Y42236000D02*
X62304000Y62036000D01*
%TO.C,K2*%
X42598000Y62036000D02*
X35998000Y62036000D01*
X42598000Y62036000D02*
X42598000Y42236000D01*
X33598000Y62036000D02*
X26998000Y62036000D01*
X34748000Y57986000D02*
X34748000Y58786000D01*
X34748000Y57986000D02*
X31148000Y57986000D01*
X28748000Y57086000D02*
X28748000Y54586000D01*
X36548000Y56586000D02*
X36548000Y52586000D01*
X32948000Y56586000D02*
X36548000Y56586000D01*
X40748000Y54586000D02*
X40748000Y57086000D01*
X40748000Y54586000D02*
X36548000Y54586000D01*
X32948000Y54586000D02*
X28748000Y54586000D01*
X36548000Y52586000D02*
X32948000Y52586000D01*
X32948000Y52586000D02*
X36548000Y56586000D01*
X32948000Y52586000D02*
X32948000Y56586000D01*
X34748000Y51186000D02*
X31148000Y51186000D01*
X34748000Y51186000D02*
X34748000Y49686000D01*
X31148000Y51186000D02*
X31148000Y57986000D01*
X34748000Y49686000D02*
X37248000Y45086000D01*
X38998000Y46486000D02*
X36498000Y46486000D01*
X30598000Y46486000D02*
X33048000Y46486000D01*
X42598000Y42236000D02*
X26998000Y42236000D01*
X26998000Y42236000D02*
X26998000Y62036000D01*
%TO.C,C4*%
X99820000Y37819304D02*
X99820000Y38100464D01*
X100840000Y37819304D02*
X100840000Y38100464D01*
%TO.C,AC24-IN1*%
X9562500Y27846000D02*
X9562500Y25646000D01*
X9902500Y27556000D02*
X9902500Y25646000D01*
X9902500Y27556000D02*
X18032500Y27556000D01*
X9902500Y25646000D02*
X9902500Y20816000D01*
X10862500Y27846000D02*
X9562500Y27846000D01*
X11172500Y28946000D02*
X16762500Y28946000D01*
X11172500Y28696000D02*
X16762500Y28696000D01*
X11172500Y27806000D02*
X16762500Y27806000D01*
X11172500Y27556000D02*
X11172500Y28946000D01*
X13582500Y21076000D02*
X14352500Y21076000D01*
X13582500Y20816000D02*
X9902500Y20816000D01*
X13582500Y20816000D02*
X13582500Y21076000D01*
X14352500Y21076000D02*
X14352500Y20816000D01*
X14352500Y20816000D02*
X18032500Y20816000D01*
X16762500Y27556000D02*
X16762500Y28946000D01*
X18032500Y27556000D02*
X18032500Y25646000D01*
X18032500Y20816000D02*
X18032500Y25646000D01*
%TO.C,C3*%
X97055000Y37043321D02*
X97055000Y37565825D01*
X98525000Y37043321D02*
X98525000Y37565825D01*
%TO.C,RV1*%
X115375000Y33796000D02*
X115375000Y38866000D01*
X115375000Y33796000D02*
X105605000Y33796000D01*
X115375000Y38866000D02*
X105605000Y38866000D01*
X105605000Y33796000D02*
X105605000Y38866000D01*
%TO.C,5V 3V3 GND*%
X123130000Y42746797D02*
X124460000Y42746797D01*
X123130000Y41416797D02*
X123130000Y42746797D01*
X123130000Y40146797D02*
X123130000Y35006797D01*
X123130000Y40146797D02*
X125790000Y40146797D01*
X123130000Y35006797D02*
X125790000Y35006797D01*
X125790000Y40146797D02*
X125790000Y35006797D01*
%TO.C,R3*%
X46262936Y74066000D02*
X47717064Y74066000D01*
X46262936Y72246000D02*
X47717064Y72246000D01*
D14*
%TO.C,D3*%
X105495436Y83316000D02*
G75*
G03*
X105495436Y83316000I-50000J0D01*
G01*
D13*
%TO.C,7  6  5  G*%
X130748733Y91511720D02*
X130748733Y90181720D01*
X129418733Y91511720D02*
X130748733Y91511720D01*
X128148733Y91511720D02*
X120468733Y91511720D01*
X128148733Y91511720D02*
X128148733Y88851720D01*
X120468733Y91511720D02*
X120468733Y88851720D01*
X128148733Y88851720D02*
X120468733Y88851720D01*
%TO.C,U3*%
X87950000Y38466000D02*
X93960000Y38466000D01*
X90200000Y31646000D02*
X93960000Y31646000D01*
X93960000Y38466000D02*
X93960000Y37206000D01*
X93960000Y31646000D02*
X93960000Y32906000D01*
%TO.C,J4*%
X106556000Y27846000D02*
X106556000Y25646000D01*
X106896000Y27556000D02*
X106896000Y25646000D01*
X106896000Y27556000D02*
X115026000Y27556000D01*
X106896000Y25646000D02*
X106896000Y20816000D01*
X107856000Y27846000D02*
X106556000Y27846000D01*
X108166000Y28946000D02*
X113756000Y28946000D01*
X108166000Y28696000D02*
X113756000Y28696000D01*
X108166000Y27806000D02*
X113756000Y27806000D01*
X108166000Y27556000D02*
X108166000Y28946000D01*
X110576000Y21076000D02*
X111346000Y21076000D01*
X110576000Y20816000D02*
X106896000Y20816000D01*
X110576000Y20816000D02*
X110576000Y21076000D01*
X111346000Y21076000D02*
X111346000Y20816000D01*
X111346000Y20816000D02*
X115026000Y20816000D01*
X113756000Y27556000D02*
X113756000Y28946000D01*
X115026000Y27556000D02*
X115026000Y25646000D01*
X115026000Y20816000D02*
X115026000Y25646000D01*
%TO.C,K5*%
X95557000Y62036000D02*
X88957000Y62036000D01*
X95557000Y62036000D02*
X95557000Y42236000D01*
X86557000Y62036000D02*
X79957000Y62036000D01*
X87707000Y57986000D02*
X87707000Y58786000D01*
X87707000Y57986000D02*
X84107000Y57986000D01*
X81707000Y57086000D02*
X81707000Y54586000D01*
X89507000Y56586000D02*
X89507000Y52586000D01*
X85907000Y56586000D02*
X89507000Y56586000D01*
X93707000Y54586000D02*
X93707000Y57086000D01*
X93707000Y54586000D02*
X89507000Y54586000D01*
X85907000Y54586000D02*
X81707000Y54586000D01*
X89507000Y52586000D02*
X85907000Y52586000D01*
X85907000Y52586000D02*
X89507000Y56586000D01*
X85907000Y52586000D02*
X85907000Y56586000D01*
X87707000Y51186000D02*
X84107000Y51186000D01*
X87707000Y51186000D02*
X87707000Y49686000D01*
X84107000Y51186000D02*
X84107000Y57986000D01*
X87707000Y49686000D02*
X90207000Y45086000D01*
X91957000Y46486000D02*
X89457000Y46486000D01*
X83557000Y46486000D02*
X86007000Y46486000D01*
X95557000Y42236000D02*
X79957000Y42236000D01*
X79957000Y42236000D02*
X79957000Y62036000D01*
%TO.C,C5*%
X28985000Y27245698D02*
X28985000Y26445698D01*
X29385000Y26845698D02*
X28585000Y26845698D01*
X30750000Y22836000D02*
X22590000Y22836000D01*
X30750000Y22796000D02*
X22590000Y22796000D01*
X30750000Y22756000D02*
X22590000Y22756000D01*
X30749000Y22716000D02*
X22591000Y22716000D01*
X30747000Y22676000D02*
X22593000Y22676000D01*
X30746000Y22636000D02*
X22594000Y22636000D01*
X30744000Y22596000D02*
X22596000Y22596000D01*
X30741000Y22556000D02*
X22599000Y22556000D01*
X30738000Y22516000D02*
X22602000Y22516000D01*
X30735000Y22476000D02*
X22605000Y22476000D01*
X30731000Y22436000D02*
X22609000Y22436000D01*
X30727000Y22396000D02*
X22613000Y22396000D01*
X30722000Y22356000D02*
X22618000Y22356000D01*
X30718000Y22316000D02*
X22622000Y22316000D01*
X30712000Y22276000D02*
X22628000Y22276000D01*
X30707000Y22236000D02*
X22633000Y22236000D01*
X30700000Y22196000D02*
X22640000Y22196000D01*
X30694000Y22156000D02*
X22646000Y22156000D01*
X30687000Y22115000D02*
X27710000Y22115000D01*
X25630000Y22115000D02*
X22653000Y22115000D01*
X30680000Y22075000D02*
X27710000Y22075000D01*
X25630000Y22075000D02*
X22660000Y22075000D01*
X30672000Y22035000D02*
X27710000Y22035000D01*
X25630000Y22035000D02*
X22668000Y22035000D01*
X30664000Y21995000D02*
X27710000Y21995000D01*
X25630000Y21995000D02*
X22676000Y21995000D01*
X30655000Y21955000D02*
X27710000Y21955000D01*
X25630000Y21955000D02*
X22685000Y21955000D01*
X30646000Y21915000D02*
X27710000Y21915000D01*
X25630000Y21915000D02*
X22694000Y21915000D01*
X30637000Y21875000D02*
X27710000Y21875000D01*
X25630000Y21875000D02*
X22703000Y21875000D01*
X30627000Y21835000D02*
X27710000Y21835000D01*
X25630000Y21835000D02*
X22713000Y21835000D01*
X30617000Y21795000D02*
X27710000Y21795000D01*
X25630000Y21795000D02*
X22723000Y21795000D01*
X30606000Y21755000D02*
X27710000Y21755000D01*
X25630000Y21755000D02*
X22734000Y21755000D01*
X30595000Y21715000D02*
X27710000Y21715000D01*
X25630000Y21715000D02*
X22745000Y21715000D01*
X30584000Y21675000D02*
X27710000Y21675000D01*
X25630000Y21675000D02*
X22756000Y21675000D01*
X30572000Y21635000D02*
X27710000Y21635000D01*
X25630000Y21635000D02*
X22768000Y21635000D01*
X30559000Y21595000D02*
X27710000Y21595000D01*
X25630000Y21595000D02*
X22781000Y21595000D01*
X30547000Y21555000D02*
X27710000Y21555000D01*
X25630000Y21555000D02*
X22793000Y21555000D01*
X30533000Y21515000D02*
X27710000Y21515000D01*
X25630000Y21515000D02*
X22807000Y21515000D01*
X30520000Y21475000D02*
X27710000Y21475000D01*
X25630000Y21475000D02*
X22820000Y21475000D01*
X30505000Y21435000D02*
X27710000Y21435000D01*
X25630000Y21435000D02*
X22835000Y21435000D01*
X30491000Y21395000D02*
X27710000Y21395000D01*
X25630000Y21395000D02*
X22849000Y21395000D01*
X30475000Y21355000D02*
X27710000Y21355000D01*
X25630000Y21355000D02*
X22865000Y21355000D01*
X30460000Y21315000D02*
X27710000Y21315000D01*
X25630000Y21315000D02*
X22880000Y21315000D01*
X30444000Y21275000D02*
X27710000Y21275000D01*
X25630000Y21275000D02*
X22896000Y21275000D01*
X30427000Y21235000D02*
X27710000Y21235000D01*
X25630000Y21235000D02*
X22913000Y21235000D01*
X30410000Y21195000D02*
X27710000Y21195000D01*
X25630000Y21195000D02*
X22930000Y21195000D01*
X30392000Y21155000D02*
X27710000Y21155000D01*
X25630000Y21155000D02*
X22948000Y21155000D01*
X30374000Y21115000D02*
X27710000Y21115000D01*
X25630000Y21115000D02*
X22966000Y21115000D01*
X30356000Y21075000D02*
X27710000Y21075000D01*
X25630000Y21075000D02*
X22984000Y21075000D01*
X30336000Y21035000D02*
X27710000Y21035000D01*
X25630000Y21035000D02*
X23004000Y21035000D01*
X30317000Y20995000D02*
X27710000Y20995000D01*
X25630000Y20995000D02*
X23023000Y20995000D01*
X30297000Y20955000D02*
X27710000Y20955000D01*
X25630000Y20955000D02*
X23043000Y20955000D01*
X30276000Y20915000D02*
X27710000Y20915000D01*
X25630000Y20915000D02*
X23064000Y20915000D01*
X30254000Y20875000D02*
X27710000Y20875000D01*
X25630000Y20875000D02*
X23086000Y20875000D01*
X30232000Y20835000D02*
X27710000Y20835000D01*
X25630000Y20835000D02*
X23108000Y20835000D01*
X30210000Y20795000D02*
X27710000Y20795000D01*
X25630000Y20795000D02*
X23130000Y20795000D01*
X30187000Y20755000D02*
X27710000Y20755000D01*
X25630000Y20755000D02*
X23153000Y20755000D01*
X30163000Y20715000D02*
X27710000Y20715000D01*
X25630000Y20715000D02*
X23177000Y20715000D01*
X30139000Y20675000D02*
X27710000Y20675000D01*
X25630000Y20675000D02*
X23201000Y20675000D01*
X30114000Y20635000D02*
X27710000Y20635000D01*
X25630000Y20635000D02*
X23226000Y20635000D01*
X30088000Y20595000D02*
X27710000Y20595000D01*
X25630000Y20595000D02*
X23252000Y20595000D01*
X30062000Y20555000D02*
X27710000Y20555000D01*
X25630000Y20555000D02*
X23278000Y20555000D01*
X30035000Y20515000D02*
X27710000Y20515000D01*
X25630000Y20515000D02*
X23305000Y20515000D01*
X30008000Y20475000D02*
X27710000Y20475000D01*
X25630000Y20475000D02*
X23332000Y20475000D01*
X29979000Y20435000D02*
X27710000Y20435000D01*
X25630000Y20435000D02*
X23361000Y20435000D01*
X29950000Y20395000D02*
X27710000Y20395000D01*
X25630000Y20395000D02*
X23390000Y20395000D01*
X29920000Y20355000D02*
X27710000Y20355000D01*
X25630000Y20355000D02*
X23420000Y20355000D01*
X29890000Y20315000D02*
X27710000Y20315000D01*
X25630000Y20315000D02*
X23450000Y20315000D01*
X29859000Y20275000D02*
X27710000Y20275000D01*
X25630000Y20275000D02*
X23481000Y20275000D01*
X29826000Y20235000D02*
X27710000Y20235000D01*
X25630000Y20235000D02*
X23514000Y20235000D01*
X29794000Y20195000D02*
X27710000Y20195000D01*
X25630000Y20195000D02*
X23546000Y20195000D01*
X29760000Y20155000D02*
X27710000Y20155000D01*
X25630000Y20155000D02*
X23580000Y20155000D01*
X29725000Y20115000D02*
X27710000Y20115000D01*
X25630000Y20115000D02*
X23615000Y20115000D01*
X29689000Y20075000D02*
X27710000Y20075000D01*
X25630000Y20075000D02*
X23651000Y20075000D01*
X29653000Y20035000D02*
X23687000Y20035000D01*
X29615000Y19995000D02*
X23725000Y19995000D01*
X29577000Y19955000D02*
X23763000Y19955000D01*
X29537000Y19915000D02*
X23803000Y19915000D01*
X29496000Y19875000D02*
X23844000Y19875000D01*
X29454000Y19835000D02*
X23886000Y19835000D01*
X29411000Y19795000D02*
X23929000Y19795000D01*
X29367000Y19755000D02*
X23973000Y19755000D01*
X29321000Y19715000D02*
X24019000Y19715000D01*
X29274000Y19675000D02*
X24066000Y19675000D01*
X29226000Y19635000D02*
X24114000Y19635000D01*
X29175000Y19595000D02*
X24165000Y19595000D01*
X29124000Y19555000D02*
X24216000Y19555000D01*
X29070000Y19515000D02*
X24270000Y19515000D01*
X29015000Y19475000D02*
X24325000Y19475000D01*
X28957000Y19435000D02*
X24383000Y19435000D01*
X28898000Y19395000D02*
X24442000Y19395000D01*
X28836000Y19355000D02*
X24504000Y19355000D01*
X28772000Y19315000D02*
X24568000Y19315000D01*
X28704000Y19275000D02*
X24636000Y19275000D01*
X28634000Y19235000D02*
X24706000Y19235000D01*
X28560000Y19195000D02*
X24780000Y19195000D01*
X28483000Y19155000D02*
X24857000Y19155000D01*
X28401000Y19115000D02*
X24939000Y19115000D01*
X28315000Y19075000D02*
X25025000Y19075000D01*
X28222000Y19035000D02*
X25118000Y19035000D01*
X28123000Y18995000D02*
X25217000Y18995000D01*
X28016000Y18955000D02*
X25324000Y18955000D01*
X27899000Y18915000D02*
X25441000Y18915000D01*
X27768000Y18875000D02*
X25572000Y18875000D01*
X27618000Y18835000D02*
X25722000Y18835000D01*
X27438000Y18795000D02*
X25902000Y18795000D01*
X27203000Y18755000D02*
X26137000Y18755000D01*
X30790000Y22836000D02*
G75*
G03*
X30790000Y22836000I-4120000J0D01*
G01*
%TO.C,D6*%
X11040000Y39746000D02*
X11040000Y35446000D01*
X11040000Y39746000D02*
X16850000Y39746000D01*
X11040000Y35446000D02*
X16850000Y35446000D01*
%TO.C,C6*%
X31975000Y29386302D02*
X31975000Y30186302D01*
X31575000Y29786302D02*
X32375000Y29786302D01*
X30210000Y33796000D02*
X38370000Y33796000D01*
X30210000Y33836000D02*
X38370000Y33836000D01*
X30210000Y33876000D02*
X38370000Y33876000D01*
X30211000Y33916000D02*
X38369000Y33916000D01*
X30213000Y33956000D02*
X38367000Y33956000D01*
X30214000Y33996000D02*
X38366000Y33996000D01*
X30216000Y34036000D02*
X38364000Y34036000D01*
X30219000Y34076000D02*
X38361000Y34076000D01*
X30222000Y34116000D02*
X38358000Y34116000D01*
X30225000Y34156000D02*
X38355000Y34156000D01*
X30229000Y34196000D02*
X38351000Y34196000D01*
X30233000Y34236000D02*
X38347000Y34236000D01*
X30238000Y34276000D02*
X38342000Y34276000D01*
X30242000Y34316000D02*
X38338000Y34316000D01*
X30248000Y34356000D02*
X38332000Y34356000D01*
X30253000Y34396000D02*
X38327000Y34396000D01*
X30260000Y34436000D02*
X38320000Y34436000D01*
X30266000Y34476000D02*
X38314000Y34476000D01*
X30273000Y34517000D02*
X33250000Y34517000D01*
X35330000Y34517000D02*
X38307000Y34517000D01*
X30280000Y34557000D02*
X33250000Y34557000D01*
X35330000Y34557000D02*
X38300000Y34557000D01*
X30288000Y34597000D02*
X33250000Y34597000D01*
X35330000Y34597000D02*
X38292000Y34597000D01*
X30296000Y34637000D02*
X33250000Y34637000D01*
X35330000Y34637000D02*
X38284000Y34637000D01*
X30305000Y34677000D02*
X33250000Y34677000D01*
X35330000Y34677000D02*
X38275000Y34677000D01*
X30314000Y34717000D02*
X33250000Y34717000D01*
X35330000Y34717000D02*
X38266000Y34717000D01*
X30323000Y34757000D02*
X33250000Y34757000D01*
X35330000Y34757000D02*
X38257000Y34757000D01*
X30333000Y34797000D02*
X33250000Y34797000D01*
X35330000Y34797000D02*
X38247000Y34797000D01*
X30343000Y34837000D02*
X33250000Y34837000D01*
X35330000Y34837000D02*
X38237000Y34837000D01*
X30354000Y34877000D02*
X33250000Y34877000D01*
X35330000Y34877000D02*
X38226000Y34877000D01*
X30365000Y34917000D02*
X33250000Y34917000D01*
X35330000Y34917000D02*
X38215000Y34917000D01*
X30376000Y34957000D02*
X33250000Y34957000D01*
X35330000Y34957000D02*
X38204000Y34957000D01*
X30388000Y34997000D02*
X33250000Y34997000D01*
X35330000Y34997000D02*
X38192000Y34997000D01*
X30401000Y35037000D02*
X33250000Y35037000D01*
X35330000Y35037000D02*
X38179000Y35037000D01*
X30413000Y35077000D02*
X33250000Y35077000D01*
X35330000Y35077000D02*
X38167000Y35077000D01*
X30427000Y35117000D02*
X33250000Y35117000D01*
X35330000Y35117000D02*
X38153000Y35117000D01*
X30440000Y35157000D02*
X33250000Y35157000D01*
X35330000Y35157000D02*
X38140000Y35157000D01*
X30455000Y35197000D02*
X33250000Y35197000D01*
X35330000Y35197000D02*
X38125000Y35197000D01*
X30469000Y35237000D02*
X33250000Y35237000D01*
X35330000Y35237000D02*
X38111000Y35237000D01*
X30485000Y35277000D02*
X33250000Y35277000D01*
X35330000Y35277000D02*
X38095000Y35277000D01*
X30500000Y35317000D02*
X33250000Y35317000D01*
X35330000Y35317000D02*
X38080000Y35317000D01*
X30516000Y35357000D02*
X33250000Y35357000D01*
X35330000Y35357000D02*
X38064000Y35357000D01*
X30533000Y35397000D02*
X33250000Y35397000D01*
X35330000Y35397000D02*
X38047000Y35397000D01*
X30550000Y35437000D02*
X33250000Y35437000D01*
X35330000Y35437000D02*
X38030000Y35437000D01*
X30568000Y35477000D02*
X33250000Y35477000D01*
X35330000Y35477000D02*
X38012000Y35477000D01*
X30586000Y35517000D02*
X33250000Y35517000D01*
X35330000Y35517000D02*
X37994000Y35517000D01*
X30604000Y35557000D02*
X33250000Y35557000D01*
X35330000Y35557000D02*
X37976000Y35557000D01*
X30624000Y35597000D02*
X33250000Y35597000D01*
X35330000Y35597000D02*
X37956000Y35597000D01*
X30643000Y35637000D02*
X33250000Y35637000D01*
X35330000Y35637000D02*
X37937000Y35637000D01*
X30663000Y35677000D02*
X33250000Y35677000D01*
X35330000Y35677000D02*
X37917000Y35677000D01*
X30684000Y35717000D02*
X33250000Y35717000D01*
X35330000Y35717000D02*
X37896000Y35717000D01*
X30706000Y35757000D02*
X33250000Y35757000D01*
X35330000Y35757000D02*
X37874000Y35757000D01*
X30728000Y35797000D02*
X33250000Y35797000D01*
X35330000Y35797000D02*
X37852000Y35797000D01*
X30750000Y35837000D02*
X33250000Y35837000D01*
X35330000Y35837000D02*
X37830000Y35837000D01*
X30773000Y35877000D02*
X33250000Y35877000D01*
X35330000Y35877000D02*
X37807000Y35877000D01*
X30797000Y35917000D02*
X33250000Y35917000D01*
X35330000Y35917000D02*
X37783000Y35917000D01*
X30821000Y35957000D02*
X33250000Y35957000D01*
X35330000Y35957000D02*
X37759000Y35957000D01*
X30846000Y35997000D02*
X33250000Y35997000D01*
X35330000Y35997000D02*
X37734000Y35997000D01*
X30872000Y36037000D02*
X33250000Y36037000D01*
X35330000Y36037000D02*
X37708000Y36037000D01*
X30898000Y36077000D02*
X33250000Y36077000D01*
X35330000Y36077000D02*
X37682000Y36077000D01*
X30925000Y36117000D02*
X33250000Y36117000D01*
X35330000Y36117000D02*
X37655000Y36117000D01*
X30952000Y36157000D02*
X33250000Y36157000D01*
X35330000Y36157000D02*
X37628000Y36157000D01*
X30981000Y36197000D02*
X33250000Y36197000D01*
X35330000Y36197000D02*
X37599000Y36197000D01*
X31010000Y36237000D02*
X33250000Y36237000D01*
X35330000Y36237000D02*
X37570000Y36237000D01*
X31040000Y36277000D02*
X33250000Y36277000D01*
X35330000Y36277000D02*
X37540000Y36277000D01*
X31070000Y36317000D02*
X33250000Y36317000D01*
X35330000Y36317000D02*
X37510000Y36317000D01*
X31101000Y36357000D02*
X33250000Y36357000D01*
X35330000Y36357000D02*
X37479000Y36357000D01*
X31134000Y36397000D02*
X33250000Y36397000D01*
X35330000Y36397000D02*
X37446000Y36397000D01*
X31166000Y36437000D02*
X33250000Y36437000D01*
X35330000Y36437000D02*
X37414000Y36437000D01*
X31200000Y36477000D02*
X33250000Y36477000D01*
X35330000Y36477000D02*
X37380000Y36477000D01*
X31235000Y36517000D02*
X33250000Y36517000D01*
X35330000Y36517000D02*
X37345000Y36517000D01*
X31271000Y36557000D02*
X33250000Y36557000D01*
X35330000Y36557000D02*
X37309000Y36557000D01*
X31307000Y36597000D02*
X37273000Y36597000D01*
X31345000Y36637000D02*
X37235000Y36637000D01*
X31383000Y36677000D02*
X37197000Y36677000D01*
X31423000Y36717000D02*
X37157000Y36717000D01*
X31464000Y36757000D02*
X37116000Y36757000D01*
X31506000Y36797000D02*
X37074000Y36797000D01*
X31549000Y36837000D02*
X37031000Y36837000D01*
X31593000Y36877000D02*
X36987000Y36877000D01*
X31639000Y36917000D02*
X36941000Y36917000D01*
X31686000Y36957000D02*
X36894000Y36957000D01*
X31734000Y36997000D02*
X36846000Y36997000D01*
X31785000Y37037000D02*
X36795000Y37037000D01*
X31836000Y37077000D02*
X36744000Y37077000D01*
X31890000Y37117000D02*
X36690000Y37117000D01*
X31945000Y37157000D02*
X36635000Y37157000D01*
X32003000Y37197000D02*
X36577000Y37197000D01*
X32062000Y37237000D02*
X36518000Y37237000D01*
X32124000Y37277000D02*
X36456000Y37277000D01*
X32188000Y37317000D02*
X36392000Y37317000D01*
X32256000Y37357000D02*
X36324000Y37357000D01*
X32326000Y37397000D02*
X36254000Y37397000D01*
X32400000Y37437000D02*
X36180000Y37437000D01*
X32477000Y37477000D02*
X36103000Y37477000D01*
X32559000Y37517000D02*
X36021000Y37517000D01*
X32645000Y37557000D02*
X35935000Y37557000D01*
X32738000Y37597000D02*
X35842000Y37597000D01*
X32837000Y37637000D02*
X35743000Y37637000D01*
X32944000Y37677000D02*
X35636000Y37677000D01*
X33061000Y37717000D02*
X35519000Y37717000D01*
X33192000Y37757000D02*
X35388000Y37757000D01*
X33342000Y37797000D02*
X35238000Y37797000D01*
X33522000Y37837000D02*
X35058000Y37837000D01*
X33757000Y37877000D02*
X34823000Y37877000D01*
X38410000Y33796000D02*
G75*
G03*
X38410000Y33796000I-4120000J0D01*
G01*
%TO.C,26 27 28 29*%
X114798792Y63497496D02*
X116128792Y63497496D01*
X114798792Y62167496D02*
X114798792Y63497496D01*
X114798792Y60897496D02*
X114798792Y53217496D01*
X114798792Y60897496D02*
X117458792Y60897496D01*
X114798792Y53217496D02*
X117458792Y53217496D01*
X117458792Y60897496D02*
X117458792Y53217496D01*
%TO.C,K1*%
X24945000Y62036000D02*
X18345000Y62036000D01*
X24945000Y62036000D02*
X24945000Y42236000D01*
X15945000Y62036000D02*
X9345000Y62036000D01*
X17095000Y57986000D02*
X17095000Y58786000D01*
X17095000Y57986000D02*
X13495000Y57986000D01*
X11095000Y57086000D02*
X11095000Y54586000D01*
X18895000Y56586000D02*
X18895000Y52586000D01*
X15295000Y56586000D02*
X18895000Y56586000D01*
X23095000Y54586000D02*
X23095000Y57086000D01*
X23095000Y54586000D02*
X18895000Y54586000D01*
X15295000Y54586000D02*
X11095000Y54586000D01*
X18895000Y52586000D02*
X15295000Y52586000D01*
X15295000Y52586000D02*
X18895000Y56586000D01*
X15295000Y52586000D02*
X15295000Y56586000D01*
X17095000Y51186000D02*
X13495000Y51186000D01*
X17095000Y51186000D02*
X17095000Y49686000D01*
X13495000Y51186000D02*
X13495000Y57986000D01*
X17095000Y49686000D02*
X19595000Y45086000D01*
X21345000Y46486000D02*
X18845000Y46486000D01*
X12945000Y46486000D02*
X15395000Y46486000D01*
X24945000Y42236000D02*
X9345000Y42236000D01*
X9345000Y42236000D02*
X9345000Y62036000D01*
%TO.C,U1*%
X48170000Y32401000D02*
X48170000Y31451000D01*
X48170000Y31451000D02*
X43045000Y31451000D01*
X48170000Y22951000D02*
X47070000Y22951000D01*
X48170000Y22001000D02*
X48170000Y22951000D01*
X49670000Y32401000D02*
X48170000Y32401000D01*
X49670000Y22001000D02*
X48170000Y22001000D01*
%TO.C,Q1*%
X12275000Y71407105D02*
X12275000Y71137105D01*
X12275000Y71137105D02*
X9445000Y71137105D01*
X12275000Y64777105D02*
X11175000Y64777105D01*
X12275000Y64507105D02*
X12275000Y64777105D01*
X13775000Y71407105D02*
X12275000Y71407105D01*
X13775000Y64507105D02*
X12275000Y64507105D01*
%TO.C,L1*%
X61605560Y22032438D02*
X61605560Y34632438D01*
X64605560Y22032438D02*
X61605560Y22032438D01*
X74205560Y22032438D02*
X71205560Y22032438D01*
X61605560Y34632438D02*
X64605560Y34632438D01*
X71205560Y34632438D02*
X74205560Y34632438D01*
X74205560Y34632438D02*
X74205560Y22032438D01*
%TO.C,Q2*%
X29420000Y71526000D02*
X29420000Y71256000D01*
X29420000Y71256000D02*
X26590000Y71256000D01*
X29420000Y64896000D02*
X28320000Y64896000D01*
X29420000Y64626000D02*
X29420000Y64896000D01*
X30920000Y71526000D02*
X29420000Y71526000D01*
X30920000Y64626000D02*
X29420000Y64626000D01*
%TO.C,R9*%
X100717767Y79146000D02*
X102171895Y79146000D01*
X100717767Y77326000D02*
X102171895Y77326000D01*
%TO.C,J5*%
X116163000Y27846000D02*
X116163000Y25646000D01*
X116503000Y27556000D02*
X116503000Y25646000D01*
X116503000Y27556000D02*
X124633000Y27556000D01*
X116503000Y25646000D02*
X116503000Y20816000D01*
X117463000Y27846000D02*
X116163000Y27846000D01*
X117773000Y28946000D02*
X123363000Y28946000D01*
X117773000Y28696000D02*
X123363000Y28696000D01*
X117773000Y27806000D02*
X123363000Y27806000D01*
X117773000Y27556000D02*
X117773000Y28946000D01*
X120183000Y21076000D02*
X120953000Y21076000D01*
X120183000Y20816000D02*
X116503000Y20816000D01*
X120183000Y20816000D02*
X120183000Y21076000D01*
X120953000Y21076000D02*
X120953000Y20816000D01*
X120953000Y20816000D02*
X124633000Y20816000D01*
X123363000Y27556000D02*
X123363000Y28946000D01*
X124633000Y27556000D02*
X124633000Y25646000D01*
X124633000Y20816000D02*
X124633000Y25646000D01*
%TO.C,D5*%
X37800000Y24046000D02*
X37800000Y27346000D01*
X37800000Y24046000D02*
X32290000Y24046000D01*
X37800000Y27346000D02*
X32290000Y27346000D01*
%TO.C,SENSOR1*%
X131586501Y31565998D02*
X133786501Y31565998D01*
X131876501Y31905998D02*
X133786501Y31905998D01*
X131876501Y31905998D02*
X131876501Y40035998D01*
X133786501Y31905998D02*
X138616501Y31905998D01*
X131586501Y32865998D02*
X131586501Y31565998D01*
X130486501Y33175998D02*
X130486501Y38765998D01*
X130736501Y33175998D02*
X130736501Y38765998D01*
X131626501Y33175998D02*
X131626501Y38765998D01*
X131876501Y33175998D02*
X130486501Y33175998D01*
X138356501Y35585998D02*
X138356501Y36355998D01*
X138616501Y35585998D02*
X138616501Y31905998D01*
X138616501Y35585998D02*
X138356501Y35585998D01*
X138356501Y36355998D02*
X138616501Y36355998D01*
X138616501Y36355998D02*
X138616501Y40035998D01*
X131876501Y38765998D02*
X130486501Y38765998D01*
X131876501Y40035998D02*
X133786501Y40035998D01*
X138616501Y40035998D02*
X133786501Y40035998D01*
%TO.C,EXT/PROG*%
X120786833Y51100286D02*
X121916833Y51100286D01*
X120786833Y50340286D02*
X120786833Y51100286D01*
X120786833Y49580286D02*
X120786833Y47105286D01*
X120786833Y49580286D02*
X121353362Y49580286D01*
X120786833Y47105286D02*
X121609303Y47105286D01*
X122224363Y47105286D02*
X122879303Y47105286D01*
X122480304Y49580286D02*
X122623362Y49580286D01*
X122676833Y51035286D02*
X122879303Y51035286D01*
X122676833Y50903757D02*
X122676833Y51035286D01*
X122676833Y49633757D02*
X122676833Y49776815D01*
X123494363Y51035286D02*
X124316833Y51035286D01*
X123494363Y47105286D02*
X124316833Y47105286D01*
X124316833Y51035286D02*
X124316833Y47105286D01*
%TO.C,Q5*%
X82887000Y71781000D02*
X82887000Y71511000D01*
X82887000Y71511000D02*
X80057000Y71511000D01*
X82887000Y65151000D02*
X81787000Y65151000D01*
X82887000Y64881000D02*
X82887000Y65151000D01*
X84387000Y71781000D02*
X82887000Y71781000D01*
X84387000Y64881000D02*
X82887000Y64881000D01*
%TO.C,R11*%
X112548733Y89831284D02*
X112548733Y88377156D01*
X110728733Y89831284D02*
X110728733Y88377156D01*
%TO.C,Q4*%
X65280000Y71526000D02*
X65280000Y71256000D01*
X65280000Y71256000D02*
X62450000Y71256000D01*
X65280000Y64896000D02*
X64180000Y64896000D01*
X65280000Y64626000D02*
X65280000Y64896000D01*
X66780000Y71526000D02*
X65280000Y71526000D01*
X66780000Y64626000D02*
X65280000Y64626000D01*
%TO.C,R5*%
X81359936Y74066000D02*
X82814064Y74066000D01*
X81359936Y72246000D02*
X82814064Y72246000D01*
%TO.C,Q6*%
X100540000Y71786000D02*
X100540000Y71516000D01*
X100540000Y71516000D02*
X97710000Y71516000D01*
X100540000Y65156000D02*
X99440000Y65156000D01*
X100540000Y64886000D02*
X100540000Y65156000D01*
X102040000Y71786000D02*
X100540000Y71786000D01*
X102040000Y64886000D02*
X100540000Y64886000D01*
%TO.C,D8*%
X23250000Y27586000D02*
X27550000Y27586000D01*
X23250000Y27586000D02*
X23250000Y33396000D01*
X27550000Y27586000D02*
X27550000Y33396000D01*
%TO.C,C1*%
X83071928Y37296541D02*
X83071928Y37819045D01*
X84541928Y37296541D02*
X84541928Y37819045D01*
%TO.C,U2*%
X139690000Y83406000D02*
X133275000Y83406000D01*
X139690000Y83406000D02*
X139690000Y65166000D01*
X133275000Y83406000D02*
X133275000Y83786000D01*
X114730000Y83406000D02*
X113950000Y83406000D01*
X113950000Y83406000D02*
X113950000Y82406000D01*
X139690000Y65166000D02*
X133275000Y65166000D01*
X114730000Y65166000D02*
X113950000Y65166000D01*
X113950000Y65166000D02*
X113950000Y66166000D01*
%TO.C,J2*%
X87342000Y27846000D02*
X87342000Y25646000D01*
X87682000Y27556000D02*
X87682000Y25646000D01*
X87682000Y27556000D02*
X95812000Y27556000D01*
X87682000Y25646000D02*
X87682000Y20816000D01*
X88642000Y27846000D02*
X87342000Y27846000D01*
X88952000Y28946000D02*
X94542000Y28946000D01*
X88952000Y28696000D02*
X94542000Y28696000D01*
X88952000Y27806000D02*
X94542000Y27806000D01*
X88952000Y27556000D02*
X88952000Y28946000D01*
X91362000Y21076000D02*
X92132000Y21076000D01*
X91362000Y20816000D02*
X87682000Y20816000D01*
X91362000Y20816000D02*
X91362000Y21076000D01*
X92132000Y21076000D02*
X92132000Y20816000D01*
X92132000Y20816000D02*
X95812000Y20816000D01*
X94542000Y27556000D02*
X94542000Y28946000D01*
X95812000Y27556000D02*
X95812000Y25646000D01*
X95812000Y20816000D02*
X95812000Y25646000D01*
%TO.C,R2*%
X27892936Y74066000D02*
X29347064Y74066000D01*
X27892936Y72246000D02*
X29347064Y72246000D01*
%TO.C,R7*%
X100717767Y84226000D02*
X102171895Y84226000D01*
X100717767Y82406000D02*
X102171895Y82406000D01*
%TO.C,C2*%
X85205295Y36680160D02*
X85205295Y36961320D01*
X86225295Y36680160D02*
X86225295Y36961320D01*
%TO.C,R4*%
X64042936Y74066000D02*
X65497064Y74066000D01*
X64042936Y72246000D02*
X65497064Y72246000D01*
%TO.C,R13*%
X117628733Y89831284D02*
X117628733Y88377156D01*
X115808733Y89831284D02*
X115808733Y88377156D01*
%TO.C,R8*%
X100717767Y81686000D02*
X102171895Y81686000D01*
X100717767Y79866000D02*
X102171895Y79866000D01*
%TO.C,J3*%
X96949000Y27846000D02*
X96949000Y25646000D01*
X97289000Y27556000D02*
X97289000Y25646000D01*
X97289000Y27556000D02*
X105419000Y27556000D01*
X97289000Y25646000D02*
X97289000Y20816000D01*
X98249000Y27846000D02*
X96949000Y27846000D01*
X98559000Y28946000D02*
X104149000Y28946000D01*
X98559000Y28696000D02*
X104149000Y28696000D01*
X98559000Y27806000D02*
X104149000Y27806000D01*
X98559000Y27556000D02*
X98559000Y28946000D01*
X100969000Y21076000D02*
X101739000Y21076000D01*
X100969000Y20816000D02*
X97289000Y20816000D01*
X100969000Y20816000D02*
X100969000Y21076000D01*
X101739000Y21076000D02*
X101739000Y20816000D01*
X101739000Y20816000D02*
X105419000Y20816000D01*
X104149000Y27556000D02*
X104149000Y28946000D01*
X105419000Y27556000D02*
X105419000Y25646000D01*
X105419000Y20816000D02*
X105419000Y25646000D01*
%TO.C,R6*%
X99012936Y74066000D02*
X100467064Y74066000D01*
X99012936Y72246000D02*
X100467064Y72246000D01*
%TO.C,R1*%
X10747936Y74066000D02*
X12202064Y74066000D01*
X10747936Y72246000D02*
X12202064Y72246000D01*
%TO.C,D4*%
X18360000Y31636000D02*
X18360000Y35936000D01*
X18360000Y31636000D02*
X12550000Y31636000D01*
X18360000Y35936000D02*
X12550000Y35936000D01*
%TO.C,D7*%
X22470000Y31826000D02*
X18170000Y31826000D01*
X22470000Y31826000D02*
X22470000Y26016000D01*
X18170000Y31826000D02*
X18170000Y26016000D01*
%TO.C,Q3*%
X47905000Y71781000D02*
X47905000Y71511000D01*
X47905000Y71511000D02*
X45075000Y71511000D01*
X47905000Y65151000D02*
X46805000Y65151000D01*
X47905000Y64881000D02*
X47905000Y65151000D01*
X49405000Y71781000D02*
X47905000Y71781000D01*
X49405000Y64881000D02*
X47905000Y64881000D01*
%TO.C,J6*%
X125770000Y27846000D02*
X125770000Y25646000D01*
X126110000Y27556000D02*
X126110000Y25646000D01*
X126110000Y27556000D02*
X134240000Y27556000D01*
X126110000Y25646000D02*
X126110000Y20816000D01*
X127070000Y27846000D02*
X125770000Y27846000D01*
X127380000Y28946000D02*
X132970000Y28946000D01*
X127380000Y28696000D02*
X132970000Y28696000D01*
X127380000Y27806000D02*
X132970000Y27806000D01*
X127380000Y27556000D02*
X127380000Y28946000D01*
X129790000Y21076000D02*
X130560000Y21076000D01*
X129790000Y20816000D02*
X126110000Y20816000D01*
X129790000Y20816000D02*
X129790000Y21076000D01*
X130560000Y21076000D02*
X130560000Y20816000D01*
X130560000Y20816000D02*
X134240000Y20816000D01*
X132970000Y27556000D02*
X132970000Y28946000D01*
X134240000Y27556000D02*
X134240000Y25646000D01*
X134240000Y20816000D02*
X134240000Y25646000D01*
%TO.C,J1*%
X77735000Y27846000D02*
X77735000Y25646000D01*
X78075000Y27556000D02*
X78075000Y25646000D01*
X78075000Y27556000D02*
X86205000Y27556000D01*
X78075000Y25646000D02*
X78075000Y20816000D01*
X79035000Y27846000D02*
X77735000Y27846000D01*
X79345000Y28946000D02*
X84935000Y28946000D01*
X79345000Y28696000D02*
X84935000Y28696000D01*
X79345000Y27806000D02*
X84935000Y27806000D01*
X79345000Y27556000D02*
X79345000Y28946000D01*
X81755000Y21076000D02*
X82525000Y21076000D01*
X81755000Y20816000D02*
X78075000Y20816000D01*
X81755000Y20816000D02*
X81755000Y21076000D01*
X82525000Y21076000D02*
X82525000Y20816000D01*
X82525000Y20816000D02*
X86205000Y20816000D01*
X84935000Y27556000D02*
X84935000Y28946000D01*
X86205000Y27556000D02*
X86205000Y25646000D01*
X86205000Y20816000D02*
X86205000Y25646000D01*
%TO.C,K6*%
X113210000Y62036000D02*
X106610000Y62036000D01*
X113210000Y62036000D02*
X113210000Y42236000D01*
X104210000Y62036000D02*
X97610000Y62036000D01*
X105360000Y57986000D02*
X105360000Y58786000D01*
X105360000Y57986000D02*
X101760000Y57986000D01*
X99360000Y57086000D02*
X99360000Y54586000D01*
X107160000Y56586000D02*
X107160000Y52586000D01*
X103560000Y56586000D02*
X107160000Y56586000D01*
X111360000Y54586000D02*
X111360000Y57086000D01*
X111360000Y54586000D02*
X107160000Y54586000D01*
X103560000Y54586000D02*
X99360000Y54586000D01*
X107160000Y52586000D02*
X103560000Y52586000D01*
X103560000Y52586000D02*
X107160000Y56586000D01*
X103560000Y52586000D02*
X103560000Y56586000D01*
X105360000Y51186000D02*
X101760000Y51186000D01*
X105360000Y51186000D02*
X105360000Y49686000D01*
X101760000Y51186000D02*
X101760000Y57986000D01*
X105360000Y49686000D02*
X107860000Y45086000D01*
X109610000Y46486000D02*
X107110000Y46486000D01*
X101210000Y46486000D02*
X103660000Y46486000D01*
X113210000Y42236000D02*
X97610000Y42236000D01*
X97610000Y42236000D02*
X97610000Y62036000D01*
%TD*%
%LPC*%
D15*
%TO.C,R12*%
X114178733Y90566720D03*
X114178733Y87641720D03*
%TD*%
D16*
%TO.C,D1*%
X106050436Y78236000D03*
X107020436Y78236000D03*
%TD*%
D17*
%TO.C,K3*%
X52451000Y60636000D03*
D18*
X46401000Y58686000D03*
D17*
X46401000Y46486000D03*
X58451000Y46436000D03*
D18*
X58401000Y58686000D03*
%TD*%
D16*
%TO.C,D2*%
X106050436Y80776000D03*
X107020436Y80776000D03*
%TD*%
D17*
%TO.C,K4*%
X70104000Y60636000D03*
D18*
X64054000Y58686000D03*
D17*
X64054000Y46486000D03*
X76104000Y46436000D03*
D18*
X76054000Y58686000D03*
%TD*%
D17*
%TO.C,K2*%
X34798000Y60636000D03*
D18*
X28748000Y58686000D03*
D17*
X28748000Y46486000D03*
X40798000Y46436000D03*
D18*
X40748000Y58686000D03*
%TD*%
D19*
%TO.C,C4*%
X100330000Y37184884D03*
X100330000Y38734884D03*
%TD*%
D20*
%TO.C,AC24-IN1*%
X12062500Y25646000D03*
D17*
X15942500Y25646000D03*
%TD*%
D21*
%TO.C,C3*%
X97790000Y36354573D03*
X97790000Y38254573D03*
%TD*%
D22*
%TO.C,RV1*%
X107950000Y35056000D03*
X110490000Y37596000D03*
X113030000Y35056000D03*
%TD*%
D23*
%TO.C,5V 3V3 GND*%
X124460000Y41416797D03*
D24*
X124460000Y38876797D03*
X124460000Y36336797D03*
%TD*%
D25*
%TO.C,R3*%
X45527500Y73156000D03*
X48452500Y73156000D03*
%TD*%
D16*
%TO.C,D3*%
X106050436Y83316000D03*
X107020436Y83316000D03*
%TD*%
D23*
%TO.C,7  6  5  G*%
X129418733Y90181720D03*
X126878733Y90181720D03*
X124338733Y90181720D03*
X121798733Y90181720D03*
%TD*%
D26*
%TO.C,U3*%
X88900000Y37356000D03*
X88900000Y35056000D03*
D27*
X95200000Y35056000D03*
D26*
X88900000Y32756000D03*
%TD*%
D20*
%TO.C,J4*%
X109056000Y25646000D03*
D17*
X112936000Y25646000D03*
%TD*%
%TO.C,K5*%
X87757000Y60636000D03*
D18*
X81707000Y58686000D03*
D17*
X81707000Y46486000D03*
X93757000Y46436000D03*
D18*
X93707000Y58686000D03*
%TD*%
D28*
%TO.C,C5*%
X26670000Y24586000D03*
D29*
X26670000Y21086000D03*
%TD*%
D30*
%TO.C,D6*%
X12550000Y37596000D03*
X16850000Y37596000D03*
%TD*%
D28*
%TO.C,C6*%
X34290000Y32046000D03*
D29*
X34290000Y35546000D03*
%TD*%
D23*
%TO.C,26 27 28 29*%
X116128792Y62167496D03*
X116128792Y59627496D03*
X116128792Y57087496D03*
X116128792Y54547496D03*
%TD*%
D17*
%TO.C,K1*%
X17145000Y60636000D03*
D18*
X11095000Y58686000D03*
D17*
X11095000Y46486000D03*
X23145000Y46436000D03*
D18*
X23095000Y58686000D03*
%TD*%
D31*
%TO.C,U1*%
X45345000Y30601000D03*
X45345000Y28901000D03*
X45345000Y27201000D03*
D32*
X54495000Y27201000D03*
D31*
X45345000Y25501000D03*
X45345000Y23801000D03*
%TD*%
D33*
%TO.C,Q1*%
X10545000Y70237105D03*
D34*
X16845000Y67957105D03*
D33*
X10545000Y65677105D03*
%TD*%
D35*
%TO.C,L1*%
X67905560Y23382438D03*
X67905560Y33282438D03*
%TD*%
D33*
%TO.C,Q2*%
X27690000Y70356000D03*
D34*
X33990000Y68076000D03*
D33*
X27690000Y65796000D03*
%TD*%
D25*
%TO.C,R9*%
X99982331Y78236000D03*
X102907331Y78236000D03*
%TD*%
D20*
%TO.C,J5*%
X118663000Y25646000D03*
D17*
X122543000Y25646000D03*
%TD*%
D36*
%TO.C,D5*%
X36290000Y25696000D03*
X32290000Y25696000D03*
%TD*%
D20*
%TO.C,SENSOR1*%
X133786501Y34065998D03*
D17*
X133786501Y37945998D03*
%TD*%
D37*
%TO.C,EXT/PROG*%
X121916833Y50340286D03*
D38*
X123186833Y50340286D03*
X121916833Y49070286D03*
X123186833Y49070286D03*
X121916833Y47800286D03*
X123186833Y47800286D03*
%TD*%
D33*
%TO.C,Q5*%
X81157000Y70611000D03*
D34*
X87457000Y68331000D03*
D33*
X81157000Y66051000D03*
%TD*%
D15*
%TO.C,R11*%
X111638733Y90566720D03*
X111638733Y87641720D03*
%TD*%
D33*
%TO.C,Q4*%
X63550000Y70356000D03*
D34*
X69850000Y68076000D03*
D33*
X63550000Y65796000D03*
%TD*%
D25*
%TO.C,R5*%
X80624500Y73156000D03*
X83549500Y73156000D03*
%TD*%
D33*
%TO.C,Q6*%
X98810000Y70616000D03*
D34*
X105110000Y68336000D03*
D33*
X98810000Y66056000D03*
%TD*%
D39*
%TO.C,D8*%
X25400000Y29096000D03*
X25400000Y33396000D03*
%TD*%
D21*
%TO.C,C1*%
X83806928Y36607793D03*
X83806928Y38507793D03*
%TD*%
D40*
%TO.C,U2*%
X132080000Y83036000D03*
X130810000Y83036000D03*
X129540000Y83036000D03*
X128270000Y83036000D03*
X127000000Y83036000D03*
X125730000Y83036000D03*
X124460000Y83036000D03*
X123190000Y83036000D03*
X121920000Y83036000D03*
X120650000Y83036000D03*
X119380000Y83036000D03*
X118110000Y83036000D03*
X116840000Y83036000D03*
X115570000Y83036000D03*
D41*
X114320000Y79996000D03*
X114320000Y78726000D03*
X114320000Y77456000D03*
X114320000Y76186000D03*
X114320000Y74916000D03*
X114320000Y73646000D03*
X114320000Y72376000D03*
X114320000Y71106000D03*
X114320000Y69836000D03*
X114320000Y68566000D03*
D40*
X115570000Y65536000D03*
X116840000Y65536000D03*
X118110000Y65536000D03*
X119380000Y65536000D03*
X120650000Y65536000D03*
X121920000Y65536000D03*
X123190000Y65536000D03*
X124460000Y65536000D03*
X125730000Y65536000D03*
X127000000Y65536000D03*
X128270000Y65536000D03*
X129540000Y65536000D03*
X130810000Y65536000D03*
X132080000Y65536000D03*
D42*
X125060000Y77186000D03*
X123660000Y77186000D03*
X125760000Y76486000D03*
X124360000Y76486000D03*
X122960000Y76486000D03*
X125060000Y75811000D03*
X123660000Y75811000D03*
D43*
X124360000Y75786000D03*
D42*
X125760000Y75086000D03*
X124360000Y75086000D03*
X122960000Y75086000D03*
X125060000Y74386000D03*
X123660000Y74386000D03*
%TD*%
D20*
%TO.C,J2*%
X89842000Y25646000D03*
D17*
X93722000Y25646000D03*
%TD*%
D38*
%TO.C,*%
X121916833Y47800286D03*
%TD*%
D25*
%TO.C,R2*%
X27157500Y73156000D03*
X30082500Y73156000D03*
%TD*%
%TO.C,R7*%
X99982331Y83316000D03*
X102907331Y83316000D03*
%TD*%
D19*
%TO.C,C2*%
X85715295Y36045740D03*
X85715295Y37595740D03*
%TD*%
D25*
%TO.C,R4*%
X63307500Y73156000D03*
X66232500Y73156000D03*
%TD*%
D15*
%TO.C,R13*%
X116718733Y90566720D03*
X116718733Y87641720D03*
%TD*%
D25*
%TO.C,R8*%
X99982331Y80776000D03*
X102907331Y80776000D03*
%TD*%
D20*
%TO.C,J3*%
X99449000Y25646000D03*
D17*
X103329000Y25646000D03*
%TD*%
D25*
%TO.C,R6*%
X98277500Y73156000D03*
X101202500Y73156000D03*
%TD*%
%TO.C,R1*%
X10012500Y73156000D03*
X12937500Y73156000D03*
%TD*%
D44*
%TO.C,D4*%
X16850000Y33786000D03*
X12550000Y33786000D03*
%TD*%
D15*
%TO.C,*%
X111638733Y87641720D03*
%TD*%
D45*
%TO.C,D7*%
X20320000Y30316000D03*
X20320000Y26016000D03*
%TD*%
D33*
%TO.C,Q3*%
X46175000Y70611000D03*
D34*
X52475000Y68331000D03*
D33*
X46175000Y66051000D03*
%TD*%
D20*
%TO.C,J6*%
X128270000Y25646000D03*
D17*
X132150000Y25646000D03*
%TD*%
D20*
%TO.C,J1*%
X80235000Y25646000D03*
D17*
X84115000Y25646000D03*
%TD*%
%TO.C,K6*%
X105410000Y60636000D03*
D18*
X99360000Y58686000D03*
D17*
X99360000Y46486000D03*
X111410000Y46436000D03*
D18*
X111360000Y58686000D03*
%TD*%
%LPD*%
M02*
