%TF.GenerationSoftware,KiCad,Pcbnew,7.0.8*%
%TF.CreationDate,2023-11-04T16:43:43+02:00*%
%TF.ProjectId,sprinklers,73707269-6e6b-46c6-9572-732e6b696361,1.1.0*%
%TF.SameCoordinates,Original*%
%TF.FileFunction,Soldermask,Top*%
%TF.FilePolarity,Negative*%
%FSLAX46Y46*%
G04 Gerber Fmt 4.6, Leading zero omitted, Abs format (unit mm)*
G04 Created by KiCad (PCBNEW 7.0.8) date 2023-11-04 16:43:43*
%MOMM*%
%LPD*%
G01*
G04 APERTURE LIST*
G04 Aperture macros list*
%AMRoundRect*
0 Rectangle with rounded corners*
0 $1 Rounding radius*
0 $2 $3 $4 $5 $6 $7 $8 $9 X,Y pos of 4 corners*
0 Add a 4 corners polygon primitive as box body*
4,1,4,$2,$3,$4,$5,$6,$7,$8,$9,$2,$3,0*
0 Add four circle primitives for the rounded corners*
1,1,$1+$1,$2,$3*
1,1,$1+$1,$4,$5*
1,1,$1+$1,$6,$7*
1,1,$1+$1,$8,$9*
0 Add four rect primitives between the rounded corners*
20,1,$1+$1,$2,$3,$4,$5,0*
20,1,$1+$1,$4,$5,$6,$7,0*
20,1,$1+$1,$6,$7,$8,$9,0*
20,1,$1+$1,$8,$9,$2,$3,0*%
G04 Aperture macros list end*
%ADD10RoundRect,0.250000X-0.625000X0.312500X-0.625000X-0.312500X0.625000X-0.312500X0.625000X0.312500X0*%
%ADD11RoundRect,0.147500X-0.147500X-0.172500X0.147500X-0.172500X0.147500X0.172500X-0.147500X0.172500X0*%
%ADD12C,3.000000*%
%ADD13C,2.500000*%
%ADD14RoundRect,0.225000X0.250000X-0.225000X0.250000X0.225000X-0.250000X0.225000X-0.250000X-0.225000X0*%
%ADD15R,3.000000X3.000000*%
%ADD16RoundRect,0.250000X0.475000X-0.250000X0.475000X0.250000X-0.475000X0.250000X-0.475000X-0.250000X0*%
%ADD17C,1.440000*%
%ADD18O,1.700000X1.700000*%
%ADD19R,1.700000X1.700000*%
%ADD20RoundRect,0.250000X-0.312500X-0.625000X0.312500X-0.625000X0.312500X0.625000X-0.312500X0.625000X0*%
%ADD21R,2.000000X1.500000*%
%ADD22R,2.000000X3.800000*%
%ADD23R,1.600000X1.600000*%
%ADD24C,1.600000*%
%ADD25RoundRect,0.250000X-1.000000X-0.900000X1.000000X-0.900000X1.000000X0.900000X-1.000000X0.900000X0*%
%ADD26RoundRect,0.250000X-2.050000X-0.300000X2.050000X-0.300000X2.050000X0.300000X-2.050000X0.300000X0*%
%ADD27RoundRect,0.250002X-4.449998X-5.149998X4.449998X-5.149998X4.449998X5.149998X-4.449998X5.149998X0*%
%ADD28R,2.200000X1.200000*%
%ADD29R,6.400000X5.800000*%
%ADD30R,5.400000X2.900000*%
%ADD31RoundRect,0.250000X1.000000X0.650000X-1.000000X0.650000X-1.000000X-0.650000X1.000000X-0.650000X0*%
%ADD32R,1.000000X1.000000*%
%ADD33O,1.000000X1.000000*%
%ADD34RoundRect,0.250000X0.900000X-1.000000X0.900000X1.000000X-0.900000X1.000000X-0.900000X-1.000000X0*%
%ADD35R,0.900000X1.500000*%
%ADD36R,1.500000X0.900000*%
%ADD37C,0.600000*%
%ADD38R,3.800000X3.800000*%
%ADD39RoundRect,0.250000X1.000000X0.900000X-1.000000X0.900000X-1.000000X-0.900000X1.000000X-0.900000X0*%
%ADD40RoundRect,0.250000X-0.900000X1.000000X-0.900000X-1.000000X0.900000X-1.000000X0.900000X1.000000X0*%
G04 APERTURE END LIST*
D10*
%TO.C,R12*%
X114178733Y90566720D03*
X114178733Y87641720D03*
%TD*%
D11*
%TO.C,D1*%
X106050436Y78236000D03*
X107020436Y78236000D03*
%TD*%
D12*
%TO.C,K3*%
X52451000Y60636000D03*
D13*
X46401000Y58686000D03*
D12*
X46401000Y46486000D03*
X58451000Y46436000D03*
D13*
X58401000Y58686000D03*
%TD*%
D11*
%TO.C,D2*%
X106050436Y80776000D03*
X107020436Y80776000D03*
%TD*%
D12*
%TO.C,K4*%
X70104000Y60636000D03*
D13*
X64054000Y58686000D03*
D12*
X64054000Y46486000D03*
X76104000Y46436000D03*
D13*
X76054000Y58686000D03*
%TD*%
D12*
%TO.C,K2*%
X34798000Y60636000D03*
D13*
X28748000Y58686000D03*
D12*
X28748000Y46486000D03*
X40798000Y46436000D03*
D13*
X40748000Y58686000D03*
%TD*%
D14*
%TO.C,C4*%
X100330000Y37184884D03*
X100330000Y38734884D03*
%TD*%
D15*
%TO.C,AC24-IN1*%
X12062500Y25646000D03*
D12*
X15942500Y25646000D03*
%TD*%
D16*
%TO.C,C3*%
X97790000Y36354573D03*
X97790000Y38254573D03*
%TD*%
D17*
%TO.C,RV1*%
X107950000Y35056000D03*
X110490000Y37596000D03*
X113030000Y35056000D03*
%TD*%
D18*
%TO.C,5V 3V3 GND*%
X124460000Y41416797D03*
D19*
X124460000Y38876797D03*
X124460000Y36336797D03*
%TD*%
D20*
%TO.C,R3*%
X45527500Y73156000D03*
X48452500Y73156000D03*
%TD*%
D11*
%TO.C,D3*%
X106050436Y83316000D03*
X107020436Y83316000D03*
%TD*%
D18*
%TO.C,7  6  5  G*%
X129418733Y90181720D03*
X126878733Y90181720D03*
X124338733Y90181720D03*
X121798733Y90181720D03*
%TD*%
D21*
%TO.C,U3*%
X88900000Y37356000D03*
X88900000Y35056000D03*
D22*
X95200000Y35056000D03*
D21*
X88900000Y32756000D03*
%TD*%
D15*
%TO.C,J4*%
X109056000Y25646000D03*
D12*
X112936000Y25646000D03*
%TD*%
%TO.C,K5*%
X87757000Y60636000D03*
D13*
X81707000Y58686000D03*
D12*
X81707000Y46486000D03*
X93757000Y46436000D03*
D13*
X93707000Y58686000D03*
%TD*%
D23*
%TO.C,C5*%
X26670000Y24586000D03*
D24*
X26670000Y21086000D03*
%TD*%
D25*
%TO.C,D6*%
X12550000Y37596000D03*
X16850000Y37596000D03*
%TD*%
D23*
%TO.C,C6*%
X34290000Y32046000D03*
D24*
X34290000Y35546000D03*
%TD*%
D18*
%TO.C,26 27 28 29*%
X116128792Y62167496D03*
X116128792Y59627496D03*
X116128792Y57087496D03*
X116128792Y54547496D03*
%TD*%
D12*
%TO.C,K1*%
X17145000Y60636000D03*
D13*
X11095000Y58686000D03*
D12*
X11095000Y46486000D03*
X23145000Y46436000D03*
D13*
X23095000Y58686000D03*
%TD*%
D26*
%TO.C,U1*%
X45345000Y30601000D03*
X45345000Y28901000D03*
X45345000Y27201000D03*
D27*
X54495000Y27201000D03*
D26*
X45345000Y25501000D03*
X45345000Y23801000D03*
%TD*%
D28*
%TO.C,Q1*%
X10545000Y70237105D03*
D29*
X16845000Y67957105D03*
D28*
X10545000Y65677105D03*
%TD*%
D30*
%TO.C,L1*%
X67905560Y23382438D03*
X67905560Y33282438D03*
%TD*%
D28*
%TO.C,Q2*%
X27690000Y70356000D03*
D29*
X33990000Y68076000D03*
D28*
X27690000Y65796000D03*
%TD*%
D20*
%TO.C,R9*%
X99982331Y78236000D03*
X102907331Y78236000D03*
%TD*%
D15*
%TO.C,J5*%
X118663000Y25646000D03*
D12*
X122543000Y25646000D03*
%TD*%
D31*
%TO.C,D5*%
X36290000Y25696000D03*
X32290000Y25696000D03*
%TD*%
D15*
%TO.C,SENSOR1*%
X133786501Y34065998D03*
D12*
X133786501Y37945998D03*
%TD*%
D32*
%TO.C,EXT/PROG*%
X121916833Y50340286D03*
D33*
X123186833Y50340286D03*
X121916833Y49070286D03*
X123186833Y49070286D03*
X121916833Y47800286D03*
X123186833Y47800286D03*
%TD*%
D28*
%TO.C,Q5*%
X81157000Y70611000D03*
D29*
X87457000Y68331000D03*
D28*
X81157000Y66051000D03*
%TD*%
D10*
%TO.C,R11*%
X111638733Y90566720D03*
X111638733Y87641720D03*
%TD*%
D28*
%TO.C,Q4*%
X63550000Y70356000D03*
D29*
X69850000Y68076000D03*
D28*
X63550000Y65796000D03*
%TD*%
D20*
%TO.C,R5*%
X80624500Y73156000D03*
X83549500Y73156000D03*
%TD*%
D28*
%TO.C,Q6*%
X98810000Y70616000D03*
D29*
X105110000Y68336000D03*
D28*
X98810000Y66056000D03*
%TD*%
D34*
%TO.C,D8*%
X25400000Y29096000D03*
X25400000Y33396000D03*
%TD*%
D16*
%TO.C,C1*%
X83806928Y36607793D03*
X83806928Y38507793D03*
%TD*%
D35*
%TO.C,U2*%
X132080000Y83036000D03*
X130810000Y83036000D03*
X129540000Y83036000D03*
X128270000Y83036000D03*
X127000000Y83036000D03*
X125730000Y83036000D03*
X124460000Y83036000D03*
X123190000Y83036000D03*
X121920000Y83036000D03*
X120650000Y83036000D03*
X119380000Y83036000D03*
X118110000Y83036000D03*
X116840000Y83036000D03*
X115570000Y83036000D03*
D36*
X114320000Y79996000D03*
X114320000Y78726000D03*
X114320000Y77456000D03*
X114320000Y76186000D03*
X114320000Y74916000D03*
X114320000Y73646000D03*
X114320000Y72376000D03*
X114320000Y71106000D03*
X114320000Y69836000D03*
X114320000Y68566000D03*
D35*
X115570000Y65536000D03*
X116840000Y65536000D03*
X118110000Y65536000D03*
X119380000Y65536000D03*
X120650000Y65536000D03*
X121920000Y65536000D03*
X123190000Y65536000D03*
X124460000Y65536000D03*
X125730000Y65536000D03*
X127000000Y65536000D03*
X128270000Y65536000D03*
X129540000Y65536000D03*
X130810000Y65536000D03*
X132080000Y65536000D03*
D37*
X125060000Y77186000D03*
X123660000Y77186000D03*
X125760000Y76486000D03*
X124360000Y76486000D03*
X122960000Y76486000D03*
X125060000Y75811000D03*
X123660000Y75811000D03*
D38*
X124360000Y75786000D03*
D37*
X125760000Y75086000D03*
X124360000Y75086000D03*
X122960000Y75086000D03*
X125060000Y74386000D03*
X123660000Y74386000D03*
%TD*%
D15*
%TO.C,J2*%
X89842000Y25646000D03*
D12*
X93722000Y25646000D03*
%TD*%
D33*
%TO.C,*%
X121916833Y47800286D03*
%TD*%
D20*
%TO.C,R2*%
X27157500Y73156000D03*
X30082500Y73156000D03*
%TD*%
%TO.C,R7*%
X99982331Y83316000D03*
X102907331Y83316000D03*
%TD*%
D14*
%TO.C,C2*%
X85715295Y36045740D03*
X85715295Y37595740D03*
%TD*%
D20*
%TO.C,R4*%
X63307500Y73156000D03*
X66232500Y73156000D03*
%TD*%
D10*
%TO.C,R13*%
X116718733Y90566720D03*
X116718733Y87641720D03*
%TD*%
D20*
%TO.C,R8*%
X99982331Y80776000D03*
X102907331Y80776000D03*
%TD*%
D15*
%TO.C,J3*%
X99449000Y25646000D03*
D12*
X103329000Y25646000D03*
%TD*%
D20*
%TO.C,R6*%
X98277500Y73156000D03*
X101202500Y73156000D03*
%TD*%
%TO.C,R1*%
X10012500Y73156000D03*
X12937500Y73156000D03*
%TD*%
D39*
%TO.C,D4*%
X16850000Y33786000D03*
X12550000Y33786000D03*
%TD*%
D10*
%TO.C,*%
X111638733Y87641720D03*
%TD*%
D40*
%TO.C,D7*%
X20320000Y30316000D03*
X20320000Y26016000D03*
%TD*%
D28*
%TO.C,Q3*%
X46175000Y70611000D03*
D29*
X52475000Y68331000D03*
D28*
X46175000Y66051000D03*
%TD*%
D15*
%TO.C,J6*%
X128270000Y25646000D03*
D12*
X132150000Y25646000D03*
%TD*%
D15*
%TO.C,J1*%
X80235000Y25646000D03*
D12*
X84115000Y25646000D03*
%TD*%
%TO.C,K6*%
X105410000Y60636000D03*
D13*
X99360000Y58686000D03*
D12*
X99360000Y46486000D03*
X111410000Y46436000D03*
D13*
X111360000Y58686000D03*
%TD*%
M02*
