%TF.GenerationSoftware,KiCad,Pcbnew,7.0.8*%
%TF.CreationDate,2023-11-04T16:43:43+02:00*%
%TF.ProjectId,sprinklers,73707269-6e6b-46c6-9572-732e6b696361,1.1.0*%
%TF.SameCoordinates,Original*%
%TF.FileFunction,Paste,Top*%
%TF.FilePolarity,Positive*%
%FSLAX46Y46*%
G04 Gerber Fmt 4.6, Leading zero omitted, Abs format (unit mm)*
G04 Created by KiCad (PCBNEW 7.0.8) date 2023-11-04 16:43:43*
%MOMM*%
%LPD*%
G01*
G04 APERTURE LIST*
G04 Aperture macros list*
%AMRoundRect*
0 Rectangle with rounded corners*
0 $1 Rounding radius*
0 $2 $3 $4 $5 $6 $7 $8 $9 X,Y pos of 4 corners*
0 Add a 4 corners polygon primitive as box body*
4,1,4,$2,$3,$4,$5,$6,$7,$8,$9,$2,$3,0*
0 Add four circle primitives for the rounded corners*
1,1,$1+$1,$2,$3*
1,1,$1+$1,$4,$5*
1,1,$1+$1,$6,$7*
1,1,$1+$1,$8,$9*
0 Add four rect primitives between the rounded corners*
20,1,$1+$1,$2,$3,$4,$5,0*
20,1,$1+$1,$4,$5,$6,$7,0*
20,1,$1+$1,$6,$7,$8,$9,0*
20,1,$1+$1,$8,$9,$2,$3,0*%
G04 Aperture macros list end*
%ADD10RoundRect,0.250000X-0.625000X0.312500X-0.625000X-0.312500X0.625000X-0.312500X0.625000X0.312500X0*%
%ADD11RoundRect,0.147500X-0.147500X-0.172500X0.147500X-0.172500X0.147500X0.172500X-0.147500X0.172500X0*%
%ADD12RoundRect,0.225000X0.250000X-0.225000X0.250000X0.225000X-0.250000X0.225000X-0.250000X-0.225000X0*%
%ADD13RoundRect,0.250000X0.475000X-0.250000X0.475000X0.250000X-0.475000X0.250000X-0.475000X-0.250000X0*%
%ADD14RoundRect,0.250000X-0.312500X-0.625000X0.312500X-0.625000X0.312500X0.625000X-0.312500X0.625000X0*%
%ADD15R,2.000000X1.500000*%
%ADD16R,2.000000X3.800000*%
%ADD17RoundRect,0.250000X-1.000000X-0.900000X1.000000X-0.900000X1.000000X0.900000X-1.000000X0.900000X0*%
%ADD18RoundRect,0.250000X-2.050000X-0.300000X2.050000X-0.300000X2.050000X0.300000X-2.050000X0.300000X0*%
%ADD19RoundRect,0.250000X-2.025000X-2.375000X2.025000X-2.375000X2.025000X2.375000X-2.025000X2.375000X0*%
%ADD20R,3.050000X2.750000*%
%ADD21R,2.200000X1.200000*%
%ADD22R,5.400000X2.900000*%
%ADD23RoundRect,0.250000X1.000000X0.650000X-1.000000X0.650000X-1.000000X-0.650000X1.000000X-0.650000X0*%
%ADD24RoundRect,0.250000X0.900000X-1.000000X0.900000X1.000000X-0.900000X1.000000X-0.900000X-1.000000X0*%
%ADD25R,0.900000X1.500000*%
%ADD26R,1.500000X0.900000*%
%ADD27R,0.900000X0.900000*%
%ADD28RoundRect,0.250000X1.000000X0.900000X-1.000000X0.900000X-1.000000X-0.900000X1.000000X-0.900000X0*%
%ADD29RoundRect,0.250000X-0.900000X1.000000X-0.900000X-1.000000X0.900000X-1.000000X0.900000X1.000000X0*%
G04 APERTURE END LIST*
D10*
%TO.C,R12*%
X114178733Y90566720D03*
X114178733Y87641720D03*
%TD*%
D11*
%TO.C,D1*%
X106050436Y78236000D03*
X107020436Y78236000D03*
%TD*%
%TO.C,D2*%
X106050436Y80776000D03*
X107020436Y80776000D03*
%TD*%
D12*
%TO.C,C4*%
X100330000Y37184884D03*
X100330000Y38734884D03*
%TD*%
D13*
%TO.C,C3*%
X97790000Y36354573D03*
X97790000Y38254573D03*
%TD*%
D14*
%TO.C,R3*%
X45527500Y73156000D03*
X48452500Y73156000D03*
%TD*%
D11*
%TO.C,D3*%
X106050436Y83316000D03*
X107020436Y83316000D03*
%TD*%
D15*
%TO.C,U3*%
X88900000Y37356000D03*
X88900000Y35056000D03*
D16*
X95200000Y35056000D03*
D15*
X88900000Y32756000D03*
%TD*%
D17*
%TO.C,D6*%
X12550000Y37596000D03*
X16850000Y37596000D03*
%TD*%
D18*
%TO.C,U1*%
X45345000Y30601000D03*
X45345000Y28901000D03*
X45345000Y27201000D03*
D19*
X52070000Y29976000D03*
X52070000Y24426000D03*
X56920000Y29976000D03*
X56920000Y24426000D03*
D18*
X45345000Y25501000D03*
X45345000Y23801000D03*
%TD*%
D20*
%TO.C,Q1*%
X15170000Y69482105D03*
X15170000Y66432105D03*
X18520000Y69482105D03*
X18520000Y66432105D03*
D21*
X10545000Y70237105D03*
X10545000Y65677105D03*
%TD*%
D22*
%TO.C,L1*%
X67905560Y23382438D03*
X67905560Y33282438D03*
%TD*%
D20*
%TO.C,Q2*%
X32315000Y69601000D03*
X32315000Y66551000D03*
X35665000Y69601000D03*
X35665000Y66551000D03*
D21*
X27690000Y70356000D03*
X27690000Y65796000D03*
%TD*%
D14*
%TO.C,R9*%
X99982331Y78236000D03*
X102907331Y78236000D03*
%TD*%
D23*
%TO.C,D5*%
X36290000Y25696000D03*
X32290000Y25696000D03*
%TD*%
D20*
%TO.C,Q5*%
X85782000Y69856000D03*
X85782000Y66806000D03*
X89132000Y69856000D03*
X89132000Y66806000D03*
D21*
X81157000Y70611000D03*
X81157000Y66051000D03*
%TD*%
D10*
%TO.C,R11*%
X111638733Y90566720D03*
X111638733Y87641720D03*
%TD*%
D20*
%TO.C,Q4*%
X68175000Y69601000D03*
X68175000Y66551000D03*
X71525000Y69601000D03*
X71525000Y66551000D03*
D21*
X63550000Y70356000D03*
X63550000Y65796000D03*
%TD*%
D14*
%TO.C,R5*%
X80624500Y73156000D03*
X83549500Y73156000D03*
%TD*%
D20*
%TO.C,Q6*%
X103435000Y69861000D03*
X103435000Y66811000D03*
X106785000Y69861000D03*
X106785000Y66811000D03*
D21*
X98810000Y70616000D03*
X98810000Y66056000D03*
%TD*%
D24*
%TO.C,D8*%
X25400000Y29096000D03*
X25400000Y33396000D03*
%TD*%
D13*
%TO.C,C1*%
X83806928Y36607793D03*
X83806928Y38507793D03*
%TD*%
D25*
%TO.C,U2*%
X132080000Y83036000D03*
X130810000Y83036000D03*
X129540000Y83036000D03*
X128270000Y83036000D03*
X127000000Y83036000D03*
X125730000Y83036000D03*
X124460000Y83036000D03*
X123190000Y83036000D03*
X121920000Y83036000D03*
X120650000Y83036000D03*
X119380000Y83036000D03*
X118110000Y83036000D03*
X116840000Y83036000D03*
X115570000Y83036000D03*
D26*
X114320000Y79996000D03*
X114320000Y78726000D03*
X114320000Y77456000D03*
X114320000Y76186000D03*
X114320000Y74916000D03*
X114320000Y73646000D03*
X114320000Y72376000D03*
X114320000Y71106000D03*
X114320000Y69836000D03*
X114320000Y68566000D03*
D25*
X115570000Y65536000D03*
X116840000Y65536000D03*
X118110000Y65536000D03*
X119380000Y65536000D03*
X120650000Y65536000D03*
X121920000Y65536000D03*
X123190000Y65536000D03*
X124460000Y65536000D03*
X125730000Y65536000D03*
X127000000Y65536000D03*
X128270000Y65536000D03*
X129540000Y65536000D03*
X130810000Y65536000D03*
X132080000Y65536000D03*
D27*
X125760000Y77186000D03*
X124360000Y77186000D03*
X122960000Y77186000D03*
X125760000Y75786000D03*
X124360000Y75786000D03*
X122960000Y75786000D03*
X125760000Y74386000D03*
X124360000Y74386000D03*
X122960000Y74386000D03*
%TD*%
D14*
%TO.C,R2*%
X27157500Y73156000D03*
X30082500Y73156000D03*
%TD*%
%TO.C,R7*%
X99982331Y83316000D03*
X102907331Y83316000D03*
%TD*%
D12*
%TO.C,C2*%
X85715295Y36045740D03*
X85715295Y37595740D03*
%TD*%
D14*
%TO.C,R4*%
X63307500Y73156000D03*
X66232500Y73156000D03*
%TD*%
D10*
%TO.C,R13*%
X116718733Y90566720D03*
X116718733Y87641720D03*
%TD*%
D14*
%TO.C,R8*%
X99982331Y80776000D03*
X102907331Y80776000D03*
%TD*%
%TO.C,R6*%
X98277500Y73156000D03*
X101202500Y73156000D03*
%TD*%
%TO.C,R1*%
X10012500Y73156000D03*
X12937500Y73156000D03*
%TD*%
D28*
%TO.C,D4*%
X16850000Y33786000D03*
X12550000Y33786000D03*
%TD*%
D10*
%TO.C,*%
X111638733Y87641720D03*
%TD*%
D29*
%TO.C,D7*%
X20320000Y30316000D03*
X20320000Y26016000D03*
%TD*%
D20*
%TO.C,Q3*%
X50800000Y69856000D03*
X50800000Y66806000D03*
X54150000Y69856000D03*
X54150000Y66806000D03*
D21*
X46175000Y70611000D03*
X46175000Y66051000D03*
%TD*%
M02*
