%TF.GenerationSoftware,KiCad,Pcbnew,7.0.8*%
%TF.CreationDate,2023-10-11T12:41:40+03:00*%
%TF.ProjectId,sprinklers,73707269-6e6b-46c6-9572-732e6b696361,rev?*%
%TF.SameCoordinates,Original*%
%TF.FileFunction,Soldermask,Top*%
%TF.FilePolarity,Negative*%
%FSLAX46Y46*%
G04 Gerber Fmt 4.6, Leading zero omitted, Abs format (unit mm)*
G04 Created by KiCad (PCBNEW 7.0.8) date 2023-10-11 12:41:40*
%MOMM*%
%LPD*%
G01*
G04 APERTURE LIST*
G04 Aperture macros list*
%AMRoundRect*
0 Rectangle with rounded corners*
0 $1 Rounding radius*
0 $2 $3 $4 $5 $6 $7 $8 $9 X,Y pos of 4 corners*
0 Add a 4 corners polygon primitive as box body*
4,1,4,$2,$3,$4,$5,$6,$7,$8,$9,$2,$3,0*
0 Add four circle primitives for the rounded corners*
1,1,$1+$1,$2,$3*
1,1,$1+$1,$4,$5*
1,1,$1+$1,$6,$7*
1,1,$1+$1,$8,$9*
0 Add four rect primitives between the rounded corners*
20,1,$1+$1,$2,$3,$4,$5,0*
20,1,$1+$1,$4,$5,$6,$7,0*
20,1,$1+$1,$6,$7,$8,$9,0*
20,1,$1+$1,$8,$9,$2,$3,0*%
G04 Aperture macros list end*
%ADD10R,2.200000X1.200000*%
%ADD11R,6.400000X5.800000*%
%ADD12R,2.000000X1.500000*%
%ADD13R,2.000000X3.800000*%
%ADD14RoundRect,0.140000X-0.140000X-0.170000X0.140000X-0.170000X0.140000X0.170000X-0.140000X0.170000X0*%
%ADD15C,3.000000*%
%ADD16C,2.500000*%
%ADD17RoundRect,0.147500X-0.147500X-0.172500X0.147500X-0.172500X0.147500X0.172500X-0.147500X0.172500X0*%
%ADD18R,0.900000X1.500000*%
%ADD19R,1.500000X0.900000*%
%ADD20C,0.600000*%
%ADD21R,3.800000X3.800000*%
%ADD22RoundRect,0.250000X-0.312500X-0.625000X0.312500X-0.625000X0.312500X0.625000X-0.312500X0.625000X0*%
G04 APERTURE END LIST*
D10*
%TO.C,Q6*%
X51680000Y-164090000D03*
X51680000Y-168650000D03*
D11*
X57980000Y-166370000D03*
%TD*%
D10*
%TO.C,Q5*%
X51020000Y-156465000D03*
X51020000Y-161025000D03*
D11*
X57320000Y-158745000D03*
%TD*%
D10*
%TO.C,Q4*%
X51020000Y-150015000D03*
X51020000Y-154575000D03*
D11*
X57320000Y-152295000D03*
%TD*%
D10*
%TO.C,Q3*%
X82195000Y-140215000D03*
X82195000Y-144775000D03*
D11*
X88495000Y-142495000D03*
%TD*%
D10*
%TO.C,Q2*%
X52290000Y-42075000D03*
X52290000Y-46635000D03*
D11*
X58590000Y-44355000D03*
%TD*%
D10*
%TO.C,Q1*%
X98705000Y-43185000D03*
X98705000Y-47745000D03*
D11*
X105005000Y-45465000D03*
%TD*%
D10*
%TO.C,REF\u002A\u002A*%
X80890000Y-22105000D03*
X80890000Y-26665000D03*
D11*
X87190000Y-24385000D03*
%TD*%
D12*
%TO.C,U3*%
X69240000Y-59930000D03*
D13*
X75540000Y-62230000D03*
D12*
X69240000Y-62230000D03*
X69240000Y-64530000D03*
%TD*%
D14*
%TO.C,C1*%
X108977500Y-64770000D03*
X109937500Y-64770000D03*
%TD*%
D15*
%TO.C,K4*%
X31720000Y-146505000D03*
D16*
X33670000Y-152555000D03*
D15*
X45870000Y-152555000D03*
X45920000Y-140505000D03*
D16*
X33670000Y-140555000D03*
%TD*%
D17*
%TO.C,D3*%
X109227500Y-80370000D03*
X110197500Y-80370000D03*
%TD*%
D14*
%TO.C,C4*%
X123980000Y-67310000D03*
X124940000Y-67310000D03*
%TD*%
D18*
%TO.C,U2*%
X245880000Y-54110000D03*
X244610000Y-54110000D03*
X243340000Y-54110000D03*
X242070000Y-54110000D03*
X240800000Y-54110000D03*
X239530000Y-54110000D03*
X238260000Y-54110000D03*
X236990000Y-54110000D03*
X235720000Y-54110000D03*
X234450000Y-54110000D03*
X233180000Y-54110000D03*
X231910000Y-54110000D03*
X230640000Y-54110000D03*
X229370000Y-54110000D03*
D19*
X228120000Y-57150000D03*
X228120000Y-58420000D03*
X228120000Y-59690000D03*
X228120000Y-60960000D03*
X228120000Y-62230000D03*
X228120000Y-63500000D03*
X228120000Y-64770000D03*
X228120000Y-66040000D03*
X228120000Y-67310000D03*
X228120000Y-68580000D03*
D18*
X229370000Y-71610000D03*
X230640000Y-71610000D03*
X231910000Y-71610000D03*
X233180000Y-71610000D03*
X234450000Y-71610000D03*
X235720000Y-71610000D03*
X236990000Y-71610000D03*
X238260000Y-71610000D03*
X239530000Y-71610000D03*
X240800000Y-71610000D03*
X242070000Y-71610000D03*
X243340000Y-71610000D03*
X244610000Y-71610000D03*
X245880000Y-71610000D03*
D20*
X238860000Y-59960000D03*
X237460000Y-59960000D03*
X239560000Y-60660000D03*
X238160000Y-60660000D03*
X236760000Y-60660000D03*
X238860000Y-61335000D03*
X237460000Y-61335000D03*
D21*
X238160000Y-61360000D03*
D20*
X239560000Y-62060000D03*
X238160000Y-62060000D03*
X236760000Y-62060000D03*
X238860000Y-62760000D03*
X237460000Y-62760000D03*
%TD*%
D15*
%TO.C,K1*%
X29030000Y-26970000D03*
D16*
X30980000Y-33020000D03*
D15*
X43180000Y-33020000D03*
X43230000Y-20970000D03*
D16*
X30980000Y-21020000D03*
%TD*%
D17*
%TO.C,D2*%
X109227500Y-78380000D03*
X110197500Y-78380000D03*
%TD*%
D22*
%TO.C,R3*%
X103755000Y-75740000D03*
X106680000Y-75740000D03*
%TD*%
D14*
%TO.C,C3*%
X120650000Y-63500000D03*
X119690000Y-63500000D03*
%TD*%
D22*
%TO.C,R8*%
X103755000Y-85610000D03*
X106680000Y-85610000D03*
%TD*%
D15*
%TO.C,K5*%
X31720000Y-163455000D03*
D16*
X33670000Y-169505000D03*
D15*
X45870000Y-169505000D03*
X45920000Y-157455000D03*
D16*
X33670000Y-157505000D03*
%TD*%
D22*
%TO.C,R1*%
X103755000Y-69160000D03*
X106680000Y-69160000D03*
%TD*%
D17*
%TO.C,D1*%
X109227500Y-76390000D03*
X110197500Y-76390000D03*
%TD*%
D22*
%TO.C,R2*%
X103755000Y-72450000D03*
X106680000Y-72450000D03*
%TD*%
%TO.C,R7*%
X103755000Y-82320000D03*
X106680000Y-82320000D03*
%TD*%
%TO.C,R9*%
X103755000Y-88900000D03*
X106680000Y-88900000D03*
%TD*%
%TO.C,R6*%
X103755000Y-79030000D03*
X106680000Y-79030000D03*
%TD*%
D15*
%TO.C,K6*%
X31720000Y-180405000D03*
D16*
X33670000Y-186455000D03*
D15*
X45870000Y-186455000D03*
X45920000Y-174405000D03*
D16*
X33670000Y-174455000D03*
%TD*%
D15*
%TO.C,K2*%
X32140000Y-109220000D03*
D16*
X34090000Y-115270000D03*
D15*
X46290000Y-115270000D03*
X46340000Y-103220000D03*
D16*
X34090000Y-103270000D03*
%TD*%
D22*
%TO.C,R5*%
X64577500Y-49530000D03*
X67502500Y-49530000D03*
%TD*%
D15*
%TO.C,K3*%
X31720000Y-129555000D03*
D16*
X33670000Y-135605000D03*
D15*
X45870000Y-135605000D03*
X45920000Y-123555000D03*
D16*
X33670000Y-123605000D03*
%TD*%
D22*
%TO.C,R4*%
X99945000Y-22860000D03*
X102870000Y-22860000D03*
%TD*%
D14*
%TO.C,C2*%
X113820000Y-63500000D03*
X114780000Y-63500000D03*
%TD*%
M02*
