%TF.GenerationSoftware,KiCad,Pcbnew,7.0.8*%
%TF.CreationDate,2023-10-12T20:46:22+03:00*%
%TF.ProjectId,sprinklers,73707269-6e6b-46c6-9572-732e6b696361,1.0.5*%
%TF.SameCoordinates,Original*%
%TF.FileFunction,Copper,L1,Top*%
%TF.FilePolarity,Positive*%
%FSLAX46Y46*%
G04 Gerber Fmt 4.6, Leading zero omitted, Abs format (unit mm)*
G04 Created by KiCad (PCBNEW 7.0.8) date 2023-10-12 20:46:22*
%MOMM*%
%LPD*%
G01*
G04 APERTURE LIST*
G04 Aperture macros list*
%AMRoundRect*
0 Rectangle with rounded corners*
0 $1 Rounding radius*
0 $2 $3 $4 $5 $6 $7 $8 $9 X,Y pos of 4 corners*
0 Add a 4 corners polygon primitive as box body*
4,1,4,$2,$3,$4,$5,$6,$7,$8,$9,$2,$3,0*
0 Add four circle primitives for the rounded corners*
1,1,$1+$1,$2,$3*
1,1,$1+$1,$4,$5*
1,1,$1+$1,$6,$7*
1,1,$1+$1,$8,$9*
0 Add four rect primitives between the rounded corners*
20,1,$1+$1,$2,$3,$4,$5,0*
20,1,$1+$1,$4,$5,$6,$7,0*
20,1,$1+$1,$6,$7,$8,$9,0*
20,1,$1+$1,$8,$9,$2,$3,0*%
G04 Aperture macros list end*
%ADD10C,0.300000*%
%TA.AperFunction,NonConductor*%
%ADD11C,0.300000*%
%TD*%
%TA.AperFunction,ComponentPad*%
%ADD12C,3.000000*%
%TD*%
%TA.AperFunction,ComponentPad*%
%ADD13C,2.500000*%
%TD*%
%TA.AperFunction,SMDPad,CuDef*%
%ADD14R,2.200000X1.200000*%
%TD*%
%TA.AperFunction,SMDPad,CuDef*%
%ADD15R,6.400000X5.800000*%
%TD*%
%TA.AperFunction,SMDPad,CuDef*%
%ADD16RoundRect,0.147500X-0.147500X-0.172500X0.147500X-0.172500X0.147500X0.172500X-0.147500X0.172500X0*%
%TD*%
%TA.AperFunction,ComponentPad*%
%ADD17R,1.700000X1.700000*%
%TD*%
%TA.AperFunction,ComponentPad*%
%ADD18O,1.700000X1.700000*%
%TD*%
%TA.AperFunction,BGAPad,CuDef*%
%ADD19O,1.700000X1.700000*%
%TD*%
%TA.AperFunction,SMDPad,CuDef*%
%ADD20RoundRect,0.140000X0.170000X-0.140000X0.170000X0.140000X-0.170000X0.140000X-0.170000X-0.140000X0*%
%TD*%
%TA.AperFunction,SMDPad,CuDef*%
%ADD21R,0.900000X1.500000*%
%TD*%
%TA.AperFunction,SMDPad,CuDef*%
%ADD22R,1.500000X0.900000*%
%TD*%
%TA.AperFunction,SMDPad,CuDef*%
%ADD23R,0.900000X0.900000*%
%TD*%
%TA.AperFunction,HeatsinkPad*%
%ADD24C,0.600000*%
%TD*%
%TA.AperFunction,SMDPad,CuDef*%
%ADD25R,3.800000X3.800000*%
%TD*%
%TA.AperFunction,SMDPad,CuDef*%
%ADD26RoundRect,0.250000X-2.050000X-0.300000X2.050000X-0.300000X2.050000X0.300000X-2.050000X0.300000X0*%
%TD*%
%TA.AperFunction,SMDPad,CuDef*%
%ADD27RoundRect,0.250000X-2.025000X-2.375000X2.025000X-2.375000X2.025000X2.375000X-2.025000X2.375000X0*%
%TD*%
%TA.AperFunction,SMDPad,CuDef*%
%ADD28RoundRect,0.250002X-4.449998X-5.149998X4.449998X-5.149998X4.449998X5.149998X-4.449998X5.149998X0*%
%TD*%
%TA.AperFunction,ComponentPad*%
%ADD29R,1.600000X1.600000*%
%TD*%
%TA.AperFunction,ComponentPad*%
%ADD30C,1.600000*%
%TD*%
%TA.AperFunction,ComponentPad*%
%ADD31R,3.000000X3.000000*%
%TD*%
%TA.AperFunction,SMDPad,CuDef*%
%ADD32RoundRect,0.250000X-0.312500X-0.625000X0.312500X-0.625000X0.312500X0.625000X-0.312500X0.625000X0*%
%TD*%
%TA.AperFunction,SMDPad,CuDef*%
%ADD33R,2.000000X1.500000*%
%TD*%
%TA.AperFunction,SMDPad,CuDef*%
%ADD34R,2.000000X3.800000*%
%TD*%
%TA.AperFunction,SMDPad,CuDef*%
%ADD35RoundRect,0.250000X1.000000X0.650000X-1.000000X0.650000X-1.000000X-0.650000X1.000000X-0.650000X0*%
%TD*%
%TA.AperFunction,ComponentPad*%
%ADD36R,1.000000X1.000000*%
%TD*%
%TA.AperFunction,ComponentPad*%
%ADD37O,1.000000X1.000000*%
%TD*%
%TA.AperFunction,SMDPad,CuDef*%
%ADD38R,5.400000X2.900000*%
%TD*%
%TA.AperFunction,ViaPad*%
%ADD39C,0.800000*%
%TD*%
%TA.AperFunction,Conductor*%
%ADD40C,0.500000*%
%TD*%
%TA.AperFunction,Conductor*%
%ADD41C,0.250000*%
%TD*%
%TA.AperFunction,Conductor*%
%ADD42C,0.000000*%
%TD*%
G04 APERTURE END LIST*
D10*
D11*
X33090225Y10517743D02*
X32947368Y10589172D01*
X32947368Y10589172D02*
X32733082Y10589172D01*
X32733082Y10589172D02*
X32518796Y10517743D01*
X32518796Y10517743D02*
X32375939Y10374886D01*
X32375939Y10374886D02*
X32304510Y10232029D01*
X32304510Y10232029D02*
X32233082Y9946315D01*
X32233082Y9946315D02*
X32233082Y9732029D01*
X32233082Y9732029D02*
X32304510Y9446315D01*
X32304510Y9446315D02*
X32375939Y9303458D01*
X32375939Y9303458D02*
X32518796Y9160600D01*
X32518796Y9160600D02*
X32733082Y9089172D01*
X32733082Y9089172D02*
X32875939Y9089172D01*
X32875939Y9089172D02*
X33090225Y9160600D01*
X33090225Y9160600D02*
X33161653Y9232029D01*
X33161653Y9232029D02*
X33161653Y9732029D01*
X33161653Y9732029D02*
X32875939Y9732029D01*
X34661653Y9089172D02*
X34161653Y9803458D01*
X33804510Y9089172D02*
X33804510Y10589172D01*
X33804510Y10589172D02*
X34375939Y10589172D01*
X34375939Y10589172D02*
X34518796Y10517743D01*
X34518796Y10517743D02*
X34590225Y10446315D01*
X34590225Y10446315D02*
X34661653Y10303458D01*
X34661653Y10303458D02*
X34661653Y10089172D01*
X34661653Y10089172D02*
X34590225Y9946315D01*
X34590225Y9946315D02*
X34518796Y9874886D01*
X34518796Y9874886D02*
X34375939Y9803458D01*
X34375939Y9803458D02*
X33804510Y9803458D01*
X35304510Y9089172D02*
X35304510Y10589172D01*
X35304510Y10589172D02*
X35661653Y10589172D01*
X35661653Y10589172D02*
X35875939Y10517743D01*
X35875939Y10517743D02*
X36018796Y10374886D01*
X36018796Y10374886D02*
X36090225Y10232029D01*
X36090225Y10232029D02*
X36161653Y9946315D01*
X36161653Y9946315D02*
X36161653Y9732029D01*
X36161653Y9732029D02*
X36090225Y9446315D01*
X36090225Y9446315D02*
X36018796Y9303458D01*
X36018796Y9303458D02*
X35875939Y9160600D01*
X35875939Y9160600D02*
X35661653Y9089172D01*
X35661653Y9089172D02*
X35304510Y9089172D01*
X37875939Y9517743D02*
X38590225Y9517743D01*
X37733082Y9089172D02*
X38233082Y10589172D01*
X38233082Y10589172D02*
X38733082Y9089172D01*
X40090224Y9232029D02*
X40018796Y9160600D01*
X40018796Y9160600D02*
X39804510Y9089172D01*
X39804510Y9089172D02*
X39661653Y9089172D01*
X39661653Y9089172D02*
X39447367Y9160600D01*
X39447367Y9160600D02*
X39304510Y9303458D01*
X39304510Y9303458D02*
X39233081Y9446315D01*
X39233081Y9446315D02*
X39161653Y9732029D01*
X39161653Y9732029D02*
X39161653Y9946315D01*
X39161653Y9946315D02*
X39233081Y10232029D01*
X39233081Y10232029D02*
X39304510Y10374886D01*
X39304510Y10374886D02*
X39447367Y10517743D01*
X39447367Y10517743D02*
X39661653Y10589172D01*
X39661653Y10589172D02*
X39804510Y10589172D01*
X39804510Y10589172D02*
X40018796Y10517743D01*
X40018796Y10517743D02*
X40090224Y10446315D01*
X41733081Y10089172D02*
X42090224Y9089172D01*
X42090224Y9089172D02*
X42447367Y10089172D01*
X42947367Y9160600D02*
X43090224Y9089172D01*
X43090224Y9089172D02*
X43375938Y9089172D01*
X43375938Y9089172D02*
X43518795Y9160600D01*
X43518795Y9160600D02*
X43590224Y9303458D01*
X43590224Y9303458D02*
X43590224Y9374886D01*
X43590224Y9374886D02*
X43518795Y9517743D01*
X43518795Y9517743D02*
X43375938Y9589172D01*
X43375938Y9589172D02*
X43161653Y9589172D01*
X43161653Y9589172D02*
X43018795Y9660600D01*
X43018795Y9660600D02*
X42947367Y9803458D01*
X42947367Y9803458D02*
X42947367Y9874886D01*
X42947367Y9874886D02*
X43018795Y10017743D01*
X43018795Y10017743D02*
X43161653Y10089172D01*
X43161653Y10089172D02*
X43375938Y10089172D01*
X43375938Y10089172D02*
X43518795Y10017743D01*
X45375938Y9089172D02*
X45375938Y10589172D01*
X45375938Y10589172D02*
X45733081Y10589172D01*
X45733081Y10589172D02*
X45947367Y10517743D01*
X45947367Y10517743D02*
X46090224Y10374886D01*
X46090224Y10374886D02*
X46161653Y10232029D01*
X46161653Y10232029D02*
X46233081Y9946315D01*
X46233081Y9946315D02*
X46233081Y9732029D01*
X46233081Y9732029D02*
X46161653Y9446315D01*
X46161653Y9446315D02*
X46090224Y9303458D01*
X46090224Y9303458D02*
X45947367Y9160600D01*
X45947367Y9160600D02*
X45733081Y9089172D01*
X45733081Y9089172D02*
X45375938Y9089172D01*
X47733081Y9232029D02*
X47661653Y9160600D01*
X47661653Y9160600D02*
X47447367Y9089172D01*
X47447367Y9089172D02*
X47304510Y9089172D01*
X47304510Y9089172D02*
X47090224Y9160600D01*
X47090224Y9160600D02*
X46947367Y9303458D01*
X46947367Y9303458D02*
X46875938Y9446315D01*
X46875938Y9446315D02*
X46804510Y9732029D01*
X46804510Y9732029D02*
X46804510Y9946315D01*
X46804510Y9946315D02*
X46875938Y10232029D01*
X46875938Y10232029D02*
X46947367Y10374886D01*
X46947367Y10374886D02*
X47090224Y10517743D01*
X47090224Y10517743D02*
X47304510Y10589172D01*
X47304510Y10589172D02*
X47447367Y10589172D01*
X47447367Y10589172D02*
X47661653Y10517743D01*
X47661653Y10517743D02*
X47733081Y10446315D01*
X49518795Y9089172D02*
X49518795Y10589172D01*
X50161653Y9089172D02*
X50161653Y9874886D01*
X50161653Y9874886D02*
X50090224Y10017743D01*
X50090224Y10017743D02*
X49947367Y10089172D01*
X49947367Y10089172D02*
X49733081Y10089172D01*
X49733081Y10089172D02*
X49590224Y10017743D01*
X49590224Y10017743D02*
X49518795Y9946315D01*
X50661653Y10089172D02*
X51233081Y10089172D01*
X50875938Y10589172D02*
X50875938Y9303458D01*
X50875938Y9303458D02*
X50947367Y9160600D01*
X50947367Y9160600D02*
X51090224Y9089172D01*
X51090224Y9089172D02*
X51233081Y9089172D01*
X51518796Y10089172D02*
X52090224Y10089172D01*
X51733081Y10589172D02*
X51733081Y9303458D01*
X51733081Y9303458D02*
X51804510Y9160600D01*
X51804510Y9160600D02*
X51947367Y9089172D01*
X51947367Y9089172D02*
X52090224Y9089172D01*
X52590224Y10089172D02*
X52590224Y8589172D01*
X52590224Y10017743D02*
X52733082Y10089172D01*
X52733082Y10089172D02*
X53018796Y10089172D01*
X53018796Y10089172D02*
X53161653Y10017743D01*
X53161653Y10017743D02*
X53233082Y9946315D01*
X53233082Y9946315D02*
X53304510Y9803458D01*
X53304510Y9803458D02*
X53304510Y9374886D01*
X53304510Y9374886D02*
X53233082Y9232029D01*
X53233082Y9232029D02*
X53161653Y9160600D01*
X53161653Y9160600D02*
X53018796Y9089172D01*
X53018796Y9089172D02*
X52733082Y9089172D01*
X52733082Y9089172D02*
X52590224Y9160600D01*
X53875939Y9160600D02*
X54018796Y9089172D01*
X54018796Y9089172D02*
X54304510Y9089172D01*
X54304510Y9089172D02*
X54447367Y9160600D01*
X54447367Y9160600D02*
X54518796Y9303458D01*
X54518796Y9303458D02*
X54518796Y9374886D01*
X54518796Y9374886D02*
X54447367Y9517743D01*
X54447367Y9517743D02*
X54304510Y9589172D01*
X54304510Y9589172D02*
X54090225Y9589172D01*
X54090225Y9589172D02*
X53947367Y9660600D01*
X53947367Y9660600D02*
X53875939Y9803458D01*
X53875939Y9803458D02*
X53875939Y9874886D01*
X53875939Y9874886D02*
X53947367Y10017743D01*
X53947367Y10017743D02*
X54090225Y10089172D01*
X54090225Y10089172D02*
X54304510Y10089172D01*
X54304510Y10089172D02*
X54447367Y10017743D01*
X55161653Y9232029D02*
X55233082Y9160600D01*
X55233082Y9160600D02*
X55161653Y9089172D01*
X55161653Y9089172D02*
X55090225Y9160600D01*
X55090225Y9160600D02*
X55161653Y9232029D01*
X55161653Y9232029D02*
X55161653Y9089172D01*
X55161653Y10017743D02*
X55233082Y9946315D01*
X55233082Y9946315D02*
X55161653Y9874886D01*
X55161653Y9874886D02*
X55090225Y9946315D01*
X55090225Y9946315D02*
X55161653Y10017743D01*
X55161653Y10017743D02*
X55161653Y9874886D01*
X56947368Y10660600D02*
X55661654Y8732029D01*
X58518797Y10660600D02*
X57233083Y8732029D01*
X59018797Y9089172D02*
X59018797Y10089172D01*
X59018797Y9803458D02*
X59090226Y9946315D01*
X59090226Y9946315D02*
X59161655Y10017743D01*
X59161655Y10017743D02*
X59304512Y10089172D01*
X59304512Y10089172D02*
X59447369Y10089172D01*
X60590226Y9089172D02*
X60590226Y9874886D01*
X60590226Y9874886D02*
X60518797Y10017743D01*
X60518797Y10017743D02*
X60375940Y10089172D01*
X60375940Y10089172D02*
X60090226Y10089172D01*
X60090226Y10089172D02*
X59947368Y10017743D01*
X60590226Y9160600D02*
X60447368Y9089172D01*
X60447368Y9089172D02*
X60090226Y9089172D01*
X60090226Y9089172D02*
X59947368Y9160600D01*
X59947368Y9160600D02*
X59875940Y9303458D01*
X59875940Y9303458D02*
X59875940Y9446315D01*
X59875940Y9446315D02*
X59947368Y9589172D01*
X59947368Y9589172D02*
X60090226Y9660600D01*
X60090226Y9660600D02*
X60447368Y9660600D01*
X60447368Y9660600D02*
X60590226Y9732029D01*
X61161654Y10089172D02*
X61518797Y9089172D01*
X61875940Y10089172D02*
X61518797Y9089172D01*
X61518797Y9089172D02*
X61375940Y8732029D01*
X61375940Y8732029D02*
X61304511Y8660600D01*
X61304511Y8660600D02*
X61161654Y8589172D01*
X62375940Y9160600D02*
X62518797Y9089172D01*
X62518797Y9089172D02*
X62804511Y9089172D01*
X62804511Y9089172D02*
X62947368Y9160600D01*
X62947368Y9160600D02*
X63018797Y9303458D01*
X63018797Y9303458D02*
X63018797Y9374886D01*
X63018797Y9374886D02*
X62947368Y9517743D01*
X62947368Y9517743D02*
X62804511Y9589172D01*
X62804511Y9589172D02*
X62590226Y9589172D01*
X62590226Y9589172D02*
X62447368Y9660600D01*
X62447368Y9660600D02*
X62375940Y9803458D01*
X62375940Y9803458D02*
X62375940Y9874886D01*
X62375940Y9874886D02*
X62447368Y10017743D01*
X62447368Y10017743D02*
X62590226Y10089172D01*
X62590226Y10089172D02*
X62804511Y10089172D01*
X62804511Y10089172D02*
X62947368Y10017743D01*
X63661654Y9089172D02*
X63661654Y10589172D01*
X64304512Y9089172D02*
X64304512Y9874886D01*
X64304512Y9874886D02*
X64233083Y10017743D01*
X64233083Y10017743D02*
X64090226Y10089172D01*
X64090226Y10089172D02*
X63875940Y10089172D01*
X63875940Y10089172D02*
X63733083Y10017743D01*
X63733083Y10017743D02*
X63661654Y9946315D01*
X65233083Y9089172D02*
X65090226Y9160600D01*
X65090226Y9160600D02*
X65018797Y9232029D01*
X65018797Y9232029D02*
X64947369Y9374886D01*
X64947369Y9374886D02*
X64947369Y9803458D01*
X64947369Y9803458D02*
X65018797Y9946315D01*
X65018797Y9946315D02*
X65090226Y10017743D01*
X65090226Y10017743D02*
X65233083Y10089172D01*
X65233083Y10089172D02*
X65447369Y10089172D01*
X65447369Y10089172D02*
X65590226Y10017743D01*
X65590226Y10017743D02*
X65661655Y9946315D01*
X65661655Y9946315D02*
X65733083Y9803458D01*
X65733083Y9803458D02*
X65733083Y9374886D01*
X65733083Y9374886D02*
X65661655Y9232029D01*
X65661655Y9232029D02*
X65590226Y9160600D01*
X65590226Y9160600D02*
X65447369Y9089172D01*
X65447369Y9089172D02*
X65233083Y9089172D01*
X66375940Y9089172D02*
X66375940Y10589172D01*
X66375940Y10017743D02*
X66518798Y10089172D01*
X66518798Y10089172D02*
X66804512Y10089172D01*
X66804512Y10089172D02*
X66947369Y10017743D01*
X66947369Y10017743D02*
X67018798Y9946315D01*
X67018798Y9946315D02*
X67090226Y9803458D01*
X67090226Y9803458D02*
X67090226Y9374886D01*
X67090226Y9374886D02*
X67018798Y9232029D01*
X67018798Y9232029D02*
X66947369Y9160600D01*
X66947369Y9160600D02*
X66804512Y9089172D01*
X66804512Y9089172D02*
X66518798Y9089172D01*
X66518798Y9089172D02*
X66375940Y9160600D01*
X67733083Y9089172D02*
X67733083Y10589172D01*
X67733083Y10017743D02*
X67875941Y10089172D01*
X67875941Y10089172D02*
X68161655Y10089172D01*
X68161655Y10089172D02*
X68304512Y10017743D01*
X68304512Y10017743D02*
X68375941Y9946315D01*
X68375941Y9946315D02*
X68447369Y9803458D01*
X68447369Y9803458D02*
X68447369Y9374886D01*
X68447369Y9374886D02*
X68375941Y9232029D01*
X68375941Y9232029D02*
X68304512Y9160600D01*
X68304512Y9160600D02*
X68161655Y9089172D01*
X68161655Y9089172D02*
X67875941Y9089172D01*
X67875941Y9089172D02*
X67733083Y9160600D01*
X68947369Y10089172D02*
X69304512Y9089172D01*
X69661655Y10089172D02*
X69304512Y9089172D01*
X69304512Y9089172D02*
X69161655Y8732029D01*
X69161655Y8732029D02*
X69090226Y8660600D01*
X69090226Y8660600D02*
X68947369Y8589172D01*
X70233083Y9232029D02*
X70304512Y9160600D01*
X70304512Y9160600D02*
X70233083Y9089172D01*
X70233083Y9089172D02*
X70161655Y9160600D01*
X70161655Y9160600D02*
X70233083Y9232029D01*
X70233083Y9232029D02*
X70233083Y9089172D01*
X70947369Y10089172D02*
X70947369Y9089172D01*
X70947369Y9946315D02*
X71018798Y10017743D01*
X71018798Y10017743D02*
X71161655Y10089172D01*
X71161655Y10089172D02*
X71375941Y10089172D01*
X71375941Y10089172D02*
X71518798Y10017743D01*
X71518798Y10017743D02*
X71590227Y9874886D01*
X71590227Y9874886D02*
X71590227Y9089172D01*
X72875941Y9160600D02*
X72733084Y9089172D01*
X72733084Y9089172D02*
X72447370Y9089172D01*
X72447370Y9089172D02*
X72304512Y9160600D01*
X72304512Y9160600D02*
X72233084Y9303458D01*
X72233084Y9303458D02*
X72233084Y9874886D01*
X72233084Y9874886D02*
X72304512Y10017743D01*
X72304512Y10017743D02*
X72447370Y10089172D01*
X72447370Y10089172D02*
X72733084Y10089172D01*
X72733084Y10089172D02*
X72875941Y10017743D01*
X72875941Y10017743D02*
X72947370Y9874886D01*
X72947370Y9874886D02*
X72947370Y9732029D01*
X72947370Y9732029D02*
X72233084Y9589172D01*
X73375941Y10089172D02*
X73947369Y10089172D01*
X73590226Y10589172D02*
X73590226Y9303458D01*
X73590226Y9303458D02*
X73661655Y9160600D01*
X73661655Y9160600D02*
X73804512Y9089172D01*
X73804512Y9089172D02*
X73947369Y9089172D01*
X75518798Y10660600D02*
X74233084Y8732029D01*
X75875941Y10089172D02*
X76161656Y9089172D01*
X76161656Y9089172D02*
X76447370Y9803458D01*
X76447370Y9803458D02*
X76733084Y9089172D01*
X76733084Y9089172D02*
X77018798Y10089172D01*
X77804513Y9089172D02*
X77661656Y9160600D01*
X77661656Y9160600D02*
X77590227Y9232029D01*
X77590227Y9232029D02*
X77518799Y9374886D01*
X77518799Y9374886D02*
X77518799Y9803458D01*
X77518799Y9803458D02*
X77590227Y9946315D01*
X77590227Y9946315D02*
X77661656Y10017743D01*
X77661656Y10017743D02*
X77804513Y10089172D01*
X77804513Y10089172D02*
X78018799Y10089172D01*
X78018799Y10089172D02*
X78161656Y10017743D01*
X78161656Y10017743D02*
X78233085Y9946315D01*
X78233085Y9946315D02*
X78304513Y9803458D01*
X78304513Y9803458D02*
X78304513Y9374886D01*
X78304513Y9374886D02*
X78233085Y9232029D01*
X78233085Y9232029D02*
X78161656Y9160600D01*
X78161656Y9160600D02*
X78018799Y9089172D01*
X78018799Y9089172D02*
X77804513Y9089172D01*
X78947370Y9089172D02*
X78947370Y10089172D01*
X78947370Y9803458D02*
X79018799Y9946315D01*
X79018799Y9946315D02*
X79090228Y10017743D01*
X79090228Y10017743D02*
X79233085Y10089172D01*
X79233085Y10089172D02*
X79375942Y10089172D01*
X80518799Y9089172D02*
X80518799Y10589172D01*
X80518799Y9160600D02*
X80375941Y9089172D01*
X80375941Y9089172D02*
X80090227Y9089172D01*
X80090227Y9089172D02*
X79947370Y9160600D01*
X79947370Y9160600D02*
X79875941Y9232029D01*
X79875941Y9232029D02*
X79804513Y9374886D01*
X79804513Y9374886D02*
X79804513Y9803458D01*
X79804513Y9803458D02*
X79875941Y9946315D01*
X79875941Y9946315D02*
X79947370Y10017743D01*
X79947370Y10017743D02*
X80090227Y10089172D01*
X80090227Y10089172D02*
X80375941Y10089172D01*
X80375941Y10089172D02*
X80518799Y10017743D01*
X81233084Y10089172D02*
X81233084Y8589172D01*
X81233084Y10017743D02*
X81375942Y10089172D01*
X81375942Y10089172D02*
X81661656Y10089172D01*
X81661656Y10089172D02*
X81804513Y10017743D01*
X81804513Y10017743D02*
X81875942Y9946315D01*
X81875942Y9946315D02*
X81947370Y9803458D01*
X81947370Y9803458D02*
X81947370Y9374886D01*
X81947370Y9374886D02*
X81875942Y9232029D01*
X81875942Y9232029D02*
X81804513Y9160600D01*
X81804513Y9160600D02*
X81661656Y9089172D01*
X81661656Y9089172D02*
X81375942Y9089172D01*
X81375942Y9089172D02*
X81233084Y9160600D01*
X82590227Y9089172D02*
X82590227Y10089172D01*
X82590227Y9803458D02*
X82661656Y9946315D01*
X82661656Y9946315D02*
X82733085Y10017743D01*
X82733085Y10017743D02*
X82875942Y10089172D01*
X82875942Y10089172D02*
X83018799Y10089172D01*
X84090227Y9160600D02*
X83947370Y9089172D01*
X83947370Y9089172D02*
X83661656Y9089172D01*
X83661656Y9089172D02*
X83518798Y9160600D01*
X83518798Y9160600D02*
X83447370Y9303458D01*
X83447370Y9303458D02*
X83447370Y9874886D01*
X83447370Y9874886D02*
X83518798Y10017743D01*
X83518798Y10017743D02*
X83661656Y10089172D01*
X83661656Y10089172D02*
X83947370Y10089172D01*
X83947370Y10089172D02*
X84090227Y10017743D01*
X84090227Y10017743D02*
X84161656Y9874886D01*
X84161656Y9874886D02*
X84161656Y9732029D01*
X84161656Y9732029D02*
X83447370Y9589172D01*
X84733084Y9160600D02*
X84875941Y9089172D01*
X84875941Y9089172D02*
X85161655Y9089172D01*
X85161655Y9089172D02*
X85304512Y9160600D01*
X85304512Y9160600D02*
X85375941Y9303458D01*
X85375941Y9303458D02*
X85375941Y9374886D01*
X85375941Y9374886D02*
X85304512Y9517743D01*
X85304512Y9517743D02*
X85161655Y9589172D01*
X85161655Y9589172D02*
X84947370Y9589172D01*
X84947370Y9589172D02*
X84804512Y9660600D01*
X84804512Y9660600D02*
X84733084Y9803458D01*
X84733084Y9803458D02*
X84733084Y9874886D01*
X84733084Y9874886D02*
X84804512Y10017743D01*
X84804512Y10017743D02*
X84947370Y10089172D01*
X84947370Y10089172D02*
X85161655Y10089172D01*
X85161655Y10089172D02*
X85304512Y10017743D01*
X85947370Y9160600D02*
X86090227Y9089172D01*
X86090227Y9089172D02*
X86375941Y9089172D01*
X86375941Y9089172D02*
X86518798Y9160600D01*
X86518798Y9160600D02*
X86590227Y9303458D01*
X86590227Y9303458D02*
X86590227Y9374886D01*
X86590227Y9374886D02*
X86518798Y9517743D01*
X86518798Y9517743D02*
X86375941Y9589172D01*
X86375941Y9589172D02*
X86161656Y9589172D01*
X86161656Y9589172D02*
X86018798Y9660600D01*
X86018798Y9660600D02*
X85947370Y9803458D01*
X85947370Y9803458D02*
X85947370Y9874886D01*
X85947370Y9874886D02*
X86018798Y10017743D01*
X86018798Y10017743D02*
X86161656Y10089172D01*
X86161656Y10089172D02*
X86375941Y10089172D01*
X86375941Y10089172D02*
X86518798Y10017743D01*
X88304513Y10660600D02*
X87018799Y8732029D01*
X88733085Y10446315D02*
X88804513Y10517743D01*
X88804513Y10517743D02*
X88947371Y10589172D01*
X88947371Y10589172D02*
X89304513Y10589172D01*
X89304513Y10589172D02*
X89447371Y10517743D01*
X89447371Y10517743D02*
X89518799Y10446315D01*
X89518799Y10446315D02*
X89590228Y10303458D01*
X89590228Y10303458D02*
X89590228Y10160600D01*
X89590228Y10160600D02*
X89518799Y9946315D01*
X89518799Y9946315D02*
X88661656Y9089172D01*
X88661656Y9089172D02*
X89590228Y9089172D01*
X90875942Y10089172D02*
X90875942Y9089172D01*
X90518799Y10660600D02*
X90161656Y9589172D01*
X90161656Y9589172D02*
X91090227Y9589172D01*
X91518798Y10089172D02*
X91875941Y9089172D01*
X91875941Y9089172D02*
X92233084Y10089172D01*
X93447370Y9089172D02*
X93447370Y9874886D01*
X93447370Y9874886D02*
X93375941Y10017743D01*
X93375941Y10017743D02*
X93233084Y10089172D01*
X93233084Y10089172D02*
X92947370Y10089172D01*
X92947370Y10089172D02*
X92804512Y10017743D01*
X93447370Y9160600D02*
X93304512Y9089172D01*
X93304512Y9089172D02*
X92947370Y9089172D01*
X92947370Y9089172D02*
X92804512Y9160600D01*
X92804512Y9160600D02*
X92733084Y9303458D01*
X92733084Y9303458D02*
X92733084Y9446315D01*
X92733084Y9446315D02*
X92804512Y9589172D01*
X92804512Y9589172D02*
X92947370Y9660600D01*
X92947370Y9660600D02*
X93304512Y9660600D01*
X93304512Y9660600D02*
X93447370Y9732029D01*
X94804513Y9160600D02*
X94661655Y9089172D01*
X94661655Y9089172D02*
X94375941Y9089172D01*
X94375941Y9089172D02*
X94233084Y9160600D01*
X94233084Y9160600D02*
X94161655Y9232029D01*
X94161655Y9232029D02*
X94090227Y9374886D01*
X94090227Y9374886D02*
X94090227Y9803458D01*
X94090227Y9803458D02*
X94161655Y9946315D01*
X94161655Y9946315D02*
X94233084Y10017743D01*
X94233084Y10017743D02*
X94375941Y10089172D01*
X94375941Y10089172D02*
X94661655Y10089172D01*
X94661655Y10089172D02*
X94804513Y10017743D01*
X95447369Y9660600D02*
X96590227Y9660600D01*
X97090227Y10089172D02*
X97661655Y10089172D01*
X97304512Y10589172D02*
X97304512Y9303458D01*
X97304512Y9303458D02*
X97375941Y9160600D01*
X97375941Y9160600D02*
X97518798Y9089172D01*
X97518798Y9089172D02*
X97661655Y9089172D01*
X98375941Y9089172D02*
X98233084Y9160600D01*
X98233084Y9160600D02*
X98161655Y9232029D01*
X98161655Y9232029D02*
X98090227Y9374886D01*
X98090227Y9374886D02*
X98090227Y9803458D01*
X98090227Y9803458D02*
X98161655Y9946315D01*
X98161655Y9946315D02*
X98233084Y10017743D01*
X98233084Y10017743D02*
X98375941Y10089172D01*
X98375941Y10089172D02*
X98590227Y10089172D01*
X98590227Y10089172D02*
X98733084Y10017743D01*
X98733084Y10017743D02*
X98804513Y9946315D01*
X98804513Y9946315D02*
X98875941Y9803458D01*
X98875941Y9803458D02*
X98875941Y9374886D01*
X98875941Y9374886D02*
X98804513Y9232029D01*
X98804513Y9232029D02*
X98733084Y9160600D01*
X98733084Y9160600D02*
X98590227Y9089172D01*
X98590227Y9089172D02*
X98375941Y9089172D01*
X99518798Y9660600D02*
X100661656Y9660600D01*
X102090227Y10589172D02*
X101375941Y10589172D01*
X101375941Y10589172D02*
X101304513Y9874886D01*
X101304513Y9874886D02*
X101375941Y9946315D01*
X101375941Y9946315D02*
X101518799Y10017743D01*
X101518799Y10017743D02*
X101875941Y10017743D01*
X101875941Y10017743D02*
X102018799Y9946315D01*
X102018799Y9946315D02*
X102090227Y9874886D01*
X102090227Y9874886D02*
X102161656Y9732029D01*
X102161656Y9732029D02*
X102161656Y9374886D01*
X102161656Y9374886D02*
X102090227Y9232029D01*
X102090227Y9232029D02*
X102018799Y9160600D01*
X102018799Y9160600D02*
X101875941Y9089172D01*
X101875941Y9089172D02*
X101518799Y9089172D01*
X101518799Y9089172D02*
X101375941Y9160600D01*
X101375941Y9160600D02*
X101304513Y9232029D01*
X102661655Y10089172D02*
X103018798Y9089172D01*
X103018798Y9089172D02*
X103375941Y10089172D01*
X104590227Y9089172D02*
X104590227Y10589172D01*
X104590227Y9160600D02*
X104447369Y9089172D01*
X104447369Y9089172D02*
X104161655Y9089172D01*
X104161655Y9089172D02*
X104018798Y9160600D01*
X104018798Y9160600D02*
X103947369Y9232029D01*
X103947369Y9232029D02*
X103875941Y9374886D01*
X103875941Y9374886D02*
X103875941Y9803458D01*
X103875941Y9803458D02*
X103947369Y9946315D01*
X103947369Y9946315D02*
X104018798Y10017743D01*
X104018798Y10017743D02*
X104161655Y10089172D01*
X104161655Y10089172D02*
X104447369Y10089172D01*
X104447369Y10089172D02*
X104590227Y10017743D01*
X105947370Y9160600D02*
X105804512Y9089172D01*
X105804512Y9089172D02*
X105518798Y9089172D01*
X105518798Y9089172D02*
X105375941Y9160600D01*
X105375941Y9160600D02*
X105304512Y9232029D01*
X105304512Y9232029D02*
X105233084Y9374886D01*
X105233084Y9374886D02*
X105233084Y9803458D01*
X105233084Y9803458D02*
X105304512Y9946315D01*
X105304512Y9946315D02*
X105375941Y10017743D01*
X105375941Y10017743D02*
X105518798Y10089172D01*
X105518798Y10089172D02*
X105804512Y10089172D01*
X105804512Y10089172D02*
X105947370Y10017743D01*
X106590226Y9660600D02*
X107733084Y9660600D01*
X109090227Y9160600D02*
X108947369Y9089172D01*
X108947369Y9089172D02*
X108661655Y9089172D01*
X108661655Y9089172D02*
X108518798Y9160600D01*
X108518798Y9160600D02*
X108447369Y9232029D01*
X108447369Y9232029D02*
X108375941Y9374886D01*
X108375941Y9374886D02*
X108375941Y9803458D01*
X108375941Y9803458D02*
X108447369Y9946315D01*
X108447369Y9946315D02*
X108518798Y10017743D01*
X108518798Y10017743D02*
X108661655Y10089172D01*
X108661655Y10089172D02*
X108947369Y10089172D01*
X108947369Y10089172D02*
X109090227Y10017743D01*
X109947369Y9089172D02*
X109804512Y9160600D01*
X109804512Y9160600D02*
X109733083Y9232029D01*
X109733083Y9232029D02*
X109661655Y9374886D01*
X109661655Y9374886D02*
X109661655Y9803458D01*
X109661655Y9803458D02*
X109733083Y9946315D01*
X109733083Y9946315D02*
X109804512Y10017743D01*
X109804512Y10017743D02*
X109947369Y10089172D01*
X109947369Y10089172D02*
X110161655Y10089172D01*
X110161655Y10089172D02*
X110304512Y10017743D01*
X110304512Y10017743D02*
X110375941Y9946315D01*
X110375941Y9946315D02*
X110447369Y9803458D01*
X110447369Y9803458D02*
X110447369Y9374886D01*
X110447369Y9374886D02*
X110375941Y9232029D01*
X110375941Y9232029D02*
X110304512Y9160600D01*
X110304512Y9160600D02*
X110161655Y9089172D01*
X110161655Y9089172D02*
X109947369Y9089172D01*
X111090226Y10089172D02*
X111090226Y9089172D01*
X111090226Y9946315D02*
X111161655Y10017743D01*
X111161655Y10017743D02*
X111304512Y10089172D01*
X111304512Y10089172D02*
X111518798Y10089172D01*
X111518798Y10089172D02*
X111661655Y10017743D01*
X111661655Y10017743D02*
X111733084Y9874886D01*
X111733084Y9874886D02*
X111733084Y9089172D01*
X112304512Y10089172D02*
X112661655Y9089172D01*
X112661655Y9089172D02*
X113018798Y10089172D01*
X114161655Y9160600D02*
X114018798Y9089172D01*
X114018798Y9089172D02*
X113733084Y9089172D01*
X113733084Y9089172D02*
X113590226Y9160600D01*
X113590226Y9160600D02*
X113518798Y9303458D01*
X113518798Y9303458D02*
X113518798Y9874886D01*
X113518798Y9874886D02*
X113590226Y10017743D01*
X113590226Y10017743D02*
X113733084Y10089172D01*
X113733084Y10089172D02*
X114018798Y10089172D01*
X114018798Y10089172D02*
X114161655Y10017743D01*
X114161655Y10017743D02*
X114233084Y9874886D01*
X114233084Y9874886D02*
X114233084Y9732029D01*
X114233084Y9732029D02*
X113518798Y9589172D01*
X114875940Y9089172D02*
X114875940Y10089172D01*
X114875940Y9803458D02*
X114947369Y9946315D01*
X114947369Y9946315D02*
X115018798Y10017743D01*
X115018798Y10017743D02*
X115161655Y10089172D01*
X115161655Y10089172D02*
X115304512Y10089172D01*
X115733083Y9160600D02*
X115875940Y9089172D01*
X115875940Y9089172D02*
X116161654Y9089172D01*
X116161654Y9089172D02*
X116304511Y9160600D01*
X116304511Y9160600D02*
X116375940Y9303458D01*
X116375940Y9303458D02*
X116375940Y9374886D01*
X116375940Y9374886D02*
X116304511Y9517743D01*
X116304511Y9517743D02*
X116161654Y9589172D01*
X116161654Y9589172D02*
X115947369Y9589172D01*
X115947369Y9589172D02*
X115804511Y9660600D01*
X115804511Y9660600D02*
X115733083Y9803458D01*
X115733083Y9803458D02*
X115733083Y9874886D01*
X115733083Y9874886D02*
X115804511Y10017743D01*
X115804511Y10017743D02*
X115947369Y10089172D01*
X115947369Y10089172D02*
X116161654Y10089172D01*
X116161654Y10089172D02*
X116304511Y10017743D01*
X117018797Y9089172D02*
X117018797Y10089172D01*
X117018797Y10589172D02*
X116947369Y10517743D01*
X116947369Y10517743D02*
X117018797Y10446315D01*
X117018797Y10446315D02*
X117090226Y10517743D01*
X117090226Y10517743D02*
X117018797Y10589172D01*
X117018797Y10589172D02*
X117018797Y10446315D01*
X117947369Y9089172D02*
X117804512Y9160600D01*
X117804512Y9160600D02*
X117733083Y9232029D01*
X117733083Y9232029D02*
X117661655Y9374886D01*
X117661655Y9374886D02*
X117661655Y9803458D01*
X117661655Y9803458D02*
X117733083Y9946315D01*
X117733083Y9946315D02*
X117804512Y10017743D01*
X117804512Y10017743D02*
X117947369Y10089172D01*
X117947369Y10089172D02*
X118161655Y10089172D01*
X118161655Y10089172D02*
X118304512Y10017743D01*
X118304512Y10017743D02*
X118375941Y9946315D01*
X118375941Y9946315D02*
X118447369Y9803458D01*
X118447369Y9803458D02*
X118447369Y9374886D01*
X118447369Y9374886D02*
X118375941Y9232029D01*
X118375941Y9232029D02*
X118304512Y9160600D01*
X118304512Y9160600D02*
X118161655Y9089172D01*
X118161655Y9089172D02*
X117947369Y9089172D01*
X119090226Y10089172D02*
X119090226Y9089172D01*
X119090226Y9946315D02*
X119161655Y10017743D01*
X119161655Y10017743D02*
X119304512Y10089172D01*
X119304512Y10089172D02*
X119518798Y10089172D01*
X119518798Y10089172D02*
X119661655Y10017743D01*
X119661655Y10017743D02*
X119733084Y9874886D01*
X119733084Y9874886D02*
X119733084Y9089172D01*
X121518798Y10660600D02*
X120233084Y8732029D01*
D12*
%TO.P,K4,1*%
%TO.N,Net-(AC24-IN1-Pin_1)*%
X72644000Y57330000D03*
D13*
%TO.P,K4,2*%
%TO.N,Net-(Q4-D)*%
X66594000Y55380000D03*
D12*
%TO.P,K4,3*%
%TO.N,unconnected-(K4-Pad3)*%
X66594000Y43180000D03*
%TO.P,K4,4*%
%TO.N,Net-(J4-Pin_1)*%
X78644000Y43130000D03*
D13*
%TO.P,K4,5*%
%TO.N,Net-(U1-FB)*%
X78594000Y55380000D03*
%TD*%
D14*
%TO.P,Q2,1,G*%
%TO.N,Net-(Q2-G)*%
X30230000Y67050000D03*
D15*
%TO.P,Q2,2,D*%
%TO.N,Net-(Q2-D)*%
X36530000Y64770000D03*
D14*
%TO.P,Q2,3,S*%
%TO.N,GND1*%
X30230000Y62490000D03*
%TD*%
%TO.P,Q6,1,G*%
%TO.N,Net-(Q6-G)*%
X101350000Y67310000D03*
D15*
%TO.P,Q6,2,D*%
%TO.N,Net-(Q6-D)*%
X107650000Y65030000D03*
D14*
%TO.P,Q6,3,S*%
%TO.N,GND1*%
X101350000Y62750000D03*
%TD*%
D16*
%TO.P,D3,1,K*%
%TO.N,Net-(D3-K)*%
X108590436Y80010000D03*
%TO.P,D3,2,A*%
%TO.N,Net-(D3-A)*%
X109560436Y80010000D03*
%TD*%
D17*
%TO.P,26 27 28 29,1*%
%TO.N,unconnected-(U2-IO5-Pad29)*%
X125900049Y56169491D03*
D18*
%TO.P,26 27 28 29,2*%
%TO.N,unconnected-(U2-IO17-Pad28)*%
X123360049Y56169491D03*
%TO.P,26 27 28 29,3*%
%TO.N,unconnected-(U2-IO16-Pad27)*%
X120820049Y56169491D03*
D19*
%TO.P,26 27 28 29,4*%
%TO.N,unconnected-(U2-IO4-Pad26)*%
X118280049Y56169491D03*
%TD*%
D20*
%TO.P,C4,1*%
%TO.N,Net-(U2-VDD)*%
X101600000Y33810000D03*
%TO.P,C4,2*%
%TO.N,GND1*%
X101600000Y34770000D03*
%TD*%
%TO.P,C1,1*%
%TO.N,Net-(U1-FB)*%
X86360000Y33330000D03*
%TO.P,C1,2*%
%TO.N,GND1*%
X86360000Y34290000D03*
%TD*%
D21*
%TO.P,U2,1,GND*%
%TO.N,GND1*%
X134620000Y79730000D03*
%TO.P,U2,2,VDD*%
%TO.N,Net-(U2-VDD)*%
X133350000Y79730000D03*
%TO.P,U2,3,EN*%
%TO.N,unconnected-(U2-EN-Pad3)*%
X132080000Y79730000D03*
%TO.P,U2,4,SENSOR_VP*%
%TO.N,unconnected-(U2-SENSOR_VP-Pad4)*%
X130810000Y79730000D03*
%TO.P,U2,5,SENSOR_VN*%
%TO.N,unconnected-(U2-SENSOR_VN-Pad5)*%
X129540000Y79730000D03*
%TO.P,U2,6,IO34*%
%TO.N,unconnected-(U2-IO34-Pad6)*%
X128270000Y79730000D03*
%TO.P,U2,7,IO35*%
%TO.N,unconnected-(U2-IO35-Pad7)*%
X127000000Y79730000D03*
%TO.P,U2,8,IO32*%
%TO.N,unconnected-(U2-IO32-Pad8)*%
X125730000Y79730000D03*
%TO.P,U2,9,IO33*%
%TO.N,Net-(D2-A)*%
X124460000Y79730000D03*
%TO.P,U2,10,IO25*%
%TO.N,Net-(D3-A)*%
X123190000Y79730000D03*
%TO.P,U2,11,IO26*%
%TO.N,Net-(U2-IO26)*%
X121920000Y79730000D03*
%TO.P,U2,12,IO27*%
%TO.N,unconnected-(U2-IO27-Pad12)*%
X120650000Y79730000D03*
%TO.P,U2,13,IO14*%
%TO.N,Net-(U2-IO14)*%
X119380000Y79730000D03*
%TO.P,U2,14,IO12*%
%TO.N,Net-(U2-IO12)*%
X118110000Y79730000D03*
D22*
%TO.P,U2,15,GND*%
%TO.N,GND1*%
X116860000Y76690000D03*
%TO.P,U2,16,IO13*%
%TO.N,Net-(U2-IO13)*%
X116860000Y75420000D03*
%TO.P,U2,17,SHD/SD2*%
%TO.N,Net-(D1-A)*%
X116860000Y74150000D03*
%TO.P,U2,18,SWP/SD3*%
%TO.N,unconnected-(U2-SWP{slash}SD3-Pad18)*%
X116860000Y72880000D03*
%TO.P,U2,19,SCS/CMD*%
%TO.N,Net-(U2-SCS{slash}CMD)*%
X116860000Y71610000D03*
%TO.P,U2,20,SCK/CLK*%
%TO.N,unconnected-(U2-SCK{slash}CLK-Pad20)*%
X116860000Y70340000D03*
%TO.P,U2,21,SDO/SD0*%
%TO.N,Net-(U2-SDO{slash}SD0)*%
X116860000Y69070000D03*
%TO.P,U2,22,SDI/SD1*%
%TO.N,unconnected-(U2-SDI{slash}SD1-Pad22)*%
X116860000Y67800000D03*
%TO.P,U2,23,IO15*%
%TO.N,unconnected-(U2-IO15-Pad23)*%
X116860000Y66530000D03*
%TO.P,U2,24,IO2*%
%TO.N,unconnected-(U2-IO2-Pad24)*%
X116860000Y65260000D03*
D21*
%TO.P,U2,25,IO0*%
%TO.N,unconnected-(U2-IO0-Pad25)*%
X118110000Y62230000D03*
%TO.P,U2,26,IO4*%
%TO.N,unconnected-(U2-IO4-Pad26)*%
X119380000Y62230000D03*
%TO.P,U2,27,IO16*%
%TO.N,unconnected-(U2-IO16-Pad27)*%
X120650000Y62230000D03*
%TO.P,U2,28,IO17*%
%TO.N,unconnected-(U2-IO17-Pad28)*%
X121920000Y62230000D03*
%TO.P,U2,29,IO5*%
%TO.N,unconnected-(U2-IO5-Pad29)*%
X123190000Y62230000D03*
%TO.P,U2,30,IO18*%
%TO.N,unconnected-(U2-IO18-Pad30)*%
X124460000Y62230000D03*
%TO.P,U2,31,IO19*%
%TO.N,unconnected-(U2-IO19-Pad31)*%
X125730000Y62230000D03*
%TO.P,U2,32,NC*%
%TO.N,unconnected-(U2-NC-Pad32)*%
X127000000Y62230000D03*
%TO.P,U2,33,IO21*%
%TO.N,unconnected-(U2-IO21-Pad33)*%
X128270000Y62230000D03*
%TO.P,U2,34,RXD0/IO3*%
%TO.N,unconnected-(U2-RXD0{slash}IO3-Pad34)*%
X129540000Y62230000D03*
%TO.P,U2,35,TXD0/IO1*%
%TO.N,unconnected-(U2-TXD0{slash}IO1-Pad35)*%
X130810000Y62230000D03*
%TO.P,U2,36,IO22*%
%TO.N,unconnected-(U2-IO22-Pad36)*%
X132080000Y62230000D03*
%TO.P,U2,37,IO23*%
%TO.N,unconnected-(U2-IO23-Pad37)*%
X133350000Y62230000D03*
%TO.P,U2,38,GND*%
%TO.N,GND1*%
X134620000Y62230000D03*
D23*
%TO.P,U2,39,GND*%
X128300000Y73880000D03*
D24*
X127600000Y73880000D03*
D23*
X126900000Y73880000D03*
D24*
X126200000Y73880000D03*
D23*
X125500000Y73880000D03*
D24*
X128300000Y73180000D03*
X126900000Y73180000D03*
X125500000Y73180000D03*
X127600000Y72505000D03*
X126200000Y72505000D03*
D23*
X128300000Y72480000D03*
X126900000Y72480000D03*
D25*
X126900000Y72480000D03*
D23*
X125500000Y72480000D03*
D24*
X128300000Y71780000D03*
X126900000Y71780000D03*
X125500000Y71780000D03*
D23*
X128300000Y71080000D03*
D24*
X127600000Y71080000D03*
D23*
X126900000Y71080000D03*
D24*
X126200000Y71080000D03*
D23*
X125500000Y71080000D03*
%TD*%
D12*
%TO.P,K1,1*%
%TO.N,Net-(AC24-IN1-Pin_1)*%
X19685000Y57330000D03*
D13*
%TO.P,K1,2*%
%TO.N,Net-(Q1-D)*%
X13635000Y55380000D03*
D12*
%TO.P,K1,3*%
%TO.N,unconnected-(K1-Pad3)*%
X13635000Y43180000D03*
%TO.P,K1,4*%
%TO.N,Net-(J1-Pin_1)*%
X25685000Y43130000D03*
D13*
%TO.P,K1,5*%
%TO.N,Net-(U1-FB)*%
X25635000Y55380000D03*
%TD*%
D26*
%TO.P,U1,1,VIN*%
%TO.N,Net-(D4-K)*%
X47885000Y27295000D03*
%TO.P,U1,2,OUT*%
%TO.N,Net-(D5-K)*%
X47885000Y25595000D03*
%TO.P,U1,3,GND*%
%TO.N,GND1*%
X47885000Y23895000D03*
D27*
X54610000Y26670000D03*
X54610000Y21120000D03*
D28*
X57035000Y23895000D03*
D27*
X59460000Y26670000D03*
X59460000Y21120000D03*
D26*
%TO.P,U1,4,FB*%
%TO.N,Net-(U1-FB)*%
X47885000Y22195000D03*
%TO.P,U1,5,~{ON}/OFF*%
%TO.N,GND1*%
X47885000Y20495000D03*
%TD*%
D29*
%TO.P,C6,1*%
%TO.N,Net-(U1-FB)*%
X36830000Y28740000D03*
D30*
%TO.P,C6,2*%
%TO.N,GND1*%
X36830000Y32240000D03*
%TD*%
D29*
%TO.P,C5,1*%
%TO.N,Net-(D4-K)*%
X27940000Y22390000D03*
D30*
%TO.P,C5,2*%
%TO.N,GND1*%
X27940000Y18890000D03*
%TD*%
D16*
%TO.P,D2,1,K*%
%TO.N,Net-(D2-K)*%
X108590436Y77470000D03*
%TO.P,D2,2,A*%
%TO.N,Net-(D2-A)*%
X109560436Y77470000D03*
%TD*%
D31*
%TO.P,J6,1,Pin_1*%
%TO.N,Net-(J6-Pin_1)*%
X135027500Y22340000D03*
D12*
%TO.P,J6,2,Pin_2*%
%TO.N,GND1*%
X138907500Y22340000D03*
%TD*%
D32*
%TO.P,R3,1*%
%TO.N,Net-(Q3-G)*%
X48067500Y69850000D03*
%TO.P,R3,2*%
%TO.N,Net-(U2-IO12)*%
X50992500Y69850000D03*
%TD*%
D33*
%TO.P,U3,1,GND*%
%TO.N,GND1*%
X91440000Y34050000D03*
%TO.P,U3,2,VO*%
%TO.N,Net-(U2-VDD)*%
X91440000Y31750000D03*
D34*
X97740000Y31750000D03*
D33*
%TO.P,U3,3,VI*%
%TO.N,Net-(U1-FB)*%
X91440000Y29450000D03*
%TD*%
D14*
%TO.P,Q3,1,G*%
%TO.N,Net-(Q3-G)*%
X48715000Y67305000D03*
D15*
%TO.P,Q3,2,D*%
%TO.N,Net-(Q3-D)*%
X55015000Y65025000D03*
D14*
%TO.P,Q3,3,S*%
%TO.N,GND1*%
X48715000Y62745000D03*
%TD*%
D20*
%TO.P,C3,1*%
%TO.N,Net-(U2-VDD)*%
X100330000Y33810000D03*
%TO.P,C3,2*%
%TO.N,GND1*%
X100330000Y34770000D03*
%TD*%
D32*
%TO.P,R8,1*%
%TO.N,GND1*%
X102522331Y77470000D03*
%TO.P,R8,2*%
%TO.N,Net-(D2-K)*%
X105447331Y77470000D03*
%TD*%
D31*
%TO.P,J2,1,Pin_1*%
%TO.N,Net-(J2-Pin_1)*%
X96599500Y22340000D03*
D12*
%TO.P,J2,2,Pin_2*%
%TO.N,GND1*%
X100479500Y22340000D03*
%TD*%
%TO.P,K5,1*%
%TO.N,Net-(AC24-IN1-Pin_1)*%
X90297000Y57330000D03*
D13*
%TO.P,K5,2*%
%TO.N,Net-(Q5-D)*%
X84247000Y55380000D03*
D12*
%TO.P,K5,3*%
%TO.N,unconnected-(K5-Pad3)*%
X84247000Y43180000D03*
%TO.P,K5,4*%
%TO.N,Net-(J5-Pin_1)*%
X96297000Y43130000D03*
D13*
%TO.P,K5,5*%
%TO.N,Net-(U1-FB)*%
X96247000Y55380000D03*
%TD*%
D31*
%TO.P,J3,1,Pin_1*%
%TO.N,Net-(J3-Pin_1)*%
X106206500Y22340000D03*
D12*
%TO.P,J3,2,Pin_2*%
%TO.N,GND1*%
X110086500Y22340000D03*
%TD*%
D31*
%TO.P,J1,1,Pin_1*%
%TO.N,Net-(J1-Pin_1)*%
X86992500Y22340000D03*
D12*
%TO.P,J1,2,Pin_2*%
%TO.N,GND1*%
X90872500Y22340000D03*
%TD*%
D32*
%TO.P,R1,1*%
%TO.N,Net-(Q1-G)*%
X12552500Y69850000D03*
%TO.P,R1,2*%
%TO.N,Net-(U2-IO26)*%
X15477500Y69850000D03*
%TD*%
D18*
%TO.P,5V 3V3 GND,1*%
%TO.N,GND1*%
X127000000Y38100000D03*
D17*
%TO.P,5V 3V3 GND,2*%
%TO.N,Net-(U2-VDD)*%
X127000000Y35560000D03*
%TO.P,5V 3V3 GND,3*%
%TO.N,Net-(U1-FB)*%
X127000000Y33020000D03*
%TD*%
D16*
%TO.P,D1,1,K*%
%TO.N,Net-(D1-K)*%
X108590436Y74930000D03*
%TO.P,D1,2,A*%
%TO.N,Net-(D1-A)*%
X109560436Y74930000D03*
%TD*%
D32*
%TO.P,R2,1*%
%TO.N,Net-(Q2-G)*%
X29697500Y69850000D03*
%TO.P,R2,2*%
%TO.N,Net-(U2-IO14)*%
X32622500Y69850000D03*
%TD*%
%TO.P,R7,1*%
%TO.N,GND1*%
X102522331Y80010000D03*
%TO.P,R7,2*%
%TO.N,Net-(D3-K)*%
X105447331Y80010000D03*
%TD*%
D31*
%TO.P,AC24-IN1,1,Pin_1*%
%TO.N,Net-(AC24-IN1-Pin_1)*%
X14602500Y22340000D03*
D12*
%TO.P,AC24-IN1,2,Pin_2*%
%TO.N,GND1*%
X18482500Y22340000D03*
%TD*%
D14*
%TO.P,Q4,1,G*%
%TO.N,Net-(Q4-G)*%
X66090000Y67050000D03*
D15*
%TO.P,Q4,2,D*%
%TO.N,Net-(Q4-D)*%
X72390000Y64770000D03*
D14*
%TO.P,Q4,3,S*%
%TO.N,GND1*%
X66090000Y62490000D03*
%TD*%
D32*
%TO.P,R9,1*%
%TO.N,GND1*%
X102522331Y74930000D03*
%TO.P,R9,2*%
%TO.N,Net-(D1-K)*%
X105447331Y74930000D03*
%TD*%
D35*
%TO.P,D4,1,K*%
%TO.N,Net-(D4-K)*%
X28670000Y32550000D03*
%TO.P,D4,2,A*%
%TO.N,Net-(AC24-IN1-Pin_1)*%
X24670000Y32550000D03*
%TD*%
D14*
%TO.P,Q5,1,G*%
%TO.N,Net-(Q5-G)*%
X83697000Y67305000D03*
D15*
%TO.P,Q5,2,D*%
%TO.N,Net-(Q5-D)*%
X89997000Y65025000D03*
D14*
%TO.P,Q5,3,S*%
%TO.N,GND1*%
X83697000Y62745000D03*
%TD*%
D32*
%TO.P,R6,1*%
%TO.N,Net-(Q6-G)*%
X100817500Y69850000D03*
%TO.P,R6,2*%
%TO.N,Net-(U2-SDO{slash}SD0)*%
X103742500Y69850000D03*
%TD*%
D36*
%TO.P,EXT/PROG,1*%
%TO.N,unconnected-(U2-EN-Pad3)*%
X124460000Y46990000D03*
D37*
%TO.P,EXT/PROG,2*%
%TO.N,Net-(U2-VDD)*%
X125730000Y46990000D03*
%TO.P,EXT/PROG,3*%
%TO.N,unconnected-(U2-RXD0{slash}IO3-Pad34)*%
X124460000Y45720000D03*
%TO.P,EXT/PROG,4*%
%TO.N,GND1*%
X125730000Y45720000D03*
%TO.P,EXT/PROG,5*%
%TO.N,unconnected-(U2-TXD0{slash}IO1-Pad35)*%
X124460000Y44450000D03*
%TO.P,EXT/PROG,6*%
%TO.N,unconnected-(U2-IO0-Pad25)*%
X125730000Y44450000D03*
%TD*%
D12*
%TO.P,K6,1*%
%TO.N,Net-(AC24-IN1-Pin_1)*%
X107950000Y57330000D03*
D13*
%TO.P,K6,2*%
%TO.N,Net-(Q6-D)*%
X101900000Y55380000D03*
D12*
%TO.P,K6,3*%
%TO.N,unconnected-(K6-Pad3)*%
X101900000Y43180000D03*
%TO.P,K6,4*%
%TO.N,Net-(J6-Pin_1)*%
X113950000Y43130000D03*
D13*
%TO.P,K6,5*%
%TO.N,Net-(U1-FB)*%
X113900000Y55380000D03*
%TD*%
D12*
%TO.P,K2,1*%
%TO.N,Net-(AC24-IN1-Pin_1)*%
X37338000Y57330000D03*
D13*
%TO.P,K2,2*%
%TO.N,Net-(Q2-D)*%
X31288000Y55380000D03*
D12*
%TO.P,K2,3*%
%TO.N,unconnected-(K2-Pad3)*%
X31288000Y43180000D03*
%TO.P,K2,4*%
%TO.N,Net-(J2-Pin_1)*%
X43338000Y43130000D03*
D13*
%TO.P,K2,5*%
%TO.N,Net-(U1-FB)*%
X43288000Y55380000D03*
%TD*%
D14*
%TO.P,Q1,1,G*%
%TO.N,Net-(Q1-G)*%
X13085000Y66931105D03*
D15*
%TO.P,Q1,2,D*%
%TO.N,Net-(Q1-D)*%
X19385000Y64651105D03*
D14*
%TO.P,Q1,3,S*%
%TO.N,GND1*%
X13085000Y62371105D03*
%TD*%
D35*
%TO.P,D5,1,K*%
%TO.N,Net-(D5-K)*%
X38830000Y22390000D03*
%TO.P,D5,2,A*%
%TO.N,GND1*%
X34830000Y22390000D03*
%TD*%
D32*
%TO.P,R5,1*%
%TO.N,Net-(Q5-G)*%
X83164500Y69850000D03*
%TO.P,R5,2*%
%TO.N,Net-(U2-SCS{slash}CMD)*%
X86089500Y69850000D03*
%TD*%
D31*
%TO.P,J4,1,Pin_1*%
%TO.N,Net-(J4-Pin_1)*%
X115813500Y22340000D03*
D12*
%TO.P,J4,2,Pin_2*%
%TO.N,GND1*%
X119693500Y22340000D03*
%TD*%
%TO.P,K3,1*%
%TO.N,Net-(AC24-IN1-Pin_1)*%
X54991000Y57330000D03*
D13*
%TO.P,K3,2*%
%TO.N,Net-(Q3-D)*%
X48941000Y55380000D03*
D12*
%TO.P,K3,3*%
%TO.N,unconnected-(K3-Pad3)*%
X48941000Y43180000D03*
%TO.P,K3,4*%
%TO.N,Net-(J3-Pin_1)*%
X60991000Y43130000D03*
D13*
%TO.P,K3,5*%
%TO.N,Net-(U1-FB)*%
X60941000Y55380000D03*
%TD*%
D32*
%TO.P,R4,1*%
%TO.N,Net-(Q4-G)*%
X65847500Y69850000D03*
%TO.P,R4,2*%
%TO.N,Net-(U2-IO13)*%
X68772500Y69850000D03*
%TD*%
D20*
%TO.P,C2,1*%
%TO.N,Net-(U1-FB)*%
X87630000Y33330000D03*
%TO.P,C2,2*%
%TO.N,GND1*%
X87630000Y34290000D03*
%TD*%
D38*
%TO.P,L1,1,1*%
%TO.N,Net-(D5-K)*%
X70445560Y20076438D03*
%TO.P,L1,2,2*%
%TO.N,Net-(U1-FB)*%
X70445560Y29976438D03*
%TD*%
D31*
%TO.P,J5,1,Pin_1*%
%TO.N,Net-(J5-Pin_1)*%
X125420500Y22340000D03*
D12*
%TO.P,J5,2,Pin_2*%
%TO.N,GND1*%
X129300500Y22340000D03*
%TD*%
D39*
%TO.N,Net-(U1-FB)*%
X45720000Y36282353D03*
%TO.N,Net-(U2-IO26)*%
X19050000Y69850000D03*
X121920000Y81280000D03*
%TO.N,Net-(U2-IO14)*%
X36830000Y69850000D03*
X119380000Y81280000D03*
%TO.N,unconnected-(U2-EN-Pad3)*%
X132080000Y77470000D03*
%TO.N,Net-(U2-IO12)*%
X118110000Y81280000D03*
X54610000Y69850000D03*
%TO.N,Net-(D3-A)*%
X122415845Y78259680D03*
X111760000Y80010000D03*
%TO.N,Net-(D2-A)*%
X111760000Y77470000D03*
X123190000Y77470000D03*
%TO.N,Net-(U2-IO13)*%
X113030000Y74930000D03*
X72390000Y69850000D03*
%TO.N,Net-(U2-SCS{slash}CMD)*%
X113030000Y72390000D03*
X90170000Y69850000D03*
%TO.N,Net-(U2-VDD)*%
X133350000Y36830000D03*
X133350000Y77470000D03*
%TO.N,Net-(U1-FB)*%
X69850000Y33020000D03*
X44705625Y22172528D03*
%TO.N,Net-(D5-K)*%
X41889218Y25621668D03*
X69850000Y16510000D03*
%TD*%
D40*
%TO.N,GND1*%
X47885000Y20495000D02*
X46280000Y18890000D01*
%TO.N,Net-(D5-K)*%
X47885000Y25595000D02*
X41915886Y25595000D01*
D41*
X41915886Y25595000D02*
X41889218Y25621668D01*
D42*
X41910000Y25595000D02*
X41910000Y25600886D01*
X41910000Y25600886D02*
X41889218Y25621668D01*
D40*
%TO.N,Net-(U1-FB)*%
X45720000Y36282353D02*
X45720000Y52070000D01*
%TO.N,Net-(Q1-D)*%
X19385000Y64651105D02*
X19385000Y61295000D01*
X19385000Y61295000D02*
X13635000Y55545000D01*
D41*
%TO.N,Net-(U2-IO26)*%
X121920000Y79730000D02*
X121920000Y81280000D01*
X15477500Y69850000D02*
X19050000Y69850000D01*
D40*
%TO.N,Net-(Q2-D)*%
X36530000Y64770000D02*
X36530000Y60622000D01*
X36530000Y60622000D02*
X31288000Y55380000D01*
%TO.N,Net-(Q3-D)*%
X55015000Y65025000D02*
X55015000Y61454000D01*
X55015000Y61454000D02*
X48941000Y55380000D01*
%TO.N,Net-(Q4-D)*%
X72390000Y61176000D02*
X66594000Y55380000D01*
X72390000Y64770000D02*
X72390000Y61176000D01*
%TO.N,Net-(Q5-D)*%
X89997000Y61130000D02*
X84247000Y55380000D01*
X89997000Y65025000D02*
X89997000Y61130000D01*
%TO.N,Net-(Q6-D)*%
X107650000Y61130000D02*
X101900000Y55380000D01*
X107650000Y65030000D02*
X107650000Y61130000D01*
D41*
%TO.N,Net-(Q1-G)*%
X12552500Y67463605D02*
X13085000Y66931105D01*
X12552500Y69850000D02*
X12552500Y67463605D01*
%TO.N,Net-(U2-IO14)*%
X32622500Y69850000D02*
X36830000Y69850000D01*
X119380000Y79730000D02*
X119380000Y81280000D01*
%TO.N,Net-(Q2-G)*%
X29697500Y67582500D02*
X30230000Y67050000D01*
X29697500Y69850000D02*
X29697500Y67582500D01*
%TO.N,Net-(Q3-G)*%
X48715000Y67305000D02*
X48067500Y67952500D01*
X48067500Y67952500D02*
X48067500Y69850000D01*
%TO.N,Net-(Q4-G)*%
X65847500Y67292500D02*
X66090000Y67050000D01*
X65847500Y69850000D02*
X65847500Y67292500D01*
%TO.N,Net-(Q5-G)*%
X83164500Y69595000D02*
X83164500Y67582500D01*
X83164500Y67582500D02*
X83697000Y67050000D01*
%TO.N,Net-(Q6-G)*%
X100817500Y67842500D02*
X101350000Y67310000D01*
X100817500Y69850000D02*
X100817500Y67842500D01*
%TO.N,unconnected-(U2-EN-Pad3)*%
X132080000Y77470000D02*
X132080000Y79730000D01*
%TO.N,Net-(U2-IO12)*%
X118110000Y79730000D02*
X118110000Y81280000D01*
X50992500Y69850000D02*
X54610000Y69850000D01*
%TO.N,Net-(D3-A)*%
X109560436Y80010000D02*
X111760000Y80010000D01*
X123190000Y79033835D02*
X123190000Y79730000D01*
X122415845Y78259680D02*
X123190000Y79033835D01*
%TO.N,Net-(U2-SDO{slash}SD0)*%
X104522500Y69070000D02*
X116860000Y69070000D01*
X103742500Y69850000D02*
X104522500Y69070000D01*
%TO.N,Net-(D2-A)*%
X124460000Y79730000D02*
X124460000Y78740000D01*
X124460000Y78740000D02*
X123190000Y77470000D01*
X109560436Y77470000D02*
X111760000Y77470000D01*
%TO.N,Net-(U2-IO13)*%
X113520000Y75420000D02*
X116860000Y75420000D01*
X68772500Y69850000D02*
X72390000Y69850000D01*
X113030000Y74930000D02*
X113520000Y75420000D01*
%TO.N,Net-(U2-SCS{slash}CMD)*%
X113030000Y72390000D02*
X113810000Y71610000D01*
X113810000Y71610000D02*
X116860000Y71610000D01*
X86360000Y69595000D02*
X90170000Y69850000D01*
X90170000Y69850000D02*
X90170000Y69595000D01*
X86089500Y69850000D02*
X86360000Y69850000D01*
%TO.N,unconnected-(U2-IO0-Pad25)*%
X116190275Y41910000D02*
X116190275Y60310275D01*
X125730000Y41910000D02*
X116190275Y41910000D01*
X125730000Y44450000D02*
X125730000Y41910000D01*
X116190275Y60310275D02*
X118110000Y62230000D01*
%TO.N,unconnected-(U2-IO4-Pad26)*%
X119380000Y57269442D02*
X118280049Y56169491D01*
X119380000Y62230000D02*
X119380000Y57269442D01*
%TO.N,unconnected-(U2-IO16-Pad27)*%
X120650000Y62230000D02*
X120650000Y56339540D01*
X120650000Y56339540D02*
X120820049Y56169491D01*
%TO.N,unconnected-(U2-IO17-Pad28)*%
X121920000Y57609540D02*
X123360049Y56169491D01*
X121920000Y62230000D02*
X121920000Y57609540D01*
%TO.N,unconnected-(U2-IO5-Pad29)*%
X123190000Y62230000D02*
X123190000Y58879540D01*
X123190000Y58879540D02*
X125900049Y56169491D01*
%TO.N,unconnected-(U2-RXD0{slash}IO3-Pad34)*%
X129540000Y53529620D02*
X129540000Y62230000D01*
X124015000Y46165000D02*
X124460000Y45720000D01*
X123635000Y46355380D02*
X123635000Y47624620D01*
X123825380Y46165000D02*
X123635000Y46355380D01*
X123825380Y46165000D02*
X124015000Y46165000D01*
X123635000Y47624620D02*
X129540000Y53529620D01*
%TO.N,unconnected-(U2-TXD0{slash}IO1-Pad35)*%
X124460000Y44555075D02*
X124460000Y44450000D01*
X123185000Y47811016D02*
X127160190Y51786206D01*
X124460000Y44450000D02*
X123185000Y45725000D01*
X123185000Y45725000D02*
X123185000Y47811016D01*
%TO.N,Net-(D1-A)*%
X116860000Y74150000D02*
X110340436Y74150000D01*
X110340436Y74150000D02*
X109560436Y74930000D01*
%TO.N,Net-(D1-K)*%
X108590436Y74930000D02*
X105447331Y74930000D01*
%TO.N,Net-(D2-K)*%
X105447331Y77470000D02*
X108590436Y77470000D01*
%TO.N,Net-(D3-K)*%
X105447331Y80010000D02*
X108590436Y80010000D01*
%TO.N,Net-(U2-VDD)*%
X132080000Y35560000D02*
X133350000Y36830000D01*
X101600000Y33810000D02*
X101955000Y34165000D01*
D40*
X91440000Y31750000D02*
X97740000Y31750000D01*
D41*
X133350000Y79730000D02*
X133350000Y77470000D01*
X101962610Y34165000D02*
X103357610Y35560000D01*
X101955000Y34165000D02*
X101962610Y34165000D01*
X99190000Y33810000D02*
X97130000Y31750000D01*
X100330000Y33810000D02*
X99190000Y33810000D01*
X101600000Y33810000D02*
X100330000Y33810000D01*
X103357610Y35560000D02*
X127000000Y35560000D01*
X127000000Y35560000D02*
X132080000Y35560000D01*
D40*
%TO.N,Net-(U1-FB)*%
X88325000Y32635000D02*
X88325000Y29450000D01*
X62230000Y52070000D02*
X76870000Y52070000D01*
X80010000Y52070000D02*
X95250000Y52070000D01*
X86360000Y33330000D02*
X87630000Y33330000D01*
X44705625Y22172528D02*
X44728097Y22195000D01*
X78594000Y53486000D02*
X80010000Y52070000D01*
X113030000Y52070000D02*
X113900000Y52940000D01*
X96247000Y55380000D02*
X96247000Y53613000D01*
X87630000Y33330000D02*
X88325000Y32635000D01*
X88325000Y29450000D02*
X91440000Y29450000D01*
X44450000Y52070000D02*
X43288000Y53232000D01*
X44728097Y22195000D02*
X47885000Y22195000D01*
X121920000Y27940000D02*
X101600000Y27940000D01*
X43288000Y53232000D02*
X43288000Y55380000D01*
X91440000Y27940000D02*
X91440000Y29450000D01*
X113900000Y52940000D02*
X113900000Y55380000D01*
X44683153Y22195000D02*
X44705625Y22172528D01*
X97790000Y52070000D02*
X113030000Y52070000D01*
X95250000Y52070000D02*
X96247000Y53067000D01*
X25635000Y53105000D02*
X25635000Y55380000D01*
X60941000Y53359000D02*
X62230000Y52070000D01*
X60941000Y55380000D02*
X60941000Y53359000D01*
X70160000Y33330000D02*
X86360000Y33330000D01*
X60941000Y53321000D02*
X59690000Y52070000D01*
X43288000Y53448000D02*
X41910000Y52070000D01*
X43288000Y55380000D02*
X43288000Y53448000D01*
X101600000Y27940000D02*
X91440000Y27940000D01*
X78594000Y55380000D02*
X78594000Y53486000D01*
X96247000Y53067000D02*
X96247000Y55380000D01*
X76870000Y52070000D02*
X78594000Y53794000D01*
X96247000Y53613000D02*
X97790000Y52070000D01*
X69850000Y30571998D02*
X70445560Y29976438D01*
X127000000Y33020000D02*
X121920000Y27940000D01*
X113900000Y54210000D02*
X113900000Y56080000D01*
X78594000Y53794000D02*
X78594000Y55380000D01*
X60941000Y55380000D02*
X60941000Y53321000D01*
X69850000Y33020000D02*
X70160000Y33330000D01*
X26670000Y52070000D02*
X25635000Y53105000D01*
X69850000Y33020000D02*
X69850000Y30571998D01*
X59690000Y52070000D02*
X45720000Y52070000D01*
X45720000Y52070000D02*
X44450000Y52070000D01*
X47670000Y22410000D02*
X47885000Y22195000D01*
X41910000Y52070000D02*
X26670000Y52070000D01*
%TO.N,GND1*%
X62230000Y73660000D02*
X62230000Y64770000D01*
X19050000Y15240000D02*
X13970000Y15240000D01*
X132080000Y38100000D02*
X101600000Y38100000D01*
X19050000Y18890000D02*
X18482500Y19457500D01*
X110086500Y22340000D02*
X110086500Y15240000D01*
X28950000Y62490000D02*
X27940000Y63500000D01*
X52380000Y18890000D02*
X54610000Y21120000D01*
X86360000Y34290000D02*
X87630000Y34290000D01*
X77470000Y73660000D02*
X62230000Y73660000D01*
X52030000Y18890000D02*
X49530000Y18890000D01*
X129300500Y15240000D02*
X121920000Y15240000D01*
X86360000Y38100000D02*
X86360000Y34290000D01*
X59460000Y26670000D02*
X61530000Y28740000D01*
X78740000Y64966000D02*
X80961000Y62745000D01*
X18482500Y22340000D02*
X18482500Y15807500D01*
X87630000Y34290000D02*
X91200000Y34290000D01*
X18482500Y15807500D02*
X19050000Y15240000D01*
X77470000Y73660000D02*
X78740000Y73660000D01*
X97790000Y64770000D02*
X99810000Y62750000D01*
X138907500Y22340000D02*
X138907500Y15240000D01*
X127600000Y72505000D02*
X134505000Y72505000D01*
X49530000Y18890000D02*
X52380000Y18890000D01*
X101600000Y38100000D02*
X86360000Y38100000D01*
X134620000Y45720000D02*
X125730000Y45720000D01*
X121920000Y15240000D02*
X111760000Y15240000D01*
X102522331Y80010000D02*
X102522331Y77470000D01*
X138907500Y15240000D02*
X121920000Y15240000D01*
X43180000Y73660000D02*
X62230000Y73660000D01*
X100330000Y34770000D02*
X101600000Y34770000D01*
X138907500Y37622500D02*
X138430000Y38100000D01*
X134620000Y72390000D02*
X134620000Y79730000D01*
X100330000Y34770000D02*
X92160000Y34770000D01*
X134620000Y62230000D02*
X134620000Y72390000D01*
X57035000Y23895000D02*
X52030000Y18890000D01*
X47885000Y23895000D02*
X57035000Y23895000D01*
X27940000Y63500000D02*
X27940000Y73660000D01*
X43180000Y64770000D02*
X43180000Y73660000D01*
X10861396Y62371105D02*
X13085000Y62371105D01*
X88900000Y15240000D02*
X19050000Y15240000D01*
X134620000Y45720000D02*
X134620000Y38100000D01*
X111760000Y15240000D02*
X101600000Y15240000D01*
X80961000Y62745000D02*
X83697000Y62745000D01*
X102522331Y82202331D02*
X102870000Y82550000D01*
X134620000Y62230000D02*
X134620000Y45720000D01*
X48715000Y62745000D02*
X45205000Y62745000D01*
X111000000Y82550000D02*
X116860000Y76690000D01*
X36830000Y32240000D02*
X36830000Y32550000D01*
X138907500Y22340000D02*
X138907500Y37622500D01*
X27940000Y18890000D02*
X19050000Y18890000D01*
X134620000Y38100000D02*
X132080000Y38100000D01*
X46280000Y18890000D02*
X45720000Y18890000D01*
X138430000Y38100000D02*
X132080000Y38100000D01*
X78740000Y73660000D02*
X78740000Y64966000D01*
X92160000Y34770000D02*
X91440000Y34050000D01*
X110086500Y15240000D02*
X101600000Y15240000D01*
X100479500Y22340000D02*
X100479500Y15389500D01*
X10160000Y73660000D02*
X27940000Y73660000D01*
X64510000Y62490000D02*
X66090000Y62490000D01*
X18482500Y19457500D02*
X18482500Y22340000D01*
X102870000Y82550000D02*
X111000000Y82550000D01*
X97790000Y73660000D02*
X97790000Y64770000D01*
X30230000Y62490000D02*
X28950000Y62490000D01*
X10160000Y61669709D02*
X10160000Y73660000D01*
X101600000Y38100000D02*
X101600000Y34770000D01*
X62230000Y64770000D02*
X64510000Y62490000D01*
X43180000Y73660000D02*
X27940000Y73660000D01*
X45720000Y18890000D02*
X49530000Y18890000D01*
X13970000Y15240000D02*
X10160000Y19050000D01*
X116860000Y76690000D02*
X122690000Y76690000D01*
X31330000Y32130000D02*
X31330000Y18890000D01*
X102522331Y80010000D02*
X102522331Y82202331D01*
X10160000Y61669709D02*
X10861396Y62371105D01*
X27940000Y18890000D02*
X45720000Y18890000D01*
X31440000Y32240000D02*
X31330000Y32130000D01*
X34830000Y22390000D02*
X31330000Y18890000D01*
X36830000Y32240000D02*
X31440000Y32240000D01*
X119693500Y22340000D02*
X119693500Y15240000D01*
X27940000Y18890000D02*
X27940000Y18580000D01*
X99810000Y62750000D02*
X101350000Y62750000D01*
X77470000Y73660000D02*
X97790000Y73660000D01*
X102522331Y77470000D02*
X102522331Y74930000D01*
X122690000Y76690000D02*
X126900000Y72480000D01*
X90872500Y22340000D02*
X90872500Y15240000D01*
X101600000Y15240000D02*
X88900000Y15240000D01*
X119693500Y15240000D02*
X111760000Y15240000D01*
X45205000Y62745000D02*
X43180000Y64770000D01*
X91440000Y34050000D02*
X91200000Y34290000D01*
X129300500Y22340000D02*
X129300500Y15240000D01*
X10160000Y19050000D02*
X10160000Y61669709D01*
X27940000Y18890000D02*
X31330000Y18890000D01*
X134505000Y72505000D02*
X134620000Y72390000D01*
D42*
%TO.N,Net-(D5-K)*%
X41910000Y24820492D02*
X41910000Y25595000D01*
X41910000Y24820492D02*
X41219508Y24130000D01*
D40*
X38830000Y22390000D02*
X38830000Y24130000D01*
X70445560Y20076438D02*
X70445560Y17105560D01*
X38830000Y25595000D02*
X41889218Y25621668D01*
X38830000Y24130000D02*
X38830000Y25595000D01*
D42*
X41219508Y24130000D02*
X38830000Y24130000D01*
D40*
X70445560Y17105560D02*
X69850000Y16510000D01*
%TO.N,Net-(D4-K)*%
X27940000Y31820000D02*
X28670000Y32550000D01*
X31210000Y35090000D02*
X46990000Y35090000D01*
X27940000Y22390000D02*
X27940000Y31820000D01*
X28670000Y32550000D02*
X31210000Y35090000D01*
X46990000Y35090000D02*
X46990000Y28190000D01*
X46990000Y28190000D02*
X47885000Y27295000D01*
%TO.N,Net-(AC24-IN1-Pin_1)*%
X14770000Y32550000D02*
X14602500Y32382500D01*
X17780000Y32550000D02*
X14770000Y32550000D01*
X17780000Y55425000D02*
X17780000Y32550000D01*
X19685000Y57330000D02*
X17780000Y55425000D01*
X24670000Y32550000D02*
X17780000Y32550000D01*
X14602500Y32382500D02*
X14602500Y22340000D01*
%TD*%
M02*
