%TF.GenerationSoftware,KiCad,Pcbnew,7.0.8*%
%TF.CreationDate,2023-10-12T20:46:22+03:00*%
%TF.ProjectId,sprinklers,73707269-6e6b-46c6-9572-732e6b696361,1.0.5*%
%TF.SameCoordinates,Original*%
%TF.FileFunction,Soldermask,Top*%
%TF.FilePolarity,Negative*%
%FSLAX46Y46*%
G04 Gerber Fmt 4.6, Leading zero omitted, Abs format (unit mm)*
G04 Created by KiCad (PCBNEW 7.0.8) date 2023-10-12 20:46:22*
%MOMM*%
%LPD*%
G01*
G04 APERTURE LIST*
G04 Aperture macros list*
%AMRoundRect*
0 Rectangle with rounded corners*
0 $1 Rounding radius*
0 $2 $3 $4 $5 $6 $7 $8 $9 X,Y pos of 4 corners*
0 Add a 4 corners polygon primitive as box body*
4,1,4,$2,$3,$4,$5,$6,$7,$8,$9,$2,$3,0*
0 Add four circle primitives for the rounded corners*
1,1,$1+$1,$2,$3*
1,1,$1+$1,$4,$5*
1,1,$1+$1,$6,$7*
1,1,$1+$1,$8,$9*
0 Add four rect primitives between the rounded corners*
20,1,$1+$1,$2,$3,$4,$5,0*
20,1,$1+$1,$4,$5,$6,$7,0*
20,1,$1+$1,$6,$7,$8,$9,0*
20,1,$1+$1,$8,$9,$2,$3,0*%
G04 Aperture macros list end*
%ADD10C,3.000000*%
%ADD11C,2.500000*%
%ADD12R,2.200000X1.200000*%
%ADD13R,6.400000X5.800000*%
%ADD14RoundRect,0.147500X-0.147500X-0.172500X0.147500X-0.172500X0.147500X0.172500X-0.147500X0.172500X0*%
%ADD15R,1.700000X1.700000*%
%ADD16O,1.700000X1.700000*%
%ADD17RoundRect,0.140000X0.170000X-0.140000X0.170000X0.140000X-0.170000X0.140000X-0.170000X-0.140000X0*%
%ADD18R,0.900000X1.500000*%
%ADD19R,1.500000X0.900000*%
%ADD20C,0.600000*%
%ADD21R,3.800000X3.800000*%
%ADD22RoundRect,0.250000X-2.050000X-0.300000X2.050000X-0.300000X2.050000X0.300000X-2.050000X0.300000X0*%
%ADD23RoundRect,0.250002X-4.449998X-5.149998X4.449998X-5.149998X4.449998X5.149998X-4.449998X5.149998X0*%
%ADD24R,1.600000X1.600000*%
%ADD25C,1.600000*%
%ADD26R,3.000000X3.000000*%
%ADD27RoundRect,0.250000X-0.312500X-0.625000X0.312500X-0.625000X0.312500X0.625000X-0.312500X0.625000X0*%
%ADD28R,2.000000X1.500000*%
%ADD29R,2.000000X3.800000*%
%ADD30RoundRect,0.250000X1.000000X0.650000X-1.000000X0.650000X-1.000000X-0.650000X1.000000X-0.650000X0*%
%ADD31R,1.000000X1.000000*%
%ADD32O,1.000000X1.000000*%
%ADD33R,5.400000X2.900000*%
G04 APERTURE END LIST*
D10*
%TO.C,K4*%
X72644000Y57330000D03*
D11*
X66594000Y55380000D03*
D10*
X66594000Y43180000D03*
X78644000Y43130000D03*
D11*
X78594000Y55380000D03*
%TD*%
D12*
%TO.C,Q2*%
X30230000Y67050000D03*
D13*
X36530000Y64770000D03*
D12*
X30230000Y62490000D03*
%TD*%
%TO.C,Q6*%
X101350000Y67310000D03*
D13*
X107650000Y65030000D03*
D12*
X101350000Y62750000D03*
%TD*%
D14*
%TO.C,D3*%
X108590436Y80010000D03*
X109560436Y80010000D03*
%TD*%
D15*
%TO.C,26 27 28 29*%
X125900049Y56169491D03*
D16*
X123360049Y56169491D03*
X120820049Y56169491D03*
X118280049Y56169491D03*
%TD*%
D17*
%TO.C,C4*%
X101600000Y33810000D03*
X101600000Y34770000D03*
%TD*%
%TO.C,C1*%
X86360000Y33330000D03*
X86360000Y34290000D03*
%TD*%
D18*
%TO.C,U2*%
X134620000Y79730000D03*
X133350000Y79730000D03*
X132080000Y79730000D03*
X130810000Y79730000D03*
X129540000Y79730000D03*
X128270000Y79730000D03*
X127000000Y79730000D03*
X125730000Y79730000D03*
X124460000Y79730000D03*
X123190000Y79730000D03*
X121920000Y79730000D03*
X120650000Y79730000D03*
X119380000Y79730000D03*
X118110000Y79730000D03*
D19*
X116860000Y76690000D03*
X116860000Y75420000D03*
X116860000Y74150000D03*
X116860000Y72880000D03*
X116860000Y71610000D03*
X116860000Y70340000D03*
X116860000Y69070000D03*
X116860000Y67800000D03*
X116860000Y66530000D03*
X116860000Y65260000D03*
D18*
X118110000Y62230000D03*
X119380000Y62230000D03*
X120650000Y62230000D03*
X121920000Y62230000D03*
X123190000Y62230000D03*
X124460000Y62230000D03*
X125730000Y62230000D03*
X127000000Y62230000D03*
X128270000Y62230000D03*
X129540000Y62230000D03*
X130810000Y62230000D03*
X132080000Y62230000D03*
X133350000Y62230000D03*
X134620000Y62230000D03*
D20*
X127600000Y73880000D03*
X126200000Y73880000D03*
X128300000Y73180000D03*
X126900000Y73180000D03*
X125500000Y73180000D03*
X127600000Y72505000D03*
X126200000Y72505000D03*
D21*
X126900000Y72480000D03*
D20*
X128300000Y71780000D03*
X126900000Y71780000D03*
X125500000Y71780000D03*
X127600000Y71080000D03*
X126200000Y71080000D03*
%TD*%
D10*
%TO.C,K1*%
X19685000Y57330000D03*
D11*
X13635000Y55380000D03*
D10*
X13635000Y43180000D03*
X25685000Y43130000D03*
D11*
X25635000Y55380000D03*
%TD*%
D22*
%TO.C,U1*%
X47885000Y27295000D03*
X47885000Y25595000D03*
X47885000Y23895000D03*
D23*
X57035000Y23895000D03*
D22*
X47885000Y22195000D03*
X47885000Y20495000D03*
%TD*%
D24*
%TO.C,C6*%
X36830000Y28740000D03*
D25*
X36830000Y32240000D03*
%TD*%
D24*
%TO.C,C5*%
X27940000Y22390000D03*
D25*
X27940000Y18890000D03*
%TD*%
D14*
%TO.C,D2*%
X108590436Y77470000D03*
X109560436Y77470000D03*
%TD*%
D26*
%TO.C,J6*%
X135027500Y22340000D03*
D10*
X138907500Y22340000D03*
%TD*%
D27*
%TO.C,R3*%
X48067500Y69850000D03*
X50992500Y69850000D03*
%TD*%
D28*
%TO.C,U3*%
X91440000Y34050000D03*
X91440000Y31750000D03*
D29*
X97740000Y31750000D03*
D28*
X91440000Y29450000D03*
%TD*%
D12*
%TO.C,Q3*%
X48715000Y67305000D03*
D13*
X55015000Y65025000D03*
D12*
X48715000Y62745000D03*
%TD*%
D17*
%TO.C,C3*%
X100330000Y33810000D03*
X100330000Y34770000D03*
%TD*%
D27*
%TO.C,R8*%
X102522331Y77470000D03*
X105447331Y77470000D03*
%TD*%
D26*
%TO.C,J2*%
X96599500Y22340000D03*
D10*
X100479500Y22340000D03*
%TD*%
%TO.C,K5*%
X90297000Y57330000D03*
D11*
X84247000Y55380000D03*
D10*
X84247000Y43180000D03*
X96297000Y43130000D03*
D11*
X96247000Y55380000D03*
%TD*%
D26*
%TO.C,J3*%
X106206500Y22340000D03*
D10*
X110086500Y22340000D03*
%TD*%
D26*
%TO.C,J1*%
X86992500Y22340000D03*
D10*
X90872500Y22340000D03*
%TD*%
D27*
%TO.C,R1*%
X12552500Y69850000D03*
X15477500Y69850000D03*
%TD*%
D16*
%TO.C,5V 3V3 GND*%
X127000000Y38100000D03*
D15*
X127000000Y35560000D03*
X127000000Y33020000D03*
%TD*%
D14*
%TO.C,D1*%
X108590436Y74930000D03*
X109560436Y74930000D03*
%TD*%
D27*
%TO.C,R2*%
X29697500Y69850000D03*
X32622500Y69850000D03*
%TD*%
%TO.C,R7*%
X102522331Y80010000D03*
X105447331Y80010000D03*
%TD*%
D26*
%TO.C,AC24-IN1*%
X14602500Y22340000D03*
D10*
X18482500Y22340000D03*
%TD*%
D12*
%TO.C,Q4*%
X66090000Y67050000D03*
D13*
X72390000Y64770000D03*
D12*
X66090000Y62490000D03*
%TD*%
D27*
%TO.C,R9*%
X102522331Y74930000D03*
X105447331Y74930000D03*
%TD*%
D30*
%TO.C,D4*%
X28670000Y32550000D03*
X24670000Y32550000D03*
%TD*%
D12*
%TO.C,Q5*%
X83697000Y67305000D03*
D13*
X89997000Y65025000D03*
D12*
X83697000Y62745000D03*
%TD*%
D27*
%TO.C,R6*%
X100817500Y69850000D03*
X103742500Y69850000D03*
%TD*%
D31*
%TO.C,EXT/PROG*%
X124460000Y46990000D03*
D32*
X125730000Y46990000D03*
X124460000Y45720000D03*
X125730000Y45720000D03*
X124460000Y44450000D03*
X125730000Y44450000D03*
%TD*%
D10*
%TO.C,K6*%
X107950000Y57330000D03*
D11*
X101900000Y55380000D03*
D10*
X101900000Y43180000D03*
X113950000Y43130000D03*
D11*
X113900000Y55380000D03*
%TD*%
D10*
%TO.C,K2*%
X37338000Y57330000D03*
D11*
X31288000Y55380000D03*
D10*
X31288000Y43180000D03*
X43338000Y43130000D03*
D11*
X43288000Y55380000D03*
%TD*%
D12*
%TO.C,Q1*%
X13085000Y66931105D03*
D13*
X19385000Y64651105D03*
D12*
X13085000Y62371105D03*
%TD*%
D30*
%TO.C,D5*%
X38830000Y22390000D03*
X34830000Y22390000D03*
%TD*%
D27*
%TO.C,R5*%
X83164500Y69850000D03*
X86089500Y69850000D03*
%TD*%
D26*
%TO.C,J4*%
X115813500Y22340000D03*
D10*
X119693500Y22340000D03*
%TD*%
%TO.C,K3*%
X54991000Y57330000D03*
D11*
X48941000Y55380000D03*
D10*
X48941000Y43180000D03*
X60991000Y43130000D03*
D11*
X60941000Y55380000D03*
%TD*%
D27*
%TO.C,R4*%
X65847500Y69850000D03*
X68772500Y69850000D03*
%TD*%
D17*
%TO.C,C2*%
X87630000Y33330000D03*
X87630000Y34290000D03*
%TD*%
D33*
%TO.C,L1*%
X70445560Y20076438D03*
X70445560Y29976438D03*
%TD*%
D26*
%TO.C,J5*%
X125420500Y22340000D03*
D10*
X129300500Y22340000D03*
%TD*%
M02*
