%TF.GenerationSoftware,KiCad,Pcbnew,7.0.8*%
%TF.CreationDate,2023-10-12T20:46:22+03:00*%
%TF.ProjectId,sprinklers,73707269-6e6b-46c6-9572-732e6b696361,1.0.5*%
%TF.SameCoordinates,Original*%
%TF.FileFunction,Paste,Top*%
%TF.FilePolarity,Positive*%
%FSLAX46Y46*%
G04 Gerber Fmt 4.6, Leading zero omitted, Abs format (unit mm)*
G04 Created by KiCad (PCBNEW 7.0.8) date 2023-10-12 20:46:22*
%MOMM*%
%LPD*%
G01*
G04 APERTURE LIST*
G04 Aperture macros list*
%AMRoundRect*
0 Rectangle with rounded corners*
0 $1 Rounding radius*
0 $2 $3 $4 $5 $6 $7 $8 $9 X,Y pos of 4 corners*
0 Add a 4 corners polygon primitive as box body*
4,1,4,$2,$3,$4,$5,$6,$7,$8,$9,$2,$3,0*
0 Add four circle primitives for the rounded corners*
1,1,$1+$1,$2,$3*
1,1,$1+$1,$4,$5*
1,1,$1+$1,$6,$7*
1,1,$1+$1,$8,$9*
0 Add four rect primitives between the rounded corners*
20,1,$1+$1,$2,$3,$4,$5,0*
20,1,$1+$1,$4,$5,$6,$7,0*
20,1,$1+$1,$6,$7,$8,$9,0*
20,1,$1+$1,$8,$9,$2,$3,0*%
G04 Aperture macros list end*
%ADD10R,3.050000X2.750000*%
%ADD11R,2.200000X1.200000*%
%ADD12RoundRect,0.147500X-0.147500X-0.172500X0.147500X-0.172500X0.147500X0.172500X-0.147500X0.172500X0*%
%ADD13RoundRect,0.140000X0.170000X-0.140000X0.170000X0.140000X-0.170000X0.140000X-0.170000X-0.140000X0*%
%ADD14R,0.900000X1.500000*%
%ADD15R,1.500000X0.900000*%
%ADD16R,0.900000X0.900000*%
%ADD17RoundRect,0.250000X-2.050000X-0.300000X2.050000X-0.300000X2.050000X0.300000X-2.050000X0.300000X0*%
%ADD18RoundRect,0.250000X-2.025000X-2.375000X2.025000X-2.375000X2.025000X2.375000X-2.025000X2.375000X0*%
%ADD19RoundRect,0.250000X-0.312500X-0.625000X0.312500X-0.625000X0.312500X0.625000X-0.312500X0.625000X0*%
%ADD20R,2.000000X1.500000*%
%ADD21R,2.000000X3.800000*%
%ADD22RoundRect,0.250000X1.000000X0.650000X-1.000000X0.650000X-1.000000X-0.650000X1.000000X-0.650000X0*%
%ADD23R,5.400000X2.900000*%
G04 APERTURE END LIST*
D10*
%TO.C,Q2*%
X34855000Y66295000D03*
X34855000Y63245000D03*
X38205000Y66295000D03*
X38205000Y63245000D03*
D11*
X30230000Y67050000D03*
X30230000Y62490000D03*
%TD*%
D10*
%TO.C,Q6*%
X105975000Y66555000D03*
X105975000Y63505000D03*
X109325000Y66555000D03*
X109325000Y63505000D03*
D11*
X101350000Y67310000D03*
X101350000Y62750000D03*
%TD*%
D12*
%TO.C,D3*%
X108590436Y80010000D03*
X109560436Y80010000D03*
%TD*%
D13*
%TO.C,C4*%
X101600000Y33810000D03*
X101600000Y34770000D03*
%TD*%
%TO.C,C1*%
X86360000Y33330000D03*
X86360000Y34290000D03*
%TD*%
D14*
%TO.C,U2*%
X134620000Y79730000D03*
X133350000Y79730000D03*
X132080000Y79730000D03*
X130810000Y79730000D03*
X129540000Y79730000D03*
X128270000Y79730000D03*
X127000000Y79730000D03*
X125730000Y79730000D03*
X124460000Y79730000D03*
X123190000Y79730000D03*
X121920000Y79730000D03*
X120650000Y79730000D03*
X119380000Y79730000D03*
X118110000Y79730000D03*
D15*
X116860000Y76690000D03*
X116860000Y75420000D03*
X116860000Y74150000D03*
X116860000Y72880000D03*
X116860000Y71610000D03*
X116860000Y70340000D03*
X116860000Y69070000D03*
X116860000Y67800000D03*
X116860000Y66530000D03*
X116860000Y65260000D03*
D14*
X118110000Y62230000D03*
X119380000Y62230000D03*
X120650000Y62230000D03*
X121920000Y62230000D03*
X123190000Y62230000D03*
X124460000Y62230000D03*
X125730000Y62230000D03*
X127000000Y62230000D03*
X128270000Y62230000D03*
X129540000Y62230000D03*
X130810000Y62230000D03*
X132080000Y62230000D03*
X133350000Y62230000D03*
X134620000Y62230000D03*
D16*
X128300000Y73880000D03*
X126900000Y73880000D03*
X125500000Y73880000D03*
X128300000Y72480000D03*
X126900000Y72480000D03*
X125500000Y72480000D03*
X128300000Y71080000D03*
X126900000Y71080000D03*
X125500000Y71080000D03*
%TD*%
D17*
%TO.C,U1*%
X47885000Y27295000D03*
X47885000Y25595000D03*
X47885000Y23895000D03*
D18*
X54610000Y26670000D03*
X54610000Y21120000D03*
X59460000Y26670000D03*
X59460000Y21120000D03*
D17*
X47885000Y22195000D03*
X47885000Y20495000D03*
%TD*%
D12*
%TO.C,D2*%
X108590436Y77470000D03*
X109560436Y77470000D03*
%TD*%
D19*
%TO.C,R3*%
X48067500Y69850000D03*
X50992500Y69850000D03*
%TD*%
D20*
%TO.C,U3*%
X91440000Y34050000D03*
X91440000Y31750000D03*
D21*
X97740000Y31750000D03*
D20*
X91440000Y29450000D03*
%TD*%
D10*
%TO.C,Q3*%
X53340000Y66550000D03*
X53340000Y63500000D03*
X56690000Y66550000D03*
X56690000Y63500000D03*
D11*
X48715000Y67305000D03*
X48715000Y62745000D03*
%TD*%
D13*
%TO.C,C3*%
X100330000Y33810000D03*
X100330000Y34770000D03*
%TD*%
D19*
%TO.C,R8*%
X102522331Y77470000D03*
X105447331Y77470000D03*
%TD*%
%TO.C,R1*%
X12552500Y69850000D03*
X15477500Y69850000D03*
%TD*%
D12*
%TO.C,D1*%
X108590436Y74930000D03*
X109560436Y74930000D03*
%TD*%
D19*
%TO.C,R2*%
X29697500Y69850000D03*
X32622500Y69850000D03*
%TD*%
%TO.C,R7*%
X102522331Y80010000D03*
X105447331Y80010000D03*
%TD*%
D10*
%TO.C,Q4*%
X70715000Y66295000D03*
X70715000Y63245000D03*
X74065000Y66295000D03*
X74065000Y63245000D03*
D11*
X66090000Y67050000D03*
X66090000Y62490000D03*
%TD*%
D19*
%TO.C,R9*%
X102522331Y74930000D03*
X105447331Y74930000D03*
%TD*%
D22*
%TO.C,D4*%
X28670000Y32550000D03*
X24670000Y32550000D03*
%TD*%
D10*
%TO.C,Q5*%
X88322000Y66550000D03*
X88322000Y63500000D03*
X91672000Y66550000D03*
X91672000Y63500000D03*
D11*
X83697000Y67305000D03*
X83697000Y62745000D03*
%TD*%
D19*
%TO.C,R6*%
X100817500Y69850000D03*
X103742500Y69850000D03*
%TD*%
D10*
%TO.C,Q1*%
X17710000Y66176105D03*
X17710000Y63126105D03*
X21060000Y66176105D03*
X21060000Y63126105D03*
D11*
X13085000Y66931105D03*
X13085000Y62371105D03*
%TD*%
D22*
%TO.C,D5*%
X38830000Y22390000D03*
X34830000Y22390000D03*
%TD*%
D19*
%TO.C,R5*%
X83164500Y69850000D03*
X86089500Y69850000D03*
%TD*%
%TO.C,R4*%
X65847500Y69850000D03*
X68772500Y69850000D03*
%TD*%
D13*
%TO.C,C2*%
X87630000Y33330000D03*
X87630000Y34290000D03*
%TD*%
D23*
%TO.C,L1*%
X70445560Y20076438D03*
X70445560Y29976438D03*
%TD*%
M02*
