%TF.GenerationSoftware,KiCad,Pcbnew,7.0.8*%
%TF.CreationDate,2023-11-04T16:43:43+02:00*%
%TF.ProjectId,sprinklers,73707269-6e6b-46c6-9572-732e6b696361,1.1.0*%
%TF.SameCoordinates,Original*%
%TF.FileFunction,Soldermask,Bot*%
%TF.FilePolarity,Negative*%
%FSLAX46Y46*%
G04 Gerber Fmt 4.6, Leading zero omitted, Abs format (unit mm)*
G04 Created by KiCad (PCBNEW 7.0.8) date 2023-11-04 16:43:43*
%MOMM*%
%LPD*%
G01*
G04 APERTURE LIST*
%ADD10C,3.000000*%
%ADD11C,2.500000*%
%ADD12R,3.000000X3.000000*%
%ADD13C,1.440000*%
%ADD14O,1.700000X1.700000*%
%ADD15R,1.700000X1.700000*%
%ADD16R,1.600000X1.600000*%
%ADD17C,1.600000*%
%ADD18R,1.000000X1.000000*%
%ADD19O,1.000000X1.000000*%
G04 APERTURE END LIST*
D10*
%TO.C,K3*%
X52451000Y60636000D03*
D11*
X46401000Y58686000D03*
D10*
X46401000Y46486000D03*
X58451000Y46436000D03*
D11*
X58401000Y58686000D03*
%TD*%
D10*
%TO.C,K4*%
X70104000Y60636000D03*
D11*
X64054000Y58686000D03*
D10*
X64054000Y46486000D03*
X76104000Y46436000D03*
D11*
X76054000Y58686000D03*
%TD*%
D10*
%TO.C,K2*%
X34798000Y60636000D03*
D11*
X28748000Y58686000D03*
D10*
X28748000Y46486000D03*
X40798000Y46436000D03*
D11*
X40748000Y58686000D03*
%TD*%
D12*
%TO.C,AC24-IN1*%
X12062500Y25646000D03*
D10*
X15942500Y25646000D03*
%TD*%
D13*
%TO.C,RV1*%
X107950000Y35056000D03*
X110490000Y37596000D03*
X113030000Y35056000D03*
%TD*%
D14*
%TO.C,5V 3V3 GND*%
X124460000Y41416797D03*
D15*
X124460000Y38876797D03*
X124460000Y36336797D03*
%TD*%
D14*
%TO.C,7  6  5  G*%
X129418733Y90181720D03*
X126878733Y90181720D03*
X124338733Y90181720D03*
X121798733Y90181720D03*
%TD*%
D12*
%TO.C,J4*%
X109056000Y25646000D03*
D10*
X112936000Y25646000D03*
%TD*%
%TO.C,K5*%
X87757000Y60636000D03*
D11*
X81707000Y58686000D03*
D10*
X81707000Y46486000D03*
X93757000Y46436000D03*
D11*
X93707000Y58686000D03*
%TD*%
D16*
%TO.C,C5*%
X26670000Y24586000D03*
D17*
X26670000Y21086000D03*
%TD*%
D16*
%TO.C,C6*%
X34290000Y32046000D03*
D17*
X34290000Y35546000D03*
%TD*%
D14*
%TO.C,26 27 28 29*%
X116128792Y62167496D03*
X116128792Y59627496D03*
X116128792Y57087496D03*
X116128792Y54547496D03*
%TD*%
D10*
%TO.C,K1*%
X17145000Y60636000D03*
D11*
X11095000Y58686000D03*
D10*
X11095000Y46486000D03*
X23145000Y46436000D03*
D11*
X23095000Y58686000D03*
%TD*%
D12*
%TO.C,J5*%
X118663000Y25646000D03*
D10*
X122543000Y25646000D03*
%TD*%
D12*
%TO.C,SENSOR1*%
X133786501Y34065998D03*
D10*
X133786501Y37945998D03*
%TD*%
D18*
%TO.C,EXT/PROG*%
X121916833Y50340286D03*
D19*
X123186833Y50340286D03*
X121916833Y49070286D03*
X123186833Y49070286D03*
X121916833Y47800286D03*
X123186833Y47800286D03*
%TD*%
D12*
%TO.C,J2*%
X89842000Y25646000D03*
D10*
X93722000Y25646000D03*
%TD*%
D19*
%TO.C,*%
X121916833Y47800286D03*
%TD*%
D12*
%TO.C,J3*%
X99449000Y25646000D03*
D10*
X103329000Y25646000D03*
%TD*%
D12*
%TO.C,J6*%
X128270000Y25646000D03*
D10*
X132150000Y25646000D03*
%TD*%
D12*
%TO.C,J1*%
X80235000Y25646000D03*
D10*
X84115000Y25646000D03*
%TD*%
%TO.C,K6*%
X105410000Y60636000D03*
D11*
X99360000Y58686000D03*
D10*
X99360000Y46486000D03*
X111410000Y46436000D03*
D11*
X111360000Y58686000D03*
%TD*%
M02*
