%TF.GenerationSoftware,KiCad,Pcbnew,7.0.8*%
%TF.CreationDate,2023-10-11T12:41:40+03:00*%
%TF.ProjectId,sprinklers,73707269-6e6b-46c6-9572-732e6b696361,rev?*%
%TF.SameCoordinates,Original*%
%TF.FileFunction,Paste,Top*%
%TF.FilePolarity,Positive*%
%FSLAX46Y46*%
G04 Gerber Fmt 4.6, Leading zero omitted, Abs format (unit mm)*
G04 Created by KiCad (PCBNEW 7.0.8) date 2023-10-11 12:41:40*
%MOMM*%
%LPD*%
G01*
G04 APERTURE LIST*
G04 Aperture macros list*
%AMRoundRect*
0 Rectangle with rounded corners*
0 $1 Rounding radius*
0 $2 $3 $4 $5 $6 $7 $8 $9 X,Y pos of 4 corners*
0 Add a 4 corners polygon primitive as box body*
4,1,4,$2,$3,$4,$5,$6,$7,$8,$9,$2,$3,0*
0 Add four circle primitives for the rounded corners*
1,1,$1+$1,$2,$3*
1,1,$1+$1,$4,$5*
1,1,$1+$1,$6,$7*
1,1,$1+$1,$8,$9*
0 Add four rect primitives between the rounded corners*
20,1,$1+$1,$2,$3,$4,$5,0*
20,1,$1+$1,$4,$5,$6,$7,0*
20,1,$1+$1,$6,$7,$8,$9,0*
20,1,$1+$1,$8,$9,$2,$3,0*%
G04 Aperture macros list end*
%ADD10R,2.200000X1.200000*%
%ADD11R,3.050000X2.750000*%
%ADD12R,2.000000X1.500000*%
%ADD13R,2.000000X3.800000*%
%ADD14RoundRect,0.140000X-0.140000X-0.170000X0.140000X-0.170000X0.140000X0.170000X-0.140000X0.170000X0*%
%ADD15RoundRect,0.147500X-0.147500X-0.172500X0.147500X-0.172500X0.147500X0.172500X-0.147500X0.172500X0*%
%ADD16R,0.900000X1.500000*%
%ADD17R,1.500000X0.900000*%
%ADD18R,0.900000X0.900000*%
%ADD19RoundRect,0.250000X-0.312500X-0.625000X0.312500X-0.625000X0.312500X0.625000X-0.312500X0.625000X0*%
G04 APERTURE END LIST*
D10*
%TO.C,Q6*%
X51680000Y-164090000D03*
X51680000Y-168650000D03*
D11*
X59655000Y-167895000D03*
X56305000Y-164845000D03*
X59655000Y-164845000D03*
X56305000Y-167895000D03*
%TD*%
D10*
%TO.C,Q5*%
X51020000Y-156465000D03*
X51020000Y-161025000D03*
D11*
X58995000Y-160270000D03*
X55645000Y-157220000D03*
X58995000Y-157220000D03*
X55645000Y-160270000D03*
%TD*%
D10*
%TO.C,Q4*%
X51020000Y-150015000D03*
X51020000Y-154575000D03*
D11*
X58995000Y-153820000D03*
X55645000Y-150770000D03*
X58995000Y-150770000D03*
X55645000Y-153820000D03*
%TD*%
D10*
%TO.C,Q3*%
X82195000Y-140215000D03*
X82195000Y-144775000D03*
D11*
X90170000Y-144020000D03*
X86820000Y-140970000D03*
X90170000Y-140970000D03*
X86820000Y-144020000D03*
%TD*%
D10*
%TO.C,Q2*%
X52290000Y-42075000D03*
X52290000Y-46635000D03*
D11*
X60265000Y-45880000D03*
X56915000Y-42830000D03*
X60265000Y-42830000D03*
X56915000Y-45880000D03*
%TD*%
D10*
%TO.C,Q1*%
X98705000Y-43185000D03*
X98705000Y-47745000D03*
D11*
X106680000Y-46990000D03*
X103330000Y-43940000D03*
X106680000Y-43940000D03*
X103330000Y-46990000D03*
%TD*%
D10*
%TO.C,REF\u002A\u002A*%
X80890000Y-22105000D03*
X80890000Y-26665000D03*
D11*
X88865000Y-25910000D03*
X85515000Y-22860000D03*
X88865000Y-22860000D03*
X85515000Y-25910000D03*
%TD*%
D12*
%TO.C,U3*%
X69240000Y-59930000D03*
D13*
X75540000Y-62230000D03*
D12*
X69240000Y-62230000D03*
X69240000Y-64530000D03*
%TD*%
D14*
%TO.C,C1*%
X108977500Y-64770000D03*
X109937500Y-64770000D03*
%TD*%
D15*
%TO.C,D3*%
X109227500Y-80370000D03*
X110197500Y-80370000D03*
%TD*%
D14*
%TO.C,C4*%
X123980000Y-67310000D03*
X124940000Y-67310000D03*
%TD*%
D16*
%TO.C,U2*%
X245880000Y-54110000D03*
X244610000Y-54110000D03*
X243340000Y-54110000D03*
X242070000Y-54110000D03*
X240800000Y-54110000D03*
X239530000Y-54110000D03*
X238260000Y-54110000D03*
X236990000Y-54110000D03*
X235720000Y-54110000D03*
X234450000Y-54110000D03*
X233180000Y-54110000D03*
X231910000Y-54110000D03*
X230640000Y-54110000D03*
X229370000Y-54110000D03*
D17*
X228120000Y-57150000D03*
X228120000Y-58420000D03*
X228120000Y-59690000D03*
X228120000Y-60960000D03*
X228120000Y-62230000D03*
X228120000Y-63500000D03*
X228120000Y-64770000D03*
X228120000Y-66040000D03*
X228120000Y-67310000D03*
X228120000Y-68580000D03*
D16*
X229370000Y-71610000D03*
X230640000Y-71610000D03*
X231910000Y-71610000D03*
X233180000Y-71610000D03*
X234450000Y-71610000D03*
X235720000Y-71610000D03*
X236990000Y-71610000D03*
X238260000Y-71610000D03*
X239530000Y-71610000D03*
X240800000Y-71610000D03*
X242070000Y-71610000D03*
X243340000Y-71610000D03*
X244610000Y-71610000D03*
X245880000Y-71610000D03*
D18*
X239560000Y-59960000D03*
X238160000Y-59960000D03*
X236760000Y-59960000D03*
X239560000Y-61360000D03*
X238160000Y-61360000D03*
X236760000Y-61360000D03*
X239560000Y-62760000D03*
X238160000Y-62760000D03*
X236760000Y-62760000D03*
%TD*%
D15*
%TO.C,D2*%
X109227500Y-78380000D03*
X110197500Y-78380000D03*
%TD*%
D19*
%TO.C,R3*%
X103755000Y-75740000D03*
X106680000Y-75740000D03*
%TD*%
D14*
%TO.C,C3*%
X120650000Y-63500000D03*
X119690000Y-63500000D03*
%TD*%
D19*
%TO.C,R8*%
X103755000Y-85610000D03*
X106680000Y-85610000D03*
%TD*%
%TO.C,R1*%
X103755000Y-69160000D03*
X106680000Y-69160000D03*
%TD*%
D15*
%TO.C,D1*%
X109227500Y-76390000D03*
X110197500Y-76390000D03*
%TD*%
D19*
%TO.C,R2*%
X103755000Y-72450000D03*
X106680000Y-72450000D03*
%TD*%
%TO.C,R7*%
X103755000Y-82320000D03*
X106680000Y-82320000D03*
%TD*%
%TO.C,R9*%
X103755000Y-88900000D03*
X106680000Y-88900000D03*
%TD*%
%TO.C,R6*%
X103755000Y-79030000D03*
X106680000Y-79030000D03*
%TD*%
%TO.C,R5*%
X64577500Y-49530000D03*
X67502500Y-49530000D03*
%TD*%
%TO.C,R4*%
X99945000Y-22860000D03*
X102870000Y-22860000D03*
%TD*%
D14*
%TO.C,C2*%
X113820000Y-63500000D03*
X114780000Y-63500000D03*
%TD*%
M02*
