%TF.GenerationSoftware,KiCad,Pcbnew,7.0.8*%
%TF.CreationDate,2023-10-12T20:46:22+03:00*%
%TF.ProjectId,sprinklers,73707269-6e6b-46c6-9572-732e6b696361,1.0.5*%
%TF.SameCoordinates,Original*%
%TF.FileFunction,Legend,Top*%
%TF.FilePolarity,Positive*%
%FSLAX46Y46*%
G04 Gerber Fmt 4.6, Leading zero omitted, Abs format (unit mm)*
G04 Created by KiCad (PCBNEW 7.0.8) date 2023-10-12 20:46:22*
%MOMM*%
%LPD*%
G01*
G04 APERTURE LIST*
G04 Aperture macros list*
%AMRoundRect*
0 Rectangle with rounded corners*
0 $1 Rounding radius*
0 $2 $3 $4 $5 $6 $7 $8 $9 X,Y pos of 4 corners*
0 Add a 4 corners polygon primitive as box body*
4,1,4,$2,$3,$4,$5,$6,$7,$8,$9,$2,$3,0*
0 Add four circle primitives for the rounded corners*
1,1,$1+$1,$2,$3*
1,1,$1+$1,$4,$5*
1,1,$1+$1,$6,$7*
1,1,$1+$1,$8,$9*
0 Add four rect primitives between the rounded corners*
20,1,$1+$1,$2,$3,$4,$5,0*
20,1,$1+$1,$4,$5,$6,$7,0*
20,1,$1+$1,$6,$7,$8,$9,0*
20,1,$1+$1,$8,$9,$2,$3,0*%
G04 Aperture macros list end*
%ADD10C,0.125000*%
%ADD11C,0.400000*%
%ADD12C,0.150000*%
%ADD13C,0.120000*%
%ADD14C,0.100000*%
%ADD15C,3.000000*%
%ADD16C,2.500000*%
%ADD17R,2.200000X1.200000*%
%ADD18R,6.400000X5.800000*%
%ADD19RoundRect,0.147500X-0.147500X-0.172500X0.147500X-0.172500X0.147500X0.172500X-0.147500X0.172500X0*%
%ADD20R,1.700000X1.700000*%
%ADD21O,1.700000X1.700000*%
%ADD22RoundRect,0.140000X0.170000X-0.140000X0.170000X0.140000X-0.170000X0.140000X-0.170000X-0.140000X0*%
%ADD23R,0.900000X1.500000*%
%ADD24R,1.500000X0.900000*%
%ADD25C,0.600000*%
%ADD26R,3.800000X3.800000*%
%ADD27RoundRect,0.250000X-2.050000X-0.300000X2.050000X-0.300000X2.050000X0.300000X-2.050000X0.300000X0*%
%ADD28RoundRect,0.250002X-4.449998X-5.149998X4.449998X-5.149998X4.449998X5.149998X-4.449998X5.149998X0*%
%ADD29R,1.600000X1.600000*%
%ADD30C,1.600000*%
%ADD31R,3.000000X3.000000*%
%ADD32RoundRect,0.250000X-0.312500X-0.625000X0.312500X-0.625000X0.312500X0.625000X-0.312500X0.625000X0*%
%ADD33R,2.000000X1.500000*%
%ADD34R,2.000000X3.800000*%
%ADD35RoundRect,0.250000X1.000000X0.650000X-1.000000X0.650000X-1.000000X-0.650000X1.000000X-0.650000X0*%
%ADD36R,1.000000X1.000000*%
%ADD37O,1.000000X1.000000*%
%ADD38R,5.400000X2.900000*%
G04 APERTURE END LIST*
D10*
X121813833Y44058362D02*
X121547166Y44439315D01*
X121356690Y44058362D02*
X121356690Y44858362D01*
X121356690Y44858362D02*
X121661452Y44858362D01*
X121661452Y44858362D02*
X121737642Y44820267D01*
X121737642Y44820267D02*
X121775737Y44782172D01*
X121775737Y44782172D02*
X121813833Y44705981D01*
X121813833Y44705981D02*
X121813833Y44591696D01*
X121813833Y44591696D02*
X121775737Y44515505D01*
X121775737Y44515505D02*
X121737642Y44477410D01*
X121737642Y44477410D02*
X121661452Y44439315D01*
X121661452Y44439315D02*
X121356690Y44439315D01*
X122080499Y44858362D02*
X122613833Y44058362D01*
X122613833Y44858362D02*
X122080499Y44058362D01*
D11*
X26900002Y86890800D02*
X27328574Y86747943D01*
X27328574Y86747943D02*
X28042859Y86747943D01*
X28042859Y86747943D02*
X28328574Y86890800D01*
X28328574Y86890800D02*
X28471431Y87033658D01*
X28471431Y87033658D02*
X28614288Y87319372D01*
X28614288Y87319372D02*
X28614288Y87605086D01*
X28614288Y87605086D02*
X28471431Y87890800D01*
X28471431Y87890800D02*
X28328574Y88033658D01*
X28328574Y88033658D02*
X28042859Y88176515D01*
X28042859Y88176515D02*
X27471431Y88319372D01*
X27471431Y88319372D02*
X27185716Y88462229D01*
X27185716Y88462229D02*
X27042859Y88605086D01*
X27042859Y88605086D02*
X26900002Y88890800D01*
X26900002Y88890800D02*
X26900002Y89176515D01*
X26900002Y89176515D02*
X27042859Y89462229D01*
X27042859Y89462229D02*
X27185716Y89605086D01*
X27185716Y89605086D02*
X27471431Y89747943D01*
X27471431Y89747943D02*
X28185716Y89747943D01*
X28185716Y89747943D02*
X28614288Y89605086D01*
X29900002Y86747943D02*
X29900002Y89747943D01*
X29900002Y89747943D02*
X31042859Y89747943D01*
X31042859Y89747943D02*
X31328574Y89605086D01*
X31328574Y89605086D02*
X31471431Y89462229D01*
X31471431Y89462229D02*
X31614288Y89176515D01*
X31614288Y89176515D02*
X31614288Y88747943D01*
X31614288Y88747943D02*
X31471431Y88462229D01*
X31471431Y88462229D02*
X31328574Y88319372D01*
X31328574Y88319372D02*
X31042859Y88176515D01*
X31042859Y88176515D02*
X29900002Y88176515D01*
X34614288Y86747943D02*
X33614288Y88176515D01*
X32900002Y86747943D02*
X32900002Y89747943D01*
X32900002Y89747943D02*
X34042859Y89747943D01*
X34042859Y89747943D02*
X34328574Y89605086D01*
X34328574Y89605086D02*
X34471431Y89462229D01*
X34471431Y89462229D02*
X34614288Y89176515D01*
X34614288Y89176515D02*
X34614288Y88747943D01*
X34614288Y88747943D02*
X34471431Y88462229D01*
X34471431Y88462229D02*
X34328574Y88319372D01*
X34328574Y88319372D02*
X34042859Y88176515D01*
X34042859Y88176515D02*
X32900002Y88176515D01*
X35900002Y86747943D02*
X35900002Y89747943D01*
X37328573Y86747943D02*
X37328573Y89747943D01*
X37328573Y89747943D02*
X39042859Y86747943D01*
X39042859Y86747943D02*
X39042859Y89747943D01*
X40471430Y86747943D02*
X40471430Y89747943D01*
X42185716Y86747943D02*
X40900002Y88462229D01*
X42185716Y89747943D02*
X40471430Y88033658D01*
X44900002Y86747943D02*
X43471430Y86747943D01*
X43471430Y86747943D02*
X43471430Y89747943D01*
X45900001Y88319372D02*
X46900001Y88319372D01*
X47328573Y86747943D02*
X45900001Y86747943D01*
X45900001Y86747943D02*
X45900001Y89747943D01*
X45900001Y89747943D02*
X47328573Y89747943D01*
X50328573Y86747943D02*
X49328573Y88176515D01*
X48614287Y86747943D02*
X48614287Y89747943D01*
X48614287Y89747943D02*
X49757144Y89747943D01*
X49757144Y89747943D02*
X50042859Y89605086D01*
X50042859Y89605086D02*
X50185716Y89462229D01*
X50185716Y89462229D02*
X50328573Y89176515D01*
X50328573Y89176515D02*
X50328573Y88747943D01*
X50328573Y88747943D02*
X50185716Y88462229D01*
X50185716Y88462229D02*
X50042859Y88319372D01*
X50042859Y88319372D02*
X49757144Y88176515D01*
X49757144Y88176515D02*
X48614287Y88176515D01*
X51471430Y86890800D02*
X51900002Y86747943D01*
X51900002Y86747943D02*
X52614287Y86747943D01*
X52614287Y86747943D02*
X52900002Y86890800D01*
X52900002Y86890800D02*
X53042859Y87033658D01*
X53042859Y87033658D02*
X53185716Y87319372D01*
X53185716Y87319372D02*
X53185716Y87605086D01*
X53185716Y87605086D02*
X53042859Y87890800D01*
X53042859Y87890800D02*
X52900002Y88033658D01*
X52900002Y88033658D02*
X52614287Y88176515D01*
X52614287Y88176515D02*
X52042859Y88319372D01*
X52042859Y88319372D02*
X51757144Y88462229D01*
X51757144Y88462229D02*
X51614287Y88605086D01*
X51614287Y88605086D02*
X51471430Y88890800D01*
X51471430Y88890800D02*
X51471430Y89176515D01*
X51471430Y89176515D02*
X51614287Y89462229D01*
X51614287Y89462229D02*
X51757144Y89605086D01*
X51757144Y89605086D02*
X52042859Y89747943D01*
X52042859Y89747943D02*
X52757144Y89747943D01*
X52757144Y89747943D02*
X53185716Y89605086D01*
X58471430Y87033658D02*
X58328573Y86890800D01*
X58328573Y86890800D02*
X57900001Y86747943D01*
X57900001Y86747943D02*
X57614287Y86747943D01*
X57614287Y86747943D02*
X57185716Y86890800D01*
X57185716Y86890800D02*
X56900001Y87176515D01*
X56900001Y87176515D02*
X56757144Y87462229D01*
X56757144Y87462229D02*
X56614287Y88033658D01*
X56614287Y88033658D02*
X56614287Y88462229D01*
X56614287Y88462229D02*
X56757144Y89033658D01*
X56757144Y89033658D02*
X56900001Y89319372D01*
X56900001Y89319372D02*
X57185716Y89605086D01*
X57185716Y89605086D02*
X57614287Y89747943D01*
X57614287Y89747943D02*
X57900001Y89747943D01*
X57900001Y89747943D02*
X58328573Y89605086D01*
X58328573Y89605086D02*
X58471430Y89462229D01*
X60328573Y89747943D02*
X60900001Y89747943D01*
X60900001Y89747943D02*
X61185716Y89605086D01*
X61185716Y89605086D02*
X61471430Y89319372D01*
X61471430Y89319372D02*
X61614287Y88747943D01*
X61614287Y88747943D02*
X61614287Y87747943D01*
X61614287Y87747943D02*
X61471430Y87176515D01*
X61471430Y87176515D02*
X61185716Y86890800D01*
X61185716Y86890800D02*
X60900001Y86747943D01*
X60900001Y86747943D02*
X60328573Y86747943D01*
X60328573Y86747943D02*
X60042859Y86890800D01*
X60042859Y86890800D02*
X59757144Y87176515D01*
X59757144Y87176515D02*
X59614287Y87747943D01*
X59614287Y87747943D02*
X59614287Y88747943D01*
X59614287Y88747943D02*
X59757144Y89319372D01*
X59757144Y89319372D02*
X60042859Y89605086D01*
X60042859Y89605086D02*
X60328573Y89747943D01*
X62900001Y86747943D02*
X62900001Y89747943D01*
X62900001Y89747943D02*
X64614287Y86747943D01*
X64614287Y86747943D02*
X64614287Y89747943D01*
X65614287Y89747943D02*
X67328573Y89747943D01*
X66471430Y86747943D02*
X66471430Y89747943D01*
X70042858Y86747943D02*
X69042858Y88176515D01*
X68328572Y86747943D02*
X68328572Y89747943D01*
X68328572Y89747943D02*
X69471429Y89747943D01*
X69471429Y89747943D02*
X69757144Y89605086D01*
X69757144Y89605086D02*
X69900001Y89462229D01*
X69900001Y89462229D02*
X70042858Y89176515D01*
X70042858Y89176515D02*
X70042858Y88747943D01*
X70042858Y88747943D02*
X69900001Y88462229D01*
X69900001Y88462229D02*
X69757144Y88319372D01*
X69757144Y88319372D02*
X69471429Y88176515D01*
X69471429Y88176515D02*
X68328572Y88176515D01*
X71900001Y89747943D02*
X72471429Y89747943D01*
X72471429Y89747943D02*
X72757144Y89605086D01*
X72757144Y89605086D02*
X73042858Y89319372D01*
X73042858Y89319372D02*
X73185715Y88747943D01*
X73185715Y88747943D02*
X73185715Y87747943D01*
X73185715Y87747943D02*
X73042858Y87176515D01*
X73042858Y87176515D02*
X72757144Y86890800D01*
X72757144Y86890800D02*
X72471429Y86747943D01*
X72471429Y86747943D02*
X71900001Y86747943D01*
X71900001Y86747943D02*
X71614287Y86890800D01*
X71614287Y86890800D02*
X71328572Y87176515D01*
X71328572Y87176515D02*
X71185715Y87747943D01*
X71185715Y87747943D02*
X71185715Y88747943D01*
X71185715Y88747943D02*
X71328572Y89319372D01*
X71328572Y89319372D02*
X71614287Y89605086D01*
X71614287Y89605086D02*
X71900001Y89747943D01*
X75900001Y86747943D02*
X74471429Y86747943D01*
X74471429Y86747943D02*
X74471429Y89747943D01*
X78328572Y86747943D02*
X76900000Y86747943D01*
X76900000Y86747943D02*
X76900000Y89747943D01*
X79328571Y88319372D02*
X80328571Y88319372D01*
X80757143Y86747943D02*
X79328571Y86747943D01*
X79328571Y86747943D02*
X79328571Y89747943D01*
X79328571Y89747943D02*
X80757143Y89747943D01*
X83757143Y86747943D02*
X82757143Y88176515D01*
X82042857Y86747943D02*
X82042857Y89747943D01*
X82042857Y89747943D02*
X83185714Y89747943D01*
X83185714Y89747943D02*
X83471429Y89605086D01*
X83471429Y89605086D02*
X83614286Y89462229D01*
X83614286Y89462229D02*
X83757143Y89176515D01*
X83757143Y89176515D02*
X83757143Y88747943D01*
X83757143Y88747943D02*
X83614286Y88462229D01*
X83614286Y88462229D02*
X83471429Y88319372D01*
X83471429Y88319372D02*
X83185714Y88176515D01*
X83185714Y88176515D02*
X82042857Y88176515D01*
D12*
X74107731Y83289898D02*
X73441064Y84242279D01*
X72964874Y83289898D02*
X72964874Y85289898D01*
X72964874Y85289898D02*
X73726779Y85289898D01*
X73726779Y85289898D02*
X73917255Y85194660D01*
X73917255Y85194660D02*
X74012493Y85099422D01*
X74012493Y85099422D02*
X74107731Y84908946D01*
X74107731Y84908946D02*
X74107731Y84623232D01*
X74107731Y84623232D02*
X74012493Y84432756D01*
X74012493Y84432756D02*
X73917255Y84337517D01*
X73917255Y84337517D02*
X73726779Y84242279D01*
X73726779Y84242279D02*
X72964874Y84242279D01*
X74964874Y83480375D02*
X75060112Y83385136D01*
X75060112Y83385136D02*
X74964874Y83289898D01*
X74964874Y83289898D02*
X74869636Y83385136D01*
X74869636Y83385136D02*
X74964874Y83480375D01*
X74964874Y83480375D02*
X74964874Y83289898D01*
X78488684Y83289898D02*
X77345827Y83289898D01*
X77917255Y83289898D02*
X77917255Y85289898D01*
X77917255Y85289898D02*
X77726779Y85004184D01*
X77726779Y85004184D02*
X77536303Y84813708D01*
X77536303Y84813708D02*
X77345827Y84718470D01*
X79345827Y83480375D02*
X79441065Y83385136D01*
X79441065Y83385136D02*
X79345827Y83289898D01*
X79345827Y83289898D02*
X79250589Y83385136D01*
X79250589Y83385136D02*
X79345827Y83480375D01*
X79345827Y83480375D02*
X79345827Y83289898D01*
X80679160Y85289898D02*
X80869637Y85289898D01*
X80869637Y85289898D02*
X81060113Y85194660D01*
X81060113Y85194660D02*
X81155351Y85099422D01*
X81155351Y85099422D02*
X81250589Y84908946D01*
X81250589Y84908946D02*
X81345827Y84527994D01*
X81345827Y84527994D02*
X81345827Y84051803D01*
X81345827Y84051803D02*
X81250589Y83670851D01*
X81250589Y83670851D02*
X81155351Y83480375D01*
X81155351Y83480375D02*
X81060113Y83385136D01*
X81060113Y83385136D02*
X80869637Y83289898D01*
X80869637Y83289898D02*
X80679160Y83289898D01*
X80679160Y83289898D02*
X80488684Y83385136D01*
X80488684Y83385136D02*
X80393446Y83480375D01*
X80393446Y83480375D02*
X80298208Y83670851D01*
X80298208Y83670851D02*
X80202970Y84051803D01*
X80202970Y84051803D02*
X80202970Y84527994D01*
X80202970Y84527994D02*
X80298208Y84908946D01*
X80298208Y84908946D02*
X80393446Y85099422D01*
X80393446Y85099422D02*
X80488684Y85194660D01*
X80488684Y85194660D02*
X80679160Y85289898D01*
X82202970Y83480375D02*
X82298208Y83385136D01*
X82298208Y83385136D02*
X82202970Y83289898D01*
X82202970Y83289898D02*
X82107732Y83385136D01*
X82107732Y83385136D02*
X82202970Y83480375D01*
X82202970Y83480375D02*
X82202970Y83289898D01*
X84107732Y85289898D02*
X83155351Y85289898D01*
X83155351Y85289898D02*
X83060113Y84337517D01*
X83060113Y84337517D02*
X83155351Y84432756D01*
X83155351Y84432756D02*
X83345827Y84527994D01*
X83345827Y84527994D02*
X83822018Y84527994D01*
X83822018Y84527994D02*
X84012494Y84432756D01*
X84012494Y84432756D02*
X84107732Y84337517D01*
X84107732Y84337517D02*
X84202970Y84147041D01*
X84202970Y84147041D02*
X84202970Y83670851D01*
X84202970Y83670851D02*
X84107732Y83480375D01*
X84107732Y83480375D02*
X84012494Y83385136D01*
X84012494Y83385136D02*
X83822018Y83289898D01*
X83822018Y83289898D02*
X83345827Y83289898D01*
X83345827Y83289898D02*
X83155351Y83385136D01*
X83155351Y83385136D02*
X83060113Y83480375D01*
D10*
X121356689Y47017410D02*
X121623355Y47017410D01*
X121737641Y46598362D02*
X121356689Y46598362D01*
X121356689Y46598362D02*
X121356689Y47398362D01*
X121356689Y47398362D02*
X121737641Y47398362D01*
X122080499Y46598362D02*
X122080499Y47398362D01*
X122080499Y47398362D02*
X122537642Y46598362D01*
X122537642Y46598362D02*
X122537642Y47398362D01*
D12*
X28127667Y93461880D02*
X27937191Y93557118D01*
X27937191Y93557118D02*
X27651477Y93557118D01*
X27651477Y93557118D02*
X27365762Y93461880D01*
X27365762Y93461880D02*
X27175286Y93271404D01*
X27175286Y93271404D02*
X27080048Y93080928D01*
X27080048Y93080928D02*
X26984810Y92699976D01*
X26984810Y92699976D02*
X26984810Y92414261D01*
X26984810Y92414261D02*
X27080048Y92033309D01*
X27080048Y92033309D02*
X27175286Y91842833D01*
X27175286Y91842833D02*
X27365762Y91652356D01*
X27365762Y91652356D02*
X27651477Y91557118D01*
X27651477Y91557118D02*
X27841953Y91557118D01*
X27841953Y91557118D02*
X28127667Y91652356D01*
X28127667Y91652356D02*
X28222905Y91747595D01*
X28222905Y91747595D02*
X28222905Y92414261D01*
X28222905Y92414261D02*
X27841953Y92414261D01*
X29080048Y91557118D02*
X29080048Y93557118D01*
X30032429Y91557118D02*
X30032429Y93557118D01*
X30032429Y93557118D02*
X30508619Y93557118D01*
X30508619Y93557118D02*
X30794334Y93461880D01*
X30794334Y93461880D02*
X30984810Y93271404D01*
X30984810Y93271404D02*
X31080048Y93080928D01*
X31080048Y93080928D02*
X31175286Y92699976D01*
X31175286Y92699976D02*
X31175286Y92414261D01*
X31175286Y92414261D02*
X31080048Y92033309D01*
X31080048Y92033309D02*
X30984810Y91842833D01*
X30984810Y91842833D02*
X30794334Y91652356D01*
X30794334Y91652356D02*
X30508619Y91557118D01*
X30508619Y91557118D02*
X30032429Y91557118D01*
X32032429Y92604737D02*
X32699096Y92604737D01*
X32984810Y91557118D02*
X32032429Y91557118D01*
X32032429Y91557118D02*
X32032429Y93557118D01*
X32032429Y93557118D02*
X32984810Y93557118D01*
X34222905Y93557118D02*
X34603858Y93557118D01*
X34603858Y93557118D02*
X34794334Y93461880D01*
X34794334Y93461880D02*
X34984810Y93271404D01*
X34984810Y93271404D02*
X35080048Y92890452D01*
X35080048Y92890452D02*
X35080048Y92223785D01*
X35080048Y92223785D02*
X34984810Y91842833D01*
X34984810Y91842833D02*
X34794334Y91652356D01*
X34794334Y91652356D02*
X34603858Y91557118D01*
X34603858Y91557118D02*
X34222905Y91557118D01*
X34222905Y91557118D02*
X34032429Y91652356D01*
X34032429Y91652356D02*
X33841953Y91842833D01*
X33841953Y91842833D02*
X33746715Y92223785D01*
X33746715Y92223785D02*
X33746715Y92890452D01*
X33746715Y92890452D02*
X33841953Y93271404D01*
X33841953Y93271404D02*
X34032429Y93461880D01*
X34032429Y93461880D02*
X34222905Y93557118D01*
X35937191Y91557118D02*
X35937191Y93557118D01*
X35937191Y93557118D02*
X37080048Y91557118D01*
X37080048Y91557118D02*
X37080048Y93557118D01*
X38032429Y91557118D02*
X38032429Y93557118D01*
D10*
X121385261Y46128362D02*
X121842404Y46128362D01*
X121613832Y45328362D02*
X121613832Y46128362D01*
X122032880Y46128362D02*
X122566214Y45328362D01*
X122566214Y46128362D02*
X122032880Y45328362D01*
X127540174Y46903124D02*
X128149698Y46903124D01*
X127844936Y46598362D02*
X127844936Y47207886D01*
X128454459Y47398362D02*
X128949697Y47398362D01*
X128949697Y47398362D02*
X128683031Y47093600D01*
X128683031Y47093600D02*
X128797316Y47093600D01*
X128797316Y47093600D02*
X128873507Y47055505D01*
X128873507Y47055505D02*
X128911602Y47017410D01*
X128911602Y47017410D02*
X128949697Y46941219D01*
X128949697Y46941219D02*
X128949697Y46750743D01*
X128949697Y46750743D02*
X128911602Y46674553D01*
X128911602Y46674553D02*
X128873507Y46636457D01*
X128873507Y46636457D02*
X128797316Y46598362D01*
X128797316Y46598362D02*
X128568745Y46598362D01*
X128568745Y46598362D02*
X128492554Y46636457D01*
X128492554Y46636457D02*
X128454459Y46674553D01*
X129178269Y47398362D02*
X129444936Y46598362D01*
X129444936Y46598362D02*
X129711602Y47398362D01*
X129902078Y47398362D02*
X130397316Y47398362D01*
X130397316Y47398362D02*
X130130650Y47093600D01*
X130130650Y47093600D02*
X130244935Y47093600D01*
X130244935Y47093600D02*
X130321126Y47055505D01*
X130321126Y47055505D02*
X130359221Y47017410D01*
X130359221Y47017410D02*
X130397316Y46941219D01*
X130397316Y46941219D02*
X130397316Y46750743D01*
X130397316Y46750743D02*
X130359221Y46674553D01*
X130359221Y46674553D02*
X130321126Y46636457D01*
X130321126Y46636457D02*
X130244935Y46598362D01*
X130244935Y46598362D02*
X130016364Y46598362D01*
X130016364Y46598362D02*
X129940173Y46636457D01*
X129940173Y46636457D02*
X129902078Y46674553D01*
X127984485Y46090267D02*
X127908295Y46128362D01*
X127908295Y46128362D02*
X127794009Y46128362D01*
X127794009Y46128362D02*
X127679723Y46090267D01*
X127679723Y46090267D02*
X127603533Y46014077D01*
X127603533Y46014077D02*
X127565438Y45937886D01*
X127565438Y45937886D02*
X127527342Y45785505D01*
X127527342Y45785505D02*
X127527342Y45671219D01*
X127527342Y45671219D02*
X127565438Y45518838D01*
X127565438Y45518838D02*
X127603533Y45442648D01*
X127603533Y45442648D02*
X127679723Y45366457D01*
X127679723Y45366457D02*
X127794009Y45328362D01*
X127794009Y45328362D02*
X127870200Y45328362D01*
X127870200Y45328362D02*
X127984485Y45366457D01*
X127984485Y45366457D02*
X128022581Y45404553D01*
X128022581Y45404553D02*
X128022581Y45671219D01*
X128022581Y45671219D02*
X127870200Y45671219D01*
X128365438Y45328362D02*
X128365438Y46128362D01*
X128365438Y46128362D02*
X128822581Y45328362D01*
X128822581Y45328362D02*
X128822581Y46128362D01*
X129203533Y45328362D02*
X129203533Y46128362D01*
X129203533Y46128362D02*
X129394009Y46128362D01*
X129394009Y46128362D02*
X129508295Y46090267D01*
X129508295Y46090267D02*
X129584485Y46014077D01*
X129584485Y46014077D02*
X129622580Y45937886D01*
X129622580Y45937886D02*
X129660676Y45785505D01*
X129660676Y45785505D02*
X129660676Y45671219D01*
X129660676Y45671219D02*
X129622580Y45518838D01*
X129622580Y45518838D02*
X129584485Y45442648D01*
X129584485Y45442648D02*
X129508295Y45366457D01*
X129508295Y45366457D02*
X129394009Y45328362D01*
X129394009Y45328362D02*
X129203533Y45328362D01*
X127806840Y44477410D02*
X127921126Y44439315D01*
X127921126Y44439315D02*
X127959221Y44401219D01*
X127959221Y44401219D02*
X127997317Y44325029D01*
X127997317Y44325029D02*
X127997317Y44210743D01*
X127997317Y44210743D02*
X127959221Y44134553D01*
X127959221Y44134553D02*
X127921126Y44096457D01*
X127921126Y44096457D02*
X127844936Y44058362D01*
X127844936Y44058362D02*
X127540174Y44058362D01*
X127540174Y44058362D02*
X127540174Y44858362D01*
X127540174Y44858362D02*
X127806840Y44858362D01*
X127806840Y44858362D02*
X127883031Y44820267D01*
X127883031Y44820267D02*
X127921126Y44782172D01*
X127921126Y44782172D02*
X127959221Y44705981D01*
X127959221Y44705981D02*
X127959221Y44629791D01*
X127959221Y44629791D02*
X127921126Y44553600D01*
X127921126Y44553600D02*
X127883031Y44515505D01*
X127883031Y44515505D02*
X127806840Y44477410D01*
X127806840Y44477410D02*
X127540174Y44477410D01*
X128492555Y44858362D02*
X128644936Y44858362D01*
X128644936Y44858362D02*
X128721126Y44820267D01*
X128721126Y44820267D02*
X128797317Y44744077D01*
X128797317Y44744077D02*
X128835412Y44591696D01*
X128835412Y44591696D02*
X128835412Y44325029D01*
X128835412Y44325029D02*
X128797317Y44172648D01*
X128797317Y44172648D02*
X128721126Y44096457D01*
X128721126Y44096457D02*
X128644936Y44058362D01*
X128644936Y44058362D02*
X128492555Y44058362D01*
X128492555Y44058362D02*
X128416364Y44096457D01*
X128416364Y44096457D02*
X128340174Y44172648D01*
X128340174Y44172648D02*
X128302078Y44325029D01*
X128302078Y44325029D02*
X128302078Y44591696D01*
X128302078Y44591696D02*
X128340174Y44744077D01*
X128340174Y44744077D02*
X128416364Y44820267D01*
X128416364Y44820267D02*
X128492555Y44858362D01*
X129330650Y44858362D02*
X129483031Y44858362D01*
X129483031Y44858362D02*
X129559221Y44820267D01*
X129559221Y44820267D02*
X129635412Y44744077D01*
X129635412Y44744077D02*
X129673507Y44591696D01*
X129673507Y44591696D02*
X129673507Y44325029D01*
X129673507Y44325029D02*
X129635412Y44172648D01*
X129635412Y44172648D02*
X129559221Y44096457D01*
X129559221Y44096457D02*
X129483031Y44058362D01*
X129483031Y44058362D02*
X129330650Y44058362D01*
X129330650Y44058362D02*
X129254459Y44096457D01*
X129254459Y44096457D02*
X129178269Y44172648D01*
X129178269Y44172648D02*
X129140173Y44325029D01*
X129140173Y44325029D02*
X129140173Y44591696D01*
X129140173Y44591696D02*
X129178269Y44744077D01*
X129178269Y44744077D02*
X129254459Y44820267D01*
X129254459Y44820267D02*
X129330650Y44858362D01*
X129902078Y44858362D02*
X130359221Y44858362D01*
X130130649Y44058362D02*
X130130649Y44858362D01*
D12*
X64328338Y48447120D02*
X63328338Y48447120D01*
X64328338Y49018548D02*
X63756909Y48589977D01*
X63328338Y49018548D02*
X63899766Y48447120D01*
X63661671Y49875691D02*
X64328338Y49875691D01*
X63280719Y49637596D02*
X63995004Y49399501D01*
X63995004Y49399501D02*
X63995004Y50018548D01*
X34334761Y68719943D02*
X34239523Y68767562D01*
X34239523Y68767562D02*
X34144285Y68862800D01*
X34144285Y68862800D02*
X34001428Y69005658D01*
X34001428Y69005658D02*
X33906190Y69053277D01*
X33906190Y69053277D02*
X33810952Y69053277D01*
X33858571Y68815181D02*
X33763333Y68862800D01*
X33763333Y68862800D02*
X33668095Y68958039D01*
X33668095Y68958039D02*
X33620476Y69148515D01*
X33620476Y69148515D02*
X33620476Y69481848D01*
X33620476Y69481848D02*
X33668095Y69672324D01*
X33668095Y69672324D02*
X33763333Y69767562D01*
X33763333Y69767562D02*
X33858571Y69815181D01*
X33858571Y69815181D02*
X34049047Y69815181D01*
X34049047Y69815181D02*
X34144285Y69767562D01*
X34144285Y69767562D02*
X34239523Y69672324D01*
X34239523Y69672324D02*
X34287142Y69481848D01*
X34287142Y69481848D02*
X34287142Y69148515D01*
X34287142Y69148515D02*
X34239523Y68958039D01*
X34239523Y68958039D02*
X34144285Y68862800D01*
X34144285Y68862800D02*
X34049047Y68815181D01*
X34049047Y68815181D02*
X33858571Y68815181D01*
X34668095Y69719943D02*
X34715714Y69767562D01*
X34715714Y69767562D02*
X34810952Y69815181D01*
X34810952Y69815181D02*
X35049047Y69815181D01*
X35049047Y69815181D02*
X35144285Y69767562D01*
X35144285Y69767562D02*
X35191904Y69719943D01*
X35191904Y69719943D02*
X35239523Y69624705D01*
X35239523Y69624705D02*
X35239523Y69529467D01*
X35239523Y69529467D02*
X35191904Y69386610D01*
X35191904Y69386610D02*
X34620476Y68815181D01*
X34620476Y68815181D02*
X35239523Y68815181D01*
X105454761Y68979943D02*
X105359523Y69027562D01*
X105359523Y69027562D02*
X105264285Y69122800D01*
X105264285Y69122800D02*
X105121428Y69265658D01*
X105121428Y69265658D02*
X105026190Y69313277D01*
X105026190Y69313277D02*
X104930952Y69313277D01*
X104978571Y69075181D02*
X104883333Y69122800D01*
X104883333Y69122800D02*
X104788095Y69218039D01*
X104788095Y69218039D02*
X104740476Y69408515D01*
X104740476Y69408515D02*
X104740476Y69741848D01*
X104740476Y69741848D02*
X104788095Y69932324D01*
X104788095Y69932324D02*
X104883333Y70027562D01*
X104883333Y70027562D02*
X104978571Y70075181D01*
X104978571Y70075181D02*
X105169047Y70075181D01*
X105169047Y70075181D02*
X105264285Y70027562D01*
X105264285Y70027562D02*
X105359523Y69932324D01*
X105359523Y69932324D02*
X105407142Y69741848D01*
X105407142Y69741848D02*
X105407142Y69408515D01*
X105407142Y69408515D02*
X105359523Y69218039D01*
X105359523Y69218039D02*
X105264285Y69122800D01*
X105264285Y69122800D02*
X105169047Y69075181D01*
X105169047Y69075181D02*
X104978571Y69075181D01*
X106264285Y70075181D02*
X106073809Y70075181D01*
X106073809Y70075181D02*
X105978571Y70027562D01*
X105978571Y70027562D02*
X105930952Y69979943D01*
X105930952Y69979943D02*
X105835714Y69837086D01*
X105835714Y69837086D02*
X105788095Y69646610D01*
X105788095Y69646610D02*
X105788095Y69265658D01*
X105788095Y69265658D02*
X105835714Y69170420D01*
X105835714Y69170420D02*
X105883333Y69122800D01*
X105883333Y69122800D02*
X105978571Y69075181D01*
X105978571Y69075181D02*
X106169047Y69075181D01*
X106169047Y69075181D02*
X106264285Y69122800D01*
X106264285Y69122800D02*
X106311904Y69170420D01*
X106311904Y69170420D02*
X106359523Y69265658D01*
X106359523Y69265658D02*
X106359523Y69503753D01*
X106359523Y69503753D02*
X106311904Y69598991D01*
X106311904Y69598991D02*
X106264285Y69646610D01*
X106264285Y69646610D02*
X106169047Y69694229D01*
X106169047Y69694229D02*
X105978571Y69694229D01*
X105978571Y69694229D02*
X105883333Y69646610D01*
X105883333Y69646610D02*
X105835714Y69598991D01*
X105835714Y69598991D02*
X105788095Y69503753D01*
X108481905Y80825181D02*
X108481905Y81825181D01*
X108481905Y81825181D02*
X108720000Y81825181D01*
X108720000Y81825181D02*
X108862857Y81777562D01*
X108862857Y81777562D02*
X108958095Y81682324D01*
X108958095Y81682324D02*
X109005714Y81587086D01*
X109005714Y81587086D02*
X109053333Y81396610D01*
X109053333Y81396610D02*
X109053333Y81253753D01*
X109053333Y81253753D02*
X109005714Y81063277D01*
X109005714Y81063277D02*
X108958095Y80968039D01*
X108958095Y80968039D02*
X108862857Y80872800D01*
X108862857Y80872800D02*
X108720000Y80825181D01*
X108720000Y80825181D02*
X108481905Y80825181D01*
X109386667Y81825181D02*
X110005714Y81825181D01*
X110005714Y81825181D02*
X109672381Y81444229D01*
X109672381Y81444229D02*
X109815238Y81444229D01*
X109815238Y81444229D02*
X109910476Y81396610D01*
X109910476Y81396610D02*
X109958095Y81348991D01*
X109958095Y81348991D02*
X110005714Y81253753D01*
X110005714Y81253753D02*
X110005714Y81015658D01*
X110005714Y81015658D02*
X109958095Y80920420D01*
X109958095Y80920420D02*
X109910476Y80872800D01*
X109910476Y80872800D02*
X109815238Y80825181D01*
X109815238Y80825181D02*
X109529524Y80825181D01*
X109529524Y80825181D02*
X109434286Y80872800D01*
X109434286Y80872800D02*
X109386667Y80920420D01*
X117158095Y53789943D02*
X117205714Y53837562D01*
X117205714Y53837562D02*
X117300952Y53885181D01*
X117300952Y53885181D02*
X117539047Y53885181D01*
X117539047Y53885181D02*
X117634285Y53837562D01*
X117634285Y53837562D02*
X117681904Y53789943D01*
X117681904Y53789943D02*
X117729523Y53694705D01*
X117729523Y53694705D02*
X117729523Y53599467D01*
X117729523Y53599467D02*
X117681904Y53456610D01*
X117681904Y53456610D02*
X117110476Y52885181D01*
X117110476Y52885181D02*
X117729523Y52885181D01*
X118586666Y53885181D02*
X118396190Y53885181D01*
X118396190Y53885181D02*
X118300952Y53837562D01*
X118300952Y53837562D02*
X118253333Y53789943D01*
X118253333Y53789943D02*
X118158095Y53647086D01*
X118158095Y53647086D02*
X118110476Y53456610D01*
X118110476Y53456610D02*
X118110476Y53075658D01*
X118110476Y53075658D02*
X118158095Y52980420D01*
X118158095Y52980420D02*
X118205714Y52932800D01*
X118205714Y52932800D02*
X118300952Y52885181D01*
X118300952Y52885181D02*
X118491428Y52885181D01*
X118491428Y52885181D02*
X118586666Y52932800D01*
X118586666Y52932800D02*
X118634285Y52980420D01*
X118634285Y52980420D02*
X118681904Y53075658D01*
X118681904Y53075658D02*
X118681904Y53313753D01*
X118681904Y53313753D02*
X118634285Y53408991D01*
X118634285Y53408991D02*
X118586666Y53456610D01*
X118586666Y53456610D02*
X118491428Y53504229D01*
X118491428Y53504229D02*
X118300952Y53504229D01*
X118300952Y53504229D02*
X118205714Y53456610D01*
X118205714Y53456610D02*
X118158095Y53408991D01*
X118158095Y53408991D02*
X118110476Y53313753D01*
X119824762Y53789943D02*
X119872381Y53837562D01*
X119872381Y53837562D02*
X119967619Y53885181D01*
X119967619Y53885181D02*
X120205714Y53885181D01*
X120205714Y53885181D02*
X120300952Y53837562D01*
X120300952Y53837562D02*
X120348571Y53789943D01*
X120348571Y53789943D02*
X120396190Y53694705D01*
X120396190Y53694705D02*
X120396190Y53599467D01*
X120396190Y53599467D02*
X120348571Y53456610D01*
X120348571Y53456610D02*
X119777143Y52885181D01*
X119777143Y52885181D02*
X120396190Y52885181D01*
X120729524Y53885181D02*
X121396190Y53885181D01*
X121396190Y53885181D02*
X120967619Y52885181D01*
X122491429Y53789943D02*
X122539048Y53837562D01*
X122539048Y53837562D02*
X122634286Y53885181D01*
X122634286Y53885181D02*
X122872381Y53885181D01*
X122872381Y53885181D02*
X122967619Y53837562D01*
X122967619Y53837562D02*
X123015238Y53789943D01*
X123015238Y53789943D02*
X123062857Y53694705D01*
X123062857Y53694705D02*
X123062857Y53599467D01*
X123062857Y53599467D02*
X123015238Y53456610D01*
X123015238Y53456610D02*
X122443810Y52885181D01*
X122443810Y52885181D02*
X123062857Y52885181D01*
X123634286Y53456610D02*
X123539048Y53504229D01*
X123539048Y53504229D02*
X123491429Y53551848D01*
X123491429Y53551848D02*
X123443810Y53647086D01*
X123443810Y53647086D02*
X123443810Y53694705D01*
X123443810Y53694705D02*
X123491429Y53789943D01*
X123491429Y53789943D02*
X123539048Y53837562D01*
X123539048Y53837562D02*
X123634286Y53885181D01*
X123634286Y53885181D02*
X123824762Y53885181D01*
X123824762Y53885181D02*
X123920000Y53837562D01*
X123920000Y53837562D02*
X123967619Y53789943D01*
X123967619Y53789943D02*
X124015238Y53694705D01*
X124015238Y53694705D02*
X124015238Y53647086D01*
X124015238Y53647086D02*
X123967619Y53551848D01*
X123967619Y53551848D02*
X123920000Y53504229D01*
X123920000Y53504229D02*
X123824762Y53456610D01*
X123824762Y53456610D02*
X123634286Y53456610D01*
X123634286Y53456610D02*
X123539048Y53408991D01*
X123539048Y53408991D02*
X123491429Y53361372D01*
X123491429Y53361372D02*
X123443810Y53266134D01*
X123443810Y53266134D02*
X123443810Y53075658D01*
X123443810Y53075658D02*
X123491429Y52980420D01*
X123491429Y52980420D02*
X123539048Y52932800D01*
X123539048Y52932800D02*
X123634286Y52885181D01*
X123634286Y52885181D02*
X123824762Y52885181D01*
X123824762Y52885181D02*
X123920000Y52932800D01*
X123920000Y52932800D02*
X123967619Y52980420D01*
X123967619Y52980420D02*
X124015238Y53075658D01*
X124015238Y53075658D02*
X124015238Y53266134D01*
X124015238Y53266134D02*
X123967619Y53361372D01*
X123967619Y53361372D02*
X123920000Y53408991D01*
X123920000Y53408991D02*
X123824762Y53456610D01*
X125158096Y53789943D02*
X125205715Y53837562D01*
X125205715Y53837562D02*
X125300953Y53885181D01*
X125300953Y53885181D02*
X125539048Y53885181D01*
X125539048Y53885181D02*
X125634286Y53837562D01*
X125634286Y53837562D02*
X125681905Y53789943D01*
X125681905Y53789943D02*
X125729524Y53694705D01*
X125729524Y53694705D02*
X125729524Y53599467D01*
X125729524Y53599467D02*
X125681905Y53456610D01*
X125681905Y53456610D02*
X125110477Y52885181D01*
X125110477Y52885181D02*
X125729524Y52885181D01*
X126205715Y52885181D02*
X126396191Y52885181D01*
X126396191Y52885181D02*
X126491429Y52932800D01*
X126491429Y52932800D02*
X126539048Y52980420D01*
X126539048Y52980420D02*
X126634286Y53123277D01*
X126634286Y53123277D02*
X126681905Y53313753D01*
X126681905Y53313753D02*
X126681905Y53694705D01*
X126681905Y53694705D02*
X126634286Y53789943D01*
X126634286Y53789943D02*
X126586667Y53837562D01*
X126586667Y53837562D02*
X126491429Y53885181D01*
X126491429Y53885181D02*
X126300953Y53885181D01*
X126300953Y53885181D02*
X126205715Y53837562D01*
X126205715Y53837562D02*
X126158096Y53789943D01*
X126158096Y53789943D02*
X126110477Y53694705D01*
X126110477Y53694705D02*
X126110477Y53456610D01*
X126110477Y53456610D02*
X126158096Y53361372D01*
X126158096Y53361372D02*
X126205715Y53313753D01*
X126205715Y53313753D02*
X126300953Y53266134D01*
X126300953Y53266134D02*
X126491429Y53266134D01*
X126491429Y53266134D02*
X126586667Y53313753D01*
X126586667Y53313753D02*
X126634286Y53361372D01*
X126634286Y53361372D02*
X126681905Y53456610D01*
X102064876Y32107165D02*
X102112496Y32059546D01*
X102112496Y32059546D02*
X102160115Y31916689D01*
X102160115Y31916689D02*
X102160115Y31821451D01*
X102160115Y31821451D02*
X102112496Y31678594D01*
X102112496Y31678594D02*
X102017257Y31583356D01*
X102017257Y31583356D02*
X101922019Y31535737D01*
X101922019Y31535737D02*
X101731543Y31488118D01*
X101731543Y31488118D02*
X101588686Y31488118D01*
X101588686Y31488118D02*
X101398210Y31535737D01*
X101398210Y31535737D02*
X101302972Y31583356D01*
X101302972Y31583356D02*
X101207734Y31678594D01*
X101207734Y31678594D02*
X101160115Y31821451D01*
X101160115Y31821451D02*
X101160115Y31916689D01*
X101160115Y31916689D02*
X101207734Y32059546D01*
X101207734Y32059546D02*
X101255353Y32107165D01*
X101493448Y32964308D02*
X102160115Y32964308D01*
X101112496Y32726213D02*
X101826781Y32488118D01*
X101826781Y32488118D02*
X101826781Y33107165D01*
X86697694Y31709158D02*
X86745314Y31661539D01*
X86745314Y31661539D02*
X86792933Y31518682D01*
X86792933Y31518682D02*
X86792933Y31423444D01*
X86792933Y31423444D02*
X86745314Y31280587D01*
X86745314Y31280587D02*
X86650075Y31185349D01*
X86650075Y31185349D02*
X86554837Y31137730D01*
X86554837Y31137730D02*
X86364361Y31090111D01*
X86364361Y31090111D02*
X86221504Y31090111D01*
X86221504Y31090111D02*
X86031028Y31137730D01*
X86031028Y31137730D02*
X85935790Y31185349D01*
X85935790Y31185349D02*
X85840552Y31280587D01*
X85840552Y31280587D02*
X85792933Y31423444D01*
X85792933Y31423444D02*
X85792933Y31518682D01*
X85792933Y31518682D02*
X85840552Y31661539D01*
X85840552Y31661539D02*
X85888171Y31709158D01*
X86792933Y32661539D02*
X86792933Y32090111D01*
X86792933Y32375825D02*
X85792933Y32375825D01*
X85792933Y32375825D02*
X85935790Y32280587D01*
X85935790Y32280587D02*
X86031028Y32185349D01*
X86031028Y32185349D02*
X86078647Y32090111D01*
X117178095Y82135181D02*
X117178095Y81325658D01*
X117178095Y81325658D02*
X117225714Y81230420D01*
X117225714Y81230420D02*
X117273333Y81182800D01*
X117273333Y81182800D02*
X117368571Y81135181D01*
X117368571Y81135181D02*
X117559047Y81135181D01*
X117559047Y81135181D02*
X117654285Y81182800D01*
X117654285Y81182800D02*
X117701904Y81230420D01*
X117701904Y81230420D02*
X117749523Y81325658D01*
X117749523Y81325658D02*
X117749523Y82135181D01*
X118178095Y82039943D02*
X118225714Y82087562D01*
X118225714Y82087562D02*
X118320952Y82135181D01*
X118320952Y82135181D02*
X118559047Y82135181D01*
X118559047Y82135181D02*
X118654285Y82087562D01*
X118654285Y82087562D02*
X118701904Y82039943D01*
X118701904Y82039943D02*
X118749523Y81944705D01*
X118749523Y81944705D02*
X118749523Y81849467D01*
X118749523Y81849467D02*
X118701904Y81706610D01*
X118701904Y81706610D02*
X118130476Y81135181D01*
X118130476Y81135181D02*
X118749523Y81135181D01*
X11345657Y48574444D02*
X10345657Y48574444D01*
X11345657Y49145872D02*
X10774228Y48717301D01*
X10345657Y49145872D02*
X10917085Y48574444D01*
X11345657Y50098253D02*
X11345657Y49526825D01*
X11345657Y49812539D02*
X10345657Y49812539D01*
X10345657Y49812539D02*
X10488514Y49717301D01*
X10488514Y49717301D02*
X10583752Y49622063D01*
X10583752Y49622063D02*
X10631371Y49526825D01*
X54773095Y31090181D02*
X54773095Y30280658D01*
X54773095Y30280658D02*
X54820714Y30185420D01*
X54820714Y30185420D02*
X54868333Y30137800D01*
X54868333Y30137800D02*
X54963571Y30090181D01*
X54963571Y30090181D02*
X55154047Y30090181D01*
X55154047Y30090181D02*
X55249285Y30137800D01*
X55249285Y30137800D02*
X55296904Y30185420D01*
X55296904Y30185420D02*
X55344523Y30280658D01*
X55344523Y30280658D02*
X55344523Y31090181D01*
X56344523Y30090181D02*
X55773095Y30090181D01*
X56058809Y30090181D02*
X56058809Y31090181D01*
X56058809Y31090181D02*
X55963571Y30947324D01*
X55963571Y30947324D02*
X55868333Y30852086D01*
X55868333Y30852086D02*
X55773095Y30804467D01*
X31939580Y30323334D02*
X31987200Y30275715D01*
X31987200Y30275715D02*
X32034819Y30132858D01*
X32034819Y30132858D02*
X32034819Y30037620D01*
X32034819Y30037620D02*
X31987200Y29894763D01*
X31987200Y29894763D02*
X31891961Y29799525D01*
X31891961Y29799525D02*
X31796723Y29751906D01*
X31796723Y29751906D02*
X31606247Y29704287D01*
X31606247Y29704287D02*
X31463390Y29704287D01*
X31463390Y29704287D02*
X31272914Y29751906D01*
X31272914Y29751906D02*
X31177676Y29799525D01*
X31177676Y29799525D02*
X31082438Y29894763D01*
X31082438Y29894763D02*
X31034819Y30037620D01*
X31034819Y30037620D02*
X31034819Y30132858D01*
X31034819Y30132858D02*
X31082438Y30275715D01*
X31082438Y30275715D02*
X31130057Y30323334D01*
X31034819Y31180477D02*
X31034819Y30990001D01*
X31034819Y30990001D02*
X31082438Y30894763D01*
X31082438Y30894763D02*
X31130057Y30847144D01*
X31130057Y30847144D02*
X31272914Y30751906D01*
X31272914Y30751906D02*
X31463390Y30704287D01*
X31463390Y30704287D02*
X31844342Y30704287D01*
X31844342Y30704287D02*
X31939580Y30751906D01*
X31939580Y30751906D02*
X31987200Y30799525D01*
X31987200Y30799525D02*
X32034819Y30894763D01*
X32034819Y30894763D02*
X32034819Y31085239D01*
X32034819Y31085239D02*
X31987200Y31180477D01*
X31987200Y31180477D02*
X31939580Y31228096D01*
X31939580Y31228096D02*
X31844342Y31275715D01*
X31844342Y31275715D02*
X31606247Y31275715D01*
X31606247Y31275715D02*
X31511009Y31228096D01*
X31511009Y31228096D02*
X31463390Y31180477D01*
X31463390Y31180477D02*
X31415771Y31085239D01*
X31415771Y31085239D02*
X31415771Y30894763D01*
X31415771Y30894763D02*
X31463390Y30799525D01*
X31463390Y30799525D02*
X31511009Y30751906D01*
X31511009Y30751906D02*
X31606247Y30704287D01*
X23225674Y20513311D02*
X23273294Y20465692D01*
X23273294Y20465692D02*
X23320913Y20322835D01*
X23320913Y20322835D02*
X23320913Y20227597D01*
X23320913Y20227597D02*
X23273294Y20084740D01*
X23273294Y20084740D02*
X23178055Y19989502D01*
X23178055Y19989502D02*
X23082817Y19941883D01*
X23082817Y19941883D02*
X22892341Y19894264D01*
X22892341Y19894264D02*
X22749484Y19894264D01*
X22749484Y19894264D02*
X22559008Y19941883D01*
X22559008Y19941883D02*
X22463770Y19989502D01*
X22463770Y19989502D02*
X22368532Y20084740D01*
X22368532Y20084740D02*
X22320913Y20227597D01*
X22320913Y20227597D02*
X22320913Y20322835D01*
X22320913Y20322835D02*
X22368532Y20465692D01*
X22368532Y20465692D02*
X22416151Y20513311D01*
X22320913Y21418073D02*
X22320913Y20941883D01*
X22320913Y20941883D02*
X22797103Y20894264D01*
X22797103Y20894264D02*
X22749484Y20941883D01*
X22749484Y20941883D02*
X22701865Y21037121D01*
X22701865Y21037121D02*
X22701865Y21275216D01*
X22701865Y21275216D02*
X22749484Y21370454D01*
X22749484Y21370454D02*
X22797103Y21418073D01*
X22797103Y21418073D02*
X22892341Y21465692D01*
X22892341Y21465692D02*
X23130436Y21465692D01*
X23130436Y21465692D02*
X23225674Y21418073D01*
X23225674Y21418073D02*
X23273294Y21370454D01*
X23273294Y21370454D02*
X23320913Y21275216D01*
X23320913Y21275216D02*
X23320913Y21037121D01*
X23320913Y21037121D02*
X23273294Y20941883D01*
X23273294Y20941883D02*
X23225674Y20894264D01*
X108481905Y78285181D02*
X108481905Y79285181D01*
X108481905Y79285181D02*
X108720000Y79285181D01*
X108720000Y79285181D02*
X108862857Y79237562D01*
X108862857Y79237562D02*
X108958095Y79142324D01*
X108958095Y79142324D02*
X109005714Y79047086D01*
X109005714Y79047086D02*
X109053333Y78856610D01*
X109053333Y78856610D02*
X109053333Y78713753D01*
X109053333Y78713753D02*
X109005714Y78523277D01*
X109005714Y78523277D02*
X108958095Y78428039D01*
X108958095Y78428039D02*
X108862857Y78332800D01*
X108862857Y78332800D02*
X108720000Y78285181D01*
X108720000Y78285181D02*
X108481905Y78285181D01*
X109434286Y79189943D02*
X109481905Y79237562D01*
X109481905Y79237562D02*
X109577143Y79285181D01*
X109577143Y79285181D02*
X109815238Y79285181D01*
X109815238Y79285181D02*
X109910476Y79237562D01*
X109910476Y79237562D02*
X109958095Y79189943D01*
X109958095Y79189943D02*
X110005714Y79094705D01*
X110005714Y79094705D02*
X110005714Y78999467D01*
X110005714Y78999467D02*
X109958095Y78856610D01*
X109958095Y78856610D02*
X109386667Y78285181D01*
X109386667Y78285181D02*
X110005714Y78285181D01*
X136604166Y27965181D02*
X136604166Y27250896D01*
X136604166Y27250896D02*
X136556547Y27108039D01*
X136556547Y27108039D02*
X136461309Y27012800D01*
X136461309Y27012800D02*
X136318452Y26965181D01*
X136318452Y26965181D02*
X136223214Y26965181D01*
X137508928Y27965181D02*
X137318452Y27965181D01*
X137318452Y27965181D02*
X137223214Y27917562D01*
X137223214Y27917562D02*
X137175595Y27869943D01*
X137175595Y27869943D02*
X137080357Y27727086D01*
X137080357Y27727086D02*
X137032738Y27536610D01*
X137032738Y27536610D02*
X137032738Y27155658D01*
X137032738Y27155658D02*
X137080357Y27060420D01*
X137080357Y27060420D02*
X137127976Y27012800D01*
X137127976Y27012800D02*
X137223214Y26965181D01*
X137223214Y26965181D02*
X137413690Y26965181D01*
X137413690Y26965181D02*
X137508928Y27012800D01*
X137508928Y27012800D02*
X137556547Y27060420D01*
X137556547Y27060420D02*
X137604166Y27155658D01*
X137604166Y27155658D02*
X137604166Y27393753D01*
X137604166Y27393753D02*
X137556547Y27488991D01*
X137556547Y27488991D02*
X137508928Y27536610D01*
X137508928Y27536610D02*
X137413690Y27584229D01*
X137413690Y27584229D02*
X137223214Y27584229D01*
X137223214Y27584229D02*
X137127976Y27536610D01*
X137127976Y27536610D02*
X137080357Y27488991D01*
X137080357Y27488991D02*
X137032738Y27393753D01*
X49363333Y71215181D02*
X49030000Y71691372D01*
X48791905Y71215181D02*
X48791905Y72215181D01*
X48791905Y72215181D02*
X49172857Y72215181D01*
X49172857Y72215181D02*
X49268095Y72167562D01*
X49268095Y72167562D02*
X49315714Y72119943D01*
X49315714Y72119943D02*
X49363333Y72024705D01*
X49363333Y72024705D02*
X49363333Y71881848D01*
X49363333Y71881848D02*
X49315714Y71786610D01*
X49315714Y71786610D02*
X49268095Y71738991D01*
X49268095Y71738991D02*
X49172857Y71691372D01*
X49172857Y71691372D02*
X48791905Y71691372D01*
X49696667Y72215181D02*
X50315714Y72215181D01*
X50315714Y72215181D02*
X49982381Y71834229D01*
X49982381Y71834229D02*
X50125238Y71834229D01*
X50125238Y71834229D02*
X50220476Y71786610D01*
X50220476Y71786610D02*
X50268095Y71738991D01*
X50268095Y71738991D02*
X50315714Y71643753D01*
X50315714Y71643753D02*
X50315714Y71405658D01*
X50315714Y71405658D02*
X50268095Y71310420D01*
X50268095Y71310420D02*
X50220476Y71262800D01*
X50220476Y71262800D02*
X50125238Y71215181D01*
X50125238Y71215181D02*
X49839524Y71215181D01*
X49839524Y71215181D02*
X49744286Y71262800D01*
X49744286Y71262800D02*
X49696667Y71310420D01*
X93828095Y36795181D02*
X93828095Y35985658D01*
X93828095Y35985658D02*
X93875714Y35890420D01*
X93875714Y35890420D02*
X93923333Y35842800D01*
X93923333Y35842800D02*
X94018571Y35795181D01*
X94018571Y35795181D02*
X94209047Y35795181D01*
X94209047Y35795181D02*
X94304285Y35842800D01*
X94304285Y35842800D02*
X94351904Y35890420D01*
X94351904Y35890420D02*
X94399523Y35985658D01*
X94399523Y35985658D02*
X94399523Y36795181D01*
X94780476Y36795181D02*
X95399523Y36795181D01*
X95399523Y36795181D02*
X95066190Y36414229D01*
X95066190Y36414229D02*
X95209047Y36414229D01*
X95209047Y36414229D02*
X95304285Y36366610D01*
X95304285Y36366610D02*
X95351904Y36318991D01*
X95351904Y36318991D02*
X95399523Y36223753D01*
X95399523Y36223753D02*
X95399523Y35985658D01*
X95399523Y35985658D02*
X95351904Y35890420D01*
X95351904Y35890420D02*
X95304285Y35842800D01*
X95304285Y35842800D02*
X95209047Y35795181D01*
X95209047Y35795181D02*
X94923333Y35795181D01*
X94923333Y35795181D02*
X94828095Y35842800D01*
X94828095Y35842800D02*
X94780476Y35890420D01*
X52819761Y68974943D02*
X52724523Y69022562D01*
X52724523Y69022562D02*
X52629285Y69117800D01*
X52629285Y69117800D02*
X52486428Y69260658D01*
X52486428Y69260658D02*
X52391190Y69308277D01*
X52391190Y69308277D02*
X52295952Y69308277D01*
X52343571Y69070181D02*
X52248333Y69117800D01*
X52248333Y69117800D02*
X52153095Y69213039D01*
X52153095Y69213039D02*
X52105476Y69403515D01*
X52105476Y69403515D02*
X52105476Y69736848D01*
X52105476Y69736848D02*
X52153095Y69927324D01*
X52153095Y69927324D02*
X52248333Y70022562D01*
X52248333Y70022562D02*
X52343571Y70070181D01*
X52343571Y70070181D02*
X52534047Y70070181D01*
X52534047Y70070181D02*
X52629285Y70022562D01*
X52629285Y70022562D02*
X52724523Y69927324D01*
X52724523Y69927324D02*
X52772142Y69736848D01*
X52772142Y69736848D02*
X52772142Y69403515D01*
X52772142Y69403515D02*
X52724523Y69213039D01*
X52724523Y69213039D02*
X52629285Y69117800D01*
X52629285Y69117800D02*
X52534047Y69070181D01*
X52534047Y69070181D02*
X52343571Y69070181D01*
X53105476Y70070181D02*
X53724523Y70070181D01*
X53724523Y70070181D02*
X53391190Y69689229D01*
X53391190Y69689229D02*
X53534047Y69689229D01*
X53534047Y69689229D02*
X53629285Y69641610D01*
X53629285Y69641610D02*
X53676904Y69593991D01*
X53676904Y69593991D02*
X53724523Y69498753D01*
X53724523Y69498753D02*
X53724523Y69260658D01*
X53724523Y69260658D02*
X53676904Y69165420D01*
X53676904Y69165420D02*
X53629285Y69117800D01*
X53629285Y69117800D02*
X53534047Y69070181D01*
X53534047Y69070181D02*
X53248333Y69070181D01*
X53248333Y69070181D02*
X53153095Y69117800D01*
X53153095Y69117800D02*
X53105476Y69165420D01*
X100741078Y32006539D02*
X100788698Y31958920D01*
X100788698Y31958920D02*
X100836317Y31816063D01*
X100836317Y31816063D02*
X100836317Y31720825D01*
X100836317Y31720825D02*
X100788698Y31577968D01*
X100788698Y31577968D02*
X100693459Y31482730D01*
X100693459Y31482730D02*
X100598221Y31435111D01*
X100598221Y31435111D02*
X100407745Y31387492D01*
X100407745Y31387492D02*
X100264888Y31387492D01*
X100264888Y31387492D02*
X100074412Y31435111D01*
X100074412Y31435111D02*
X99979174Y31482730D01*
X99979174Y31482730D02*
X99883936Y31577968D01*
X99883936Y31577968D02*
X99836317Y31720825D01*
X99836317Y31720825D02*
X99836317Y31816063D01*
X99836317Y31816063D02*
X99883936Y31958920D01*
X99883936Y31958920D02*
X99931555Y32006539D01*
X99836317Y32339873D02*
X99836317Y32958920D01*
X99836317Y32958920D02*
X100217269Y32625587D01*
X100217269Y32625587D02*
X100217269Y32768444D01*
X100217269Y32768444D02*
X100264888Y32863682D01*
X100264888Y32863682D02*
X100312507Y32911301D01*
X100312507Y32911301D02*
X100407745Y32958920D01*
X100407745Y32958920D02*
X100645840Y32958920D01*
X100645840Y32958920D02*
X100741078Y32911301D01*
X100741078Y32911301D02*
X100788698Y32863682D01*
X100788698Y32863682D02*
X100836317Y32768444D01*
X100836317Y32768444D02*
X100836317Y32482730D01*
X100836317Y32482730D02*
X100788698Y32387492D01*
X100788698Y32387492D02*
X100741078Y32339873D01*
X100163333Y77015181D02*
X99830000Y77491372D01*
X99591905Y77015181D02*
X99591905Y78015181D01*
X99591905Y78015181D02*
X99972857Y78015181D01*
X99972857Y78015181D02*
X100068095Y77967562D01*
X100068095Y77967562D02*
X100115714Y77919943D01*
X100115714Y77919943D02*
X100163333Y77824705D01*
X100163333Y77824705D02*
X100163333Y77681848D01*
X100163333Y77681848D02*
X100115714Y77586610D01*
X100115714Y77586610D02*
X100068095Y77538991D01*
X100068095Y77538991D02*
X99972857Y77491372D01*
X99972857Y77491372D02*
X99591905Y77491372D01*
X100734762Y77586610D02*
X100639524Y77634229D01*
X100639524Y77634229D02*
X100591905Y77681848D01*
X100591905Y77681848D02*
X100544286Y77777086D01*
X100544286Y77777086D02*
X100544286Y77824705D01*
X100544286Y77824705D02*
X100591905Y77919943D01*
X100591905Y77919943D02*
X100639524Y77967562D01*
X100639524Y77967562D02*
X100734762Y78015181D01*
X100734762Y78015181D02*
X100925238Y78015181D01*
X100925238Y78015181D02*
X101020476Y77967562D01*
X101020476Y77967562D02*
X101068095Y77919943D01*
X101068095Y77919943D02*
X101115714Y77824705D01*
X101115714Y77824705D02*
X101115714Y77777086D01*
X101115714Y77777086D02*
X101068095Y77681848D01*
X101068095Y77681848D02*
X101020476Y77634229D01*
X101020476Y77634229D02*
X100925238Y77586610D01*
X100925238Y77586610D02*
X100734762Y77586610D01*
X100734762Y77586610D02*
X100639524Y77538991D01*
X100639524Y77538991D02*
X100591905Y77491372D01*
X100591905Y77491372D02*
X100544286Y77396134D01*
X100544286Y77396134D02*
X100544286Y77205658D01*
X100544286Y77205658D02*
X100591905Y77110420D01*
X100591905Y77110420D02*
X100639524Y77062800D01*
X100639524Y77062800D02*
X100734762Y77015181D01*
X100734762Y77015181D02*
X100925238Y77015181D01*
X100925238Y77015181D02*
X101020476Y77062800D01*
X101020476Y77062800D02*
X101068095Y77110420D01*
X101068095Y77110420D02*
X101115714Y77205658D01*
X101115714Y77205658D02*
X101115714Y77396134D01*
X101115714Y77396134D02*
X101068095Y77491372D01*
X101068095Y77491372D02*
X101020476Y77538991D01*
X101020476Y77538991D02*
X100925238Y77586610D01*
X98176166Y27965181D02*
X98176166Y27250896D01*
X98176166Y27250896D02*
X98128547Y27108039D01*
X98128547Y27108039D02*
X98033309Y27012800D01*
X98033309Y27012800D02*
X97890452Y26965181D01*
X97890452Y26965181D02*
X97795214Y26965181D01*
X98604738Y27869943D02*
X98652357Y27917562D01*
X98652357Y27917562D02*
X98747595Y27965181D01*
X98747595Y27965181D02*
X98985690Y27965181D01*
X98985690Y27965181D02*
X99080928Y27917562D01*
X99080928Y27917562D02*
X99128547Y27869943D01*
X99128547Y27869943D02*
X99176166Y27774705D01*
X99176166Y27774705D02*
X99176166Y27679467D01*
X99176166Y27679467D02*
X99128547Y27536610D01*
X99128547Y27536610D02*
X98557119Y26965181D01*
X98557119Y26965181D02*
X99176166Y26965181D01*
X82128024Y48489276D02*
X81128024Y48489276D01*
X82128024Y49060704D02*
X81556595Y48632133D01*
X81128024Y49060704D02*
X81699452Y48489276D01*
X81128024Y49965466D02*
X81128024Y49489276D01*
X81128024Y49489276D02*
X81604214Y49441657D01*
X81604214Y49441657D02*
X81556595Y49489276D01*
X81556595Y49489276D02*
X81508976Y49584514D01*
X81508976Y49584514D02*
X81508976Y49822609D01*
X81508976Y49822609D02*
X81556595Y49917847D01*
X81556595Y49917847D02*
X81604214Y49965466D01*
X81604214Y49965466D02*
X81699452Y50013085D01*
X81699452Y50013085D02*
X81937547Y50013085D01*
X81937547Y50013085D02*
X82032785Y49965466D01*
X82032785Y49965466D02*
X82080405Y49917847D01*
X82080405Y49917847D02*
X82128024Y49822609D01*
X82128024Y49822609D02*
X82128024Y49584514D01*
X82128024Y49584514D02*
X82080405Y49489276D01*
X82080405Y49489276D02*
X82032785Y49441657D01*
X107783166Y27965181D02*
X107783166Y27250896D01*
X107783166Y27250896D02*
X107735547Y27108039D01*
X107735547Y27108039D02*
X107640309Y27012800D01*
X107640309Y27012800D02*
X107497452Y26965181D01*
X107497452Y26965181D02*
X107402214Y26965181D01*
X108164119Y27965181D02*
X108783166Y27965181D01*
X108783166Y27965181D02*
X108449833Y27584229D01*
X108449833Y27584229D02*
X108592690Y27584229D01*
X108592690Y27584229D02*
X108687928Y27536610D01*
X108687928Y27536610D02*
X108735547Y27488991D01*
X108735547Y27488991D02*
X108783166Y27393753D01*
X108783166Y27393753D02*
X108783166Y27155658D01*
X108783166Y27155658D02*
X108735547Y27060420D01*
X108735547Y27060420D02*
X108687928Y27012800D01*
X108687928Y27012800D02*
X108592690Y26965181D01*
X108592690Y26965181D02*
X108306976Y26965181D01*
X108306976Y26965181D02*
X108211738Y27012800D01*
X108211738Y27012800D02*
X108164119Y27060420D01*
X88569166Y27965181D02*
X88569166Y27250896D01*
X88569166Y27250896D02*
X88521547Y27108039D01*
X88521547Y27108039D02*
X88426309Y27012800D01*
X88426309Y27012800D02*
X88283452Y26965181D01*
X88283452Y26965181D02*
X88188214Y26965181D01*
X89569166Y26965181D02*
X88997738Y26965181D01*
X89283452Y26965181D02*
X89283452Y27965181D01*
X89283452Y27965181D02*
X89188214Y27822324D01*
X89188214Y27822324D02*
X89092976Y27727086D01*
X89092976Y27727086D02*
X88997738Y27679467D01*
X13848333Y71215181D02*
X13515000Y71691372D01*
X13276905Y71215181D02*
X13276905Y72215181D01*
X13276905Y72215181D02*
X13657857Y72215181D01*
X13657857Y72215181D02*
X13753095Y72167562D01*
X13753095Y72167562D02*
X13800714Y72119943D01*
X13800714Y72119943D02*
X13848333Y72024705D01*
X13848333Y72024705D02*
X13848333Y71881848D01*
X13848333Y71881848D02*
X13800714Y71786610D01*
X13800714Y71786610D02*
X13753095Y71738991D01*
X13753095Y71738991D02*
X13657857Y71691372D01*
X13657857Y71691372D02*
X13276905Y71691372D01*
X14800714Y71215181D02*
X14229286Y71215181D01*
X14515000Y71215181D02*
X14515000Y72215181D01*
X14515000Y72215181D02*
X14419762Y72072324D01*
X14419762Y72072324D02*
X14324524Y71977086D01*
X14324524Y71977086D02*
X14229286Y71929467D01*
X123713969Y31733446D02*
X123713969Y31257256D01*
X123713969Y31257256D02*
X124190159Y31209637D01*
X124190159Y31209637D02*
X124142540Y31257256D01*
X124142540Y31257256D02*
X124094921Y31352494D01*
X124094921Y31352494D02*
X124094921Y31590589D01*
X124094921Y31590589D02*
X124142540Y31685827D01*
X124142540Y31685827D02*
X124190159Y31733446D01*
X124190159Y31733446D02*
X124285397Y31781065D01*
X124285397Y31781065D02*
X124523492Y31781065D01*
X124523492Y31781065D02*
X124618730Y31733446D01*
X124618730Y31733446D02*
X124666350Y31685827D01*
X124666350Y31685827D02*
X124713969Y31590589D01*
X124713969Y31590589D02*
X124713969Y31352494D01*
X124713969Y31352494D02*
X124666350Y31257256D01*
X124666350Y31257256D02*
X124618730Y31209637D01*
X123713969Y32066780D02*
X124713969Y32400113D01*
X124713969Y32400113D02*
X123713969Y32733446D01*
X123713969Y33733447D02*
X123713969Y34352494D01*
X123713969Y34352494D02*
X124094921Y34019161D01*
X124094921Y34019161D02*
X124094921Y34162018D01*
X124094921Y34162018D02*
X124142540Y34257256D01*
X124142540Y34257256D02*
X124190159Y34304875D01*
X124190159Y34304875D02*
X124285397Y34352494D01*
X124285397Y34352494D02*
X124523492Y34352494D01*
X124523492Y34352494D02*
X124618730Y34304875D01*
X124618730Y34304875D02*
X124666350Y34257256D01*
X124666350Y34257256D02*
X124713969Y34162018D01*
X124713969Y34162018D02*
X124713969Y33876304D01*
X124713969Y33876304D02*
X124666350Y33781066D01*
X124666350Y33781066D02*
X124618730Y33733447D01*
X123713969Y34638209D02*
X124713969Y34971542D01*
X124713969Y34971542D02*
X123713969Y35304875D01*
X123713969Y35542971D02*
X123713969Y36162018D01*
X123713969Y36162018D02*
X124094921Y35828685D01*
X124094921Y35828685D02*
X124094921Y35971542D01*
X124094921Y35971542D02*
X124142540Y36066780D01*
X124142540Y36066780D02*
X124190159Y36114399D01*
X124190159Y36114399D02*
X124285397Y36162018D01*
X124285397Y36162018D02*
X124523492Y36162018D01*
X124523492Y36162018D02*
X124618730Y36114399D01*
X124618730Y36114399D02*
X124666350Y36066780D01*
X124666350Y36066780D02*
X124713969Y35971542D01*
X124713969Y35971542D02*
X124713969Y35685828D01*
X124713969Y35685828D02*
X124666350Y35590590D01*
X124666350Y35590590D02*
X124618730Y35542971D01*
X123761588Y37876304D02*
X123713969Y37781066D01*
X123713969Y37781066D02*
X123713969Y37638209D01*
X123713969Y37638209D02*
X123761588Y37495352D01*
X123761588Y37495352D02*
X123856826Y37400114D01*
X123856826Y37400114D02*
X123952064Y37352495D01*
X123952064Y37352495D02*
X124142540Y37304876D01*
X124142540Y37304876D02*
X124285397Y37304876D01*
X124285397Y37304876D02*
X124475873Y37352495D01*
X124475873Y37352495D02*
X124571111Y37400114D01*
X124571111Y37400114D02*
X124666350Y37495352D01*
X124666350Y37495352D02*
X124713969Y37638209D01*
X124713969Y37638209D02*
X124713969Y37733447D01*
X124713969Y37733447D02*
X124666350Y37876304D01*
X124666350Y37876304D02*
X124618730Y37923923D01*
X124618730Y37923923D02*
X124285397Y37923923D01*
X124285397Y37923923D02*
X124285397Y37733447D01*
X124713969Y38352495D02*
X123713969Y38352495D01*
X123713969Y38352495D02*
X124713969Y38923923D01*
X124713969Y38923923D02*
X123713969Y38923923D01*
X124713969Y39400114D02*
X123713969Y39400114D01*
X123713969Y39400114D02*
X123713969Y39638209D01*
X123713969Y39638209D02*
X123761588Y39781066D01*
X123761588Y39781066D02*
X123856826Y39876304D01*
X123856826Y39876304D02*
X123952064Y39923923D01*
X123952064Y39923923D02*
X124142540Y39971542D01*
X124142540Y39971542D02*
X124285397Y39971542D01*
X124285397Y39971542D02*
X124475873Y39923923D01*
X124475873Y39923923D02*
X124571111Y39876304D01*
X124571111Y39876304D02*
X124666350Y39781066D01*
X124666350Y39781066D02*
X124713969Y39638209D01*
X124713969Y39638209D02*
X124713969Y39400114D01*
X108481905Y75745181D02*
X108481905Y76745181D01*
X108481905Y76745181D02*
X108720000Y76745181D01*
X108720000Y76745181D02*
X108862857Y76697562D01*
X108862857Y76697562D02*
X108958095Y76602324D01*
X108958095Y76602324D02*
X109005714Y76507086D01*
X109005714Y76507086D02*
X109053333Y76316610D01*
X109053333Y76316610D02*
X109053333Y76173753D01*
X109053333Y76173753D02*
X109005714Y75983277D01*
X109005714Y75983277D02*
X108958095Y75888039D01*
X108958095Y75888039D02*
X108862857Y75792800D01*
X108862857Y75792800D02*
X108720000Y75745181D01*
X108720000Y75745181D02*
X108481905Y75745181D01*
X110005714Y75745181D02*
X109434286Y75745181D01*
X109720000Y75745181D02*
X109720000Y76745181D01*
X109720000Y76745181D02*
X109624762Y76602324D01*
X109624762Y76602324D02*
X109529524Y76507086D01*
X109529524Y76507086D02*
X109434286Y76459467D01*
X30993333Y71215181D02*
X30660000Y71691372D01*
X30421905Y71215181D02*
X30421905Y72215181D01*
X30421905Y72215181D02*
X30802857Y72215181D01*
X30802857Y72215181D02*
X30898095Y72167562D01*
X30898095Y72167562D02*
X30945714Y72119943D01*
X30945714Y72119943D02*
X30993333Y72024705D01*
X30993333Y72024705D02*
X30993333Y71881848D01*
X30993333Y71881848D02*
X30945714Y71786610D01*
X30945714Y71786610D02*
X30898095Y71738991D01*
X30898095Y71738991D02*
X30802857Y71691372D01*
X30802857Y71691372D02*
X30421905Y71691372D01*
X31374286Y72119943D02*
X31421905Y72167562D01*
X31421905Y72167562D02*
X31517143Y72215181D01*
X31517143Y72215181D02*
X31755238Y72215181D01*
X31755238Y72215181D02*
X31850476Y72167562D01*
X31850476Y72167562D02*
X31898095Y72119943D01*
X31898095Y72119943D02*
X31945714Y72024705D01*
X31945714Y72024705D02*
X31945714Y71929467D01*
X31945714Y71929467D02*
X31898095Y71786610D01*
X31898095Y71786610D02*
X31326667Y71215181D01*
X31326667Y71215181D02*
X31945714Y71215181D01*
X100163333Y79555181D02*
X99830000Y80031372D01*
X99591905Y79555181D02*
X99591905Y80555181D01*
X99591905Y80555181D02*
X99972857Y80555181D01*
X99972857Y80555181D02*
X100068095Y80507562D01*
X100068095Y80507562D02*
X100115714Y80459943D01*
X100115714Y80459943D02*
X100163333Y80364705D01*
X100163333Y80364705D02*
X100163333Y80221848D01*
X100163333Y80221848D02*
X100115714Y80126610D01*
X100115714Y80126610D02*
X100068095Y80078991D01*
X100068095Y80078991D02*
X99972857Y80031372D01*
X99972857Y80031372D02*
X99591905Y80031372D01*
X100496667Y80555181D02*
X101163333Y80555181D01*
X101163333Y80555181D02*
X100734762Y79555181D01*
X12962381Y27770896D02*
X13438571Y27770896D01*
X12867143Y27485181D02*
X13200476Y28485181D01*
X13200476Y28485181D02*
X13533809Y27485181D01*
X14438571Y27580420D02*
X14390952Y27532800D01*
X14390952Y27532800D02*
X14248095Y27485181D01*
X14248095Y27485181D02*
X14152857Y27485181D01*
X14152857Y27485181D02*
X14010000Y27532800D01*
X14010000Y27532800D02*
X13914762Y27628039D01*
X13914762Y27628039D02*
X13867143Y27723277D01*
X13867143Y27723277D02*
X13819524Y27913753D01*
X13819524Y27913753D02*
X13819524Y28056610D01*
X13819524Y28056610D02*
X13867143Y28247086D01*
X13867143Y28247086D02*
X13914762Y28342324D01*
X13914762Y28342324D02*
X14010000Y28437562D01*
X14010000Y28437562D02*
X14152857Y28485181D01*
X14152857Y28485181D02*
X14248095Y28485181D01*
X14248095Y28485181D02*
X14390952Y28437562D01*
X14390952Y28437562D02*
X14438571Y28389943D01*
X14819524Y28389943D02*
X14867143Y28437562D01*
X14867143Y28437562D02*
X14962381Y28485181D01*
X14962381Y28485181D02*
X15200476Y28485181D01*
X15200476Y28485181D02*
X15295714Y28437562D01*
X15295714Y28437562D02*
X15343333Y28389943D01*
X15343333Y28389943D02*
X15390952Y28294705D01*
X15390952Y28294705D02*
X15390952Y28199467D01*
X15390952Y28199467D02*
X15343333Y28056610D01*
X15343333Y28056610D02*
X14771905Y27485181D01*
X14771905Y27485181D02*
X15390952Y27485181D01*
X16248095Y28151848D02*
X16248095Y27485181D01*
X16010000Y28532800D02*
X15771905Y27818515D01*
X15771905Y27818515D02*
X16390952Y27818515D01*
X16771905Y27866134D02*
X17533810Y27866134D01*
X18010000Y27485181D02*
X18010000Y28485181D01*
X18486190Y27485181D02*
X18486190Y28485181D01*
X18486190Y28485181D02*
X19057618Y27485181D01*
X19057618Y27485181D02*
X19057618Y28485181D01*
X20057618Y27485181D02*
X19486190Y27485181D01*
X19771904Y27485181D02*
X19771904Y28485181D01*
X19771904Y28485181D02*
X19676666Y28342324D01*
X19676666Y28342324D02*
X19581428Y28247086D01*
X19581428Y28247086D02*
X19486190Y28199467D01*
X70194761Y68719943D02*
X70099523Y68767562D01*
X70099523Y68767562D02*
X70004285Y68862800D01*
X70004285Y68862800D02*
X69861428Y69005658D01*
X69861428Y69005658D02*
X69766190Y69053277D01*
X69766190Y69053277D02*
X69670952Y69053277D01*
X69718571Y68815181D02*
X69623333Y68862800D01*
X69623333Y68862800D02*
X69528095Y68958039D01*
X69528095Y68958039D02*
X69480476Y69148515D01*
X69480476Y69148515D02*
X69480476Y69481848D01*
X69480476Y69481848D02*
X69528095Y69672324D01*
X69528095Y69672324D02*
X69623333Y69767562D01*
X69623333Y69767562D02*
X69718571Y69815181D01*
X69718571Y69815181D02*
X69909047Y69815181D01*
X69909047Y69815181D02*
X70004285Y69767562D01*
X70004285Y69767562D02*
X70099523Y69672324D01*
X70099523Y69672324D02*
X70147142Y69481848D01*
X70147142Y69481848D02*
X70147142Y69148515D01*
X70147142Y69148515D02*
X70099523Y68958039D01*
X70099523Y68958039D02*
X70004285Y68862800D01*
X70004285Y68862800D02*
X69909047Y68815181D01*
X69909047Y68815181D02*
X69718571Y68815181D01*
X71004285Y69481848D02*
X71004285Y68815181D01*
X70766190Y69862800D02*
X70528095Y69148515D01*
X70528095Y69148515D02*
X71147142Y69148515D01*
X100163333Y74475181D02*
X99830000Y74951372D01*
X99591905Y74475181D02*
X99591905Y75475181D01*
X99591905Y75475181D02*
X99972857Y75475181D01*
X99972857Y75475181D02*
X100068095Y75427562D01*
X100068095Y75427562D02*
X100115714Y75379943D01*
X100115714Y75379943D02*
X100163333Y75284705D01*
X100163333Y75284705D02*
X100163333Y75141848D01*
X100163333Y75141848D02*
X100115714Y75046610D01*
X100115714Y75046610D02*
X100068095Y74998991D01*
X100068095Y74998991D02*
X99972857Y74951372D01*
X99972857Y74951372D02*
X99591905Y74951372D01*
X100639524Y74475181D02*
X100830000Y74475181D01*
X100830000Y74475181D02*
X100925238Y74522800D01*
X100925238Y74522800D02*
X100972857Y74570420D01*
X100972857Y74570420D02*
X101068095Y74713277D01*
X101068095Y74713277D02*
X101115714Y74903753D01*
X101115714Y74903753D02*
X101115714Y75284705D01*
X101115714Y75284705D02*
X101068095Y75379943D01*
X101068095Y75379943D02*
X101020476Y75427562D01*
X101020476Y75427562D02*
X100925238Y75475181D01*
X100925238Y75475181D02*
X100734762Y75475181D01*
X100734762Y75475181D02*
X100639524Y75427562D01*
X100639524Y75427562D02*
X100591905Y75379943D01*
X100591905Y75379943D02*
X100544286Y75284705D01*
X100544286Y75284705D02*
X100544286Y75046610D01*
X100544286Y75046610D02*
X100591905Y74951372D01*
X100591905Y74951372D02*
X100639524Y74903753D01*
X100639524Y74903753D02*
X100734762Y74856134D01*
X100734762Y74856134D02*
X100925238Y74856134D01*
X100925238Y74856134D02*
X101020476Y74903753D01*
X101020476Y74903753D02*
X101068095Y74951372D01*
X101068095Y74951372D02*
X101115714Y75046610D01*
X25931905Y29595181D02*
X25931905Y30595181D01*
X25931905Y30595181D02*
X26170000Y30595181D01*
X26170000Y30595181D02*
X26312857Y30547562D01*
X26312857Y30547562D02*
X26408095Y30452324D01*
X26408095Y30452324D02*
X26455714Y30357086D01*
X26455714Y30357086D02*
X26503333Y30166610D01*
X26503333Y30166610D02*
X26503333Y30023753D01*
X26503333Y30023753D02*
X26455714Y29833277D01*
X26455714Y29833277D02*
X26408095Y29738039D01*
X26408095Y29738039D02*
X26312857Y29642800D01*
X26312857Y29642800D02*
X26170000Y29595181D01*
X26170000Y29595181D02*
X25931905Y29595181D01*
X27360476Y30261848D02*
X27360476Y29595181D01*
X27122381Y30642800D02*
X26884286Y29928515D01*
X26884286Y29928515D02*
X27503333Y29928515D01*
X87801761Y68974943D02*
X87706523Y69022562D01*
X87706523Y69022562D02*
X87611285Y69117800D01*
X87611285Y69117800D02*
X87468428Y69260658D01*
X87468428Y69260658D02*
X87373190Y69308277D01*
X87373190Y69308277D02*
X87277952Y69308277D01*
X87325571Y69070181D02*
X87230333Y69117800D01*
X87230333Y69117800D02*
X87135095Y69213039D01*
X87135095Y69213039D02*
X87087476Y69403515D01*
X87087476Y69403515D02*
X87087476Y69736848D01*
X87087476Y69736848D02*
X87135095Y69927324D01*
X87135095Y69927324D02*
X87230333Y70022562D01*
X87230333Y70022562D02*
X87325571Y70070181D01*
X87325571Y70070181D02*
X87516047Y70070181D01*
X87516047Y70070181D02*
X87611285Y70022562D01*
X87611285Y70022562D02*
X87706523Y69927324D01*
X87706523Y69927324D02*
X87754142Y69736848D01*
X87754142Y69736848D02*
X87754142Y69403515D01*
X87754142Y69403515D02*
X87706523Y69213039D01*
X87706523Y69213039D02*
X87611285Y69117800D01*
X87611285Y69117800D02*
X87516047Y69070181D01*
X87516047Y69070181D02*
X87325571Y69070181D01*
X88658904Y70070181D02*
X88182714Y70070181D01*
X88182714Y70070181D02*
X88135095Y69593991D01*
X88135095Y69593991D02*
X88182714Y69641610D01*
X88182714Y69641610D02*
X88277952Y69689229D01*
X88277952Y69689229D02*
X88516047Y69689229D01*
X88516047Y69689229D02*
X88611285Y69641610D01*
X88611285Y69641610D02*
X88658904Y69593991D01*
X88658904Y69593991D02*
X88706523Y69498753D01*
X88706523Y69498753D02*
X88706523Y69260658D01*
X88706523Y69260658D02*
X88658904Y69165420D01*
X88658904Y69165420D02*
X88611285Y69117800D01*
X88611285Y69117800D02*
X88516047Y69070181D01*
X88516047Y69070181D02*
X88277952Y69070181D01*
X88277952Y69070181D02*
X88182714Y69117800D01*
X88182714Y69117800D02*
X88135095Y69165420D01*
X102113333Y71215181D02*
X101780000Y71691372D01*
X101541905Y71215181D02*
X101541905Y72215181D01*
X101541905Y72215181D02*
X101922857Y72215181D01*
X101922857Y72215181D02*
X102018095Y72167562D01*
X102018095Y72167562D02*
X102065714Y72119943D01*
X102065714Y72119943D02*
X102113333Y72024705D01*
X102113333Y72024705D02*
X102113333Y71881848D01*
X102113333Y71881848D02*
X102065714Y71786610D01*
X102065714Y71786610D02*
X102018095Y71738991D01*
X102018095Y71738991D02*
X101922857Y71691372D01*
X101922857Y71691372D02*
X101541905Y71691372D01*
X102970476Y72215181D02*
X102780000Y72215181D01*
X102780000Y72215181D02*
X102684762Y72167562D01*
X102684762Y72167562D02*
X102637143Y72119943D01*
X102637143Y72119943D02*
X102541905Y71977086D01*
X102541905Y71977086D02*
X102494286Y71786610D01*
X102494286Y71786610D02*
X102494286Y71405658D01*
X102494286Y71405658D02*
X102541905Y71310420D01*
X102541905Y71310420D02*
X102589524Y71262800D01*
X102589524Y71262800D02*
X102684762Y71215181D01*
X102684762Y71215181D02*
X102875238Y71215181D01*
X102875238Y71215181D02*
X102970476Y71262800D01*
X102970476Y71262800D02*
X103018095Y71310420D01*
X103018095Y71310420D02*
X103065714Y71405658D01*
X103065714Y71405658D02*
X103065714Y71643753D01*
X103065714Y71643753D02*
X103018095Y71738991D01*
X103018095Y71738991D02*
X102970476Y71786610D01*
X102970476Y71786610D02*
X102875238Y71834229D01*
X102875238Y71834229D02*
X102684762Y71834229D01*
X102684762Y71834229D02*
X102589524Y71786610D01*
X102589524Y71786610D02*
X102541905Y71738991D01*
X102541905Y71738991D02*
X102494286Y71643753D01*
X121661460Y49114631D02*
X121994793Y49114631D01*
X122137650Y48590821D02*
X121661460Y48590821D01*
X121661460Y48590821D02*
X121661460Y49590821D01*
X121661460Y49590821D02*
X122137650Y49590821D01*
X122470984Y49590821D02*
X123137650Y48590821D01*
X123137650Y49590821D02*
X122470984Y48590821D01*
X123375746Y49590821D02*
X123947174Y49590821D01*
X123661460Y48590821D02*
X123661460Y49590821D01*
X124994793Y49638440D02*
X124137651Y48352726D01*
X125328127Y48590821D02*
X125328127Y49590821D01*
X125328127Y49590821D02*
X125709079Y49590821D01*
X125709079Y49590821D02*
X125804317Y49543202D01*
X125804317Y49543202D02*
X125851936Y49495583D01*
X125851936Y49495583D02*
X125899555Y49400345D01*
X125899555Y49400345D02*
X125899555Y49257488D01*
X125899555Y49257488D02*
X125851936Y49162250D01*
X125851936Y49162250D02*
X125804317Y49114631D01*
X125804317Y49114631D02*
X125709079Y49067012D01*
X125709079Y49067012D02*
X125328127Y49067012D01*
X126899555Y48590821D02*
X126566222Y49067012D01*
X126328127Y48590821D02*
X126328127Y49590821D01*
X126328127Y49590821D02*
X126709079Y49590821D01*
X126709079Y49590821D02*
X126804317Y49543202D01*
X126804317Y49543202D02*
X126851936Y49495583D01*
X126851936Y49495583D02*
X126899555Y49400345D01*
X126899555Y49400345D02*
X126899555Y49257488D01*
X126899555Y49257488D02*
X126851936Y49162250D01*
X126851936Y49162250D02*
X126804317Y49114631D01*
X126804317Y49114631D02*
X126709079Y49067012D01*
X126709079Y49067012D02*
X126328127Y49067012D01*
X127518603Y49590821D02*
X127709079Y49590821D01*
X127709079Y49590821D02*
X127804317Y49543202D01*
X127804317Y49543202D02*
X127899555Y49447964D01*
X127899555Y49447964D02*
X127947174Y49257488D01*
X127947174Y49257488D02*
X127947174Y48924155D01*
X127947174Y48924155D02*
X127899555Y48733679D01*
X127899555Y48733679D02*
X127804317Y48638440D01*
X127804317Y48638440D02*
X127709079Y48590821D01*
X127709079Y48590821D02*
X127518603Y48590821D01*
X127518603Y48590821D02*
X127423365Y48638440D01*
X127423365Y48638440D02*
X127328127Y48733679D01*
X127328127Y48733679D02*
X127280508Y48924155D01*
X127280508Y48924155D02*
X127280508Y49257488D01*
X127280508Y49257488D02*
X127328127Y49447964D01*
X127328127Y49447964D02*
X127423365Y49543202D01*
X127423365Y49543202D02*
X127518603Y49590821D01*
X128899555Y49543202D02*
X128804317Y49590821D01*
X128804317Y49590821D02*
X128661460Y49590821D01*
X128661460Y49590821D02*
X128518603Y49543202D01*
X128518603Y49543202D02*
X128423365Y49447964D01*
X128423365Y49447964D02*
X128375746Y49352726D01*
X128375746Y49352726D02*
X128328127Y49162250D01*
X128328127Y49162250D02*
X128328127Y49019393D01*
X128328127Y49019393D02*
X128375746Y48828917D01*
X128375746Y48828917D02*
X128423365Y48733679D01*
X128423365Y48733679D02*
X128518603Y48638440D01*
X128518603Y48638440D02*
X128661460Y48590821D01*
X128661460Y48590821D02*
X128756698Y48590821D01*
X128756698Y48590821D02*
X128899555Y48638440D01*
X128899555Y48638440D02*
X128947174Y48686060D01*
X128947174Y48686060D02*
X128947174Y49019393D01*
X128947174Y49019393D02*
X128756698Y49019393D01*
X99791280Y48489276D02*
X98791280Y48489276D01*
X99791280Y49060704D02*
X99219851Y48632133D01*
X98791280Y49060704D02*
X99362708Y48489276D01*
X98791280Y49917847D02*
X98791280Y49727371D01*
X98791280Y49727371D02*
X98838899Y49632133D01*
X98838899Y49632133D02*
X98886518Y49584514D01*
X98886518Y49584514D02*
X99029375Y49489276D01*
X99029375Y49489276D02*
X99219851Y49441657D01*
X99219851Y49441657D02*
X99600803Y49441657D01*
X99600803Y49441657D02*
X99696041Y49489276D01*
X99696041Y49489276D02*
X99743661Y49536895D01*
X99743661Y49536895D02*
X99791280Y49632133D01*
X99791280Y49632133D02*
X99791280Y49822609D01*
X99791280Y49822609D02*
X99743661Y49917847D01*
X99743661Y49917847D02*
X99696041Y49965466D01*
X99696041Y49965466D02*
X99600803Y50013085D01*
X99600803Y50013085D02*
X99362708Y50013085D01*
X99362708Y50013085D02*
X99267470Y49965466D01*
X99267470Y49965466D02*
X99219851Y49917847D01*
X99219851Y49917847D02*
X99172232Y49822609D01*
X99172232Y49822609D02*
X99172232Y49632133D01*
X99172232Y49632133D02*
X99219851Y49536895D01*
X99219851Y49536895D02*
X99267470Y49489276D01*
X99267470Y49489276D02*
X99362708Y49441657D01*
X29090607Y48487459D02*
X28090607Y48487459D01*
X29090607Y49058887D02*
X28519178Y48630316D01*
X28090607Y49058887D02*
X28662035Y48487459D01*
X28185845Y49439840D02*
X28138226Y49487459D01*
X28138226Y49487459D02*
X28090607Y49582697D01*
X28090607Y49582697D02*
X28090607Y49820792D01*
X28090607Y49820792D02*
X28138226Y49916030D01*
X28138226Y49916030D02*
X28185845Y49963649D01*
X28185845Y49963649D02*
X28281083Y50011268D01*
X28281083Y50011268D02*
X28376321Y50011268D01*
X28376321Y50011268D02*
X28519178Y49963649D01*
X28519178Y49963649D02*
X29090607Y49392221D01*
X29090607Y49392221D02*
X29090607Y50011268D01*
X17189761Y68601048D02*
X17094523Y68648667D01*
X17094523Y68648667D02*
X16999285Y68743905D01*
X16999285Y68743905D02*
X16856428Y68886763D01*
X16856428Y68886763D02*
X16761190Y68934382D01*
X16761190Y68934382D02*
X16665952Y68934382D01*
X16713571Y68696286D02*
X16618333Y68743905D01*
X16618333Y68743905D02*
X16523095Y68839144D01*
X16523095Y68839144D02*
X16475476Y69029620D01*
X16475476Y69029620D02*
X16475476Y69362953D01*
X16475476Y69362953D02*
X16523095Y69553429D01*
X16523095Y69553429D02*
X16618333Y69648667D01*
X16618333Y69648667D02*
X16713571Y69696286D01*
X16713571Y69696286D02*
X16904047Y69696286D01*
X16904047Y69696286D02*
X16999285Y69648667D01*
X16999285Y69648667D02*
X17094523Y69553429D01*
X17094523Y69553429D02*
X17142142Y69362953D01*
X17142142Y69362953D02*
X17142142Y69029620D01*
X17142142Y69029620D02*
X17094523Y68839144D01*
X17094523Y68839144D02*
X16999285Y68743905D01*
X16999285Y68743905D02*
X16904047Y68696286D01*
X16904047Y68696286D02*
X16713571Y68696286D01*
X18094523Y68696286D02*
X17523095Y68696286D01*
X17808809Y68696286D02*
X17808809Y69696286D01*
X17808809Y69696286D02*
X17713571Y69553429D01*
X17713571Y69553429D02*
X17618333Y69458191D01*
X17618333Y69458191D02*
X17523095Y69410572D01*
X36091905Y19435181D02*
X36091905Y20435181D01*
X36091905Y20435181D02*
X36330000Y20435181D01*
X36330000Y20435181D02*
X36472857Y20387562D01*
X36472857Y20387562D02*
X36568095Y20292324D01*
X36568095Y20292324D02*
X36615714Y20197086D01*
X36615714Y20197086D02*
X36663333Y20006610D01*
X36663333Y20006610D02*
X36663333Y19863753D01*
X36663333Y19863753D02*
X36615714Y19673277D01*
X36615714Y19673277D02*
X36568095Y19578039D01*
X36568095Y19578039D02*
X36472857Y19482800D01*
X36472857Y19482800D02*
X36330000Y19435181D01*
X36330000Y19435181D02*
X36091905Y19435181D01*
X37568095Y20435181D02*
X37091905Y20435181D01*
X37091905Y20435181D02*
X37044286Y19958991D01*
X37044286Y19958991D02*
X37091905Y20006610D01*
X37091905Y20006610D02*
X37187143Y20054229D01*
X37187143Y20054229D02*
X37425238Y20054229D01*
X37425238Y20054229D02*
X37520476Y20006610D01*
X37520476Y20006610D02*
X37568095Y19958991D01*
X37568095Y19958991D02*
X37615714Y19863753D01*
X37615714Y19863753D02*
X37615714Y19625658D01*
X37615714Y19625658D02*
X37568095Y19530420D01*
X37568095Y19530420D02*
X37520476Y19482800D01*
X37520476Y19482800D02*
X37425238Y19435181D01*
X37425238Y19435181D02*
X37187143Y19435181D01*
X37187143Y19435181D02*
X37091905Y19482800D01*
X37091905Y19482800D02*
X37044286Y19530420D01*
X84460333Y71215181D02*
X84127000Y71691372D01*
X83888905Y71215181D02*
X83888905Y72215181D01*
X83888905Y72215181D02*
X84269857Y72215181D01*
X84269857Y72215181D02*
X84365095Y72167562D01*
X84365095Y72167562D02*
X84412714Y72119943D01*
X84412714Y72119943D02*
X84460333Y72024705D01*
X84460333Y72024705D02*
X84460333Y71881848D01*
X84460333Y71881848D02*
X84412714Y71786610D01*
X84412714Y71786610D02*
X84365095Y71738991D01*
X84365095Y71738991D02*
X84269857Y71691372D01*
X84269857Y71691372D02*
X83888905Y71691372D01*
X85365095Y72215181D02*
X84888905Y72215181D01*
X84888905Y72215181D02*
X84841286Y71738991D01*
X84841286Y71738991D02*
X84888905Y71786610D01*
X84888905Y71786610D02*
X84984143Y71834229D01*
X84984143Y71834229D02*
X85222238Y71834229D01*
X85222238Y71834229D02*
X85317476Y71786610D01*
X85317476Y71786610D02*
X85365095Y71738991D01*
X85365095Y71738991D02*
X85412714Y71643753D01*
X85412714Y71643753D02*
X85412714Y71405658D01*
X85412714Y71405658D02*
X85365095Y71310420D01*
X85365095Y71310420D02*
X85317476Y71262800D01*
X85317476Y71262800D02*
X85222238Y71215181D01*
X85222238Y71215181D02*
X84984143Y71215181D01*
X84984143Y71215181D02*
X84888905Y71262800D01*
X84888905Y71262800D02*
X84841286Y71310420D01*
X117390166Y27965181D02*
X117390166Y27250896D01*
X117390166Y27250896D02*
X117342547Y27108039D01*
X117342547Y27108039D02*
X117247309Y27012800D01*
X117247309Y27012800D02*
X117104452Y26965181D01*
X117104452Y26965181D02*
X117009214Y26965181D01*
X118294928Y27631848D02*
X118294928Y26965181D01*
X118056833Y28012800D02*
X117818738Y27298515D01*
X117818738Y27298515D02*
X118437785Y27298515D01*
X46748847Y48348264D02*
X45748847Y48348264D01*
X46748847Y48919692D02*
X46177418Y48491121D01*
X45748847Y48919692D02*
X46320275Y48348264D01*
X45748847Y49253026D02*
X45748847Y49872073D01*
X45748847Y49872073D02*
X46129799Y49538740D01*
X46129799Y49538740D02*
X46129799Y49681597D01*
X46129799Y49681597D02*
X46177418Y49776835D01*
X46177418Y49776835D02*
X46225037Y49824454D01*
X46225037Y49824454D02*
X46320275Y49872073D01*
X46320275Y49872073D02*
X46558370Y49872073D01*
X46558370Y49872073D02*
X46653608Y49824454D01*
X46653608Y49824454D02*
X46701228Y49776835D01*
X46701228Y49776835D02*
X46748847Y49681597D01*
X46748847Y49681597D02*
X46748847Y49395883D01*
X46748847Y49395883D02*
X46701228Y49300645D01*
X46701228Y49300645D02*
X46653608Y49253026D01*
X67143333Y71215181D02*
X66810000Y71691372D01*
X66571905Y71215181D02*
X66571905Y72215181D01*
X66571905Y72215181D02*
X66952857Y72215181D01*
X66952857Y72215181D02*
X67048095Y72167562D01*
X67048095Y72167562D02*
X67095714Y72119943D01*
X67095714Y72119943D02*
X67143333Y72024705D01*
X67143333Y72024705D02*
X67143333Y71881848D01*
X67143333Y71881848D02*
X67095714Y71786610D01*
X67095714Y71786610D02*
X67048095Y71738991D01*
X67048095Y71738991D02*
X66952857Y71691372D01*
X66952857Y71691372D02*
X66571905Y71691372D01*
X68000476Y71881848D02*
X68000476Y71215181D01*
X67762381Y72262800D02*
X67524286Y71548515D01*
X67524286Y71548515D02*
X68143333Y71548515D01*
X87965420Y31722497D02*
X88013040Y31674878D01*
X88013040Y31674878D02*
X88060659Y31532021D01*
X88060659Y31532021D02*
X88060659Y31436783D01*
X88060659Y31436783D02*
X88013040Y31293926D01*
X88013040Y31293926D02*
X87917801Y31198688D01*
X87917801Y31198688D02*
X87822563Y31151069D01*
X87822563Y31151069D02*
X87632087Y31103450D01*
X87632087Y31103450D02*
X87489230Y31103450D01*
X87489230Y31103450D02*
X87298754Y31151069D01*
X87298754Y31151069D02*
X87203516Y31198688D01*
X87203516Y31198688D02*
X87108278Y31293926D01*
X87108278Y31293926D02*
X87060659Y31436783D01*
X87060659Y31436783D02*
X87060659Y31532021D01*
X87060659Y31532021D02*
X87108278Y31674878D01*
X87108278Y31674878D02*
X87155897Y31722497D01*
X87155897Y32103450D02*
X87108278Y32151069D01*
X87108278Y32151069D02*
X87060659Y32246307D01*
X87060659Y32246307D02*
X87060659Y32484402D01*
X87060659Y32484402D02*
X87108278Y32579640D01*
X87108278Y32579640D02*
X87155897Y32627259D01*
X87155897Y32627259D02*
X87251135Y32674878D01*
X87251135Y32674878D02*
X87346373Y32674878D01*
X87346373Y32674878D02*
X87489230Y32627259D01*
X87489230Y32627259D02*
X88060659Y32055831D01*
X88060659Y32055831D02*
X88060659Y32674878D01*
X63500379Y24859772D02*
X63500379Y24383582D01*
X63500379Y24383582D02*
X62500379Y24383582D01*
X63500379Y25716915D02*
X63500379Y25145487D01*
X63500379Y25431201D02*
X62500379Y25431201D01*
X62500379Y25431201D02*
X62643236Y25335963D01*
X62643236Y25335963D02*
X62738474Y25240725D01*
X62738474Y25240725D02*
X62786093Y25145487D01*
X126997166Y27965181D02*
X126997166Y27250896D01*
X126997166Y27250896D02*
X126949547Y27108039D01*
X126949547Y27108039D02*
X126854309Y27012800D01*
X126854309Y27012800D02*
X126711452Y26965181D01*
X126711452Y26965181D02*
X126616214Y26965181D01*
X127949547Y27965181D02*
X127473357Y27965181D01*
X127473357Y27965181D02*
X127425738Y27488991D01*
X127425738Y27488991D02*
X127473357Y27536610D01*
X127473357Y27536610D02*
X127568595Y27584229D01*
X127568595Y27584229D02*
X127806690Y27584229D01*
X127806690Y27584229D02*
X127901928Y27536610D01*
X127901928Y27536610D02*
X127949547Y27488991D01*
X127949547Y27488991D02*
X127997166Y27393753D01*
X127997166Y27393753D02*
X127997166Y27155658D01*
X127997166Y27155658D02*
X127949547Y27060420D01*
X127949547Y27060420D02*
X127901928Y27012800D01*
X127901928Y27012800D02*
X127806690Y26965181D01*
X127806690Y26965181D02*
X127568595Y26965181D01*
X127568595Y26965181D02*
X127473357Y27012800D01*
X127473357Y27012800D02*
X127425738Y27060420D01*
D13*
%TO.C,K4*%
X80444000Y58730000D02*
X73844000Y58730000D01*
X80444000Y58730000D02*
X80444000Y38930000D01*
X71444000Y58730000D02*
X64844000Y58730000D01*
X72594000Y54680000D02*
X72594000Y55480000D01*
X72594000Y54680000D02*
X68994000Y54680000D01*
X66594000Y53780000D02*
X66594000Y51280000D01*
X74394000Y53280000D02*
X74394000Y49280000D01*
X70794000Y53280000D02*
X74394000Y53280000D01*
X78594000Y51280000D02*
X78594000Y53780000D01*
X78594000Y51280000D02*
X74394000Y51280000D01*
X70794000Y51280000D02*
X66594000Y51280000D01*
X74394000Y49280000D02*
X70794000Y49280000D01*
X70794000Y49280000D02*
X74394000Y53280000D01*
X70794000Y49280000D02*
X70794000Y53280000D01*
X72594000Y47880000D02*
X68994000Y47880000D01*
X72594000Y47880000D02*
X72594000Y46380000D01*
X68994000Y47880000D02*
X68994000Y54680000D01*
X72594000Y46380000D02*
X75094000Y41780000D01*
X76844000Y43180000D02*
X74344000Y43180000D01*
X68444000Y43180000D02*
X70894000Y43180000D01*
X80444000Y38930000D02*
X64844000Y38930000D01*
X64844000Y38930000D02*
X64844000Y58730000D01*
%TO.C,Q2*%
X31960000Y68220000D02*
X31960000Y67950000D01*
X31960000Y67950000D02*
X29130000Y67950000D01*
X31960000Y61590000D02*
X30860000Y61590000D01*
X31960000Y61320000D02*
X31960000Y61590000D01*
X33460000Y68220000D02*
X31960000Y68220000D01*
X33460000Y61320000D02*
X31960000Y61320000D01*
%TO.C,Q6*%
X103080000Y68480000D02*
X103080000Y68210000D01*
X103080000Y68210000D02*
X100250000Y68210000D01*
X103080000Y61850000D02*
X101980000Y61850000D01*
X103080000Y61580000D02*
X103080000Y61850000D01*
X104580000Y68480000D02*
X103080000Y68480000D01*
X104580000Y61580000D02*
X103080000Y61580000D01*
D14*
%TO.C,D3*%
X108035436Y80010000D02*
G75*
G03*
X108035436Y80010000I-50000J0D01*
G01*
D13*
%TO.C,26 27 28 29*%
X127230049Y57499491D02*
X127230049Y56169491D01*
X125900049Y57499491D02*
X127230049Y57499491D01*
X124630049Y57499491D02*
X116950049Y57499491D01*
X124630049Y57499491D02*
X124630049Y54839491D01*
X116950049Y57499491D02*
X116950049Y54839491D01*
X124630049Y54839491D02*
X116950049Y54839491D01*
%TO.C,C4*%
X101240000Y34182164D02*
X101240000Y34397836D01*
X101960000Y34182164D02*
X101960000Y34397836D01*
%TO.C,C1*%
X86000000Y33702164D02*
X86000000Y33917836D01*
X86720000Y33702164D02*
X86720000Y33917836D01*
%TO.C,U2*%
X142230000Y80100000D02*
X135815000Y80100000D01*
X142230000Y80100000D02*
X142230000Y61860000D01*
X135815000Y80100000D02*
X135815000Y80480000D01*
X117270000Y80100000D02*
X116490000Y80100000D01*
X116490000Y80100000D02*
X116490000Y79100000D01*
X142230000Y61860000D02*
X135815000Y61860000D01*
X117270000Y61860000D02*
X116490000Y61860000D01*
X116490000Y61860000D02*
X116490000Y62860000D01*
%TO.C,K1*%
X27485000Y58730000D02*
X20885000Y58730000D01*
X27485000Y58730000D02*
X27485000Y38930000D01*
X18485000Y58730000D02*
X11885000Y58730000D01*
X19635000Y54680000D02*
X19635000Y55480000D01*
X19635000Y54680000D02*
X16035000Y54680000D01*
X13635000Y53780000D02*
X13635000Y51280000D01*
X21435000Y53280000D02*
X21435000Y49280000D01*
X17835000Y53280000D02*
X21435000Y53280000D01*
X25635000Y51280000D02*
X25635000Y53780000D01*
X25635000Y51280000D02*
X21435000Y51280000D01*
X17835000Y51280000D02*
X13635000Y51280000D01*
X21435000Y49280000D02*
X17835000Y49280000D01*
X17835000Y49280000D02*
X21435000Y53280000D01*
X17835000Y49280000D02*
X17835000Y53280000D01*
X19635000Y47880000D02*
X16035000Y47880000D01*
X19635000Y47880000D02*
X19635000Y46380000D01*
X16035000Y47880000D02*
X16035000Y54680000D01*
X19635000Y46380000D02*
X22135000Y41780000D01*
X23885000Y43180000D02*
X21385000Y43180000D01*
X15485000Y43180000D02*
X17935000Y43180000D01*
X27485000Y38930000D02*
X11885000Y38930000D01*
X11885000Y38930000D02*
X11885000Y58730000D01*
%TO.C,U1*%
X50710000Y29095000D02*
X50710000Y28145000D01*
X50710000Y28145000D02*
X45585000Y28145000D01*
X50710000Y19645000D02*
X49610000Y19645000D01*
X50710000Y18695000D02*
X50710000Y19645000D01*
X52210000Y29095000D02*
X50710000Y29095000D01*
X52210000Y18695000D02*
X50710000Y18695000D01*
%TO.C,C6*%
X34515000Y26080302D02*
X34515000Y26880302D01*
X34115000Y26480302D02*
X34915000Y26480302D01*
X32750000Y30490000D02*
X40910000Y30490000D01*
X32750000Y30530000D02*
X40910000Y30530000D01*
X32750000Y30570000D02*
X40910000Y30570000D01*
X32751000Y30610000D02*
X40909000Y30610000D01*
X32753000Y30650000D02*
X40907000Y30650000D01*
X32754000Y30690000D02*
X40906000Y30690000D01*
X32756000Y30730000D02*
X40904000Y30730000D01*
X32759000Y30770000D02*
X40901000Y30770000D01*
X32762000Y30810000D02*
X40898000Y30810000D01*
X32765000Y30850000D02*
X40895000Y30850000D01*
X32769000Y30890000D02*
X40891000Y30890000D01*
X32773000Y30930000D02*
X40887000Y30930000D01*
X32778000Y30970000D02*
X40882000Y30970000D01*
X32782000Y31010000D02*
X40878000Y31010000D01*
X32788000Y31050000D02*
X40872000Y31050000D01*
X32793000Y31090000D02*
X40867000Y31090000D01*
X32800000Y31130000D02*
X40860000Y31130000D01*
X32806000Y31170000D02*
X40854000Y31170000D01*
X32813000Y31211000D02*
X35790000Y31211000D01*
X37870000Y31211000D02*
X40847000Y31211000D01*
X32820000Y31251000D02*
X35790000Y31251000D01*
X37870000Y31251000D02*
X40840000Y31251000D01*
X32828000Y31291000D02*
X35790000Y31291000D01*
X37870000Y31291000D02*
X40832000Y31291000D01*
X32836000Y31331000D02*
X35790000Y31331000D01*
X37870000Y31331000D02*
X40824000Y31331000D01*
X32845000Y31371000D02*
X35790000Y31371000D01*
X37870000Y31371000D02*
X40815000Y31371000D01*
X32854000Y31411000D02*
X35790000Y31411000D01*
X37870000Y31411000D02*
X40806000Y31411000D01*
X32863000Y31451000D02*
X35790000Y31451000D01*
X37870000Y31451000D02*
X40797000Y31451000D01*
X32873000Y31491000D02*
X35790000Y31491000D01*
X37870000Y31491000D02*
X40787000Y31491000D01*
X32883000Y31531000D02*
X35790000Y31531000D01*
X37870000Y31531000D02*
X40777000Y31531000D01*
X32894000Y31571000D02*
X35790000Y31571000D01*
X37870000Y31571000D02*
X40766000Y31571000D01*
X32905000Y31611000D02*
X35790000Y31611000D01*
X37870000Y31611000D02*
X40755000Y31611000D01*
X32916000Y31651000D02*
X35790000Y31651000D01*
X37870000Y31651000D02*
X40744000Y31651000D01*
X32928000Y31691000D02*
X35790000Y31691000D01*
X37870000Y31691000D02*
X40732000Y31691000D01*
X32941000Y31731000D02*
X35790000Y31731000D01*
X37870000Y31731000D02*
X40719000Y31731000D01*
X32953000Y31771000D02*
X35790000Y31771000D01*
X37870000Y31771000D02*
X40707000Y31771000D01*
X32967000Y31811000D02*
X35790000Y31811000D01*
X37870000Y31811000D02*
X40693000Y31811000D01*
X32980000Y31851000D02*
X35790000Y31851000D01*
X37870000Y31851000D02*
X40680000Y31851000D01*
X32995000Y31891000D02*
X35790000Y31891000D01*
X37870000Y31891000D02*
X40665000Y31891000D01*
X33009000Y31931000D02*
X35790000Y31931000D01*
X37870000Y31931000D02*
X40651000Y31931000D01*
X33025000Y31971000D02*
X35790000Y31971000D01*
X37870000Y31971000D02*
X40635000Y31971000D01*
X33040000Y32011000D02*
X35790000Y32011000D01*
X37870000Y32011000D02*
X40620000Y32011000D01*
X33056000Y32051000D02*
X35790000Y32051000D01*
X37870000Y32051000D02*
X40604000Y32051000D01*
X33073000Y32091000D02*
X35790000Y32091000D01*
X37870000Y32091000D02*
X40587000Y32091000D01*
X33090000Y32131000D02*
X35790000Y32131000D01*
X37870000Y32131000D02*
X40570000Y32131000D01*
X33108000Y32171000D02*
X35790000Y32171000D01*
X37870000Y32171000D02*
X40552000Y32171000D01*
X33126000Y32211000D02*
X35790000Y32211000D01*
X37870000Y32211000D02*
X40534000Y32211000D01*
X33144000Y32251000D02*
X35790000Y32251000D01*
X37870000Y32251000D02*
X40516000Y32251000D01*
X33164000Y32291000D02*
X35790000Y32291000D01*
X37870000Y32291000D02*
X40496000Y32291000D01*
X33183000Y32331000D02*
X35790000Y32331000D01*
X37870000Y32331000D02*
X40477000Y32331000D01*
X33203000Y32371000D02*
X35790000Y32371000D01*
X37870000Y32371000D02*
X40457000Y32371000D01*
X33224000Y32411000D02*
X35790000Y32411000D01*
X37870000Y32411000D02*
X40436000Y32411000D01*
X33246000Y32451000D02*
X35790000Y32451000D01*
X37870000Y32451000D02*
X40414000Y32451000D01*
X33268000Y32491000D02*
X35790000Y32491000D01*
X37870000Y32491000D02*
X40392000Y32491000D01*
X33290000Y32531000D02*
X35790000Y32531000D01*
X37870000Y32531000D02*
X40370000Y32531000D01*
X33313000Y32571000D02*
X35790000Y32571000D01*
X37870000Y32571000D02*
X40347000Y32571000D01*
X33337000Y32611000D02*
X35790000Y32611000D01*
X37870000Y32611000D02*
X40323000Y32611000D01*
X33361000Y32651000D02*
X35790000Y32651000D01*
X37870000Y32651000D02*
X40299000Y32651000D01*
X33386000Y32691000D02*
X35790000Y32691000D01*
X37870000Y32691000D02*
X40274000Y32691000D01*
X33412000Y32731000D02*
X35790000Y32731000D01*
X37870000Y32731000D02*
X40248000Y32731000D01*
X33438000Y32771000D02*
X35790000Y32771000D01*
X37870000Y32771000D02*
X40222000Y32771000D01*
X33465000Y32811000D02*
X35790000Y32811000D01*
X37870000Y32811000D02*
X40195000Y32811000D01*
X33492000Y32851000D02*
X35790000Y32851000D01*
X37870000Y32851000D02*
X40168000Y32851000D01*
X33521000Y32891000D02*
X35790000Y32891000D01*
X37870000Y32891000D02*
X40139000Y32891000D01*
X33550000Y32931000D02*
X35790000Y32931000D01*
X37870000Y32931000D02*
X40110000Y32931000D01*
X33580000Y32971000D02*
X35790000Y32971000D01*
X37870000Y32971000D02*
X40080000Y32971000D01*
X33610000Y33011000D02*
X35790000Y33011000D01*
X37870000Y33011000D02*
X40050000Y33011000D01*
X33641000Y33051000D02*
X35790000Y33051000D01*
X37870000Y33051000D02*
X40019000Y33051000D01*
X33674000Y33091000D02*
X35790000Y33091000D01*
X37870000Y33091000D02*
X39986000Y33091000D01*
X33706000Y33131000D02*
X35790000Y33131000D01*
X37870000Y33131000D02*
X39954000Y33131000D01*
X33740000Y33171000D02*
X35790000Y33171000D01*
X37870000Y33171000D02*
X39920000Y33171000D01*
X33775000Y33211000D02*
X35790000Y33211000D01*
X37870000Y33211000D02*
X39885000Y33211000D01*
X33811000Y33251000D02*
X35790000Y33251000D01*
X37870000Y33251000D02*
X39849000Y33251000D01*
X33847000Y33291000D02*
X39813000Y33291000D01*
X33885000Y33331000D02*
X39775000Y33331000D01*
X33923000Y33371000D02*
X39737000Y33371000D01*
X33963000Y33411000D02*
X39697000Y33411000D01*
X34004000Y33451000D02*
X39656000Y33451000D01*
X34046000Y33491000D02*
X39614000Y33491000D01*
X34089000Y33531000D02*
X39571000Y33531000D01*
X34133000Y33571000D02*
X39527000Y33571000D01*
X34179000Y33611000D02*
X39481000Y33611000D01*
X34226000Y33651000D02*
X39434000Y33651000D01*
X34274000Y33691000D02*
X39386000Y33691000D01*
X34325000Y33731000D02*
X39335000Y33731000D01*
X34376000Y33771000D02*
X39284000Y33771000D01*
X34430000Y33811000D02*
X39230000Y33811000D01*
X34485000Y33851000D02*
X39175000Y33851000D01*
X34543000Y33891000D02*
X39117000Y33891000D01*
X34602000Y33931000D02*
X39058000Y33931000D01*
X34664000Y33971000D02*
X38996000Y33971000D01*
X34728000Y34011000D02*
X38932000Y34011000D01*
X34796000Y34051000D02*
X38864000Y34051000D01*
X34866000Y34091000D02*
X38794000Y34091000D01*
X34940000Y34131000D02*
X38720000Y34131000D01*
X35017000Y34171000D02*
X38643000Y34171000D01*
X35099000Y34211000D02*
X38561000Y34211000D01*
X35185000Y34251000D02*
X38475000Y34251000D01*
X35278000Y34291000D02*
X38382000Y34291000D01*
X35377000Y34331000D02*
X38283000Y34331000D01*
X35484000Y34371000D02*
X38176000Y34371000D01*
X35601000Y34411000D02*
X38059000Y34411000D01*
X35732000Y34451000D02*
X37928000Y34451000D01*
X35882000Y34491000D02*
X37778000Y34491000D01*
X36062000Y34531000D02*
X37598000Y34531000D01*
X36297000Y34571000D02*
X37363000Y34571000D01*
X40950000Y30490000D02*
G75*
G03*
X40950000Y30490000I-4120000J0D01*
G01*
%TO.C,C5*%
X30255000Y25049698D02*
X30255000Y24249698D01*
X30655000Y24649698D02*
X29855000Y24649698D01*
X32020000Y20640000D02*
X23860000Y20640000D01*
X32020000Y20600000D02*
X23860000Y20600000D01*
X32020000Y20560000D02*
X23860000Y20560000D01*
X32019000Y20520000D02*
X23861000Y20520000D01*
X32017000Y20480000D02*
X23863000Y20480000D01*
X32016000Y20440000D02*
X23864000Y20440000D01*
X32014000Y20400000D02*
X23866000Y20400000D01*
X32011000Y20360000D02*
X23869000Y20360000D01*
X32008000Y20320000D02*
X23872000Y20320000D01*
X32005000Y20280000D02*
X23875000Y20280000D01*
X32001000Y20240000D02*
X23879000Y20240000D01*
X31997000Y20200000D02*
X23883000Y20200000D01*
X31992000Y20160000D02*
X23888000Y20160000D01*
X31988000Y20120000D02*
X23892000Y20120000D01*
X31982000Y20080000D02*
X23898000Y20080000D01*
X31977000Y20040000D02*
X23903000Y20040000D01*
X31970000Y20000000D02*
X23910000Y20000000D01*
X31964000Y19960000D02*
X23916000Y19960000D01*
X31957000Y19919000D02*
X28980000Y19919000D01*
X26900000Y19919000D02*
X23923000Y19919000D01*
X31950000Y19879000D02*
X28980000Y19879000D01*
X26900000Y19879000D02*
X23930000Y19879000D01*
X31942000Y19839000D02*
X28980000Y19839000D01*
X26900000Y19839000D02*
X23938000Y19839000D01*
X31934000Y19799000D02*
X28980000Y19799000D01*
X26900000Y19799000D02*
X23946000Y19799000D01*
X31925000Y19759000D02*
X28980000Y19759000D01*
X26900000Y19759000D02*
X23955000Y19759000D01*
X31916000Y19719000D02*
X28980000Y19719000D01*
X26900000Y19719000D02*
X23964000Y19719000D01*
X31907000Y19679000D02*
X28980000Y19679000D01*
X26900000Y19679000D02*
X23973000Y19679000D01*
X31897000Y19639000D02*
X28980000Y19639000D01*
X26900000Y19639000D02*
X23983000Y19639000D01*
X31887000Y19599000D02*
X28980000Y19599000D01*
X26900000Y19599000D02*
X23993000Y19599000D01*
X31876000Y19559000D02*
X28980000Y19559000D01*
X26900000Y19559000D02*
X24004000Y19559000D01*
X31865000Y19519000D02*
X28980000Y19519000D01*
X26900000Y19519000D02*
X24015000Y19519000D01*
X31854000Y19479000D02*
X28980000Y19479000D01*
X26900000Y19479000D02*
X24026000Y19479000D01*
X31842000Y19439000D02*
X28980000Y19439000D01*
X26900000Y19439000D02*
X24038000Y19439000D01*
X31829000Y19399000D02*
X28980000Y19399000D01*
X26900000Y19399000D02*
X24051000Y19399000D01*
X31817000Y19359000D02*
X28980000Y19359000D01*
X26900000Y19359000D02*
X24063000Y19359000D01*
X31803000Y19319000D02*
X28980000Y19319000D01*
X26900000Y19319000D02*
X24077000Y19319000D01*
X31790000Y19279000D02*
X28980000Y19279000D01*
X26900000Y19279000D02*
X24090000Y19279000D01*
X31775000Y19239000D02*
X28980000Y19239000D01*
X26900000Y19239000D02*
X24105000Y19239000D01*
X31761000Y19199000D02*
X28980000Y19199000D01*
X26900000Y19199000D02*
X24119000Y19199000D01*
X31745000Y19159000D02*
X28980000Y19159000D01*
X26900000Y19159000D02*
X24135000Y19159000D01*
X31730000Y19119000D02*
X28980000Y19119000D01*
X26900000Y19119000D02*
X24150000Y19119000D01*
X31714000Y19079000D02*
X28980000Y19079000D01*
X26900000Y19079000D02*
X24166000Y19079000D01*
X31697000Y19039000D02*
X28980000Y19039000D01*
X26900000Y19039000D02*
X24183000Y19039000D01*
X31680000Y18999000D02*
X28980000Y18999000D01*
X26900000Y18999000D02*
X24200000Y18999000D01*
X31662000Y18959000D02*
X28980000Y18959000D01*
X26900000Y18959000D02*
X24218000Y18959000D01*
X31644000Y18919000D02*
X28980000Y18919000D01*
X26900000Y18919000D02*
X24236000Y18919000D01*
X31626000Y18879000D02*
X28980000Y18879000D01*
X26900000Y18879000D02*
X24254000Y18879000D01*
X31606000Y18839000D02*
X28980000Y18839000D01*
X26900000Y18839000D02*
X24274000Y18839000D01*
X31587000Y18799000D02*
X28980000Y18799000D01*
X26900000Y18799000D02*
X24293000Y18799000D01*
X31567000Y18759000D02*
X28980000Y18759000D01*
X26900000Y18759000D02*
X24313000Y18759000D01*
X31546000Y18719000D02*
X28980000Y18719000D01*
X26900000Y18719000D02*
X24334000Y18719000D01*
X31524000Y18679000D02*
X28980000Y18679000D01*
X26900000Y18679000D02*
X24356000Y18679000D01*
X31502000Y18639000D02*
X28980000Y18639000D01*
X26900000Y18639000D02*
X24378000Y18639000D01*
X31480000Y18599000D02*
X28980000Y18599000D01*
X26900000Y18599000D02*
X24400000Y18599000D01*
X31457000Y18559000D02*
X28980000Y18559000D01*
X26900000Y18559000D02*
X24423000Y18559000D01*
X31433000Y18519000D02*
X28980000Y18519000D01*
X26900000Y18519000D02*
X24447000Y18519000D01*
X31409000Y18479000D02*
X28980000Y18479000D01*
X26900000Y18479000D02*
X24471000Y18479000D01*
X31384000Y18439000D02*
X28980000Y18439000D01*
X26900000Y18439000D02*
X24496000Y18439000D01*
X31358000Y18399000D02*
X28980000Y18399000D01*
X26900000Y18399000D02*
X24522000Y18399000D01*
X31332000Y18359000D02*
X28980000Y18359000D01*
X26900000Y18359000D02*
X24548000Y18359000D01*
X31305000Y18319000D02*
X28980000Y18319000D01*
X26900000Y18319000D02*
X24575000Y18319000D01*
X31278000Y18279000D02*
X28980000Y18279000D01*
X26900000Y18279000D02*
X24602000Y18279000D01*
X31249000Y18239000D02*
X28980000Y18239000D01*
X26900000Y18239000D02*
X24631000Y18239000D01*
X31220000Y18199000D02*
X28980000Y18199000D01*
X26900000Y18199000D02*
X24660000Y18199000D01*
X31190000Y18159000D02*
X28980000Y18159000D01*
X26900000Y18159000D02*
X24690000Y18159000D01*
X31160000Y18119000D02*
X28980000Y18119000D01*
X26900000Y18119000D02*
X24720000Y18119000D01*
X31129000Y18079000D02*
X28980000Y18079000D01*
X26900000Y18079000D02*
X24751000Y18079000D01*
X31096000Y18039000D02*
X28980000Y18039000D01*
X26900000Y18039000D02*
X24784000Y18039000D01*
X31064000Y17999000D02*
X28980000Y17999000D01*
X26900000Y17999000D02*
X24816000Y17999000D01*
X31030000Y17959000D02*
X28980000Y17959000D01*
X26900000Y17959000D02*
X24850000Y17959000D01*
X30995000Y17919000D02*
X28980000Y17919000D01*
X26900000Y17919000D02*
X24885000Y17919000D01*
X30959000Y17879000D02*
X28980000Y17879000D01*
X26900000Y17879000D02*
X24921000Y17879000D01*
X30923000Y17839000D02*
X24957000Y17839000D01*
X30885000Y17799000D02*
X24995000Y17799000D01*
X30847000Y17759000D02*
X25033000Y17759000D01*
X30807000Y17719000D02*
X25073000Y17719000D01*
X30766000Y17679000D02*
X25114000Y17679000D01*
X30724000Y17639000D02*
X25156000Y17639000D01*
X30681000Y17599000D02*
X25199000Y17599000D01*
X30637000Y17559000D02*
X25243000Y17559000D01*
X30591000Y17519000D02*
X25289000Y17519000D01*
X30544000Y17479000D02*
X25336000Y17479000D01*
X30496000Y17439000D02*
X25384000Y17439000D01*
X30445000Y17399000D02*
X25435000Y17399000D01*
X30394000Y17359000D02*
X25486000Y17359000D01*
X30340000Y17319000D02*
X25540000Y17319000D01*
X30285000Y17279000D02*
X25595000Y17279000D01*
X30227000Y17239000D02*
X25653000Y17239000D01*
X30168000Y17199000D02*
X25712000Y17199000D01*
X30106000Y17159000D02*
X25774000Y17159000D01*
X30042000Y17119000D02*
X25838000Y17119000D01*
X29974000Y17079000D02*
X25906000Y17079000D01*
X29904000Y17039000D02*
X25976000Y17039000D01*
X29830000Y16999000D02*
X26050000Y16999000D01*
X29753000Y16959000D02*
X26127000Y16959000D01*
X29671000Y16919000D02*
X26209000Y16919000D01*
X29585000Y16879000D02*
X26295000Y16879000D01*
X29492000Y16839000D02*
X26388000Y16839000D01*
X29393000Y16799000D02*
X26487000Y16799000D01*
X29286000Y16759000D02*
X26594000Y16759000D01*
X29169000Y16719000D02*
X26711000Y16719000D01*
X29038000Y16679000D02*
X26842000Y16679000D01*
X28888000Y16639000D02*
X26992000Y16639000D01*
X28708000Y16599000D02*
X27172000Y16599000D01*
X28473000Y16559000D02*
X27407000Y16559000D01*
X32060000Y20640000D02*
G75*
G03*
X32060000Y20640000I-4120000J0D01*
G01*
D14*
%TO.C,D2*%
X108035436Y77470000D02*
G75*
G03*
X108035436Y77470000I-50000J0D01*
G01*
D13*
%TO.C,J6*%
X132527500Y24540000D02*
X132527500Y22340000D01*
X132867500Y24250000D02*
X132867500Y22340000D01*
X132867500Y24250000D02*
X140997500Y24250000D01*
X132867500Y22340000D02*
X132867500Y17510000D01*
X133827500Y24540000D02*
X132527500Y24540000D01*
X134137500Y25640000D02*
X139727500Y25640000D01*
X134137500Y25390000D02*
X139727500Y25390000D01*
X134137500Y24500000D02*
X139727500Y24500000D01*
X134137500Y24250000D02*
X134137500Y25640000D01*
X136547500Y17770000D02*
X137317500Y17770000D01*
X136547500Y17510000D02*
X132867500Y17510000D01*
X136547500Y17510000D02*
X136547500Y17770000D01*
X137317500Y17770000D02*
X137317500Y17510000D01*
X137317500Y17510000D02*
X140997500Y17510000D01*
X139727500Y24250000D02*
X139727500Y25640000D01*
X140997500Y24250000D02*
X140997500Y22340000D01*
X140997500Y17510000D02*
X140997500Y22340000D01*
%TO.C,R3*%
X48802936Y70760000D02*
X50257064Y70760000D01*
X48802936Y68940000D02*
X50257064Y68940000D01*
%TO.C,U3*%
X90490000Y35160000D02*
X96500000Y35160000D01*
X92740000Y28340000D02*
X96500000Y28340000D01*
X96500000Y35160000D02*
X96500000Y33900000D01*
X96500000Y28340000D02*
X96500000Y29600000D01*
%TO.C,Q3*%
X50445000Y68475000D02*
X50445000Y68205000D01*
X50445000Y68205000D02*
X47615000Y68205000D01*
X50445000Y61845000D02*
X49345000Y61845000D01*
X50445000Y61575000D02*
X50445000Y61845000D01*
X51945000Y68475000D02*
X50445000Y68475000D01*
X51945000Y61575000D02*
X50445000Y61575000D01*
%TO.C,C3*%
X99970000Y34182164D02*
X99970000Y34397836D01*
X100690000Y34182164D02*
X100690000Y34397836D01*
%TO.C,R8*%
X103257767Y78380000D02*
X104711895Y78380000D01*
X103257767Y76560000D02*
X104711895Y76560000D01*
%TO.C,J2*%
X94099500Y24540000D02*
X94099500Y22340000D01*
X94439500Y24250000D02*
X94439500Y22340000D01*
X94439500Y24250000D02*
X102569500Y24250000D01*
X94439500Y22340000D02*
X94439500Y17510000D01*
X95399500Y24540000D02*
X94099500Y24540000D01*
X95709500Y25640000D02*
X101299500Y25640000D01*
X95709500Y25390000D02*
X101299500Y25390000D01*
X95709500Y24500000D02*
X101299500Y24500000D01*
X95709500Y24250000D02*
X95709500Y25640000D01*
X98119500Y17770000D02*
X98889500Y17770000D01*
X98119500Y17510000D02*
X94439500Y17510000D01*
X98119500Y17510000D02*
X98119500Y17770000D01*
X98889500Y17770000D02*
X98889500Y17510000D01*
X98889500Y17510000D02*
X102569500Y17510000D01*
X101299500Y24250000D02*
X101299500Y25640000D01*
X102569500Y24250000D02*
X102569500Y22340000D01*
X102569500Y17510000D02*
X102569500Y22340000D01*
%TO.C,K5*%
X98097000Y58730000D02*
X91497000Y58730000D01*
X98097000Y58730000D02*
X98097000Y38930000D01*
X89097000Y58730000D02*
X82497000Y58730000D01*
X90247000Y54680000D02*
X90247000Y55480000D01*
X90247000Y54680000D02*
X86647000Y54680000D01*
X84247000Y53780000D02*
X84247000Y51280000D01*
X92047000Y53280000D02*
X92047000Y49280000D01*
X88447000Y53280000D02*
X92047000Y53280000D01*
X96247000Y51280000D02*
X96247000Y53780000D01*
X96247000Y51280000D02*
X92047000Y51280000D01*
X88447000Y51280000D02*
X84247000Y51280000D01*
X92047000Y49280000D02*
X88447000Y49280000D01*
X88447000Y49280000D02*
X92047000Y53280000D01*
X88447000Y49280000D02*
X88447000Y53280000D01*
X90247000Y47880000D02*
X86647000Y47880000D01*
X90247000Y47880000D02*
X90247000Y46380000D01*
X86647000Y47880000D02*
X86647000Y54680000D01*
X90247000Y46380000D02*
X92747000Y41780000D01*
X94497000Y43180000D02*
X91997000Y43180000D01*
X86097000Y43180000D02*
X88547000Y43180000D01*
X98097000Y38930000D02*
X82497000Y38930000D01*
X82497000Y38930000D02*
X82497000Y58730000D01*
%TO.C,J3*%
X103706500Y24540000D02*
X103706500Y22340000D01*
X104046500Y24250000D02*
X104046500Y22340000D01*
X104046500Y24250000D02*
X112176500Y24250000D01*
X104046500Y22340000D02*
X104046500Y17510000D01*
X105006500Y24540000D02*
X103706500Y24540000D01*
X105316500Y25640000D02*
X110906500Y25640000D01*
X105316500Y25390000D02*
X110906500Y25390000D01*
X105316500Y24500000D02*
X110906500Y24500000D01*
X105316500Y24250000D02*
X105316500Y25640000D01*
X107726500Y17770000D02*
X108496500Y17770000D01*
X107726500Y17510000D02*
X104046500Y17510000D01*
X107726500Y17510000D02*
X107726500Y17770000D01*
X108496500Y17770000D02*
X108496500Y17510000D01*
X108496500Y17510000D02*
X112176500Y17510000D01*
X110906500Y24250000D02*
X110906500Y25640000D01*
X112176500Y24250000D02*
X112176500Y22340000D01*
X112176500Y17510000D02*
X112176500Y22340000D01*
%TO.C,J1*%
X84492500Y24540000D02*
X84492500Y22340000D01*
X84832500Y24250000D02*
X84832500Y22340000D01*
X84832500Y24250000D02*
X92962500Y24250000D01*
X84832500Y22340000D02*
X84832500Y17510000D01*
X85792500Y24540000D02*
X84492500Y24540000D01*
X86102500Y25640000D02*
X91692500Y25640000D01*
X86102500Y25390000D02*
X91692500Y25390000D01*
X86102500Y24500000D02*
X91692500Y24500000D01*
X86102500Y24250000D02*
X86102500Y25640000D01*
X88512500Y17770000D02*
X89282500Y17770000D01*
X88512500Y17510000D02*
X84832500Y17510000D01*
X88512500Y17510000D02*
X88512500Y17770000D01*
X89282500Y17770000D02*
X89282500Y17510000D01*
X89282500Y17510000D02*
X92962500Y17510000D01*
X91692500Y24250000D02*
X91692500Y25640000D01*
X92962500Y24250000D02*
X92962500Y22340000D01*
X92962500Y17510000D02*
X92962500Y22340000D01*
%TO.C,R1*%
X13287936Y70760000D02*
X14742064Y70760000D01*
X13287936Y68940000D02*
X14742064Y68940000D01*
%TO.C,5V 3V3 GND*%
X125670000Y39430000D02*
X127000000Y39430000D01*
X125670000Y38100000D02*
X125670000Y39430000D01*
X125670000Y36830000D02*
X125670000Y31690000D01*
X125670000Y36830000D02*
X128330000Y36830000D01*
X125670000Y31690000D02*
X128330000Y31690000D01*
X128330000Y36830000D02*
X128330000Y31690000D01*
D14*
%TO.C,D1*%
X108035436Y74930000D02*
G75*
G03*
X108035436Y74930000I-50000J0D01*
G01*
D13*
%TO.C,R2*%
X30432936Y70760000D02*
X31887064Y70760000D01*
X30432936Y68940000D02*
X31887064Y68940000D01*
%TO.C,R7*%
X103257767Y80920000D02*
X104711895Y80920000D01*
X103257767Y79100000D02*
X104711895Y79100000D01*
%TO.C,AC24-IN1*%
X12102500Y24540000D02*
X12102500Y22340000D01*
X12442500Y24250000D02*
X12442500Y22340000D01*
X12442500Y24250000D02*
X20572500Y24250000D01*
X12442500Y22340000D02*
X12442500Y17510000D01*
X13402500Y24540000D02*
X12102500Y24540000D01*
X13712500Y25640000D02*
X19302500Y25640000D01*
X13712500Y25390000D02*
X19302500Y25390000D01*
X13712500Y24500000D02*
X19302500Y24500000D01*
X13712500Y24250000D02*
X13712500Y25640000D01*
X16122500Y17770000D02*
X16892500Y17770000D01*
X16122500Y17510000D02*
X12442500Y17510000D01*
X16122500Y17510000D02*
X16122500Y17770000D01*
X16892500Y17770000D02*
X16892500Y17510000D01*
X16892500Y17510000D02*
X20572500Y17510000D01*
X19302500Y24250000D02*
X19302500Y25640000D01*
X20572500Y24250000D02*
X20572500Y22340000D01*
X20572500Y17510000D02*
X20572500Y22340000D01*
%TO.C,Q4*%
X67820000Y68220000D02*
X67820000Y67950000D01*
X67820000Y67950000D02*
X64990000Y67950000D01*
X67820000Y61590000D02*
X66720000Y61590000D01*
X67820000Y61320000D02*
X67820000Y61590000D01*
X69320000Y68220000D02*
X67820000Y68220000D01*
X69320000Y61320000D02*
X67820000Y61320000D01*
%TO.C,R9*%
X103257767Y75840000D02*
X104711895Y75840000D01*
X103257767Y74020000D02*
X104711895Y74020000D01*
%TO.C,D4*%
X30180000Y30900000D02*
X30180000Y34200000D01*
X30180000Y30900000D02*
X24670000Y30900000D01*
X30180000Y34200000D02*
X24670000Y34200000D01*
%TO.C,Q5*%
X85427000Y68475000D02*
X85427000Y68205000D01*
X85427000Y68205000D02*
X82597000Y68205000D01*
X85427000Y61845000D02*
X84327000Y61845000D01*
X85427000Y61575000D02*
X85427000Y61845000D01*
X86927000Y68475000D02*
X85427000Y68475000D01*
X86927000Y61575000D02*
X85427000Y61575000D01*
%TO.C,R6*%
X101552936Y70760000D02*
X103007064Y70760000D01*
X101552936Y68940000D02*
X103007064Y68940000D01*
%TO.C,EXT/PROG*%
X123330000Y47750000D02*
X124460000Y47750000D01*
X123330000Y46990000D02*
X123330000Y47750000D01*
X123330000Y46230000D02*
X123330000Y43755000D01*
X123330000Y46230000D02*
X123896529Y46230000D01*
X123330000Y43755000D02*
X124152470Y43755000D01*
X124767530Y43755000D02*
X125422470Y43755000D01*
X125023471Y46230000D02*
X125166529Y46230000D01*
X125220000Y47685000D02*
X125422470Y47685000D01*
X125220000Y47553471D02*
X125220000Y47685000D01*
X125220000Y46283471D02*
X125220000Y46426529D01*
X126037530Y47685000D02*
X126860000Y47685000D01*
X126037530Y43755000D02*
X126860000Y43755000D01*
X126860000Y47685000D02*
X126860000Y43755000D01*
%TO.C,K6*%
X115750000Y58730000D02*
X109150000Y58730000D01*
X115750000Y58730000D02*
X115750000Y38930000D01*
X106750000Y58730000D02*
X100150000Y58730000D01*
X107900000Y54680000D02*
X107900000Y55480000D01*
X107900000Y54680000D02*
X104300000Y54680000D01*
X101900000Y53780000D02*
X101900000Y51280000D01*
X109700000Y53280000D02*
X109700000Y49280000D01*
X106100000Y53280000D02*
X109700000Y53280000D01*
X113900000Y51280000D02*
X113900000Y53780000D01*
X113900000Y51280000D02*
X109700000Y51280000D01*
X106100000Y51280000D02*
X101900000Y51280000D01*
X109700000Y49280000D02*
X106100000Y49280000D01*
X106100000Y49280000D02*
X109700000Y53280000D01*
X106100000Y49280000D02*
X106100000Y53280000D01*
X107900000Y47880000D02*
X104300000Y47880000D01*
X107900000Y47880000D02*
X107900000Y46380000D01*
X104300000Y47880000D02*
X104300000Y54680000D01*
X107900000Y46380000D02*
X110400000Y41780000D01*
X112150000Y43180000D02*
X109650000Y43180000D01*
X103750000Y43180000D02*
X106200000Y43180000D01*
X115750000Y38930000D02*
X100150000Y38930000D01*
X100150000Y38930000D02*
X100150000Y58730000D01*
%TO.C,K2*%
X45138000Y58730000D02*
X38538000Y58730000D01*
X45138000Y58730000D02*
X45138000Y38930000D01*
X36138000Y58730000D02*
X29538000Y58730000D01*
X37288000Y54680000D02*
X37288000Y55480000D01*
X37288000Y54680000D02*
X33688000Y54680000D01*
X31288000Y53780000D02*
X31288000Y51280000D01*
X39088000Y53280000D02*
X39088000Y49280000D01*
X35488000Y53280000D02*
X39088000Y53280000D01*
X43288000Y51280000D02*
X43288000Y53780000D01*
X43288000Y51280000D02*
X39088000Y51280000D01*
X35488000Y51280000D02*
X31288000Y51280000D01*
X39088000Y49280000D02*
X35488000Y49280000D01*
X35488000Y49280000D02*
X39088000Y53280000D01*
X35488000Y49280000D02*
X35488000Y53280000D01*
X37288000Y47880000D02*
X33688000Y47880000D01*
X37288000Y47880000D02*
X37288000Y46380000D01*
X33688000Y47880000D02*
X33688000Y54680000D01*
X37288000Y46380000D02*
X39788000Y41780000D01*
X41538000Y43180000D02*
X39038000Y43180000D01*
X33138000Y43180000D02*
X35588000Y43180000D01*
X45138000Y38930000D02*
X29538000Y38930000D01*
X29538000Y38930000D02*
X29538000Y58730000D01*
%TO.C,Q1*%
X14815000Y68101105D02*
X14815000Y67831105D01*
X14815000Y67831105D02*
X11985000Y67831105D01*
X14815000Y61471105D02*
X13715000Y61471105D01*
X14815000Y61201105D02*
X14815000Y61471105D01*
X16315000Y68101105D02*
X14815000Y68101105D01*
X16315000Y61201105D02*
X14815000Y61201105D01*
%TO.C,D5*%
X40340000Y20740000D02*
X40340000Y24040000D01*
X40340000Y20740000D02*
X34830000Y20740000D01*
X40340000Y24040000D02*
X34830000Y24040000D01*
%TO.C,R5*%
X83899936Y70760000D02*
X85354064Y70760000D01*
X83899936Y68940000D02*
X85354064Y68940000D01*
%TO.C,J4*%
X113313500Y24540000D02*
X113313500Y22340000D01*
X113653500Y24250000D02*
X113653500Y22340000D01*
X113653500Y24250000D02*
X121783500Y24250000D01*
X113653500Y22340000D02*
X113653500Y17510000D01*
X114613500Y24540000D02*
X113313500Y24540000D01*
X114923500Y25640000D02*
X120513500Y25640000D01*
X114923500Y25390000D02*
X120513500Y25390000D01*
X114923500Y24500000D02*
X120513500Y24500000D01*
X114923500Y24250000D02*
X114923500Y25640000D01*
X117333500Y17770000D02*
X118103500Y17770000D01*
X117333500Y17510000D02*
X113653500Y17510000D01*
X117333500Y17510000D02*
X117333500Y17770000D01*
X118103500Y17770000D02*
X118103500Y17510000D01*
X118103500Y17510000D02*
X121783500Y17510000D01*
X120513500Y24250000D02*
X120513500Y25640000D01*
X121783500Y24250000D02*
X121783500Y22340000D01*
X121783500Y17510000D02*
X121783500Y22340000D01*
%TO.C,K3*%
X62791000Y58730000D02*
X56191000Y58730000D01*
X62791000Y58730000D02*
X62791000Y38930000D01*
X53791000Y58730000D02*
X47191000Y58730000D01*
X54941000Y54680000D02*
X54941000Y55480000D01*
X54941000Y54680000D02*
X51341000Y54680000D01*
X48941000Y53780000D02*
X48941000Y51280000D01*
X56741000Y53280000D02*
X56741000Y49280000D01*
X53141000Y53280000D02*
X56741000Y53280000D01*
X60941000Y51280000D02*
X60941000Y53780000D01*
X60941000Y51280000D02*
X56741000Y51280000D01*
X53141000Y51280000D02*
X48941000Y51280000D01*
X56741000Y49280000D02*
X53141000Y49280000D01*
X53141000Y49280000D02*
X56741000Y53280000D01*
X53141000Y49280000D02*
X53141000Y53280000D01*
X54941000Y47880000D02*
X51341000Y47880000D01*
X54941000Y47880000D02*
X54941000Y46380000D01*
X51341000Y47880000D02*
X51341000Y54680000D01*
X54941000Y46380000D02*
X57441000Y41780000D01*
X59191000Y43180000D02*
X56691000Y43180000D01*
X50791000Y43180000D02*
X53241000Y43180000D01*
X62791000Y38930000D02*
X47191000Y38930000D01*
X47191000Y38930000D02*
X47191000Y58730000D01*
%TO.C,R4*%
X66582936Y70760000D02*
X68037064Y70760000D01*
X66582936Y68940000D02*
X68037064Y68940000D01*
%TO.C,C2*%
X87270000Y33702164D02*
X87270000Y33917836D01*
X87990000Y33702164D02*
X87990000Y33917836D01*
%TO.C,L1*%
X64145560Y18726438D02*
X64145560Y31326438D01*
X67145560Y18726438D02*
X64145560Y18726438D01*
X76745560Y18726438D02*
X73745560Y18726438D01*
X64145560Y31326438D02*
X67145560Y31326438D01*
X73745560Y31326438D02*
X76745560Y31326438D01*
X76745560Y31326438D02*
X76745560Y18726438D01*
%TO.C,J5*%
X122920500Y24540000D02*
X122920500Y22340000D01*
X123260500Y24250000D02*
X123260500Y22340000D01*
X123260500Y24250000D02*
X131390500Y24250000D01*
X123260500Y22340000D02*
X123260500Y17510000D01*
X124220500Y24540000D02*
X122920500Y24540000D01*
X124530500Y25640000D02*
X130120500Y25640000D01*
X124530500Y25390000D02*
X130120500Y25390000D01*
X124530500Y24500000D02*
X130120500Y24500000D01*
X124530500Y24250000D02*
X124530500Y25640000D01*
X126940500Y17770000D02*
X127710500Y17770000D01*
X126940500Y17510000D02*
X123260500Y17510000D01*
X126940500Y17510000D02*
X126940500Y17770000D01*
X127710500Y17770000D02*
X127710500Y17510000D01*
X127710500Y17510000D02*
X131390500Y17510000D01*
X130120500Y24250000D02*
X130120500Y25640000D01*
X131390500Y24250000D02*
X131390500Y22340000D01*
X131390500Y17510000D02*
X131390500Y22340000D01*
%TD*%
%LPC*%
D15*
%TO.C,K4*%
X72644000Y57330000D03*
D16*
X66594000Y55380000D03*
D15*
X66594000Y43180000D03*
X78644000Y43130000D03*
D16*
X78594000Y55380000D03*
%TD*%
D17*
%TO.C,Q2*%
X30230000Y67050000D03*
D18*
X36530000Y64770000D03*
D17*
X30230000Y62490000D03*
%TD*%
%TO.C,Q6*%
X101350000Y67310000D03*
D18*
X107650000Y65030000D03*
D17*
X101350000Y62750000D03*
%TD*%
D19*
%TO.C,D3*%
X108590436Y80010000D03*
X109560436Y80010000D03*
%TD*%
D20*
%TO.C,26 27 28 29*%
X125900049Y56169491D03*
D21*
X123360049Y56169491D03*
X120820049Y56169491D03*
X118280049Y56169491D03*
%TD*%
D22*
%TO.C,C4*%
X101600000Y33810000D03*
X101600000Y34770000D03*
%TD*%
%TO.C,C1*%
X86360000Y33330000D03*
X86360000Y34290000D03*
%TD*%
D23*
%TO.C,U2*%
X134620000Y79730000D03*
X133350000Y79730000D03*
X132080000Y79730000D03*
X130810000Y79730000D03*
X129540000Y79730000D03*
X128270000Y79730000D03*
X127000000Y79730000D03*
X125730000Y79730000D03*
X124460000Y79730000D03*
X123190000Y79730000D03*
X121920000Y79730000D03*
X120650000Y79730000D03*
X119380000Y79730000D03*
X118110000Y79730000D03*
D24*
X116860000Y76690000D03*
X116860000Y75420000D03*
X116860000Y74150000D03*
X116860000Y72880000D03*
X116860000Y71610000D03*
X116860000Y70340000D03*
X116860000Y69070000D03*
X116860000Y67800000D03*
X116860000Y66530000D03*
X116860000Y65260000D03*
D23*
X118110000Y62230000D03*
X119380000Y62230000D03*
X120650000Y62230000D03*
X121920000Y62230000D03*
X123190000Y62230000D03*
X124460000Y62230000D03*
X125730000Y62230000D03*
X127000000Y62230000D03*
X128270000Y62230000D03*
X129540000Y62230000D03*
X130810000Y62230000D03*
X132080000Y62230000D03*
X133350000Y62230000D03*
X134620000Y62230000D03*
D25*
X127600000Y73880000D03*
X126200000Y73880000D03*
X128300000Y73180000D03*
X126900000Y73180000D03*
X125500000Y73180000D03*
X127600000Y72505000D03*
X126200000Y72505000D03*
D26*
X126900000Y72480000D03*
D25*
X128300000Y71780000D03*
X126900000Y71780000D03*
X125500000Y71780000D03*
X127600000Y71080000D03*
X126200000Y71080000D03*
%TD*%
D15*
%TO.C,K1*%
X19685000Y57330000D03*
D16*
X13635000Y55380000D03*
D15*
X13635000Y43180000D03*
X25685000Y43130000D03*
D16*
X25635000Y55380000D03*
%TD*%
D27*
%TO.C,U1*%
X47885000Y27295000D03*
X47885000Y25595000D03*
X47885000Y23895000D03*
D28*
X57035000Y23895000D03*
D27*
X47885000Y22195000D03*
X47885000Y20495000D03*
%TD*%
D29*
%TO.C,C6*%
X36830000Y28740000D03*
D30*
X36830000Y32240000D03*
%TD*%
D29*
%TO.C,C5*%
X27940000Y22390000D03*
D30*
X27940000Y18890000D03*
%TD*%
D19*
%TO.C,D2*%
X108590436Y77470000D03*
X109560436Y77470000D03*
%TD*%
D31*
%TO.C,J6*%
X135027500Y22340000D03*
D15*
X138907500Y22340000D03*
%TD*%
D32*
%TO.C,R3*%
X48067500Y69850000D03*
X50992500Y69850000D03*
%TD*%
D33*
%TO.C,U3*%
X91440000Y34050000D03*
X91440000Y31750000D03*
D34*
X97740000Y31750000D03*
D33*
X91440000Y29450000D03*
%TD*%
D17*
%TO.C,Q3*%
X48715000Y67305000D03*
D18*
X55015000Y65025000D03*
D17*
X48715000Y62745000D03*
%TD*%
D22*
%TO.C,C3*%
X100330000Y33810000D03*
X100330000Y34770000D03*
%TD*%
D32*
%TO.C,R8*%
X102522331Y77470000D03*
X105447331Y77470000D03*
%TD*%
D31*
%TO.C,J2*%
X96599500Y22340000D03*
D15*
X100479500Y22340000D03*
%TD*%
%TO.C,K5*%
X90297000Y57330000D03*
D16*
X84247000Y55380000D03*
D15*
X84247000Y43180000D03*
X96297000Y43130000D03*
D16*
X96247000Y55380000D03*
%TD*%
D31*
%TO.C,J3*%
X106206500Y22340000D03*
D15*
X110086500Y22340000D03*
%TD*%
D31*
%TO.C,J1*%
X86992500Y22340000D03*
D15*
X90872500Y22340000D03*
%TD*%
D32*
%TO.C,R1*%
X12552500Y69850000D03*
X15477500Y69850000D03*
%TD*%
D21*
%TO.C,5V 3V3 GND*%
X127000000Y38100000D03*
D20*
X127000000Y35560000D03*
X127000000Y33020000D03*
%TD*%
D19*
%TO.C,D1*%
X108590436Y74930000D03*
X109560436Y74930000D03*
%TD*%
D32*
%TO.C,R2*%
X29697500Y69850000D03*
X32622500Y69850000D03*
%TD*%
%TO.C,R7*%
X102522331Y80010000D03*
X105447331Y80010000D03*
%TD*%
D31*
%TO.C,AC24-IN1*%
X14602500Y22340000D03*
D15*
X18482500Y22340000D03*
%TD*%
D17*
%TO.C,Q4*%
X66090000Y67050000D03*
D18*
X72390000Y64770000D03*
D17*
X66090000Y62490000D03*
%TD*%
D32*
%TO.C,R9*%
X102522331Y74930000D03*
X105447331Y74930000D03*
%TD*%
D35*
%TO.C,D4*%
X28670000Y32550000D03*
X24670000Y32550000D03*
%TD*%
D17*
%TO.C,Q5*%
X83697000Y67305000D03*
D18*
X89997000Y65025000D03*
D17*
X83697000Y62745000D03*
%TD*%
D32*
%TO.C,R6*%
X100817500Y69850000D03*
X103742500Y69850000D03*
%TD*%
D36*
%TO.C,EXT/PROG*%
X124460000Y46990000D03*
D37*
X125730000Y46990000D03*
X124460000Y45720000D03*
X125730000Y45720000D03*
X124460000Y44450000D03*
X125730000Y44450000D03*
%TD*%
D15*
%TO.C,K6*%
X107950000Y57330000D03*
D16*
X101900000Y55380000D03*
D15*
X101900000Y43180000D03*
X113950000Y43130000D03*
D16*
X113900000Y55380000D03*
%TD*%
D15*
%TO.C,K2*%
X37338000Y57330000D03*
D16*
X31288000Y55380000D03*
D15*
X31288000Y43180000D03*
X43338000Y43130000D03*
D16*
X43288000Y55380000D03*
%TD*%
D17*
%TO.C,Q1*%
X13085000Y66931105D03*
D18*
X19385000Y64651105D03*
D17*
X13085000Y62371105D03*
%TD*%
D35*
%TO.C,D5*%
X38830000Y22390000D03*
X34830000Y22390000D03*
%TD*%
D32*
%TO.C,R5*%
X83164500Y69850000D03*
X86089500Y69850000D03*
%TD*%
D31*
%TO.C,J4*%
X115813500Y22340000D03*
D15*
X119693500Y22340000D03*
%TD*%
%TO.C,K3*%
X54991000Y57330000D03*
D16*
X48941000Y55380000D03*
D15*
X48941000Y43180000D03*
X60991000Y43130000D03*
D16*
X60941000Y55380000D03*
%TD*%
D32*
%TO.C,R4*%
X65847500Y69850000D03*
X68772500Y69850000D03*
%TD*%
D22*
%TO.C,C2*%
X87630000Y33330000D03*
X87630000Y34290000D03*
%TD*%
D38*
%TO.C,L1*%
X70445560Y20076438D03*
X70445560Y29976438D03*
%TD*%
D31*
%TO.C,J5*%
X125420500Y22340000D03*
D15*
X129300500Y22340000D03*
%TD*%
%LPD*%
M02*
