%TF.GenerationSoftware,KiCad,Pcbnew,7.0.8*%
%TF.CreationDate,2023-10-11T12:41:40+03:00*%
%TF.ProjectId,sprinklers,73707269-6e6b-46c6-9572-732e6b696361,rev?*%
%TF.SameCoordinates,Original*%
%TF.FileFunction,Legend,Top*%
%TF.FilePolarity,Positive*%
%FSLAX46Y46*%
G04 Gerber Fmt 4.6, Leading zero omitted, Abs format (unit mm)*
G04 Created by KiCad (PCBNEW 7.0.8) date 2023-10-11 12:41:40*
%MOMM*%
%LPD*%
G01*
G04 APERTURE LIST*
G04 Aperture macros list*
%AMRoundRect*
0 Rectangle with rounded corners*
0 $1 Rounding radius*
0 $2 $3 $4 $5 $6 $7 $8 $9 X,Y pos of 4 corners*
0 Add a 4 corners polygon primitive as box body*
4,1,4,$2,$3,$4,$5,$6,$7,$8,$9,$2,$3,0*
0 Add four circle primitives for the rounded corners*
1,1,$1+$1,$2,$3*
1,1,$1+$1,$4,$5*
1,1,$1+$1,$6,$7*
1,1,$1+$1,$8,$9*
0 Add four rect primitives between the rounded corners*
20,1,$1+$1,$2,$3,$4,$5,0*
20,1,$1+$1,$4,$5,$6,$7,0*
20,1,$1+$1,$6,$7,$8,$9,0*
20,1,$1+$1,$8,$9,$2,$3,0*%
G04 Aperture macros list end*
%ADD10C,0.150000*%
%ADD11C,0.120000*%
%ADD12C,0.100000*%
%ADD13R,2.200000X1.200000*%
%ADD14R,6.400000X5.800000*%
%ADD15R,2.000000X1.500000*%
%ADD16R,2.000000X3.800000*%
%ADD17RoundRect,0.140000X-0.140000X-0.170000X0.140000X-0.170000X0.140000X0.170000X-0.140000X0.170000X0*%
%ADD18C,3.000000*%
%ADD19C,2.500000*%
%ADD20RoundRect,0.147500X-0.147500X-0.172500X0.147500X-0.172500X0.147500X0.172500X-0.147500X0.172500X0*%
%ADD21R,0.900000X1.500000*%
%ADD22R,1.500000X0.900000*%
%ADD23C,0.600000*%
%ADD24R,3.800000X3.800000*%
%ADD25RoundRect,0.250000X-0.312500X-0.625000X0.312500X-0.625000X0.312500X0.625000X-0.312500X0.625000X0*%
G04 APERTURE END LIST*
D10*
X55784761Y-162420057D02*
X55689523Y-162372438D01*
X55689523Y-162372438D02*
X55594285Y-162277200D01*
X55594285Y-162277200D02*
X55451428Y-162134342D01*
X55451428Y-162134342D02*
X55356190Y-162086723D01*
X55356190Y-162086723D02*
X55260952Y-162086723D01*
X55308571Y-162324819D02*
X55213333Y-162277200D01*
X55213333Y-162277200D02*
X55118095Y-162181961D01*
X55118095Y-162181961D02*
X55070476Y-161991485D01*
X55070476Y-161991485D02*
X55070476Y-161658152D01*
X55070476Y-161658152D02*
X55118095Y-161467676D01*
X55118095Y-161467676D02*
X55213333Y-161372438D01*
X55213333Y-161372438D02*
X55308571Y-161324819D01*
X55308571Y-161324819D02*
X55499047Y-161324819D01*
X55499047Y-161324819D02*
X55594285Y-161372438D01*
X55594285Y-161372438D02*
X55689523Y-161467676D01*
X55689523Y-161467676D02*
X55737142Y-161658152D01*
X55737142Y-161658152D02*
X55737142Y-161991485D01*
X55737142Y-161991485D02*
X55689523Y-162181961D01*
X55689523Y-162181961D02*
X55594285Y-162277200D01*
X55594285Y-162277200D02*
X55499047Y-162324819D01*
X55499047Y-162324819D02*
X55308571Y-162324819D01*
X56594285Y-161324819D02*
X56403809Y-161324819D01*
X56403809Y-161324819D02*
X56308571Y-161372438D01*
X56308571Y-161372438D02*
X56260952Y-161420057D01*
X56260952Y-161420057D02*
X56165714Y-161562914D01*
X56165714Y-161562914D02*
X56118095Y-161753390D01*
X56118095Y-161753390D02*
X56118095Y-162134342D01*
X56118095Y-162134342D02*
X56165714Y-162229580D01*
X56165714Y-162229580D02*
X56213333Y-162277200D01*
X56213333Y-162277200D02*
X56308571Y-162324819D01*
X56308571Y-162324819D02*
X56499047Y-162324819D01*
X56499047Y-162324819D02*
X56594285Y-162277200D01*
X56594285Y-162277200D02*
X56641904Y-162229580D01*
X56641904Y-162229580D02*
X56689523Y-162134342D01*
X56689523Y-162134342D02*
X56689523Y-161896247D01*
X56689523Y-161896247D02*
X56641904Y-161801009D01*
X56641904Y-161801009D02*
X56594285Y-161753390D01*
X56594285Y-161753390D02*
X56499047Y-161705771D01*
X56499047Y-161705771D02*
X56308571Y-161705771D01*
X56308571Y-161705771D02*
X56213333Y-161753390D01*
X56213333Y-161753390D02*
X56165714Y-161801009D01*
X56165714Y-161801009D02*
X56118095Y-161896247D01*
X55124761Y-154795057D02*
X55029523Y-154747438D01*
X55029523Y-154747438D02*
X54934285Y-154652200D01*
X54934285Y-154652200D02*
X54791428Y-154509342D01*
X54791428Y-154509342D02*
X54696190Y-154461723D01*
X54696190Y-154461723D02*
X54600952Y-154461723D01*
X54648571Y-154699819D02*
X54553333Y-154652200D01*
X54553333Y-154652200D02*
X54458095Y-154556961D01*
X54458095Y-154556961D02*
X54410476Y-154366485D01*
X54410476Y-154366485D02*
X54410476Y-154033152D01*
X54410476Y-154033152D02*
X54458095Y-153842676D01*
X54458095Y-153842676D02*
X54553333Y-153747438D01*
X54553333Y-153747438D02*
X54648571Y-153699819D01*
X54648571Y-153699819D02*
X54839047Y-153699819D01*
X54839047Y-153699819D02*
X54934285Y-153747438D01*
X54934285Y-153747438D02*
X55029523Y-153842676D01*
X55029523Y-153842676D02*
X55077142Y-154033152D01*
X55077142Y-154033152D02*
X55077142Y-154366485D01*
X55077142Y-154366485D02*
X55029523Y-154556961D01*
X55029523Y-154556961D02*
X54934285Y-154652200D01*
X54934285Y-154652200D02*
X54839047Y-154699819D01*
X54839047Y-154699819D02*
X54648571Y-154699819D01*
X55981904Y-153699819D02*
X55505714Y-153699819D01*
X55505714Y-153699819D02*
X55458095Y-154176009D01*
X55458095Y-154176009D02*
X55505714Y-154128390D01*
X55505714Y-154128390D02*
X55600952Y-154080771D01*
X55600952Y-154080771D02*
X55839047Y-154080771D01*
X55839047Y-154080771D02*
X55934285Y-154128390D01*
X55934285Y-154128390D02*
X55981904Y-154176009D01*
X55981904Y-154176009D02*
X56029523Y-154271247D01*
X56029523Y-154271247D02*
X56029523Y-154509342D01*
X56029523Y-154509342D02*
X55981904Y-154604580D01*
X55981904Y-154604580D02*
X55934285Y-154652200D01*
X55934285Y-154652200D02*
X55839047Y-154699819D01*
X55839047Y-154699819D02*
X55600952Y-154699819D01*
X55600952Y-154699819D02*
X55505714Y-154652200D01*
X55505714Y-154652200D02*
X55458095Y-154604580D01*
X55124761Y-148345057D02*
X55029523Y-148297438D01*
X55029523Y-148297438D02*
X54934285Y-148202200D01*
X54934285Y-148202200D02*
X54791428Y-148059342D01*
X54791428Y-148059342D02*
X54696190Y-148011723D01*
X54696190Y-148011723D02*
X54600952Y-148011723D01*
X54648571Y-148249819D02*
X54553333Y-148202200D01*
X54553333Y-148202200D02*
X54458095Y-148106961D01*
X54458095Y-148106961D02*
X54410476Y-147916485D01*
X54410476Y-147916485D02*
X54410476Y-147583152D01*
X54410476Y-147583152D02*
X54458095Y-147392676D01*
X54458095Y-147392676D02*
X54553333Y-147297438D01*
X54553333Y-147297438D02*
X54648571Y-147249819D01*
X54648571Y-147249819D02*
X54839047Y-147249819D01*
X54839047Y-147249819D02*
X54934285Y-147297438D01*
X54934285Y-147297438D02*
X55029523Y-147392676D01*
X55029523Y-147392676D02*
X55077142Y-147583152D01*
X55077142Y-147583152D02*
X55077142Y-147916485D01*
X55077142Y-147916485D02*
X55029523Y-148106961D01*
X55029523Y-148106961D02*
X54934285Y-148202200D01*
X54934285Y-148202200D02*
X54839047Y-148249819D01*
X54839047Y-148249819D02*
X54648571Y-148249819D01*
X55934285Y-147583152D02*
X55934285Y-148249819D01*
X55696190Y-147202200D02*
X55458095Y-147916485D01*
X55458095Y-147916485D02*
X56077142Y-147916485D01*
X86299761Y-138545057D02*
X86204523Y-138497438D01*
X86204523Y-138497438D02*
X86109285Y-138402200D01*
X86109285Y-138402200D02*
X85966428Y-138259342D01*
X85966428Y-138259342D02*
X85871190Y-138211723D01*
X85871190Y-138211723D02*
X85775952Y-138211723D01*
X85823571Y-138449819D02*
X85728333Y-138402200D01*
X85728333Y-138402200D02*
X85633095Y-138306961D01*
X85633095Y-138306961D02*
X85585476Y-138116485D01*
X85585476Y-138116485D02*
X85585476Y-137783152D01*
X85585476Y-137783152D02*
X85633095Y-137592676D01*
X85633095Y-137592676D02*
X85728333Y-137497438D01*
X85728333Y-137497438D02*
X85823571Y-137449819D01*
X85823571Y-137449819D02*
X86014047Y-137449819D01*
X86014047Y-137449819D02*
X86109285Y-137497438D01*
X86109285Y-137497438D02*
X86204523Y-137592676D01*
X86204523Y-137592676D02*
X86252142Y-137783152D01*
X86252142Y-137783152D02*
X86252142Y-138116485D01*
X86252142Y-138116485D02*
X86204523Y-138306961D01*
X86204523Y-138306961D02*
X86109285Y-138402200D01*
X86109285Y-138402200D02*
X86014047Y-138449819D01*
X86014047Y-138449819D02*
X85823571Y-138449819D01*
X86585476Y-137449819D02*
X87204523Y-137449819D01*
X87204523Y-137449819D02*
X86871190Y-137830771D01*
X86871190Y-137830771D02*
X87014047Y-137830771D01*
X87014047Y-137830771D02*
X87109285Y-137878390D01*
X87109285Y-137878390D02*
X87156904Y-137926009D01*
X87156904Y-137926009D02*
X87204523Y-138021247D01*
X87204523Y-138021247D02*
X87204523Y-138259342D01*
X87204523Y-138259342D02*
X87156904Y-138354580D01*
X87156904Y-138354580D02*
X87109285Y-138402200D01*
X87109285Y-138402200D02*
X87014047Y-138449819D01*
X87014047Y-138449819D02*
X86728333Y-138449819D01*
X86728333Y-138449819D02*
X86633095Y-138402200D01*
X86633095Y-138402200D02*
X86585476Y-138354580D01*
X56394761Y-40405057D02*
X56299523Y-40357438D01*
X56299523Y-40357438D02*
X56204285Y-40262200D01*
X56204285Y-40262200D02*
X56061428Y-40119342D01*
X56061428Y-40119342D02*
X55966190Y-40071723D01*
X55966190Y-40071723D02*
X55870952Y-40071723D01*
X55918571Y-40309819D02*
X55823333Y-40262200D01*
X55823333Y-40262200D02*
X55728095Y-40166961D01*
X55728095Y-40166961D02*
X55680476Y-39976485D01*
X55680476Y-39976485D02*
X55680476Y-39643152D01*
X55680476Y-39643152D02*
X55728095Y-39452676D01*
X55728095Y-39452676D02*
X55823333Y-39357438D01*
X55823333Y-39357438D02*
X55918571Y-39309819D01*
X55918571Y-39309819D02*
X56109047Y-39309819D01*
X56109047Y-39309819D02*
X56204285Y-39357438D01*
X56204285Y-39357438D02*
X56299523Y-39452676D01*
X56299523Y-39452676D02*
X56347142Y-39643152D01*
X56347142Y-39643152D02*
X56347142Y-39976485D01*
X56347142Y-39976485D02*
X56299523Y-40166961D01*
X56299523Y-40166961D02*
X56204285Y-40262200D01*
X56204285Y-40262200D02*
X56109047Y-40309819D01*
X56109047Y-40309819D02*
X55918571Y-40309819D01*
X56728095Y-39405057D02*
X56775714Y-39357438D01*
X56775714Y-39357438D02*
X56870952Y-39309819D01*
X56870952Y-39309819D02*
X57109047Y-39309819D01*
X57109047Y-39309819D02*
X57204285Y-39357438D01*
X57204285Y-39357438D02*
X57251904Y-39405057D01*
X57251904Y-39405057D02*
X57299523Y-39500295D01*
X57299523Y-39500295D02*
X57299523Y-39595533D01*
X57299523Y-39595533D02*
X57251904Y-39738390D01*
X57251904Y-39738390D02*
X56680476Y-40309819D01*
X56680476Y-40309819D02*
X57299523Y-40309819D01*
X102809761Y-41515057D02*
X102714523Y-41467438D01*
X102714523Y-41467438D02*
X102619285Y-41372200D01*
X102619285Y-41372200D02*
X102476428Y-41229342D01*
X102476428Y-41229342D02*
X102381190Y-41181723D01*
X102381190Y-41181723D02*
X102285952Y-41181723D01*
X102333571Y-41419819D02*
X102238333Y-41372200D01*
X102238333Y-41372200D02*
X102143095Y-41276961D01*
X102143095Y-41276961D02*
X102095476Y-41086485D01*
X102095476Y-41086485D02*
X102095476Y-40753152D01*
X102095476Y-40753152D02*
X102143095Y-40562676D01*
X102143095Y-40562676D02*
X102238333Y-40467438D01*
X102238333Y-40467438D02*
X102333571Y-40419819D01*
X102333571Y-40419819D02*
X102524047Y-40419819D01*
X102524047Y-40419819D02*
X102619285Y-40467438D01*
X102619285Y-40467438D02*
X102714523Y-40562676D01*
X102714523Y-40562676D02*
X102762142Y-40753152D01*
X102762142Y-40753152D02*
X102762142Y-41086485D01*
X102762142Y-41086485D02*
X102714523Y-41276961D01*
X102714523Y-41276961D02*
X102619285Y-41372200D01*
X102619285Y-41372200D02*
X102524047Y-41419819D01*
X102524047Y-41419819D02*
X102333571Y-41419819D01*
X103714523Y-41419819D02*
X103143095Y-41419819D01*
X103428809Y-41419819D02*
X103428809Y-40419819D01*
X103428809Y-40419819D02*
X103333571Y-40562676D01*
X103333571Y-40562676D02*
X103238333Y-40657914D01*
X103238333Y-40657914D02*
X103143095Y-40705533D01*
X83756666Y-20339819D02*
X83423333Y-19863628D01*
X83185238Y-20339819D02*
X83185238Y-19339819D01*
X83185238Y-19339819D02*
X83566190Y-19339819D01*
X83566190Y-19339819D02*
X83661428Y-19387438D01*
X83661428Y-19387438D02*
X83709047Y-19435057D01*
X83709047Y-19435057D02*
X83756666Y-19530295D01*
X83756666Y-19530295D02*
X83756666Y-19673152D01*
X83756666Y-19673152D02*
X83709047Y-19768390D01*
X83709047Y-19768390D02*
X83661428Y-19816009D01*
X83661428Y-19816009D02*
X83566190Y-19863628D01*
X83566190Y-19863628D02*
X83185238Y-19863628D01*
X84185238Y-19816009D02*
X84518571Y-19816009D01*
X84661428Y-20339819D02*
X84185238Y-20339819D01*
X84185238Y-20339819D02*
X84185238Y-19339819D01*
X84185238Y-19339819D02*
X84661428Y-19339819D01*
X85423333Y-19816009D02*
X85090000Y-19816009D01*
X85090000Y-20339819D02*
X85090000Y-19339819D01*
X85090000Y-19339819D02*
X85566190Y-19339819D01*
X86090000Y-19339819D02*
X86090000Y-19577914D01*
X85851905Y-19482676D02*
X86090000Y-19577914D01*
X86090000Y-19577914D02*
X86328095Y-19482676D01*
X85947143Y-19768390D02*
X86090000Y-19577914D01*
X86090000Y-19577914D02*
X86232857Y-19768390D01*
X86851905Y-19339819D02*
X86851905Y-19577914D01*
X86613810Y-19482676D02*
X86851905Y-19577914D01*
X86851905Y-19577914D02*
X87090000Y-19482676D01*
X86709048Y-19768390D02*
X86851905Y-19577914D01*
X86851905Y-19577914D02*
X86994762Y-19768390D01*
X71628095Y-57184819D02*
X71628095Y-57994342D01*
X71628095Y-57994342D02*
X71675714Y-58089580D01*
X71675714Y-58089580D02*
X71723333Y-58137200D01*
X71723333Y-58137200D02*
X71818571Y-58184819D01*
X71818571Y-58184819D02*
X72009047Y-58184819D01*
X72009047Y-58184819D02*
X72104285Y-58137200D01*
X72104285Y-58137200D02*
X72151904Y-58089580D01*
X72151904Y-58089580D02*
X72199523Y-57994342D01*
X72199523Y-57994342D02*
X72199523Y-57184819D01*
X72580476Y-57184819D02*
X73199523Y-57184819D01*
X73199523Y-57184819D02*
X72866190Y-57565771D01*
X72866190Y-57565771D02*
X73009047Y-57565771D01*
X73009047Y-57565771D02*
X73104285Y-57613390D01*
X73104285Y-57613390D02*
X73151904Y-57661009D01*
X73151904Y-57661009D02*
X73199523Y-57756247D01*
X73199523Y-57756247D02*
X73199523Y-57994342D01*
X73199523Y-57994342D02*
X73151904Y-58089580D01*
X73151904Y-58089580D02*
X73104285Y-58137200D01*
X73104285Y-58137200D02*
X73009047Y-58184819D01*
X73009047Y-58184819D02*
X72723333Y-58184819D01*
X72723333Y-58184819D02*
X72628095Y-58137200D01*
X72628095Y-58137200D02*
X72580476Y-58089580D01*
X109290833Y-63969580D02*
X109243214Y-64017200D01*
X109243214Y-64017200D02*
X109100357Y-64064819D01*
X109100357Y-64064819D02*
X109005119Y-64064819D01*
X109005119Y-64064819D02*
X108862262Y-64017200D01*
X108862262Y-64017200D02*
X108767024Y-63921961D01*
X108767024Y-63921961D02*
X108719405Y-63826723D01*
X108719405Y-63826723D02*
X108671786Y-63636247D01*
X108671786Y-63636247D02*
X108671786Y-63493390D01*
X108671786Y-63493390D02*
X108719405Y-63302914D01*
X108719405Y-63302914D02*
X108767024Y-63207676D01*
X108767024Y-63207676D02*
X108862262Y-63112438D01*
X108862262Y-63112438D02*
X109005119Y-63064819D01*
X109005119Y-63064819D02*
X109100357Y-63064819D01*
X109100357Y-63064819D02*
X109243214Y-63112438D01*
X109243214Y-63112438D02*
X109290833Y-63160057D01*
X110243214Y-64064819D02*
X109671786Y-64064819D01*
X109957500Y-64064819D02*
X109957500Y-63064819D01*
X109957500Y-63064819D02*
X109862262Y-63207676D01*
X109862262Y-63207676D02*
X109767024Y-63302914D01*
X109767024Y-63302914D02*
X109671786Y-63350533D01*
X39081905Y-156159819D02*
X39081905Y-155159819D01*
X39653333Y-156159819D02*
X39224762Y-155588390D01*
X39653333Y-155159819D02*
X39081905Y-155731247D01*
X40510476Y-155493152D02*
X40510476Y-156159819D01*
X40272381Y-155112200D02*
X40034286Y-155826485D01*
X40034286Y-155826485D02*
X40653333Y-155826485D01*
X108974405Y-79654819D02*
X108974405Y-78654819D01*
X108974405Y-78654819D02*
X109212500Y-78654819D01*
X109212500Y-78654819D02*
X109355357Y-78702438D01*
X109355357Y-78702438D02*
X109450595Y-78797676D01*
X109450595Y-78797676D02*
X109498214Y-78892914D01*
X109498214Y-78892914D02*
X109545833Y-79083390D01*
X109545833Y-79083390D02*
X109545833Y-79226247D01*
X109545833Y-79226247D02*
X109498214Y-79416723D01*
X109498214Y-79416723D02*
X109450595Y-79511961D01*
X109450595Y-79511961D02*
X109355357Y-79607200D01*
X109355357Y-79607200D02*
X109212500Y-79654819D01*
X109212500Y-79654819D02*
X108974405Y-79654819D01*
X109879167Y-78654819D02*
X110498214Y-78654819D01*
X110498214Y-78654819D02*
X110164881Y-79035771D01*
X110164881Y-79035771D02*
X110307738Y-79035771D01*
X110307738Y-79035771D02*
X110402976Y-79083390D01*
X110402976Y-79083390D02*
X110450595Y-79131009D01*
X110450595Y-79131009D02*
X110498214Y-79226247D01*
X110498214Y-79226247D02*
X110498214Y-79464342D01*
X110498214Y-79464342D02*
X110450595Y-79559580D01*
X110450595Y-79559580D02*
X110402976Y-79607200D01*
X110402976Y-79607200D02*
X110307738Y-79654819D01*
X110307738Y-79654819D02*
X110022024Y-79654819D01*
X110022024Y-79654819D02*
X109926786Y-79607200D01*
X109926786Y-79607200D02*
X109879167Y-79559580D01*
X124293333Y-66509580D02*
X124245714Y-66557200D01*
X124245714Y-66557200D02*
X124102857Y-66604819D01*
X124102857Y-66604819D02*
X124007619Y-66604819D01*
X124007619Y-66604819D02*
X123864762Y-66557200D01*
X123864762Y-66557200D02*
X123769524Y-66461961D01*
X123769524Y-66461961D02*
X123721905Y-66366723D01*
X123721905Y-66366723D02*
X123674286Y-66176247D01*
X123674286Y-66176247D02*
X123674286Y-66033390D01*
X123674286Y-66033390D02*
X123721905Y-65842914D01*
X123721905Y-65842914D02*
X123769524Y-65747676D01*
X123769524Y-65747676D02*
X123864762Y-65652438D01*
X123864762Y-65652438D02*
X124007619Y-65604819D01*
X124007619Y-65604819D02*
X124102857Y-65604819D01*
X124102857Y-65604819D02*
X124245714Y-65652438D01*
X124245714Y-65652438D02*
X124293333Y-65700057D01*
X125150476Y-65938152D02*
X125150476Y-66604819D01*
X124912381Y-65557200D02*
X124674286Y-66271485D01*
X124674286Y-66271485D02*
X125293333Y-66271485D01*
X228438095Y-51704819D02*
X228438095Y-52514342D01*
X228438095Y-52514342D02*
X228485714Y-52609580D01*
X228485714Y-52609580D02*
X228533333Y-52657200D01*
X228533333Y-52657200D02*
X228628571Y-52704819D01*
X228628571Y-52704819D02*
X228819047Y-52704819D01*
X228819047Y-52704819D02*
X228914285Y-52657200D01*
X228914285Y-52657200D02*
X228961904Y-52609580D01*
X228961904Y-52609580D02*
X229009523Y-52514342D01*
X229009523Y-52514342D02*
X229009523Y-51704819D01*
X229438095Y-51800057D02*
X229485714Y-51752438D01*
X229485714Y-51752438D02*
X229580952Y-51704819D01*
X229580952Y-51704819D02*
X229819047Y-51704819D01*
X229819047Y-51704819D02*
X229914285Y-51752438D01*
X229914285Y-51752438D02*
X229961904Y-51800057D01*
X229961904Y-51800057D02*
X230009523Y-51895295D01*
X230009523Y-51895295D02*
X230009523Y-51990533D01*
X230009523Y-51990533D02*
X229961904Y-52133390D01*
X229961904Y-52133390D02*
X229390476Y-52704819D01*
X229390476Y-52704819D02*
X230009523Y-52704819D01*
X36391905Y-36624819D02*
X36391905Y-35624819D01*
X36963333Y-36624819D02*
X36534762Y-36053390D01*
X36963333Y-35624819D02*
X36391905Y-36196247D01*
X37915714Y-36624819D02*
X37344286Y-36624819D01*
X37630000Y-36624819D02*
X37630000Y-35624819D01*
X37630000Y-35624819D02*
X37534762Y-35767676D01*
X37534762Y-35767676D02*
X37439524Y-35862914D01*
X37439524Y-35862914D02*
X37344286Y-35910533D01*
X108974405Y-77664819D02*
X108974405Y-76664819D01*
X108974405Y-76664819D02*
X109212500Y-76664819D01*
X109212500Y-76664819D02*
X109355357Y-76712438D01*
X109355357Y-76712438D02*
X109450595Y-76807676D01*
X109450595Y-76807676D02*
X109498214Y-76902914D01*
X109498214Y-76902914D02*
X109545833Y-77093390D01*
X109545833Y-77093390D02*
X109545833Y-77236247D01*
X109545833Y-77236247D02*
X109498214Y-77426723D01*
X109498214Y-77426723D02*
X109450595Y-77521961D01*
X109450595Y-77521961D02*
X109355357Y-77617200D01*
X109355357Y-77617200D02*
X109212500Y-77664819D01*
X109212500Y-77664819D02*
X108974405Y-77664819D01*
X109926786Y-76760057D02*
X109974405Y-76712438D01*
X109974405Y-76712438D02*
X110069643Y-76664819D01*
X110069643Y-76664819D02*
X110307738Y-76664819D01*
X110307738Y-76664819D02*
X110402976Y-76712438D01*
X110402976Y-76712438D02*
X110450595Y-76760057D01*
X110450595Y-76760057D02*
X110498214Y-76855295D01*
X110498214Y-76855295D02*
X110498214Y-76950533D01*
X110498214Y-76950533D02*
X110450595Y-77093390D01*
X110450595Y-77093390D02*
X109879167Y-77664819D01*
X109879167Y-77664819D02*
X110498214Y-77664819D01*
X105050833Y-74374819D02*
X104717500Y-73898628D01*
X104479405Y-74374819D02*
X104479405Y-73374819D01*
X104479405Y-73374819D02*
X104860357Y-73374819D01*
X104860357Y-73374819D02*
X104955595Y-73422438D01*
X104955595Y-73422438D02*
X105003214Y-73470057D01*
X105003214Y-73470057D02*
X105050833Y-73565295D01*
X105050833Y-73565295D02*
X105050833Y-73708152D01*
X105050833Y-73708152D02*
X105003214Y-73803390D01*
X105003214Y-73803390D02*
X104955595Y-73851009D01*
X104955595Y-73851009D02*
X104860357Y-73898628D01*
X104860357Y-73898628D02*
X104479405Y-73898628D01*
X105384167Y-73374819D02*
X106003214Y-73374819D01*
X106003214Y-73374819D02*
X105669881Y-73755771D01*
X105669881Y-73755771D02*
X105812738Y-73755771D01*
X105812738Y-73755771D02*
X105907976Y-73803390D01*
X105907976Y-73803390D02*
X105955595Y-73851009D01*
X105955595Y-73851009D02*
X106003214Y-73946247D01*
X106003214Y-73946247D02*
X106003214Y-74184342D01*
X106003214Y-74184342D02*
X105955595Y-74279580D01*
X105955595Y-74279580D02*
X105907976Y-74327200D01*
X105907976Y-74327200D02*
X105812738Y-74374819D01*
X105812738Y-74374819D02*
X105527024Y-74374819D01*
X105527024Y-74374819D02*
X105431786Y-74327200D01*
X105431786Y-74327200D02*
X105384167Y-74279580D01*
X120003333Y-62699580D02*
X119955714Y-62747200D01*
X119955714Y-62747200D02*
X119812857Y-62794819D01*
X119812857Y-62794819D02*
X119717619Y-62794819D01*
X119717619Y-62794819D02*
X119574762Y-62747200D01*
X119574762Y-62747200D02*
X119479524Y-62651961D01*
X119479524Y-62651961D02*
X119431905Y-62556723D01*
X119431905Y-62556723D02*
X119384286Y-62366247D01*
X119384286Y-62366247D02*
X119384286Y-62223390D01*
X119384286Y-62223390D02*
X119431905Y-62032914D01*
X119431905Y-62032914D02*
X119479524Y-61937676D01*
X119479524Y-61937676D02*
X119574762Y-61842438D01*
X119574762Y-61842438D02*
X119717619Y-61794819D01*
X119717619Y-61794819D02*
X119812857Y-61794819D01*
X119812857Y-61794819D02*
X119955714Y-61842438D01*
X119955714Y-61842438D02*
X120003333Y-61890057D01*
X120336667Y-61794819D02*
X120955714Y-61794819D01*
X120955714Y-61794819D02*
X120622381Y-62175771D01*
X120622381Y-62175771D02*
X120765238Y-62175771D01*
X120765238Y-62175771D02*
X120860476Y-62223390D01*
X120860476Y-62223390D02*
X120908095Y-62271009D01*
X120908095Y-62271009D02*
X120955714Y-62366247D01*
X120955714Y-62366247D02*
X120955714Y-62604342D01*
X120955714Y-62604342D02*
X120908095Y-62699580D01*
X120908095Y-62699580D02*
X120860476Y-62747200D01*
X120860476Y-62747200D02*
X120765238Y-62794819D01*
X120765238Y-62794819D02*
X120479524Y-62794819D01*
X120479524Y-62794819D02*
X120384286Y-62747200D01*
X120384286Y-62747200D02*
X120336667Y-62699580D01*
X105050833Y-84244819D02*
X104717500Y-83768628D01*
X104479405Y-84244819D02*
X104479405Y-83244819D01*
X104479405Y-83244819D02*
X104860357Y-83244819D01*
X104860357Y-83244819D02*
X104955595Y-83292438D01*
X104955595Y-83292438D02*
X105003214Y-83340057D01*
X105003214Y-83340057D02*
X105050833Y-83435295D01*
X105050833Y-83435295D02*
X105050833Y-83578152D01*
X105050833Y-83578152D02*
X105003214Y-83673390D01*
X105003214Y-83673390D02*
X104955595Y-83721009D01*
X104955595Y-83721009D02*
X104860357Y-83768628D01*
X104860357Y-83768628D02*
X104479405Y-83768628D01*
X105622262Y-83673390D02*
X105527024Y-83625771D01*
X105527024Y-83625771D02*
X105479405Y-83578152D01*
X105479405Y-83578152D02*
X105431786Y-83482914D01*
X105431786Y-83482914D02*
X105431786Y-83435295D01*
X105431786Y-83435295D02*
X105479405Y-83340057D01*
X105479405Y-83340057D02*
X105527024Y-83292438D01*
X105527024Y-83292438D02*
X105622262Y-83244819D01*
X105622262Y-83244819D02*
X105812738Y-83244819D01*
X105812738Y-83244819D02*
X105907976Y-83292438D01*
X105907976Y-83292438D02*
X105955595Y-83340057D01*
X105955595Y-83340057D02*
X106003214Y-83435295D01*
X106003214Y-83435295D02*
X106003214Y-83482914D01*
X106003214Y-83482914D02*
X105955595Y-83578152D01*
X105955595Y-83578152D02*
X105907976Y-83625771D01*
X105907976Y-83625771D02*
X105812738Y-83673390D01*
X105812738Y-83673390D02*
X105622262Y-83673390D01*
X105622262Y-83673390D02*
X105527024Y-83721009D01*
X105527024Y-83721009D02*
X105479405Y-83768628D01*
X105479405Y-83768628D02*
X105431786Y-83863866D01*
X105431786Y-83863866D02*
X105431786Y-84054342D01*
X105431786Y-84054342D02*
X105479405Y-84149580D01*
X105479405Y-84149580D02*
X105527024Y-84197200D01*
X105527024Y-84197200D02*
X105622262Y-84244819D01*
X105622262Y-84244819D02*
X105812738Y-84244819D01*
X105812738Y-84244819D02*
X105907976Y-84197200D01*
X105907976Y-84197200D02*
X105955595Y-84149580D01*
X105955595Y-84149580D02*
X106003214Y-84054342D01*
X106003214Y-84054342D02*
X106003214Y-83863866D01*
X106003214Y-83863866D02*
X105955595Y-83768628D01*
X105955595Y-83768628D02*
X105907976Y-83721009D01*
X105907976Y-83721009D02*
X105812738Y-83673390D01*
X39081905Y-173109819D02*
X39081905Y-172109819D01*
X39653333Y-173109819D02*
X39224762Y-172538390D01*
X39653333Y-172109819D02*
X39081905Y-172681247D01*
X40558095Y-172109819D02*
X40081905Y-172109819D01*
X40081905Y-172109819D02*
X40034286Y-172586009D01*
X40034286Y-172586009D02*
X40081905Y-172538390D01*
X40081905Y-172538390D02*
X40177143Y-172490771D01*
X40177143Y-172490771D02*
X40415238Y-172490771D01*
X40415238Y-172490771D02*
X40510476Y-172538390D01*
X40510476Y-172538390D02*
X40558095Y-172586009D01*
X40558095Y-172586009D02*
X40605714Y-172681247D01*
X40605714Y-172681247D02*
X40605714Y-172919342D01*
X40605714Y-172919342D02*
X40558095Y-173014580D01*
X40558095Y-173014580D02*
X40510476Y-173062200D01*
X40510476Y-173062200D02*
X40415238Y-173109819D01*
X40415238Y-173109819D02*
X40177143Y-173109819D01*
X40177143Y-173109819D02*
X40081905Y-173062200D01*
X40081905Y-173062200D02*
X40034286Y-173014580D01*
X105050833Y-67794819D02*
X104717500Y-67318628D01*
X104479405Y-67794819D02*
X104479405Y-66794819D01*
X104479405Y-66794819D02*
X104860357Y-66794819D01*
X104860357Y-66794819D02*
X104955595Y-66842438D01*
X104955595Y-66842438D02*
X105003214Y-66890057D01*
X105003214Y-66890057D02*
X105050833Y-66985295D01*
X105050833Y-66985295D02*
X105050833Y-67128152D01*
X105050833Y-67128152D02*
X105003214Y-67223390D01*
X105003214Y-67223390D02*
X104955595Y-67271009D01*
X104955595Y-67271009D02*
X104860357Y-67318628D01*
X104860357Y-67318628D02*
X104479405Y-67318628D01*
X106003214Y-67794819D02*
X105431786Y-67794819D01*
X105717500Y-67794819D02*
X105717500Y-66794819D01*
X105717500Y-66794819D02*
X105622262Y-66937676D01*
X105622262Y-66937676D02*
X105527024Y-67032914D01*
X105527024Y-67032914D02*
X105431786Y-67080533D01*
X108974405Y-75674819D02*
X108974405Y-74674819D01*
X108974405Y-74674819D02*
X109212500Y-74674819D01*
X109212500Y-74674819D02*
X109355357Y-74722438D01*
X109355357Y-74722438D02*
X109450595Y-74817676D01*
X109450595Y-74817676D02*
X109498214Y-74912914D01*
X109498214Y-74912914D02*
X109545833Y-75103390D01*
X109545833Y-75103390D02*
X109545833Y-75246247D01*
X109545833Y-75246247D02*
X109498214Y-75436723D01*
X109498214Y-75436723D02*
X109450595Y-75531961D01*
X109450595Y-75531961D02*
X109355357Y-75627200D01*
X109355357Y-75627200D02*
X109212500Y-75674819D01*
X109212500Y-75674819D02*
X108974405Y-75674819D01*
X110498214Y-75674819D02*
X109926786Y-75674819D01*
X110212500Y-75674819D02*
X110212500Y-74674819D01*
X110212500Y-74674819D02*
X110117262Y-74817676D01*
X110117262Y-74817676D02*
X110022024Y-74912914D01*
X110022024Y-74912914D02*
X109926786Y-74960533D01*
X105050833Y-71084819D02*
X104717500Y-70608628D01*
X104479405Y-71084819D02*
X104479405Y-70084819D01*
X104479405Y-70084819D02*
X104860357Y-70084819D01*
X104860357Y-70084819D02*
X104955595Y-70132438D01*
X104955595Y-70132438D02*
X105003214Y-70180057D01*
X105003214Y-70180057D02*
X105050833Y-70275295D01*
X105050833Y-70275295D02*
X105050833Y-70418152D01*
X105050833Y-70418152D02*
X105003214Y-70513390D01*
X105003214Y-70513390D02*
X104955595Y-70561009D01*
X104955595Y-70561009D02*
X104860357Y-70608628D01*
X104860357Y-70608628D02*
X104479405Y-70608628D01*
X105431786Y-70180057D02*
X105479405Y-70132438D01*
X105479405Y-70132438D02*
X105574643Y-70084819D01*
X105574643Y-70084819D02*
X105812738Y-70084819D01*
X105812738Y-70084819D02*
X105907976Y-70132438D01*
X105907976Y-70132438D02*
X105955595Y-70180057D01*
X105955595Y-70180057D02*
X106003214Y-70275295D01*
X106003214Y-70275295D02*
X106003214Y-70370533D01*
X106003214Y-70370533D02*
X105955595Y-70513390D01*
X105955595Y-70513390D02*
X105384167Y-71084819D01*
X105384167Y-71084819D02*
X106003214Y-71084819D01*
X105050833Y-80954819D02*
X104717500Y-80478628D01*
X104479405Y-80954819D02*
X104479405Y-79954819D01*
X104479405Y-79954819D02*
X104860357Y-79954819D01*
X104860357Y-79954819D02*
X104955595Y-80002438D01*
X104955595Y-80002438D02*
X105003214Y-80050057D01*
X105003214Y-80050057D02*
X105050833Y-80145295D01*
X105050833Y-80145295D02*
X105050833Y-80288152D01*
X105050833Y-80288152D02*
X105003214Y-80383390D01*
X105003214Y-80383390D02*
X104955595Y-80431009D01*
X104955595Y-80431009D02*
X104860357Y-80478628D01*
X104860357Y-80478628D02*
X104479405Y-80478628D01*
X105384167Y-79954819D02*
X106050833Y-79954819D01*
X106050833Y-79954819D02*
X105622262Y-80954819D01*
X105050833Y-87534819D02*
X104717500Y-87058628D01*
X104479405Y-87534819D02*
X104479405Y-86534819D01*
X104479405Y-86534819D02*
X104860357Y-86534819D01*
X104860357Y-86534819D02*
X104955595Y-86582438D01*
X104955595Y-86582438D02*
X105003214Y-86630057D01*
X105003214Y-86630057D02*
X105050833Y-86725295D01*
X105050833Y-86725295D02*
X105050833Y-86868152D01*
X105050833Y-86868152D02*
X105003214Y-86963390D01*
X105003214Y-86963390D02*
X104955595Y-87011009D01*
X104955595Y-87011009D02*
X104860357Y-87058628D01*
X104860357Y-87058628D02*
X104479405Y-87058628D01*
X105527024Y-87534819D02*
X105717500Y-87534819D01*
X105717500Y-87534819D02*
X105812738Y-87487200D01*
X105812738Y-87487200D02*
X105860357Y-87439580D01*
X105860357Y-87439580D02*
X105955595Y-87296723D01*
X105955595Y-87296723D02*
X106003214Y-87106247D01*
X106003214Y-87106247D02*
X106003214Y-86725295D01*
X106003214Y-86725295D02*
X105955595Y-86630057D01*
X105955595Y-86630057D02*
X105907976Y-86582438D01*
X105907976Y-86582438D02*
X105812738Y-86534819D01*
X105812738Y-86534819D02*
X105622262Y-86534819D01*
X105622262Y-86534819D02*
X105527024Y-86582438D01*
X105527024Y-86582438D02*
X105479405Y-86630057D01*
X105479405Y-86630057D02*
X105431786Y-86725295D01*
X105431786Y-86725295D02*
X105431786Y-86963390D01*
X105431786Y-86963390D02*
X105479405Y-87058628D01*
X105479405Y-87058628D02*
X105527024Y-87106247D01*
X105527024Y-87106247D02*
X105622262Y-87153866D01*
X105622262Y-87153866D02*
X105812738Y-87153866D01*
X105812738Y-87153866D02*
X105907976Y-87106247D01*
X105907976Y-87106247D02*
X105955595Y-87058628D01*
X105955595Y-87058628D02*
X106003214Y-86963390D01*
X105050833Y-77664819D02*
X104717500Y-77188628D01*
X104479405Y-77664819D02*
X104479405Y-76664819D01*
X104479405Y-76664819D02*
X104860357Y-76664819D01*
X104860357Y-76664819D02*
X104955595Y-76712438D01*
X104955595Y-76712438D02*
X105003214Y-76760057D01*
X105003214Y-76760057D02*
X105050833Y-76855295D01*
X105050833Y-76855295D02*
X105050833Y-76998152D01*
X105050833Y-76998152D02*
X105003214Y-77093390D01*
X105003214Y-77093390D02*
X104955595Y-77141009D01*
X104955595Y-77141009D02*
X104860357Y-77188628D01*
X104860357Y-77188628D02*
X104479405Y-77188628D01*
X105907976Y-76664819D02*
X105717500Y-76664819D01*
X105717500Y-76664819D02*
X105622262Y-76712438D01*
X105622262Y-76712438D02*
X105574643Y-76760057D01*
X105574643Y-76760057D02*
X105479405Y-76902914D01*
X105479405Y-76902914D02*
X105431786Y-77093390D01*
X105431786Y-77093390D02*
X105431786Y-77474342D01*
X105431786Y-77474342D02*
X105479405Y-77569580D01*
X105479405Y-77569580D02*
X105527024Y-77617200D01*
X105527024Y-77617200D02*
X105622262Y-77664819D01*
X105622262Y-77664819D02*
X105812738Y-77664819D01*
X105812738Y-77664819D02*
X105907976Y-77617200D01*
X105907976Y-77617200D02*
X105955595Y-77569580D01*
X105955595Y-77569580D02*
X106003214Y-77474342D01*
X106003214Y-77474342D02*
X106003214Y-77236247D01*
X106003214Y-77236247D02*
X105955595Y-77141009D01*
X105955595Y-77141009D02*
X105907976Y-77093390D01*
X105907976Y-77093390D02*
X105812738Y-77045771D01*
X105812738Y-77045771D02*
X105622262Y-77045771D01*
X105622262Y-77045771D02*
X105527024Y-77093390D01*
X105527024Y-77093390D02*
X105479405Y-77141009D01*
X105479405Y-77141009D02*
X105431786Y-77236247D01*
X39081905Y-190059819D02*
X39081905Y-189059819D01*
X39653333Y-190059819D02*
X39224762Y-189488390D01*
X39653333Y-189059819D02*
X39081905Y-189631247D01*
X40510476Y-189059819D02*
X40320000Y-189059819D01*
X40320000Y-189059819D02*
X40224762Y-189107438D01*
X40224762Y-189107438D02*
X40177143Y-189155057D01*
X40177143Y-189155057D02*
X40081905Y-189297914D01*
X40081905Y-189297914D02*
X40034286Y-189488390D01*
X40034286Y-189488390D02*
X40034286Y-189869342D01*
X40034286Y-189869342D02*
X40081905Y-189964580D01*
X40081905Y-189964580D02*
X40129524Y-190012200D01*
X40129524Y-190012200D02*
X40224762Y-190059819D01*
X40224762Y-190059819D02*
X40415238Y-190059819D01*
X40415238Y-190059819D02*
X40510476Y-190012200D01*
X40510476Y-190012200D02*
X40558095Y-189964580D01*
X40558095Y-189964580D02*
X40605714Y-189869342D01*
X40605714Y-189869342D02*
X40605714Y-189631247D01*
X40605714Y-189631247D02*
X40558095Y-189536009D01*
X40558095Y-189536009D02*
X40510476Y-189488390D01*
X40510476Y-189488390D02*
X40415238Y-189440771D01*
X40415238Y-189440771D02*
X40224762Y-189440771D01*
X40224762Y-189440771D02*
X40129524Y-189488390D01*
X40129524Y-189488390D02*
X40081905Y-189536009D01*
X40081905Y-189536009D02*
X40034286Y-189631247D01*
X39501905Y-118874819D02*
X39501905Y-117874819D01*
X40073333Y-118874819D02*
X39644762Y-118303390D01*
X40073333Y-117874819D02*
X39501905Y-118446247D01*
X40454286Y-117970057D02*
X40501905Y-117922438D01*
X40501905Y-117922438D02*
X40597143Y-117874819D01*
X40597143Y-117874819D02*
X40835238Y-117874819D01*
X40835238Y-117874819D02*
X40930476Y-117922438D01*
X40930476Y-117922438D02*
X40978095Y-117970057D01*
X40978095Y-117970057D02*
X41025714Y-118065295D01*
X41025714Y-118065295D02*
X41025714Y-118160533D01*
X41025714Y-118160533D02*
X40978095Y-118303390D01*
X40978095Y-118303390D02*
X40406667Y-118874819D01*
X40406667Y-118874819D02*
X41025714Y-118874819D01*
X65873333Y-48164819D02*
X65540000Y-47688628D01*
X65301905Y-48164819D02*
X65301905Y-47164819D01*
X65301905Y-47164819D02*
X65682857Y-47164819D01*
X65682857Y-47164819D02*
X65778095Y-47212438D01*
X65778095Y-47212438D02*
X65825714Y-47260057D01*
X65825714Y-47260057D02*
X65873333Y-47355295D01*
X65873333Y-47355295D02*
X65873333Y-47498152D01*
X65873333Y-47498152D02*
X65825714Y-47593390D01*
X65825714Y-47593390D02*
X65778095Y-47641009D01*
X65778095Y-47641009D02*
X65682857Y-47688628D01*
X65682857Y-47688628D02*
X65301905Y-47688628D01*
X66778095Y-47164819D02*
X66301905Y-47164819D01*
X66301905Y-47164819D02*
X66254286Y-47641009D01*
X66254286Y-47641009D02*
X66301905Y-47593390D01*
X66301905Y-47593390D02*
X66397143Y-47545771D01*
X66397143Y-47545771D02*
X66635238Y-47545771D01*
X66635238Y-47545771D02*
X66730476Y-47593390D01*
X66730476Y-47593390D02*
X66778095Y-47641009D01*
X66778095Y-47641009D02*
X66825714Y-47736247D01*
X66825714Y-47736247D02*
X66825714Y-47974342D01*
X66825714Y-47974342D02*
X66778095Y-48069580D01*
X66778095Y-48069580D02*
X66730476Y-48117200D01*
X66730476Y-48117200D02*
X66635238Y-48164819D01*
X66635238Y-48164819D02*
X66397143Y-48164819D01*
X66397143Y-48164819D02*
X66301905Y-48117200D01*
X66301905Y-48117200D02*
X66254286Y-48069580D01*
X39081905Y-139209819D02*
X39081905Y-138209819D01*
X39653333Y-139209819D02*
X39224762Y-138638390D01*
X39653333Y-138209819D02*
X39081905Y-138781247D01*
X39986667Y-138209819D02*
X40605714Y-138209819D01*
X40605714Y-138209819D02*
X40272381Y-138590771D01*
X40272381Y-138590771D02*
X40415238Y-138590771D01*
X40415238Y-138590771D02*
X40510476Y-138638390D01*
X40510476Y-138638390D02*
X40558095Y-138686009D01*
X40558095Y-138686009D02*
X40605714Y-138781247D01*
X40605714Y-138781247D02*
X40605714Y-139019342D01*
X40605714Y-139019342D02*
X40558095Y-139114580D01*
X40558095Y-139114580D02*
X40510476Y-139162200D01*
X40510476Y-139162200D02*
X40415238Y-139209819D01*
X40415238Y-139209819D02*
X40129524Y-139209819D01*
X40129524Y-139209819D02*
X40034286Y-139162200D01*
X40034286Y-139162200D02*
X39986667Y-139114580D01*
X101240833Y-21494819D02*
X100907500Y-21018628D01*
X100669405Y-21494819D02*
X100669405Y-20494819D01*
X100669405Y-20494819D02*
X101050357Y-20494819D01*
X101050357Y-20494819D02*
X101145595Y-20542438D01*
X101145595Y-20542438D02*
X101193214Y-20590057D01*
X101193214Y-20590057D02*
X101240833Y-20685295D01*
X101240833Y-20685295D02*
X101240833Y-20828152D01*
X101240833Y-20828152D02*
X101193214Y-20923390D01*
X101193214Y-20923390D02*
X101145595Y-20971009D01*
X101145595Y-20971009D02*
X101050357Y-21018628D01*
X101050357Y-21018628D02*
X100669405Y-21018628D01*
X102097976Y-20828152D02*
X102097976Y-21494819D01*
X101859881Y-20447200D02*
X101621786Y-21161485D01*
X101621786Y-21161485D02*
X102240833Y-21161485D01*
X114133333Y-62699580D02*
X114085714Y-62747200D01*
X114085714Y-62747200D02*
X113942857Y-62794819D01*
X113942857Y-62794819D02*
X113847619Y-62794819D01*
X113847619Y-62794819D02*
X113704762Y-62747200D01*
X113704762Y-62747200D02*
X113609524Y-62651961D01*
X113609524Y-62651961D02*
X113561905Y-62556723D01*
X113561905Y-62556723D02*
X113514286Y-62366247D01*
X113514286Y-62366247D02*
X113514286Y-62223390D01*
X113514286Y-62223390D02*
X113561905Y-62032914D01*
X113561905Y-62032914D02*
X113609524Y-61937676D01*
X113609524Y-61937676D02*
X113704762Y-61842438D01*
X113704762Y-61842438D02*
X113847619Y-61794819D01*
X113847619Y-61794819D02*
X113942857Y-61794819D01*
X113942857Y-61794819D02*
X114085714Y-61842438D01*
X114085714Y-61842438D02*
X114133333Y-61890057D01*
X114514286Y-61890057D02*
X114561905Y-61842438D01*
X114561905Y-61842438D02*
X114657143Y-61794819D01*
X114657143Y-61794819D02*
X114895238Y-61794819D01*
X114895238Y-61794819D02*
X114990476Y-61842438D01*
X114990476Y-61842438D02*
X115038095Y-61890057D01*
X115038095Y-61890057D02*
X115085714Y-61985295D01*
X115085714Y-61985295D02*
X115085714Y-62080533D01*
X115085714Y-62080533D02*
X115038095Y-62223390D01*
X115038095Y-62223390D02*
X114466667Y-62794819D01*
X114466667Y-62794819D02*
X115085714Y-62794819D01*
D11*
%TO.C,Q6*%
X54910000Y-162920000D02*
X53410000Y-162920000D01*
X53410000Y-162920000D02*
X53410000Y-163190000D01*
X53410000Y-163190000D02*
X50580000Y-163190000D01*
X54910000Y-169820000D02*
X53410000Y-169820000D01*
X53410000Y-169820000D02*
X53410000Y-169550000D01*
X53410000Y-169550000D02*
X52310000Y-169550000D01*
%TO.C,Q5*%
X54250000Y-155295000D02*
X52750000Y-155295000D01*
X52750000Y-155295000D02*
X52750000Y-155565000D01*
X52750000Y-155565000D02*
X49920000Y-155565000D01*
X54250000Y-162195000D02*
X52750000Y-162195000D01*
X52750000Y-162195000D02*
X52750000Y-161925000D01*
X52750000Y-161925000D02*
X51650000Y-161925000D01*
%TO.C,Q4*%
X54250000Y-148845000D02*
X52750000Y-148845000D01*
X52750000Y-148845000D02*
X52750000Y-149115000D01*
X52750000Y-149115000D02*
X49920000Y-149115000D01*
X54250000Y-155745000D02*
X52750000Y-155745000D01*
X52750000Y-155745000D02*
X52750000Y-155475000D01*
X52750000Y-155475000D02*
X51650000Y-155475000D01*
%TO.C,Q3*%
X85425000Y-139045000D02*
X83925000Y-139045000D01*
X83925000Y-139045000D02*
X83925000Y-139315000D01*
X83925000Y-139315000D02*
X81095000Y-139315000D01*
X85425000Y-145945000D02*
X83925000Y-145945000D01*
X83925000Y-145945000D02*
X83925000Y-145675000D01*
X83925000Y-145675000D02*
X82825000Y-145675000D01*
%TO.C,Q2*%
X55520000Y-40905000D02*
X54020000Y-40905000D01*
X54020000Y-40905000D02*
X54020000Y-41175000D01*
X54020000Y-41175000D02*
X51190000Y-41175000D01*
X55520000Y-47805000D02*
X54020000Y-47805000D01*
X54020000Y-47805000D02*
X54020000Y-47535000D01*
X54020000Y-47535000D02*
X52920000Y-47535000D01*
%TO.C,Q1*%
X101935000Y-42015000D02*
X100435000Y-42015000D01*
X100435000Y-42015000D02*
X100435000Y-42285000D01*
X100435000Y-42285000D02*
X97605000Y-42285000D01*
X101935000Y-48915000D02*
X100435000Y-48915000D01*
X100435000Y-48915000D02*
X100435000Y-48645000D01*
X100435000Y-48645000D02*
X99335000Y-48645000D01*
%TO.C,REF\u002A\u002A*%
X84120000Y-20935000D02*
X82620000Y-20935000D01*
X82620000Y-20935000D02*
X82620000Y-21205000D01*
X82620000Y-21205000D02*
X79790000Y-21205000D01*
X84120000Y-27835000D02*
X82620000Y-27835000D01*
X82620000Y-27835000D02*
X82620000Y-27565000D01*
X82620000Y-27565000D02*
X81520000Y-27565000D01*
%TO.C,U3*%
X68290000Y-58820000D02*
X74300000Y-58820000D01*
X70540000Y-65640000D02*
X74300000Y-65640000D01*
X74300000Y-65640000D02*
X74300000Y-64380000D01*
X74300000Y-58820000D02*
X74300000Y-60080000D01*
%TO.C,C1*%
X109349664Y-65130000D02*
X109565336Y-65130000D01*
X109349664Y-64410000D02*
X109565336Y-64410000D01*
%TO.C,K4*%
X30320000Y-138705000D02*
X30320000Y-145305000D01*
X30320000Y-138705000D02*
X50120000Y-138705000D01*
X30320000Y-147705000D02*
X30320000Y-154305000D01*
X34370000Y-146555000D02*
X33570000Y-146555000D01*
X34370000Y-146555000D02*
X34370000Y-150155000D01*
X35270000Y-152555000D02*
X37770000Y-152555000D01*
X35770000Y-144755000D02*
X39770000Y-144755000D01*
X35770000Y-148355000D02*
X35770000Y-144755000D01*
X37770000Y-140555000D02*
X35270000Y-140555000D01*
X37770000Y-140555000D02*
X37770000Y-144755000D01*
X37770000Y-148355000D02*
X37770000Y-152555000D01*
X39770000Y-144755000D02*
X39770000Y-148355000D01*
X39770000Y-148355000D02*
X35770000Y-144755000D01*
X39770000Y-148355000D02*
X35770000Y-148355000D01*
X41170000Y-146555000D02*
X41170000Y-150155000D01*
X41170000Y-146555000D02*
X42670000Y-146555000D01*
X41170000Y-150155000D02*
X34370000Y-150155000D01*
X42670000Y-146555000D02*
X47270000Y-144055000D01*
X45870000Y-142305000D02*
X45870000Y-144805000D01*
X45870000Y-150705000D02*
X45870000Y-148255000D01*
X50120000Y-138705000D02*
X50120000Y-154305000D01*
X50120000Y-154305000D02*
X30320000Y-154305000D01*
D12*
%TO.C,D3*%
X108672500Y-80370000D02*
G75*
G03*
X108672500Y-80370000I-50000J0D01*
G01*
D11*
%TO.C,C4*%
X124352164Y-66950000D02*
X124567836Y-66950000D01*
X124352164Y-67670000D02*
X124567836Y-67670000D01*
%TO.C,U2*%
X253490000Y-53740000D02*
X247075000Y-53740000D01*
X253490000Y-53740000D02*
X253490000Y-71980000D01*
X247075000Y-53740000D02*
X247075000Y-53360000D01*
X228530000Y-53740000D02*
X227750000Y-53740000D01*
X227750000Y-53740000D02*
X227750000Y-54740000D01*
X253490000Y-71980000D02*
X247075000Y-71980000D01*
X228530000Y-71980000D02*
X227750000Y-71980000D01*
X227750000Y-71980000D02*
X227750000Y-70980000D01*
%TO.C,K1*%
X27630000Y-19170000D02*
X27630000Y-25770000D01*
X27630000Y-19170000D02*
X47430000Y-19170000D01*
X27630000Y-28170000D02*
X27630000Y-34770000D01*
X31680000Y-27020000D02*
X30880000Y-27020000D01*
X31680000Y-27020000D02*
X31680000Y-30620000D01*
X32580000Y-33020000D02*
X35080000Y-33020000D01*
X33080000Y-25220000D02*
X37080000Y-25220000D01*
X33080000Y-28820000D02*
X33080000Y-25220000D01*
X35080000Y-21020000D02*
X32580000Y-21020000D01*
X35080000Y-21020000D02*
X35080000Y-25220000D01*
X35080000Y-28820000D02*
X35080000Y-33020000D01*
X37080000Y-25220000D02*
X37080000Y-28820000D01*
X37080000Y-28820000D02*
X33080000Y-25220000D01*
X37080000Y-28820000D02*
X33080000Y-28820000D01*
X38480000Y-27020000D02*
X38480000Y-30620000D01*
X38480000Y-27020000D02*
X39980000Y-27020000D01*
X38480000Y-30620000D02*
X31680000Y-30620000D01*
X39980000Y-27020000D02*
X44580000Y-24520000D01*
X43180000Y-22770000D02*
X43180000Y-25270000D01*
X43180000Y-31170000D02*
X43180000Y-28720000D01*
X47430000Y-19170000D02*
X47430000Y-34770000D01*
X47430000Y-34770000D02*
X27630000Y-34770000D01*
D12*
%TO.C,D2*%
X108672500Y-78380000D02*
G75*
G03*
X108672500Y-78380000I-50000J0D01*
G01*
D11*
%TO.C,R3*%
X104490436Y-74830000D02*
X105944564Y-74830000D01*
X104490436Y-76650000D02*
X105944564Y-76650000D01*
%TO.C,C3*%
X120062164Y-63860000D02*
X120277836Y-63860000D01*
X120062164Y-63140000D02*
X120277836Y-63140000D01*
%TO.C,R8*%
X104490436Y-84700000D02*
X105944564Y-84700000D01*
X104490436Y-86520000D02*
X105944564Y-86520000D01*
%TO.C,K5*%
X30320000Y-155655000D02*
X30320000Y-162255000D01*
X30320000Y-155655000D02*
X50120000Y-155655000D01*
X30320000Y-164655000D02*
X30320000Y-171255000D01*
X34370000Y-163505000D02*
X33570000Y-163505000D01*
X34370000Y-163505000D02*
X34370000Y-167105000D01*
X35270000Y-169505000D02*
X37770000Y-169505000D01*
X35770000Y-161705000D02*
X39770000Y-161705000D01*
X35770000Y-165305000D02*
X35770000Y-161705000D01*
X37770000Y-157505000D02*
X35270000Y-157505000D01*
X37770000Y-157505000D02*
X37770000Y-161705000D01*
X37770000Y-165305000D02*
X37770000Y-169505000D01*
X39770000Y-161705000D02*
X39770000Y-165305000D01*
X39770000Y-165305000D02*
X35770000Y-161705000D01*
X39770000Y-165305000D02*
X35770000Y-165305000D01*
X41170000Y-163505000D02*
X41170000Y-167105000D01*
X41170000Y-163505000D02*
X42670000Y-163505000D01*
X41170000Y-167105000D02*
X34370000Y-167105000D01*
X42670000Y-163505000D02*
X47270000Y-161005000D01*
X45870000Y-159255000D02*
X45870000Y-161755000D01*
X45870000Y-167655000D02*
X45870000Y-165205000D01*
X50120000Y-155655000D02*
X50120000Y-171255000D01*
X50120000Y-171255000D02*
X30320000Y-171255000D01*
%TO.C,R1*%
X104490436Y-68250000D02*
X105944564Y-68250000D01*
X104490436Y-70070000D02*
X105944564Y-70070000D01*
D12*
%TO.C,D1*%
X108672500Y-76390000D02*
G75*
G03*
X108672500Y-76390000I-50000J0D01*
G01*
D11*
%TO.C,R2*%
X104490436Y-71540000D02*
X105944564Y-71540000D01*
X104490436Y-73360000D02*
X105944564Y-73360000D01*
%TO.C,R7*%
X104490436Y-81410000D02*
X105944564Y-81410000D01*
X104490436Y-83230000D02*
X105944564Y-83230000D01*
%TO.C,R9*%
X104490436Y-87990000D02*
X105944564Y-87990000D01*
X104490436Y-89810000D02*
X105944564Y-89810000D01*
%TO.C,R6*%
X104490436Y-78120000D02*
X105944564Y-78120000D01*
X104490436Y-79940000D02*
X105944564Y-79940000D01*
%TO.C,K6*%
X30320000Y-172605000D02*
X30320000Y-179205000D01*
X30320000Y-172605000D02*
X50120000Y-172605000D01*
X30320000Y-181605000D02*
X30320000Y-188205000D01*
X34370000Y-180455000D02*
X33570000Y-180455000D01*
X34370000Y-180455000D02*
X34370000Y-184055000D01*
X35270000Y-186455000D02*
X37770000Y-186455000D01*
X35770000Y-178655000D02*
X39770000Y-178655000D01*
X35770000Y-182255000D02*
X35770000Y-178655000D01*
X37770000Y-174455000D02*
X35270000Y-174455000D01*
X37770000Y-174455000D02*
X37770000Y-178655000D01*
X37770000Y-182255000D02*
X37770000Y-186455000D01*
X39770000Y-178655000D02*
X39770000Y-182255000D01*
X39770000Y-182255000D02*
X35770000Y-178655000D01*
X39770000Y-182255000D02*
X35770000Y-182255000D01*
X41170000Y-180455000D02*
X41170000Y-184055000D01*
X41170000Y-180455000D02*
X42670000Y-180455000D01*
X41170000Y-184055000D02*
X34370000Y-184055000D01*
X42670000Y-180455000D02*
X47270000Y-177955000D01*
X45870000Y-176205000D02*
X45870000Y-178705000D01*
X45870000Y-184605000D02*
X45870000Y-182155000D01*
X50120000Y-172605000D02*
X50120000Y-188205000D01*
X50120000Y-188205000D02*
X30320000Y-188205000D01*
%TO.C,K2*%
X30740000Y-101420000D02*
X30740000Y-108020000D01*
X30740000Y-101420000D02*
X50540000Y-101420000D01*
X30740000Y-110420000D02*
X30740000Y-117020000D01*
X34790000Y-109270000D02*
X33990000Y-109270000D01*
X34790000Y-109270000D02*
X34790000Y-112870000D01*
X35690000Y-115270000D02*
X38190000Y-115270000D01*
X36190000Y-107470000D02*
X40190000Y-107470000D01*
X36190000Y-111070000D02*
X36190000Y-107470000D01*
X38190000Y-103270000D02*
X35690000Y-103270000D01*
X38190000Y-103270000D02*
X38190000Y-107470000D01*
X38190000Y-111070000D02*
X38190000Y-115270000D01*
X40190000Y-107470000D02*
X40190000Y-111070000D01*
X40190000Y-111070000D02*
X36190000Y-107470000D01*
X40190000Y-111070000D02*
X36190000Y-111070000D01*
X41590000Y-109270000D02*
X41590000Y-112870000D01*
X41590000Y-109270000D02*
X43090000Y-109270000D01*
X41590000Y-112870000D02*
X34790000Y-112870000D01*
X43090000Y-109270000D02*
X47690000Y-106770000D01*
X46290000Y-105020000D02*
X46290000Y-107520000D01*
X46290000Y-113420000D02*
X46290000Y-110970000D01*
X50540000Y-101420000D02*
X50540000Y-117020000D01*
X50540000Y-117020000D02*
X30740000Y-117020000D01*
%TO.C,R5*%
X65312936Y-48620000D02*
X66767064Y-48620000D01*
X65312936Y-50440000D02*
X66767064Y-50440000D01*
%TO.C,K3*%
X30320000Y-121755000D02*
X30320000Y-128355000D01*
X30320000Y-121755000D02*
X50120000Y-121755000D01*
X30320000Y-130755000D02*
X30320000Y-137355000D01*
X34370000Y-129605000D02*
X33570000Y-129605000D01*
X34370000Y-129605000D02*
X34370000Y-133205000D01*
X35270000Y-135605000D02*
X37770000Y-135605000D01*
X35770000Y-127805000D02*
X39770000Y-127805000D01*
X35770000Y-131405000D02*
X35770000Y-127805000D01*
X37770000Y-123605000D02*
X35270000Y-123605000D01*
X37770000Y-123605000D02*
X37770000Y-127805000D01*
X37770000Y-131405000D02*
X37770000Y-135605000D01*
X39770000Y-127805000D02*
X39770000Y-131405000D01*
X39770000Y-131405000D02*
X35770000Y-127805000D01*
X39770000Y-131405000D02*
X35770000Y-131405000D01*
X41170000Y-129605000D02*
X41170000Y-133205000D01*
X41170000Y-129605000D02*
X42670000Y-129605000D01*
X41170000Y-133205000D02*
X34370000Y-133205000D01*
X42670000Y-129605000D02*
X47270000Y-127105000D01*
X45870000Y-125355000D02*
X45870000Y-127855000D01*
X45870000Y-133755000D02*
X45870000Y-131305000D01*
X50120000Y-121755000D02*
X50120000Y-137355000D01*
X50120000Y-137355000D02*
X30320000Y-137355000D01*
%TO.C,R4*%
X100680436Y-21950000D02*
X102134564Y-21950000D01*
X100680436Y-23770000D02*
X102134564Y-23770000D01*
%TO.C,C2*%
X114192164Y-63140000D02*
X114407836Y-63140000D01*
X114192164Y-63860000D02*
X114407836Y-63860000D01*
%TD*%
%LPC*%
D13*
%TO.C,Q6*%
X51680000Y-164090000D03*
X51680000Y-168650000D03*
D14*
X57980000Y-166370000D03*
%TD*%
D13*
%TO.C,Q5*%
X51020000Y-156465000D03*
X51020000Y-161025000D03*
D14*
X57320000Y-158745000D03*
%TD*%
D13*
%TO.C,Q4*%
X51020000Y-150015000D03*
X51020000Y-154575000D03*
D14*
X57320000Y-152295000D03*
%TD*%
D13*
%TO.C,Q3*%
X82195000Y-140215000D03*
X82195000Y-144775000D03*
D14*
X88495000Y-142495000D03*
%TD*%
D13*
%TO.C,Q2*%
X52290000Y-42075000D03*
X52290000Y-46635000D03*
D14*
X58590000Y-44355000D03*
%TD*%
D13*
%TO.C,Q1*%
X98705000Y-43185000D03*
X98705000Y-47745000D03*
D14*
X105005000Y-45465000D03*
%TD*%
D13*
%TO.C,REF\u002A\u002A*%
X80890000Y-22105000D03*
X80890000Y-26665000D03*
D14*
X87190000Y-24385000D03*
%TD*%
D15*
%TO.C,U3*%
X69240000Y-59930000D03*
D16*
X75540000Y-62230000D03*
D15*
X69240000Y-62230000D03*
X69240000Y-64530000D03*
%TD*%
D17*
%TO.C,C1*%
X108977500Y-64770000D03*
X109937500Y-64770000D03*
%TD*%
D18*
%TO.C,K4*%
X31720000Y-146505000D03*
D19*
X33670000Y-152555000D03*
D18*
X45870000Y-152555000D03*
X45920000Y-140505000D03*
D19*
X33670000Y-140555000D03*
%TD*%
D20*
%TO.C,D3*%
X109227500Y-80370000D03*
X110197500Y-80370000D03*
%TD*%
D17*
%TO.C,C4*%
X123980000Y-67310000D03*
X124940000Y-67310000D03*
%TD*%
D21*
%TO.C,U2*%
X245880000Y-54110000D03*
X244610000Y-54110000D03*
X243340000Y-54110000D03*
X242070000Y-54110000D03*
X240800000Y-54110000D03*
X239530000Y-54110000D03*
X238260000Y-54110000D03*
X236990000Y-54110000D03*
X235720000Y-54110000D03*
X234450000Y-54110000D03*
X233180000Y-54110000D03*
X231910000Y-54110000D03*
X230640000Y-54110000D03*
X229370000Y-54110000D03*
D22*
X228120000Y-57150000D03*
X228120000Y-58420000D03*
X228120000Y-59690000D03*
X228120000Y-60960000D03*
X228120000Y-62230000D03*
X228120000Y-63500000D03*
X228120000Y-64770000D03*
X228120000Y-66040000D03*
X228120000Y-67310000D03*
X228120000Y-68580000D03*
D21*
X229370000Y-71610000D03*
X230640000Y-71610000D03*
X231910000Y-71610000D03*
X233180000Y-71610000D03*
X234450000Y-71610000D03*
X235720000Y-71610000D03*
X236990000Y-71610000D03*
X238260000Y-71610000D03*
X239530000Y-71610000D03*
X240800000Y-71610000D03*
X242070000Y-71610000D03*
X243340000Y-71610000D03*
X244610000Y-71610000D03*
X245880000Y-71610000D03*
D23*
X238860000Y-59960000D03*
X237460000Y-59960000D03*
X239560000Y-60660000D03*
X238160000Y-60660000D03*
X236760000Y-60660000D03*
X238860000Y-61335000D03*
X237460000Y-61335000D03*
D24*
X238160000Y-61360000D03*
D23*
X239560000Y-62060000D03*
X238160000Y-62060000D03*
X236760000Y-62060000D03*
X238860000Y-62760000D03*
X237460000Y-62760000D03*
%TD*%
D18*
%TO.C,K1*%
X29030000Y-26970000D03*
D19*
X30980000Y-33020000D03*
D18*
X43180000Y-33020000D03*
X43230000Y-20970000D03*
D19*
X30980000Y-21020000D03*
%TD*%
D20*
%TO.C,D2*%
X109227500Y-78380000D03*
X110197500Y-78380000D03*
%TD*%
D25*
%TO.C,R3*%
X103755000Y-75740000D03*
X106680000Y-75740000D03*
%TD*%
D17*
%TO.C,C3*%
X120650000Y-63500000D03*
X119690000Y-63500000D03*
%TD*%
D25*
%TO.C,R8*%
X103755000Y-85610000D03*
X106680000Y-85610000D03*
%TD*%
D18*
%TO.C,K5*%
X31720000Y-163455000D03*
D19*
X33670000Y-169505000D03*
D18*
X45870000Y-169505000D03*
X45920000Y-157455000D03*
D19*
X33670000Y-157505000D03*
%TD*%
D25*
%TO.C,R1*%
X103755000Y-69160000D03*
X106680000Y-69160000D03*
%TD*%
D20*
%TO.C,D1*%
X109227500Y-76390000D03*
X110197500Y-76390000D03*
%TD*%
D25*
%TO.C,R2*%
X103755000Y-72450000D03*
X106680000Y-72450000D03*
%TD*%
%TO.C,R7*%
X103755000Y-82320000D03*
X106680000Y-82320000D03*
%TD*%
%TO.C,R9*%
X103755000Y-88900000D03*
X106680000Y-88900000D03*
%TD*%
%TO.C,R6*%
X103755000Y-79030000D03*
X106680000Y-79030000D03*
%TD*%
D18*
%TO.C,K6*%
X31720000Y-180405000D03*
D19*
X33670000Y-186455000D03*
D18*
X45870000Y-186455000D03*
X45920000Y-174405000D03*
D19*
X33670000Y-174455000D03*
%TD*%
D18*
%TO.C,K2*%
X32140000Y-109220000D03*
D19*
X34090000Y-115270000D03*
D18*
X46290000Y-115270000D03*
X46340000Y-103220000D03*
D19*
X34090000Y-103270000D03*
%TD*%
D25*
%TO.C,R5*%
X64577500Y-49530000D03*
X67502500Y-49530000D03*
%TD*%
D18*
%TO.C,K3*%
X31720000Y-129555000D03*
D19*
X33670000Y-135605000D03*
D18*
X45870000Y-135605000D03*
X45920000Y-123555000D03*
D19*
X33670000Y-123605000D03*
%TD*%
D25*
%TO.C,R4*%
X99945000Y-22860000D03*
X102870000Y-22860000D03*
%TD*%
D17*
%TO.C,C2*%
X113820000Y-63500000D03*
X114780000Y-63500000D03*
%TD*%
%LPD*%
M02*
