M48
; DRILL file {KiCad 7.0.8} date 2023 October 12, Thursday 20:46:22
; FORMAT={-:-/ absolute / inch / decimal}
; #@! TF.CreationDate,2023-10-12T20:46:22+03:00
; #@! TF.GenerationSoftware,Kicad,Pcbnew,7.0.8
; #@! TF.FileFunction,Plated,1,2,PTH
FMAT,2
INCH
; #@! TA.AperFunction,Plated,PTH,ComponentDrill
T1C0.0079
; #@! TA.AperFunction,Plated,PTH,ViaDrill
T2C0.0157
; #@! TA.AperFunction,Plated,PTH,ComponentDrill
T3C0.0256
; #@! TA.AperFunction,Plated,PTH,ComponentDrill
T4C0.0315
; #@! TA.AperFunction,Plated,PTH,ComponentDrill
T5C0.0394
; #@! TA.AperFunction,Plated,PTH,ComponentDrill
T6C0.0512
; #@! TA.AperFunction,Plated,PTH,ComponentDrill
T7C0.0689
%
G90
G05
T1
X4.9409Y2.8811
X4.9409Y2.826
X4.9685Y2.9087
X4.9685Y2.8545
X4.9685Y2.7984
X4.9961Y2.8811
X4.9961Y2.826
X5.0236Y2.9087
X5.0236Y2.8545
X5.0236Y2.7984
X5.0512Y2.8811
X5.0512Y2.826
T2
X0.75Y2.75
X1.45Y2.75
X1.6492Y1.0087
X1.7601Y0.8729
X1.8Y1.4284
X2.15Y2.75
X2.75Y1.3
X2.75Y0.65
X2.85Y2.75
X3.55Y2.75
X4.4Y3.15
X4.4Y3.05
X4.45Y2.95
X4.45Y2.85
X4.65Y3.2
X4.7Y3.2
X4.8Y3.2
X4.8195Y3.0811
X4.85Y3.05
X5.2Y3.05
X5.25Y3.05
X5.25Y1.45
T3
X4.9Y1.85
X4.9Y1.8
X4.9Y1.75
X4.95Y1.85
X4.95Y1.8
X4.95Y1.75
T4
X1.1Y0.8815
X1.1Y0.7437
X1.45Y1.2693
X1.45Y1.1315
T5
X0.5368Y2.1803
X1.0093Y2.1803
X1.2318Y2.1803
X1.7043Y2.1803
X1.9268Y2.1803
X2.3993Y2.1803
X2.6218Y2.1803
X3.0943Y2.1803
X3.3168Y2.1803
X3.7893Y2.1803
X4.0118Y2.1803
X4.4843Y2.1803
X4.6567Y2.2114
X4.7567Y2.2114
X4.8567Y2.2114
X4.9567Y2.2114
X5.0Y1.5
X5.0Y1.4
X5.0Y1.3
T6
X0.5368Y1.7
X0.775Y2.2571
X1.0112Y1.698
X1.2318Y1.7
X1.47Y2.2571
X1.7062Y1.698
X1.9268Y1.7
X2.165Y2.2571
X2.4012Y1.698
X2.6218Y1.7
X2.86Y2.2571
X3.0962Y1.698
X3.3168Y1.7
X3.555Y2.2571
X3.7912Y1.698
X4.0118Y1.7
X4.25Y2.2571
X4.4862Y1.698
T7
X0.5749Y0.8795
X0.7277Y0.8795
X3.4249Y0.8795
X3.5777Y0.8795
X3.8031Y0.8795
X3.9559Y0.8795
X4.1814Y0.8795
X4.3341Y0.8795
X4.5596Y0.8795
X4.7123Y0.8795
X4.9378Y0.8795
X5.0906Y0.8795
X5.316Y0.8795
X5.4688Y0.8795
T0
M30
