%TF.GenerationSoftware,KiCad,Pcbnew,7.0.8*%
%TF.CreationDate,2023-10-12T20:46:22+03:00*%
%TF.ProjectId,sprinklers,73707269-6e6b-46c6-9572-732e6b696361,1.0.5*%
%TF.SameCoordinates,Original*%
%TF.FileFunction,Copper,L2,Bot*%
%TF.FilePolarity,Positive*%
%FSLAX46Y46*%
G04 Gerber Fmt 4.6, Leading zero omitted, Abs format (unit mm)*
G04 Created by KiCad (PCBNEW 7.0.8) date 2023-10-12 20:46:22*
%MOMM*%
%LPD*%
G01*
G04 APERTURE LIST*
%TA.AperFunction,NonConductor*%
%ADD10C,0.200000*%
%TD*%
%ADD11C,0.300000*%
%TA.AperFunction,NonConductor*%
%ADD12C,0.300000*%
%TD*%
%TA.AperFunction,ComponentPad*%
%ADD13C,3.000000*%
%TD*%
%TA.AperFunction,ComponentPad*%
%ADD14C,2.500000*%
%TD*%
%TA.AperFunction,ComponentPad*%
%ADD15R,1.700000X1.700000*%
%TD*%
%TA.AperFunction,ComponentPad*%
%ADD16O,1.700000X1.700000*%
%TD*%
%TA.AperFunction,BGAPad,CuDef*%
%ADD17O,1.700000X1.700000*%
%TD*%
%TA.AperFunction,HeatsinkPad*%
%ADD18C,0.600000*%
%TD*%
%TA.AperFunction,ComponentPad*%
%ADD19R,1.600000X1.600000*%
%TD*%
%TA.AperFunction,ComponentPad*%
%ADD20C,1.600000*%
%TD*%
%TA.AperFunction,ComponentPad*%
%ADD21R,3.000000X3.000000*%
%TD*%
%TA.AperFunction,ComponentPad*%
%ADD22R,1.000000X1.000000*%
%TD*%
%TA.AperFunction,ComponentPad*%
%ADD23O,1.000000X1.000000*%
%TD*%
%TA.AperFunction,ViaPad*%
%ADD24C,0.800000*%
%TD*%
%TA.AperFunction,Conductor*%
%ADD25C,0.500000*%
%TD*%
%TA.AperFunction,Conductor*%
%ADD26C,0.250000*%
%TD*%
%TA.AperFunction,Conductor*%
%ADD27C,0.000000*%
%TD*%
G04 APERTURE END LIST*
D10*
X1905000Y97790000D02*
X145415000Y97790000D01*
X145415000Y1270000D01*
X1905000Y1270000D01*
X1905000Y97790000D01*
D11*
D12*
X153329774Y42339172D02*
X152472632Y42339172D01*
X152901203Y40839172D02*
X152901203Y42339172D01*
X152115489Y40839172D02*
X151329775Y41839172D01*
X152115489Y41839172D02*
X151329775Y40839172D01*
X148472632Y41839172D02*
X149615489Y41410600D01*
X149615489Y41410600D02*
X148472632Y40982029D01*
X147758346Y41839172D02*
X146615489Y41410600D01*
X146615489Y41410600D02*
X147758346Y40982029D01*
X143901203Y40839172D02*
X144401203Y41553458D01*
X144758346Y40839172D02*
X144758346Y42339172D01*
X144758346Y42339172D02*
X144186917Y42339172D01*
X144186917Y42339172D02*
X144044060Y42267743D01*
X144044060Y42267743D02*
X143972631Y42196315D01*
X143972631Y42196315D02*
X143901203Y42053458D01*
X143901203Y42053458D02*
X143901203Y41839172D01*
X143901203Y41839172D02*
X143972631Y41696315D01*
X143972631Y41696315D02*
X144044060Y41624886D01*
X144044060Y41624886D02*
X144186917Y41553458D01*
X144186917Y41553458D02*
X144758346Y41553458D01*
X143401203Y40839172D02*
X142615489Y41839172D01*
X143401203Y41839172D02*
X142615489Y40839172D01*
D13*
%TO.P,K4,1*%
%TO.N,Net-(AC24-IN1-Pin_1)*%
X72644000Y57330000D03*
D14*
%TO.P,K4,2*%
%TO.N,Net-(Q4-D)*%
X66594000Y55380000D03*
D13*
%TO.P,K4,3*%
%TO.N,unconnected-(K4-Pad3)*%
X66594000Y43180000D03*
%TO.P,K4,4*%
%TO.N,Net-(J4-Pin_1)*%
X78644000Y43130000D03*
D14*
%TO.P,K4,5*%
%TO.N,Net-(U1-FB)*%
X78594000Y55380000D03*
%TD*%
D15*
%TO.P,26 27 28 29,1*%
%TO.N,unconnected-(U2-IO5-Pad29)*%
X125900049Y56169491D03*
D16*
%TO.P,26 27 28 29,2*%
%TO.N,unconnected-(U2-IO17-Pad28)*%
X123360049Y56169491D03*
%TO.P,26 27 28 29,3*%
%TO.N,unconnected-(U2-IO16-Pad27)*%
X120820049Y56169491D03*
D17*
%TO.P,26 27 28 29,4*%
%TO.N,unconnected-(U2-IO4-Pad26)*%
X118280049Y56169491D03*
%TD*%
D18*
%TO.P,U2,39,GND*%
%TO.N,GND1*%
X127600000Y73880000D03*
X126200000Y73880000D03*
X128300000Y73180000D03*
X126900000Y73180000D03*
X125500000Y73180000D03*
X127600000Y72505000D03*
X126200000Y72505000D03*
X128300000Y71780000D03*
X126900000Y71780000D03*
X125500000Y71780000D03*
X127600000Y71080000D03*
X126200000Y71080000D03*
%TD*%
D13*
%TO.P,K1,1*%
%TO.N,Net-(AC24-IN1-Pin_1)*%
X19685000Y57330000D03*
D14*
%TO.P,K1,2*%
%TO.N,Net-(Q1-D)*%
X13635000Y55380000D03*
D13*
%TO.P,K1,3*%
%TO.N,unconnected-(K1-Pad3)*%
X13635000Y43180000D03*
%TO.P,K1,4*%
%TO.N,Net-(J1-Pin_1)*%
X25685000Y43130000D03*
D14*
%TO.P,K1,5*%
%TO.N,Net-(U1-FB)*%
X25635000Y55380000D03*
%TD*%
D19*
%TO.P,C6,1*%
%TO.N,Net-(U1-FB)*%
X36830000Y28740000D03*
D20*
%TO.P,C6,2*%
%TO.N,GND1*%
X36830000Y32240000D03*
%TD*%
D19*
%TO.P,C5,1*%
%TO.N,Net-(D4-K)*%
X27940000Y22390000D03*
D20*
%TO.P,C5,2*%
%TO.N,GND1*%
X27940000Y18890000D03*
%TD*%
D21*
%TO.P,J6,1,Pin_1*%
%TO.N,Net-(J6-Pin_1)*%
X135027500Y22340000D03*
D13*
%TO.P,J6,2,Pin_2*%
%TO.N,GND1*%
X138907500Y22340000D03*
%TD*%
D21*
%TO.P,J2,1,Pin_1*%
%TO.N,Net-(J2-Pin_1)*%
X96599500Y22340000D03*
D13*
%TO.P,J2,2,Pin_2*%
%TO.N,GND1*%
X100479500Y22340000D03*
%TD*%
%TO.P,K5,1*%
%TO.N,Net-(AC24-IN1-Pin_1)*%
X90297000Y57330000D03*
D14*
%TO.P,K5,2*%
%TO.N,Net-(Q5-D)*%
X84247000Y55380000D03*
D13*
%TO.P,K5,3*%
%TO.N,unconnected-(K5-Pad3)*%
X84247000Y43180000D03*
%TO.P,K5,4*%
%TO.N,Net-(J5-Pin_1)*%
X96297000Y43130000D03*
D14*
%TO.P,K5,5*%
%TO.N,Net-(U1-FB)*%
X96247000Y55380000D03*
%TD*%
D21*
%TO.P,J3,1,Pin_1*%
%TO.N,Net-(J3-Pin_1)*%
X106206500Y22340000D03*
D13*
%TO.P,J3,2,Pin_2*%
%TO.N,GND1*%
X110086500Y22340000D03*
%TD*%
D21*
%TO.P,J1,1,Pin_1*%
%TO.N,Net-(J1-Pin_1)*%
X86992500Y22340000D03*
D13*
%TO.P,J1,2,Pin_2*%
%TO.N,GND1*%
X90872500Y22340000D03*
%TD*%
D16*
%TO.P,5V 3V3 GND,1*%
%TO.N,GND1*%
X127000000Y38100000D03*
D15*
%TO.P,5V 3V3 GND,2*%
%TO.N,Net-(U2-VDD)*%
X127000000Y35560000D03*
%TO.P,5V 3V3 GND,3*%
%TO.N,Net-(U1-FB)*%
X127000000Y33020000D03*
%TD*%
D21*
%TO.P,AC24-IN1,1,Pin_1*%
%TO.N,Net-(AC24-IN1-Pin_1)*%
X14602500Y22340000D03*
D13*
%TO.P,AC24-IN1,2,Pin_2*%
%TO.N,GND1*%
X18482500Y22340000D03*
%TD*%
D22*
%TO.P,EXT/PROG,1*%
%TO.N,unconnected-(U2-EN-Pad3)*%
X124460000Y46990000D03*
D23*
%TO.P,EXT/PROG,2*%
%TO.N,Net-(U2-VDD)*%
X125730000Y46990000D03*
%TO.P,EXT/PROG,3*%
%TO.N,unconnected-(U2-RXD0{slash}IO3-Pad34)*%
X124460000Y45720000D03*
%TO.P,EXT/PROG,4*%
%TO.N,GND1*%
X125730000Y45720000D03*
%TO.P,EXT/PROG,5*%
%TO.N,unconnected-(U2-TXD0{slash}IO1-Pad35)*%
X124460000Y44450000D03*
%TO.P,EXT/PROG,6*%
%TO.N,unconnected-(U2-IO0-Pad25)*%
X125730000Y44450000D03*
%TD*%
D13*
%TO.P,K6,1*%
%TO.N,Net-(AC24-IN1-Pin_1)*%
X107950000Y57330000D03*
D14*
%TO.P,K6,2*%
%TO.N,Net-(Q6-D)*%
X101900000Y55380000D03*
D13*
%TO.P,K6,3*%
%TO.N,unconnected-(K6-Pad3)*%
X101900000Y43180000D03*
%TO.P,K6,4*%
%TO.N,Net-(J6-Pin_1)*%
X113950000Y43130000D03*
D14*
%TO.P,K6,5*%
%TO.N,Net-(U1-FB)*%
X113900000Y55380000D03*
%TD*%
D13*
%TO.P,K2,1*%
%TO.N,Net-(AC24-IN1-Pin_1)*%
X37338000Y57330000D03*
D14*
%TO.P,K2,2*%
%TO.N,Net-(Q2-D)*%
X31288000Y55380000D03*
D13*
%TO.P,K2,3*%
%TO.N,unconnected-(K2-Pad3)*%
X31288000Y43180000D03*
%TO.P,K2,4*%
%TO.N,Net-(J2-Pin_1)*%
X43338000Y43130000D03*
D14*
%TO.P,K2,5*%
%TO.N,Net-(U1-FB)*%
X43288000Y55380000D03*
%TD*%
D21*
%TO.P,J4,1,Pin_1*%
%TO.N,Net-(J4-Pin_1)*%
X115813500Y22340000D03*
D13*
%TO.P,J4,2,Pin_2*%
%TO.N,GND1*%
X119693500Y22340000D03*
%TD*%
%TO.P,K3,1*%
%TO.N,Net-(AC24-IN1-Pin_1)*%
X54991000Y57330000D03*
D14*
%TO.P,K3,2*%
%TO.N,Net-(Q3-D)*%
X48941000Y55380000D03*
D13*
%TO.P,K3,3*%
%TO.N,unconnected-(K3-Pad3)*%
X48941000Y43180000D03*
%TO.P,K3,4*%
%TO.N,Net-(J3-Pin_1)*%
X60991000Y43130000D03*
D14*
%TO.P,K3,5*%
%TO.N,Net-(U1-FB)*%
X60941000Y55380000D03*
%TD*%
D21*
%TO.P,J5,1,Pin_1*%
%TO.N,Net-(J5-Pin_1)*%
X125420500Y22340000D03*
D13*
%TO.P,J5,2,Pin_2*%
%TO.N,GND1*%
X129300500Y22340000D03*
%TD*%
D24*
%TO.N,Net-(U1-FB)*%
X45720000Y36282353D03*
%TO.N,Net-(U2-IO26)*%
X19050000Y69850000D03*
X121920000Y81280000D03*
%TO.N,Net-(U2-IO14)*%
X36830000Y69850000D03*
X119380000Y81280000D03*
%TO.N,unconnected-(U2-EN-Pad3)*%
X132080000Y77470000D03*
%TO.N,Net-(U2-IO12)*%
X118110000Y81280000D03*
X54610000Y69850000D03*
%TO.N,Net-(D3-A)*%
X122415845Y78259680D03*
X111760000Y80010000D03*
%TO.N,Net-(D2-A)*%
X111760000Y77470000D03*
X123190000Y77470000D03*
%TO.N,Net-(U2-IO13)*%
X113030000Y74930000D03*
X72390000Y69850000D03*
%TO.N,Net-(U2-SCS{slash}CMD)*%
X113030000Y72390000D03*
X90170000Y69850000D03*
%TO.N,Net-(U2-VDD)*%
X133350000Y36830000D03*
X133350000Y77470000D03*
%TO.N,Net-(U1-FB)*%
X69850000Y33020000D03*
X44705625Y22172528D03*
%TO.N,Net-(D5-K)*%
X41889218Y25621668D03*
X69850000Y16510000D03*
%TD*%
D25*
%TO.N,Net-(J6-Pin_1)*%
X135027500Y22340000D02*
X129427500Y27940000D01*
X129427500Y27940000D02*
X124460000Y27940000D01*
X124460000Y27940000D02*
X113950000Y38450000D01*
X113950000Y38450000D02*
X113950000Y43130000D01*
%TO.N,Net-(J5-Pin_1)*%
X98787000Y40640000D02*
X107120500Y40640000D01*
X107120500Y40640000D02*
X125420500Y22340000D01*
X98787000Y40640000D02*
X96297000Y43130000D01*
%TO.N,Net-(J4-Pin_1)*%
X78644000Y43130000D02*
X78644000Y39963129D01*
X78644000Y39963129D02*
X98190371Y39963129D01*
X98190371Y39963129D02*
X115813500Y22340000D01*
%TO.N,Net-(J3-Pin_1)*%
X60991000Y43130000D02*
X60991000Y39263129D01*
X89283371Y39263129D02*
X106206500Y22340000D01*
X60991000Y39263129D02*
X89283371Y39263129D01*
%TO.N,Net-(J1-Pin_1)*%
X71777500Y37555000D02*
X86992500Y22340000D01*
X25685000Y37555000D02*
X71777500Y37555000D01*
X25685000Y43130000D02*
X25685000Y37555000D01*
%TO.N,Net-(U1-FB)*%
X43180000Y29210000D02*
X43180000Y33020000D01*
X43180000Y33020000D02*
X45720000Y33020000D01*
X43180000Y23486020D02*
X43180000Y29210000D01*
X43180000Y29210000D02*
X42710000Y28740000D01*
X42710000Y28740000D02*
X36830000Y28740000D01*
X44705625Y22172528D02*
X44493492Y22172528D01*
X44493492Y22172528D02*
X43180000Y23486020D01*
%TO.N,Net-(J2-Pin_1)*%
X43338000Y43130000D02*
X43338000Y38255000D01*
X43338000Y38255000D02*
X72067449Y38255000D01*
X72067449Y38255000D02*
X72222449Y38100000D01*
X80839500Y38100000D02*
X96599500Y22340000D01*
X72222449Y38100000D02*
X80839500Y38100000D01*
%TO.N,Net-(U1-FB)*%
X45720000Y33020000D02*
X45720000Y36282353D01*
X69850000Y33020000D02*
X45720000Y33020000D01*
%TO.N,Net-(J1-Pin_1)*%
X86992500Y22340000D02*
X86880000Y22340000D01*
D26*
%TO.N,Net-(U2-IO26)*%
X19050000Y82360000D02*
X19145000Y82455000D01*
X19050000Y69850000D02*
X19050000Y82360000D01*
X19145000Y82455000D02*
X121920000Y82455000D01*
X121920000Y82455000D02*
X121920000Y81280000D01*
%TO.N,Net-(U2-IO14)*%
X119380000Y81280000D02*
X118655000Y82005000D01*
X118655000Y82005000D02*
X36830000Y82005000D01*
X36830000Y82005000D02*
X36830000Y69850000D01*
%TO.N,unconnected-(U2-EN-Pad3)*%
X124460000Y46990000D02*
X132080000Y54610000D01*
X132080000Y54610000D02*
X132080000Y77470000D01*
%TO.N,Net-(U2-IO12)*%
X118110000Y81280000D02*
X54610000Y81280000D01*
X54610000Y81280000D02*
X54610000Y69850000D01*
%TO.N,Net-(D3-A)*%
X113510320Y78259680D02*
X111760000Y80010000D01*
X122415845Y78259680D02*
X113510320Y78259680D01*
%TO.N,Net-(D2-A)*%
X111760000Y77470000D02*
X123190000Y77470000D01*
%TO.N,Net-(U2-IO13)*%
X113030000Y73660000D02*
X112210000Y72840000D01*
X113030000Y74930000D02*
X113030000Y73660000D01*
X112210000Y72840000D02*
X75380000Y72840000D01*
X75380000Y72840000D02*
X72390000Y69850000D01*
%TO.N,Net-(U2-SCS{slash}CMD)*%
X113030000Y72390000D02*
X90170000Y72390000D01*
X90170000Y72390000D02*
X90170000Y69850000D01*
%TO.N,Net-(U2-VDD)*%
X133350000Y48260000D02*
X133350000Y36830000D01*
X133350000Y77470000D02*
X133350000Y48260000D01*
X127000000Y48260000D02*
X133350000Y48260000D01*
X125730000Y46990000D02*
X127000000Y48260000D01*
D25*
%TO.N,Net-(D5-K)*%
X41889218Y16530782D02*
X41910000Y16510000D01*
D27*
X41910000Y24820492D02*
X41910000Y24119624D01*
X41910000Y24119624D02*
X49519624Y16510000D01*
D25*
X41889218Y25621668D02*
X41889218Y16530782D01*
X41910000Y16510000D02*
X69850000Y16510000D01*
%TO.N,Net-(AC24-IN1-Pin_1)*%
X107950000Y57330000D02*
X90297000Y57330000D01*
X54991000Y57330000D02*
X37338000Y57330000D01*
X90297000Y57330000D02*
X72644000Y57330000D01*
X19685000Y57330000D02*
X37338000Y57330000D01*
X54991000Y57330000D02*
X72644000Y57330000D01*
%TD*%
M02*
